M48
; DRILL file {KiCad 9.0.3-9.0.3-0~ubuntu24.04.1} date 2025-09-21T12:24:56+0200
; FORMAT={-:-/ absolute / metric / decimal}
; #@! TF.CreationDate,2025-09-21T12:24:56+02:00
; #@! TF.GenerationSoftware,Kicad,Pcbnew,9.0.3-9.0.3-0~ubuntu24.04.1
; #@! TF.FileFunction,Plated,1,4,PTH
FMAT,2
METRIC
; #@! TA.AperFunction,Plated,PTH,ViaDrill
T1C0.300
; #@! TA.AperFunction,Plated,PTH,ComponentDrill
T2C0.300
; #@! TA.AperFunction,Plated,PTH,ViaDrill
T3C0.400
; #@! TA.AperFunction,Plated,PTH,ComponentDrill
T4C0.600
; #@! TA.AperFunction,Plated,PTH,ComponentDrill
T5C0.800
; #@! TA.AperFunction,Plated,PTH,ComponentDrill
T6C1.000
; #@! TA.AperFunction,Plated,PTH,ComponentDrill
T7C1.127
%
G90
G05
T1
X102.0Y-127.8
X103.4Y-125.2
X103.57Y-130.9
X103.77Y-130.13
X103.77Y-135.5
X104.0Y-119.77
X104.0Y-127.2
X104.09Y-122.38
X104.44Y-133.1
X105.87Y-121.8
X106.53Y-128.39
X107.09Y-127.02
X107.17Y-135.5
X107.27Y-122.5
X107.37Y-124.7
X107.77Y-123.1
X107.77Y-135.5
X108.37Y-123.7
X108.37Y-127.7
X108.37Y-128.5
X108.44Y-133.1
X109.52Y-117.75
X110.17Y-130.9
X110.27Y-118.25
X110.57Y-123.7
X110.57Y-127.7
X111.02Y-118.75
X111.135Y-131.015
X111.17Y-135.5
X111.37Y-123.1
X111.69Y-126.22
X111.72Y-133.1
X111.754Y-119.206
X111.77Y-135.5
X112.17Y-122.5
X112.475Y-126.014
X113.02Y-121.25
X113.27Y-117.6
X113.815Y-120.92
X113.845Y-112.175
X114.77Y-122.45
X116.77Y-118.2
X116.97Y-120.9
T2
X99.559Y-121.855
X99.57Y-120.948
X99.57Y-122.934
X99.57Y-123.848
X99.57Y-124.934
X99.57Y-125.848
X99.721Y-128.705
X99.721Y-129.975
X99.721Y-131.245
X99.721Y-132.515
X99.721Y-133.785
X99.721Y-135.055
X99.74Y-118.3
X99.74Y-119.7
X99.975Y-138.611
X99.975Y-140.389
X100.64Y-119.7
X100.654Y-118.3
X100.97Y-122.948
X100.97Y-123.848
X100.97Y-124.948
X100.97Y-125.848
X100.981Y-120.941
X100.981Y-121.855
X101.245Y-138.611
X101.245Y-140.389
X101.499Y-128.705
X101.499Y-129.975
X101.499Y-131.245
X101.499Y-132.515
X101.499Y-133.785
X101.499Y-135.055
X101.733Y-118.289
X101.733Y-119.711
X102.515Y-138.611
X102.515Y-140.389
X102.64Y-118.3
X102.647Y-119.711
X103.785Y-138.611
X103.785Y-140.389
X105.055Y-138.611
X105.055Y-140.389
X106.325Y-138.611
X106.325Y-140.389
X107.595Y-138.611
X107.595Y-140.389
X108.865Y-138.611
X108.865Y-140.389
X110.135Y-138.611
X110.135Y-140.389
X111.405Y-138.611
X111.405Y-140.389
X112.675Y-138.611
X112.675Y-140.389
X113.945Y-138.611
X113.945Y-140.389
X117.501Y-122.625
X117.501Y-123.895
X117.501Y-125.165
X117.501Y-126.435
X117.501Y-127.705
X117.501Y-128.975
X117.501Y-130.245
X117.501Y-131.515
X117.501Y-133.785
X117.501Y-135.055
X117.501Y-136.325
X117.501Y-137.595
X117.501Y-138.865
X117.501Y-140.135
X119.279Y-122.625
X119.279Y-123.895
X119.279Y-125.165
X119.279Y-126.435
X119.279Y-127.705
X119.279Y-128.975
X119.279Y-130.245
X119.279Y-131.515
X119.279Y-133.785
X119.279Y-135.055
X119.279Y-136.325
X119.279Y-137.595
X119.279Y-138.865
X119.279Y-140.135
T3
X107.19Y-133.1
X110.27Y-134.7
X110.97Y-133.1
X114.57Y-135.45
X118.89Y-119.82
T5
X100.19Y-119.0
X100.27Y-121.398
X100.27Y-123.398
X100.27Y-125.398
X102.19Y-119.0
T6
X100.583Y-111.337
X100.583Y-113.877
X100.583Y-116.417
X103.123Y-111.337
X103.123Y-113.877
X103.123Y-116.417
X105.663Y-111.337
X105.663Y-113.877
X105.663Y-116.417
X108.203Y-111.337
X108.203Y-113.877
X108.203Y-116.417
T7
X100.61Y-129.34
X100.61Y-131.88
X100.61Y-134.42
X100.61Y-139.5
X103.15Y-139.5
X105.69Y-139.5
X108.23Y-139.5
X110.77Y-139.5
X113.31Y-139.5
X118.39Y-123.26
X118.39Y-125.8
X118.39Y-128.34
X118.39Y-130.88
X118.39Y-134.42
X118.39Y-136.96
X118.39Y-139.5
T4
G00X110.68Y-111.45
M15
G01X110.68Y-112.55
M16
G05
G00X110.68Y-115.63
M15
G01X110.68Y-116.73
M16
G05
G00X119.32Y-111.45
M15
G01X119.32Y-112.55
M16
G05
G00X119.32Y-115.63
M15
G01X119.32Y-116.73
M16
G05
M30
