%TF.GenerationSoftware,KiCad,Pcbnew,9.0.3-9.0.3-0~ubuntu24.04.1*%
%TF.CreationDate,2025-09-19T18:16:16+02:00*%
%TF.ProjectId,ant control board v2,616e7420-636f-46e7-9472-6f6c20626f61,2.0*%
%TF.SameCoordinates,Original*%
%TF.FileFunction,Copper,L4,Bot*%
%TF.FilePolarity,Positive*%
%FSLAX46Y46*%
G04 Gerber Fmt 4.6, Leading zero omitted, Abs format (unit mm)*
G04 Created by KiCad (PCBNEW 9.0.3-9.0.3-0~ubuntu24.04.1) date 2025-09-19 18:16:16*
%MOMM*%
%LPD*%
G01*
G04 APERTURE LIST*
G04 Aperture macros list*
%AMRoundRect*
0 Rectangle with rounded corners*
0 $1 Rounding radius*
0 $2 $3 $4 $5 $6 $7 $8 $9 X,Y pos of 4 corners*
0 Add a 4 corners polygon primitive as box body*
4,1,4,$2,$3,$4,$5,$6,$7,$8,$9,$2,$3,0*
0 Add four circle primitives for the rounded corners*
1,1,$1+$1,$2,$3*
1,1,$1+$1,$4,$5*
1,1,$1+$1,$6,$7*
1,1,$1+$1,$8,$9*
0 Add four rect primitives between the rounded corners*
20,1,$1+$1,$2,$3,$4,$5,0*
20,1,$1+$1,$4,$5,$6,$7,0*
20,1,$1+$1,$6,$7,$8,$9,0*
20,1,$1+$1,$8,$9,$2,$3,0*%
%AMFreePoly0*
4,1,9,3.862500,-0.866500,0.737500,-0.866500,0.737500,-0.450000,-0.737500,-0.450000,-0.737500,0.450000,0.737500,0.450000,0.737500,0.866500,3.862500,0.866500,3.862500,-0.866500,3.862500,-0.866500,$1*%
G04 Aperture macros list end*
%TA.AperFunction,SMDPad,CuDef*%
%ADD10RoundRect,0.250000X-0.250000X0.500000X-0.250000X-0.500000X0.250000X-0.500000X0.250000X0.500000X0*%
%TD*%
%TA.AperFunction,ComponentPad*%
%ADD11C,0.500000*%
%TD*%
%TA.AperFunction,ComponentPad*%
%ADD12RoundRect,0.375000X0.375000X-0.625000X0.375000X0.625000X-0.375000X0.625000X-0.375000X-0.625000X0*%
%TD*%
%TA.AperFunction,ComponentPad*%
%ADD13RoundRect,0.375000X0.625000X0.375000X-0.625000X0.375000X-0.625000X-0.375000X0.625000X-0.375000X0*%
%TD*%
%TA.AperFunction,SMDPad,CuDef*%
%ADD14RoundRect,0.140000X0.170000X-0.140000X0.170000X0.140000X-0.170000X0.140000X-0.170000X-0.140000X0*%
%TD*%
%TA.AperFunction,ComponentPad*%
%ADD15C,2.000000*%
%TD*%
%TA.AperFunction,SMDPad,CuDef*%
%ADD16RoundRect,0.140000X-0.140000X-0.170000X0.140000X-0.170000X0.140000X0.170000X-0.140000X0.170000X0*%
%TD*%
%TA.AperFunction,ComponentPad*%
%ADD17RoundRect,0.300000X0.970000X-0.700000X0.970000X0.700000X-0.970000X0.700000X-0.970000X-0.700000X0*%
%TD*%
%TA.AperFunction,ComponentPad*%
%ADD18O,1.250000X2.500000*%
%TD*%
%TA.AperFunction,ComponentPad*%
%ADD19RoundRect,0.300000X-0.700000X-0.970000X0.700000X-0.970000X0.700000X0.970000X-0.700000X0.970000X0*%
%TD*%
%TA.AperFunction,ComponentPad*%
%ADD20RoundRect,0.300000X-0.970000X0.700000X-0.970000X-0.700000X0.970000X-0.700000X0.970000X0.700000X0*%
%TD*%
%TA.AperFunction,SMDPad,CuDef*%
%ADD21RoundRect,0.135000X0.185000X-0.135000X0.185000X0.135000X-0.185000X0.135000X-0.185000X-0.135000X0*%
%TD*%
%TA.AperFunction,SMDPad,CuDef*%
%ADD22RoundRect,0.135000X0.135000X0.185000X-0.135000X0.185000X-0.135000X-0.185000X0.135000X-0.185000X0*%
%TD*%
%TA.AperFunction,SMDPad,CuDef*%
%ADD23RoundRect,0.135000X-0.135000X-0.185000X0.135000X-0.185000X0.135000X0.185000X-0.135000X0.185000X0*%
%TD*%
%TA.AperFunction,SMDPad,CuDef*%
%ADD24RoundRect,0.150000X0.150000X-0.512500X0.150000X0.512500X-0.150000X0.512500X-0.150000X-0.512500X0*%
%TD*%
%TA.AperFunction,SMDPad,CuDef*%
%ADD25RoundRect,0.140000X0.140000X0.170000X-0.140000X0.170000X-0.140000X-0.170000X0.140000X-0.170000X0*%
%TD*%
%TA.AperFunction,SMDPad,CuDef*%
%ADD26RoundRect,0.225000X-0.425000X-0.225000X0.425000X-0.225000X0.425000X0.225000X-0.425000X0.225000X0*%
%TD*%
%TA.AperFunction,SMDPad,CuDef*%
%ADD27FreePoly0,0.000000*%
%TD*%
%TA.AperFunction,SMDPad,CuDef*%
%ADD28RoundRect,0.087500X0.225000X0.087500X-0.225000X0.087500X-0.225000X-0.087500X0.225000X-0.087500X0*%
%TD*%
%TA.AperFunction,SMDPad,CuDef*%
%ADD29RoundRect,0.087500X0.087500X0.225000X-0.087500X0.225000X-0.087500X-0.225000X0.087500X-0.225000X0*%
%TD*%
%TA.AperFunction,SMDPad,CuDef*%
%ADD30RoundRect,0.140000X-0.170000X0.140000X-0.170000X-0.140000X0.170000X-0.140000X0.170000X0.140000X0*%
%TD*%
%TA.AperFunction,ViaPad*%
%ADD31C,0.500000*%
%TD*%
%TA.AperFunction,ViaPad*%
%ADD32C,0.600000*%
%TD*%
%TA.AperFunction,Conductor*%
%ADD33C,0.500000*%
%TD*%
%TA.AperFunction,Conductor*%
%ADD34C,0.200000*%
%TD*%
%TA.AperFunction,Profile*%
%ADD35C,0.050000*%
%TD*%
G04 APERTURE END LIST*
D10*
%TO.P,J12,1,Pin_1*%
%TO.N,/MCU and RX/UART2_TX*%
X117029404Y-110926904D03*
%TO.P,J12,2,Pin_2*%
%TO.N,/MCU and RX/UART2_RX*%
X115779404Y-110926904D03*
%TO.P,J12,3,Pin_3*%
%TO.N,+3V3*%
X114529404Y-110926904D03*
%TO.P,J12,4,Pin_4*%
%TO.N,GND*%
X113279404Y-110926904D03*
%TD*%
D11*
%TO.P,J10,2,Pin_2*%
%TO.N,/MCU and RX/DIGITAL_AUX2*%
X99740000Y-118300000D03*
X99740000Y-119700000D03*
D12*
X100190000Y-119000000D03*
D11*
X100640000Y-119700000D03*
X100654400Y-118300000D03*
%TO.P,J10,1,Pin_1*%
%TO.N,/MCU and RX/DIGITAL_AUX1*%
X101732800Y-118288800D03*
X101732800Y-119711200D03*
D12*
X102190000Y-119000000D03*
D11*
X102640000Y-118300000D03*
X102647200Y-119711200D03*
%TD*%
%TO.P,J9,3,Pin_3*%
%TO.N,GND*%
X99570000Y-125848096D03*
X100970000Y-125848096D03*
D13*
X100270000Y-125398096D03*
D11*
X100970000Y-124948096D03*
X99570000Y-124933696D03*
%TO.P,J9,2,Pin_2*%
%TO.N,Net-(J9-Pin_2)*%
X99570000Y-123848096D03*
X100970000Y-123848096D03*
D13*
X100270000Y-123398096D03*
D11*
X100970000Y-122948096D03*
X99570000Y-122933696D03*
%TO.P,J9,1,Pin_1*%
%TO.N,+3V3*%
X99558800Y-121855296D03*
X100981200Y-121855296D03*
D13*
X100270000Y-121398096D03*
D11*
X99570000Y-120948096D03*
X100981200Y-120940896D03*
%TD*%
D14*
%TO.P,C9,2*%
%TO.N,GND*%
X107090000Y-125420000D03*
%TO.P,C9,1*%
%TO.N,+3V3*%
X107090000Y-126380000D03*
%TD*%
D15*
%TO.P,U7,12,CH4*%
%TO.N,/MCU and RX/CH4*%
X100583000Y-116417000D03*
%TO.P,U7,11*%
%TO.N,+3V3*%
X100583000Y-113877000D03*
%TO.P,U7,10*%
%TO.N,GND*%
X100583000Y-111337000D03*
%TO.P,U7,9,CH3*%
%TO.N,/MCU and RX/CH3*%
X103123000Y-116417000D03*
%TO.P,U7,8*%
%TO.N,+3V3*%
X103123000Y-113877000D03*
%TO.P,U7,7*%
%TO.N,GND*%
X103123000Y-111337000D03*
%TO.P,U7,6,CH2*%
%TO.N,/MCU and RX/CH2*%
X105663000Y-116417000D03*
%TO.P,U7,5*%
%TO.N,+3V3*%
X105663000Y-113877000D03*
%TO.P,U7,4*%
%TO.N,GND*%
X105663000Y-111337000D03*
%TO.P,U7,3,CH1_(PPM)*%
%TO.N,/MCU and RX/CH1_PPM*%
X108203000Y-116417000D03*
%TO.P,U7,2,VCC*%
%TO.N,+3V3*%
X108203000Y-113877000D03*
%TO.P,U7,1,GND*%
%TO.N,GND*%
X108203000Y-111337000D03*
%TD*%
D16*
%TO.P,C4,2*%
%TO.N,GND*%
X112650000Y-126900000D03*
%TO.P,C4,1*%
%TO.N,+3V3*%
X111690000Y-126900000D03*
%TD*%
D11*
%TO.P,J7,1,Pin_1*%
%TO.N,/MCU and RX/SERVO1*%
X99721000Y-135055000D03*
X101499000Y-135055000D03*
D17*
X100610000Y-134420000D03*
D11*
X99721000Y-133785000D03*
X101499000Y-133785000D03*
%TO.P,J7,2,Pin_2*%
%TO.N,+BATT*%
X99721000Y-132515000D03*
X101499000Y-132515000D03*
D17*
X100610000Y-131880000D03*
D11*
X99721000Y-131245000D03*
X101499000Y-131245000D03*
%TO.P,J7,3,Pin_3*%
%TO.N,GND*%
X99721000Y-129975000D03*
X101499000Y-129975000D03*
D17*
X100610000Y-129340000D03*
D11*
X99721000Y-128705000D03*
X101499000Y-128705000D03*
%TD*%
D18*
%TO.P,J3,13,SHIELD*%
%TO.N,GND*%
X119320000Y-116180000D03*
X119320000Y-112000000D03*
X110680000Y-116180000D03*
X110680000Y-112000000D03*
%TD*%
D11*
%TO.P,J5,1,Pin_1*%
%TO.N,/DC Motors/M2+*%
X105055000Y-138611000D03*
X105055000Y-140389000D03*
D19*
X105690000Y-139500000D03*
D11*
X106325000Y-138611000D03*
X106325000Y-140389000D03*
%TO.P,J5,2,Pin_2*%
%TO.N,/DC Motors/M2-*%
X107595000Y-138611000D03*
X107595000Y-140389000D03*
D19*
X108230000Y-139500000D03*
D11*
X108865000Y-138611000D03*
X108865000Y-140389000D03*
%TD*%
%TO.P,J8,1,Pin_1*%
%TO.N,/MCU and RX/SERVO2*%
X117501000Y-140135000D03*
X119279000Y-140135000D03*
D17*
X118390000Y-139500000D03*
D11*
X117501000Y-138865000D03*
X119279000Y-138865000D03*
%TO.P,J8,2,Pin_2*%
%TO.N,+BATT*%
X117501000Y-137595000D03*
X119279000Y-137595000D03*
D17*
X118390000Y-136960000D03*
D11*
X117501000Y-136325000D03*
X119279000Y-136325000D03*
%TO.P,J8,3,Pin_3*%
%TO.N,GND*%
X117501000Y-135055000D03*
X119279000Y-135055000D03*
D17*
X118390000Y-134420000D03*
D11*
X117501000Y-133785000D03*
X119279000Y-133785000D03*
%TD*%
%TO.P,J6,1,Pin_1*%
%TO.N,/DC Motors/M3+*%
X110135000Y-138611000D03*
X110135000Y-140389000D03*
D19*
X110770000Y-139500000D03*
D11*
X111405000Y-138611000D03*
X111405000Y-140389000D03*
%TO.P,J6,2,Pin_2*%
%TO.N,/DC Motors/M3-*%
X112675000Y-138611000D03*
X112675000Y-140389000D03*
D19*
X113310000Y-139500000D03*
D11*
X113945000Y-138611000D03*
X113945000Y-140389000D03*
%TD*%
%TO.P,J4,1,Pin_1*%
%TO.N,/DC Motors/M1+*%
X99975000Y-138611000D03*
X99975000Y-140389000D03*
D19*
X100610000Y-139500000D03*
D11*
X101245000Y-138611000D03*
X101245000Y-140389000D03*
%TO.P,J4,2,Pin_2*%
%TO.N,/DC Motors/M1-*%
X102515000Y-138611000D03*
X102515000Y-140389000D03*
D19*
X103150000Y-139500000D03*
D11*
X103785000Y-138611000D03*
X103785000Y-140389000D03*
%TD*%
%TO.P,J1,1,Pin_1*%
%TO.N,/Power/+SW*%
X119279000Y-127705000D03*
X117501000Y-127705000D03*
D20*
X118390000Y-128340000D03*
D11*
X119279000Y-128975000D03*
X117501000Y-128975000D03*
%TO.P,J1,2,Pin_2*%
%TO.N,+BATT*%
X119279000Y-130245000D03*
X117501000Y-130245000D03*
D20*
X118390000Y-130880000D03*
D11*
X119279000Y-131515000D03*
X117501000Y-131515000D03*
%TD*%
%TO.P,J2,1,Pin_1*%
%TO.N,GND*%
X119279000Y-122625000D03*
X117501000Y-122625000D03*
D20*
X118390000Y-123260000D03*
D11*
X119279000Y-123895000D03*
X117501000Y-123895000D03*
%TO.P,J2,2,Pin_2*%
%TO.N,/Power/+SW*%
X119279000Y-125165000D03*
X117501000Y-125165000D03*
D20*
X118390000Y-125800000D03*
D11*
X119279000Y-126435000D03*
X117501000Y-126435000D03*
%TD*%
D21*
%TO.P,R5,1*%
%TO.N,/Sensors/VBAT_DIV*%
X105490000Y-129410000D03*
%TO.P,R5,2*%
%TO.N,/MCU and RX/VBAT*%
X105490000Y-128390000D03*
%TD*%
D22*
%TO.P,R4,1*%
%TO.N,/Sensors/VBAT_DIV*%
X105500000Y-130600000D03*
%TO.P,R4,2*%
%TO.N,GND*%
X104480000Y-130600000D03*
%TD*%
D23*
%TO.P,R3,1*%
%TO.N,+BATT*%
X104480000Y-131700000D03*
%TO.P,R3,2*%
%TO.N,/Sensors/VBAT_DIV*%
X105500000Y-131700000D03*
%TD*%
D24*
%TO.P,U8,5,WP*%
%TO.N,GND*%
X106720000Y-121362500D03*
%TO.P,U8,4,VCC*%
%TO.N,+3V3*%
X104820000Y-121362500D03*
%TO.P,U8,3,SDA*%
%TO.N,/MCU and RX/I2C1_SDA*%
X104820000Y-123637500D03*
%TO.P,U8,2,GND*%
%TO.N,GND*%
X105770000Y-123637500D03*
%TO.P,U8,1,SCL*%
%TO.N,/MCU and RX/I2C1_SCL*%
X106720000Y-123637500D03*
%TD*%
D22*
%TO.P,R1,1*%
%TO.N,Net-(J3-CC2)*%
X113200000Y-118300000D03*
%TO.P,R1,2*%
%TO.N,GND*%
X112180000Y-118300000D03*
%TD*%
D25*
%TO.P,C10,1*%
%TO.N,+3V3*%
X109970000Y-127700000D03*
%TO.P,C10,2*%
%TO.N,GND*%
X109010000Y-127700000D03*
%TD*%
D26*
%TO.P,U1,1,GND*%
%TO.N,GND*%
X111740000Y-131562500D03*
D27*
%TO.P,U1,2,IN*%
%TO.N,+BATT*%
X111827500Y-130062500D03*
D26*
%TO.P,U1,3,OUT*%
%TO.N,+3V3*%
X111740000Y-128562500D03*
%TD*%
D28*
%TO.P,U5,1,SDO/SA0*%
%TO.N,GND*%
X110652500Y-124750000D03*
%TO.P,U5,2,SDX*%
X110652500Y-125250000D03*
%TO.P,U5,3,SCX*%
X110652500Y-125750000D03*
%TO.P,U5,4,INT1*%
%TO.N,unconnected-(U5-INT1-Pad4)*%
X110652500Y-126250000D03*
D29*
%TO.P,U5,5,VDDIO*%
%TO.N,+3V3*%
X109990000Y-126412500D03*
%TO.P,U5,6,GND*%
%TO.N,GND*%
X109490000Y-126412500D03*
%TO.P,U5,7,GND*%
X108990000Y-126412500D03*
D28*
%TO.P,U5,8,VDD*%
%TO.N,+3V3*%
X108327500Y-126250000D03*
%TO.P,U5,9,INT2*%
%TO.N,unconnected-(U5-INT2-Pad9)*%
X108327500Y-125750000D03*
%TO.P,U5,10,NC*%
%TO.N,unconnected-(U5-NC-Pad10)*%
X108327500Y-125250000D03*
%TO.P,U5,11,NC*%
%TO.N,unconnected-(U5-NC-Pad11)*%
X108327500Y-124750000D03*
D29*
%TO.P,U5,12,CS*%
%TO.N,+3V3*%
X108990000Y-124587500D03*
%TO.P,U5,13,SCL*%
%TO.N,/MCU and RX/I2C1_SCL*%
X109490000Y-124587500D03*
%TO.P,U5,14,SDA*%
%TO.N,/MCU and RX/I2C1_SDA*%
X109990000Y-124587500D03*
%TD*%
D30*
%TO.P,C19,2*%
%TO.N,GND*%
X103570000Y-122380000D03*
%TO.P,C19,1*%
%TO.N,+3V3*%
X103570000Y-121420000D03*
%TD*%
%TO.P,C3,1*%
%TO.N,+BATT*%
X112670000Y-133070000D03*
%TO.P,C3,2*%
%TO.N,GND*%
X112670000Y-134030000D03*
%TD*%
D23*
%TO.P,R2,1*%
%TO.N,Net-(J3-CC1)*%
X117360000Y-118200000D03*
%TO.P,R2,2*%
%TO.N,GND*%
X118380000Y-118200000D03*
%TD*%
D30*
%TO.P,C2,1*%
%TO.N,+BATT*%
X113620000Y-133070000D03*
%TO.P,C2,2*%
%TO.N,GND*%
X113620000Y-134030000D03*
%TD*%
D14*
%TO.P,C8,1*%
%TO.N,GND*%
X104490000Y-129380000D03*
%TO.P,C8,2*%
%TO.N,/MCU and RX/VBAT*%
X104490000Y-128420000D03*
%TD*%
D30*
%TO.P,C1,1*%
%TO.N,+BATT*%
X114570000Y-133070000D03*
%TO.P,C1,2*%
%TO.N,GND*%
X114570000Y-134030000D03*
%TD*%
D31*
%TO.N,Net-(J3-CC1)*%
X116770000Y-118200000D03*
%TO.N,/MCU and RX/SERVO2*%
X110170000Y-130900000D03*
%TO.N,/MCU and RX/SERVO1*%
X108370000Y-128500000D03*
%TO.N,GND*%
X107270000Y-122500000D03*
X104090000Y-122380000D03*
%TO.N,+BATT*%
X111770000Y-135500000D03*
X111170000Y-135500000D03*
X107770000Y-135500000D03*
X107170000Y-135500000D03*
X103770000Y-135500000D03*
%TO.N,/MCU and RX/VBAT*%
X106570000Y-127900000D03*
%TO.N,/MCU and RX/I2C1_SCL*%
X108370000Y-123700000D03*
%TO.N,/MCU and RX/I2C1_SDA*%
X107370000Y-124700000D03*
X107770000Y-123100000D03*
%TO.N,+3V3*%
X107090000Y-127020000D03*
%TO.N,GND*%
X108370000Y-127700000D03*
%TO.N,+3V3*%
X111720000Y-133100000D03*
X108440000Y-133100000D03*
X104440000Y-133100000D03*
%TO.N,/MCU and RX/CH4*%
X111020000Y-118750000D03*
%TO.N,/MCU and RX/CH3*%
X110270000Y-118250000D03*
%TO.N,/MCU and RX/CH2*%
X109520000Y-117750000D03*
%TO.N,GND*%
X113020000Y-121250000D03*
%TO.N,/MCU and RX/BOOT0*%
X111753527Y-119206305D03*
X110570000Y-123700000D03*
%TO.N,/MCU and RX/UART2_RX*%
X111370000Y-123100000D03*
%TO.N,/MCU and RX/UART2_TX*%
X112170000Y-122500000D03*
%TO.N,+3V3*%
X105870000Y-121800000D03*
%TO.N,GND*%
X104000000Y-119770000D03*
%TO.N,+3V3*%
X116970000Y-120900000D03*
X113814641Y-120919880D03*
D32*
%TO.N,+BATT*%
X118890000Y-119820000D03*
D31*
%TO.N,Net-(J3-CC2)*%
X113270000Y-117600000D03*
%TO.N,+BATT*%
X103570000Y-130900000D03*
%TO.N,GND*%
X103770000Y-130130000D03*
D32*
X113279404Y-112090596D03*
D31*
%TO.N,+3V3*%
X114529404Y-112100000D03*
%TO.N,GND*%
X112475000Y-126013636D03*
X102000000Y-127800000D03*
X103400000Y-125200000D03*
%TO.N,+3V3*%
X104000000Y-127200000D03*
X111690000Y-126220000D03*
X110570000Y-127700000D03*
D32*
%TO.N,GND*%
X110970000Y-133100000D03*
X107190000Y-133100000D03*
X114570000Y-135450000D03*
X110270000Y-134700000D03*
D31*
X114770000Y-122450000D03*
X111135000Y-131015000D03*
%TD*%
D33*
%TO.N,GND*%
X111232500Y-131562500D02*
X111740000Y-131562500D01*
X111135000Y-131015000D02*
X111135000Y-131465000D01*
X111135000Y-131465000D02*
X111232500Y-131562500D01*
D34*
%TO.N,/MCU and RX/SERVO2*%
X118390000Y-139500000D02*
X115870000Y-139500000D01*
X115870000Y-139500000D02*
X115170000Y-138800000D01*
X115170000Y-138800000D02*
X115170000Y-137250000D01*
X112870000Y-134950000D02*
X111820000Y-134950000D01*
X111820000Y-134950000D02*
X110170000Y-133300000D01*
X115170000Y-137250000D02*
X112870000Y-134950000D01*
X110170000Y-133300000D02*
X110170000Y-130900000D01*
%TO.N,/MCU and RX/SERVO1*%
X108370000Y-128500000D02*
X108370000Y-130650000D01*
X108370000Y-130650000D02*
X104600000Y-134420000D01*
X104600000Y-134420000D02*
X100610000Y-134420000D01*
D33*
%TO.N,GND*%
X113620000Y-134030000D02*
X112670000Y-134030000D01*
X114570000Y-134030000D02*
X113620000Y-134030000D01*
X114570000Y-134030000D02*
X118000000Y-134030000D01*
X118000000Y-134030000D02*
X118390000Y-134420000D01*
X118380000Y-118200000D02*
X119320000Y-117260000D01*
X119320000Y-117260000D02*
X119320000Y-116180000D01*
D34*
%TO.N,Net-(J3-CC1)*%
X116770000Y-118200000D02*
X117360000Y-118200000D01*
D33*
%TO.N,GND*%
X103770000Y-130130000D02*
X104490000Y-130130000D01*
X104490000Y-130130000D02*
X104490000Y-129380000D01*
%TO.N,+BATT*%
X104480000Y-131700000D02*
X104370000Y-131700000D01*
X104370000Y-131700000D02*
X103570000Y-130900000D01*
D34*
%TO.N,GND*%
X103400000Y-125200000D02*
X103400000Y-125358307D01*
X103400000Y-125358307D02*
X103461693Y-125420000D01*
X103461693Y-125420000D02*
X107090000Y-125420000D01*
X106770000Y-122500000D02*
X106100000Y-122500000D01*
X106100000Y-122500000D02*
X105770000Y-122830000D01*
X105770000Y-122830000D02*
X105770000Y-123637500D01*
%TO.N,/MCU and RX/UART2_TX*%
X112170000Y-122500000D02*
X112170000Y-120950000D01*
X112170000Y-120950000D02*
X113120000Y-120000000D01*
X113120000Y-120000000D02*
X114070000Y-120000000D01*
X114070000Y-120000000D02*
X115270000Y-118800000D01*
X115270000Y-118800000D02*
X115270000Y-116250000D01*
X115270000Y-116250000D02*
X117029404Y-114490596D01*
X117029404Y-114490596D02*
X117029404Y-110926904D01*
%TO.N,/MCU and RX/UART2_RX*%
X111370000Y-123100000D02*
X111370000Y-120900000D01*
X111370000Y-120900000D02*
X112970000Y-119300000D01*
X114770000Y-115500000D02*
X115779404Y-114490596D01*
X112970000Y-119300000D02*
X113770000Y-119300000D01*
X113770000Y-119300000D02*
X114770000Y-118300000D01*
X114770000Y-118300000D02*
X114770000Y-115500000D01*
X115779404Y-114490596D02*
X115779404Y-110926904D01*
%TO.N,/MCU and RX/I2C1_SCL*%
X108370000Y-123700000D02*
X108970000Y-123700000D01*
X108970000Y-123700000D02*
X109490000Y-124220000D01*
X109490000Y-124220000D02*
X109490000Y-124587500D01*
X108370000Y-123700000D02*
X106782500Y-123700000D01*
X106782500Y-123700000D02*
X106720000Y-123637500D01*
%TO.N,/MCU and RX/I2C1_SDA*%
X109990000Y-124587500D02*
X109990000Y-123920000D01*
X109990000Y-123920000D02*
X109170000Y-123100000D01*
X109170000Y-123100000D02*
X107770000Y-123100000D01*
%TO.N,/MCU and RX/BOOT0*%
X110570000Y-123700000D02*
X110570000Y-120389832D01*
X110570000Y-120389832D02*
X111753527Y-119206305D01*
D33*
%TO.N,GND*%
X104090000Y-122380000D02*
X103570000Y-122380000D01*
D34*
%TO.N,+3V3*%
X104232500Y-121362500D02*
X104820000Y-121362500D01*
X103570000Y-121420000D02*
X104175000Y-121420000D01*
X104175000Y-121420000D02*
X104232500Y-121362500D01*
D33*
%TO.N,GND*%
X112475000Y-126013636D02*
X111711364Y-125250000D01*
X111711364Y-125250000D02*
X110652500Y-125250000D01*
X112475000Y-126013636D02*
X112475000Y-126224310D01*
X112475000Y-126224310D02*
X112650000Y-126399310D01*
X112650000Y-126399310D02*
X112650000Y-126900000D01*
D34*
X110652500Y-125750000D02*
X110652500Y-125250000D01*
X110652500Y-124750000D02*
X110652500Y-125250000D01*
%TO.N,/MCU and RX/VBAT*%
X106080000Y-128390000D02*
X106570000Y-127900000D01*
X105490000Y-128390000D02*
X106080000Y-128390000D01*
%TO.N,/MCU and RX/I2C1_SDA*%
X104820000Y-123637500D02*
X104820000Y-124524999D01*
X104820000Y-124524999D02*
X104995001Y-124700000D01*
X104995001Y-124700000D02*
X107370000Y-124700000D01*
%TO.N,+3V3*%
X108990000Y-124587500D02*
X108990000Y-125120000D01*
X108990000Y-125120000D02*
X109370000Y-125500000D01*
X109770000Y-125500000D02*
X109990000Y-125720000D01*
X109370000Y-125500000D02*
X109770000Y-125500000D01*
X109990000Y-125720000D02*
X109990000Y-126412500D01*
X107090000Y-127020000D02*
X107090000Y-126380000D01*
X105870000Y-121800000D02*
X105432500Y-121362500D01*
X105432500Y-121362500D02*
X104820000Y-121362500D01*
X107090000Y-126380000D02*
X107220000Y-126250000D01*
X107220000Y-126250000D02*
X108327500Y-126250000D01*
X109990000Y-126412500D02*
X109990000Y-127680000D01*
X109990000Y-127680000D02*
X109970000Y-127700000D01*
%TO.N,GND*%
X109010000Y-127700000D02*
X108370000Y-127700000D01*
X108990000Y-126412500D02*
X108990000Y-127680000D01*
X108990000Y-127680000D02*
X109010000Y-127700000D01*
X109490000Y-126412500D02*
X108990000Y-126412500D01*
%TO.N,/MCU and RX/CH4*%
X100583000Y-116417000D02*
X101916000Y-117750000D01*
X103520000Y-117750000D02*
X104525000Y-118755000D01*
X111015000Y-118755000D02*
X111020000Y-118750000D01*
X101916000Y-117750000D02*
X103520000Y-117750000D01*
X104525000Y-118755000D02*
X111015000Y-118755000D01*
%TO.N,/MCU and RX/CH3*%
X110270000Y-118250000D02*
X110265000Y-118255000D01*
X110265000Y-118255000D02*
X104961000Y-118255000D01*
X104961000Y-118255000D02*
X103123000Y-116417000D01*
%TO.N,/MCU and RX/CH2*%
X109520000Y-117750000D02*
X106996000Y-117750000D01*
X106996000Y-117750000D02*
X105663000Y-116417000D01*
D33*
%TO.N,GND*%
X112180000Y-118300000D02*
X112180000Y-117680000D01*
X112180000Y-117680000D02*
X110680000Y-116180000D01*
D34*
%TO.N,+3V3*%
X113834521Y-120900000D02*
X113814641Y-120919880D01*
X113814641Y-120919880D02*
X113814521Y-120920000D01*
%TO.N,Net-(J3-CC2)*%
X113270000Y-117600000D02*
X113270000Y-118230000D01*
X113270000Y-118230000D02*
X113200000Y-118300000D01*
%TO.N,/MCU and RX/VBAT*%
X105490000Y-128390000D02*
X104520000Y-128390000D01*
X104520000Y-128390000D02*
X104490000Y-128420000D01*
%TO.N,/Sensors/VBAT_DIV*%
X105500000Y-131700000D02*
X105500000Y-130600000D01*
X105490000Y-129410000D02*
X105490000Y-130590000D01*
X105490000Y-130590000D02*
X105500000Y-130600000D01*
D33*
%TO.N,GND*%
X104490000Y-129380000D02*
X104490000Y-130590000D01*
X104490000Y-130590000D02*
X104480000Y-130600000D01*
D34*
%TO.N,+3V3*%
X114529404Y-112100000D02*
X114529404Y-110926904D01*
D33*
%TO.N,GND*%
X113279404Y-112090596D02*
X113279404Y-110926904D01*
D34*
%TO.N,+3V3*%
X111690000Y-126220000D02*
X111690000Y-126900000D01*
X111740000Y-128562500D02*
X111740000Y-126950000D01*
X111740000Y-126950000D02*
X111690000Y-126900000D01*
X109970000Y-127700000D02*
X110570000Y-127700000D01*
%TO.N,GND*%
X106720000Y-122450000D02*
X106770000Y-122500000D01*
X106720000Y-121362500D02*
X106720000Y-122450000D01*
X107270000Y-122500000D02*
X106770000Y-122500000D01*
%TD*%
%TA.AperFunction,Conductor*%
%TO.N,+BATT*%
G36*
X115878059Y-123301061D02*
G01*
X115983223Y-123314906D01*
X116014491Y-123323284D01*
X116104918Y-123360740D01*
X116132952Y-123376925D01*
X116210602Y-123436509D01*
X116233491Y-123459398D01*
X116293074Y-123537048D01*
X116309259Y-123565081D01*
X116346715Y-123655508D01*
X116355093Y-123686775D01*
X116368939Y-123791939D01*
X116370000Y-123808125D01*
X116370000Y-129600000D01*
X119461874Y-129600000D01*
X119478059Y-129601061D01*
X119583223Y-129614906D01*
X119614491Y-129623284D01*
X119704918Y-129660740D01*
X119732952Y-129676925D01*
X119810602Y-129736509D01*
X119833491Y-129759398D01*
X119893074Y-129837048D01*
X119909259Y-129865081D01*
X119946715Y-129955508D01*
X119955093Y-129986775D01*
X119968939Y-130091939D01*
X119970000Y-130108125D01*
X119970000Y-131591874D01*
X119968939Y-131608060D01*
X119955093Y-131713224D01*
X119946715Y-131744491D01*
X119909259Y-131834918D01*
X119893074Y-131862951D01*
X119833491Y-131940601D01*
X119810601Y-131963491D01*
X119732951Y-132023074D01*
X119704918Y-132039259D01*
X119614491Y-132076715D01*
X119583224Y-132085093D01*
X119489398Y-132097446D01*
X119478058Y-132098939D01*
X119461874Y-132100000D01*
X117819999Y-132100000D01*
X117673553Y-132246447D01*
X116522198Y-133397801D01*
X116510003Y-133408496D01*
X116425842Y-133473075D01*
X116397808Y-133489260D01*
X116307383Y-133526715D01*
X116276117Y-133535093D01*
X116182291Y-133547446D01*
X116170951Y-133548939D01*
X116154767Y-133550000D01*
X112728126Y-133550000D01*
X112711941Y-133548939D01*
X112698917Y-133547224D01*
X112606775Y-133535093D01*
X112575508Y-133526715D01*
X112485081Y-133489259D01*
X112457048Y-133473074D01*
X112379398Y-133413491D01*
X112356508Y-133390601D01*
X112296925Y-133312951D01*
X112280740Y-133284918D01*
X112243284Y-133194491D01*
X112234906Y-133163223D01*
X112221061Y-133058059D01*
X112220000Y-133041874D01*
X112220000Y-132391326D01*
X112224225Y-132359234D01*
X112234846Y-132319594D01*
X112266938Y-132264007D01*
X112284007Y-132246938D01*
X112339593Y-132214846D01*
X112355002Y-132210717D01*
X112379234Y-132204225D01*
X112411326Y-132200000D01*
X112570000Y-132200000D01*
X112570000Y-127484499D01*
X112589685Y-127417460D01*
X112642489Y-127371705D01*
X112693998Y-127360499D01*
X112833372Y-127360499D01*
X112857662Y-127357682D01*
X112957016Y-127313813D01*
X113033813Y-127237016D01*
X113077682Y-127137662D01*
X113080500Y-127113373D01*
X113080499Y-126686628D01*
X113077682Y-126662338D01*
X113061065Y-126624703D01*
X113050500Y-126574618D01*
X113050500Y-126346585D01*
X113050500Y-126346583D01*
X113023207Y-126244723D01*
X112970480Y-126153397D01*
X112915819Y-126098736D01*
X112882334Y-126037413D01*
X112879500Y-126011055D01*
X112879500Y-125960385D01*
X112879500Y-125960383D01*
X112851934Y-125857505D01*
X112798680Y-125765267D01*
X112723369Y-125689956D01*
X112723368Y-125689955D01*
X112723366Y-125689953D01*
X112716926Y-125685012D01*
X112716994Y-125684922D01*
X112698443Y-125670686D01*
X112606319Y-125578562D01*
X112572834Y-125517239D01*
X112570000Y-125490881D01*
X112570000Y-123808125D01*
X112571061Y-123791940D01*
X112584906Y-123686776D01*
X112593284Y-123655508D01*
X112630740Y-123565081D01*
X112646923Y-123537050D01*
X112706513Y-123459392D01*
X112729392Y-123436513D01*
X112807050Y-123376923D01*
X112835079Y-123360740D01*
X112925509Y-123323283D01*
X112956775Y-123314906D01*
X113061941Y-123301061D01*
X113078126Y-123300000D01*
X115861874Y-123300000D01*
X115878059Y-123301061D01*
G37*
%TD.AperFunction*%
%TD*%
%TA.AperFunction,Conductor*%
%TO.N,/Power/+SW*%
G36*
X119296643Y-124819685D02*
G01*
X119316103Y-124835153D01*
X119622506Y-125133492D01*
X119656804Y-125194361D01*
X119660000Y-125222332D01*
X119660000Y-128926664D01*
X119640315Y-128993703D01*
X119621280Y-129016682D01*
X119315870Y-129306018D01*
X119253665Y-129337834D01*
X119230590Y-129340000D01*
X117549410Y-129340000D01*
X117482371Y-129320315D01*
X117464130Y-129306018D01*
X117158720Y-129016682D01*
X117123590Y-128956286D01*
X117120000Y-128926664D01*
X117120000Y-125285206D01*
X117139685Y-125218167D01*
X117149095Y-125205400D01*
X117178864Y-125170000D01*
X117452837Y-124844194D01*
X117511050Y-124805553D01*
X117547742Y-124800000D01*
X119229604Y-124800000D01*
X119296643Y-124819685D01*
G37*
%TD.AperFunction*%
%TD*%
%TA.AperFunction,Conductor*%
%TO.N,/MCU and RX/CH4*%
G36*
X101530109Y-116664865D02*
G01*
X101537242Y-116670278D01*
X101538616Y-116678465D01*
X101509675Y-116823906D01*
X101505779Y-116980525D01*
X101505780Y-116980535D01*
X101534461Y-117127159D01*
X101534463Y-117127165D01*
X101597910Y-117264405D01*
X101597911Y-117264407D01*
X101694262Y-117385187D01*
X101696743Y-117393791D01*
X101693389Y-117400756D01*
X101567496Y-117526649D01*
X101559223Y-117530076D01*
X101551091Y-117526787D01*
X101540243Y-117516299D01*
X101540221Y-117516279D01*
X101471592Y-117459538D01*
X101471585Y-117459533D01*
X101402015Y-117415364D01*
X101402007Y-117415359D01*
X101323114Y-117378943D01*
X101323111Y-117378942D01*
X101244945Y-117355076D01*
X101205111Y-117349521D01*
X101125447Y-117338412D01*
X101125445Y-117338412D01*
X101014376Y-117341048D01*
X100844361Y-117372770D01*
X100835600Y-117370918D01*
X100830898Y-117364236D01*
X100824125Y-117338412D01*
X100587371Y-116435655D01*
X100588587Y-116426784D01*
X100595720Y-116421371D01*
X100601656Y-116421371D01*
X101530109Y-116664865D01*
G37*
%TD.AperFunction*%
%TD*%
%TA.AperFunction,Conductor*%
%TO.N,/MCU and RX/CH3*%
G36*
X104070109Y-116664865D02*
G01*
X104077242Y-116670278D01*
X104078616Y-116678465D01*
X104049675Y-116823906D01*
X104045779Y-116980525D01*
X104045780Y-116980535D01*
X104074461Y-117127159D01*
X104074463Y-117127165D01*
X104137910Y-117264405D01*
X104137911Y-117264407D01*
X104234262Y-117385187D01*
X104236743Y-117393791D01*
X104233389Y-117400756D01*
X104107496Y-117526649D01*
X104099223Y-117530076D01*
X104091091Y-117526787D01*
X104080243Y-117516299D01*
X104080221Y-117516279D01*
X104011592Y-117459538D01*
X104011585Y-117459533D01*
X103942015Y-117415364D01*
X103942007Y-117415359D01*
X103863114Y-117378943D01*
X103863111Y-117378942D01*
X103784945Y-117355076D01*
X103745111Y-117349521D01*
X103665447Y-117338412D01*
X103665445Y-117338412D01*
X103554376Y-117341048D01*
X103384361Y-117372770D01*
X103375600Y-117370918D01*
X103370898Y-117364236D01*
X103364125Y-117338412D01*
X103127371Y-116435655D01*
X103128587Y-116426784D01*
X103135720Y-116421371D01*
X103141656Y-116421371D01*
X104070109Y-116664865D01*
G37*
%TD.AperFunction*%
%TD*%
%TA.AperFunction,Conductor*%
%TO.N,/MCU and RX/CH2*%
G36*
X106610109Y-116664865D02*
G01*
X106617242Y-116670278D01*
X106618616Y-116678465D01*
X106589675Y-116823906D01*
X106585779Y-116980525D01*
X106585780Y-116980535D01*
X106614461Y-117127159D01*
X106614463Y-117127165D01*
X106677910Y-117264405D01*
X106677911Y-117264407D01*
X106774262Y-117385187D01*
X106776743Y-117393791D01*
X106773389Y-117400756D01*
X106647496Y-117526649D01*
X106639223Y-117530076D01*
X106631091Y-117526787D01*
X106620243Y-117516299D01*
X106620221Y-117516279D01*
X106551592Y-117459538D01*
X106551585Y-117459533D01*
X106482015Y-117415364D01*
X106482007Y-117415359D01*
X106403114Y-117378943D01*
X106403111Y-117378942D01*
X106324945Y-117355076D01*
X106285111Y-117349521D01*
X106205447Y-117338412D01*
X106205445Y-117338412D01*
X106094376Y-117341048D01*
X105924361Y-117372770D01*
X105915600Y-117370918D01*
X105910898Y-117364236D01*
X105904125Y-117338412D01*
X105667371Y-116435655D01*
X105668587Y-116426784D01*
X105675720Y-116421371D01*
X105681656Y-116421371D01*
X106610109Y-116664865D01*
G37*
%TD.AperFunction*%
%TD*%
D35*
X120000000Y-140000000D02*
X120000000Y-111000000D01*
X100000000Y-141000000D02*
X119000000Y-141000000D01*
X99000000Y-111000000D02*
X99000000Y-140000000D01*
X119000000Y-110000000D02*
X100000000Y-110000000D01*
X99000000Y-111000000D02*
G75*
G02*
X100000000Y-110000000I1000000J0D01*
G01*
X119000000Y-110000000D02*
G75*
G02*
X120000000Y-111000000I0J-1000000D01*
G01*
X120000000Y-140000000D02*
G75*
G02*
X119000000Y-141000000I-1000000J0D01*
G01*
X100000000Y-141000000D02*
G75*
G02*
X99000000Y-140000000I0J1000000D01*
G01*
M02*
