%TF.GenerationSoftware,KiCad,Pcbnew,9.0.3-9.0.3-0~ubuntu24.04.1*%
%TF.CreationDate,2025-09-19T18:16:16+02:00*%
%TF.ProjectId,ant control board v2,616e7420-636f-46e7-9472-6f6c20626f61,2.0*%
%TF.SameCoordinates,Original*%
%TF.FileFunction,Legend,Bot*%
%TF.FilePolarity,Positive*%
%FSLAX46Y46*%
G04 Gerber Fmt 4.6, Leading zero omitted, Abs format (unit mm)*
G04 Created by KiCad (PCBNEW 9.0.3-9.0.3-0~ubuntu24.04.1) date 2025-09-19 18:16:16*
%MOMM*%
%LPD*%
G01*
G04 APERTURE LIST*
%ADD10C,0.000000*%
%ADD11C,0.250000*%
%ADD12C,0.500000*%
%ADD13C,0.120000*%
%ADD14C,0.510000*%
%TA.AperFunction,Profile*%
%ADD15C,0.050000*%
%TD*%
G04 APERTURE END LIST*
G36*
X113672564Y-111874667D02*
G01*
X114017436Y-111874667D01*
X114017436Y-114917949D01*
X113672564Y-114917949D01*
X113672564Y-111874667D01*
G37*
G36*
X115022564Y-111874667D02*
G01*
X115267436Y-111874667D01*
X115267436Y-114917949D01*
X115022564Y-114917949D01*
X115022564Y-111874667D01*
G37*
G36*
X116272564Y-111874667D02*
G01*
X116517436Y-111874667D01*
X116517436Y-114917949D01*
X116272564Y-114917949D01*
X116272564Y-111874667D01*
G37*
D10*
%TO.C,kibuzzard-68CD7CD9*%
G36*
X108518077Y-121506962D02*
G01*
X108598154Y-121527846D01*
X108670077Y-121562654D01*
X108733846Y-121611385D01*
X108786077Y-121671192D01*
X108823385Y-121739231D01*
X108845769Y-121815500D01*
X108853231Y-121900000D01*
X108845769Y-121984500D01*
X108823385Y-122060769D01*
X108786077Y-122128808D01*
X108733846Y-122188615D01*
X108670077Y-122237346D01*
X108598154Y-122272154D01*
X108518077Y-122293038D01*
X108444615Y-122298835D01*
X108429846Y-122300000D01*
X108314154Y-122300000D01*
X108225962Y-122293038D01*
X108146000Y-122272154D01*
X108074269Y-122237346D01*
X108010769Y-122188615D01*
X107958808Y-122128808D01*
X107921692Y-122060769D01*
X107899423Y-121984500D01*
X107892000Y-121900000D01*
X108106154Y-121900000D01*
X108119692Y-121977231D01*
X108160308Y-122039077D01*
X108222154Y-122079692D01*
X108299385Y-122093231D01*
X108444615Y-122093231D01*
X108522000Y-122079692D01*
X108584308Y-122039077D01*
X108625385Y-121977231D01*
X108639077Y-121900000D01*
X108625385Y-121821846D01*
X108584308Y-121759692D01*
X108522000Y-121719077D01*
X108444615Y-121705538D01*
X108299385Y-121705538D01*
X108222154Y-121719077D01*
X108160308Y-121759692D01*
X108119692Y-121821846D01*
X108106154Y-121900000D01*
X107892000Y-121900000D01*
X107899423Y-121815500D01*
X107921692Y-121739231D01*
X107958808Y-121671192D01*
X108010769Y-121611385D01*
X108074269Y-121562654D01*
X108146000Y-121527846D01*
X108225962Y-121506962D01*
X108314154Y-121500000D01*
X108429846Y-121500000D01*
X108518077Y-121506962D01*
G37*
G36*
X110347385Y-121818769D02*
G01*
X110573846Y-121500000D01*
X110826154Y-121500000D01*
X110459385Y-122018154D01*
X110459385Y-122300000D01*
X110244000Y-122300000D01*
X110244000Y-122018154D01*
X109878462Y-121500000D01*
X110119692Y-121500000D01*
X110347385Y-121818769D01*
G37*
G36*
X109808308Y-122300000D02*
G01*
X109594154Y-122300000D01*
X109594154Y-121705538D01*
X109256923Y-121705538D01*
X109184308Y-121733846D01*
X109156000Y-121807692D01*
X109184308Y-121881538D01*
X109256923Y-121909846D01*
X109532615Y-121909846D01*
X109532615Y-122096923D01*
X109343077Y-122096923D01*
X109183077Y-122300000D01*
X108902462Y-122300000D01*
X109104308Y-122064923D01*
X109036154Y-122019846D01*
X108984308Y-121958462D01*
X108951538Y-121883846D01*
X108940615Y-121799077D01*
X108950462Y-121716000D01*
X108980000Y-121644000D01*
X109029231Y-121583077D01*
X109093915Y-121536923D01*
X109169812Y-121509231D01*
X109256923Y-121500000D01*
X109808308Y-121500000D01*
X109808308Y-122300000D01*
G37*
G36*
X111412846Y-121506962D02*
G01*
X111492923Y-121527846D01*
X111564846Y-121562654D01*
X111628615Y-121611385D01*
X111680846Y-121671192D01*
X111718154Y-121739231D01*
X111740538Y-121815500D01*
X111748000Y-121900000D01*
X111740538Y-121984500D01*
X111718154Y-122060769D01*
X111680846Y-122128808D01*
X111628615Y-122188615D01*
X111564846Y-122237346D01*
X111492923Y-122272154D01*
X111412846Y-122293038D01*
X111324615Y-122300000D01*
X110896308Y-122300000D01*
X110896308Y-121812615D01*
X111360308Y-121812615D01*
X111360308Y-121983692D01*
X111100615Y-121983692D01*
X111100615Y-122093231D01*
X111339385Y-122093231D01*
X111416769Y-122079692D01*
X111479077Y-122039077D01*
X111520154Y-121977231D01*
X111533846Y-121900000D01*
X111520154Y-121821846D01*
X111479077Y-121759692D01*
X111416769Y-121719077D01*
X111339385Y-121705538D01*
X110896308Y-121705538D01*
X110896308Y-121500000D01*
X111324615Y-121500000D01*
X111412846Y-121506962D01*
G37*
%TO.C,G\u002A\u002A\u002A*%
G36*
X108233033Y-134575165D02*
G01*
X108233033Y-134858230D01*
X108279176Y-134899916D01*
X108280203Y-134900842D01*
X108327637Y-134936090D01*
X108371328Y-134951550D01*
X108416086Y-134948944D01*
X108417396Y-134948635D01*
X108453381Y-134941194D01*
X108473358Y-134942500D01*
X108483626Y-134955420D01*
X108490481Y-134982823D01*
X108491939Y-134989942D01*
X108499631Y-135026549D01*
X108505797Y-135054526D01*
X108506268Y-135072690D01*
X108491336Y-135085103D01*
X108471973Y-135087817D01*
X108436192Y-135090300D01*
X108393089Y-135091760D01*
X108363771Y-135091604D01*
X108302342Y-135085264D01*
X108247502Y-135068831D01*
X108195873Y-135040161D01*
X108144077Y-134997113D01*
X108088734Y-134937544D01*
X108026465Y-134859312D01*
X108025874Y-134858531D01*
X107969955Y-134785145D01*
X107903716Y-134698933D01*
X107831240Y-134605176D01*
X107756608Y-134509158D01*
X107683905Y-134416158D01*
X107680647Y-134412001D01*
X107647091Y-134368770D01*
X107619729Y-134332787D01*
X107601302Y-134307703D01*
X107594550Y-134297168D01*
X107596696Y-134296144D01*
X107615926Y-134294183D01*
X107650821Y-134292940D01*
X107696127Y-134292650D01*
X107797704Y-134293198D01*
X107885583Y-134417444D01*
X107885746Y-134417674D01*
X107922512Y-134470182D01*
X107957714Y-134521375D01*
X107987363Y-134565401D01*
X108007476Y-134596408D01*
X108021986Y-134618804D01*
X108039012Y-134642273D01*
X108048461Y-134651549D01*
X108050319Y-134648372D01*
X108050500Y-134628664D01*
X108046796Y-134596832D01*
X108044125Y-134577087D01*
X108039192Y-134531313D01*
X108034142Y-134475262D01*
X108029730Y-134416896D01*
X108021302Y-134292101D01*
X108127167Y-134292101D01*
X108233033Y-134292101D01*
X108233033Y-134575165D01*
G37*
G36*
X109747080Y-134653030D02*
G01*
X109780951Y-134740650D01*
X109813102Y-134822264D01*
X109840461Y-134889953D01*
X109852028Y-134918029D01*
X109874653Y-134973021D01*
X109893543Y-135019026D01*
X109906991Y-135051885D01*
X109913290Y-135067441D01*
X109911228Y-135074525D01*
X109895907Y-135078605D01*
X109864017Y-135079987D01*
X109812273Y-135079050D01*
X109705408Y-135075693D01*
X109652685Y-134936388D01*
X109649689Y-134928481D01*
X109629864Y-134876713D01*
X109613132Y-134833927D01*
X109601178Y-134804378D01*
X109595682Y-134792317D01*
X109588349Y-134793304D01*
X109571016Y-134805184D01*
X109534119Y-134827116D01*
X109479460Y-134843387D01*
X109417675Y-134849322D01*
X109404542Y-134848908D01*
X109335984Y-134833887D01*
X109270405Y-134799879D01*
X109210412Y-134750440D01*
X109158612Y-134689124D01*
X109117612Y-134619487D01*
X109090017Y-134545084D01*
X109081833Y-134491652D01*
X109291520Y-134491652D01*
X109292989Y-134536179D01*
X109308443Y-134584204D01*
X109336201Y-134630218D01*
X109374584Y-134668714D01*
X109413639Y-134691022D01*
X109454868Y-134698652D01*
X109489276Y-134688928D01*
X109512857Y-134663108D01*
X109521607Y-134622453D01*
X109520775Y-134611422D01*
X109512765Y-134575827D01*
X109498619Y-134533682D01*
X109481258Y-134492262D01*
X109463605Y-134458838D01*
X109448582Y-134440685D01*
X109440745Y-134436896D01*
X109408136Y-134431058D01*
X109368665Y-134432298D01*
X109332209Y-134439772D01*
X109308644Y-134452636D01*
X109305719Y-134456130D01*
X109291520Y-134491652D01*
X109081833Y-134491652D01*
X109078435Y-134469471D01*
X109085472Y-134396203D01*
X109103010Y-134353639D01*
X109133597Y-134321425D01*
X109178999Y-134299067D01*
X109241006Y-134285976D01*
X109321407Y-134281562D01*
X109421993Y-134285233D01*
X109462719Y-134287790D01*
X109517375Y-134291390D01*
X109558154Y-134296589D01*
X109588362Y-134306198D01*
X109611304Y-134323032D01*
X109630285Y-134349903D01*
X109648611Y-134389625D01*
X109669587Y-134445011D01*
X109696519Y-134518874D01*
X109714561Y-134567324D01*
X109735478Y-134622453D01*
X109747080Y-134653030D01*
G37*
G36*
X109036303Y-134675047D02*
G01*
X109067933Y-134755896D01*
X109098728Y-134833463D01*
X109127062Y-134903539D01*
X109151310Y-134961916D01*
X109164092Y-134992360D01*
X109180828Y-135033241D01*
X109192303Y-135062601D01*
X109196561Y-135075537D01*
X109193664Y-135077032D01*
X109173083Y-135079076D01*
X109137068Y-135079799D01*
X109090759Y-135079031D01*
X108984957Y-135075693D01*
X108962054Y-135011845D01*
X108957649Y-134999631D01*
X108942098Y-134957206D01*
X108924904Y-134911064D01*
X108908000Y-134866305D01*
X108893323Y-134828029D01*
X108882808Y-134801336D01*
X108878388Y-134791327D01*
X108872875Y-134793921D01*
X108851678Y-134804466D01*
X108820211Y-134820349D01*
X108778492Y-134837354D01*
X108706113Y-134848723D01*
X108634040Y-134838826D01*
X108564474Y-134808753D01*
X108499615Y-134759595D01*
X108441663Y-134692444D01*
X108392817Y-134608390D01*
X108371452Y-134551780D01*
X108360341Y-134494749D01*
X108572455Y-134494749D01*
X108575713Y-134539335D01*
X108591920Y-134587148D01*
X108619315Y-134632500D01*
X108656135Y-134669702D01*
X108693084Y-134690533D01*
X108733762Y-134698088D01*
X108768524Y-134689632D01*
X108792760Y-134666430D01*
X108801863Y-134629744D01*
X108801637Y-134623515D01*
X108795565Y-134587405D01*
X108783223Y-134544098D01*
X108767312Y-134501087D01*
X108750533Y-134465863D01*
X108735587Y-134445917D01*
X108726685Y-134440768D01*
X108692609Y-134432335D01*
X108651853Y-134431797D01*
X108614067Y-134438711D01*
X108588900Y-134452636D01*
X108583909Y-134459080D01*
X108572455Y-134494749D01*
X108360341Y-134494749D01*
X108358137Y-134483437D01*
X108358430Y-134420055D01*
X108372871Y-134368144D01*
X108387080Y-134346272D01*
X108426359Y-134314904D01*
X108483785Y-134293886D01*
X108560085Y-134283077D01*
X108655984Y-134282340D01*
X108772209Y-134291534D01*
X108902854Y-134306096D01*
X108923369Y-134371653D01*
X108933942Y-134403019D01*
X108952658Y-134454903D01*
X108977040Y-134520341D01*
X109005464Y-134595126D01*
X109018822Y-134629744D01*
X109036303Y-134675047D01*
G37*
G36*
X110467737Y-134714856D02*
G01*
X110443251Y-134768133D01*
X110399255Y-134809432D01*
X110336048Y-134838007D01*
X110328450Y-134840046D01*
X110279996Y-134846604D01*
X110220339Y-134847437D01*
X110158821Y-134842759D01*
X110104786Y-134832779D01*
X110030447Y-134805117D01*
X109953608Y-134757569D01*
X109888856Y-134696395D01*
X109838972Y-134624906D01*
X109806738Y-134546411D01*
X109800732Y-134504584D01*
X110009176Y-134504584D01*
X110012148Y-134525458D01*
X110027387Y-134567332D01*
X110051371Y-134612017D01*
X110079346Y-134651133D01*
X110106560Y-134676298D01*
X110135475Y-134689196D01*
X110176119Y-134697280D01*
X110213548Y-134695887D01*
X110239029Y-134684478D01*
X110250566Y-134659035D01*
X110250428Y-134620407D01*
X110239889Y-134575301D01*
X110220931Y-134529740D01*
X110195533Y-134489750D01*
X110165677Y-134461353D01*
X110155526Y-134455115D01*
X110108727Y-134436632D01*
X110066517Y-134435935D01*
X110033700Y-134453317D01*
X110017160Y-134476898D01*
X110009176Y-134504584D01*
X109800732Y-134504584D01*
X109794936Y-134464218D01*
X109798908Y-134418994D01*
X109820134Y-134365331D01*
X109859944Y-134325077D01*
X109918651Y-134297951D01*
X109996566Y-134283674D01*
X110013899Y-134282497D01*
X110105356Y-134288575D01*
X110194598Y-134313517D01*
X110277640Y-134354942D01*
X110350494Y-134410468D01*
X110409171Y-134477713D01*
X110449685Y-134554296D01*
X110456992Y-134575336D01*
X110472417Y-134650342D01*
X110471786Y-134659035D01*
X110467737Y-134714856D01*
G37*
G36*
X106435454Y-134291218D02*
G01*
X106489274Y-134299067D01*
X106529719Y-134306597D01*
X106556431Y-134315457D01*
X106574217Y-134328029D01*
X106587884Y-134346695D01*
X106602240Y-134373835D01*
X106613815Y-134397069D01*
X106626210Y-134423196D01*
X106631022Y-134435228D01*
X106630133Y-134435660D01*
X106614334Y-134433892D01*
X106582863Y-134427768D01*
X106541054Y-134418292D01*
X106498255Y-134408880D01*
X106431039Y-134398695D01*
X106381650Y-134398182D01*
X106351200Y-134407299D01*
X106340803Y-134426002D01*
X106349051Y-134445573D01*
X106376957Y-134467598D01*
X106420905Y-134486936D01*
X106477067Y-134501466D01*
X106534109Y-134513667D01*
X106630562Y-134543461D01*
X106706285Y-134580792D01*
X106760882Y-134625379D01*
X106793956Y-134676938D01*
X106805110Y-134735187D01*
X106804847Y-134751019D01*
X106799137Y-134790014D01*
X106783360Y-134815066D01*
X106754079Y-134832746D01*
X106728864Y-134839974D01*
X106686501Y-134846271D01*
X106640027Y-134848868D01*
X106621113Y-134848935D01*
X106586758Y-134847820D01*
X106566581Y-134842881D01*
X106554105Y-134831634D01*
X106542855Y-134811594D01*
X106541878Y-134809683D01*
X106523597Y-134778114D01*
X106506199Y-134753846D01*
X106504418Y-134751796D01*
X106496613Y-134739868D01*
X106504273Y-134735354D01*
X106531241Y-134735427D01*
X106536428Y-134735531D01*
X106567106Y-134732489D01*
X106586165Y-134724691D01*
X106586181Y-134724675D01*
X106593539Y-134703070D01*
X106584123Y-134676976D01*
X106560786Y-134654303D01*
X106538212Y-134643052D01*
X106504840Y-134630146D01*
X106467918Y-134618077D01*
X106433745Y-134608732D01*
X106408621Y-134604000D01*
X106398847Y-134605768D01*
X106401017Y-134613944D01*
X106410406Y-134640308D01*
X106425512Y-134679602D01*
X106444468Y-134726868D01*
X106490090Y-134838563D01*
X106385726Y-134835236D01*
X106281362Y-134831909D01*
X106217617Y-134669386D01*
X106191858Y-134603507D01*
X106163914Y-134531098D01*
X106143132Y-134475486D01*
X106128634Y-134433950D01*
X106119543Y-134403768D01*
X106114980Y-134382217D01*
X106114068Y-134366575D01*
X106115928Y-134354122D01*
X106124591Y-134335828D01*
X106155454Y-134310560D01*
X106204488Y-134292970D01*
X106269178Y-134283552D01*
X106347005Y-134282803D01*
X106435454Y-134291218D01*
G37*
G36*
X106088908Y-134659496D02*
G01*
X106112276Y-134717534D01*
X106131514Y-134765801D01*
X106145067Y-134800391D01*
X106151380Y-134817398D01*
X106152689Y-134823397D01*
X106149360Y-134831008D01*
X106135218Y-134835333D01*
X106106129Y-134837268D01*
X106057963Y-134837714D01*
X106012960Y-134837451D01*
X105981657Y-134835750D01*
X105964151Y-134831277D01*
X105955527Y-134822702D01*
X105950871Y-134808692D01*
X105941813Y-134784975D01*
X105930123Y-134782992D01*
X105913639Y-134803421D01*
X105900226Y-134819141D01*
X105873118Y-134837512D01*
X105841453Y-134845870D01*
X105784138Y-134848533D01*
X105722259Y-134840303D01*
X105664923Y-134821865D01*
X105653434Y-134816429D01*
X105581784Y-134769116D01*
X105518382Y-134704954D01*
X105466877Y-134629155D01*
X105430917Y-134546935D01*
X105422732Y-134506207D01*
X105632667Y-134506207D01*
X105633905Y-134519544D01*
X105647244Y-134561496D01*
X105671289Y-134607071D01*
X105701120Y-134647868D01*
X105731814Y-134675482D01*
X105735984Y-134677979D01*
X105766664Y-134692486D01*
X105791075Y-134698408D01*
X105796511Y-134698149D01*
X105829163Y-134686656D01*
X105854595Y-134663113D01*
X105864843Y-134634430D01*
X105861396Y-134610123D01*
X105851187Y-134572440D01*
X105836715Y-134529908D01*
X105820520Y-134489353D01*
X105805138Y-134457602D01*
X105793108Y-134441483D01*
X105786960Y-134438845D01*
X105760036Y-134433707D01*
X105724435Y-134431584D01*
X105712101Y-134431893D01*
X105667760Y-134442048D01*
X105641388Y-134466733D01*
X105632667Y-134506207D01*
X105422732Y-134506207D01*
X105414151Y-134463508D01*
X105413684Y-134406701D01*
X105424149Y-134358502D01*
X105448255Y-134324182D01*
X105488155Y-134301921D01*
X105546006Y-134289900D01*
X105623962Y-134286297D01*
X105655070Y-134286155D01*
X105697351Y-134285417D01*
X105726370Y-134284189D01*
X105737148Y-134282634D01*
X105736657Y-134281001D01*
X105729477Y-134263885D01*
X105715518Y-134232573D01*
X105697080Y-134192252D01*
X105657014Y-134105534D01*
X105767620Y-134108849D01*
X105878226Y-134112165D01*
X105933636Y-134263079D01*
X105943973Y-134290943D01*
X105971441Y-134363287D01*
X106003208Y-134445235D01*
X106036119Y-134528686D01*
X106067018Y-134605538D01*
X106078739Y-134634430D01*
X106088908Y-134659496D01*
G37*
G36*
X110973719Y-134109057D02*
G01*
X111253344Y-134112165D01*
X111314196Y-134280492D01*
X111314884Y-134282392D01*
X111339090Y-134347890D01*
X111369155Y-134427193D01*
X111402762Y-134514370D01*
X111437593Y-134603489D01*
X111471331Y-134688622D01*
X111501659Y-134763837D01*
X111526259Y-134823203D01*
X111526316Y-134823340D01*
X111523360Y-134830203D01*
X111505942Y-134834631D01*
X111471156Y-134837007D01*
X111416094Y-134837714D01*
X111299780Y-134837714D01*
X111270252Y-134759354D01*
X111254633Y-134717740D01*
X111233843Y-134661999D01*
X111216164Y-134614245D01*
X111191603Y-134547494D01*
X111050052Y-134547494D01*
X110908501Y-134547494D01*
X110886870Y-134486548D01*
X110878018Y-134461698D01*
X110866486Y-134429620D01*
X110859685Y-134411091D01*
X110859339Y-134408662D01*
X110866722Y-134402905D01*
X110888908Y-134399182D01*
X110928694Y-134397178D01*
X110988875Y-134396580D01*
X111039677Y-134395872D01*
X111083270Y-134393831D01*
X111112771Y-134390780D01*
X111123618Y-134387039D01*
X111122587Y-134380870D01*
X111115957Y-134356821D01*
X111105217Y-134323496D01*
X111086817Y-134269493D01*
X110918400Y-134266286D01*
X110749982Y-134263079D01*
X110722038Y-134194357D01*
X110708856Y-134160768D01*
X110698186Y-134130970D01*
X110694093Y-134115791D01*
X110699646Y-134113902D01*
X110725148Y-134111642D01*
X110768472Y-134109950D01*
X110826453Y-134108905D01*
X110895923Y-134108582D01*
X110973719Y-134109057D01*
G37*
G36*
X110641771Y-134254373D02*
G01*
X110658585Y-134298925D01*
X110686447Y-134371439D01*
X110718233Y-134453078D01*
X110751198Y-134536800D01*
X110782594Y-134615560D01*
X110786879Y-134626233D01*
X110812668Y-134690743D01*
X110835008Y-134747079D01*
X110852588Y-134791904D01*
X110864097Y-134821877D01*
X110868225Y-134833661D01*
X110865164Y-134834735D01*
X110844308Y-134836010D01*
X110808057Y-134836207D01*
X110761531Y-134835247D01*
X110654838Y-134831909D01*
X110592969Y-134669386D01*
X110581389Y-134639072D01*
X110551781Y-134562306D01*
X110519855Y-134480377D01*
X110487381Y-134397761D01*
X110456131Y-134318930D01*
X110427873Y-134248359D01*
X110404379Y-134190523D01*
X110387419Y-134149894D01*
X110368736Y-134106361D01*
X110477657Y-134106361D01*
X110586577Y-134106361D01*
X110641771Y-134254373D01*
G37*
G36*
X107183979Y-134138285D02*
G01*
X107188696Y-134154138D01*
X107201968Y-134192488D01*
X107221551Y-134245762D01*
X107245938Y-134310109D01*
X107273625Y-134381680D01*
X107303104Y-134456624D01*
X107332869Y-134531091D01*
X107361415Y-134601229D01*
X107387235Y-134663189D01*
X107408824Y-134713119D01*
X107464443Y-134838114D01*
X107179239Y-134835012D01*
X106894034Y-134831909D01*
X106863108Y-134756452D01*
X106832182Y-134680995D01*
X106981377Y-134685068D01*
X106988289Y-134685249D01*
X107045292Y-134686194D01*
X107094049Y-134686071D01*
X107129573Y-134684945D01*
X107146881Y-134682882D01*
X107149355Y-134676153D01*
X107144739Y-134648893D01*
X107130380Y-134600875D01*
X107106258Y-134532044D01*
X107072353Y-134442346D01*
X107028648Y-134331726D01*
X106975122Y-134200132D01*
X106974718Y-134199148D01*
X106959460Y-134160692D01*
X106948597Y-134130835D01*
X106944459Y-134115968D01*
X106949438Y-134113187D01*
X106973045Y-134109667D01*
X107011647Y-134107255D01*
X107060326Y-134106361D01*
X107176192Y-134106361D01*
X107183979Y-134138285D01*
G37*
G36*
X107304471Y-132184916D02*
G01*
X107325802Y-132206996D01*
X107350225Y-132249706D01*
X107426662Y-132382760D01*
X107537267Y-132535679D01*
X107668580Y-132682622D01*
X107819429Y-132822516D01*
X107988644Y-132954289D01*
X108175051Y-133076871D01*
X108377478Y-133189189D01*
X108519031Y-133255176D01*
X108685148Y-133315978D01*
X108843654Y-133354905D01*
X108994622Y-133371963D01*
X109138123Y-133367160D01*
X109274229Y-133340502D01*
X109403012Y-133291998D01*
X109431899Y-133276047D01*
X109487416Y-133236943D01*
X109547414Y-133186301D01*
X109606453Y-133128851D01*
X109659091Y-133069324D01*
X109682901Y-133047221D01*
X109703696Y-133043378D01*
X109720515Y-133046511D01*
X109755846Y-133050348D01*
X109804003Y-133054249D01*
X109859663Y-133057724D01*
X109859964Y-133057740D01*
X109919250Y-133061358D01*
X109958998Y-133065117D01*
X109982862Y-133069722D01*
X109994500Y-133075876D01*
X109997567Y-133084284D01*
X109996343Y-133092798D01*
X109985864Y-133123479D01*
X109966887Y-133166156D01*
X109942111Y-133215578D01*
X109914238Y-133266492D01*
X109885968Y-133313646D01*
X109860003Y-133351790D01*
X109837474Y-133379683D01*
X109778015Y-133441817D01*
X109708191Y-133503614D01*
X109635465Y-133558727D01*
X109567302Y-133600805D01*
X109511261Y-133627460D01*
X109436640Y-133657586D01*
X109357412Y-133685274D01*
X109281909Y-133707636D01*
X109218463Y-133721781D01*
X109209198Y-133723229D01*
X109137884Y-133730361D01*
X109052080Y-133733730D01*
X108959054Y-133733472D01*
X108866076Y-133729721D01*
X108780415Y-133722613D01*
X108709342Y-133712284D01*
X108616121Y-133691460D01*
X108426346Y-133632001D01*
X108240807Y-133551267D01*
X108061066Y-133450509D01*
X107888688Y-133330981D01*
X107725235Y-133193937D01*
X107572271Y-133040629D01*
X107431359Y-132872312D01*
X107304062Y-132690239D01*
X107191943Y-132495663D01*
X107169821Y-132451761D01*
X107149275Y-132408111D01*
X107135335Y-132375069D01*
X107130199Y-132357553D01*
X107130202Y-132357315D01*
X107137907Y-132336941D01*
X107157551Y-132305867D01*
X107184827Y-132269797D01*
X107215427Y-132234434D01*
X107245045Y-132205482D01*
X107256191Y-132196382D01*
X107282508Y-132181900D01*
X107304471Y-132184916D01*
G37*
G36*
X108964207Y-132903067D02*
G01*
X109002436Y-132910372D01*
X109038231Y-132918146D01*
X109092778Y-132929877D01*
X109155497Y-132943280D01*
X109218732Y-132956716D01*
X109271100Y-132968209D01*
X109318110Y-132980077D01*
X109349363Y-132990692D01*
X109368810Y-133001449D01*
X109380400Y-133013740D01*
X109387231Y-133024651D01*
X109391668Y-133040157D01*
X109381447Y-133050736D01*
X109373577Y-133052981D01*
X109344646Y-133056272D01*
X109299517Y-133058923D01*
X109242536Y-133060706D01*
X109178045Y-133061393D01*
X109108289Y-133061201D01*
X109056382Y-133060218D01*
X109020562Y-133058087D01*
X108997226Y-133054452D01*
X108982771Y-133048960D01*
X108973593Y-133041256D01*
X108969689Y-133036067D01*
X108956079Y-133010827D01*
X108942147Y-132977363D01*
X108930463Y-132942975D01*
X108923594Y-132914964D01*
X108924111Y-132900628D01*
X108935807Y-132899651D01*
X108964207Y-132903067D01*
G37*
G36*
X109913307Y-131610799D02*
G01*
X109976784Y-131633125D01*
X110038345Y-131658048D01*
X110182267Y-131727972D01*
X110305674Y-131806710D01*
X110409568Y-131895065D01*
X110494952Y-131993842D01*
X110562826Y-132103847D01*
X110570344Y-132118657D01*
X110613331Y-132212730D01*
X110641498Y-132296530D01*
X110655945Y-132375716D01*
X110657769Y-132455944D01*
X110648070Y-132542875D01*
X110642378Y-132571082D01*
X110609770Y-132661553D01*
X110558451Y-132746084D01*
X110491841Y-132821255D01*
X110413359Y-132883649D01*
X110326423Y-132929847D01*
X110234452Y-132956430D01*
X110198981Y-132960596D01*
X110138784Y-132964260D01*
X110064047Y-132966464D01*
X109979487Y-132967246D01*
X109889824Y-132966643D01*
X109799777Y-132964693D01*
X109714064Y-132961435D01*
X109637404Y-132956905D01*
X109574517Y-132951143D01*
X109441357Y-132932337D01*
X109263744Y-132899158D01*
X109075065Y-132856065D01*
X108880093Y-132804338D01*
X108683602Y-132745260D01*
X108490366Y-132680114D01*
X108305158Y-132610181D01*
X108278917Y-132600020D01*
X108249514Y-132589635D01*
X108234251Y-132585611D01*
X108228698Y-132591163D01*
X108214763Y-132613946D01*
X108195634Y-132650265D01*
X108173735Y-132695709D01*
X108165813Y-132712529D01*
X108139475Y-132763479D01*
X108118712Y-132795084D01*
X108104375Y-132805992D01*
X108096520Y-132801712D01*
X108073721Y-132782790D01*
X108039230Y-132750867D01*
X107995448Y-132708245D01*
X107944779Y-132657229D01*
X107889627Y-132600122D01*
X107863440Y-132572644D01*
X107801170Y-132507294D01*
X107739611Y-132442682D01*
X107682589Y-132382825D01*
X107633932Y-132331740D01*
X107597467Y-132293444D01*
X107560356Y-132253685D01*
X107529904Y-132219580D01*
X107509357Y-132194863D01*
X107501858Y-132183160D01*
X107501929Y-132180366D01*
X107503217Y-132169904D01*
X107507750Y-132161551D01*
X107517747Y-132155132D01*
X107535428Y-132150472D01*
X107563009Y-132147397D01*
X107602710Y-132145733D01*
X107656749Y-132145305D01*
X107727344Y-132145937D01*
X107816713Y-132147456D01*
X107927076Y-132149687D01*
X108007337Y-132151532D01*
X108096133Y-132154012D01*
X108175289Y-132156696D01*
X108242091Y-132159471D01*
X108293824Y-132162221D01*
X108327773Y-132164832D01*
X108341223Y-132167189D01*
X108342459Y-132176169D01*
X108338688Y-132203795D01*
X108329665Y-132244741D01*
X108316374Y-132293979D01*
X108305729Y-132332023D01*
X108295217Y-132374228D01*
X108289437Y-132403818D01*
X108289445Y-132416008D01*
X108308687Y-132423735D01*
X108346703Y-132435878D01*
X108399065Y-132451140D01*
X108461598Y-132468369D01*
X108530126Y-132486417D01*
X108600472Y-132504134D01*
X108668462Y-132520369D01*
X108767556Y-132542822D01*
X108923981Y-132575951D01*
X109065561Y-132602410D01*
X109196791Y-132622780D01*
X109322167Y-132637645D01*
X109446183Y-132647586D01*
X109573335Y-132653185D01*
X109708118Y-132655026D01*
X109761459Y-132654835D01*
X109864234Y-132652387D01*
X109948006Y-132646606D01*
X110015596Y-132636834D01*
X110069825Y-132622414D01*
X110113511Y-132602684D01*
X110149477Y-132576987D01*
X110180543Y-132544664D01*
X110208486Y-132502849D01*
X110233971Y-132432403D01*
X110240517Y-132355079D01*
X110228683Y-132273950D01*
X110199026Y-132192088D01*
X110152106Y-132112562D01*
X110088482Y-132038446D01*
X110055755Y-132000842D01*
X110012528Y-131937678D01*
X109967581Y-131858510D01*
X109941998Y-131810620D01*
X109912861Y-131758135D01*
X109887102Y-131713780D01*
X109868294Y-131683840D01*
X109845012Y-131645752D01*
X109835715Y-131617688D01*
X109843509Y-131602737D01*
X109869127Y-131600555D01*
X109913307Y-131610799D01*
G37*
G36*
X107888456Y-131175542D02*
G01*
X108025233Y-131175805D01*
X108059611Y-131175894D01*
X108174205Y-131176388D01*
X108281619Y-131177147D01*
X108379560Y-131178135D01*
X108465739Y-131179318D01*
X108537865Y-131180660D01*
X108593645Y-131182126D01*
X108630790Y-131183682D01*
X108647008Y-131185293D01*
X108662692Y-131192715D01*
X108678910Y-131207689D01*
X108695105Y-131232617D01*
X108712914Y-131270580D01*
X108733973Y-131324661D01*
X108759920Y-131397941D01*
X108763957Y-131409603D01*
X108788968Y-131480538D01*
X108818336Y-131562175D01*
X108848731Y-131645314D01*
X108876821Y-131720757D01*
X108890220Y-131756349D01*
X108920618Y-131837286D01*
X108954218Y-131926946D01*
X108987800Y-132016730D01*
X109018144Y-132098043D01*
X109041455Y-132160465D01*
X109064317Y-132221394D01*
X109083679Y-132272692D01*
X109098012Y-132310316D01*
X109105791Y-132330218D01*
X109113968Y-132350359D01*
X109135253Y-132405535D01*
X109153608Y-132456882D01*
X109167572Y-132499982D01*
X109175683Y-132530420D01*
X109176479Y-132543780D01*
X109167720Y-132548228D01*
X109144713Y-132550283D01*
X109106608Y-132547579D01*
X109050910Y-132539909D01*
X108975123Y-132527065D01*
X108929260Y-132518729D01*
X108860422Y-132505376D01*
X108810966Y-132494281D01*
X108778547Y-132484817D01*
X108760817Y-132476356D01*
X108755428Y-132468269D01*
X108755126Y-132465998D01*
X108748891Y-132445714D01*
X108736246Y-132411624D01*
X108719379Y-132369708D01*
X108703522Y-132334237D01*
X108677528Y-132291352D01*
X108647610Y-132265318D01*
X108608705Y-132252399D01*
X108555753Y-132248856D01*
X108538333Y-132248602D01*
X108484838Y-132246073D01*
X108435770Y-132241729D01*
X108405581Y-132237647D01*
X108386408Y-132231502D01*
X108380235Y-132219778D01*
X108381587Y-132198061D01*
X108379766Y-132166519D01*
X108360502Y-132138438D01*
X108358720Y-132136863D01*
X108348109Y-132129486D01*
X108333582Y-132123842D01*
X108311924Y-132119589D01*
X108279918Y-132116385D01*
X108234346Y-132113889D01*
X108171992Y-132111758D01*
X108089639Y-132109651D01*
X107844139Y-132103847D01*
X107828439Y-132054230D01*
X107822994Y-132036845D01*
X107818090Y-132016755D01*
X107818420Y-132001181D01*
X107826232Y-131989547D01*
X107843772Y-131981275D01*
X107873290Y-131975789D01*
X107917034Y-131972513D01*
X107977250Y-131970870D01*
X108056188Y-131970283D01*
X108156095Y-131970175D01*
X108233816Y-131970000D01*
X108321221Y-131969179D01*
X108389548Y-131967381D01*
X108441183Y-131964268D01*
X108478511Y-131959507D01*
X108503918Y-131952763D01*
X108519787Y-131943699D01*
X108528505Y-131931981D01*
X108532457Y-131917273D01*
X108532122Y-131907806D01*
X108525147Y-131876105D01*
X108511332Y-131830074D01*
X108492390Y-131774204D01*
X108470033Y-131712984D01*
X108445976Y-131650904D01*
X108421932Y-131592452D01*
X108399613Y-131542118D01*
X108380734Y-131504391D01*
X108367008Y-131483761D01*
X108337020Y-131453756D01*
X107917848Y-131447951D01*
X107498677Y-131442147D01*
X107479863Y-131414134D01*
X107467790Y-131392769D01*
X107450580Y-131356954D01*
X107432125Y-131314955D01*
X107415277Y-131273538D01*
X107402887Y-131239467D01*
X107397809Y-131219507D01*
X107397682Y-131214524D01*
X107398739Y-131205493D01*
X107403068Y-131197938D01*
X107412483Y-131191734D01*
X107428796Y-131186753D01*
X107453821Y-131182869D01*
X107489370Y-131179957D01*
X107537258Y-131177890D01*
X107599298Y-131176541D01*
X107677302Y-131175784D01*
X107773084Y-131175493D01*
X107888456Y-131175542D01*
G37*
G36*
X107747179Y-130510429D02*
G01*
X107832891Y-130516449D01*
X107908844Y-130526288D01*
X108037838Y-130551470D01*
X108244712Y-130604505D01*
X108450819Y-130672100D01*
X108652498Y-130752606D01*
X108846085Y-130844375D01*
X109027918Y-130945761D01*
X109194334Y-131055116D01*
X109341671Y-131170792D01*
X109452193Y-131275434D01*
X109562331Y-131397431D01*
X109667215Y-131530934D01*
X109764790Y-131672530D01*
X109853000Y-131818808D01*
X109929791Y-131966352D01*
X109993108Y-132111751D01*
X110040897Y-132251590D01*
X110071102Y-132382458D01*
X110074063Y-132400681D01*
X110080920Y-132451460D01*
X110081435Y-132484697D01*
X110074527Y-132504395D01*
X110059111Y-132514555D01*
X110034106Y-132519182D01*
X110028220Y-132519741D01*
X109992214Y-132522079D01*
X109943872Y-132524169D01*
X109891951Y-132525616D01*
X109792139Y-132527567D01*
X109765910Y-132420186D01*
X109741117Y-132330307D01*
X109675656Y-132152730D01*
X109590657Y-131980881D01*
X109488508Y-131819927D01*
X109412349Y-131719392D01*
X109263420Y-131550585D01*
X109098778Y-131395325D01*
X108920747Y-131255214D01*
X108731651Y-131131850D01*
X108533814Y-131026836D01*
X108329559Y-130941770D01*
X108121210Y-130878254D01*
X108005171Y-130851614D01*
X107861802Y-130826140D01*
X107735363Y-130813012D01*
X107626520Y-130812262D01*
X107535936Y-130823919D01*
X107464273Y-130848014D01*
X107419320Y-130874086D01*
X107351031Y-130933764D01*
X107293852Y-131012687D01*
X107247401Y-131111430D01*
X107211300Y-131230567D01*
X107209525Y-131238122D01*
X107199467Y-131290301D01*
X107192944Y-131346679D01*
X107189411Y-131413571D01*
X107188325Y-131497289D01*
X107188163Y-131525954D01*
X107186893Y-131582256D01*
X107184569Y-131627482D01*
X107181440Y-131657585D01*
X107177757Y-131668518D01*
X107172197Y-131668063D01*
X107146930Y-131664037D01*
X107108985Y-131656871D01*
X107064275Y-131647813D01*
X107018716Y-131638108D01*
X106978222Y-131629003D01*
X106948707Y-131621745D01*
X106936086Y-131617580D01*
X106934596Y-131608567D01*
X106933018Y-131579552D01*
X106931795Y-131534370D01*
X106931026Y-131476896D01*
X106930810Y-131411001D01*
X106931228Y-131364177D01*
X106939233Y-131201651D01*
X106957846Y-131058842D01*
X106987647Y-130934729D01*
X107029218Y-130828286D01*
X107083141Y-130738491D01*
X107149998Y-130664319D01*
X107230369Y-130604748D01*
X107324837Y-130558753D01*
X107433982Y-130525312D01*
X107436182Y-130524802D01*
X107496210Y-130515414D01*
X107572366Y-130509898D01*
X107658180Y-130508240D01*
X107747179Y-130510429D01*
G37*
G36*
X106758224Y-130979565D02*
G01*
X106879621Y-130989405D01*
X106875985Y-131047449D01*
X106875225Y-131059445D01*
X106872322Y-131104128D01*
X106868667Y-131159319D01*
X106864872Y-131215776D01*
X106857393Y-131326059D01*
X106751904Y-131333489D01*
X106680922Y-131341162D01*
X106623041Y-131355024D01*
X106582572Y-131376106D01*
X106556700Y-131405920D01*
X106542609Y-131445980D01*
X106540685Y-131461326D01*
X106543817Y-131483033D01*
X106556344Y-131503085D01*
X106580427Y-131522803D01*
X106618227Y-131543504D01*
X106671903Y-131566506D01*
X106743618Y-131593128D01*
X106835530Y-131624687D01*
X106839866Y-131626140D01*
X106917180Y-131651486D01*
X106994276Y-131675815D01*
X107065724Y-131697479D01*
X107126095Y-131714830D01*
X107169960Y-131726220D01*
X107192039Y-131731558D01*
X107236923Y-131743743D01*
X107271253Y-131754876D01*
X107288950Y-131763075D01*
X107301029Y-131783524D01*
X107303495Y-131813269D01*
X107293779Y-131837426D01*
X107285818Y-131848661D01*
X107267546Y-131876935D01*
X107241353Y-131918614D01*
X107209364Y-131970311D01*
X107173707Y-132028640D01*
X107143629Y-132078058D01*
X107107315Y-132137545D01*
X107075025Y-132190256D01*
X107049429Y-132231832D01*
X107033199Y-132257913D01*
X107013050Y-132285406D01*
X106990865Y-132302386D01*
X106964567Y-132306243D01*
X106930679Y-132296598D01*
X106885725Y-132273070D01*
X106826230Y-132235279D01*
X106738345Y-132174288D01*
X106617030Y-132080809D01*
X106504499Y-131983157D01*
X106403307Y-131883890D01*
X106316010Y-131785564D01*
X106245164Y-131690737D01*
X106193322Y-131601965D01*
X106178878Y-131572035D01*
X106164668Y-131539207D01*
X106155930Y-131510172D01*
X106151337Y-131478177D01*
X106149556Y-131436470D01*
X106149258Y-131378299D01*
X106149276Y-131362328D01*
X106150023Y-131307287D01*
X106152607Y-131267707D01*
X106158044Y-131237322D01*
X106167349Y-131209868D01*
X106181538Y-131179077D01*
X106217010Y-131118731D01*
X106272408Y-131057812D01*
X106339367Y-131015774D01*
X106371638Y-131004504D01*
X106432307Y-130991580D01*
X106506711Y-130982156D01*
X106589438Y-130976701D01*
X106675080Y-130975681D01*
X106758224Y-130979565D01*
G37*
%TO.C,kibuzzard-68CD7AD1*%
G36*
X117634231Y-120895385D02*
G01*
X117687308Y-121022308D01*
X117634231Y-121151538D01*
X117498077Y-121200000D01*
X117445000Y-121200000D01*
X117308846Y-121151538D01*
X117255769Y-121022308D01*
X117308846Y-120895385D01*
X117445000Y-120846923D01*
X117498077Y-120846923D01*
X117634231Y-120895385D01*
G37*
G36*
X112695769Y-120895385D02*
G01*
X112748846Y-121022308D01*
X112695769Y-121151538D01*
X112559615Y-121200000D01*
X112506538Y-121200000D01*
X112370385Y-121151538D01*
X112317308Y-121022308D01*
X112370385Y-120895385D01*
X112506538Y-120846923D01*
X112559615Y-120846923D01*
X112695769Y-120895385D01*
G37*
G36*
X115001154Y-120895385D02*
G01*
X115054231Y-121022308D01*
X115001154Y-121151538D01*
X114865000Y-121200000D01*
X114811923Y-121200000D01*
X114675769Y-121151538D01*
X114622692Y-121022308D01*
X114675769Y-120895385D01*
X114811923Y-120846923D01*
X114865000Y-120846923D01*
X115001154Y-120895385D01*
G37*
G36*
X118725769Y-120627692D02*
G01*
X117878846Y-120627692D01*
X117878846Y-120288462D01*
X118725769Y-120288462D01*
X118725769Y-120627692D01*
G37*
G36*
X119263462Y-121200000D02*
G01*
X118859615Y-121200000D01*
X118859615Y-120085385D01*
X117865000Y-120085385D01*
X117865000Y-119700000D01*
X119263462Y-119700000D01*
X119263462Y-121200000D01*
G37*
G36*
X109393462Y-120085385D02*
G01*
X108475000Y-120085385D01*
X108408077Y-120111923D01*
X108382692Y-120184615D01*
X108408077Y-120258462D01*
X108475000Y-120286154D01*
X108985000Y-120286154D01*
X109116795Y-120299872D01*
X109232179Y-120341026D01*
X109331154Y-120409615D01*
X109433269Y-120551827D01*
X109467308Y-120731538D01*
X109467308Y-121200000D01*
X107999615Y-121200000D01*
X107999615Y-120812308D01*
X109063462Y-120812308D01*
X109063462Y-120699231D01*
X108971154Y-120606923D01*
X108458846Y-120606923D01*
X108325897Y-120593077D01*
X108210128Y-120551538D01*
X108111538Y-120482308D01*
X108036538Y-120390513D01*
X107991538Y-120281282D01*
X107976538Y-120154615D01*
X107991538Y-120028974D01*
X108036538Y-119919744D01*
X108111538Y-119826923D01*
X108210128Y-119756410D01*
X108325897Y-119714103D01*
X108458846Y-119700000D01*
X109393462Y-119700000D01*
X109393462Y-120085385D01*
G37*
G36*
X113832740Y-119713053D02*
G01*
X113982885Y-119752212D01*
X114117740Y-119817476D01*
X114237308Y-119908846D01*
X114335240Y-120020986D01*
X114405192Y-120148558D01*
X114447163Y-120291563D01*
X114461154Y-120450000D01*
X114447163Y-120608437D01*
X114405192Y-120751442D01*
X114335240Y-120879014D01*
X114237308Y-120991154D01*
X114117740Y-121082524D01*
X113982885Y-121147788D01*
X113832740Y-121186947D01*
X113667308Y-121200000D01*
X112933462Y-121200000D01*
X112933462Y-120812308D01*
X113695000Y-120812308D01*
X113840096Y-120786923D01*
X113956923Y-120710769D01*
X114033942Y-120594808D01*
X114059615Y-120450000D01*
X114033942Y-120303462D01*
X113956923Y-120186923D01*
X113840096Y-120110769D01*
X113695000Y-120085385D01*
X112933462Y-120085385D01*
X112933462Y-119700000D01*
X113667308Y-119700000D01*
X113832740Y-119713053D01*
G37*
G36*
X110595769Y-120715385D02*
G01*
X111133462Y-119700000D01*
X111588077Y-119700000D01*
X110821923Y-121089231D01*
X110748077Y-121172308D01*
X110641923Y-121200000D01*
X110549615Y-121200000D01*
X110446346Y-121172308D01*
X110371923Y-121089231D01*
X109603462Y-119700000D01*
X110058077Y-119700000D01*
X110595769Y-120715385D01*
G37*
G36*
X116305000Y-119727692D02*
G01*
X116381154Y-119810769D01*
X117147308Y-121200000D01*
X116701923Y-121200000D01*
X116152692Y-120166154D01*
X115896538Y-120648462D01*
X116258846Y-120648462D01*
X116429615Y-120969231D01*
X115725769Y-120969231D01*
X115601154Y-121200000D01*
X115162692Y-121200000D01*
X115928846Y-119810769D01*
X116005000Y-119727692D01*
X116108846Y-119700000D01*
X116201154Y-119700000D01*
X116305000Y-119727692D01*
G37*
%TO.C,kibuzzard-68CD7A1F*%
G36*
X114130462Y-114897436D02*
G01*
X114960000Y-114897436D01*
X115958154Y-114897436D01*
X116621538Y-114897436D01*
X116878769Y-114897436D01*
X117237744Y-114897436D01*
X117539282Y-114897436D01*
X117237744Y-115902564D01*
X116878769Y-115902564D01*
X113361231Y-115902564D01*
X113002256Y-115902564D01*
X112731487Y-115000000D01*
X113361231Y-115000000D01*
X113361231Y-115800000D01*
X114129231Y-115800000D01*
X114129231Y-115594462D01*
X113576615Y-115594462D01*
X113576615Y-115316308D01*
X113648000Y-115316308D01*
X113648000Y-115487385D01*
X114120615Y-115487385D01*
X114120615Y-115316308D01*
X113648000Y-115316308D01*
X113576615Y-115316308D01*
X113576615Y-115206769D01*
X114120615Y-115206769D01*
X114130462Y-115206769D01*
X114130462Y-115000000D01*
X114256000Y-115000000D01*
X114256000Y-115800000D01*
X114472615Y-115800000D01*
X115052308Y-115800000D01*
X115603692Y-115800000D01*
X115690803Y-115790769D01*
X115766701Y-115763077D01*
X115831385Y-115716923D01*
X115880615Y-115656000D01*
X115910154Y-115584000D01*
X115913290Y-115557538D01*
X116003692Y-115557538D01*
X116011692Y-115625162D01*
X116035692Y-115683624D01*
X116075692Y-115732923D01*
X116128137Y-115770188D01*
X116189470Y-115792547D01*
X116259692Y-115800000D01*
X116867692Y-115800000D01*
X116867692Y-115594462D01*
X116269538Y-115594462D01*
X116232000Y-115580923D01*
X116217846Y-115541538D01*
X116232000Y-115502154D01*
X116269538Y-115487385D01*
X116621538Y-115487385D01*
X116692444Y-115479863D01*
X116754188Y-115457299D01*
X116806769Y-115419692D01*
X116846769Y-115370188D01*
X116870769Y-115311932D01*
X116878769Y-115244923D01*
X116870769Y-115176547D01*
X116846769Y-115117470D01*
X116806769Y-115067692D01*
X116754188Y-115030085D01*
X116692444Y-115007521D01*
X116621538Y-115000000D01*
X116013538Y-115000000D01*
X116013538Y-115206769D01*
X116611692Y-115206769D01*
X116649846Y-115220923D01*
X116664615Y-115260923D01*
X116649846Y-115301538D01*
X116611692Y-115316308D01*
X116259692Y-115316308D01*
X116189470Y-115323761D01*
X116128137Y-115346120D01*
X116075692Y-115383385D01*
X116035692Y-115432547D01*
X116011692Y-115490598D01*
X116003692Y-115557538D01*
X115913290Y-115557538D01*
X115920000Y-115500923D01*
X115909077Y-115416154D01*
X115876308Y-115341538D01*
X115824462Y-115280154D01*
X115756308Y-115235077D01*
X115958154Y-115000000D01*
X115677538Y-115000000D01*
X115517538Y-115203077D01*
X115328000Y-115203077D01*
X115328000Y-115390154D01*
X115603692Y-115390154D01*
X115676308Y-115418462D01*
X115704615Y-115492308D01*
X115676308Y-115566154D01*
X115603692Y-115594462D01*
X115266462Y-115594462D01*
X115266462Y-115000000D01*
X115052308Y-115000000D01*
X115052308Y-115800000D01*
X114472615Y-115800000D01*
X114472615Y-115206769D01*
X114960000Y-115206769D01*
X114960000Y-115000000D01*
X114256000Y-115000000D01*
X114130462Y-115000000D01*
X113361231Y-115000000D01*
X112731487Y-115000000D01*
X112700718Y-114897436D01*
X113002256Y-114897436D01*
X113361231Y-114897436D01*
X114130462Y-114897436D01*
G37*
%TO.C,kibuzzard-68CD79A4*%
G36*
X117522564Y-114320206D02*
G01*
X117522564Y-114935591D01*
X116517436Y-114935591D01*
X116517436Y-114320206D01*
X116517436Y-113354052D01*
X116620000Y-113354052D01*
X116620000Y-113626052D01*
X116862462Y-113829129D01*
X116620000Y-114033437D01*
X116620000Y-114289437D01*
X117004000Y-113965744D01*
X117420000Y-114320206D01*
X117420000Y-114048206D01*
X117144308Y-113811898D01*
X117420000Y-113581744D01*
X117420000Y-113325744D01*
X117002769Y-113676514D01*
X116620000Y-113354052D01*
X116517436Y-113354052D01*
X116517436Y-112490052D01*
X116620000Y-112490052D01*
X116620000Y-113293744D01*
X116825538Y-113293744D01*
X116825538Y-112999591D01*
X117420000Y-112999591D01*
X117420000Y-112784206D01*
X116825538Y-112784206D01*
X116825538Y-112490052D01*
X116620000Y-112490052D01*
X116517436Y-112490052D01*
X116517436Y-111874667D01*
X117522564Y-111874667D01*
X117522564Y-112490052D01*
X117522564Y-112999591D01*
X117522564Y-114320206D01*
G37*
%TO.C,kibuzzard-68CD79BE*%
G36*
X116272564Y-114353846D02*
G01*
X116272564Y-114917949D01*
X115267436Y-114917949D01*
X115267436Y-114353846D01*
X115267436Y-113387693D01*
X115370000Y-113387693D01*
X115370000Y-113659693D01*
X115612462Y-113862770D01*
X115370000Y-114067077D01*
X115370000Y-114323077D01*
X115754000Y-113999385D01*
X116170000Y-114353846D01*
X116170000Y-114081846D01*
X115894308Y-113845539D01*
X116170000Y-113615385D01*
X116170000Y-113359385D01*
X115752769Y-113710154D01*
X115370000Y-113387693D01*
X115267436Y-113387693D01*
X115267436Y-112438770D01*
X115370000Y-112438770D01*
X115370000Y-112990154D01*
X115379231Y-113077265D01*
X115406923Y-113153163D01*
X115453077Y-113217846D01*
X115514000Y-113267077D01*
X115586000Y-113296616D01*
X115669077Y-113306462D01*
X115753846Y-113295539D01*
X115828462Y-113262770D01*
X115889846Y-113210923D01*
X115934923Y-113142770D01*
X116170000Y-113344616D01*
X116170000Y-113064000D01*
X115966923Y-112904000D01*
X115966923Y-112714462D01*
X115779846Y-112714462D01*
X115779846Y-112990154D01*
X115751538Y-113062770D01*
X115677692Y-113091077D01*
X115603846Y-113062770D01*
X115575538Y-112990154D01*
X115575538Y-112652923D01*
X116170000Y-112652923D01*
X116170000Y-112438770D01*
X115370000Y-112438770D01*
X115267436Y-112438770D01*
X115267436Y-111874667D01*
X116272564Y-111874667D01*
X116272564Y-112438770D01*
X116272564Y-113344616D01*
X116272564Y-114353846D01*
G37*
%TO.C,kibuzzard-68CD795A*%
G36*
X115022564Y-113424615D02*
G01*
X115022564Y-114555692D01*
X115022564Y-114822769D01*
X115022564Y-114925333D01*
X114017436Y-114925333D01*
X114017436Y-114822769D01*
X114017436Y-113977231D01*
X114120000Y-113977231D01*
X114120000Y-114561846D01*
X114134308Y-114667846D01*
X114177231Y-114742154D01*
X114244154Y-114786000D01*
X114330462Y-114800615D01*
X114388615Y-114794769D01*
X114437538Y-114777231D01*
X114497846Y-114712000D01*
X114521231Y-114756615D01*
X114561846Y-114792000D01*
X114617231Y-114815077D01*
X114684923Y-114822769D01*
X114782769Y-114805231D01*
X114857231Y-114752615D01*
X114892103Y-114699556D01*
X114913026Y-114633915D01*
X114920000Y-114555692D01*
X114920000Y-113977231D01*
X114719385Y-113977231D01*
X114719385Y-114545846D01*
X114704923Y-114592923D01*
X114661538Y-114608615D01*
X114615385Y-114592000D01*
X114598769Y-114545846D01*
X114598769Y-113985846D01*
X114433846Y-113985846D01*
X114433846Y-114533538D01*
X114419385Y-114576923D01*
X114376000Y-114591385D01*
X114333538Y-114576923D01*
X114319385Y-114533538D01*
X114319385Y-113977231D01*
X114120000Y-113977231D01*
X114017436Y-113977231D01*
X114017436Y-112870769D01*
X114120000Y-112870769D01*
X114120000Y-113113231D01*
X114661538Y-113400000D01*
X114120000Y-113686769D01*
X114120000Y-113929231D01*
X114860923Y-113519385D01*
X114905231Y-113479692D01*
X114920000Y-113424615D01*
X114920000Y-113375385D01*
X114905231Y-113318769D01*
X114860923Y-113279385D01*
X114120000Y-112870769D01*
X114017436Y-112870769D01*
X114017436Y-111977231D01*
X114120000Y-111977231D01*
X114120000Y-112561846D01*
X114134308Y-112667846D01*
X114177231Y-112742154D01*
X114244154Y-112786000D01*
X114330462Y-112800615D01*
X114388615Y-112794769D01*
X114437538Y-112777231D01*
X114497846Y-112712000D01*
X114521231Y-112756615D01*
X114561846Y-112792000D01*
X114617231Y-112815077D01*
X114684923Y-112822769D01*
X114782769Y-112805231D01*
X114857231Y-112752615D01*
X114892103Y-112699556D01*
X114913026Y-112633915D01*
X114920000Y-112555692D01*
X114920000Y-111977231D01*
X114719385Y-111977231D01*
X114719385Y-112545846D01*
X114704923Y-112592923D01*
X114661538Y-112608615D01*
X114615385Y-112592000D01*
X114598769Y-112545846D01*
X114598769Y-111985846D01*
X114433846Y-111985846D01*
X114433846Y-112533538D01*
X114419385Y-112576923D01*
X114376000Y-112591385D01*
X114333538Y-112576923D01*
X114319385Y-112533538D01*
X114319385Y-111977231D01*
X114120000Y-111977231D01*
X114017436Y-111977231D01*
X114017436Y-111874667D01*
X115022564Y-111874667D01*
X115022564Y-111977231D01*
X115022564Y-112555692D01*
X115022564Y-113424615D01*
G37*
%TO.C,kibuzzard-68CD793B*%
G36*
X113413231Y-114441231D02*
G01*
X113399692Y-114518308D01*
X113359077Y-114579692D01*
X113297231Y-114619846D01*
X113220000Y-114633231D01*
X113141846Y-114619846D01*
X113079692Y-114579692D01*
X113039077Y-114518308D01*
X113025538Y-114441231D01*
X113025538Y-114181538D01*
X113413231Y-114181538D01*
X113413231Y-114441231D01*
G37*
G36*
X113722564Y-113752000D02*
G01*
X113722564Y-114426461D01*
X113722564Y-114848615D01*
X113722564Y-114951179D01*
X112717436Y-114951179D01*
X112717436Y-114848615D01*
X112717436Y-113966154D01*
X112820000Y-113966154D01*
X112820000Y-114426461D01*
X112826962Y-114514654D01*
X112847846Y-114594615D01*
X112882654Y-114666346D01*
X112931385Y-114729846D01*
X112991192Y-114781808D01*
X113059231Y-114818923D01*
X113135500Y-114841192D01*
X113220000Y-114848615D01*
X113304500Y-114841192D01*
X113380769Y-114818923D01*
X113448808Y-114781808D01*
X113508615Y-114729846D01*
X113557346Y-114666346D01*
X113592154Y-114594615D01*
X113613038Y-114514654D01*
X113620000Y-114426461D01*
X113620000Y-113966154D01*
X112820000Y-113966154D01*
X112717436Y-113966154D01*
X112717436Y-113064000D01*
X112820000Y-113064000D01*
X112820000Y-113115692D01*
X112832923Y-113189538D01*
X112879077Y-113246154D01*
X113286462Y-113624000D01*
X112820000Y-113624000D01*
X112820000Y-113832000D01*
X113537538Y-113832000D01*
X113599385Y-113812000D01*
X113620000Y-113752000D01*
X113620000Y-113708923D01*
X113605846Y-113644308D01*
X113552308Y-113585846D01*
X113106769Y-113173538D01*
X113620000Y-113173538D01*
X113620000Y-112964308D01*
X112911077Y-112964308D01*
X112842769Y-112989231D01*
X112820000Y-113064000D01*
X112717436Y-113064000D01*
X112717436Y-112400615D01*
X112820000Y-112400615D01*
X112820000Y-112828923D01*
X113025538Y-112828923D01*
X113025538Y-112385846D01*
X113039077Y-112308461D01*
X113079692Y-112246154D01*
X113141846Y-112205077D01*
X113220000Y-112191385D01*
X113297231Y-112205077D01*
X113359077Y-112246154D01*
X113399692Y-112308461D01*
X113413231Y-112385846D01*
X113413231Y-112624615D01*
X113303692Y-112624615D01*
X113303692Y-112364923D01*
X113132615Y-112364923D01*
X113132615Y-112828923D01*
X113620000Y-112828923D01*
X113620000Y-112400615D01*
X113613038Y-112312385D01*
X113592154Y-112232308D01*
X113557346Y-112160385D01*
X113508615Y-112096615D01*
X113448808Y-112044385D01*
X113380769Y-112007077D01*
X113304500Y-111984692D01*
X113220000Y-111977231D01*
X113135500Y-111984692D01*
X113059231Y-112007077D01*
X112991192Y-112044385D01*
X112931385Y-112096615D01*
X112882654Y-112160385D01*
X112847846Y-112232308D01*
X112826962Y-112312385D01*
X112820000Y-112400615D01*
X112717436Y-112400615D01*
X112717436Y-111977231D01*
X112717436Y-111874667D01*
X113722564Y-111874667D01*
X113722564Y-111977231D01*
X113722564Y-112828923D01*
X113722564Y-113752000D01*
G37*
D11*
%TO.C,J12*%
X113904404Y-111551904D02*
X113904404Y-110301904D01*
X115154404Y-111551904D02*
X115154404Y-110301904D01*
X116404404Y-111551904D02*
X116404404Y-110301904D01*
D10*
%TO.C,kibuzzard-68CD78F0*%
G36*
X106716256Y-120202564D02*
G01*
X106613692Y-120202564D01*
X106214923Y-120202564D01*
X105817385Y-120202564D01*
X104938615Y-120202564D01*
X104926308Y-120202564D01*
X104823744Y-120202564D01*
X104625713Y-119542462D01*
X104926308Y-119542462D01*
X104934308Y-119610017D01*
X104958308Y-119668274D01*
X104998308Y-119717231D01*
X105050889Y-119754154D01*
X105112632Y-119776308D01*
X105183538Y-119783692D01*
X105456769Y-119783692D01*
X105506000Y-119832923D01*
X105506000Y-119893231D01*
X104938615Y-119893231D01*
X104938615Y-120100000D01*
X105721385Y-120100000D01*
X105721385Y-119850154D01*
X105709263Y-119786154D01*
X105817385Y-119786154D01*
X106118923Y-119786154D01*
X106118923Y-119631077D01*
X105817385Y-119631077D01*
X105817385Y-119786154D01*
X105709263Y-119786154D01*
X105703231Y-119754308D01*
X105648769Y-119678462D01*
X105595983Y-119641880D01*
X105534444Y-119619932D01*
X105464154Y-119612615D01*
X105192154Y-119612615D01*
X105156462Y-119597846D01*
X105142923Y-119558462D01*
X105145932Y-119549846D01*
X106214923Y-119549846D01*
X106214923Y-120100000D01*
X106430308Y-120100000D01*
X106430308Y-119592923D01*
X106454308Y-119530769D01*
X106517692Y-119506769D01*
X106613692Y-119506769D01*
X106613692Y-119300000D01*
X106480769Y-119300000D01*
X106408154Y-119307726D01*
X106344564Y-119330906D01*
X106290000Y-119369538D01*
X106248291Y-119420479D01*
X106223265Y-119480581D01*
X106214923Y-119549846D01*
X105145932Y-119549846D01*
X105156462Y-119519692D01*
X105192154Y-119505538D01*
X105682000Y-119505538D01*
X105682000Y-119300000D01*
X105183538Y-119300000D01*
X105112632Y-119307521D01*
X105050889Y-119330085D01*
X104998308Y-119367692D01*
X104958308Y-119417197D01*
X104934308Y-119475453D01*
X104926308Y-119542462D01*
X104625713Y-119542462D01*
X104522205Y-119197436D01*
X104823744Y-119197436D01*
X104926308Y-119197436D01*
X106613692Y-119197436D01*
X106716256Y-119197436D01*
X107017795Y-119197436D01*
X106716256Y-120202564D01*
G37*
%TO.C,kibuzzard-68CD78BE*%
G36*
X107958410Y-118700000D02*
G01*
X108293453Y-119202564D01*
X107958410Y-119202564D01*
X107855846Y-119202564D01*
X107395538Y-119202564D01*
X105527231Y-119202564D01*
X104911846Y-119202564D01*
X103484154Y-119202564D01*
X103381590Y-119202564D01*
X103313214Y-119100000D01*
X103484154Y-119100000D01*
X103756154Y-119100000D01*
X103992462Y-118824308D01*
X104222615Y-119100000D01*
X104478615Y-119100000D01*
X104188895Y-118755385D01*
X104546308Y-118755385D01*
X104557726Y-118850838D01*
X104591983Y-118933709D01*
X104649077Y-119004000D01*
X104723949Y-119057333D01*
X104811538Y-119089333D01*
X104911846Y-119100000D01*
X105089077Y-119100000D01*
X105527231Y-119100000D01*
X105761077Y-119100000D01*
X105827538Y-118976923D01*
X106202923Y-118976923D01*
X106111846Y-118805846D01*
X105918615Y-118805846D01*
X106055231Y-118548615D01*
X106348154Y-119100000D01*
X106585692Y-119100000D01*
X106365094Y-118700000D01*
X106973385Y-118700000D01*
X106980808Y-118784500D01*
X107003077Y-118860769D01*
X107040192Y-118928808D01*
X107092154Y-118988615D01*
X107155654Y-119037346D01*
X107227385Y-119072154D01*
X107307346Y-119093038D01*
X107395538Y-119100000D01*
X107855846Y-119100000D01*
X107855846Y-118300000D01*
X107395538Y-118300000D01*
X107307346Y-118306962D01*
X107227385Y-118327846D01*
X107155654Y-118362654D01*
X107092154Y-118411385D01*
X107040192Y-118471192D01*
X107003077Y-118539231D01*
X106980808Y-118615500D01*
X106973385Y-118700000D01*
X106365094Y-118700000D01*
X106177077Y-118359077D01*
X106136462Y-118314769D01*
X106081077Y-118300000D01*
X106031846Y-118300000D01*
X105976462Y-118314769D01*
X105935846Y-118359077D01*
X105527231Y-119100000D01*
X105089077Y-119100000D01*
X105189385Y-119089333D01*
X105276974Y-119057333D01*
X105351846Y-119004000D01*
X105408940Y-118933709D01*
X105443197Y-118850838D01*
X105454615Y-118755385D01*
X105454615Y-118300000D01*
X105238000Y-118300000D01*
X105238000Y-118739385D01*
X105227231Y-118801692D01*
X105194923Y-118850769D01*
X105146000Y-118882615D01*
X105085385Y-118893231D01*
X104915538Y-118893231D01*
X104854923Y-118882615D01*
X104806000Y-118850769D01*
X104773692Y-118801692D01*
X104762923Y-118739385D01*
X104762923Y-118300000D01*
X104546308Y-118300000D01*
X104546308Y-118755385D01*
X104188895Y-118755385D01*
X104127846Y-118682769D01*
X104450308Y-118300000D01*
X104178308Y-118300000D01*
X103975231Y-118542462D01*
X103770923Y-118300000D01*
X103514923Y-118300000D01*
X103838615Y-118684000D01*
X103484154Y-119100000D01*
X103313214Y-119100000D01*
X103046547Y-118700000D01*
X103381590Y-118197436D01*
X103484154Y-118197436D01*
X107855846Y-118197436D01*
X107958410Y-118197436D01*
X108293453Y-118197436D01*
X107958410Y-118700000D01*
G37*
G36*
X107640462Y-118893231D02*
G01*
X107380769Y-118893231D01*
X107303692Y-118879692D01*
X107242308Y-118839077D01*
X107202154Y-118777231D01*
X107188769Y-118700000D01*
X107202154Y-118621846D01*
X107242308Y-118559692D01*
X107303692Y-118519077D01*
X107380769Y-118505538D01*
X107640462Y-118505538D01*
X107640462Y-118893231D01*
G37*
%TO.C,kibuzzard-68CD78A4*%
G36*
X102272564Y-121209231D02*
G01*
X102272564Y-125590769D01*
X102272564Y-126052308D01*
X101267436Y-126052308D01*
X101267436Y-125590769D01*
X101683846Y-125590769D01*
X101838923Y-125590769D01*
X101838923Y-125289231D01*
X101683846Y-125289231D01*
X101683846Y-125590769D01*
X101267436Y-125590769D01*
X101267436Y-125289231D01*
X101267436Y-123881231D01*
X101370000Y-123881231D01*
X101576769Y-123881231D01*
X101576769Y-123283077D01*
X101590923Y-123244923D01*
X101630923Y-123230154D01*
X101671538Y-123244923D01*
X101686308Y-123283077D01*
X101686308Y-123635077D01*
X101693761Y-123705299D01*
X101716120Y-123766632D01*
X101753385Y-123819077D01*
X101802547Y-123859077D01*
X101860598Y-123883077D01*
X101927538Y-123891077D01*
X101995162Y-123883077D01*
X102053624Y-123859077D01*
X102102923Y-123819077D01*
X102140188Y-123766632D01*
X102162547Y-123705299D01*
X102170000Y-123635077D01*
X102170000Y-123027077D01*
X101964462Y-123027077D01*
X101964462Y-123625231D01*
X101950923Y-123662769D01*
X101911538Y-123676923D01*
X101872154Y-123662769D01*
X101857385Y-123625231D01*
X101857385Y-123273231D01*
X101849863Y-123202325D01*
X101827299Y-123140581D01*
X101789692Y-123088000D01*
X101740188Y-123048000D01*
X101681932Y-123024000D01*
X101614923Y-123016000D01*
X101546547Y-123024000D01*
X101487470Y-123048000D01*
X101437692Y-123088000D01*
X101400085Y-123140581D01*
X101377521Y-123202325D01*
X101370000Y-123273231D01*
X101370000Y-123881231D01*
X101267436Y-123881231D01*
X101267436Y-123273231D01*
X101267436Y-121604308D01*
X101454923Y-121604308D01*
X101698615Y-121604308D01*
X101698615Y-121844308D01*
X101854923Y-121844308D01*
X101854923Y-121604308D01*
X102097385Y-121604308D01*
X102097385Y-121448000D01*
X101854923Y-121448000D01*
X101854923Y-121209231D01*
X101698615Y-121209231D01*
X101698615Y-121448000D01*
X101454923Y-121448000D01*
X101454923Y-121604308D01*
X101267436Y-121604308D01*
X101267436Y-121448000D01*
X101267436Y-121209231D01*
X101267436Y-120747692D01*
X102272564Y-120747692D01*
X102272564Y-121209231D01*
G37*
%TO.C,kibuzzard-68CD787F*%
G36*
X103222564Y-121038974D02*
G01*
X103222564Y-121141538D01*
X103222564Y-125658462D01*
X103222564Y-125761026D01*
X102217436Y-126062564D01*
X102217436Y-125761026D01*
X102217436Y-125658462D01*
X102217436Y-124833846D01*
X102320000Y-124833846D01*
X102443077Y-124900308D01*
X102443077Y-125275692D01*
X102614154Y-125184615D01*
X102614154Y-124991385D01*
X102871385Y-125128000D01*
X102320000Y-125420923D01*
X102320000Y-125658462D01*
X103060923Y-125249846D01*
X103105231Y-125209231D01*
X103120000Y-125153846D01*
X103120000Y-125104615D01*
X103105231Y-125049231D01*
X103060923Y-125008615D01*
X102320000Y-124600000D01*
X102320000Y-124833846D01*
X102217436Y-124833846D01*
X102217436Y-124600000D01*
X102217436Y-123418462D01*
X102320000Y-123418462D01*
X102443077Y-123484923D01*
X102443077Y-123860308D01*
X102614154Y-123769231D01*
X102614154Y-123576000D01*
X102871385Y-123712615D01*
X102320000Y-124005538D01*
X102320000Y-124243077D01*
X103060923Y-123834462D01*
X103105231Y-123793846D01*
X103120000Y-123738462D01*
X103120000Y-123689231D01*
X103105231Y-123633846D01*
X103060923Y-123593231D01*
X102320000Y-123184615D01*
X102320000Y-123418462D01*
X102217436Y-123418462D01*
X102217436Y-123184615D01*
X102217436Y-122746462D01*
X102320000Y-122746462D01*
X102330667Y-122846769D01*
X102362667Y-122934359D01*
X102416000Y-123009231D01*
X102486291Y-123066325D01*
X102569162Y-123100581D01*
X102664615Y-123112000D01*
X103120000Y-123112000D01*
X103120000Y-122895385D01*
X102680615Y-122895385D01*
X102618308Y-122884615D01*
X102569231Y-122852308D01*
X102537385Y-122803385D01*
X102526769Y-122742769D01*
X102526769Y-122572923D01*
X102537385Y-122512308D01*
X102569231Y-122463385D01*
X102618308Y-122431077D01*
X102680615Y-122420308D01*
X103120000Y-122420308D01*
X103120000Y-122203692D01*
X102664615Y-122203692D01*
X102569162Y-122215111D01*
X102486291Y-122249368D01*
X102416000Y-122306462D01*
X102362667Y-122381333D01*
X102330667Y-122468923D01*
X102320000Y-122569231D01*
X102320000Y-122746462D01*
X102217436Y-122746462D01*
X102217436Y-122569231D01*
X102217436Y-121413538D01*
X102320000Y-121413538D01*
X102595692Y-121649846D01*
X102320000Y-121880000D01*
X102320000Y-122136000D01*
X102737231Y-121785231D01*
X103120000Y-122107692D01*
X103120000Y-121835692D01*
X102877538Y-121632615D01*
X103120000Y-121428308D01*
X103120000Y-121172308D01*
X102736000Y-121496000D01*
X102320000Y-121141538D01*
X102320000Y-121413538D01*
X102217436Y-121413538D01*
X102217436Y-121141538D01*
X102217436Y-121038974D01*
X102217436Y-120737436D01*
X103222564Y-121038974D01*
G37*
%TO.C,kibuzzard-68CD784B*%
G36*
X117072564Y-137060154D02*
G01*
X117072564Y-139750615D01*
X117072564Y-140007846D01*
X117072564Y-140418103D01*
X116067436Y-140418103D01*
X116067436Y-140007846D01*
X116067436Y-139388769D01*
X116170000Y-139388769D01*
X116170000Y-139996769D01*
X116375538Y-139996769D01*
X116375538Y-139398615D01*
X116389077Y-139361077D01*
X116428462Y-139346923D01*
X116467846Y-139361077D01*
X116482615Y-139398615D01*
X116482615Y-139750615D01*
X116490137Y-139821521D01*
X116512701Y-139883265D01*
X116550308Y-139935846D01*
X116599812Y-139975846D01*
X116658068Y-139999846D01*
X116725077Y-140007846D01*
X116793453Y-139999846D01*
X116852530Y-139975846D01*
X116902308Y-139935846D01*
X116939915Y-139883265D01*
X116962479Y-139821521D01*
X116970000Y-139750615D01*
X116970000Y-139142615D01*
X116763231Y-139142615D01*
X116763231Y-139740769D01*
X116749077Y-139778923D01*
X116709077Y-139793692D01*
X116668462Y-139778923D01*
X116653692Y-139740769D01*
X116653692Y-139388769D01*
X116646239Y-139318547D01*
X116623880Y-139257214D01*
X116586615Y-139204769D01*
X116537453Y-139164769D01*
X116479402Y-139140769D01*
X116412462Y-139132769D01*
X116344838Y-139140769D01*
X116286376Y-139164769D01*
X116237077Y-139204769D01*
X116199812Y-139257214D01*
X116177453Y-139318547D01*
X116170000Y-139388769D01*
X116067436Y-139388769D01*
X116067436Y-136903846D01*
X116242615Y-136903846D01*
X116242615Y-137060154D01*
X116485077Y-137060154D01*
X116485077Y-137298923D01*
X116641385Y-137298923D01*
X116641385Y-137060154D01*
X116885077Y-137060154D01*
X116885077Y-136903846D01*
X116641385Y-136903846D01*
X116641385Y-136663846D01*
X116485077Y-136663846D01*
X116485077Y-136903846D01*
X116242615Y-136903846D01*
X116067436Y-136903846D01*
X116067436Y-134199846D01*
X116501077Y-134199846D01*
X116501077Y-134501385D01*
X116656154Y-134501385D01*
X116656154Y-134199846D01*
X116501077Y-134199846D01*
X116067436Y-134199846D01*
X116067436Y-133481897D01*
X117072564Y-133481897D01*
X117072564Y-134199846D01*
X117072564Y-134501385D01*
X117072564Y-137060154D01*
G37*
%TO.C,kibuzzard-68CD76C6*%
G36*
X102972564Y-129161538D02*
G01*
X102972564Y-134638462D01*
X102972564Y-135202564D01*
X101967436Y-135202564D01*
X101967436Y-134638462D01*
X101967436Y-134628615D01*
X102070000Y-134628615D01*
X102276769Y-134628615D01*
X102276769Y-134030462D01*
X102290923Y-133992308D01*
X102330923Y-133977538D01*
X102371538Y-133992308D01*
X102386308Y-134030462D01*
X102386308Y-134382462D01*
X102393761Y-134452684D01*
X102416120Y-134514017D01*
X102453385Y-134566462D01*
X102502547Y-134606462D01*
X102560598Y-134630462D01*
X102627538Y-134638462D01*
X102695162Y-134630462D01*
X102753624Y-134606462D01*
X102802923Y-134566462D01*
X102840188Y-134514017D01*
X102862547Y-134452684D01*
X102870000Y-134382462D01*
X102870000Y-133774462D01*
X102664462Y-133774462D01*
X102664462Y-134372615D01*
X102650923Y-134410154D01*
X102611538Y-134424308D01*
X102572154Y-134410154D01*
X102557385Y-134372615D01*
X102557385Y-134020615D01*
X102549863Y-133949709D01*
X102527299Y-133887966D01*
X102489692Y-133835385D01*
X102440188Y-133795385D01*
X102381932Y-133771385D01*
X102314923Y-133763385D01*
X102246547Y-133771385D01*
X102187470Y-133795385D01*
X102137692Y-133835385D01*
X102100085Y-133887966D01*
X102077521Y-133949709D01*
X102070000Y-134020615D01*
X102070000Y-134628615D01*
X101967436Y-134628615D01*
X101967436Y-134020615D01*
X101967436Y-131689538D01*
X102154923Y-131689538D01*
X102398615Y-131689538D01*
X102398615Y-131929538D01*
X102554923Y-131929538D01*
X102554923Y-131689538D01*
X102797385Y-131689538D01*
X102797385Y-131533231D01*
X102554923Y-131533231D01*
X102554923Y-131294462D01*
X102398615Y-131294462D01*
X102398615Y-131533231D01*
X102154923Y-131533231D01*
X102154923Y-131689538D01*
X101967436Y-131689538D01*
X101967436Y-131533231D01*
X101967436Y-129463077D01*
X102383846Y-129463077D01*
X102538923Y-129463077D01*
X102538923Y-129161538D01*
X102383846Y-129161538D01*
X102383846Y-129463077D01*
X101967436Y-129463077D01*
X101967436Y-129161538D01*
X101967436Y-128597436D01*
X102972564Y-128597436D01*
X102972564Y-129161538D01*
G37*
%TO.C,kibuzzard-68CD769D*%
G36*
X115647231Y-138040615D02*
G01*
X115709077Y-138081692D01*
X115749692Y-138144000D01*
X115763231Y-138221385D01*
X115763231Y-138366615D01*
X115749692Y-138443846D01*
X115709077Y-138505692D01*
X115647231Y-138546308D01*
X115570000Y-138559846D01*
X115491846Y-138546308D01*
X115429692Y-138505692D01*
X115389077Y-138443846D01*
X115375538Y-138366615D01*
X115375538Y-138221385D01*
X115389077Y-138144000D01*
X115429692Y-138081692D01*
X115491846Y-138040615D01*
X115570000Y-138026923D01*
X115647231Y-138040615D01*
G37*
G36*
X116072564Y-135647846D02*
G01*
X116072564Y-136679231D01*
X116072564Y-137254000D01*
X116072564Y-138351846D01*
X116072564Y-139990000D01*
X116072564Y-140002308D01*
X116072564Y-140104872D01*
X116072564Y-140406410D01*
X115067436Y-140104872D01*
X115067436Y-140002308D01*
X115067436Y-139246615D01*
X115170000Y-139246615D01*
X115170000Y-139745077D01*
X115177521Y-139815983D01*
X115200085Y-139877726D01*
X115237692Y-139930308D01*
X115287197Y-139970308D01*
X115345453Y-139994308D01*
X115412462Y-140002308D01*
X115480017Y-139994308D01*
X115538274Y-139970308D01*
X115587231Y-139930308D01*
X115624154Y-139877726D01*
X115646308Y-139815983D01*
X115653692Y-139745077D01*
X115653692Y-139471846D01*
X115702923Y-139422615D01*
X115763231Y-139422615D01*
X115763231Y-139990000D01*
X115970000Y-139990000D01*
X115970000Y-139207231D01*
X115720154Y-139207231D01*
X115624308Y-139225385D01*
X115548462Y-139279846D01*
X115511880Y-139332632D01*
X115489932Y-139394171D01*
X115482615Y-139464462D01*
X115482615Y-139736462D01*
X115467846Y-139772154D01*
X115428462Y-139785692D01*
X115389692Y-139772154D01*
X115375538Y-139736462D01*
X115375538Y-139246615D01*
X115170000Y-139246615D01*
X115067436Y-139246615D01*
X115067436Y-138236154D01*
X115170000Y-138236154D01*
X115170000Y-138351846D01*
X115176962Y-138440038D01*
X115197846Y-138520000D01*
X115232654Y-138591731D01*
X115281385Y-138655231D01*
X115341192Y-138707192D01*
X115409231Y-138744308D01*
X115485500Y-138766577D01*
X115570000Y-138774000D01*
X115654500Y-138766577D01*
X115730769Y-138744308D01*
X115798808Y-138707192D01*
X115858615Y-138655231D01*
X115907346Y-138591731D01*
X115942154Y-138520000D01*
X115963038Y-138440038D01*
X115970000Y-138351846D01*
X115970000Y-138236154D01*
X115963038Y-138147923D01*
X115942154Y-138067846D01*
X115907346Y-137995923D01*
X115858615Y-137932154D01*
X115798808Y-137879923D01*
X115730769Y-137842615D01*
X115654500Y-137820231D01*
X115570000Y-137812769D01*
X115485500Y-137820231D01*
X115409231Y-137842615D01*
X115341192Y-137879923D01*
X115281385Y-137932154D01*
X115232654Y-137995923D01*
X115197846Y-138067846D01*
X115176962Y-138147923D01*
X115170000Y-138236154D01*
X115067436Y-138236154D01*
X115067436Y-136700154D01*
X115170000Y-136700154D01*
X115170000Y-136942615D01*
X115711538Y-137229385D01*
X115170000Y-137516154D01*
X115170000Y-137758615D01*
X115910923Y-137348769D01*
X115955231Y-137309077D01*
X115970000Y-137254000D01*
X115970000Y-137204769D01*
X115955231Y-137148154D01*
X115910923Y-137108769D01*
X115170000Y-136700154D01*
X115067436Y-136700154D01*
X115067436Y-135773385D01*
X115170000Y-135773385D01*
X115170000Y-136324769D01*
X115179231Y-136411880D01*
X115206923Y-136487778D01*
X115253077Y-136552462D01*
X115314000Y-136601692D01*
X115386000Y-136631231D01*
X115469077Y-136641077D01*
X115553846Y-136630154D01*
X115628462Y-136597385D01*
X115689846Y-136545538D01*
X115734923Y-136477385D01*
X115970000Y-136679231D01*
X115970000Y-136398615D01*
X115766923Y-136238615D01*
X115766923Y-136049077D01*
X115579846Y-136049077D01*
X115579846Y-136324769D01*
X115551538Y-136397385D01*
X115477692Y-136425692D01*
X115403846Y-136397385D01*
X115375538Y-136324769D01*
X115375538Y-135987538D01*
X115970000Y-135987538D01*
X115970000Y-135773385D01*
X115170000Y-135773385D01*
X115067436Y-135773385D01*
X115067436Y-134878615D01*
X115170000Y-134878615D01*
X115170000Y-135646615D01*
X115375538Y-135646615D01*
X115375538Y-135165385D01*
X115482615Y-135165385D01*
X115482615Y-135638000D01*
X115653692Y-135638000D01*
X115653692Y-135165385D01*
X115482615Y-135165385D01*
X115375538Y-135165385D01*
X115375538Y-135094000D01*
X115763231Y-135094000D01*
X115763231Y-135638000D01*
X115763231Y-135647846D01*
X115970000Y-135647846D01*
X115970000Y-134878615D01*
X115170000Y-134878615D01*
X115067436Y-134878615D01*
X115067436Y-134153692D01*
X115170000Y-134153692D01*
X115170000Y-134761692D01*
X115375538Y-134761692D01*
X115375538Y-134163538D01*
X115389077Y-134126000D01*
X115428462Y-134111846D01*
X115467846Y-134126000D01*
X115482615Y-134163538D01*
X115482615Y-134515538D01*
X115490137Y-134586444D01*
X115512701Y-134648188D01*
X115550308Y-134700769D01*
X115599812Y-134740769D01*
X115658068Y-134764769D01*
X115725077Y-134772769D01*
X115793453Y-134764769D01*
X115852530Y-134740769D01*
X115902308Y-134700769D01*
X115939915Y-134648188D01*
X115962479Y-134586444D01*
X115970000Y-134515538D01*
X115970000Y-133907538D01*
X115763231Y-133907538D01*
X115763231Y-134505692D01*
X115749077Y-134543846D01*
X115709077Y-134558615D01*
X115668462Y-134543846D01*
X115653692Y-134505692D01*
X115653692Y-134153692D01*
X115646239Y-134083470D01*
X115623880Y-134022137D01*
X115586615Y-133969692D01*
X115537453Y-133929692D01*
X115479402Y-133905692D01*
X115412462Y-133897692D01*
X115344838Y-133905692D01*
X115286376Y-133929692D01*
X115237077Y-133969692D01*
X115199812Y-134022137D01*
X115177453Y-134083470D01*
X115170000Y-134153692D01*
X115067436Y-134153692D01*
X115067436Y-133897692D01*
X115067436Y-133795128D01*
X116072564Y-133493590D01*
X116072564Y-133795128D01*
X116072564Y-133897692D01*
X116072564Y-134515538D01*
X116072564Y-135647846D01*
G37*
%TO.C,kibuzzard-68CD7642*%
G36*
X103972564Y-128961128D02*
G01*
X103972564Y-129063692D01*
X103972564Y-134736308D01*
X103972564Y-134838872D01*
X102967436Y-135140410D01*
X102967436Y-134838872D01*
X102967436Y-134736308D01*
X102967436Y-134726462D01*
X103070000Y-134726462D01*
X103276769Y-134726462D01*
X103276769Y-134128308D01*
X103290923Y-134090154D01*
X103330923Y-134075385D01*
X103371538Y-134090154D01*
X103386308Y-134128308D01*
X103386308Y-134480308D01*
X103393761Y-134550530D01*
X103416120Y-134611863D01*
X103453385Y-134664308D01*
X103502547Y-134704308D01*
X103560598Y-134728308D01*
X103627538Y-134736308D01*
X103695162Y-134728308D01*
X103753624Y-134704308D01*
X103802923Y-134664308D01*
X103840188Y-134611863D01*
X103862547Y-134550530D01*
X103870000Y-134480308D01*
X103870000Y-133872308D01*
X103664462Y-133872308D01*
X103664462Y-134470462D01*
X103650923Y-134508000D01*
X103611538Y-134522154D01*
X103572154Y-134508000D01*
X103557385Y-134470462D01*
X103557385Y-134118462D01*
X103549863Y-134047556D01*
X103527299Y-133985812D01*
X103489692Y-133933231D01*
X103440188Y-133893231D01*
X103381932Y-133869231D01*
X103314923Y-133861231D01*
X103246547Y-133869231D01*
X103187470Y-133893231D01*
X103137692Y-133933231D01*
X103100085Y-133985812D01*
X103077521Y-134047556D01*
X103070000Y-134118462D01*
X103070000Y-134726462D01*
X102967436Y-134726462D01*
X102967436Y-134118462D01*
X102967436Y-133755385D01*
X103070000Y-133755385D01*
X103870000Y-133755385D01*
X103870000Y-132987385D01*
X103664462Y-132987385D01*
X103664462Y-133540000D01*
X103276769Y-133540000D01*
X103276769Y-133468615D01*
X103386308Y-133468615D01*
X103557385Y-133468615D01*
X103557385Y-132996000D01*
X103386308Y-132996000D01*
X103386308Y-133468615D01*
X103276769Y-133468615D01*
X103276769Y-132996000D01*
X103276769Y-132986154D01*
X103070000Y-132986154D01*
X103070000Y-133755385D01*
X102967436Y-133755385D01*
X102967436Y-132986154D01*
X102967436Y-132235385D01*
X103070000Y-132235385D01*
X103273077Y-132395385D01*
X103273077Y-132584923D01*
X103460154Y-132584923D01*
X103460154Y-132309231D01*
X103488462Y-132236615D01*
X103562308Y-132208308D01*
X103636154Y-132236615D01*
X103664462Y-132309231D01*
X103664462Y-132646462D01*
X103070000Y-132646462D01*
X103070000Y-132860615D01*
X103870000Y-132860615D01*
X103870000Y-132309231D01*
X103860769Y-132222120D01*
X103833077Y-132146222D01*
X103786923Y-132081538D01*
X103726000Y-132032308D01*
X103654000Y-132002769D01*
X103570923Y-131992923D01*
X103486154Y-132003846D01*
X103411538Y-132036615D01*
X103350154Y-132088462D01*
X103305077Y-132156615D01*
X103070000Y-131954769D01*
X103070000Y-132235385D01*
X102967436Y-132235385D01*
X102967436Y-131954769D01*
X102967436Y-131429231D01*
X103070000Y-131429231D01*
X103084769Y-131485846D01*
X103129077Y-131525231D01*
X103870000Y-131933846D01*
X103870000Y-131691385D01*
X103328462Y-131404615D01*
X103870000Y-131117846D01*
X103870000Y-130875385D01*
X103129077Y-131285231D01*
X103084769Y-131324923D01*
X103070000Y-131380000D01*
X103070000Y-131429231D01*
X102967436Y-131429231D01*
X102967436Y-131380000D01*
X102967436Y-130397846D01*
X103070000Y-130397846D01*
X103076962Y-130486077D01*
X103097846Y-130566154D01*
X103132654Y-130638077D01*
X103181385Y-130701846D01*
X103241192Y-130754077D01*
X103309231Y-130791385D01*
X103385500Y-130813769D01*
X103470000Y-130821231D01*
X103554500Y-130813769D01*
X103630769Y-130791385D01*
X103698808Y-130754077D01*
X103758615Y-130701846D01*
X103807346Y-130638077D01*
X103842154Y-130566154D01*
X103863038Y-130486077D01*
X103870000Y-130397846D01*
X103870000Y-130282154D01*
X103863038Y-130193962D01*
X103842154Y-130114000D01*
X103807346Y-130042269D01*
X103758615Y-129978769D01*
X103698808Y-129926808D01*
X103630769Y-129889692D01*
X103554500Y-129867423D01*
X103470000Y-129860000D01*
X103385500Y-129867423D01*
X103309231Y-129889692D01*
X103241192Y-129926808D01*
X103181385Y-129978769D01*
X103132654Y-130042269D01*
X103097846Y-130114000D01*
X103076962Y-130193962D01*
X103070000Y-130282154D01*
X103070000Y-130397846D01*
X102967436Y-130397846D01*
X102967436Y-130282154D01*
X102967436Y-129279077D01*
X103070000Y-129279077D01*
X103577077Y-129279077D01*
X103639231Y-129303077D01*
X103663231Y-129366462D01*
X103663231Y-129462462D01*
X103870000Y-129462462D01*
X103870000Y-129329538D01*
X103862274Y-129256923D01*
X103839094Y-129193333D01*
X103800462Y-129138769D01*
X103749521Y-129097060D01*
X103689419Y-129072034D01*
X103620154Y-129063692D01*
X103070000Y-129063692D01*
X103070000Y-129279077D01*
X102967436Y-129279077D01*
X102967436Y-129063692D01*
X102967436Y-128961128D01*
X102967436Y-128659590D01*
X103972564Y-128961128D01*
G37*
G36*
X103548154Y-130087692D02*
G01*
X103610308Y-130128308D01*
X103650923Y-130190154D01*
X103664462Y-130267385D01*
X103664462Y-130412615D01*
X103650923Y-130490000D01*
X103610308Y-130552308D01*
X103548154Y-130593385D01*
X103470000Y-130607077D01*
X103392769Y-130593385D01*
X103330923Y-130552308D01*
X103290308Y-130490000D01*
X103276769Y-130412615D01*
X103276769Y-130267385D01*
X103290308Y-130190154D01*
X103330923Y-130128308D01*
X103392769Y-130087692D01*
X103470000Y-130074154D01*
X103548154Y-130087692D01*
G37*
%TO.C,kibuzzard-68CD71AA*%
G36*
X104094556Y-137122909D02*
G01*
X103793018Y-137122909D01*
X103690454Y-137122909D01*
X102481838Y-137122909D01*
X102043684Y-137122909D01*
X101941120Y-137122909D01*
X101639582Y-137122909D01*
X101835397Y-136470191D01*
X102043684Y-136470191D01*
X102043684Y-137020345D01*
X102259069Y-137020345D01*
X102481838Y-137020345D01*
X102695992Y-137020345D01*
X102814146Y-136505883D01*
X102953223Y-136944037D01*
X102989531Y-137001268D01*
X103054146Y-137020345D01*
X103119377Y-137020345D01*
X103183992Y-137001268D01*
X103220300Y-136944037D01*
X103359377Y-136497268D01*
X103477531Y-137020345D01*
X103690454Y-137020345D01*
X103527992Y-136311422D01*
X103492607Y-136243114D01*
X103423377Y-136220345D01*
X103333531Y-136220345D01*
X103268607Y-136239730D01*
X103231377Y-136297883D01*
X103086146Y-136776653D01*
X102942146Y-136297883D01*
X102905223Y-136239730D01*
X102841223Y-136220345D01*
X102751377Y-136220345D01*
X102681838Y-136243114D01*
X102645531Y-136311422D01*
X102481838Y-137020345D01*
X102259069Y-137020345D01*
X102259069Y-136513268D01*
X102283069Y-136451114D01*
X102346454Y-136427114D01*
X102442454Y-136427114D01*
X102442454Y-136220345D01*
X102309531Y-136220345D01*
X102236915Y-136228071D01*
X102173325Y-136251251D01*
X102118761Y-136289883D01*
X102077052Y-136340824D01*
X102052026Y-136400926D01*
X102043684Y-136470191D01*
X101835397Y-136470191D01*
X101941120Y-136117781D01*
X102043684Y-136117781D01*
X103690454Y-136117781D01*
X103793018Y-136117781D01*
X104094556Y-137122909D01*
G37*
%TO.C,kibuzzard-68CD75CA*%
G36*
X104095378Y-138175812D02*
G01*
X103390250Y-138175812D01*
X103013327Y-138175812D01*
X100642558Y-138175812D01*
X100344096Y-138175812D01*
X99638968Y-138175812D01*
X99638968Y-137547606D01*
X100344096Y-137547606D01*
X100344096Y-137742991D01*
X100642558Y-137742991D01*
X100642558Y-138047606D01*
X100837942Y-138047606D01*
X100837942Y-137761453D01*
X103013327Y-137761453D01*
X103390250Y-137761453D01*
X103390250Y-137567606D01*
X103013327Y-137567606D01*
X103013327Y-137761453D01*
X100837942Y-137761453D01*
X100837942Y-137742991D01*
X101137942Y-137742991D01*
X101137942Y-137547606D01*
X100837942Y-137547606D01*
X100837942Y-137244530D01*
X100642558Y-137244530D01*
X100642558Y-137547606D01*
X100344096Y-137547606D01*
X99638968Y-137547606D01*
X99638968Y-137116324D01*
X100344096Y-137116324D01*
X103390250Y-137116324D01*
X104095378Y-137116324D01*
X104095378Y-138175812D01*
G37*
G36*
X109209528Y-138172985D02*
G01*
X108504400Y-138172985D01*
X108127477Y-138172985D01*
X105756708Y-138172985D01*
X105458246Y-138172985D01*
X104753118Y-138172985D01*
X104753118Y-137544779D01*
X105458246Y-137544779D01*
X105458246Y-137740164D01*
X105756708Y-137740164D01*
X105756708Y-138044779D01*
X105952092Y-138044779D01*
X105952092Y-137758626D01*
X108127477Y-137758626D01*
X108504400Y-137758626D01*
X108504400Y-137564779D01*
X108127477Y-137564779D01*
X108127477Y-137758626D01*
X105952092Y-137758626D01*
X105952092Y-137740164D01*
X106252092Y-137740164D01*
X106252092Y-137544779D01*
X105952092Y-137544779D01*
X105952092Y-137241703D01*
X105756708Y-137241703D01*
X105756708Y-137544779D01*
X105458246Y-137544779D01*
X104753118Y-137544779D01*
X104753118Y-137113497D01*
X105458246Y-137113497D01*
X108504400Y-137113497D01*
X109209528Y-137113497D01*
X109209528Y-138172985D01*
G37*
%TO.C,kibuzzard-68CD7254*%
G36*
X109206724Y-137108150D02*
G01*
X108905186Y-137108150D01*
X108802622Y-137108150D01*
X107594006Y-137108150D01*
X106736160Y-137108150D01*
X106723852Y-137108150D01*
X106621288Y-137108150D01*
X106319750Y-137108150D01*
X106517780Y-136448048D01*
X106723852Y-136448048D01*
X106731852Y-136515603D01*
X106755852Y-136573860D01*
X106795852Y-136622817D01*
X106848434Y-136659740D01*
X106910177Y-136681894D01*
X106981083Y-136689278D01*
X107254314Y-136689278D01*
X107303545Y-136738509D01*
X107303545Y-136798817D01*
X106736160Y-136798817D01*
X106736160Y-137005586D01*
X107518929Y-137005586D01*
X107594006Y-137005586D01*
X107808160Y-137005586D01*
X107926314Y-136491124D01*
X108065391Y-136929278D01*
X108101699Y-136986509D01*
X108166314Y-137005586D01*
X108231545Y-137005586D01*
X108296160Y-136986509D01*
X108332468Y-136929278D01*
X108471545Y-136482509D01*
X108589699Y-137005586D01*
X108802622Y-137005586D01*
X108640160Y-136296663D01*
X108604775Y-136228355D01*
X108535545Y-136205586D01*
X108445699Y-136205586D01*
X108380775Y-136224971D01*
X108343545Y-136283124D01*
X108198314Y-136761894D01*
X108054314Y-136283124D01*
X108017391Y-136224971D01*
X107953391Y-136205586D01*
X107863545Y-136205586D01*
X107794006Y-136228355D01*
X107757699Y-136296663D01*
X107594006Y-137005586D01*
X107518929Y-137005586D01*
X107518929Y-136755740D01*
X107500775Y-136659894D01*
X107446314Y-136584048D01*
X107393528Y-136547466D01*
X107331989Y-136525518D01*
X107261699Y-136518201D01*
X106989699Y-136518201D01*
X106954006Y-136503432D01*
X106940468Y-136464048D01*
X106954006Y-136425278D01*
X106989699Y-136411124D01*
X107479545Y-136411124D01*
X107479545Y-136205586D01*
X106981083Y-136205586D01*
X106910177Y-136213107D01*
X106848434Y-136235671D01*
X106795852Y-136273278D01*
X106755852Y-136322783D01*
X106731852Y-136381039D01*
X106723852Y-136448048D01*
X106517780Y-136448048D01*
X106621288Y-136103022D01*
X106723852Y-136103022D01*
X108802622Y-136103022D01*
X108905186Y-136103022D01*
X109206724Y-137108150D01*
G37*
%TO.C,kibuzzard-68CD75CA*%
G36*
X114241929Y-138178219D02*
G01*
X113536801Y-138178219D01*
X113159878Y-138178219D01*
X110789109Y-138178219D01*
X110490647Y-138178219D01*
X109785519Y-138178219D01*
X109785519Y-137550013D01*
X110490647Y-137550013D01*
X110490647Y-137745398D01*
X110789109Y-137745398D01*
X110789109Y-138050013D01*
X110984493Y-138050013D01*
X110984493Y-137763860D01*
X113159878Y-137763860D01*
X113536801Y-137763860D01*
X113536801Y-137570013D01*
X113159878Y-137570013D01*
X113159878Y-137763860D01*
X110984493Y-137763860D01*
X110984493Y-137745398D01*
X111284493Y-137745398D01*
X111284493Y-137550013D01*
X110984493Y-137550013D01*
X110984493Y-137246937D01*
X110789109Y-137246937D01*
X110789109Y-137550013D01*
X110490647Y-137550013D01*
X109785519Y-137550013D01*
X109785519Y-137118731D01*
X110490647Y-137118731D01*
X113536801Y-137118731D01*
X114241929Y-137118731D01*
X114241929Y-138178219D01*
G37*
%TO.C,kibuzzard-68CD725D*%
G36*
X114240134Y-137121254D02*
G01*
X113938596Y-137121254D01*
X113836032Y-137121254D01*
X112627416Y-137121254D01*
X111998493Y-137121254D01*
X111731416Y-137121254D01*
X111628852Y-137121254D01*
X111327314Y-137121254D01*
X111428606Y-136783613D01*
X111731416Y-136783613D01*
X111748955Y-136881459D01*
X111801570Y-136955921D01*
X111854630Y-136990793D01*
X111920271Y-137011716D01*
X111998493Y-137018690D01*
X112576955Y-137018690D01*
X112627416Y-137018690D01*
X112841570Y-137018690D01*
X112959724Y-136504228D01*
X113098801Y-136942382D01*
X113135109Y-136999613D01*
X113199724Y-137018690D01*
X113264955Y-137018690D01*
X113329570Y-136999613D01*
X113365878Y-136942382D01*
X113504955Y-136495613D01*
X113623109Y-137018690D01*
X113836032Y-137018690D01*
X113673570Y-136309767D01*
X113638186Y-136241459D01*
X113568955Y-136218690D01*
X113479109Y-136218690D01*
X113414186Y-136238075D01*
X113376955Y-136296228D01*
X113231724Y-136774998D01*
X113087724Y-136296228D01*
X113050801Y-136238075D01*
X112986801Y-136218690D01*
X112896955Y-136218690D01*
X112827416Y-136241459D01*
X112791109Y-136309767D01*
X112627416Y-137018690D01*
X112576955Y-137018690D01*
X112576955Y-136818075D01*
X112008339Y-136818075D01*
X111961262Y-136803613D01*
X111945570Y-136760228D01*
X111962186Y-136714075D01*
X112008339Y-136697459D01*
X112568339Y-136697459D01*
X112568339Y-136532536D01*
X112020647Y-136532536D01*
X111977262Y-136518075D01*
X111962801Y-136474690D01*
X111977262Y-136432228D01*
X112020647Y-136418075D01*
X112576955Y-136418075D01*
X112576955Y-136218690D01*
X111992339Y-136218690D01*
X111886339Y-136232998D01*
X111812032Y-136275921D01*
X111768186Y-136342844D01*
X111753570Y-136429152D01*
X111759416Y-136487305D01*
X111776955Y-136536228D01*
X111842186Y-136596536D01*
X111797570Y-136619921D01*
X111762186Y-136660536D01*
X111739109Y-136715921D01*
X111731416Y-136783613D01*
X111428606Y-136783613D01*
X111628852Y-136116126D01*
X111731416Y-136116126D01*
X113836032Y-136116126D01*
X113938596Y-136116126D01*
X114240134Y-137121254D01*
G37*
%TO.C,kibuzzard-68CD6E18*%
G36*
X117098205Y-130599231D02*
G01*
X117098205Y-130936154D01*
X117098205Y-131128462D01*
X117098205Y-131505385D01*
X115841795Y-131128462D01*
X115841795Y-130936154D01*
X115841795Y-129425385D01*
X115970000Y-129425385D01*
X115970000Y-129691538D01*
X116613077Y-129839231D01*
X116065385Y-130013077D01*
X115993846Y-130059231D01*
X115970000Y-130139231D01*
X115970000Y-130220769D01*
X115993846Y-130301538D01*
X116065385Y-130346923D01*
X116623846Y-130520769D01*
X115970000Y-130668462D01*
X115970000Y-130936154D01*
X116856154Y-130731538D01*
X116941538Y-130686154D01*
X116970000Y-130599231D01*
X116970000Y-130486923D01*
X116945769Y-130406923D01*
X116873077Y-130360769D01*
X116274615Y-130180769D01*
X116873077Y-129999231D01*
X116945769Y-129952692D01*
X116970000Y-129871538D01*
X116970000Y-129759231D01*
X116941538Y-129672692D01*
X116856154Y-129628462D01*
X115970000Y-129425385D01*
X115841795Y-129425385D01*
X115841795Y-128583846D01*
X115970000Y-128583846D01*
X115970000Y-129343846D01*
X116226923Y-129343846D01*
X116226923Y-128596154D01*
X116243846Y-128549231D01*
X116293077Y-128531538D01*
X116342308Y-128549231D01*
X116360769Y-128596154D01*
X116360769Y-129036154D01*
X116370171Y-129124786D01*
X116398376Y-129201966D01*
X116445385Y-129267692D01*
X116507265Y-129317692D01*
X116580085Y-129347692D01*
X116663846Y-129357692D01*
X116749316Y-129347692D01*
X116823162Y-129317692D01*
X116885385Y-129267692D01*
X116932393Y-129201966D01*
X116960598Y-129124786D01*
X116970000Y-129036154D01*
X116970000Y-128276154D01*
X116711538Y-128276154D01*
X116711538Y-129023846D01*
X116693846Y-129071538D01*
X116643846Y-129090000D01*
X116593077Y-129071538D01*
X116574615Y-129023846D01*
X116574615Y-128583846D01*
X116565299Y-128496068D01*
X116537350Y-128419402D01*
X116490769Y-128353846D01*
X116429316Y-128303846D01*
X116356752Y-128273846D01*
X116273077Y-128263846D01*
X116188547Y-128273846D01*
X116115470Y-128303846D01*
X116053846Y-128353846D01*
X116007265Y-128419402D01*
X115979316Y-128496068D01*
X115970000Y-128583846D01*
X115841795Y-128583846D01*
X115841795Y-128263846D01*
X115841795Y-128071538D01*
X117098205Y-127694615D01*
X117098205Y-128071538D01*
X117098205Y-128263846D01*
X117098205Y-129036154D01*
X117098205Y-130599231D01*
G37*
%TO.C,kibuzzard-68CD756A*%
G36*
X117110299Y-125727919D02*
G01*
X117110299Y-126026381D01*
X117110299Y-126731509D01*
X116050811Y-126731509D01*
X116050811Y-126026381D01*
X116050811Y-125532535D01*
X116179017Y-125532535D01*
X116179017Y-125727919D01*
X116482093Y-125727919D01*
X116482093Y-126026381D01*
X116677478Y-126026381D01*
X116677478Y-125727919D01*
X116982093Y-125727919D01*
X116982093Y-125532535D01*
X116677478Y-125532535D01*
X116677478Y-125232535D01*
X116482093Y-125232535D01*
X116482093Y-125532535D01*
X116179017Y-125532535D01*
X116050811Y-125532535D01*
X116050811Y-122980227D01*
X116502093Y-122980227D01*
X116502093Y-123357150D01*
X116695940Y-123357150D01*
X116695940Y-122980227D01*
X116502093Y-122980227D01*
X116050811Y-122980227D01*
X116050811Y-122275099D01*
X117110299Y-122275099D01*
X117110299Y-122980227D01*
X117110299Y-123357150D01*
X117110299Y-125727919D01*
G37*
%TO.C,kibuzzard-68CD6E53*%
G36*
X116048205Y-125191538D02*
G01*
X116048205Y-125874615D01*
X116048205Y-126242308D01*
X116048205Y-126370513D01*
X116048205Y-126747436D01*
X114791795Y-126370513D01*
X114791795Y-126242308D01*
X114791795Y-125237692D01*
X114920000Y-125237692D01*
X114920000Y-126242308D01*
X115176923Y-126242308D01*
X115176923Y-125874615D01*
X115920000Y-125874615D01*
X115920000Y-125605385D01*
X115176923Y-125605385D01*
X115176923Y-125237692D01*
X114920000Y-125237692D01*
X114791795Y-125237692D01*
X114791795Y-124499231D01*
X114920000Y-124499231D01*
X114920000Y-124560769D01*
X114938462Y-124630000D01*
X114993846Y-124680769D01*
X115920000Y-125191538D01*
X115920000Y-124899231D01*
X115766154Y-124816154D01*
X115766154Y-124346923D01*
X115552308Y-124460769D01*
X115552308Y-124702308D01*
X115230769Y-124531538D01*
X115920000Y-124165385D01*
X115920000Y-123868462D01*
X114993846Y-124379231D01*
X114938462Y-124430000D01*
X114920000Y-124499231D01*
X114791795Y-124499231D01*
X114791795Y-122757692D01*
X114920000Y-122757692D01*
X114920000Y-123480769D01*
X114927949Y-123574444D01*
X114951795Y-123650342D01*
X114991538Y-123708462D01*
X115075192Y-123763846D01*
X115183077Y-123782308D01*
X115254808Y-123774808D01*
X115316154Y-123752308D01*
X115392308Y-123670000D01*
X115421538Y-123725577D01*
X115472308Y-123769231D01*
X115541538Y-123797500D01*
X115626154Y-123806923D01*
X115748462Y-123785192D01*
X115841538Y-123720000D01*
X115885128Y-123654103D01*
X115911282Y-123572308D01*
X115920000Y-123474615D01*
X115920000Y-122757692D01*
X114920000Y-122757692D01*
X114791795Y-122757692D01*
X114791795Y-122629487D01*
X116048205Y-122252564D01*
X116048205Y-122629487D01*
X116048205Y-122757692D01*
X116048205Y-123474615D01*
X116048205Y-125191538D01*
G37*
G36*
X115669231Y-123460769D02*
G01*
X115651154Y-123520769D01*
X115596923Y-123540769D01*
X115538077Y-123521154D01*
X115518462Y-123462308D01*
X115518462Y-123116154D01*
X115312308Y-123116154D01*
X115312308Y-123446923D01*
X115294231Y-123502308D01*
X115240000Y-123520769D01*
X115186923Y-123502308D01*
X115169231Y-123446923D01*
X115169231Y-123026923D01*
X115669231Y-123026923D01*
X115669231Y-123460769D01*
G37*
D12*
%TO.C,J10*%
X101190000Y-118300000D02*
X101190000Y-119700000D01*
%TO.C,J9*%
X99570000Y-124398096D02*
X100970000Y-124398096D01*
X99570000Y-122398096D02*
X100970000Y-122398096D01*
D13*
%TO.C,C9*%
X107450000Y-126007836D02*
X107450000Y-125792164D01*
X106730000Y-126007836D02*
X106730000Y-125792164D01*
%TO.C,C4*%
X112062164Y-127260000D02*
X112277836Y-127260000D01*
X112062164Y-126540000D02*
X112277836Y-126540000D01*
D14*
%TO.C,J7*%
X99594000Y-130610000D02*
X101626000Y-130610000D01*
X99594000Y-133150000D02*
X101626000Y-133150000D01*
%TO.C,J5*%
X106960000Y-138484000D02*
X106960000Y-140516000D01*
%TO.C,J8*%
X117374000Y-135690000D02*
X119406000Y-135690000D01*
X117374000Y-138230000D02*
X119406000Y-138230000D01*
%TO.C,J6*%
X112040000Y-138484000D02*
X112040000Y-140516000D01*
%TO.C,J4*%
X101880000Y-138484000D02*
X101880000Y-140516000D01*
%TO.C,J1*%
X119406000Y-129610000D02*
X117374000Y-129610000D01*
%TO.C,J2*%
X119406000Y-124530000D02*
X117374000Y-124530000D01*
D13*
%TO.C,R5*%
X105110000Y-129053641D02*
X105110000Y-128746359D01*
X105870000Y-129053641D02*
X105870000Y-128746359D01*
%TO.C,R4*%
X105143641Y-130220000D02*
X104836359Y-130220000D01*
X105143641Y-130980000D02*
X104836359Y-130980000D01*
%TO.C,R3*%
X104836359Y-131320000D02*
X105143641Y-131320000D01*
X104836359Y-132080000D02*
X105143641Y-132080000D01*
%TO.C,U8*%
X107610000Y-124040000D02*
X107280000Y-123800000D01*
X107610000Y-123560000D01*
X107610000Y-124040000D01*
G36*
X107610000Y-124040000D02*
G01*
X107280000Y-123800000D01*
X107610000Y-123560000D01*
X107610000Y-124040000D01*
G37*
X107330000Y-122500000D02*
X107330000Y-121700000D01*
X107330000Y-122500000D02*
X107330000Y-123300000D01*
X104210000Y-122500000D02*
X104210000Y-121700000D01*
X104210000Y-122500000D02*
X104210000Y-123300000D01*
%TO.C,R1*%
X112843641Y-117920000D02*
X112536359Y-117920000D01*
X112843641Y-118680000D02*
X112536359Y-118680000D01*
%TO.C,C10*%
X109597836Y-127340000D02*
X109382164Y-127340000D01*
X109597836Y-128060000D02*
X109382164Y-128060000D01*
%TO.C,U1*%
X112470000Y-132422500D02*
X115050000Y-132422500D01*
X115050000Y-127702500D02*
X112330000Y-127702500D01*
X115050000Y-128682500D02*
X115050000Y-127702500D01*
X115050000Y-131442500D02*
X115050000Y-132422500D01*
X112160000Y-132602500D02*
X111680000Y-132602500D01*
X111920000Y-132272500D01*
X112160000Y-132602500D01*
G36*
X112160000Y-132602500D02*
G01*
X111680000Y-132602500D01*
X111920000Y-132272500D01*
X112160000Y-132602500D01*
G37*
%TO.C,U5*%
X107880000Y-124140000D02*
X107880000Y-124315000D01*
X107880000Y-126860000D02*
X107880000Y-126685000D01*
X108555000Y-124140000D02*
X107880000Y-124140000D01*
X108555000Y-126860000D02*
X107880000Y-126860000D01*
X110425000Y-124140000D02*
X110800000Y-124140000D01*
X110425000Y-126860000D02*
X111100000Y-126860000D01*
X111100000Y-126860000D02*
X111100000Y-126685000D01*
X111100000Y-124140000D02*
X110960000Y-123950000D01*
X111240000Y-123950000D01*
X111100000Y-124140000D01*
G36*
X111100000Y-124140000D02*
G01*
X110960000Y-123950000D01*
X111240000Y-123950000D01*
X111100000Y-124140000D01*
G37*
%TO.C,C19*%
X103930000Y-121792164D02*
X103930000Y-122007836D01*
X103210000Y-121792164D02*
X103210000Y-122007836D01*
%TO.C,C3*%
X112310000Y-133442164D02*
X112310000Y-133657836D01*
X113030000Y-133442164D02*
X113030000Y-133657836D01*
%TO.C,R2*%
X117716359Y-117820000D02*
X118023641Y-117820000D01*
X117716359Y-118580000D02*
X118023641Y-118580000D01*
%TO.C,C2*%
X113260000Y-133442164D02*
X113260000Y-133657836D01*
X113980000Y-133442164D02*
X113980000Y-133657836D01*
%TO.C,C8*%
X104130000Y-129007836D02*
X104130000Y-128792164D01*
X104850000Y-129007836D02*
X104850000Y-128792164D01*
%TO.C,C1*%
X114210000Y-133442164D02*
X114210000Y-133657836D01*
X114930000Y-133442164D02*
X114930000Y-133657836D01*
%TD*%
D15*
X120000000Y-140000000D02*
X120000000Y-111000000D01*
X100000000Y-141000000D02*
X119000000Y-141000000D01*
X99000000Y-111000000D02*
X99000000Y-140000000D01*
X119000000Y-110000000D02*
X100000000Y-110000000D01*
X99000000Y-111000000D02*
G75*
G02*
X100000000Y-110000000I1000000J0D01*
G01*
X119000000Y-110000000D02*
G75*
G02*
X120000000Y-111000000I0J-1000000D01*
G01*
X120000000Y-140000000D02*
G75*
G02*
X119000000Y-141000000I-1000000J0D01*
G01*
X100000000Y-141000000D02*
G75*
G02*
X99000000Y-140000000I0J1000000D01*
G01*
M02*
