M48
; DRILL file {KiCad 8.0.2} date 2024-07-01T07:38:27+0200
; FORMAT={-:-/ absolute / inch / decimal}
; #@! TF.CreationDate,2024-07-01T07:38:27+02:00
; #@! TF.GenerationSoftware,Kicad,Pcbnew,8.0.2
; #@! TF.FileFunction,Plated,1,2,PTH
FMAT,2
INCH
; #@! TA.AperFunction,Plated,PTH,ViaDrill
T1C0.0118
; #@! TA.AperFunction,Plated,PTH,ComponentDrill
T2C0.0236
; #@! TA.AperFunction,Plated,PTH,ComponentDrill
T3C0.0394
%
G90
G05
T1
X5.4229Y-3.8876
X5.425Y-3.01
X5.5026Y-3.9355
X5.5094Y-3.852
X5.515Y-3.1229
X5.557Y-3.547
X5.58Y-3.427
X5.5808Y-3.9574
X5.595Y-3.18
X5.5965Y-3.2385
X5.6Y-3.81
X5.6001Y-3.7087
X5.625Y-3.54
X5.6337Y-3.7937
X5.6418Y-3.8858
X5.6564Y-3.9457
X5.657Y-3.694
X5.659Y-3.5423
X5.6755Y-3.9258
X5.685Y-3.8
X5.685Y-3.8656
X5.698Y-3.113
X5.712Y-3.369
X5.716Y-3.25
X5.749Y-3.613
X5.783Y-3.4196
X5.7989Y-3.491
X5.802Y-3.206
X5.8036Y-3.652
X5.8385Y-3.96
X5.841Y-3.772
X5.852Y-3.323
X5.8589Y-3.8821
X5.86Y-3.475
X5.874Y-3.538
X5.876Y-3.6938
X5.8794Y-3.492
X5.89Y-2.85
X5.8963Y-3.7342
X5.905Y-3.875
X5.91Y-3.256
X5.916Y-3.192
X5.92Y-3.945
X5.925Y-3.035
X5.93Y-3.597
X5.938Y-3.247
X5.9385Y-3.7763
X5.94Y-3.504
X5.9428Y-3.4678
X5.9481Y-3.5284
X5.951Y-3.194
X5.9639Y-3.8939
X5.972Y-3.792
X5.974Y-3.727
X5.975Y-3.01
X5.985Y-3.98
X5.99Y-3.821
X5.996Y-3.892
X5.9966Y-3.9485
X5.997Y-3.346
X5.9989Y-3.8581
X5.999Y-3.4823
X6.0Y-3.923
X6.006Y-2.995
X6.007Y-3.719
X6.01Y-3.135
X6.01Y-3.459
X6.0213Y-3.3983
X6.023Y-3.367
X6.023Y-3.506
X6.024Y-3.431
X6.024Y-3.958
X6.0437Y-3.6218
X6.0466Y-3.2416
X6.065Y-2.82
X6.079Y-3.5136
X6.117Y-3.226
X6.117Y-3.515
X6.124Y-2.996
X6.1563Y-3.763
X6.165Y-3.983
X6.168Y-3.044
X6.175Y-3.735
X6.1991Y-3.492
X6.206Y-3.7905
X6.254Y-3.179
X6.255Y-3.07
X6.261Y-3.304
X6.2832Y-3.536
X6.2832Y-3.763
X6.2833Y-3.7932
T3
X5.48Y-2.77
X5.48Y-2.87
X5.48Y-2.97
X5.58Y-2.77
X5.58Y-2.87
X5.58Y-2.97
X5.68Y-2.77
X5.68Y-2.87
X5.68Y-2.97
X5.78Y-2.77
X5.78Y-2.87
X5.78Y-2.97
T2
G00X5.9044Y-2.7482
M15
G01X5.9044Y-2.7916
M16
G05
G00X5.9044Y-2.9128
M15
G01X5.9044Y-2.9561
M16
G05
G00X6.2446Y-2.7482
M15
G01X6.2446Y-2.7916
M16
G05
G00X6.2446Y-2.9128
M15
G01X6.2446Y-2.9561
M16
G05
M30
