%TF.GenerationSoftware,KiCad,Pcbnew,8.0.2*%
%TF.CreationDate,2024-07-01T07:38:27+02:00*%
%TF.ProjectId,ant control board v1.2,616e7420-636f-46e7-9472-6f6c20626f61,1.1*%
%TF.SameCoordinates,Original*%
%TF.FileFunction,Drillmap*%
%TF.FilePolarity,Positive*%
%FSLAX45Y45*%
G04 Gerber Fmt 4.5, Leading zero omitted, Abs format (unit mm)*
G04 Created by KiCad (PCBNEW 8.0.2) date 2024-07-01 07:38:27*
%MOMM*%
%LPD*%
G01*
G04 APERTURE LIST*
%ADD10C,0.050000*%
%ADD11C,0.100000*%
%ADD12C,0.200000*%
G04 APERTURE END LIST*
D10*
X13725000Y-6975000D02*
G75*
G02*
X13875000Y-6825000I150000J0D01*
G01*
D11*
X13875000Y-6825000D02*
X15850000Y-6825000D01*
D10*
X13875000Y-10150000D02*
G75*
G02*
X13725000Y-10000000I0J150000D01*
G01*
D11*
X16000000Y-6975000D02*
X16000000Y-10000000D01*
D10*
X15850000Y-6825000D02*
G75*
G02*
X16000000Y-6975000I0J-150000D01*
G01*
D11*
X13725000Y-10000000D02*
X13725000Y-6975000D01*
X15850000Y-10150000D02*
X13875000Y-10150000D01*
D10*
X16000000Y-10000000D02*
G75*
G02*
X15850000Y-10150000I-150000J0D01*
G01*
D12*
D11*
X15107800Y-7371050D02*
X15172800Y-7436050D01*
X15172800Y-7371050D02*
X15107800Y-7436050D01*
X15685800Y-7371050D02*
X15750800Y-7436050D01*
X15750800Y-7371050D02*
X15685800Y-7436050D01*
D12*
X13980777Y-10466484D02*
X13980777Y-10266484D01*
X13980777Y-10266484D02*
X14028396Y-10266484D01*
X14028396Y-10266484D02*
X14056967Y-10276008D01*
X14056967Y-10276008D02*
X14076015Y-10295055D01*
X14076015Y-10295055D02*
X14085539Y-10314103D01*
X14085539Y-10314103D02*
X14095062Y-10352198D01*
X14095062Y-10352198D02*
X14095062Y-10380770D01*
X14095062Y-10380770D02*
X14085539Y-10418865D01*
X14085539Y-10418865D02*
X14076015Y-10437912D01*
X14076015Y-10437912D02*
X14056967Y-10456960D01*
X14056967Y-10456960D02*
X14028396Y-10466484D01*
X14028396Y-10466484D02*
X13980777Y-10466484D01*
X14180777Y-10466484D02*
X14180777Y-10333150D01*
X14180777Y-10371246D02*
X14190301Y-10352198D01*
X14190301Y-10352198D02*
X14199824Y-10342674D01*
X14199824Y-10342674D02*
X14218872Y-10333150D01*
X14218872Y-10333150D02*
X14237920Y-10333150D01*
X14304586Y-10466484D02*
X14304586Y-10333150D01*
X14304586Y-10266484D02*
X14295062Y-10276008D01*
X14295062Y-10276008D02*
X14304586Y-10285531D01*
X14304586Y-10285531D02*
X14314110Y-10276008D01*
X14314110Y-10276008D02*
X14304586Y-10266484D01*
X14304586Y-10266484D02*
X14304586Y-10285531D01*
X14428396Y-10466484D02*
X14409348Y-10456960D01*
X14409348Y-10456960D02*
X14399824Y-10437912D01*
X14399824Y-10437912D02*
X14399824Y-10266484D01*
X14533158Y-10466484D02*
X14514110Y-10456960D01*
X14514110Y-10456960D02*
X14504586Y-10437912D01*
X14504586Y-10437912D02*
X14504586Y-10266484D01*
X14761729Y-10466484D02*
X14761729Y-10266484D01*
X14761729Y-10266484D02*
X14828396Y-10409341D01*
X14828396Y-10409341D02*
X14895062Y-10266484D01*
X14895062Y-10266484D02*
X14895062Y-10466484D01*
X15076015Y-10466484D02*
X15076015Y-10361722D01*
X15076015Y-10361722D02*
X15066491Y-10342674D01*
X15066491Y-10342674D02*
X15047443Y-10333150D01*
X15047443Y-10333150D02*
X15009348Y-10333150D01*
X15009348Y-10333150D02*
X14990301Y-10342674D01*
X15076015Y-10456960D02*
X15056967Y-10466484D01*
X15056967Y-10466484D02*
X15009348Y-10466484D01*
X15009348Y-10466484D02*
X14990301Y-10456960D01*
X14990301Y-10456960D02*
X14980777Y-10437912D01*
X14980777Y-10437912D02*
X14980777Y-10418865D01*
X14980777Y-10418865D02*
X14990301Y-10399817D01*
X14990301Y-10399817D02*
X15009348Y-10390293D01*
X15009348Y-10390293D02*
X15056967Y-10390293D01*
X15056967Y-10390293D02*
X15076015Y-10380770D01*
X15171253Y-10333150D02*
X15171253Y-10533150D01*
X15171253Y-10342674D02*
X15190301Y-10333150D01*
X15190301Y-10333150D02*
X15228396Y-10333150D01*
X15228396Y-10333150D02*
X15247443Y-10342674D01*
X15247443Y-10342674D02*
X15256967Y-10352198D01*
X15256967Y-10352198D02*
X15266491Y-10371246D01*
X15266491Y-10371246D02*
X15266491Y-10428389D01*
X15266491Y-10428389D02*
X15256967Y-10447436D01*
X15256967Y-10447436D02*
X15247443Y-10456960D01*
X15247443Y-10456960D02*
X15228396Y-10466484D01*
X15228396Y-10466484D02*
X15190301Y-10466484D01*
X15190301Y-10466484D02*
X15171253Y-10456960D01*
X15352205Y-10447436D02*
X15361729Y-10456960D01*
X15361729Y-10456960D02*
X15352205Y-10466484D01*
X15352205Y-10466484D02*
X15342682Y-10456960D01*
X15342682Y-10456960D02*
X15352205Y-10447436D01*
X15352205Y-10447436D02*
X15352205Y-10466484D01*
X15352205Y-10342674D02*
X15361729Y-10352198D01*
X15361729Y-10352198D02*
X15352205Y-10361722D01*
X15352205Y-10361722D02*
X15342682Y-10352198D01*
X15342682Y-10352198D02*
X15352205Y-10342674D01*
X15352205Y-10342674D02*
X15352205Y-10361722D01*
D11*
X13655000Y-10762500D02*
X13720000Y-10827500D01*
X13720000Y-10762500D02*
X13655000Y-10827500D01*
D12*
X14018872Y-10686484D02*
X14037920Y-10686484D01*
X14037920Y-10686484D02*
X14056967Y-10696008D01*
X14056967Y-10696008D02*
X14066491Y-10705531D01*
X14066491Y-10705531D02*
X14076015Y-10724579D01*
X14076015Y-10724579D02*
X14085539Y-10762674D01*
X14085539Y-10762674D02*
X14085539Y-10810293D01*
X14085539Y-10810293D02*
X14076015Y-10848389D01*
X14076015Y-10848389D02*
X14066491Y-10867436D01*
X14066491Y-10867436D02*
X14056967Y-10876960D01*
X14056967Y-10876960D02*
X14037920Y-10886484D01*
X14037920Y-10886484D02*
X14018872Y-10886484D01*
X14018872Y-10886484D02*
X13999824Y-10876960D01*
X13999824Y-10876960D02*
X13990301Y-10867436D01*
X13990301Y-10867436D02*
X13980777Y-10848389D01*
X13980777Y-10848389D02*
X13971253Y-10810293D01*
X13971253Y-10810293D02*
X13971253Y-10762674D01*
X13971253Y-10762674D02*
X13980777Y-10724579D01*
X13980777Y-10724579D02*
X13990301Y-10705531D01*
X13990301Y-10705531D02*
X13999824Y-10696008D01*
X13999824Y-10696008D02*
X14018872Y-10686484D01*
X14171253Y-10867436D02*
X14180777Y-10876960D01*
X14180777Y-10876960D02*
X14171253Y-10886484D01*
X14171253Y-10886484D02*
X14161729Y-10876960D01*
X14161729Y-10876960D02*
X14171253Y-10867436D01*
X14171253Y-10867436D02*
X14171253Y-10886484D01*
X14352205Y-10686484D02*
X14314110Y-10686484D01*
X14314110Y-10686484D02*
X14295062Y-10696008D01*
X14295062Y-10696008D02*
X14285539Y-10705531D01*
X14285539Y-10705531D02*
X14266491Y-10734103D01*
X14266491Y-10734103D02*
X14256967Y-10772198D01*
X14256967Y-10772198D02*
X14256967Y-10848389D01*
X14256967Y-10848389D02*
X14266491Y-10867436D01*
X14266491Y-10867436D02*
X14276015Y-10876960D01*
X14276015Y-10876960D02*
X14295062Y-10886484D01*
X14295062Y-10886484D02*
X14333158Y-10886484D01*
X14333158Y-10886484D02*
X14352205Y-10876960D01*
X14352205Y-10876960D02*
X14361729Y-10867436D01*
X14361729Y-10867436D02*
X14371253Y-10848389D01*
X14371253Y-10848389D02*
X14371253Y-10800770D01*
X14371253Y-10800770D02*
X14361729Y-10781722D01*
X14361729Y-10781722D02*
X14352205Y-10772198D01*
X14352205Y-10772198D02*
X14333158Y-10762674D01*
X14333158Y-10762674D02*
X14295062Y-10762674D01*
X14295062Y-10762674D02*
X14276015Y-10772198D01*
X14276015Y-10772198D02*
X14266491Y-10781722D01*
X14266491Y-10781722D02*
X14256967Y-10800770D01*
X14552205Y-10686484D02*
X14456967Y-10686484D01*
X14456967Y-10686484D02*
X14447443Y-10781722D01*
X14447443Y-10781722D02*
X14456967Y-10772198D01*
X14456967Y-10772198D02*
X14476015Y-10762674D01*
X14476015Y-10762674D02*
X14523634Y-10762674D01*
X14523634Y-10762674D02*
X14542682Y-10772198D01*
X14542682Y-10772198D02*
X14552205Y-10781722D01*
X14552205Y-10781722D02*
X14561729Y-10800770D01*
X14561729Y-10800770D02*
X14561729Y-10848389D01*
X14561729Y-10848389D02*
X14552205Y-10867436D01*
X14552205Y-10867436D02*
X14542682Y-10876960D01*
X14542682Y-10876960D02*
X14523634Y-10886484D01*
X14523634Y-10886484D02*
X14476015Y-10886484D01*
X14476015Y-10886484D02*
X14456967Y-10876960D01*
X14456967Y-10876960D02*
X14447443Y-10867436D01*
X14685539Y-10686484D02*
X14704586Y-10686484D01*
X14704586Y-10686484D02*
X14723634Y-10696008D01*
X14723634Y-10696008D02*
X14733158Y-10705531D01*
X14733158Y-10705531D02*
X14742682Y-10724579D01*
X14742682Y-10724579D02*
X14752205Y-10762674D01*
X14752205Y-10762674D02*
X14752205Y-10810293D01*
X14752205Y-10810293D02*
X14742682Y-10848389D01*
X14742682Y-10848389D02*
X14733158Y-10867436D01*
X14733158Y-10867436D02*
X14723634Y-10876960D01*
X14723634Y-10876960D02*
X14704586Y-10886484D01*
X14704586Y-10886484D02*
X14685539Y-10886484D01*
X14685539Y-10886484D02*
X14666491Y-10876960D01*
X14666491Y-10876960D02*
X14656967Y-10867436D01*
X14656967Y-10867436D02*
X14647443Y-10848389D01*
X14647443Y-10848389D02*
X14637920Y-10810293D01*
X14637920Y-10810293D02*
X14637920Y-10762674D01*
X14637920Y-10762674D02*
X14647443Y-10724579D01*
X14647443Y-10724579D02*
X14656967Y-10705531D01*
X14656967Y-10705531D02*
X14666491Y-10696008D01*
X14666491Y-10696008D02*
X14685539Y-10686484D01*
X14837920Y-10886484D02*
X14837920Y-10753150D01*
X14837920Y-10772198D02*
X14847443Y-10762674D01*
X14847443Y-10762674D02*
X14866491Y-10753150D01*
X14866491Y-10753150D02*
X14895063Y-10753150D01*
X14895063Y-10753150D02*
X14914110Y-10762674D01*
X14914110Y-10762674D02*
X14923634Y-10781722D01*
X14923634Y-10781722D02*
X14923634Y-10886484D01*
X14923634Y-10781722D02*
X14933158Y-10762674D01*
X14933158Y-10762674D02*
X14952205Y-10753150D01*
X14952205Y-10753150D02*
X14980777Y-10753150D01*
X14980777Y-10753150D02*
X14999824Y-10762674D01*
X14999824Y-10762674D02*
X15009348Y-10781722D01*
X15009348Y-10781722D02*
X15009348Y-10886484D01*
X15104586Y-10886484D02*
X15104586Y-10753150D01*
X15104586Y-10772198D02*
X15114110Y-10762674D01*
X15114110Y-10762674D02*
X15133158Y-10753150D01*
X15133158Y-10753150D02*
X15161729Y-10753150D01*
X15161729Y-10753150D02*
X15180777Y-10762674D01*
X15180777Y-10762674D02*
X15190301Y-10781722D01*
X15190301Y-10781722D02*
X15190301Y-10886484D01*
X15190301Y-10781722D02*
X15199824Y-10762674D01*
X15199824Y-10762674D02*
X15218872Y-10753150D01*
X15218872Y-10753150D02*
X15247443Y-10753150D01*
X15247443Y-10753150D02*
X15266491Y-10762674D01*
X15266491Y-10762674D02*
X15276015Y-10781722D01*
X15276015Y-10781722D02*
X15276015Y-10886484D01*
X15666491Y-10676960D02*
X15495063Y-10934103D01*
X15923634Y-10686484D02*
X15942682Y-10686484D01*
X15942682Y-10686484D02*
X15961729Y-10696008D01*
X15961729Y-10696008D02*
X15971253Y-10705531D01*
X15971253Y-10705531D02*
X15980777Y-10724579D01*
X15980777Y-10724579D02*
X15990301Y-10762674D01*
X15990301Y-10762674D02*
X15990301Y-10810293D01*
X15990301Y-10810293D02*
X15980777Y-10848389D01*
X15980777Y-10848389D02*
X15971253Y-10867436D01*
X15971253Y-10867436D02*
X15961729Y-10876960D01*
X15961729Y-10876960D02*
X15942682Y-10886484D01*
X15942682Y-10886484D02*
X15923634Y-10886484D01*
X15923634Y-10886484D02*
X15904586Y-10876960D01*
X15904586Y-10876960D02*
X15895063Y-10867436D01*
X15895063Y-10867436D02*
X15885539Y-10848389D01*
X15885539Y-10848389D02*
X15876015Y-10810293D01*
X15876015Y-10810293D02*
X15876015Y-10762674D01*
X15876015Y-10762674D02*
X15885539Y-10724579D01*
X15885539Y-10724579D02*
X15895063Y-10705531D01*
X15895063Y-10705531D02*
X15904586Y-10696008D01*
X15904586Y-10696008D02*
X15923634Y-10686484D01*
X16076015Y-10867436D02*
X16085539Y-10876960D01*
X16085539Y-10876960D02*
X16076015Y-10886484D01*
X16076015Y-10886484D02*
X16066491Y-10876960D01*
X16066491Y-10876960D02*
X16076015Y-10867436D01*
X16076015Y-10867436D02*
X16076015Y-10886484D01*
X16209348Y-10686484D02*
X16228396Y-10686484D01*
X16228396Y-10686484D02*
X16247444Y-10696008D01*
X16247444Y-10696008D02*
X16256967Y-10705531D01*
X16256967Y-10705531D02*
X16266491Y-10724579D01*
X16266491Y-10724579D02*
X16276015Y-10762674D01*
X16276015Y-10762674D02*
X16276015Y-10810293D01*
X16276015Y-10810293D02*
X16266491Y-10848389D01*
X16266491Y-10848389D02*
X16256967Y-10867436D01*
X16256967Y-10867436D02*
X16247444Y-10876960D01*
X16247444Y-10876960D02*
X16228396Y-10886484D01*
X16228396Y-10886484D02*
X16209348Y-10886484D01*
X16209348Y-10886484D02*
X16190301Y-10876960D01*
X16190301Y-10876960D02*
X16180777Y-10867436D01*
X16180777Y-10867436D02*
X16171253Y-10848389D01*
X16171253Y-10848389D02*
X16161729Y-10810293D01*
X16161729Y-10810293D02*
X16161729Y-10762674D01*
X16161729Y-10762674D02*
X16171253Y-10724579D01*
X16171253Y-10724579D02*
X16180777Y-10705531D01*
X16180777Y-10705531D02*
X16190301Y-10696008D01*
X16190301Y-10696008D02*
X16209348Y-10686484D01*
X16352206Y-10705531D02*
X16361729Y-10696008D01*
X16361729Y-10696008D02*
X16380777Y-10686484D01*
X16380777Y-10686484D02*
X16428396Y-10686484D01*
X16428396Y-10686484D02*
X16447444Y-10696008D01*
X16447444Y-10696008D02*
X16456967Y-10705531D01*
X16456967Y-10705531D02*
X16466491Y-10724579D01*
X16466491Y-10724579D02*
X16466491Y-10743627D01*
X16466491Y-10743627D02*
X16456967Y-10772198D01*
X16456967Y-10772198D02*
X16342682Y-10886484D01*
X16342682Y-10886484D02*
X16466491Y-10886484D01*
X16647444Y-10686484D02*
X16552206Y-10686484D01*
X16552206Y-10686484D02*
X16542682Y-10781722D01*
X16542682Y-10781722D02*
X16552206Y-10772198D01*
X16552206Y-10772198D02*
X16571253Y-10762674D01*
X16571253Y-10762674D02*
X16618872Y-10762674D01*
X16618872Y-10762674D02*
X16637920Y-10772198D01*
X16637920Y-10772198D02*
X16647444Y-10781722D01*
X16647444Y-10781722D02*
X16656967Y-10800770D01*
X16656967Y-10800770D02*
X16656967Y-10848389D01*
X16656967Y-10848389D02*
X16647444Y-10867436D01*
X16647444Y-10867436D02*
X16637920Y-10876960D01*
X16637920Y-10876960D02*
X16618872Y-10886484D01*
X16618872Y-10886484D02*
X16571253Y-10886484D01*
X16571253Y-10886484D02*
X16552206Y-10876960D01*
X16552206Y-10876960D02*
X16542682Y-10867436D01*
X16828396Y-10686484D02*
X16790301Y-10686484D01*
X16790301Y-10686484D02*
X16771253Y-10696008D01*
X16771253Y-10696008D02*
X16761729Y-10705531D01*
X16761729Y-10705531D02*
X16742682Y-10734103D01*
X16742682Y-10734103D02*
X16733158Y-10772198D01*
X16733158Y-10772198D02*
X16733158Y-10848389D01*
X16733158Y-10848389D02*
X16742682Y-10867436D01*
X16742682Y-10867436D02*
X16752206Y-10876960D01*
X16752206Y-10876960D02*
X16771253Y-10886484D01*
X16771253Y-10886484D02*
X16809349Y-10886484D01*
X16809349Y-10886484D02*
X16828396Y-10876960D01*
X16828396Y-10876960D02*
X16837920Y-10867436D01*
X16837920Y-10867436D02*
X16847444Y-10848389D01*
X16847444Y-10848389D02*
X16847444Y-10800770D01*
X16847444Y-10800770D02*
X16837920Y-10781722D01*
X16837920Y-10781722D02*
X16828396Y-10772198D01*
X16828396Y-10772198D02*
X16809349Y-10762674D01*
X16809349Y-10762674D02*
X16771253Y-10762674D01*
X16771253Y-10762674D02*
X16752206Y-10772198D01*
X16752206Y-10772198D02*
X16742682Y-10781722D01*
X16742682Y-10781722D02*
X16733158Y-10800770D01*
X16923634Y-10686484D02*
X16923634Y-10724579D01*
X16999825Y-10686484D02*
X16999825Y-10724579D01*
X17295063Y-10962674D02*
X17285539Y-10953150D01*
X17285539Y-10953150D02*
X17266491Y-10924579D01*
X17266491Y-10924579D02*
X17256968Y-10905531D01*
X17256968Y-10905531D02*
X17247444Y-10876960D01*
X17247444Y-10876960D02*
X17237920Y-10829341D01*
X17237920Y-10829341D02*
X17237920Y-10791246D01*
X17237920Y-10791246D02*
X17247444Y-10743627D01*
X17247444Y-10743627D02*
X17256968Y-10715055D01*
X17256968Y-10715055D02*
X17266491Y-10696008D01*
X17266491Y-10696008D02*
X17285539Y-10667436D01*
X17285539Y-10667436D02*
X17295063Y-10657912D01*
X17361730Y-10705531D02*
X17371253Y-10696008D01*
X17371253Y-10696008D02*
X17390301Y-10686484D01*
X17390301Y-10686484D02*
X17437920Y-10686484D01*
X17437920Y-10686484D02*
X17456968Y-10696008D01*
X17456968Y-10696008D02*
X17466491Y-10705531D01*
X17466491Y-10705531D02*
X17476015Y-10724579D01*
X17476015Y-10724579D02*
X17476015Y-10743627D01*
X17476015Y-10743627D02*
X17466491Y-10772198D01*
X17466491Y-10772198D02*
X17352206Y-10886484D01*
X17352206Y-10886484D02*
X17476015Y-10886484D01*
X17714111Y-10886484D02*
X17714111Y-10686484D01*
X17799825Y-10886484D02*
X17799825Y-10781722D01*
X17799825Y-10781722D02*
X17790301Y-10762674D01*
X17790301Y-10762674D02*
X17771253Y-10753150D01*
X17771253Y-10753150D02*
X17742682Y-10753150D01*
X17742682Y-10753150D02*
X17723634Y-10762674D01*
X17723634Y-10762674D02*
X17714111Y-10772198D01*
X17923634Y-10886484D02*
X17904587Y-10876960D01*
X17904587Y-10876960D02*
X17895063Y-10867436D01*
X17895063Y-10867436D02*
X17885539Y-10848389D01*
X17885539Y-10848389D02*
X17885539Y-10791246D01*
X17885539Y-10791246D02*
X17895063Y-10772198D01*
X17895063Y-10772198D02*
X17904587Y-10762674D01*
X17904587Y-10762674D02*
X17923634Y-10753150D01*
X17923634Y-10753150D02*
X17952206Y-10753150D01*
X17952206Y-10753150D02*
X17971253Y-10762674D01*
X17971253Y-10762674D02*
X17980777Y-10772198D01*
X17980777Y-10772198D02*
X17990301Y-10791246D01*
X17990301Y-10791246D02*
X17990301Y-10848389D01*
X17990301Y-10848389D02*
X17980777Y-10867436D01*
X17980777Y-10867436D02*
X17971253Y-10876960D01*
X17971253Y-10876960D02*
X17952206Y-10886484D01*
X17952206Y-10886484D02*
X17923634Y-10886484D01*
X18104587Y-10886484D02*
X18085539Y-10876960D01*
X18085539Y-10876960D02*
X18076015Y-10857912D01*
X18076015Y-10857912D02*
X18076015Y-10686484D01*
X18256968Y-10876960D02*
X18237920Y-10886484D01*
X18237920Y-10886484D02*
X18199825Y-10886484D01*
X18199825Y-10886484D02*
X18180777Y-10876960D01*
X18180777Y-10876960D02*
X18171253Y-10857912D01*
X18171253Y-10857912D02*
X18171253Y-10781722D01*
X18171253Y-10781722D02*
X18180777Y-10762674D01*
X18180777Y-10762674D02*
X18199825Y-10753150D01*
X18199825Y-10753150D02*
X18237920Y-10753150D01*
X18237920Y-10753150D02*
X18256968Y-10762674D01*
X18256968Y-10762674D02*
X18266492Y-10781722D01*
X18266492Y-10781722D02*
X18266492Y-10800770D01*
X18266492Y-10800770D02*
X18171253Y-10819817D01*
X18342682Y-10876960D02*
X18361730Y-10886484D01*
X18361730Y-10886484D02*
X18399825Y-10886484D01*
X18399825Y-10886484D02*
X18418873Y-10876960D01*
X18418873Y-10876960D02*
X18428396Y-10857912D01*
X18428396Y-10857912D02*
X18428396Y-10848389D01*
X18428396Y-10848389D02*
X18418873Y-10829341D01*
X18418873Y-10829341D02*
X18399825Y-10819817D01*
X18399825Y-10819817D02*
X18371253Y-10819817D01*
X18371253Y-10819817D02*
X18352206Y-10810293D01*
X18352206Y-10810293D02*
X18342682Y-10791246D01*
X18342682Y-10791246D02*
X18342682Y-10781722D01*
X18342682Y-10781722D02*
X18352206Y-10762674D01*
X18352206Y-10762674D02*
X18371253Y-10753150D01*
X18371253Y-10753150D02*
X18399825Y-10753150D01*
X18399825Y-10753150D02*
X18418873Y-10762674D01*
X18495063Y-10962674D02*
X18504587Y-10953150D01*
X18504587Y-10953150D02*
X18523634Y-10924579D01*
X18523634Y-10924579D02*
X18533158Y-10905531D01*
X18533158Y-10905531D02*
X18542682Y-10876960D01*
X18542682Y-10876960D02*
X18552206Y-10829341D01*
X18552206Y-10829341D02*
X18552206Y-10791246D01*
X18552206Y-10791246D02*
X18542682Y-10743627D01*
X18542682Y-10743627D02*
X18533158Y-10715055D01*
X18533158Y-10715055D02*
X18523634Y-10696008D01*
X18523634Y-10696008D02*
X18504587Y-10667436D01*
X18504587Y-10667436D02*
X18495063Y-10657912D01*
X18856968Y-10962674D02*
X18847444Y-10953150D01*
X18847444Y-10953150D02*
X18828396Y-10924579D01*
X18828396Y-10924579D02*
X18818873Y-10905531D01*
X18818873Y-10905531D02*
X18809349Y-10876960D01*
X18809349Y-10876960D02*
X18799825Y-10829341D01*
X18799825Y-10829341D02*
X18799825Y-10791246D01*
X18799825Y-10791246D02*
X18809349Y-10743627D01*
X18809349Y-10743627D02*
X18818873Y-10715055D01*
X18818873Y-10715055D02*
X18828396Y-10696008D01*
X18828396Y-10696008D02*
X18847444Y-10667436D01*
X18847444Y-10667436D02*
X18856968Y-10657912D01*
X18933158Y-10753150D02*
X18933158Y-10886484D01*
X18933158Y-10772198D02*
X18942682Y-10762674D01*
X18942682Y-10762674D02*
X18961730Y-10753150D01*
X18961730Y-10753150D02*
X18990301Y-10753150D01*
X18990301Y-10753150D02*
X19009349Y-10762674D01*
X19009349Y-10762674D02*
X19018873Y-10781722D01*
X19018873Y-10781722D02*
X19018873Y-10886484D01*
X19142682Y-10886484D02*
X19123634Y-10876960D01*
X19123634Y-10876960D02*
X19114111Y-10867436D01*
X19114111Y-10867436D02*
X19104587Y-10848389D01*
X19104587Y-10848389D02*
X19104587Y-10791246D01*
X19104587Y-10791246D02*
X19114111Y-10772198D01*
X19114111Y-10772198D02*
X19123634Y-10762674D01*
X19123634Y-10762674D02*
X19142682Y-10753150D01*
X19142682Y-10753150D02*
X19171254Y-10753150D01*
X19171254Y-10753150D02*
X19190301Y-10762674D01*
X19190301Y-10762674D02*
X19199825Y-10772198D01*
X19199825Y-10772198D02*
X19209349Y-10791246D01*
X19209349Y-10791246D02*
X19209349Y-10848389D01*
X19209349Y-10848389D02*
X19199825Y-10867436D01*
X19199825Y-10867436D02*
X19190301Y-10876960D01*
X19190301Y-10876960D02*
X19171254Y-10886484D01*
X19171254Y-10886484D02*
X19142682Y-10886484D01*
X19266492Y-10753150D02*
X19342682Y-10753150D01*
X19295063Y-10686484D02*
X19295063Y-10857912D01*
X19295063Y-10857912D02*
X19304587Y-10876960D01*
X19304587Y-10876960D02*
X19323634Y-10886484D01*
X19323634Y-10886484D02*
X19342682Y-10886484D01*
X19561730Y-10753150D02*
X19561730Y-10953150D01*
X19561730Y-10762674D02*
X19580777Y-10753150D01*
X19580777Y-10753150D02*
X19618873Y-10753150D01*
X19618873Y-10753150D02*
X19637920Y-10762674D01*
X19637920Y-10762674D02*
X19647444Y-10772198D01*
X19647444Y-10772198D02*
X19656968Y-10791246D01*
X19656968Y-10791246D02*
X19656968Y-10848389D01*
X19656968Y-10848389D02*
X19647444Y-10867436D01*
X19647444Y-10867436D02*
X19637920Y-10876960D01*
X19637920Y-10876960D02*
X19618873Y-10886484D01*
X19618873Y-10886484D02*
X19580777Y-10886484D01*
X19580777Y-10886484D02*
X19561730Y-10876960D01*
X19771254Y-10886484D02*
X19752206Y-10876960D01*
X19752206Y-10876960D02*
X19742682Y-10857912D01*
X19742682Y-10857912D02*
X19742682Y-10686484D01*
X19933158Y-10886484D02*
X19933158Y-10781722D01*
X19933158Y-10781722D02*
X19923635Y-10762674D01*
X19923635Y-10762674D02*
X19904587Y-10753150D01*
X19904587Y-10753150D02*
X19866492Y-10753150D01*
X19866492Y-10753150D02*
X19847444Y-10762674D01*
X19933158Y-10876960D02*
X19914111Y-10886484D01*
X19914111Y-10886484D02*
X19866492Y-10886484D01*
X19866492Y-10886484D02*
X19847444Y-10876960D01*
X19847444Y-10876960D02*
X19837920Y-10857912D01*
X19837920Y-10857912D02*
X19837920Y-10838865D01*
X19837920Y-10838865D02*
X19847444Y-10819817D01*
X19847444Y-10819817D02*
X19866492Y-10810293D01*
X19866492Y-10810293D02*
X19914111Y-10810293D01*
X19914111Y-10810293D02*
X19933158Y-10800770D01*
X19999825Y-10753150D02*
X20076015Y-10753150D01*
X20028396Y-10686484D02*
X20028396Y-10857912D01*
X20028396Y-10857912D02*
X20037920Y-10876960D01*
X20037920Y-10876960D02*
X20056968Y-10886484D01*
X20056968Y-10886484D02*
X20076015Y-10886484D01*
X20218873Y-10876960D02*
X20199825Y-10886484D01*
X20199825Y-10886484D02*
X20161730Y-10886484D01*
X20161730Y-10886484D02*
X20142682Y-10876960D01*
X20142682Y-10876960D02*
X20133158Y-10857912D01*
X20133158Y-10857912D02*
X20133158Y-10781722D01*
X20133158Y-10781722D02*
X20142682Y-10762674D01*
X20142682Y-10762674D02*
X20161730Y-10753150D01*
X20161730Y-10753150D02*
X20199825Y-10753150D01*
X20199825Y-10753150D02*
X20218873Y-10762674D01*
X20218873Y-10762674D02*
X20228396Y-10781722D01*
X20228396Y-10781722D02*
X20228396Y-10800770D01*
X20228396Y-10800770D02*
X20133158Y-10819817D01*
X20399825Y-10886484D02*
X20399825Y-10686484D01*
X20399825Y-10876960D02*
X20380777Y-10886484D01*
X20380777Y-10886484D02*
X20342682Y-10886484D01*
X20342682Y-10886484D02*
X20323635Y-10876960D01*
X20323635Y-10876960D02*
X20314111Y-10867436D01*
X20314111Y-10867436D02*
X20304587Y-10848389D01*
X20304587Y-10848389D02*
X20304587Y-10791246D01*
X20304587Y-10791246D02*
X20314111Y-10772198D01*
X20314111Y-10772198D02*
X20323635Y-10762674D01*
X20323635Y-10762674D02*
X20342682Y-10753150D01*
X20342682Y-10753150D02*
X20380777Y-10753150D01*
X20380777Y-10753150D02*
X20399825Y-10762674D01*
X20476016Y-10962674D02*
X20485539Y-10953150D01*
X20485539Y-10953150D02*
X20504587Y-10924579D01*
X20504587Y-10924579D02*
X20514111Y-10905531D01*
X20514111Y-10905531D02*
X20523635Y-10876960D01*
X20523635Y-10876960D02*
X20533158Y-10829341D01*
X20533158Y-10829341D02*
X20533158Y-10791246D01*
X20533158Y-10791246D02*
X20523635Y-10743627D01*
X20523635Y-10743627D02*
X20514111Y-10715055D01*
X20514111Y-10715055D02*
X20504587Y-10696008D01*
X20504587Y-10696008D02*
X20485539Y-10667436D01*
X20485539Y-10667436D02*
X20476016Y-10657912D01*
M02*
