%TF.GenerationSoftware,KiCad,Pcbnew,8.0.2*%
%TF.CreationDate,2024-07-01T07:37:42+02:00*%
%TF.ProjectId,ant control board v1.2,616e7420-636f-46e7-9472-6f6c20626f61,1.1*%
%TF.SameCoordinates,Original*%
%TF.FileFunction,Legend,Top*%
%TF.FilePolarity,Positive*%
%FSLAX46Y46*%
G04 Gerber Fmt 4.6, Leading zero omitted, Abs format (unit mm)*
G04 Created by KiCad (PCBNEW 8.0.2) date 2024-07-01 07:37:42*
%MOMM*%
%LPD*%
G01*
G04 APERTURE LIST*
%ADD10C,0.150000*%
%ADD11C,0.120000*%
%ADD12C,0.000000*%
%ADD13C,0.254000*%
G04 APERTURE END LIST*
D10*
X143256000Y-91059000D02*
X143046287Y-91348260D01*
X143049667Y-90533700D02*
X143049667Y-90867033D01*
X142816333Y-90167033D02*
X143049667Y-90533700D01*
X143049667Y-90533700D02*
X143283000Y-90167033D01*
X143883000Y-90867033D02*
X143483000Y-90867033D01*
X143683000Y-90867033D02*
X143683000Y-90167033D01*
X143683000Y-90167033D02*
X143616333Y-90267033D01*
X143616333Y-90267033D02*
X143549667Y-90333700D01*
X143549667Y-90333700D02*
X143483000Y-90367033D01*
X154823333Y-100265033D02*
X154590000Y-99931700D01*
X154423333Y-100265033D02*
X154423333Y-99565033D01*
X154423333Y-99565033D02*
X154690000Y-99565033D01*
X154690000Y-99565033D02*
X154756667Y-99598366D01*
X154756667Y-99598366D02*
X154790000Y-99631700D01*
X154790000Y-99631700D02*
X154823333Y-99698366D01*
X154823333Y-99698366D02*
X154823333Y-99798366D01*
X154823333Y-99798366D02*
X154790000Y-99865033D01*
X154790000Y-99865033D02*
X154756667Y-99898366D01*
X154756667Y-99898366D02*
X154690000Y-99931700D01*
X154690000Y-99931700D02*
X154423333Y-99931700D01*
X155056667Y-99565033D02*
X155490000Y-99565033D01*
X155490000Y-99565033D02*
X155256667Y-99831700D01*
X155256667Y-99831700D02*
X155356667Y-99831700D01*
X155356667Y-99831700D02*
X155423333Y-99865033D01*
X155423333Y-99865033D02*
X155456667Y-99898366D01*
X155456667Y-99898366D02*
X155490000Y-99965033D01*
X155490000Y-99965033D02*
X155490000Y-100131700D01*
X155490000Y-100131700D02*
X155456667Y-100198366D01*
X155456667Y-100198366D02*
X155423333Y-100231700D01*
X155423333Y-100231700D02*
X155356667Y-100265033D01*
X155356667Y-100265033D02*
X155156667Y-100265033D01*
X155156667Y-100265033D02*
X155090000Y-100231700D01*
X155090000Y-100231700D02*
X155056667Y-100198366D01*
X147540833Y-98048824D02*
X147540833Y-98095964D01*
X147540833Y-98095964D02*
X147493692Y-98190245D01*
X147493692Y-98190245D02*
X147446552Y-98237386D01*
X147446552Y-98237386D02*
X147352271Y-98284526D01*
X147352271Y-98284526D02*
X147257990Y-98284526D01*
X147257990Y-98284526D02*
X147187279Y-98260956D01*
X147187279Y-98260956D02*
X147069428Y-98190245D01*
X147069428Y-98190245D02*
X146998718Y-98119535D01*
X146998718Y-98119535D02*
X146928007Y-98001683D01*
X146928007Y-98001683D02*
X146904437Y-97930973D01*
X146904437Y-97930973D02*
X146904437Y-97836692D01*
X146904437Y-97836692D02*
X146951577Y-97742411D01*
X146951577Y-97742411D02*
X146998718Y-97695271D01*
X146998718Y-97695271D02*
X147092999Y-97648130D01*
X147092999Y-97648130D02*
X147140139Y-97648130D01*
X147823676Y-97860262D02*
X147917956Y-97765981D01*
X147917956Y-97765981D02*
X147941527Y-97695271D01*
X147941527Y-97695271D02*
X147941527Y-97648130D01*
X147941527Y-97648130D02*
X147917956Y-97530279D01*
X147917956Y-97530279D02*
X147847246Y-97412428D01*
X147847246Y-97412428D02*
X147658684Y-97223866D01*
X147658684Y-97223866D02*
X147587973Y-97200296D01*
X147587973Y-97200296D02*
X147540833Y-97200296D01*
X147540833Y-97200296D02*
X147470122Y-97223866D01*
X147470122Y-97223866D02*
X147375841Y-97318147D01*
X147375841Y-97318147D02*
X147352271Y-97388858D01*
X147352271Y-97388858D02*
X147352271Y-97435998D01*
X147352271Y-97435998D02*
X147375841Y-97506709D01*
X147375841Y-97506709D02*
X147493692Y-97624560D01*
X147493692Y-97624560D02*
X147564403Y-97648130D01*
X147564403Y-97648130D02*
X147611543Y-97648130D01*
X147611543Y-97648130D02*
X147682254Y-97624560D01*
X147682254Y-97624560D02*
X147776535Y-97530279D01*
X147776535Y-97530279D02*
X147800105Y-97459568D01*
X147800105Y-97459568D02*
X147800105Y-97412428D01*
X147800105Y-97412428D02*
X147776535Y-97341717D01*
X153299333Y-100265033D02*
X153066000Y-99931700D01*
X152899333Y-100265033D02*
X152899333Y-99565033D01*
X152899333Y-99565033D02*
X153166000Y-99565033D01*
X153166000Y-99565033D02*
X153232667Y-99598366D01*
X153232667Y-99598366D02*
X153266000Y-99631700D01*
X153266000Y-99631700D02*
X153299333Y-99698366D01*
X153299333Y-99698366D02*
X153299333Y-99798366D01*
X153299333Y-99798366D02*
X153266000Y-99865033D01*
X153266000Y-99865033D02*
X153232667Y-99898366D01*
X153232667Y-99898366D02*
X153166000Y-99931700D01*
X153166000Y-99931700D02*
X152899333Y-99931700D01*
X153566000Y-99631700D02*
X153599333Y-99598366D01*
X153599333Y-99598366D02*
X153666000Y-99565033D01*
X153666000Y-99565033D02*
X153832667Y-99565033D01*
X153832667Y-99565033D02*
X153899333Y-99598366D01*
X153899333Y-99598366D02*
X153932667Y-99631700D01*
X153932667Y-99631700D02*
X153966000Y-99698366D01*
X153966000Y-99698366D02*
X153966000Y-99765033D01*
X153966000Y-99765033D02*
X153932667Y-99865033D01*
X153932667Y-99865033D02*
X153532667Y-100265033D01*
X153532667Y-100265033D02*
X153966000Y-100265033D01*
X156347333Y-100198366D02*
X156314000Y-100231700D01*
X156314000Y-100231700D02*
X156214000Y-100265033D01*
X156214000Y-100265033D02*
X156147333Y-100265033D01*
X156147333Y-100265033D02*
X156047333Y-100231700D01*
X156047333Y-100231700D02*
X155980667Y-100165033D01*
X155980667Y-100165033D02*
X155947333Y-100098366D01*
X155947333Y-100098366D02*
X155914000Y-99965033D01*
X155914000Y-99965033D02*
X155914000Y-99865033D01*
X155914000Y-99865033D02*
X155947333Y-99731700D01*
X155947333Y-99731700D02*
X155980667Y-99665033D01*
X155980667Y-99665033D02*
X156047333Y-99598366D01*
X156047333Y-99598366D02*
X156147333Y-99565033D01*
X156147333Y-99565033D02*
X156214000Y-99565033D01*
X156214000Y-99565033D02*
X156314000Y-99598366D01*
X156314000Y-99598366D02*
X156347333Y-99631700D01*
X156947333Y-99798366D02*
X156947333Y-100265033D01*
X156780667Y-99531700D02*
X156614000Y-100031700D01*
X156614000Y-100031700D02*
X157047333Y-100031700D01*
X147794833Y-93984824D02*
X147794833Y-94031964D01*
X147794833Y-94031964D02*
X147747692Y-94126245D01*
X147747692Y-94126245D02*
X147700552Y-94173386D01*
X147700552Y-94173386D02*
X147606271Y-94220526D01*
X147606271Y-94220526D02*
X147511990Y-94220526D01*
X147511990Y-94220526D02*
X147441279Y-94196956D01*
X147441279Y-94196956D02*
X147323428Y-94126245D01*
X147323428Y-94126245D02*
X147252718Y-94055535D01*
X147252718Y-94055535D02*
X147182007Y-93937683D01*
X147182007Y-93937683D02*
X147158437Y-93866973D01*
X147158437Y-93866973D02*
X147158437Y-93772692D01*
X147158437Y-93772692D02*
X147205577Y-93678411D01*
X147205577Y-93678411D02*
X147252718Y-93631271D01*
X147252718Y-93631271D02*
X147346999Y-93584130D01*
X147346999Y-93584130D02*
X147394139Y-93584130D01*
X147841973Y-93466279D02*
X147771263Y-93489849D01*
X147771263Y-93489849D02*
X147724122Y-93489849D01*
X147724122Y-93489849D02*
X147653411Y-93466279D01*
X147653411Y-93466279D02*
X147629841Y-93442709D01*
X147629841Y-93442709D02*
X147606271Y-93371998D01*
X147606271Y-93371998D02*
X147606271Y-93324858D01*
X147606271Y-93324858D02*
X147629841Y-93254147D01*
X147629841Y-93254147D02*
X147724122Y-93159866D01*
X147724122Y-93159866D02*
X147794833Y-93136296D01*
X147794833Y-93136296D02*
X147841973Y-93136296D01*
X147841973Y-93136296D02*
X147912684Y-93159866D01*
X147912684Y-93159866D02*
X147936254Y-93183436D01*
X147936254Y-93183436D02*
X147959824Y-93254147D01*
X147959824Y-93254147D02*
X147959824Y-93301287D01*
X147959824Y-93301287D02*
X147936254Y-93371998D01*
X147936254Y-93371998D02*
X147841973Y-93466279D01*
X147841973Y-93466279D02*
X147818403Y-93536990D01*
X147818403Y-93536990D02*
X147818403Y-93584130D01*
X147818403Y-93584130D02*
X147841973Y-93654841D01*
X147841973Y-93654841D02*
X147936254Y-93749122D01*
X147936254Y-93749122D02*
X148006965Y-93772692D01*
X148006965Y-93772692D02*
X148054105Y-93772692D01*
X148054105Y-93772692D02*
X148124816Y-93749122D01*
X148124816Y-93749122D02*
X148219097Y-93654841D01*
X148219097Y-93654841D02*
X148242667Y-93584130D01*
X148242667Y-93584130D02*
X148242667Y-93536990D01*
X148242667Y-93536990D02*
X148219097Y-93466279D01*
X148219097Y-93466279D02*
X148124816Y-93371998D01*
X148124816Y-93371998D02*
X148054105Y-93348428D01*
X148054105Y-93348428D02*
X148006965Y-93348428D01*
X148006965Y-93348428D02*
X147936254Y-93371998D01*
X142507472Y-86980130D02*
X142460332Y-86980130D01*
X142460332Y-86980130D02*
X142366051Y-86932990D01*
X142366051Y-86932990D02*
X142318911Y-86885849D01*
X142318911Y-86885849D02*
X142271770Y-86791568D01*
X142271770Y-86791568D02*
X142271770Y-86697287D01*
X142271770Y-86697287D02*
X142295340Y-86626577D01*
X142295340Y-86626577D02*
X142366051Y-86508726D01*
X142366051Y-86508726D02*
X142436762Y-86438015D01*
X142436762Y-86438015D02*
X142554613Y-86367304D01*
X142554613Y-86367304D02*
X142625323Y-86343734D01*
X142625323Y-86343734D02*
X142719604Y-86343734D01*
X142719604Y-86343734D02*
X142813885Y-86390874D01*
X142813885Y-86390874D02*
X142861026Y-86438015D01*
X142861026Y-86438015D02*
X142908166Y-86532296D01*
X142908166Y-86532296D02*
X142908166Y-86579436D01*
X142931736Y-87498675D02*
X142648894Y-87215832D01*
X142790315Y-87357254D02*
X143285290Y-86862279D01*
X143285290Y-86862279D02*
X143167439Y-86885849D01*
X143167439Y-86885849D02*
X143073158Y-86885849D01*
X143073158Y-86885849D02*
X143002447Y-86862279D01*
X143591703Y-87168692D02*
X143898116Y-87475105D01*
X143898116Y-87475105D02*
X143544563Y-87498675D01*
X143544563Y-87498675D02*
X143615273Y-87569386D01*
X143615273Y-87569386D02*
X143638843Y-87640097D01*
X143638843Y-87640097D02*
X143638843Y-87687237D01*
X143638843Y-87687237D02*
X143615273Y-87757948D01*
X143615273Y-87757948D02*
X143497422Y-87875799D01*
X143497422Y-87875799D02*
X143426711Y-87899369D01*
X143426711Y-87899369D02*
X143379571Y-87899369D01*
X143379571Y-87899369D02*
X143308860Y-87875799D01*
X143308860Y-87875799D02*
X143167439Y-87734378D01*
X143167439Y-87734378D02*
X143143869Y-87663667D01*
X143143869Y-87663667D02*
X143143869Y-87616526D01*
X138099866Y-99209433D02*
X138099866Y-99776100D01*
X138099866Y-99776100D02*
X138133200Y-99842766D01*
X138133200Y-99842766D02*
X138166533Y-99876100D01*
X138166533Y-99876100D02*
X138233200Y-99909433D01*
X138233200Y-99909433D02*
X138366533Y-99909433D01*
X138366533Y-99909433D02*
X138433200Y-99876100D01*
X138433200Y-99876100D02*
X138466533Y-99842766D01*
X138466533Y-99842766D02*
X138499866Y-99776100D01*
X138499866Y-99776100D02*
X138499866Y-99209433D01*
X138933199Y-99509433D02*
X138866533Y-99476100D01*
X138866533Y-99476100D02*
X138833199Y-99442766D01*
X138833199Y-99442766D02*
X138799866Y-99376100D01*
X138799866Y-99376100D02*
X138799866Y-99342766D01*
X138799866Y-99342766D02*
X138833199Y-99276100D01*
X138833199Y-99276100D02*
X138866533Y-99242766D01*
X138866533Y-99242766D02*
X138933199Y-99209433D01*
X138933199Y-99209433D02*
X139066533Y-99209433D01*
X139066533Y-99209433D02*
X139133199Y-99242766D01*
X139133199Y-99242766D02*
X139166533Y-99276100D01*
X139166533Y-99276100D02*
X139199866Y-99342766D01*
X139199866Y-99342766D02*
X139199866Y-99376100D01*
X139199866Y-99376100D02*
X139166533Y-99442766D01*
X139166533Y-99442766D02*
X139133199Y-99476100D01*
X139133199Y-99476100D02*
X139066533Y-99509433D01*
X139066533Y-99509433D02*
X138933199Y-99509433D01*
X138933199Y-99509433D02*
X138866533Y-99542766D01*
X138866533Y-99542766D02*
X138833199Y-99576100D01*
X138833199Y-99576100D02*
X138799866Y-99642766D01*
X138799866Y-99642766D02*
X138799866Y-99776100D01*
X138799866Y-99776100D02*
X138833199Y-99842766D01*
X138833199Y-99842766D02*
X138866533Y-99876100D01*
X138866533Y-99876100D02*
X138933199Y-99909433D01*
X138933199Y-99909433D02*
X139066533Y-99909433D01*
X139066533Y-99909433D02*
X139133199Y-99876100D01*
X139133199Y-99876100D02*
X139166533Y-99842766D01*
X139166533Y-99842766D02*
X139199866Y-99776100D01*
X139199866Y-99776100D02*
X139199866Y-99642766D01*
X139199866Y-99642766D02*
X139166533Y-99576100D01*
X139166533Y-99576100D02*
X139133199Y-99542766D01*
X139133199Y-99542766D02*
X139066533Y-99509433D01*
X145029175Y-91025833D02*
X144982035Y-91025833D01*
X144982035Y-91025833D02*
X144887754Y-90978692D01*
X144887754Y-90978692D02*
X144840613Y-90931552D01*
X144840613Y-90931552D02*
X144793473Y-90837271D01*
X144793473Y-90837271D02*
X144793473Y-90742990D01*
X144793473Y-90742990D02*
X144817043Y-90672279D01*
X144817043Y-90672279D02*
X144887754Y-90554428D01*
X144887754Y-90554428D02*
X144958464Y-90483718D01*
X144958464Y-90483718D02*
X145076316Y-90413007D01*
X145076316Y-90413007D02*
X145147026Y-90389437D01*
X145147026Y-90389437D02*
X145241307Y-90389437D01*
X145241307Y-90389437D02*
X145335588Y-90436577D01*
X145335588Y-90436577D02*
X145382728Y-90483718D01*
X145382728Y-90483718D02*
X145429869Y-90577999D01*
X145429869Y-90577999D02*
X145429869Y-90625139D01*
X145453439Y-91544378D02*
X145170596Y-91261535D01*
X145312018Y-91402956D02*
X145806993Y-90907982D01*
X145806993Y-90907982D02*
X145689141Y-90931552D01*
X145689141Y-90931552D02*
X145594861Y-90931552D01*
X145594861Y-90931552D02*
X145524150Y-90907982D01*
X142468666Y-76959033D02*
X142468666Y-77525700D01*
X142468666Y-77525700D02*
X142502000Y-77592366D01*
X142502000Y-77592366D02*
X142535333Y-77625700D01*
X142535333Y-77625700D02*
X142602000Y-77659033D01*
X142602000Y-77659033D02*
X142735333Y-77659033D01*
X142735333Y-77659033D02*
X142802000Y-77625700D01*
X142802000Y-77625700D02*
X142835333Y-77592366D01*
X142835333Y-77592366D02*
X142868666Y-77525700D01*
X142868666Y-77525700D02*
X142868666Y-76959033D01*
X143501999Y-77192366D02*
X143501999Y-77659033D01*
X143335333Y-76925700D02*
X143168666Y-77425700D01*
X143168666Y-77425700D02*
X143601999Y-77425700D01*
X148379982Y-68651466D02*
X148779982Y-68651466D01*
X148579982Y-68651466D02*
X148579982Y-69351466D01*
X148579982Y-69351466D02*
X148646649Y-69251466D01*
X148646649Y-69251466D02*
X148713316Y-69184800D01*
X148713316Y-69184800D02*
X148779982Y-69151466D01*
X143523472Y-85964130D02*
X143476332Y-85964130D01*
X143476332Y-85964130D02*
X143382051Y-85916990D01*
X143382051Y-85916990D02*
X143334911Y-85869849D01*
X143334911Y-85869849D02*
X143287770Y-85775568D01*
X143287770Y-85775568D02*
X143287770Y-85681287D01*
X143287770Y-85681287D02*
X143311340Y-85610577D01*
X143311340Y-85610577D02*
X143382051Y-85492726D01*
X143382051Y-85492726D02*
X143452762Y-85422015D01*
X143452762Y-85422015D02*
X143570613Y-85351304D01*
X143570613Y-85351304D02*
X143641323Y-85327734D01*
X143641323Y-85327734D02*
X143735604Y-85327734D01*
X143735604Y-85327734D02*
X143829885Y-85374874D01*
X143829885Y-85374874D02*
X143877026Y-85422015D01*
X143877026Y-85422015D02*
X143924166Y-85516296D01*
X143924166Y-85516296D02*
X143924166Y-85563436D01*
X143947736Y-86482675D02*
X143664894Y-86199832D01*
X143806315Y-86341254D02*
X144301290Y-85846279D01*
X144301290Y-85846279D02*
X144183439Y-85869849D01*
X144183439Y-85869849D02*
X144089158Y-85869849D01*
X144089158Y-85869849D02*
X144018447Y-85846279D01*
X144584133Y-86223403D02*
X144631273Y-86223403D01*
X144631273Y-86223403D02*
X144701984Y-86246973D01*
X144701984Y-86246973D02*
X144819835Y-86364824D01*
X144819835Y-86364824D02*
X144843405Y-86435535D01*
X144843405Y-86435535D02*
X144843405Y-86482675D01*
X144843405Y-86482675D02*
X144819835Y-86553386D01*
X144819835Y-86553386D02*
X144772695Y-86600526D01*
X144772695Y-86600526D02*
X144678414Y-86647667D01*
X144678414Y-86647667D02*
X144112728Y-86647667D01*
X144112728Y-86647667D02*
X144419141Y-86954080D01*
X144158973Y-96571964D02*
X143758279Y-96501254D01*
X143876131Y-96854807D02*
X143381156Y-96359832D01*
X143381156Y-96359832D02*
X143569718Y-96171271D01*
X143569718Y-96171271D02*
X143640428Y-96147700D01*
X143640428Y-96147700D02*
X143687569Y-96147700D01*
X143687569Y-96147700D02*
X143758279Y-96171271D01*
X143758279Y-96171271D02*
X143828990Y-96241981D01*
X143828990Y-96241981D02*
X143852560Y-96312692D01*
X143852560Y-96312692D02*
X143852560Y-96359832D01*
X143852560Y-96359832D02*
X143828990Y-96430543D01*
X143828990Y-96430543D02*
X143640428Y-96619105D01*
X144253254Y-95817717D02*
X144583237Y-96147700D01*
X143946841Y-95747006D02*
X144182543Y-96218411D01*
X144182543Y-96218411D02*
X144488956Y-95911998D01*
X139695175Y-96867833D02*
X139648035Y-96867833D01*
X139648035Y-96867833D02*
X139553754Y-96820692D01*
X139553754Y-96820692D02*
X139506613Y-96773552D01*
X139506613Y-96773552D02*
X139459473Y-96679271D01*
X139459473Y-96679271D02*
X139459473Y-96584990D01*
X139459473Y-96584990D02*
X139483043Y-96514279D01*
X139483043Y-96514279D02*
X139553754Y-96396428D01*
X139553754Y-96396428D02*
X139624464Y-96325718D01*
X139624464Y-96325718D02*
X139742316Y-96255007D01*
X139742316Y-96255007D02*
X139813026Y-96231437D01*
X139813026Y-96231437D02*
X139907307Y-96231437D01*
X139907307Y-96231437D02*
X140001588Y-96278577D01*
X140001588Y-96278577D02*
X140048728Y-96325718D01*
X140048728Y-96325718D02*
X140095869Y-96419999D01*
X140095869Y-96419999D02*
X140095869Y-96467139D01*
X140284431Y-96655701D02*
X140331571Y-96655701D01*
X140331571Y-96655701D02*
X140402282Y-96679271D01*
X140402282Y-96679271D02*
X140520133Y-96797122D01*
X140520133Y-96797122D02*
X140543703Y-96867833D01*
X140543703Y-96867833D02*
X140543703Y-96914973D01*
X140543703Y-96914973D02*
X140520133Y-96985684D01*
X140520133Y-96985684D02*
X140472993Y-97032824D01*
X140472993Y-97032824D02*
X140378712Y-97079965D01*
X140378712Y-97079965D02*
X139813026Y-97079965D01*
X139813026Y-97079965D02*
X140119439Y-97386378D01*
X156652133Y-96023233D02*
X156418800Y-95689900D01*
X156252133Y-96023233D02*
X156252133Y-95323233D01*
X156252133Y-95323233D02*
X156518800Y-95323233D01*
X156518800Y-95323233D02*
X156585467Y-95356566D01*
X156585467Y-95356566D02*
X156618800Y-95389900D01*
X156618800Y-95389900D02*
X156652133Y-95456566D01*
X156652133Y-95456566D02*
X156652133Y-95556566D01*
X156652133Y-95556566D02*
X156618800Y-95623233D01*
X156618800Y-95623233D02*
X156585467Y-95656566D01*
X156585467Y-95656566D02*
X156518800Y-95689900D01*
X156518800Y-95689900D02*
X156252133Y-95689900D01*
X157318800Y-96023233D02*
X156918800Y-96023233D01*
X157118800Y-96023233D02*
X157118800Y-95323233D01*
X157118800Y-95323233D02*
X157052133Y-95423233D01*
X157052133Y-95423233D02*
X156985467Y-95489900D01*
X156985467Y-95489900D02*
X156918800Y-95523233D01*
X151546930Y-96303327D02*
X151546930Y-96350467D01*
X151546930Y-96350467D02*
X151499790Y-96444748D01*
X151499790Y-96444748D02*
X151452649Y-96491888D01*
X151452649Y-96491888D02*
X151358368Y-96539029D01*
X151358368Y-96539029D02*
X151264087Y-96539029D01*
X151264087Y-96539029D02*
X151193377Y-96515459D01*
X151193377Y-96515459D02*
X151075526Y-96444748D01*
X151075526Y-96444748D02*
X151004815Y-96374037D01*
X151004815Y-96374037D02*
X150934104Y-96256186D01*
X150934104Y-96256186D02*
X150910534Y-96185476D01*
X150910534Y-96185476D02*
X150910534Y-96091195D01*
X150910534Y-96091195D02*
X150957674Y-95996914D01*
X150957674Y-95996914D02*
X151004815Y-95949773D01*
X151004815Y-95949773D02*
X151099096Y-95902633D01*
X151099096Y-95902633D02*
X151146236Y-95902633D01*
X152065475Y-95879063D02*
X151782632Y-96161905D01*
X151924054Y-96020484D02*
X151429079Y-95525509D01*
X151429079Y-95525509D02*
X151452649Y-95643360D01*
X151452649Y-95643360D02*
X151452649Y-95737641D01*
X151452649Y-95737641D02*
X151429079Y-95808352D01*
X151994765Y-94959824D02*
X151900484Y-95054104D01*
X151900484Y-95054104D02*
X151876913Y-95124815D01*
X151876913Y-95124815D02*
X151876913Y-95171956D01*
X151876913Y-95171956D02*
X151900484Y-95289807D01*
X151900484Y-95289807D02*
X151971194Y-95407658D01*
X151971194Y-95407658D02*
X152159756Y-95596220D01*
X152159756Y-95596220D02*
X152230467Y-95619790D01*
X152230467Y-95619790D02*
X152277607Y-95619790D01*
X152277607Y-95619790D02*
X152348318Y-95596220D01*
X152348318Y-95596220D02*
X152442599Y-95501939D01*
X152442599Y-95501939D02*
X152466169Y-95431228D01*
X152466169Y-95431228D02*
X152466169Y-95384088D01*
X152466169Y-95384088D02*
X152442599Y-95313377D01*
X152442599Y-95313377D02*
X152324748Y-95195526D01*
X152324748Y-95195526D02*
X152254037Y-95171956D01*
X152254037Y-95171956D02*
X152206897Y-95171956D01*
X152206897Y-95171956D02*
X152136186Y-95195526D01*
X152136186Y-95195526D02*
X152041905Y-95289807D01*
X152041905Y-95289807D02*
X152018335Y-95360517D01*
X152018335Y-95360517D02*
X152018335Y-95407658D01*
X152018335Y-95407658D02*
X152041905Y-95478369D01*
X151496130Y-99960927D02*
X151496130Y-100008067D01*
X151496130Y-100008067D02*
X151448990Y-100102348D01*
X151448990Y-100102348D02*
X151401849Y-100149488D01*
X151401849Y-100149488D02*
X151307568Y-100196629D01*
X151307568Y-100196629D02*
X151213287Y-100196629D01*
X151213287Y-100196629D02*
X151142577Y-100173059D01*
X151142577Y-100173059D02*
X151024726Y-100102348D01*
X151024726Y-100102348D02*
X150954015Y-100031637D01*
X150954015Y-100031637D02*
X150883304Y-99913786D01*
X150883304Y-99913786D02*
X150859734Y-99843076D01*
X150859734Y-99843076D02*
X150859734Y-99748795D01*
X150859734Y-99748795D02*
X150906874Y-99654514D01*
X150906874Y-99654514D02*
X150954015Y-99607373D01*
X150954015Y-99607373D02*
X151048296Y-99560233D01*
X151048296Y-99560233D02*
X151095436Y-99560233D01*
X152014675Y-99536663D02*
X151731832Y-99819505D01*
X151873254Y-99678084D02*
X151378279Y-99183109D01*
X151378279Y-99183109D02*
X151401849Y-99300960D01*
X151401849Y-99300960D02*
X151401849Y-99395241D01*
X151401849Y-99395241D02*
X151378279Y-99465952D01*
X151967535Y-98593853D02*
X151731833Y-98829556D01*
X151731833Y-98829556D02*
X151943965Y-99088828D01*
X151943965Y-99088828D02*
X151943965Y-99041688D01*
X151943965Y-99041688D02*
X151967535Y-98970977D01*
X151967535Y-98970977D02*
X152085386Y-98853126D01*
X152085386Y-98853126D02*
X152156097Y-98829556D01*
X152156097Y-98829556D02*
X152203237Y-98829556D01*
X152203237Y-98829556D02*
X152273948Y-98853126D01*
X152273948Y-98853126D02*
X152391799Y-98970977D01*
X152391799Y-98970977D02*
X152415369Y-99041688D01*
X152415369Y-99041688D02*
X152415369Y-99088828D01*
X152415369Y-99088828D02*
X152391799Y-99159539D01*
X152391799Y-99159539D02*
X152273948Y-99277390D01*
X152273948Y-99277390D02*
X152203237Y-99300960D01*
X152203237Y-99300960D02*
X152156097Y-99300960D01*
X157592130Y-94220527D02*
X157592130Y-94267667D01*
X157592130Y-94267667D02*
X157544990Y-94361948D01*
X157544990Y-94361948D02*
X157497849Y-94409088D01*
X157497849Y-94409088D02*
X157403568Y-94456229D01*
X157403568Y-94456229D02*
X157309287Y-94456229D01*
X157309287Y-94456229D02*
X157238577Y-94432659D01*
X157238577Y-94432659D02*
X157120726Y-94361948D01*
X157120726Y-94361948D02*
X157050015Y-94291237D01*
X157050015Y-94291237D02*
X156979304Y-94173386D01*
X156979304Y-94173386D02*
X156955734Y-94102676D01*
X156955734Y-94102676D02*
X156955734Y-94008395D01*
X156955734Y-94008395D02*
X157002874Y-93914114D01*
X157002874Y-93914114D02*
X157050015Y-93866973D01*
X157050015Y-93866973D02*
X157144296Y-93819833D01*
X157144296Y-93819833D02*
X157191436Y-93819833D01*
X158110675Y-93796263D02*
X157827832Y-94079105D01*
X157969254Y-93937684D02*
X157474279Y-93442709D01*
X157474279Y-93442709D02*
X157497849Y-93560560D01*
X157497849Y-93560560D02*
X157497849Y-93654841D01*
X157497849Y-93654841D02*
X157474279Y-93725552D01*
X157922113Y-92994875D02*
X157969254Y-92947734D01*
X157969254Y-92947734D02*
X158039965Y-92924164D01*
X158039965Y-92924164D02*
X158087105Y-92924164D01*
X158087105Y-92924164D02*
X158157816Y-92947734D01*
X158157816Y-92947734D02*
X158275667Y-93018445D01*
X158275667Y-93018445D02*
X158393518Y-93136296D01*
X158393518Y-93136296D02*
X158464229Y-93254147D01*
X158464229Y-93254147D02*
X158487799Y-93324858D01*
X158487799Y-93324858D02*
X158487799Y-93371998D01*
X158487799Y-93371998D02*
X158464229Y-93442709D01*
X158464229Y-93442709D02*
X158417088Y-93489849D01*
X158417088Y-93489849D02*
X158346378Y-93513420D01*
X158346378Y-93513420D02*
X158299237Y-93513420D01*
X158299237Y-93513420D02*
X158228526Y-93489849D01*
X158228526Y-93489849D02*
X158110675Y-93419139D01*
X158110675Y-93419139D02*
X157992824Y-93301288D01*
X157992824Y-93301288D02*
X157922113Y-93183436D01*
X157922113Y-93183436D02*
X157898543Y-93112726D01*
X157898543Y-93112726D02*
X157898543Y-93065585D01*
X157898543Y-93065585D02*
X157922113Y-92994875D01*
X141869333Y-89978033D02*
X141636000Y-89644700D01*
X141469333Y-89978033D02*
X141469333Y-89278033D01*
X141469333Y-89278033D02*
X141736000Y-89278033D01*
X141736000Y-89278033D02*
X141802667Y-89311366D01*
X141802667Y-89311366D02*
X141836000Y-89344700D01*
X141836000Y-89344700D02*
X141869333Y-89411366D01*
X141869333Y-89411366D02*
X141869333Y-89511366D01*
X141869333Y-89511366D02*
X141836000Y-89578033D01*
X141836000Y-89578033D02*
X141802667Y-89611366D01*
X141802667Y-89611366D02*
X141736000Y-89644700D01*
X141736000Y-89644700D02*
X141469333Y-89644700D01*
X142502667Y-89278033D02*
X142169333Y-89278033D01*
X142169333Y-89278033D02*
X142136000Y-89611366D01*
X142136000Y-89611366D02*
X142169333Y-89578033D01*
X142169333Y-89578033D02*
X142236000Y-89544700D01*
X142236000Y-89544700D02*
X142402667Y-89544700D01*
X142402667Y-89544700D02*
X142469333Y-89578033D01*
X142469333Y-89578033D02*
X142502667Y-89611366D01*
X142502667Y-89611366D02*
X142536000Y-89678033D01*
X142536000Y-89678033D02*
X142536000Y-89844700D01*
X142536000Y-89844700D02*
X142502667Y-89911366D01*
X142502667Y-89911366D02*
X142469333Y-89944700D01*
X142469333Y-89944700D02*
X142402667Y-89978033D01*
X142402667Y-89978033D02*
X142236000Y-89978033D01*
X142236000Y-89978033D02*
X142169333Y-89944700D01*
X142169333Y-89944700D02*
X142136000Y-89911366D01*
X153810472Y-80376130D02*
X153763332Y-80376130D01*
X153763332Y-80376130D02*
X153669051Y-80328990D01*
X153669051Y-80328990D02*
X153621911Y-80281849D01*
X153621911Y-80281849D02*
X153574770Y-80187568D01*
X153574770Y-80187568D02*
X153574770Y-80093287D01*
X153574770Y-80093287D02*
X153598340Y-80022577D01*
X153598340Y-80022577D02*
X153669051Y-79904726D01*
X153669051Y-79904726D02*
X153739762Y-79834015D01*
X153739762Y-79834015D02*
X153857613Y-79763304D01*
X153857613Y-79763304D02*
X153928323Y-79739734D01*
X153928323Y-79739734D02*
X154022604Y-79739734D01*
X154022604Y-79739734D02*
X154116885Y-79786874D01*
X154116885Y-79786874D02*
X154164026Y-79834015D01*
X154164026Y-79834015D02*
X154211166Y-79928296D01*
X154211166Y-79928296D02*
X154211166Y-79975436D01*
X154234736Y-80894675D02*
X153951894Y-80611832D01*
X154093315Y-80753254D02*
X154588290Y-80258279D01*
X154588290Y-80258279D02*
X154470439Y-80281849D01*
X154470439Y-80281849D02*
X154376158Y-80281849D01*
X154376158Y-80281849D02*
X154305447Y-80258279D01*
X154706141Y-81366080D02*
X154423298Y-81083237D01*
X154564720Y-81224658D02*
X155059695Y-80729684D01*
X155059695Y-80729684D02*
X154941843Y-80753254D01*
X154941843Y-80753254D02*
X154847563Y-80753254D01*
X154847563Y-80753254D02*
X154776852Y-80729684D01*
X144195866Y-99311033D02*
X144195866Y-99877700D01*
X144195866Y-99877700D02*
X144229200Y-99944366D01*
X144229200Y-99944366D02*
X144262533Y-99977700D01*
X144262533Y-99977700D02*
X144329200Y-100011033D01*
X144329200Y-100011033D02*
X144462533Y-100011033D01*
X144462533Y-100011033D02*
X144529200Y-99977700D01*
X144529200Y-99977700D02*
X144562533Y-99944366D01*
X144562533Y-99944366D02*
X144595866Y-99877700D01*
X144595866Y-99877700D02*
X144595866Y-99311033D01*
X144962533Y-100011033D02*
X145095866Y-100011033D01*
X145095866Y-100011033D02*
X145162533Y-99977700D01*
X145162533Y-99977700D02*
X145195866Y-99944366D01*
X145195866Y-99944366D02*
X145262533Y-99844366D01*
X145262533Y-99844366D02*
X145295866Y-99711033D01*
X145295866Y-99711033D02*
X145295866Y-99444366D01*
X145295866Y-99444366D02*
X145262533Y-99377700D01*
X145262533Y-99377700D02*
X145229199Y-99344366D01*
X145229199Y-99344366D02*
X145162533Y-99311033D01*
X145162533Y-99311033D02*
X145029199Y-99311033D01*
X145029199Y-99311033D02*
X144962533Y-99344366D01*
X144962533Y-99344366D02*
X144929199Y-99377700D01*
X144929199Y-99377700D02*
X144895866Y-99444366D01*
X144895866Y-99444366D02*
X144895866Y-99611033D01*
X144895866Y-99611033D02*
X144929199Y-99677700D01*
X144929199Y-99677700D02*
X144962533Y-99711033D01*
X144962533Y-99711033D02*
X145029199Y-99744366D01*
X145029199Y-99744366D02*
X145162533Y-99744366D01*
X145162533Y-99744366D02*
X145229199Y-99711033D01*
X145229199Y-99711033D02*
X145262533Y-99677700D01*
X145262533Y-99677700D02*
X145295866Y-99611033D01*
X146720733Y-78278166D02*
X146687400Y-78311500D01*
X146687400Y-78311500D02*
X146587400Y-78344833D01*
X146587400Y-78344833D02*
X146520733Y-78344833D01*
X146520733Y-78344833D02*
X146420733Y-78311500D01*
X146420733Y-78311500D02*
X146354067Y-78244833D01*
X146354067Y-78244833D02*
X146320733Y-78178166D01*
X146320733Y-78178166D02*
X146287400Y-78044833D01*
X146287400Y-78044833D02*
X146287400Y-77944833D01*
X146287400Y-77944833D02*
X146320733Y-77811500D01*
X146320733Y-77811500D02*
X146354067Y-77744833D01*
X146354067Y-77744833D02*
X146420733Y-77678166D01*
X146420733Y-77678166D02*
X146520733Y-77644833D01*
X146520733Y-77644833D02*
X146587400Y-77644833D01*
X146587400Y-77644833D02*
X146687400Y-77678166D01*
X146687400Y-77678166D02*
X146720733Y-77711500D01*
X146954067Y-77644833D02*
X147387400Y-77644833D01*
X147387400Y-77644833D02*
X147154067Y-77911500D01*
X147154067Y-77911500D02*
X147254067Y-77911500D01*
X147254067Y-77911500D02*
X147320733Y-77944833D01*
X147320733Y-77944833D02*
X147354067Y-77978166D01*
X147354067Y-77978166D02*
X147387400Y-78044833D01*
X147387400Y-78044833D02*
X147387400Y-78211500D01*
X147387400Y-78211500D02*
X147354067Y-78278166D01*
X147354067Y-78278166D02*
X147320733Y-78311500D01*
X147320733Y-78311500D02*
X147254067Y-78344833D01*
X147254067Y-78344833D02*
X147054067Y-78344833D01*
X147054067Y-78344833D02*
X146987400Y-78311500D01*
X146987400Y-78311500D02*
X146954067Y-78278166D01*
X157835665Y-88516033D02*
X157835665Y-89082700D01*
X157835665Y-89082700D02*
X157868999Y-89149366D01*
X157868999Y-89149366D02*
X157902332Y-89182700D01*
X157902332Y-89182700D02*
X157968999Y-89216033D01*
X157968999Y-89216033D02*
X158102332Y-89216033D01*
X158102332Y-89216033D02*
X158168999Y-89182700D01*
X158168999Y-89182700D02*
X158202332Y-89149366D01*
X158202332Y-89149366D02*
X158235665Y-89082700D01*
X158235665Y-89082700D02*
X158235665Y-88516033D01*
X158535665Y-88582700D02*
X158568998Y-88549366D01*
X158568998Y-88549366D02*
X158635665Y-88516033D01*
X158635665Y-88516033D02*
X158802332Y-88516033D01*
X158802332Y-88516033D02*
X158868998Y-88549366D01*
X158868998Y-88549366D02*
X158902332Y-88582700D01*
X158902332Y-88582700D02*
X158935665Y-88649366D01*
X158935665Y-88649366D02*
X158935665Y-88716033D01*
X158935665Y-88716033D02*
X158902332Y-88816033D01*
X158902332Y-88816033D02*
X158502332Y-89216033D01*
X158502332Y-89216033D02*
X158935665Y-89216033D01*
X137532332Y-95947033D02*
X137532332Y-95247033D01*
X137532332Y-95247033D02*
X137698999Y-95247033D01*
X137698999Y-95247033D02*
X137798999Y-95280366D01*
X137798999Y-95280366D02*
X137865666Y-95347033D01*
X137865666Y-95347033D02*
X137898999Y-95413700D01*
X137898999Y-95413700D02*
X137932332Y-95547033D01*
X137932332Y-95547033D02*
X137932332Y-95647033D01*
X137932332Y-95647033D02*
X137898999Y-95780366D01*
X137898999Y-95780366D02*
X137865666Y-95847033D01*
X137865666Y-95847033D02*
X137798999Y-95913700D01*
X137798999Y-95913700D02*
X137698999Y-95947033D01*
X137698999Y-95947033D02*
X137532332Y-95947033D01*
X138598999Y-95947033D02*
X138198999Y-95947033D01*
X138398999Y-95947033D02*
X138398999Y-95247033D01*
X138398999Y-95247033D02*
X138332332Y-95347033D01*
X138332332Y-95347033D02*
X138265666Y-95413700D01*
X138265666Y-95413700D02*
X138198999Y-95447033D01*
D11*
%TO.C,Y1*%
X145379740Y-93681713D02*
X143046287Y-91348260D01*
X143046287Y-91348260D02*
X140217860Y-94176687D01*
%TO.C,R3*%
X155462500Y-97730542D02*
X155462500Y-98205058D01*
X154417500Y-97730542D02*
X154417500Y-98205058D01*
%TO.C,C9*%
X149354830Y-96578019D02*
X149156019Y-96776830D01*
X148633581Y-95856770D02*
X148434770Y-96055581D01*
%TO.C,R2*%
X153938500Y-97730542D02*
X153938500Y-98205058D01*
X152893500Y-97730542D02*
X152893500Y-98205058D01*
%TO.C,C4*%
X156974000Y-97827220D02*
X156974000Y-98108380D01*
X155954000Y-97827220D02*
X155954000Y-98108380D01*
%TO.C,C8*%
X148288030Y-95511219D02*
X148089219Y-95710030D01*
X147566781Y-94789970D02*
X147367970Y-94988781D01*
%TO.C,C13*%
X145113030Y-88587981D02*
X144914219Y-88389170D01*
X144391781Y-89309230D02*
X144192970Y-89110419D01*
D12*
%TO.C,kibuzzard-667D9F0F*%
G36*
X158015253Y-83625316D02*
G01*
X158059019Y-83631808D01*
X158101938Y-83642559D01*
X158143596Y-83657465D01*
X158183593Y-83676382D01*
X158221543Y-83699128D01*
X158257081Y-83725485D01*
X158289864Y-83755198D01*
X158319577Y-83787981D01*
X158345934Y-83823519D01*
X158368680Y-83861469D01*
X158387597Y-83901465D01*
X158402503Y-83943124D01*
X158413253Y-83986043D01*
X158419746Y-84029809D01*
X158421917Y-84074000D01*
X158419746Y-84118191D01*
X158413253Y-84161957D01*
X158402503Y-84204876D01*
X158387597Y-84246535D01*
X158368680Y-84286531D01*
X158345934Y-84324481D01*
X158319577Y-84360019D01*
X158289864Y-84392802D01*
X158257081Y-84422515D01*
X158221543Y-84448872D01*
X158183593Y-84471618D01*
X158143596Y-84490535D01*
X158101938Y-84505441D01*
X158059019Y-84516192D01*
X158015253Y-84522684D01*
X157971062Y-84524855D01*
X157970974Y-84524855D01*
X157542256Y-84524855D01*
X156786359Y-84524855D01*
X155973026Y-84524855D01*
X155972938Y-84524855D01*
X155928747Y-84522684D01*
X155884981Y-84516192D01*
X155842062Y-84505441D01*
X155800403Y-84490535D01*
X155760407Y-84471618D01*
X155722457Y-84448872D01*
X155688921Y-84424000D01*
X155973026Y-84424000D01*
X156029564Y-84422846D01*
X156067897Y-84422462D01*
X156275077Y-84424000D01*
X156786359Y-84424000D01*
X156865590Y-84423231D01*
X156912513Y-84422974D01*
X157017641Y-84424000D01*
X157017983Y-84361123D01*
X157019009Y-84290097D01*
X157020718Y-84210923D01*
X157022513Y-84147317D01*
X157024585Y-84088103D01*
X157129949Y-84088103D01*
X157136103Y-84161051D01*
X157154564Y-84227077D01*
X157187705Y-84286756D01*
X157237897Y-84340667D01*
X157301808Y-84384641D01*
X157376103Y-84414513D01*
X157457385Y-84431628D01*
X157542256Y-84437333D01*
X157628282Y-84431500D01*
X157710974Y-84414000D01*
X157786359Y-84383936D01*
X157850462Y-84340410D01*
X157902064Y-84284705D01*
X157939949Y-84218103D01*
X157963218Y-84142526D01*
X157970974Y-84059897D01*
X157963923Y-83982590D01*
X157942769Y-83914769D01*
X157907385Y-83855346D01*
X157857641Y-83803231D01*
X157795974Y-83761372D01*
X157724820Y-83732718D01*
X157647385Y-83716179D01*
X157566872Y-83710667D01*
X157484279Y-83715966D01*
X157407442Y-83731863D01*
X157336359Y-83758359D01*
X157273738Y-83794285D01*
X157222285Y-83838473D01*
X157182000Y-83890923D01*
X157153083Y-83950553D01*
X157135732Y-84016279D01*
X157129949Y-84088103D01*
X157024585Y-84088103D01*
X157024820Y-84081372D01*
X157027641Y-84013087D01*
X157030974Y-83942462D01*
X157035134Y-83872376D01*
X157040091Y-83799556D01*
X157045846Y-83724000D01*
X156970077Y-83724769D01*
X156935590Y-83725026D01*
X156890462Y-83724769D01*
X156815590Y-83724000D01*
X156816103Y-83790154D01*
X156815638Y-83848631D01*
X156814244Y-83913038D01*
X156811920Y-83983375D01*
X156808667Y-84059641D01*
X156804484Y-84141837D01*
X156799372Y-84229962D01*
X156793330Y-84324016D01*
X156786359Y-84424000D01*
X156275077Y-84424000D01*
X156341615Y-84422462D01*
X156400718Y-84417846D01*
X156479179Y-84402974D01*
X156536103Y-84377333D01*
X156603538Y-84324256D01*
X156631167Y-84290218D01*
X156655077Y-84250154D01*
X156674692Y-84204449D01*
X156689436Y-84153487D01*
X156698667Y-84098808D01*
X156701744Y-84041949D01*
X156697769Y-83983808D01*
X156685846Y-83927333D01*
X156666359Y-83875218D01*
X156639692Y-83830154D01*
X156605782Y-83792590D01*
X156564564Y-83762974D01*
X156517962Y-83741692D01*
X156467897Y-83729128D01*
X156411872Y-83722974D01*
X156347385Y-83720923D01*
X156285333Y-83721500D01*
X156219179Y-83723231D01*
X156157513Y-83724962D01*
X156108923Y-83725538D01*
X156061231Y-83725154D01*
X156005333Y-83724000D01*
X156005333Y-83784000D01*
X156004820Y-83828615D01*
X156003282Y-83889299D01*
X156000718Y-83966051D01*
X155997641Y-84045282D01*
X155994564Y-84116821D01*
X155991487Y-84180667D01*
X155988410Y-84236821D01*
X155984877Y-84288843D01*
X155979749Y-84351236D01*
X155973026Y-84424000D01*
X155688921Y-84424000D01*
X155686919Y-84422515D01*
X155654136Y-84392802D01*
X155624423Y-84360019D01*
X155598066Y-84324481D01*
X155575320Y-84286531D01*
X155556403Y-84246535D01*
X155541497Y-84204876D01*
X155530747Y-84161957D01*
X155524254Y-84118191D01*
X155522083Y-84074000D01*
X155524254Y-84029809D01*
X155530747Y-83986043D01*
X155541497Y-83943124D01*
X155556403Y-83901465D01*
X155575320Y-83861469D01*
X155598066Y-83823519D01*
X155624423Y-83787981D01*
X155654136Y-83755198D01*
X155686919Y-83725485D01*
X155722457Y-83699128D01*
X155760407Y-83676382D01*
X155800403Y-83657465D01*
X155842062Y-83642559D01*
X155884981Y-83631808D01*
X155928747Y-83625316D01*
X155972938Y-83623145D01*
X155973026Y-83623145D01*
X157970974Y-83623145D01*
X157971062Y-83623145D01*
X158015253Y-83625316D01*
G37*
G36*
X157610718Y-83871436D02*
G01*
X157658154Y-83890667D01*
X157697385Y-83921500D01*
X157725846Y-83962718D01*
X157743154Y-84011244D01*
X157748923Y-84064000D01*
X157742705Y-84119192D01*
X157724051Y-84171949D01*
X157693538Y-84217718D01*
X157651744Y-84251949D01*
X157601936Y-84273295D01*
X157547385Y-84280410D01*
X157495462Y-84274064D01*
X157446359Y-84255026D01*
X157404756Y-84224705D01*
X157375333Y-84184513D01*
X157357833Y-84137077D01*
X157352000Y-84085026D01*
X157358410Y-84027910D01*
X157377641Y-83974513D01*
X157408795Y-83928615D01*
X157450974Y-83894000D01*
X157501487Y-83872269D01*
X157557641Y-83865026D01*
X157610718Y-83871436D01*
G37*
G36*
X156355654Y-83875282D02*
G01*
X156398923Y-83887590D01*
X156457641Y-83945795D01*
X156474179Y-83992397D01*
X156479692Y-84048615D01*
X156475974Y-84097782D01*
X156464820Y-84145795D01*
X156445910Y-84188936D01*
X156418923Y-84223487D01*
X156346872Y-84262974D01*
X156303026Y-84269897D01*
X156253538Y-84272205D01*
X156194564Y-84269641D01*
X156212000Y-83874256D01*
X156299179Y-83871179D01*
X156355654Y-83875282D01*
G37*
%TO.C,G\u002A\u002A\u002A*%
G36*
X156493187Y-79274827D02*
G01*
X156494048Y-79289543D01*
X156483835Y-79315399D01*
X156463076Y-79353383D01*
X156458378Y-79361385D01*
X156436163Y-79400145D01*
X156412640Y-79443054D01*
X156392587Y-79481379D01*
X156391075Y-79484385D01*
X156365606Y-79527597D01*
X156334961Y-79568276D01*
X156318569Y-79586000D01*
X156276481Y-79635335D01*
X156244490Y-79689251D01*
X156222866Y-79745402D01*
X156211880Y-79801441D01*
X156211802Y-79855023D01*
X156222901Y-79903799D01*
X156245449Y-79945424D01*
X156273968Y-79973542D01*
X156289962Y-79984946D01*
X156305020Y-79994144D01*
X156321080Y-80001369D01*
X156340075Y-80006854D01*
X156363942Y-80010832D01*
X156394617Y-80013538D01*
X156434036Y-80015204D01*
X156484132Y-80016064D01*
X156546844Y-80016352D01*
X156624106Y-80016300D01*
X156628482Y-80016293D01*
X156703728Y-80016099D01*
X156764953Y-80015704D01*
X156814721Y-80014960D01*
X156855598Y-80013716D01*
X156890146Y-80011823D01*
X156920931Y-80009131D01*
X156950517Y-80005492D01*
X156981469Y-80000756D01*
X157016349Y-79994773D01*
X157025456Y-79993158D01*
X157087479Y-79981594D01*
X157153512Y-79968338D01*
X157221535Y-79953884D01*
X157289528Y-79938724D01*
X157355473Y-79923351D01*
X157417350Y-79908259D01*
X157473140Y-79893940D01*
X157520824Y-79880887D01*
X157558382Y-79869594D01*
X157583795Y-79860552D01*
X157595044Y-79854256D01*
X157595167Y-79854074D01*
X157594957Y-79843435D01*
X157590728Y-79820729D01*
X157583269Y-79789763D01*
X157577366Y-79768083D01*
X157567117Y-79730202D01*
X157561753Y-79704837D01*
X157560857Y-79688786D01*
X157564015Y-79678849D01*
X157565538Y-79676765D01*
X157570122Y-79673376D01*
X157578726Y-79670680D01*
X157592964Y-79668618D01*
X157614453Y-79667135D01*
X157644809Y-79666176D01*
X157685649Y-79665684D01*
X157738589Y-79665602D01*
X157805246Y-79665875D01*
X157867244Y-79666294D01*
X157944336Y-79666889D01*
X158006459Y-79667474D01*
X158055229Y-79668158D01*
X158092261Y-79669049D01*
X158119172Y-79670256D01*
X158137576Y-79671889D01*
X158149091Y-79674056D01*
X158155330Y-79676866D01*
X158157911Y-79680428D01*
X158158448Y-79684851D01*
X158158453Y-79685920D01*
X158152548Y-79697374D01*
X158134946Y-79720222D01*
X158105819Y-79754268D01*
X158065336Y-79799320D01*
X158013668Y-79855184D01*
X157950986Y-79921666D01*
X157948455Y-79924330D01*
X157900440Y-79974626D01*
X157855846Y-80020905D01*
X157815993Y-80061831D01*
X157782200Y-80096067D01*
X157755783Y-80122279D01*
X157738064Y-80139131D01*
X157730359Y-80145287D01*
X157730296Y-80145292D01*
X157723688Y-80138225D01*
X157712137Y-80119098D01*
X157697400Y-80091021D01*
X157684608Y-80064441D01*
X157669104Y-80031277D01*
X157656252Y-80004236D01*
X157647586Y-79986518D01*
X157644704Y-79981212D01*
X157636404Y-79982752D01*
X157617350Y-79989183D01*
X157597713Y-79996725D01*
X157536472Y-80020148D01*
X157463476Y-80046236D01*
X157383048Y-80073584D01*
X157299511Y-80100790D01*
X157217189Y-80126451D01*
X157140405Y-80149163D01*
X157073483Y-80167523D01*
X157063840Y-80169998D01*
X156902356Y-80207381D01*
X156751477Y-80234663D01*
X156608845Y-80252087D01*
X156472101Y-80259896D01*
X156338889Y-80258334D01*
X156259465Y-80252981D01*
X156201703Y-80245112D01*
X156153230Y-80231318D01*
X156107135Y-80209230D01*
X156076775Y-80190369D01*
X156014869Y-80139448D01*
X155964241Y-80076405D01*
X155938155Y-80030441D01*
X155925455Y-80002875D01*
X155917250Y-79978821D01*
X155912348Y-79952731D01*
X155909555Y-79919055D01*
X155908356Y-79891852D01*
X155908510Y-79831069D01*
X155914881Y-79778729D01*
X155928882Y-79728661D01*
X155951928Y-79674693D01*
X155963347Y-79651887D01*
X156011502Y-79572188D01*
X156069732Y-79501170D01*
X156139267Y-79437847D01*
X156221339Y-79381236D01*
X156317180Y-79330352D01*
X156418861Y-79287641D01*
X156456122Y-79274863D01*
X156480721Y-79270263D01*
X156493187Y-79274827D01*
G37*
G36*
X157732158Y-78967745D02*
G01*
X157785476Y-78967754D01*
X157883412Y-78967772D01*
X157966060Y-78967893D01*
X158034718Y-78968218D01*
X158090683Y-78968851D01*
X158135252Y-78969891D01*
X158169722Y-78971441D01*
X158195392Y-78973603D01*
X158213557Y-78976478D01*
X158225516Y-78980168D01*
X158232566Y-78984774D01*
X158236004Y-78990399D01*
X158237128Y-78997144D01*
X158237232Y-79003159D01*
X158233479Y-79022093D01*
X158223714Y-79050361D01*
X158210178Y-79082910D01*
X158195113Y-79114689D01*
X158180761Y-79140645D01*
X158169652Y-79155470D01*
X158164154Y-79159559D01*
X158156460Y-79162908D01*
X158144885Y-79165621D01*
X158127745Y-79167804D01*
X158103357Y-79169561D01*
X158070034Y-79170998D01*
X158026092Y-79172219D01*
X157969848Y-79173329D01*
X157899617Y-79174434D01*
X157855134Y-79175067D01*
X157774421Y-79176098D01*
X157708608Y-79177023D01*
X157656018Y-79178298D01*
X157614977Y-79180380D01*
X157583809Y-79183725D01*
X157560837Y-79188791D01*
X157544386Y-79196033D01*
X157532781Y-79205909D01*
X157524346Y-79218875D01*
X157517404Y-79235387D01*
X157510281Y-79255903D01*
X157505184Y-79270431D01*
X157491501Y-79308116D01*
X157475442Y-79352111D01*
X157460382Y-79393168D01*
X157459775Y-79394819D01*
X157444097Y-79438353D01*
X157434096Y-79469241D01*
X157429250Y-79490219D01*
X157429035Y-79504026D01*
X157432930Y-79513396D01*
X157436368Y-79517387D01*
X157451467Y-79524025D01*
X157480953Y-79529494D01*
X157522663Y-79533674D01*
X157574433Y-79536445D01*
X157634099Y-79537690D01*
X157699496Y-79537287D01*
X157762624Y-79535370D01*
X157824214Y-79533375D01*
X157870858Y-79533702D01*
X157904115Y-79537059D01*
X157925545Y-79544151D01*
X157936709Y-79555686D01*
X157939165Y-79572369D01*
X157934474Y-79594908D01*
X157929144Y-79610799D01*
X157923472Y-79624321D01*
X157915867Y-79632604D01*
X157902290Y-79637434D01*
X157878702Y-79640593D01*
X157857406Y-79642485D01*
X157825194Y-79644464D01*
X157781776Y-79646103D01*
X157732532Y-79647245D01*
X157682839Y-79647734D01*
X157676427Y-79647741D01*
X157629832Y-79647835D01*
X157597003Y-79648408D01*
X157575116Y-79649895D01*
X157561353Y-79652731D01*
X157552893Y-79657351D01*
X157546914Y-79664192D01*
X157544264Y-79668135D01*
X157534837Y-79696280D01*
X157536440Y-79713744D01*
X157541978Y-79738959D01*
X157454638Y-79738959D01*
X157415184Y-79739869D01*
X157380543Y-79742332D01*
X157355206Y-79745951D01*
X157346141Y-79748598D01*
X157328781Y-79763611D01*
X157309959Y-79792090D01*
X157291270Y-79831202D01*
X157275741Y-79873597D01*
X157267730Y-79894506D01*
X157260320Y-79907552D01*
X157258906Y-79908837D01*
X157248474Y-79911959D01*
X157225163Y-79917350D01*
X157192414Y-79924325D01*
X157153667Y-79932196D01*
X157112365Y-79940279D01*
X157071946Y-79947887D01*
X157035853Y-79954333D01*
X157007961Y-79958869D01*
X156982579Y-79961394D01*
X156969081Y-79958858D01*
X156964002Y-79952556D01*
X156965503Y-79941598D01*
X156972269Y-79917555D01*
X156983521Y-79882784D01*
X156998479Y-79839643D01*
X157016364Y-79790491D01*
X157026700Y-79762974D01*
X157053898Y-79691091D01*
X157082258Y-79615697D01*
X157111065Y-79538726D01*
X157139605Y-79462110D01*
X157167165Y-79387785D01*
X157193031Y-79317684D01*
X157216489Y-79253741D01*
X157236824Y-79197889D01*
X157253324Y-79152064D01*
X157265275Y-79118198D01*
X157271266Y-79100434D01*
X157282520Y-79068481D01*
X157295011Y-79037629D01*
X157301203Y-79024277D01*
X157307148Y-79012075D01*
X157312638Y-79001764D01*
X157319033Y-78993186D01*
X157327694Y-78986181D01*
X157339982Y-78980592D01*
X157357258Y-78976258D01*
X157380882Y-78973021D01*
X157412216Y-78970722D01*
X157452620Y-78969203D01*
X157503455Y-78968305D01*
X157566083Y-78967868D01*
X157641863Y-78967734D01*
X157732158Y-78967745D01*
G37*
G36*
X158124661Y-78491193D02*
G01*
X158216346Y-78506511D01*
X158298805Y-78534139D01*
X158371174Y-78573870D01*
X158428152Y-78620987D01*
X158475226Y-78678830D01*
X158513267Y-78749330D01*
X158542367Y-78832806D01*
X158562619Y-78929576D01*
X158574112Y-79039957D01*
X158577064Y-79138787D01*
X158576765Y-79192492D01*
X158575340Y-79232026D01*
X158572289Y-79259795D01*
X158567116Y-79278200D01*
X158559322Y-79289646D01*
X158548409Y-79296535D01*
X158544030Y-79298221D01*
X158523950Y-79303745D01*
X158495882Y-79309665D01*
X158464279Y-79315278D01*
X158433592Y-79319883D01*
X158408272Y-79322774D01*
X158392770Y-79323251D01*
X158390208Y-79322515D01*
X158388634Y-79313220D01*
X158386984Y-79290244D01*
X158385405Y-79256491D01*
X158384042Y-79214864D01*
X158383374Y-79186590D01*
X158381701Y-79129099D01*
X158379032Y-79084093D01*
X158374932Y-79047481D01*
X158368963Y-79015171D01*
X158362219Y-78988485D01*
X158334282Y-78908025D01*
X158299225Y-78840980D01*
X158257495Y-78787947D01*
X158209542Y-78749524D01*
X158168160Y-78730099D01*
X158117789Y-78718960D01*
X158054107Y-78714984D01*
X157978703Y-78718055D01*
X157893170Y-78728060D01*
X157799099Y-78744883D01*
X157723095Y-78762104D01*
X157569710Y-78808247D01*
X157420540Y-78869758D01*
X157277016Y-78945657D01*
X157140569Y-79034962D01*
X157012631Y-79136693D01*
X156894630Y-79249868D01*
X156787999Y-79373506D01*
X156742605Y-79434405D01*
X156696242Y-79506498D01*
X156651913Y-79588102D01*
X156612248Y-79673647D01*
X156579879Y-79757567D01*
X156561537Y-79817738D01*
X156551008Y-79857061D01*
X156541450Y-79891190D01*
X156533895Y-79916538D01*
X156529378Y-79929517D01*
X156529296Y-79929687D01*
X156521790Y-79936545D01*
X156506004Y-79940847D01*
X156479853Y-79942753D01*
X156441250Y-79942426D01*
X156392491Y-79940267D01*
X156357630Y-79937534D01*
X156333849Y-79932086D01*
X156319819Y-79921417D01*
X156314212Y-79903021D01*
X156315703Y-79874390D01*
X156322963Y-79833018D01*
X156326499Y-79815653D01*
X156353092Y-79716496D01*
X156392390Y-79611564D01*
X156442788Y-79503469D01*
X156502684Y-79394820D01*
X156570472Y-79288228D01*
X156644548Y-79186303D01*
X156723308Y-79091656D01*
X156805147Y-79006897D01*
X156846852Y-78968928D01*
X156960687Y-78879416D01*
X157087826Y-78796176D01*
X157225823Y-78720284D01*
X157372232Y-78652815D01*
X157524608Y-78594846D01*
X157680506Y-78547450D01*
X157837478Y-78511704D01*
X157917068Y-78498320D01*
X158024613Y-78488394D01*
X158124661Y-78491193D01*
G37*
G36*
X158834913Y-78831137D02*
G01*
X158877267Y-78831735D01*
X158908613Y-78833029D01*
X158931739Y-78835273D01*
X158949433Y-78838724D01*
X158964483Y-78843634D01*
X158977201Y-78849111D01*
X159023022Y-78873590D01*
X159057322Y-78901178D01*
X159084961Y-78936612D01*
X159105927Y-78974569D01*
X159120601Y-79005360D01*
X159129739Y-79029371D01*
X159134645Y-79052561D01*
X159136621Y-79080891D01*
X159136971Y-79116589D01*
X159136584Y-79154157D01*
X159134494Y-79181682D01*
X159129308Y-79205191D01*
X159119631Y-79230712D01*
X159104069Y-79264275D01*
X159101658Y-79269299D01*
X159060481Y-79340854D01*
X159004679Y-79415514D01*
X158935602Y-79491924D01*
X158854600Y-79568728D01*
X158763022Y-79644572D01*
X158662216Y-79718099D01*
X158639483Y-79733464D01*
X158600198Y-79759091D01*
X158571743Y-79775945D01*
X158551594Y-79785083D01*
X158537223Y-79787563D01*
X158526105Y-79784445D01*
X158522720Y-79782368D01*
X158515809Y-79773656D01*
X158501854Y-79753021D01*
X158482338Y-79722765D01*
X158458745Y-79685189D01*
X158432557Y-79642594D01*
X158430643Y-79639448D01*
X158402781Y-79593714D01*
X158376063Y-79550033D01*
X158352382Y-79511489D01*
X158333630Y-79481162D01*
X158322222Y-79462950D01*
X158305620Y-79430111D01*
X158301703Y-79404486D01*
X158310639Y-79387483D01*
X158313063Y-79385786D01*
X158323645Y-79382103D01*
X158346919Y-79375496D01*
X158379449Y-79366903D01*
X158417792Y-79357259D01*
X158465119Y-79344723D01*
X158520117Y-79328698D01*
X158579170Y-79310378D01*
X158638667Y-79290959D01*
X158694994Y-79271636D01*
X158744537Y-79253605D01*
X158783683Y-79238061D01*
X158799532Y-79230977D01*
X158822254Y-79219396D01*
X158833778Y-79209021D01*
X158837906Y-79193983D01*
X158838440Y-79170921D01*
X158837667Y-79145921D01*
X158832774Y-79131227D01*
X158819897Y-79120558D01*
X158801440Y-79110800D01*
X158774881Y-79099909D01*
X158745762Y-79094097D01*
X158707639Y-79092170D01*
X158700872Y-79092142D01*
X158660114Y-79090544D01*
X158635450Y-79085733D01*
X158628219Y-79081195D01*
X158623632Y-79068321D01*
X158619125Y-79043145D01*
X158614968Y-79009440D01*
X158611433Y-78970978D01*
X158608788Y-78931530D01*
X158607305Y-78894869D01*
X158607254Y-78864765D01*
X158608904Y-78844992D01*
X158610907Y-78839568D01*
X158622525Y-78836348D01*
X158649376Y-78833821D01*
X158690118Y-78832054D01*
X158743412Y-78831117D01*
X158778763Y-78830980D01*
X158834913Y-78831137D01*
G37*
G36*
X159071733Y-81193981D02*
G01*
X159112189Y-81203731D01*
X159139498Y-81218957D01*
X159148742Y-81230366D01*
X159154495Y-81243795D01*
X159156492Y-81258262D01*
X159154115Y-81276659D01*
X159146747Y-81301880D01*
X159133772Y-81336818D01*
X159117324Y-81377659D01*
X159099640Y-81421494D01*
X159082184Y-81465903D01*
X159067084Y-81505410D01*
X159057277Y-81532217D01*
X159037609Y-81588192D01*
X158960829Y-81588192D01*
X158927447Y-81587902D01*
X158901399Y-81587125D01*
X158886334Y-81585999D01*
X158884049Y-81585299D01*
X158887048Y-81576928D01*
X158895139Y-81556643D01*
X158906964Y-81527808D01*
X158916642Y-81504562D01*
X158929993Y-81471842D01*
X158940147Y-81445347D01*
X158945862Y-81428413D01*
X158946558Y-81424038D01*
X158936289Y-81423746D01*
X158915816Y-81428871D01*
X158889892Y-81437670D01*
X158863274Y-81448401D01*
X158840716Y-81459320D01*
X158828424Y-81467329D01*
X158812201Y-81486729D01*
X158811443Y-81501903D01*
X158825197Y-81510951D01*
X158850950Y-81512131D01*
X158871659Y-81510541D01*
X158883195Y-81510404D01*
X158884049Y-81510716D01*
X158880046Y-81518079D01*
X158869652Y-81535431D01*
X158857932Y-81554470D01*
X158840839Y-81578230D01*
X158825390Y-81593175D01*
X158817506Y-81596484D01*
X158798692Y-81597767D01*
X158779356Y-81600263D01*
X158756390Y-81600431D01*
X158727664Y-81596293D01*
X158718198Y-81594043D01*
X158692166Y-81584576D01*
X158675870Y-81570390D01*
X158665711Y-81552998D01*
X158656320Y-81529536D01*
X158655605Y-81510128D01*
X158660369Y-81492166D01*
X158683885Y-81447081D01*
X158722183Y-81409391D01*
X158775171Y-81379164D01*
X158842753Y-81356464D01*
X158859171Y-81352575D01*
X158906602Y-81341542D01*
X158940238Y-81332263D01*
X158962644Y-81323780D01*
X158976386Y-81315130D01*
X158983728Y-81305930D01*
X158987044Y-81292145D01*
X158976534Y-81282073D01*
X158974722Y-81281077D01*
X158956481Y-81277509D01*
X158926844Y-81278257D01*
X158890260Y-81282737D01*
X158851179Y-81290368D01*
X158814050Y-81300567D01*
X158806701Y-81303057D01*
X158787863Y-81308648D01*
X158778342Y-81309354D01*
X158778094Y-81308178D01*
X158783037Y-81297940D01*
X158792732Y-81277446D01*
X158803026Y-81255513D01*
X158824823Y-81208927D01*
X158887945Y-81199539D01*
X158957965Y-81191691D01*
X159019776Y-81189903D01*
X159071733Y-81193981D01*
G37*
G36*
X158326098Y-79690078D02*
G01*
X158332864Y-79694288D01*
X158349586Y-79708590D01*
X158370086Y-79730740D01*
X158391266Y-79756734D01*
X158410033Y-79782571D01*
X158423289Y-79804246D01*
X158427960Y-79817259D01*
X158423895Y-79832519D01*
X158412728Y-79858986D01*
X158396001Y-79893710D01*
X158375255Y-79933742D01*
X158352032Y-79976134D01*
X158327875Y-80017938D01*
X158304324Y-80056203D01*
X158297633Y-80066513D01*
X158202346Y-80198612D01*
X158097852Y-80320075D01*
X157985275Y-80430074D01*
X157865742Y-80527783D01*
X157740381Y-80612374D01*
X157610317Y-80683021D01*
X157476676Y-80738896D01*
X157340586Y-80779173D01*
X157320908Y-80783627D01*
X157281737Y-80790533D01*
X157233685Y-80796562D01*
X157180875Y-80801451D01*
X157127432Y-80804939D01*
X157077480Y-80806763D01*
X157035142Y-80806662D01*
X157004543Y-80804374D01*
X157001646Y-80803903D01*
X156982161Y-80800469D01*
X156953600Y-80795478D01*
X156931159Y-80791576D01*
X156824481Y-80765354D01*
X156724633Y-80725316D01*
X156633179Y-80672365D01*
X156551679Y-80607406D01*
X156481852Y-80531539D01*
X156460334Y-80501695D01*
X156438356Y-80467147D01*
X156417472Y-80430899D01*
X156399233Y-80395954D01*
X156385191Y-80365315D01*
X156376901Y-80341986D01*
X156375913Y-80328969D01*
X156376614Y-80327969D01*
X156387152Y-80324792D01*
X156410955Y-80320831D01*
X156444749Y-80316541D01*
X156485260Y-80312376D01*
X156495802Y-80311430D01*
X156607751Y-80301664D01*
X156624336Y-80324623D01*
X156683626Y-80394224D01*
X156751038Y-80449730D01*
X156827275Y-80491541D01*
X156913042Y-80520056D01*
X156994150Y-80534160D01*
X157078933Y-80537411D01*
X157171571Y-80529795D01*
X157267960Y-80511931D01*
X157363993Y-80484443D01*
X157394337Y-80473580D01*
X157455755Y-80447775D01*
X157526155Y-80413756D01*
X157601628Y-80373744D01*
X157678265Y-80329955D01*
X157752155Y-80284611D01*
X157819388Y-80239929D01*
X157866371Y-80205678D01*
X157967846Y-80120618D01*
X158061665Y-80027914D01*
X158145621Y-79930127D01*
X158217510Y-79829817D01*
X158273222Y-79733326D01*
X158288754Y-79704503D01*
X158300759Y-79688986D01*
X158312214Y-79684828D01*
X158326098Y-79690078D01*
G37*
G36*
X157414119Y-81194861D02*
G01*
X157454768Y-81197190D01*
X157484442Y-81202240D01*
X157505935Y-81210968D01*
X157522044Y-81224329D01*
X157535564Y-81243279D01*
X157543252Y-81257080D01*
X157554137Y-81294237D01*
X157553226Y-81338543D01*
X157541838Y-81386998D01*
X157521293Y-81436603D01*
X157492912Y-81484355D01*
X157458014Y-81527256D01*
X157417920Y-81562304D01*
X157405278Y-81570713D01*
X157360440Y-81590527D01*
X157311764Y-81598805D01*
X157263878Y-81595522D01*
X157221413Y-81580652D01*
X157207506Y-81571843D01*
X157191082Y-81560702D01*
X157181579Y-81556155D01*
X157180883Y-81556364D01*
X157177156Y-81565230D01*
X157169060Y-81586232D01*
X157157887Y-81615918D01*
X157144927Y-81650833D01*
X157131471Y-81687525D01*
X157119406Y-81720872D01*
X157103044Y-81766481D01*
X157022314Y-81768866D01*
X156984193Y-81769544D01*
X156960306Y-81768689D01*
X156948354Y-81766052D01*
X156946036Y-81761382D01*
X156946339Y-81760574D01*
X156956402Y-81736986D01*
X156971280Y-81700815D01*
X156989830Y-81654956D01*
X157010910Y-81602302D01*
X157033374Y-81545748D01*
X157056080Y-81488188D01*
X157072350Y-81446645D01*
X157235679Y-81446645D01*
X157241028Y-81460726D01*
X157245071Y-81467276D01*
X157265142Y-81484731D01*
X157292039Y-81487781D01*
X157324189Y-81476321D01*
X157330122Y-81472887D01*
X157349562Y-81454911D01*
X157369546Y-81426969D01*
X157386678Y-81395049D01*
X157397564Y-81365137D01*
X157399687Y-81350226D01*
X157392454Y-81325298D01*
X157372740Y-81307728D01*
X157343523Y-81298866D01*
X157307780Y-81300061D01*
X157295185Y-81302859D01*
X157277279Y-81315883D01*
X157260656Y-81345091D01*
X157245226Y-81390648D01*
X157241950Y-81403009D01*
X157236090Y-81429528D01*
X157235679Y-81446645D01*
X157072350Y-81446645D01*
X157077883Y-81432517D01*
X157097641Y-81381628D01*
X157114208Y-81338417D01*
X157126443Y-81305776D01*
X157130585Y-81294304D01*
X157161213Y-81207450D01*
X157199598Y-81200874D01*
X157221935Y-81198482D01*
X157256606Y-81196479D01*
X157299361Y-81195039D01*
X157345949Y-81194337D01*
X157359701Y-81194297D01*
X157414119Y-81194861D01*
G37*
G36*
X156899976Y-81194861D02*
G01*
X156940630Y-81197192D01*
X156970307Y-81202246D01*
X156991805Y-81210978D01*
X157007917Y-81224344D01*
X157021439Y-81243300D01*
X157029115Y-81257080D01*
X157039071Y-81290980D01*
X157039656Y-81333829D01*
X157031248Y-81381159D01*
X157014650Y-81427583D01*
X156993126Y-81464685D01*
X156962986Y-81504054D01*
X156928990Y-81540188D01*
X156895900Y-81567588D01*
X156890313Y-81571226D01*
X156846257Y-81590599D01*
X156798078Y-81598760D01*
X156750550Y-81595683D01*
X156708445Y-81581344D01*
X156693934Y-81572261D01*
X156669772Y-81554397D01*
X156660672Y-81577514D01*
X156653944Y-81594892D01*
X156643060Y-81623313D01*
X156629728Y-81658307D01*
X156620144Y-81683556D01*
X156588715Y-81766481D01*
X156512254Y-81768878D01*
X156435794Y-81771275D01*
X156441583Y-81748147D01*
X156446571Y-81733080D01*
X156456795Y-81705712D01*
X156471090Y-81669041D01*
X156488289Y-81626065D01*
X156503755Y-81588192D01*
X156526637Y-81531634D01*
X156551408Y-81468691D01*
X156564088Y-81435695D01*
X156720593Y-81435695D01*
X156724340Y-81459275D01*
X156733424Y-81473516D01*
X156755520Y-81486497D01*
X156783910Y-81486123D01*
X156815243Y-81472533D01*
X156819037Y-81470023D01*
X156842565Y-81447627D01*
X156863862Y-81416802D01*
X156879375Y-81383749D01*
X156885547Y-81354665D01*
X156885551Y-81354056D01*
X156878969Y-81325555D01*
X156859859Y-81307210D01*
X156829176Y-81299519D01*
X156787871Y-81302977D01*
X156787584Y-81303035D01*
X156773000Y-81307833D01*
X156761906Y-81317813D01*
X156751266Y-81336759D01*
X156740939Y-81361169D01*
X156726067Y-81403877D01*
X156720593Y-81435695D01*
X156564088Y-81435695D01*
X156575607Y-81405718D01*
X156596775Y-81349074D01*
X156603933Y-81329359D01*
X156647729Y-81207353D01*
X156685788Y-81200825D01*
X156707998Y-81198451D01*
X156742554Y-81196463D01*
X156785218Y-81195034D01*
X156831753Y-81194337D01*
X156845553Y-81194297D01*
X156899976Y-81194861D01*
G37*
G36*
X159452989Y-81130030D02*
G01*
X159425497Y-81194297D01*
X159510763Y-81194297D01*
X159559942Y-81195808D01*
X159595721Y-81201255D01*
X159621083Y-81212009D01*
X159639015Y-81229440D01*
X159652499Y-81254918D01*
X159654646Y-81260364D01*
X159661667Y-81300269D01*
X159656462Y-81346957D01*
X159640166Y-81397380D01*
X159613912Y-81448492D01*
X159578835Y-81497247D01*
X159557950Y-81520185D01*
X159511465Y-81558753D01*
X159461115Y-81585565D01*
X159409901Y-81599569D01*
X159360826Y-81599710D01*
X159342732Y-81595726D01*
X159318217Y-81583336D01*
X159299345Y-81566428D01*
X159282386Y-81544869D01*
X159274151Y-81566530D01*
X159269468Y-81576850D01*
X159262617Y-81583229D01*
X159250014Y-81586615D01*
X159228079Y-81587953D01*
X159193230Y-81588192D01*
X159192184Y-81588192D01*
X159118453Y-81588192D01*
X159172099Y-81453866D01*
X159335875Y-81453866D01*
X159336389Y-81456763D01*
X159348936Y-81473399D01*
X159369455Y-81483771D01*
X159388498Y-81484016D01*
X159403392Y-81480617D01*
X159406520Y-81480389D01*
X159416702Y-81475475D01*
X159433754Y-81463181D01*
X159440192Y-81457927D01*
X159463205Y-81432412D01*
X159482629Y-81400054D01*
X159494962Y-81367464D01*
X159497513Y-81349781D01*
X159490260Y-81325955D01*
X159471048Y-81307524D01*
X159444442Y-81298425D01*
X159437575Y-81298066D01*
X159409525Y-81299306D01*
X159390312Y-81304737D01*
X159376607Y-81317351D01*
X159365086Y-81340138D01*
X159353097Y-81374045D01*
X159343460Y-81406901D01*
X159337398Y-81435102D01*
X159335875Y-81453866D01*
X159172099Y-81453866D01*
X159192140Y-81403683D01*
X159214818Y-81346481D01*
X159237128Y-81289444D01*
X159257749Y-81236010D01*
X159275357Y-81189619D01*
X159288629Y-81153709D01*
X159292617Y-81142509D01*
X159319406Y-81065844D01*
X159399944Y-81065803D01*
X159480481Y-81065763D01*
X159452989Y-81130030D01*
G37*
G36*
X157791703Y-81246125D02*
G01*
X157789270Y-81277483D01*
X157785737Y-81317713D01*
X157781780Y-81359197D01*
X157780894Y-81367987D01*
X157777807Y-81401025D01*
X157775909Y-81427085D01*
X157775453Y-81442321D01*
X157775813Y-81444653D01*
X157781139Y-81439248D01*
X157793707Y-81422691D01*
X157811569Y-81397638D01*
X157830252Y-81370473D01*
X157855751Y-81333075D01*
X157882049Y-81294890D01*
X157905279Y-81261514D01*
X157916137Y-81246125D01*
X157950070Y-81198443D01*
X158023164Y-81198443D01*
X158055660Y-81198860D01*
X158080731Y-81199977D01*
X158094639Y-81201589D01*
X158096259Y-81202421D01*
X158091580Y-81210558D01*
X158079411Y-81227720D01*
X158065162Y-81246573D01*
X158049886Y-81266298D01*
X158026779Y-81296124D01*
X157998172Y-81333041D01*
X157966396Y-81374041D01*
X157938701Y-81409771D01*
X157904405Y-81454099D01*
X157869755Y-81499030D01*
X157837566Y-81540906D01*
X157810653Y-81576066D01*
X157795753Y-81595657D01*
X157749805Y-81653632D01*
X157709848Y-81697930D01*
X157674594Y-81729780D01*
X157642757Y-81750408D01*
X157626117Y-81757455D01*
X157581889Y-81768668D01*
X157533868Y-81774716D01*
X157490142Y-81774730D01*
X157478466Y-81773332D01*
X157458497Y-81768446D01*
X157446748Y-81762734D01*
X157444946Y-81752394D01*
X157446261Y-81731961D01*
X157449801Y-81706697D01*
X157454672Y-81681866D01*
X157459983Y-81662732D01*
X157464842Y-81654559D01*
X157465088Y-81654532D01*
X157475832Y-81656621D01*
X157495403Y-81661746D01*
X157498795Y-81662709D01*
X157538903Y-81666011D01*
X157578073Y-81654193D01*
X157611541Y-81629258D01*
X157636024Y-81603719D01*
X157638509Y-81401081D01*
X157640994Y-81198443D01*
X157717970Y-81198443D01*
X157794946Y-81198443D01*
X157791703Y-81246125D01*
G37*
G36*
X156419463Y-81196268D02*
G01*
X156454272Y-81208242D01*
X156493350Y-81234925D01*
X156517375Y-81267606D01*
X156527283Y-81307871D01*
X156527196Y-81331916D01*
X156515095Y-81390766D01*
X156488556Y-81446255D01*
X156449676Y-81496290D01*
X156400555Y-81538777D01*
X156343289Y-81571622D01*
X156279978Y-81592731D01*
X156262466Y-81596091D01*
X156234702Y-81600368D01*
X156214100Y-81603116D01*
X156205564Y-81603739D01*
X156195621Y-81601939D01*
X156175037Y-81598397D01*
X156162051Y-81596199D01*
X156130790Y-81587999D01*
X156100803Y-81575619D01*
X156093437Y-81571497D01*
X156063001Y-81544068D01*
X156045171Y-81508897D01*
X156039196Y-81468076D01*
X156041521Y-81447970D01*
X156197965Y-81447970D01*
X156207523Y-81472364D01*
X156211195Y-81476543D01*
X156231103Y-81485933D01*
X156258342Y-81486053D01*
X156287083Y-81477729D01*
X156310842Y-81462410D01*
X156332735Y-81436461D01*
X156349939Y-81405715D01*
X156361321Y-81374025D01*
X156365749Y-81345248D01*
X156362090Y-81323236D01*
X156354415Y-81314107D01*
X156338356Y-81308957D01*
X156314989Y-81306422D01*
X156311930Y-81306373D01*
X156282285Y-81312946D01*
X156254302Y-81330718D01*
X156229930Y-81356399D01*
X156211117Y-81386696D01*
X156199813Y-81418317D01*
X156197965Y-81447970D01*
X156041521Y-81447970D01*
X156044327Y-81423699D01*
X156059817Y-81377858D01*
X156084914Y-81332647D01*
X156118871Y-81290158D01*
X156160939Y-81252485D01*
X156210368Y-81221720D01*
X156220340Y-81216915D01*
X156267100Y-81200912D01*
X156319293Y-81192010D01*
X156371790Y-81190398D01*
X156419463Y-81196268D01*
G37*
G36*
X155872722Y-81109298D02*
G01*
X155862252Y-81136111D01*
X155854100Y-81158315D01*
X155851145Y-81167346D01*
X155847987Y-81173065D01*
X155840579Y-81177064D01*
X155826363Y-81179642D01*
X155802780Y-81181100D01*
X155767275Y-81181737D01*
X155727353Y-81181858D01*
X155607656Y-81181858D01*
X155596633Y-81208809D01*
X155585352Y-81236130D01*
X155579432Y-81254396D01*
X155580946Y-81265417D01*
X155591964Y-81271003D01*
X155614557Y-81272967D01*
X155650796Y-81273117D01*
X155670137Y-81273076D01*
X155707800Y-81273602D01*
X155738514Y-81275034D01*
X155759015Y-81277150D01*
X155766060Y-81279596D01*
X155763262Y-81290222D01*
X155755976Y-81311392D01*
X155747169Y-81334886D01*
X155728278Y-81383656D01*
X155630770Y-81384340D01*
X155586811Y-81385090D01*
X155556780Y-81386832D01*
X155538031Y-81389895D01*
X155527919Y-81394609D01*
X155525414Y-81397463D01*
X155519613Y-81410015D01*
X155509884Y-81434537D01*
X155497661Y-81467302D01*
X155486329Y-81499002D01*
X155455090Y-81588102D01*
X155370092Y-81588147D01*
X155334812Y-81587770D01*
X155306684Y-81586719D01*
X155289176Y-81585167D01*
X155285093Y-81583839D01*
X155288015Y-81575209D01*
X155296207Y-81553399D01*
X155308808Y-81520638D01*
X155324957Y-81479158D01*
X155343792Y-81431187D01*
X155354735Y-81403477D01*
X155376923Y-81346909D01*
X155398910Y-81289975D01*
X155419293Y-81236369D01*
X155436672Y-81189784D01*
X155449644Y-81153914D01*
X155452172Y-81146655D01*
X155479968Y-81065844D01*
X155685087Y-81065803D01*
X155890206Y-81065763D01*
X155872722Y-81109298D01*
G37*
G36*
X158556000Y-81096577D02*
G01*
X158547501Y-81117128D01*
X158535033Y-81148106D01*
X158519610Y-81186912D01*
X158502244Y-81230950D01*
X158483948Y-81277621D01*
X158465736Y-81324327D01*
X158448620Y-81368471D01*
X158433613Y-81407455D01*
X158421730Y-81438681D01*
X158413982Y-81459551D01*
X158411375Y-81467419D01*
X158419174Y-81469095D01*
X158440599Y-81470506D01*
X158472693Y-81471531D01*
X158512496Y-81472054D01*
X158528161Y-81472096D01*
X158569723Y-81472509D01*
X158604354Y-81473645D01*
X158629193Y-81475346D01*
X158641376Y-81477457D01*
X158642101Y-81478316D01*
X158637888Y-81488756D01*
X158629635Y-81510024D01*
X158619567Y-81536363D01*
X158599881Y-81588192D01*
X158393783Y-81588192D01*
X158187686Y-81588192D01*
X158209092Y-81540510D01*
X158219564Y-81516170D01*
X158234559Y-81479959D01*
X158252922Y-81434793D01*
X158273497Y-81383590D01*
X158295130Y-81329266D01*
X158316664Y-81274738D01*
X158336946Y-81222922D01*
X158354820Y-81176737D01*
X158369131Y-81139099D01*
X158378723Y-81112924D01*
X158380681Y-81107225D01*
X158393083Y-81069909D01*
X158481237Y-81067553D01*
X158569392Y-81065197D01*
X158556000Y-81096577D01*
G37*
G36*
X156097786Y-81067728D02*
G01*
X156109884Y-81070399D01*
X156112355Y-81075115D01*
X156112120Y-81075816D01*
X156107739Y-81086731D01*
X156098263Y-81110276D01*
X156084798Y-81143697D01*
X156068455Y-81184245D01*
X156054370Y-81219174D01*
X156032056Y-81275073D01*
X156007609Y-81337257D01*
X155983562Y-81399227D01*
X155962449Y-81454483D01*
X155956599Y-81470023D01*
X155912338Y-81588192D01*
X155835053Y-81588192D01*
X155800736Y-81587402D01*
X155774510Y-81585265D01*
X155759770Y-81582127D01*
X155757767Y-81580291D01*
X155760766Y-81569951D01*
X155768937Y-81547578D01*
X155781043Y-81516437D01*
X155795846Y-81479790D01*
X155796291Y-81478708D01*
X155811944Y-81440004D01*
X155831645Y-81390323D01*
X155853612Y-81334217D01*
X155876062Y-81276235D01*
X155894727Y-81227467D01*
X155954639Y-81069909D01*
X156035500Y-81067523D01*
X156073758Y-81066852D01*
X156097786Y-81067728D01*
G37*
G36*
X157146205Y-80205722D02*
G01*
X157147401Y-80221208D01*
X157140389Y-80247067D01*
X157139507Y-80249679D01*
X157131093Y-80273646D01*
X157122865Y-80291380D01*
X157112337Y-80303818D01*
X157097023Y-80311901D01*
X157074437Y-80316566D01*
X157042094Y-80318752D01*
X156997508Y-80319398D01*
X156954752Y-80319435D01*
X156901288Y-80319213D01*
X156862360Y-80318437D01*
X156835921Y-80316944D01*
X156819927Y-80314569D01*
X156812333Y-80311149D01*
X156810918Y-80307915D01*
X156815401Y-80290025D01*
X156830048Y-80275228D01*
X156856655Y-80262544D01*
X156897018Y-80250992D01*
X156927013Y-80244509D01*
X156971603Y-80235141D01*
X157018122Y-80224603D01*
X157059244Y-80214583D01*
X157075162Y-80210385D01*
X157111906Y-80201423D01*
X157134980Y-80199498D01*
X157146205Y-80205722D01*
G37*
%TO.C,kibuzzard-667D9F1D*%
G36*
X141268191Y-83045075D02*
G01*
X141311957Y-83051567D01*
X141354876Y-83062318D01*
X141396535Y-83077223D01*
X141436531Y-83096140D01*
X141474481Y-83118887D01*
X141510019Y-83145243D01*
X141542802Y-83174956D01*
X141572515Y-83207739D01*
X141598872Y-83243277D01*
X141621618Y-83281227D01*
X141640535Y-83321224D01*
X141655441Y-83362882D01*
X141666192Y-83405801D01*
X141672684Y-83449567D01*
X141674855Y-83493759D01*
X141674855Y-83493846D01*
X141674855Y-86686154D01*
X141674855Y-86686241D01*
X141672684Y-86730433D01*
X141666192Y-86774199D01*
X141655441Y-86817118D01*
X141640535Y-86858776D01*
X141621618Y-86898773D01*
X141598872Y-86936723D01*
X141572515Y-86972261D01*
X141542802Y-87005044D01*
X141510019Y-87034757D01*
X141474481Y-87061113D01*
X141436531Y-87083860D01*
X141396535Y-87102777D01*
X141354876Y-87117682D01*
X141311957Y-87128433D01*
X141268191Y-87134925D01*
X141224000Y-87137096D01*
X141179809Y-87134925D01*
X141136043Y-87128433D01*
X141093124Y-87117682D01*
X141051465Y-87102777D01*
X141011469Y-87083860D01*
X140973519Y-87061113D01*
X140937981Y-87034757D01*
X140905198Y-87005044D01*
X140875485Y-86972261D01*
X140849128Y-86936723D01*
X140826382Y-86898773D01*
X140807465Y-86858776D01*
X140792559Y-86817118D01*
X140781808Y-86774199D01*
X140775316Y-86730433D01*
X140773145Y-86686241D01*
X140773145Y-86686154D01*
X140773145Y-86212308D01*
X140874000Y-86212308D01*
X140874769Y-86289744D01*
X140875026Y-86330256D01*
X140874769Y-86369744D01*
X140874000Y-86438974D01*
X140948038Y-86439744D01*
X141041949Y-86442051D01*
X141111892Y-86444387D01*
X141183259Y-86447293D01*
X141256051Y-86450769D01*
X141336436Y-86455769D01*
X141423744Y-86462564D01*
X141423744Y-86498462D01*
X141423174Y-86550256D01*
X141421464Y-86610598D01*
X141418615Y-86679487D01*
X141458103Y-86680256D01*
X141524256Y-86683077D01*
X141574000Y-86686154D01*
X141573487Y-86619487D01*
X141573487Y-86496410D01*
X141572974Y-86369744D01*
X141573038Y-86275833D01*
X141573231Y-86187949D01*
X141573551Y-86106090D01*
X141574000Y-86030256D01*
X141521821Y-86028974D01*
X141474000Y-86027179D01*
X141417077Y-86024615D01*
X141422718Y-86243077D01*
X141338176Y-86241193D01*
X141255685Y-86238472D01*
X141175245Y-86234914D01*
X141096857Y-86230518D01*
X141020520Y-86225285D01*
X140946234Y-86219215D01*
X140874000Y-86212308D01*
X140773145Y-86212308D01*
X140773145Y-85545641D01*
X140860667Y-85545641D01*
X140866500Y-85631667D01*
X140884000Y-85714359D01*
X140914064Y-85789744D01*
X140957590Y-85853846D01*
X141013295Y-85905449D01*
X141079897Y-85943333D01*
X141155474Y-85966603D01*
X141238103Y-85974359D01*
X141315410Y-85967308D01*
X141383231Y-85946154D01*
X141442654Y-85910769D01*
X141494769Y-85861026D01*
X141536628Y-85799359D01*
X141565282Y-85728205D01*
X141581821Y-85650769D01*
X141587333Y-85570256D01*
X141582034Y-85487664D01*
X141566137Y-85410826D01*
X141539641Y-85339744D01*
X141503715Y-85277122D01*
X141459527Y-85225669D01*
X141407077Y-85185385D01*
X141347447Y-85156467D01*
X141281721Y-85139117D01*
X141209897Y-85133333D01*
X141136949Y-85139487D01*
X141070923Y-85157949D01*
X141011244Y-85191090D01*
X140957333Y-85241282D01*
X140913359Y-85305192D01*
X140883487Y-85379487D01*
X140866372Y-85460769D01*
X140860667Y-85545641D01*
X140773145Y-85545641D01*
X140773145Y-84635897D01*
X140860667Y-84635897D01*
X140866500Y-84721923D01*
X140884000Y-84804615D01*
X140914064Y-84880000D01*
X140957590Y-84944103D01*
X141013295Y-84995705D01*
X141079897Y-85033590D01*
X141155474Y-85056859D01*
X141238103Y-85064615D01*
X141315410Y-85057564D01*
X141383231Y-85036410D01*
X141442654Y-85001026D01*
X141494769Y-84951282D01*
X141536628Y-84889615D01*
X141565282Y-84818462D01*
X141581821Y-84741026D01*
X141587333Y-84660513D01*
X141582034Y-84577920D01*
X141566137Y-84501083D01*
X141539641Y-84430000D01*
X141503715Y-84367379D01*
X141459527Y-84315926D01*
X141407077Y-84275641D01*
X141347447Y-84246724D01*
X141281721Y-84229373D01*
X141209897Y-84223590D01*
X141136949Y-84229744D01*
X141070923Y-84248205D01*
X141011244Y-84281346D01*
X140957333Y-84331538D01*
X140913359Y-84395449D01*
X140883487Y-84469744D01*
X140866372Y-84551026D01*
X140860667Y-84635897D01*
X140773145Y-84635897D01*
X140773145Y-83728205D01*
X140874000Y-83728205D01*
X140874513Y-83805064D01*
X140876051Y-83877692D01*
X140878615Y-83937244D01*
X140882205Y-83974872D01*
X140902718Y-84038974D01*
X140938615Y-84089744D01*
X140997590Y-84125641D01*
X141070923Y-84138462D01*
X141124513Y-84131026D01*
X141170410Y-84108718D01*
X141204000Y-84075128D01*
X141222974Y-84040000D01*
X141233487Y-83996410D01*
X141248872Y-84039744D01*
X141270410Y-84072820D01*
X141305026Y-84103333D01*
X141352462Y-84124359D01*
X141408359Y-84131795D01*
X141478615Y-84118974D01*
X141527846Y-84087692D01*
X141557077Y-84042820D01*
X141573487Y-83980000D01*
X141576179Y-83943590D01*
X141577077Y-83888718D01*
X141576500Y-83830128D01*
X141574769Y-83761026D01*
X141573038Y-83691282D01*
X141572462Y-83630769D01*
X141572846Y-83583718D01*
X141574000Y-83522564D01*
X141510410Y-83523077D01*
X141458274Y-83522536D01*
X141385966Y-83520912D01*
X141293487Y-83518205D01*
X141198217Y-83514929D01*
X141117533Y-83511595D01*
X141051436Y-83508205D01*
X141003003Y-83505014D01*
X140943858Y-83500228D01*
X140874000Y-83493846D01*
X140874513Y-83593333D01*
X140874000Y-83728205D01*
X140773145Y-83728205D01*
X140773145Y-83493846D01*
X140773145Y-83493759D01*
X140775316Y-83449567D01*
X140781808Y-83405801D01*
X140792559Y-83362882D01*
X140807465Y-83321224D01*
X140826382Y-83281227D01*
X140849128Y-83243277D01*
X140875485Y-83207739D01*
X140905198Y-83174956D01*
X140937981Y-83145243D01*
X140973519Y-83118887D01*
X141011469Y-83096140D01*
X141051465Y-83077223D01*
X141093124Y-83062318D01*
X141136043Y-83051567D01*
X141179809Y-83045075D01*
X141224000Y-83042904D01*
X141268191Y-83045075D01*
G37*
G36*
X141270090Y-85361795D02*
G01*
X141323487Y-85381026D01*
X141369385Y-85412179D01*
X141404000Y-85454359D01*
X141425731Y-85504872D01*
X141432974Y-85561026D01*
X141426564Y-85614103D01*
X141407333Y-85661538D01*
X141376500Y-85700769D01*
X141335282Y-85729231D01*
X141286756Y-85746538D01*
X141234000Y-85752308D01*
X141178808Y-85746090D01*
X141126051Y-85727436D01*
X141080282Y-85696923D01*
X141046051Y-85655128D01*
X141024705Y-85605320D01*
X141017590Y-85550769D01*
X141023936Y-85498846D01*
X141042974Y-85449744D01*
X141073295Y-85408141D01*
X141113487Y-85378718D01*
X141160923Y-85361218D01*
X141212974Y-85355385D01*
X141270090Y-85361795D01*
G37*
G36*
X141270090Y-84452051D02*
G01*
X141323487Y-84471282D01*
X141369385Y-84502436D01*
X141404000Y-84544615D01*
X141425731Y-84595128D01*
X141432974Y-84651282D01*
X141426564Y-84704359D01*
X141407333Y-84751795D01*
X141376500Y-84791026D01*
X141335282Y-84819487D01*
X141286756Y-84836795D01*
X141234000Y-84842564D01*
X141178808Y-84836346D01*
X141126051Y-84817692D01*
X141080282Y-84787179D01*
X141046051Y-84745385D01*
X141024705Y-84695577D01*
X141017590Y-84641026D01*
X141023936Y-84589103D01*
X141042974Y-84540000D01*
X141073295Y-84498397D01*
X141113487Y-84468974D01*
X141160923Y-84451474D01*
X141212974Y-84445641D01*
X141270090Y-84452051D01*
G37*
G36*
X141438615Y-83728718D02*
G01*
X141438615Y-83821026D01*
X141431436Y-83882051D01*
X141409385Y-83911026D01*
X141375538Y-83920000D01*
X141348872Y-83915641D01*
X141324769Y-83900769D01*
X141309385Y-83875897D01*
X141302974Y-83846410D01*
X141301179Y-83795385D01*
X141301179Y-83722564D01*
X141438615Y-83728718D01*
G37*
G36*
X141162205Y-83716923D02*
G01*
X141162205Y-83825128D01*
X141158359Y-83876410D01*
X141145795Y-83904103D01*
X141124256Y-83921026D01*
X141094513Y-83926667D01*
X141059128Y-83919744D01*
X141034000Y-83901026D01*
X141019128Y-83866667D01*
X141014513Y-83809231D01*
X141014513Y-83710769D01*
X141162205Y-83716923D01*
G37*
D11*
%TO.C,TP4*%
X139663400Y-88671400D02*
G75*
G02*
X138263400Y-88671400I-700000J0D01*
G01*
X138263400Y-88671400D02*
G75*
G02*
X139663400Y-88671400I700000J0D01*
G01*
%TO.C,U8*%
X139479000Y-100648000D02*
X139149000Y-100888000D01*
X139149000Y-100408000D01*
X139479000Y-100648000D01*
G36*
X139479000Y-100648000D02*
G01*
X139149000Y-100888000D01*
X139149000Y-100408000D01*
X139479000Y-100648000D01*
G37*
X141749000Y-100268000D02*
X141749000Y-98868000D01*
X139429000Y-100278000D02*
X139429000Y-98868000D01*
%TO.C,TP5*%
X139663400Y-90728800D02*
G75*
G02*
X138263400Y-90728800I-700000J0D01*
G01*
X138263400Y-90728800D02*
G75*
G02*
X139663400Y-90728800I700000J0D01*
G01*
%TO.C,C1*%
X145092019Y-91437170D02*
X145290830Y-91635981D01*
X144370770Y-92158419D02*
X144569581Y-92357230D01*
%TO.C,U4*%
X148082000Y-76708000D02*
X137922000Y-76708000D01*
X137922000Y-69088000D01*
X148082000Y-69088000D01*
X148082000Y-76708000D01*
X148336000Y-69850000D02*
X148336000Y-68834000D01*
X148336000Y-68834000D02*
X147320000Y-68834000D01*
%TO.C,C12*%
X146179830Y-87521181D02*
X145981019Y-87322370D01*
X145458581Y-88242430D02*
X145259770Y-88043619D01*
%TO.C,R4*%
X145591297Y-95380830D02*
X145926830Y-95045297D01*
X144852370Y-94641903D02*
X145187903Y-94306370D01*
D12*
%TO.C,kibuzzard-667EE2AA*%
G36*
X158503053Y-78346916D02*
G01*
X158502978Y-78346916D01*
X157939022Y-78346916D01*
X157346055Y-78346916D01*
X156814626Y-78346916D01*
X156287154Y-78346916D01*
X155853747Y-78346916D01*
X154880121Y-78346916D01*
X154443198Y-78346916D01*
X153893747Y-78346916D01*
X153451110Y-78346916D01*
X153041879Y-78346916D01*
X152346934Y-78346916D01*
X152139022Y-78346916D01*
X152138947Y-78346916D01*
X151460398Y-78346916D01*
X151662904Y-77671897D01*
X152139022Y-77671897D01*
X152223418Y-77909260D01*
X152330670Y-78218271D01*
X152346934Y-78271897D01*
X152415615Y-78271238D01*
X152458143Y-78271018D01*
X152500341Y-78271238D01*
X152563637Y-78271897D01*
X152589571Y-78215744D01*
X152612868Y-78167722D01*
X152747445Y-77900908D01*
X152968033Y-77900908D01*
X153010451Y-77870744D01*
X153034846Y-77854095D01*
X153066495Y-77834095D01*
X153064785Y-77887380D01*
X153061415Y-77959907D01*
X153056385Y-78051678D01*
X153050866Y-78143741D01*
X153046031Y-78217148D01*
X153041879Y-78271897D01*
X153088473Y-78271238D01*
X153145615Y-78271018D01*
X153195176Y-78271238D01*
X153236604Y-78271897D01*
X153451110Y-78271897D01*
X153513527Y-78271238D01*
X153539901Y-78271018D01*
X153616385Y-78271897D01*
X153619217Y-78204791D01*
X153621855Y-78151751D01*
X153624297Y-78112777D01*
X153574187Y-78113766D01*
X153571110Y-78113804D01*
X153547813Y-78114095D01*
X153457264Y-78112777D01*
X153455408Y-78174999D01*
X153453357Y-78228039D01*
X153451110Y-78271897D01*
X153236604Y-78271897D01*
X153236604Y-78214755D01*
X153241000Y-78095194D01*
X153252290Y-77900908D01*
X153819901Y-77900908D01*
X153862319Y-77870744D01*
X153886714Y-77854095D01*
X153918363Y-77834095D01*
X153916653Y-77887380D01*
X153913283Y-77959907D01*
X153908253Y-78051678D01*
X153902734Y-78143741D01*
X153897899Y-78217148D01*
X153893747Y-78271897D01*
X153940341Y-78271238D01*
X153997484Y-78271018D01*
X154047044Y-78271238D01*
X154088473Y-78271897D01*
X154088473Y-78214755D01*
X154092868Y-78095194D01*
X154111769Y-77769919D01*
X154120560Y-77671897D01*
X154070560Y-77672557D01*
X154021659Y-77672777D01*
X153973637Y-77672557D01*
X153931549Y-77671897D01*
X153912429Y-77686623D01*
X153877703Y-77708821D01*
X153826934Y-77739150D01*
X153824736Y-77813216D01*
X153822429Y-77860304D01*
X153819901Y-77900908D01*
X153252290Y-77900908D01*
X153259901Y-77769919D01*
X153268692Y-77671897D01*
X153218692Y-77672557D01*
X153169791Y-77672777D01*
X153132868Y-77672608D01*
X153121769Y-77672557D01*
X153079681Y-77671897D01*
X153060560Y-77686623D01*
X153025835Y-77708821D01*
X152975066Y-77739150D01*
X152972868Y-77813216D01*
X152970560Y-77860304D01*
X152968033Y-77900908D01*
X152747445Y-77900908D01*
X152764516Y-77867062D01*
X152801000Y-77795756D01*
X152834846Y-77730701D01*
X152866055Y-77671897D01*
X152806275Y-77672557D01*
X152770231Y-77672777D01*
X152735505Y-77672607D01*
X152725286Y-77672557D01*
X152667813Y-77671897D01*
X152651769Y-77711897D01*
X152642758Y-77732996D01*
X152516165Y-78010123D01*
X152489352Y-78068821D01*
X152469132Y-78119370D01*
X152456165Y-78072007D01*
X152445396Y-78034535D01*
X152380780Y-77826623D01*
X152362319Y-77768271D01*
X152350890Y-77731238D01*
X152335066Y-77671897D01*
X152282099Y-77672557D01*
X152245396Y-77672777D01*
X152195505Y-77672557D01*
X152139022Y-77671897D01*
X151662904Y-77671897D01*
X151793013Y-77238198D01*
X152175945Y-77238198D01*
X152181440Y-77303033D01*
X152197923Y-77361275D01*
X152227209Y-77412648D01*
X152271110Y-77456879D01*
X152324846Y-77491824D01*
X152383637Y-77515341D01*
X152447429Y-77528692D01*
X152516165Y-77533143D01*
X152567642Y-77531629D01*
X152623613Y-77527087D01*
X152684077Y-77519516D01*
X152694187Y-77447648D01*
X152706934Y-77375341D01*
X152656220Y-77387484D01*
X152614846Y-77394901D01*
X152546934Y-77399956D01*
X152494352Y-77395066D01*
X152450890Y-77380396D01*
X152416000Y-77356769D01*
X152389132Y-77325011D01*
X152371989Y-77285615D01*
X152366275Y-77239077D01*
X152366959Y-77233802D01*
X152779462Y-77233802D01*
X152784736Y-77296330D01*
X152800560Y-77352923D01*
X152828967Y-77404077D01*
X152871989Y-77450286D01*
X152926769Y-77487978D01*
X152990451Y-77513582D01*
X153060121Y-77528253D01*
X153132868Y-77533143D01*
X153206604Y-77528143D01*
X153236983Y-77521714D01*
X153571110Y-77521714D01*
X153626934Y-77521055D01*
X153661659Y-77520835D01*
X153696714Y-77521055D01*
X153744736Y-77521714D01*
X153749132Y-77346330D01*
X153758363Y-77137978D01*
X153779571Y-77178857D01*
X153800121Y-77216220D01*
X153832319Y-77273802D01*
X153867374Y-77334022D01*
X153941220Y-77459297D01*
X153975066Y-77521714D01*
X154040121Y-77521055D01*
X154089352Y-77520835D01*
X154140890Y-77521055D01*
X154196165Y-77521714D01*
X154198802Y-77416659D01*
X154218391Y-77056220D01*
X154282319Y-77056220D01*
X154469571Y-77051385D01*
X154467957Y-77123849D01*
X154465624Y-77194556D01*
X154462574Y-77263504D01*
X154458807Y-77330694D01*
X154454321Y-77396126D01*
X154449118Y-77459799D01*
X154443198Y-77521714D01*
X154509571Y-77521055D01*
X154544297Y-77520835D01*
X154578143Y-77521055D01*
X154637484Y-77521714D01*
X154880121Y-77521714D01*
X154936275Y-77521055D01*
X154971989Y-77520835D01*
X155006824Y-77521055D01*
X155067374Y-77521714D01*
X155068225Y-77458995D01*
X155069462Y-77395670D01*
X155071082Y-77331742D01*
X155073088Y-77267209D01*
X155076165Y-77185158D01*
X155079535Y-77111897D01*
X155083198Y-77047429D01*
X155121659Y-77046330D01*
X155153527Y-77045670D01*
X155220560Y-77052703D01*
X155252429Y-77074022D01*
X155262538Y-77107209D01*
X155249132Y-77149846D01*
X155209571Y-77179736D01*
X155151330Y-77189407D01*
X155104736Y-77185011D01*
X155150011Y-77309407D01*
X155168143Y-77359407D01*
X155181220Y-77396879D01*
X155193967Y-77436879D01*
X155209571Y-77489077D01*
X155219462Y-77521714D01*
X155281440Y-77521055D01*
X155323198Y-77520835D01*
X155360121Y-77521055D01*
X155420780Y-77521714D01*
X155406714Y-77488747D01*
X155347813Y-77359956D01*
X155327154Y-77312484D01*
X155304297Y-77256659D01*
X155343363Y-77239681D01*
X155353705Y-77233802D01*
X155500341Y-77233802D01*
X155505615Y-77296330D01*
X155521440Y-77352923D01*
X155549846Y-77404077D01*
X155592868Y-77450286D01*
X155647648Y-77487978D01*
X155711330Y-77513582D01*
X155781000Y-77528253D01*
X155853747Y-77533143D01*
X155927484Y-77528143D01*
X155957863Y-77521714D01*
X156287154Y-77521714D01*
X156342538Y-77521330D01*
X156402319Y-77521055D01*
X156466495Y-77520890D01*
X156535066Y-77520835D01*
X156606031Y-77520933D01*
X156679437Y-77521226D01*
X156755286Y-77521714D01*
X156814626Y-77521714D01*
X156870011Y-77521330D01*
X156929791Y-77521055D01*
X156993967Y-77520890D01*
X157062538Y-77520835D01*
X157133503Y-77520933D01*
X157206910Y-77521226D01*
X157282758Y-77521714D01*
X157346055Y-77521714D01*
X157408473Y-77521275D01*
X157601879Y-77520835D01*
X157664544Y-77520890D01*
X157724626Y-77521055D01*
X157782126Y-77521330D01*
X157837044Y-77521714D01*
X157939022Y-77521714D01*
X157995176Y-77521055D01*
X158030890Y-77520835D01*
X158065725Y-77521055D01*
X158126275Y-77521714D01*
X158127126Y-77458995D01*
X158128363Y-77395670D01*
X158129984Y-77331742D01*
X158131989Y-77267209D01*
X158135066Y-77185158D01*
X158138436Y-77111897D01*
X158142099Y-77047429D01*
X158180560Y-77046330D01*
X158212429Y-77045670D01*
X158279462Y-77052703D01*
X158311330Y-77074022D01*
X158321440Y-77107209D01*
X158308033Y-77149846D01*
X158268473Y-77179736D01*
X158210231Y-77189407D01*
X158163637Y-77185011D01*
X158208912Y-77309407D01*
X158227044Y-77359407D01*
X158240121Y-77396879D01*
X158252868Y-77436879D01*
X158268473Y-77489077D01*
X158278363Y-77521714D01*
X158340341Y-77521055D01*
X158382099Y-77520835D01*
X158419022Y-77521055D01*
X158479681Y-77521714D01*
X158465615Y-77488747D01*
X158406714Y-77359956D01*
X158386055Y-77312484D01*
X158363198Y-77256659D01*
X158402264Y-77239681D01*
X158431549Y-77223033D01*
X158471989Y-77183912D01*
X158495505Y-77135560D01*
X158502978Y-77080396D01*
X158496165Y-77030945D01*
X158477044Y-76990725D01*
X158446275Y-76959736D01*
X158400780Y-76936220D01*
X158340780Y-76923473D01*
X158293747Y-76920176D01*
X158240560Y-76919077D01*
X158191989Y-76919571D01*
X158142099Y-76921055D01*
X158095396Y-76922538D01*
X158056385Y-76923033D01*
X158017264Y-76922703D01*
X157967593Y-76921714D01*
X157967154Y-76984626D01*
X157965835Y-77066110D01*
X157964468Y-77125621D01*
X157962709Y-77183131D01*
X157960560Y-77238637D01*
X157956714Y-77315451D01*
X157952209Y-77382374D01*
X157946495Y-77448198D01*
X157939022Y-77521714D01*
X157837044Y-77521714D01*
X157841000Y-77453363D01*
X157845835Y-77387209D01*
X157778143Y-77390725D01*
X157687154Y-77392923D01*
X157628802Y-77393912D01*
X157594407Y-77394242D01*
X157543857Y-77394242D01*
X157549132Y-77287429D01*
X157620670Y-77285121D01*
X157684956Y-77284352D01*
X157734626Y-77284571D01*
X157801879Y-77285231D01*
X157805945Y-77212813D01*
X157810231Y-77151165D01*
X157724297Y-77153473D01*
X157679242Y-77154242D01*
X157614516Y-77153912D01*
X157558363Y-77152923D01*
X157563637Y-77052264D01*
X157632868Y-77050286D01*
X157665341Y-77050121D01*
X157718363Y-77050066D01*
X157782758Y-77050945D01*
X157860780Y-77053582D01*
X157861659Y-77022374D01*
X157864297Y-76974462D01*
X157866495Y-76936220D01*
X157867374Y-76921714D01*
X157813500Y-76922099D01*
X157755615Y-76922374D01*
X157693720Y-76922538D01*
X157627813Y-76922593D01*
X157607154Y-76922577D01*
X157556907Y-76922538D01*
X157491440Y-76922374D01*
X157431412Y-76922099D01*
X157376824Y-76921714D01*
X157377264Y-76960396D01*
X157376702Y-76997441D01*
X157375017Y-77053485D01*
X157372209Y-77128527D01*
X157368839Y-77207477D01*
X157365469Y-77275243D01*
X157362099Y-77331824D01*
X157358070Y-77386916D01*
X157352722Y-77450212D01*
X157346055Y-77521714D01*
X157282758Y-77521714D01*
X157292429Y-77388967D01*
X157246617Y-77390676D01*
X157188302Y-77391702D01*
X157117484Y-77392044D01*
X157081440Y-77391714D01*
X157019022Y-77390725D01*
X157020780Y-77329626D01*
X157033967Y-77080835D01*
X157044516Y-76921714D01*
X156992868Y-76922374D01*
X156954846Y-76922593D01*
X156905286Y-76922374D01*
X156848912Y-76921714D01*
X156848399Y-76976586D01*
X156846861Y-77040982D01*
X156844297Y-77114901D01*
X156841701Y-77174008D01*
X156838527Y-77233308D01*
X156834777Y-77292799D01*
X156830451Y-77352484D01*
X156826543Y-77400396D01*
X156821269Y-77456806D01*
X156814626Y-77521714D01*
X156755286Y-77521714D01*
X156764956Y-77388967D01*
X156735066Y-77390082D01*
X156719144Y-77390676D01*
X156660829Y-77391702D01*
X156590011Y-77392044D01*
X156553967Y-77391714D01*
X156491549Y-77390725D01*
X156493308Y-77329626D01*
X156506495Y-77080835D01*
X156517044Y-76921714D01*
X156465396Y-76922374D01*
X156427374Y-76922593D01*
X156377813Y-76922374D01*
X156321440Y-76921714D01*
X156320927Y-76976586D01*
X156319388Y-77040982D01*
X156316824Y-77114901D01*
X156314228Y-77174008D01*
X156311055Y-77233308D01*
X156307305Y-77292799D01*
X156302978Y-77352484D01*
X156299071Y-77400396D01*
X156293796Y-77456806D01*
X156287154Y-77521714D01*
X155957863Y-77521714D01*
X155998363Y-77513143D01*
X156062978Y-77487374D01*
X156117923Y-77450066D01*
X156162154Y-77402319D01*
X156194626Y-77345231D01*
X156214571Y-77280451D01*
X156221220Y-77209626D01*
X156215176Y-77143363D01*
X156197044Y-77085231D01*
X156166714Y-77034297D01*
X156124077Y-76989626D01*
X156071220Y-76953747D01*
X156010231Y-76929187D01*
X155943857Y-76915011D01*
X155923198Y-76913596D01*
X155874846Y-76910286D01*
X155804053Y-76914828D01*
X155738192Y-76928454D01*
X155677264Y-76951165D01*
X155623589Y-76981958D01*
X155579486Y-77019834D01*
X155544956Y-77064791D01*
X155520170Y-77115902D01*
X155505298Y-77172239D01*
X155500341Y-77233802D01*
X155353705Y-77233802D01*
X155372648Y-77223033D01*
X155413088Y-77183912D01*
X155436604Y-77135560D01*
X155444077Y-77080396D01*
X155437264Y-77030945D01*
X155418143Y-76990725D01*
X155387374Y-76959736D01*
X155341879Y-76936220D01*
X155323198Y-76932251D01*
X155281879Y-76923473D01*
X155234846Y-76920176D01*
X155181659Y-76919077D01*
X155133088Y-76919571D01*
X155083198Y-76921055D01*
X155036495Y-76922538D01*
X154997484Y-76923033D01*
X154958363Y-76922703D01*
X154908692Y-76921714D01*
X154908253Y-76984626D01*
X154906934Y-77066110D01*
X154905567Y-77125621D01*
X154903808Y-77183131D01*
X154901659Y-77238637D01*
X154897813Y-77315451D01*
X154893308Y-77382374D01*
X154887593Y-77448198D01*
X154880121Y-77521714D01*
X154637484Y-77521714D01*
X154638143Y-77458253D01*
X154640121Y-77377758D01*
X154642123Y-77317807D01*
X154644614Y-77256635D01*
X154647593Y-77194242D01*
X154651879Y-77125341D01*
X154657703Y-77050505D01*
X154688473Y-77050505D01*
X154732868Y-77050994D01*
X154784590Y-77052459D01*
X154843637Y-77054901D01*
X154844297Y-77021055D01*
X154846714Y-76964352D01*
X154849352Y-76921714D01*
X154792209Y-76922154D01*
X154686714Y-76922154D01*
X154623418Y-76922410D01*
X154578143Y-76922593D01*
X154497648Y-76922538D01*
X154422319Y-76922374D01*
X154352154Y-76922099D01*
X154287154Y-76921714D01*
X154286055Y-76966440D01*
X154284516Y-77007429D01*
X154282319Y-77056220D01*
X154218391Y-77056220D01*
X154218582Y-77052703D01*
X154229132Y-76921714D01*
X154171989Y-76922374D01*
X154142978Y-76922593D01*
X154105066Y-76922374D01*
X154056385Y-76921714D01*
X154055823Y-76964840D01*
X154054138Y-77026232D01*
X154051330Y-77105890D01*
X154048912Y-77165289D01*
X154047984Y-77188088D01*
X154044687Y-77257099D01*
X154041440Y-77312923D01*
X154015505Y-77262813D01*
X153827374Y-76921714D01*
X153767264Y-76922374D01*
X153722319Y-76922593D01*
X153666055Y-76922374D01*
X153609352Y-76921791D01*
X153601879Y-76921714D01*
X153601879Y-76990286D01*
X153597044Y-77116440D01*
X153579901Y-77429407D01*
X153571110Y-77521714D01*
X153236983Y-77521714D01*
X153277484Y-77513143D01*
X153342099Y-77487374D01*
X153397044Y-77450066D01*
X153441275Y-77402319D01*
X153473747Y-77345231D01*
X153493692Y-77280451D01*
X153500341Y-77209626D01*
X153494297Y-77143363D01*
X153476165Y-77085231D01*
X153445835Y-77034297D01*
X153403198Y-76989626D01*
X153350341Y-76953747D01*
X153289352Y-76929187D01*
X153222978Y-76915011D01*
X153153967Y-76910286D01*
X153083173Y-76914828D01*
X153017313Y-76928454D01*
X152956385Y-76951165D01*
X152902709Y-76981958D01*
X152858607Y-77019834D01*
X152824077Y-77064791D01*
X152799291Y-77115902D01*
X152784419Y-77172239D01*
X152779462Y-77233802D01*
X152366959Y-77233802D01*
X152373088Y-77186549D01*
X152393527Y-77138857D01*
X152425835Y-77098967D01*
X152468253Y-77069846D01*
X152518692Y-77052044D01*
X152575066Y-77046110D01*
X152634187Y-77050505D01*
X152670945Y-77056879D01*
X152717484Y-77067209D01*
X152714407Y-77017099D01*
X152711769Y-76963912D01*
X152710890Y-76926989D01*
X152650426Y-76917709D01*
X152596800Y-76912142D01*
X152550011Y-76910286D01*
X152480341Y-76914846D01*
X152412868Y-76928527D01*
X152349187Y-76952813D01*
X152290890Y-76989187D01*
X152241769Y-77036879D01*
X152205615Y-77095121D01*
X152189132Y-77145141D01*
X152183363Y-77162648D01*
X152175945Y-77238198D01*
X151793013Y-77238198D01*
X151933013Y-76771531D01*
X152189132Y-76771531D01*
X152260780Y-76770872D01*
X152291989Y-76770652D01*
X152386495Y-76771531D01*
X152735505Y-76771531D01*
X152790890Y-76771147D01*
X152850670Y-76770872D01*
X152914846Y-76770707D01*
X152983418Y-76770652D01*
X153054382Y-76770750D01*
X153127789Y-76771043D01*
X153203637Y-76771531D01*
X153213308Y-76638784D01*
X153167496Y-76640493D01*
X153109181Y-76641519D01*
X153038363Y-76641861D01*
X153002319Y-76641531D01*
X152939901Y-76640542D01*
X152941659Y-76579443D01*
X152946738Y-76483619D01*
X153255945Y-76483619D01*
X153261220Y-76546147D01*
X153277044Y-76602740D01*
X153305451Y-76653894D01*
X153348473Y-76700103D01*
X153403253Y-76737795D01*
X153466934Y-76763399D01*
X153536604Y-76778070D01*
X153609352Y-76782960D01*
X153683088Y-76777960D01*
X153713467Y-76771531D01*
X154048912Y-76771531D01*
X154108253Y-76770872D01*
X154140341Y-76770652D01*
X154227813Y-76771531D01*
X154623418Y-76771531D01*
X154682758Y-76770872D01*
X154714846Y-76770652D01*
X154802319Y-76771531D01*
X154802319Y-76714388D01*
X154802676Y-76686037D01*
X154803747Y-76638784D01*
X154805533Y-76572630D01*
X154808033Y-76487575D01*
X154810377Y-76420518D01*
X154813308Y-76357661D01*
X154816824Y-76299004D01*
X154853747Y-76296366D01*
X154886714Y-76295487D01*
X154915725Y-76297685D01*
X154939022Y-76307355D01*
X154954407Y-76326476D01*
X154959242Y-76353070D01*
X154937484Y-76405158D01*
X154871330Y-76426476D01*
X154830890Y-76422520D01*
X154846714Y-76481861D01*
X154859901Y-76542081D01*
X154914846Y-76547355D01*
X154976275Y-76541311D01*
X155031330Y-76523179D01*
X155077374Y-76492850D01*
X155111769Y-76450212D01*
X155133198Y-76398894D01*
X155140341Y-76342520D01*
X155132868Y-76286476D01*
X155110451Y-76237465D01*
X155072648Y-76199883D01*
X155021440Y-76176366D01*
X154990390Y-76171531D01*
X155138582Y-76171531D01*
X155339901Y-76530212D01*
X155338363Y-76577905D01*
X155333747Y-76650652D01*
X155328033Y-76723509D01*
X155323198Y-76771531D01*
X155378363Y-76770872D01*
X155419901Y-76770652D01*
X155460780Y-76770872D01*
X155515725Y-76771531D01*
X155923198Y-76771531D01*
X155987264Y-76770872D01*
X156030890Y-76770652D01*
X156065176Y-76770872D01*
X156131110Y-76771531D01*
X156158070Y-76711165D01*
X156184443Y-76654315D01*
X156210231Y-76600982D01*
X156431769Y-76600982D01*
X156454187Y-76663497D01*
X156472795Y-76720347D01*
X156487593Y-76771531D01*
X156550560Y-76770872D01*
X156596165Y-76770652D01*
X156627374Y-76770872D01*
X156688473Y-76771531D01*
X156735066Y-76771531D01*
X156790890Y-76770872D01*
X156825615Y-76770652D01*
X156860670Y-76770872D01*
X156908692Y-76771531D01*
X156913088Y-76596147D01*
X156922319Y-76387795D01*
X156943527Y-76428674D01*
X156964077Y-76466037D01*
X156996275Y-76523619D01*
X157031330Y-76583839D01*
X157105176Y-76709114D01*
X157139022Y-76771531D01*
X157204077Y-76770872D01*
X157253308Y-76770652D01*
X157304846Y-76770872D01*
X157360121Y-76771531D01*
X157362758Y-76666476D01*
X157382347Y-76306037D01*
X157446275Y-76306037D01*
X157633527Y-76301201D01*
X157631913Y-76373666D01*
X157629580Y-76444373D01*
X157626530Y-76513321D01*
X157622763Y-76580511D01*
X157618277Y-76645942D01*
X157613074Y-76709616D01*
X157607154Y-76771531D01*
X157673527Y-76770872D01*
X157708253Y-76770652D01*
X157742099Y-76770872D01*
X157801440Y-76771531D01*
X157802099Y-76708070D01*
X157804077Y-76627575D01*
X157806079Y-76567624D01*
X157808570Y-76506452D01*
X157811549Y-76444059D01*
X157815835Y-76375158D01*
X157821659Y-76300322D01*
X157852429Y-76300322D01*
X157896824Y-76300811D01*
X157948546Y-76302276D01*
X158007593Y-76304718D01*
X158008253Y-76270872D01*
X158010670Y-76214168D01*
X158013308Y-76171531D01*
X157956165Y-76171971D01*
X157850670Y-76171971D01*
X157742099Y-76172410D01*
X157661604Y-76172355D01*
X157586275Y-76172190D01*
X157516110Y-76171916D01*
X157451110Y-76171531D01*
X157450011Y-76216256D01*
X157448473Y-76257245D01*
X157446275Y-76306037D01*
X157382347Y-76306037D01*
X157382538Y-76302520D01*
X157393088Y-76171531D01*
X157335945Y-76172190D01*
X157306934Y-76172410D01*
X157269022Y-76172190D01*
X157220341Y-76171531D01*
X157219779Y-76214657D01*
X157218094Y-76276049D01*
X157215286Y-76355707D01*
X157211940Y-76437905D01*
X157208643Y-76506916D01*
X157205396Y-76562740D01*
X157179462Y-76512630D01*
X156991330Y-76171531D01*
X156931220Y-76172190D01*
X156886275Y-76172410D01*
X156830011Y-76172190D01*
X156765835Y-76171531D01*
X156765835Y-76240103D01*
X156761000Y-76366256D01*
X156743857Y-76679223D01*
X156735066Y-76771531D01*
X156688473Y-76771531D01*
X156662978Y-76707355D01*
X156532429Y-76354828D01*
X156468253Y-76171531D01*
X156413198Y-76172190D01*
X156353527Y-76172410D01*
X156307484Y-76172190D01*
X156240560Y-76171531D01*
X156211110Y-76232190D01*
X156186934Y-76280103D01*
X155959681Y-76708234D01*
X155923198Y-76771531D01*
X155515725Y-76771531D01*
X155517813Y-76694938D01*
X155520560Y-76625158D01*
X155523637Y-76558344D01*
X155524077Y-76553949D01*
X155524077Y-76549553D01*
X155524516Y-76545158D01*
X155538912Y-76520872D01*
X155582099Y-76455927D01*
X155775066Y-76171531D01*
X155714516Y-76172190D01*
X155676165Y-76172410D01*
X155623637Y-76172190D01*
X155568912Y-76171531D01*
X155551330Y-76202465D01*
X155524956Y-76246037D01*
X155502245Y-76283668D01*
X155475139Y-76330042D01*
X155443637Y-76385158D01*
X155421934Y-76334004D01*
X155394626Y-76276366D01*
X155367648Y-76219718D01*
X155346934Y-76171531D01*
X155293418Y-76172190D01*
X155248033Y-76172410D01*
X155199132Y-76172190D01*
X155138582Y-76171531D01*
X154990390Y-76171531D01*
X154985451Y-76170762D01*
X154934187Y-76168894D01*
X154888802Y-76169388D01*
X154834407Y-76170872D01*
X154781769Y-76172355D01*
X154741659Y-76172850D01*
X154700780Y-76172520D01*
X154648473Y-76171531D01*
X154648912Y-76233509D01*
X154648473Y-76283619D01*
X154643637Y-76439223D01*
X154632209Y-76659004D01*
X154623418Y-76771531D01*
X154227813Y-76771531D01*
X154227813Y-76714388D01*
X154228170Y-76686037D01*
X154229242Y-76638784D01*
X154231027Y-76572630D01*
X154233527Y-76487575D01*
X154235872Y-76420518D01*
X154238802Y-76357661D01*
X154242319Y-76299004D01*
X154279242Y-76296366D01*
X154312209Y-76295487D01*
X154341220Y-76297685D01*
X154364516Y-76307355D01*
X154379901Y-76326476D01*
X154384736Y-76353070D01*
X154362978Y-76405158D01*
X154296824Y-76426476D01*
X154256385Y-76422520D01*
X154272209Y-76481861D01*
X154285396Y-76542081D01*
X154340341Y-76547355D01*
X154401769Y-76541311D01*
X154456824Y-76523179D01*
X154502868Y-76492850D01*
X154537264Y-76450212D01*
X154558692Y-76398894D01*
X154565835Y-76342520D01*
X154558363Y-76286476D01*
X154535945Y-76237465D01*
X154498143Y-76199883D01*
X154446934Y-76176366D01*
X154410945Y-76170762D01*
X154359681Y-76168894D01*
X154314297Y-76169388D01*
X154259901Y-76170872D01*
X154207264Y-76172355D01*
X154167154Y-76172850D01*
X154126275Y-76172520D01*
X154073967Y-76171531D01*
X154074407Y-76233509D01*
X154073967Y-76283619D01*
X154069132Y-76439223D01*
X154057703Y-76659004D01*
X154048912Y-76771531D01*
X153713467Y-76771531D01*
X153753967Y-76762960D01*
X153818582Y-76737190D01*
X153873527Y-76699883D01*
X153917758Y-76652136D01*
X153950231Y-76595048D01*
X153970176Y-76530267D01*
X153976824Y-76459443D01*
X153970780Y-76393179D01*
X153952648Y-76335048D01*
X153922319Y-76284114D01*
X153879681Y-76239443D01*
X153826824Y-76203564D01*
X153765835Y-76179004D01*
X153699462Y-76164828D01*
X153630451Y-76160103D01*
X153559657Y-76164645D01*
X153493796Y-76178271D01*
X153432868Y-76200982D01*
X153379193Y-76231775D01*
X153335090Y-76269651D01*
X153300560Y-76314608D01*
X153275774Y-76365719D01*
X153260902Y-76422056D01*
X153255945Y-76483619D01*
X152946738Y-76483619D01*
X152954846Y-76330652D01*
X152965396Y-76171531D01*
X152913747Y-76172190D01*
X152875725Y-76172410D01*
X152826165Y-76172190D01*
X152769791Y-76171531D01*
X152769278Y-76226403D01*
X152767740Y-76290799D01*
X152765176Y-76364718D01*
X152762580Y-76423825D01*
X152759407Y-76483125D01*
X152755657Y-76542616D01*
X152751330Y-76602300D01*
X152747422Y-76650212D01*
X152742148Y-76706623D01*
X152735505Y-76771531D01*
X152386495Y-76771531D01*
X152386495Y-76752190D01*
X152386934Y-76693289D01*
X152391330Y-76535048D01*
X152457264Y-76533399D01*
X152517923Y-76532850D01*
X152561330Y-76533399D01*
X152622978Y-76535048D01*
X152624187Y-76479004D01*
X152627813Y-76404938D01*
X152572648Y-76405927D01*
X152533747Y-76406256D01*
X152462538Y-76406256D01*
X152398802Y-76404938D01*
X152402758Y-76302520D01*
X152460890Y-76301861D01*
X152490231Y-76301641D01*
X152576824Y-76301641D01*
X152607593Y-76302081D01*
X152638363Y-76302520D01*
X152676604Y-76303839D01*
X152678363Y-76255158D01*
X152683637Y-76171531D01*
X152612038Y-76172020D01*
X152538485Y-76172313D01*
X152462978Y-76172410D01*
X152404901Y-76172355D01*
X152344516Y-76172190D01*
X152281824Y-76171916D01*
X152216824Y-76171531D01*
X152216824Y-76219883D01*
X152216287Y-76262300D01*
X152214675Y-76325084D01*
X152211989Y-76408234D01*
X152208717Y-76494901D01*
X152205347Y-76568234D01*
X152201879Y-76628234D01*
X152196934Y-76691092D01*
X152189132Y-76771531D01*
X151933013Y-76771531D01*
X152138947Y-76085084D01*
X152139022Y-76085084D01*
X158502978Y-76085084D01*
X158503053Y-76085084D01*
X159181602Y-76085084D01*
X158503053Y-78346916D01*
G37*
G36*
X155912429Y-77048088D02*
G01*
X155953088Y-77064571D01*
X155986714Y-77091000D01*
X156011110Y-77126330D01*
X156025945Y-77167923D01*
X156030890Y-77213143D01*
X156025560Y-77260451D01*
X156009571Y-77305670D01*
X155983418Y-77344901D01*
X155947593Y-77374242D01*
X155904901Y-77392538D01*
X155858143Y-77398637D01*
X155813637Y-77393198D01*
X155771549Y-77376879D01*
X155735890Y-77350890D01*
X155710670Y-77316440D01*
X155695670Y-77275780D01*
X155690670Y-77231165D01*
X155696165Y-77182209D01*
X155712648Y-77136440D01*
X155739352Y-77097099D01*
X155775505Y-77067429D01*
X155818802Y-77048802D01*
X155866934Y-77042593D01*
X155912429Y-77048088D01*
G37*
G36*
X153668033Y-76297905D02*
G01*
X153708692Y-76314388D01*
X153742319Y-76340817D01*
X153766714Y-76376147D01*
X153781549Y-76417740D01*
X153786495Y-76462960D01*
X153781165Y-76510267D01*
X153765176Y-76555487D01*
X153739022Y-76594718D01*
X153703198Y-76624059D01*
X153660505Y-76642355D01*
X153613747Y-76648454D01*
X153569242Y-76643015D01*
X153527154Y-76626696D01*
X153491495Y-76600707D01*
X153466275Y-76566256D01*
X153451275Y-76525597D01*
X153446275Y-76480982D01*
X153451769Y-76432026D01*
X153468253Y-76386256D01*
X153494956Y-76346916D01*
X153531110Y-76317245D01*
X153574407Y-76298619D01*
X153622538Y-76292410D01*
X153668033Y-76297905D01*
G37*
G36*
X153191549Y-77048088D02*
G01*
X153232209Y-77064571D01*
X153265835Y-77091000D01*
X153290231Y-77126330D01*
X153305066Y-77167923D01*
X153310011Y-77213143D01*
X153304681Y-77260451D01*
X153288692Y-77305670D01*
X153262538Y-77344901D01*
X153226714Y-77374242D01*
X153184022Y-77392538D01*
X153137264Y-77398637D01*
X153092758Y-77393198D01*
X153050670Y-77376879D01*
X153015011Y-77350890D01*
X152989791Y-77316440D01*
X152974791Y-77275780D01*
X152969791Y-77231165D01*
X152975286Y-77182209D01*
X152991769Y-77136440D01*
X153018473Y-77097099D01*
X153054626Y-77067429D01*
X153097923Y-77048802D01*
X153146055Y-77042593D01*
X153191549Y-77048088D01*
G37*
G36*
X156352648Y-76328112D02*
G01*
X156371256Y-76385109D01*
X156400121Y-76473070D01*
X156263418Y-76473070D01*
X156295066Y-76408015D01*
X156317484Y-76360872D01*
X156344297Y-76302081D01*
X156352648Y-76328112D01*
G37*
D11*
%TO.C,TP2*%
X156148000Y-83058000D02*
G75*
G02*
X154748000Y-83058000I-700000J0D01*
G01*
X154748000Y-83058000D02*
G75*
G02*
X156148000Y-83058000I700000J0D01*
G01*
D12*
%TO.C,kibuzzard-667D9F56*%
G36*
X145137469Y-97239716D02*
G01*
X145181235Y-97246208D01*
X145224153Y-97256959D01*
X145265812Y-97271865D01*
X145305809Y-97290782D01*
X145343759Y-97313528D01*
X145379296Y-97339885D01*
X145412080Y-97369598D01*
X145441793Y-97402381D01*
X145468149Y-97437919D01*
X145490896Y-97475869D01*
X145509813Y-97515865D01*
X145524718Y-97557524D01*
X145535469Y-97600443D01*
X145541961Y-97644209D01*
X145544132Y-97688400D01*
X145541961Y-97732591D01*
X145535469Y-97776357D01*
X145524718Y-97819276D01*
X145509813Y-97860935D01*
X145490896Y-97900931D01*
X145468149Y-97938881D01*
X145441793Y-97974419D01*
X145412080Y-98007202D01*
X145379296Y-98036915D01*
X145343759Y-98063272D01*
X145305809Y-98086018D01*
X145265812Y-98104935D01*
X145224153Y-98119841D01*
X145181235Y-98130592D01*
X145137469Y-98137084D01*
X145093277Y-98139255D01*
X145093190Y-98139255D01*
X144619344Y-98139255D01*
X144086523Y-98139255D01*
X143146010Y-98139255D01*
X143145923Y-98139255D01*
X143101731Y-98137084D01*
X143057965Y-98130592D01*
X143015047Y-98119841D01*
X142973388Y-98104935D01*
X142933391Y-98086018D01*
X142895441Y-98063272D01*
X142861906Y-98038400D01*
X143146010Y-98038400D01*
X143211523Y-98037631D01*
X143253190Y-98037374D01*
X143293831Y-98037631D01*
X143364472Y-98038400D01*
X143365465Y-97965227D01*
X143366908Y-97891349D01*
X143368799Y-97816765D01*
X143371138Y-97741477D01*
X143374728Y-97645750D01*
X143378660Y-97560280D01*
X143382933Y-97485067D01*
X143427805Y-97483785D01*
X143464985Y-97483015D01*
X143543190Y-97491221D01*
X143580369Y-97516092D01*
X143592164Y-97554810D01*
X143576523Y-97604554D01*
X143530369Y-97639426D01*
X143462420Y-97650708D01*
X143408062Y-97645579D01*
X143460882Y-97790708D01*
X143482036Y-97849041D01*
X143497292Y-97892759D01*
X143512164Y-97939426D01*
X143530369Y-98000323D01*
X143541908Y-98038400D01*
X143614215Y-98037631D01*
X143662933Y-98037374D01*
X143706010Y-98037631D01*
X143776779Y-98038400D01*
X143760369Y-97999938D01*
X143693058Y-97852759D01*
X143861395Y-97852759D01*
X143866979Y-97901363D01*
X143872107Y-97959654D01*
X143876779Y-98027631D01*
X143956381Y-98041021D01*
X144026295Y-98049055D01*
X144086523Y-98051733D01*
X144139023Y-98049041D01*
X144188831Y-98040964D01*
X144235305Y-98026156D01*
X144277805Y-98003272D01*
X144313703Y-97972631D01*
X144340369Y-97934554D01*
X144356908Y-97891669D01*
X144362420Y-97846605D01*
X144358831Y-97813015D01*
X144347805Y-97781990D01*
X144326523Y-97748144D01*
X144293703Y-97710708D01*
X144258318Y-97678400D01*
X144221395Y-97649169D01*
X144163446Y-97602759D01*
X144133703Y-97574041D01*
X144118318Y-97551221D01*
X144114215Y-97531221D01*
X144140626Y-97494297D01*
X144207036Y-97479426D01*
X144274215Y-97486862D01*
X144315241Y-97497182D01*
X144360369Y-97513272D01*
X144358572Y-97495323D01*
X144431651Y-97495323D01*
X144650113Y-97489682D01*
X144648229Y-97574224D01*
X144645508Y-97656715D01*
X144641950Y-97737155D01*
X144637554Y-97815543D01*
X144632321Y-97891880D01*
X144626251Y-97966166D01*
X144619344Y-98038400D01*
X144696779Y-98037631D01*
X144737292Y-98037374D01*
X144776779Y-98037631D01*
X144846010Y-98038400D01*
X144846779Y-97964362D01*
X144849087Y-97870451D01*
X144851423Y-97800508D01*
X144854329Y-97729141D01*
X144857805Y-97656349D01*
X144862805Y-97575964D01*
X144869600Y-97488656D01*
X144905497Y-97488656D01*
X144957292Y-97489226D01*
X145017634Y-97490936D01*
X145086523Y-97493785D01*
X145087292Y-97454297D01*
X145090113Y-97388144D01*
X145093190Y-97338400D01*
X145026523Y-97338913D01*
X144903446Y-97338913D01*
X144776779Y-97339426D01*
X144682869Y-97339362D01*
X144594985Y-97339169D01*
X144513126Y-97338849D01*
X144437292Y-97338400D01*
X144436010Y-97390579D01*
X144434215Y-97438400D01*
X144431651Y-97495323D01*
X144358572Y-97495323D01*
X144354087Y-97450515D01*
X144350626Y-97409938D01*
X144347036Y-97345067D01*
X144280711Y-97333956D01*
X144217805Y-97327289D01*
X144158318Y-97325067D01*
X144072677Y-97331990D01*
X143994728Y-97357887D01*
X143936267Y-97403015D01*
X143903190Y-97459169D01*
X143892164Y-97520451D01*
X143899087Y-97569938D01*
X143921138Y-97615836D01*
X143963446Y-97664554D01*
X144010626Y-97706092D01*
X144107036Y-97790195D01*
X144127549Y-97811990D01*
X144137292Y-97829938D01*
X144139856Y-97846605D01*
X144113446Y-97885323D01*
X144042420Y-97898400D01*
X143963703Y-97888400D01*
X143915690Y-97874490D01*
X143861395Y-97852759D01*
X143693058Y-97852759D01*
X143691651Y-97849682D01*
X143667549Y-97794297D01*
X143640882Y-97729169D01*
X143686459Y-97709362D01*
X143720626Y-97689938D01*
X143767805Y-97644297D01*
X143795241Y-97587887D01*
X143803959Y-97523528D01*
X143796010Y-97465836D01*
X143773703Y-97418913D01*
X143737805Y-97382759D01*
X143684728Y-97355323D01*
X143614728Y-97340451D01*
X143559856Y-97336605D01*
X143497805Y-97335323D01*
X143441138Y-97335900D01*
X143382933Y-97337631D01*
X143328446Y-97339362D01*
X143282933Y-97339938D01*
X143237292Y-97339554D01*
X143179344Y-97338400D01*
X143178831Y-97411797D01*
X143177292Y-97506862D01*
X143175697Y-97576292D01*
X143173646Y-97643386D01*
X143171138Y-97708144D01*
X143166651Y-97797759D01*
X143161395Y-97875836D01*
X143154728Y-97952631D01*
X143146010Y-98038400D01*
X142861906Y-98038400D01*
X142859904Y-98036915D01*
X142827120Y-98007202D01*
X142797407Y-97974419D01*
X142771051Y-97938881D01*
X142748304Y-97900931D01*
X142729387Y-97860935D01*
X142714482Y-97819276D01*
X142703731Y-97776357D01*
X142697239Y-97732591D01*
X142695068Y-97688400D01*
X142697239Y-97644209D01*
X142703731Y-97600443D01*
X142714482Y-97557524D01*
X142729387Y-97515865D01*
X142748304Y-97475869D01*
X142771051Y-97437919D01*
X142797407Y-97402381D01*
X142827120Y-97369598D01*
X142859904Y-97339885D01*
X142895441Y-97313528D01*
X142933391Y-97290782D01*
X142973388Y-97271865D01*
X143015047Y-97256959D01*
X143057965Y-97246208D01*
X143101731Y-97239716D01*
X143145923Y-97237545D01*
X143146010Y-97237545D01*
X145093190Y-97237545D01*
X145093277Y-97237545D01*
X145137469Y-97239716D01*
G37*
D11*
%TO.C,C2*%
X141226830Y-95699981D02*
X141028019Y-95501170D01*
X140505581Y-96421230D02*
X140306770Y-96222419D01*
%TO.C,R1*%
X154923258Y-96204300D02*
X154448742Y-96204300D01*
X154923258Y-95159300D02*
X154448742Y-95159300D01*
%TO.C,C16*%
X150421630Y-97644819D02*
X150222819Y-97843630D01*
X149700381Y-96923570D02*
X149501570Y-97122381D01*
%TO.C,C15*%
X151488430Y-98711619D02*
X151289619Y-98910430D01*
X150767181Y-97990370D02*
X150568370Y-98189181D01*
D12*
%TO.C,kibuzzard-667D9F19*%
G36*
X141395191Y-78206639D02*
G01*
X141438957Y-78213131D01*
X141481876Y-78223882D01*
X141523535Y-78238787D01*
X141563531Y-78257704D01*
X141601481Y-78280451D01*
X141637019Y-78306807D01*
X141669802Y-78336520D01*
X141699515Y-78369304D01*
X141725872Y-78404841D01*
X141748618Y-78442791D01*
X141767535Y-78482788D01*
X141782441Y-78524447D01*
X141793192Y-78567365D01*
X141799684Y-78611131D01*
X141801855Y-78655323D01*
X141801855Y-78655410D01*
X141801855Y-80602590D01*
X141801855Y-80602677D01*
X141799684Y-80646869D01*
X141793192Y-80690635D01*
X141782441Y-80733553D01*
X141767535Y-80775212D01*
X141748618Y-80815209D01*
X141725872Y-80853159D01*
X141699515Y-80888696D01*
X141669802Y-80921480D01*
X141637019Y-80951193D01*
X141601481Y-80977549D01*
X141563531Y-81000296D01*
X141523535Y-81019213D01*
X141481876Y-81034118D01*
X141438957Y-81044869D01*
X141395191Y-81051361D01*
X141351000Y-81053532D01*
X141306809Y-81051361D01*
X141263043Y-81044869D01*
X141220124Y-81034118D01*
X141178465Y-81019213D01*
X141138469Y-81000296D01*
X141100519Y-80977549D01*
X141064981Y-80951193D01*
X141032198Y-80921480D01*
X141002485Y-80888696D01*
X140976128Y-80853159D01*
X140953382Y-80815209D01*
X140934465Y-80775212D01*
X140919559Y-80733553D01*
X140908808Y-80690635D01*
X140902316Y-80646869D01*
X140900145Y-80602677D01*
X140900145Y-80602590D01*
X140900145Y-80128744D01*
X141001000Y-80128744D01*
X141001769Y-80206179D01*
X141002026Y-80246692D01*
X141001769Y-80286179D01*
X141001000Y-80355410D01*
X141075038Y-80356179D01*
X141168949Y-80358487D01*
X141238892Y-80360823D01*
X141310259Y-80363729D01*
X141383051Y-80367205D01*
X141463436Y-80372205D01*
X141550744Y-80379000D01*
X141550744Y-80414897D01*
X141550174Y-80466692D01*
X141548464Y-80527034D01*
X141545615Y-80595923D01*
X141585103Y-80596692D01*
X141651256Y-80599513D01*
X141701000Y-80602590D01*
X141700487Y-80535923D01*
X141700487Y-80412846D01*
X141699974Y-80286179D01*
X141700038Y-80192269D01*
X141700231Y-80104385D01*
X141700551Y-80022526D01*
X141701000Y-79946692D01*
X141648821Y-79945410D01*
X141601000Y-79943615D01*
X141544077Y-79941051D01*
X141549718Y-80159513D01*
X141465176Y-80157629D01*
X141382685Y-80154908D01*
X141302245Y-80151350D01*
X141223857Y-80146954D01*
X141147520Y-80141721D01*
X141073234Y-80135651D01*
X141001000Y-80128744D01*
X140900145Y-80128744D01*
X140900145Y-79595923D01*
X140987667Y-79595923D01*
X140990359Y-79648423D01*
X140998436Y-79698231D01*
X141013244Y-79744705D01*
X141036128Y-79787205D01*
X141066769Y-79823103D01*
X141104846Y-79849769D01*
X141147731Y-79866308D01*
X141192795Y-79871820D01*
X141226385Y-79868231D01*
X141257410Y-79857205D01*
X141291256Y-79835923D01*
X141328692Y-79803103D01*
X141361000Y-79767718D01*
X141390231Y-79730795D01*
X141436641Y-79672846D01*
X141465359Y-79643103D01*
X141488179Y-79627718D01*
X141508179Y-79623615D01*
X141545103Y-79650026D01*
X141559974Y-79716436D01*
X141552538Y-79783615D01*
X141542218Y-79824641D01*
X141526128Y-79869769D01*
X141588885Y-79863487D01*
X141629462Y-79860026D01*
X141694333Y-79856436D01*
X141705444Y-79790111D01*
X141712111Y-79727205D01*
X141714333Y-79667718D01*
X141707410Y-79582077D01*
X141681513Y-79504128D01*
X141636385Y-79445667D01*
X141580231Y-79412590D01*
X141518949Y-79401564D01*
X141469462Y-79408487D01*
X141423564Y-79430538D01*
X141374846Y-79472846D01*
X141333308Y-79520026D01*
X141249205Y-79616436D01*
X141227410Y-79636949D01*
X141209462Y-79646692D01*
X141192795Y-79649256D01*
X141154077Y-79622846D01*
X141141000Y-79551820D01*
X141151000Y-79473103D01*
X141164910Y-79425090D01*
X141186641Y-79370795D01*
X141138037Y-79376379D01*
X141079746Y-79381507D01*
X141011769Y-79386179D01*
X140998379Y-79465781D01*
X140990345Y-79535695D01*
X140987667Y-79595923D01*
X140900145Y-79595923D01*
X140900145Y-78873872D01*
X141001000Y-78873872D01*
X141074173Y-78874865D01*
X141148051Y-78876308D01*
X141222635Y-78878199D01*
X141297923Y-78880538D01*
X141393650Y-78884128D01*
X141479120Y-78888060D01*
X141554333Y-78892333D01*
X141555615Y-78937205D01*
X141556385Y-78974385D01*
X141548179Y-79052590D01*
X141523308Y-79089769D01*
X141484590Y-79101564D01*
X141434846Y-79085923D01*
X141399974Y-79039769D01*
X141388692Y-78971820D01*
X141393821Y-78917462D01*
X141248692Y-78970282D01*
X141190359Y-78991436D01*
X141146641Y-79006692D01*
X141099974Y-79021564D01*
X141039077Y-79039769D01*
X141001000Y-79051308D01*
X141001769Y-79123615D01*
X141002026Y-79172333D01*
X141001769Y-79215410D01*
X141001000Y-79286179D01*
X141039462Y-79269769D01*
X141189718Y-79201051D01*
X141245103Y-79176949D01*
X141310231Y-79150282D01*
X141330038Y-79195859D01*
X141349462Y-79230026D01*
X141395103Y-79277205D01*
X141451513Y-79304641D01*
X141515872Y-79313359D01*
X141573564Y-79305410D01*
X141620487Y-79283103D01*
X141656641Y-79247205D01*
X141684077Y-79194128D01*
X141698949Y-79124128D01*
X141702795Y-79069256D01*
X141704077Y-79007205D01*
X141703500Y-78950538D01*
X141701769Y-78892333D01*
X141700038Y-78837846D01*
X141699462Y-78792333D01*
X141699846Y-78746692D01*
X141701000Y-78688744D01*
X141627603Y-78688231D01*
X141532538Y-78686692D01*
X141463108Y-78685097D01*
X141396014Y-78683046D01*
X141331256Y-78680538D01*
X141241641Y-78676051D01*
X141163564Y-78670795D01*
X141086769Y-78664128D01*
X141001000Y-78655410D01*
X141001769Y-78720923D01*
X141002026Y-78762590D01*
X141001769Y-78803231D01*
X141001000Y-78873872D01*
X140900145Y-78873872D01*
X140900145Y-78655410D01*
X140900145Y-78655323D01*
X140902316Y-78611131D01*
X140908808Y-78567365D01*
X140919559Y-78524447D01*
X140934465Y-78482788D01*
X140953382Y-78442791D01*
X140976128Y-78404841D01*
X141002485Y-78369304D01*
X141032198Y-78336520D01*
X141064981Y-78306807D01*
X141100519Y-78280451D01*
X141138469Y-78257704D01*
X141178465Y-78238787D01*
X141220124Y-78223882D01*
X141263043Y-78213131D01*
X141306809Y-78206639D01*
X141351000Y-78204468D01*
X141395191Y-78206639D01*
G37*
D13*
%TO.C,SW1*%
X139944000Y-85979000D02*
X139944000Y-84201000D01*
X137782000Y-87390000D02*
X137644000Y-87390000D01*
X137644000Y-87390000D02*
X137644000Y-82790000D01*
X137644000Y-82790000D02*
X137782000Y-82790000D01*
X136444000Y-86090000D02*
X137644000Y-86090000D01*
X136444000Y-86090000D02*
X136444000Y-84090000D01*
X136444000Y-84090000D02*
X137644000Y-84090000D01*
D12*
%TO.C,kibuzzard-667D9F2A*%
G36*
X137839191Y-89270921D02*
G01*
X137882957Y-89277413D01*
X137925876Y-89288164D01*
X137967535Y-89303069D01*
X138007531Y-89321986D01*
X138045481Y-89344733D01*
X138081019Y-89371089D01*
X138113802Y-89400802D01*
X138143515Y-89433586D01*
X138169872Y-89469123D01*
X138192618Y-89507073D01*
X138211535Y-89547070D01*
X138226441Y-89588729D01*
X138237192Y-89631647D01*
X138243684Y-89675413D01*
X138245855Y-89719605D01*
X138245855Y-89719692D01*
X138245855Y-92144308D01*
X138245855Y-92144395D01*
X138243684Y-92188587D01*
X138237192Y-92232353D01*
X138226441Y-92275271D01*
X138211535Y-92316930D01*
X138192618Y-92356927D01*
X138169872Y-92394877D01*
X138143515Y-92430414D01*
X138113802Y-92463198D01*
X138081019Y-92492911D01*
X138045481Y-92519267D01*
X138007531Y-92542014D01*
X137967535Y-92560931D01*
X137925876Y-92575836D01*
X137882957Y-92586587D01*
X137839191Y-92593079D01*
X137795000Y-92595250D01*
X137750809Y-92593079D01*
X137707043Y-92586587D01*
X137664124Y-92575836D01*
X137622465Y-92560931D01*
X137582469Y-92542014D01*
X137544519Y-92519267D01*
X137508981Y-92492911D01*
X137476198Y-92463198D01*
X137446485Y-92430414D01*
X137420128Y-92394877D01*
X137397382Y-92356927D01*
X137378465Y-92316930D01*
X137363559Y-92275271D01*
X137352808Y-92232353D01*
X137346316Y-92188587D01*
X137344145Y-92144395D01*
X137344145Y-92144308D01*
X137344145Y-91717641D01*
X137445000Y-91717641D01*
X137446538Y-91784179D01*
X137451154Y-91843282D01*
X137466026Y-91921744D01*
X137491667Y-91978667D01*
X137544744Y-92046103D01*
X137578782Y-92073731D01*
X137618846Y-92097641D01*
X137664551Y-92117256D01*
X137715513Y-92132000D01*
X137770192Y-92141231D01*
X137827051Y-92144308D01*
X137885192Y-92140333D01*
X137941667Y-92128410D01*
X137993782Y-92108923D01*
X138038846Y-92082256D01*
X138076410Y-92048346D01*
X138106026Y-92007128D01*
X138127308Y-91960526D01*
X138139872Y-91910462D01*
X138146026Y-91854436D01*
X138148077Y-91789949D01*
X138147500Y-91727897D01*
X138145769Y-91661744D01*
X138144038Y-91600077D01*
X138143462Y-91551487D01*
X138143846Y-91503795D01*
X138145000Y-91447897D01*
X138085000Y-91447897D01*
X138040385Y-91447385D01*
X137979701Y-91445846D01*
X137902949Y-91443282D01*
X137823718Y-91440205D01*
X137752179Y-91437128D01*
X137688333Y-91434051D01*
X137632179Y-91430974D01*
X137580157Y-91427442D01*
X137517764Y-91422313D01*
X137445000Y-91415590D01*
X137446154Y-91472128D01*
X137446538Y-91510462D01*
X137445000Y-91717641D01*
X137344145Y-91717641D01*
X137344145Y-91415590D01*
X137344145Y-90755590D01*
X137445000Y-90755590D01*
X137649615Y-90760718D01*
X137892692Y-90771487D01*
X137845000Y-90796231D01*
X137801410Y-90820205D01*
X137734231Y-90857769D01*
X137663974Y-90898667D01*
X137517821Y-90984820D01*
X137445000Y-91024308D01*
X137445769Y-91100205D01*
X137446026Y-91157641D01*
X137445769Y-91217769D01*
X137445000Y-91282256D01*
X137567564Y-91285333D01*
X137992179Y-91308410D01*
X138145000Y-91320718D01*
X138144231Y-91254051D01*
X138143974Y-91220205D01*
X138144231Y-91175974D01*
X138145000Y-91119179D01*
X138094687Y-91118524D01*
X138023063Y-91116558D01*
X137930128Y-91113282D01*
X137834231Y-91109379D01*
X137753718Y-91105533D01*
X137688590Y-91101744D01*
X137747051Y-91071487D01*
X138145000Y-90852000D01*
X138144231Y-90781872D01*
X138143974Y-90729436D01*
X138144231Y-90663795D01*
X138145000Y-90588923D01*
X138065000Y-90588923D01*
X137917821Y-90583282D01*
X137552692Y-90563282D01*
X137445000Y-90553026D01*
X137445769Y-90618154D01*
X137446026Y-90658667D01*
X137445769Y-90699564D01*
X137445000Y-90755590D01*
X137344145Y-90755590D01*
X137344145Y-90553026D01*
X137344145Y-90139179D01*
X137431667Y-90139179D01*
X137432628Y-90184692D01*
X137435513Y-90236103D01*
X137439615Y-90286551D01*
X137444231Y-90329179D01*
X137450577Y-90372962D01*
X137459872Y-90426872D01*
X137510641Y-90428496D01*
X137575427Y-90431316D01*
X137654231Y-90435333D01*
X137733547Y-90439920D01*
X137799872Y-90444450D01*
X137853205Y-90448923D01*
X137852436Y-90375590D01*
X137852179Y-90278667D01*
X137852436Y-90213410D01*
X137853205Y-90144820D01*
X137800641Y-90143795D01*
X137771154Y-90142256D01*
X137708077Y-90138667D01*
X137708590Y-90193026D01*
X137707051Y-90232513D01*
X137595769Y-90226872D01*
X137585769Y-90174692D01*
X137582436Y-90126872D01*
X137587821Y-90074564D01*
X137603974Y-90027385D01*
X137630449Y-89988795D01*
X137666795Y-89962256D01*
X137710962Y-89946872D01*
X137760897Y-89941744D01*
X137811410Y-89946231D01*
X137859359Y-89959692D01*
X137902756Y-89982192D01*
X137939615Y-90013795D01*
X137968846Y-90053474D01*
X137989359Y-90100205D01*
X138001474Y-90152000D01*
X138005513Y-90206872D01*
X138002949Y-90255846D01*
X137995000Y-90313795D01*
X137983205Y-90367128D01*
X137964487Y-90426872D01*
X138052051Y-90421872D01*
X138131154Y-90420205D01*
X138146254Y-90331943D01*
X138155313Y-90249037D01*
X138158333Y-90171487D01*
X138155080Y-90098106D01*
X138145321Y-90031808D01*
X138129054Y-89972593D01*
X138106282Y-89920462D01*
X138067450Y-89860718D01*
X138020356Y-89811060D01*
X137965000Y-89771487D01*
X137903860Y-89742712D01*
X137839416Y-89725447D01*
X137771667Y-89719692D01*
X137709615Y-89724500D01*
X137649615Y-89738923D01*
X137594615Y-89762192D01*
X137547564Y-89793538D01*
X137508974Y-89833346D01*
X137479359Y-89882000D01*
X137457692Y-89938603D01*
X137442949Y-90002256D01*
X137434487Y-90070077D01*
X137431667Y-90139179D01*
X137344145Y-90139179D01*
X137344145Y-89719692D01*
X137344145Y-89719605D01*
X137346316Y-89675413D01*
X137352808Y-89631647D01*
X137363559Y-89588729D01*
X137378465Y-89547070D01*
X137397382Y-89507073D01*
X137420128Y-89469123D01*
X137446485Y-89433586D01*
X137476198Y-89400802D01*
X137508981Y-89371089D01*
X137544519Y-89344733D01*
X137582469Y-89321986D01*
X137622465Y-89303069D01*
X137664124Y-89288164D01*
X137707043Y-89277413D01*
X137750809Y-89270921D01*
X137795000Y-89268750D01*
X137839191Y-89270921D01*
G37*
G36*
X137994744Y-91654564D02*
G01*
X137997821Y-91741744D01*
X137993718Y-91798218D01*
X137981410Y-91841487D01*
X137923205Y-91900205D01*
X137876603Y-91916744D01*
X137820385Y-91922256D01*
X137771218Y-91918538D01*
X137723205Y-91907385D01*
X137680064Y-91888474D01*
X137645513Y-91861487D01*
X137606026Y-91789436D01*
X137599103Y-91745590D01*
X137596795Y-91696103D01*
X137599359Y-91637128D01*
X137994744Y-91654564D01*
G37*
D11*
%TO.C,C10*%
X157330430Y-93072819D02*
X157131619Y-93271630D01*
X156609181Y-92351570D02*
X156410370Y-92550381D01*
D13*
%TO.C,SW2*%
X139944000Y-80518000D02*
X139944000Y-78740000D01*
X137782000Y-81929000D02*
X137644000Y-81929000D01*
X137644000Y-81929000D02*
X137644000Y-77329000D01*
X137644000Y-77329000D02*
X137782000Y-77329000D01*
X136444000Y-80629000D02*
X137644000Y-80629000D01*
X136444000Y-80629000D02*
X136444000Y-78629000D01*
X136444000Y-78629000D02*
X137644000Y-78629000D01*
D11*
%TO.C,R5*%
X141832097Y-91774030D02*
X142167630Y-91438497D01*
X141093170Y-91035103D02*
X141428703Y-90699570D01*
%TO.C,C11*%
X154003030Y-81018781D02*
X153804219Y-80819970D01*
X153281781Y-81740030D02*
X153082970Y-81541219D01*
D12*
%TO.C,kibuzzard-667D9F03*%
G36*
X151069997Y-81593316D02*
G01*
X151113763Y-81599808D01*
X151156682Y-81610559D01*
X151198340Y-81625465D01*
X151238337Y-81644382D01*
X151276287Y-81667128D01*
X151311825Y-81693485D01*
X151344608Y-81723198D01*
X151374321Y-81755981D01*
X151400677Y-81791519D01*
X151423424Y-81829469D01*
X151442341Y-81869465D01*
X151457246Y-81911124D01*
X151467997Y-81954043D01*
X151474489Y-81997809D01*
X151476660Y-82042000D01*
X151474489Y-82086191D01*
X151467997Y-82129957D01*
X151457246Y-82172876D01*
X151442341Y-82214535D01*
X151423424Y-82254531D01*
X151400677Y-82292481D01*
X151374321Y-82328019D01*
X151344608Y-82360802D01*
X151311825Y-82390515D01*
X151276287Y-82416872D01*
X151238337Y-82439618D01*
X151198340Y-82458535D01*
X151156682Y-82473441D01*
X151113763Y-82484192D01*
X151069997Y-82490684D01*
X151025805Y-82492855D01*
X151025718Y-82492855D01*
X151021103Y-82492855D01*
X150280590Y-82492855D01*
X149660590Y-82492855D01*
X149345205Y-82492855D01*
X148948282Y-82492855D01*
X148948194Y-82492855D01*
X148904003Y-82490684D01*
X148860237Y-82484192D01*
X148817318Y-82473441D01*
X148775660Y-82458535D01*
X148735663Y-82439618D01*
X148697713Y-82416872D01*
X148662175Y-82390515D01*
X148629392Y-82360802D01*
X148599679Y-82328019D01*
X148573323Y-82292481D01*
X148550576Y-82254531D01*
X148531659Y-82214535D01*
X148516754Y-82172876D01*
X148506003Y-82129957D01*
X148499511Y-82086191D01*
X148498285Y-82061231D01*
X148948282Y-82061231D01*
X148954692Y-82136872D01*
X148973923Y-82204821D01*
X149008090Y-82264756D01*
X149059308Y-82316359D01*
X149122000Y-82357128D01*
X149190590Y-82384564D01*
X149265013Y-82400141D01*
X149345205Y-82405333D01*
X149405262Y-82403567D01*
X149470561Y-82398268D01*
X149520624Y-82392000D01*
X149660590Y-82392000D01*
X149725205Y-82391551D01*
X149794949Y-82391231D01*
X149869820Y-82391038D01*
X149949820Y-82390974D01*
X150032612Y-82391088D01*
X150118254Y-82391430D01*
X150206744Y-82392000D01*
X150280590Y-82392000D01*
X150356872Y-82391231D01*
X150398026Y-82390974D01*
X150509308Y-82392000D01*
X150521615Y-82075077D01*
X150524906Y-82022769D01*
X150537513Y-82022769D01*
X150594990Y-82115815D01*
X150645574Y-82199262D01*
X150689267Y-82273108D01*
X150726067Y-82337354D01*
X150755974Y-82392000D01*
X150839692Y-82391231D01*
X150894949Y-82390974D01*
X151021103Y-82392000D01*
X150806744Y-82080718D01*
X150768795Y-82020205D01*
X150809308Y-81965333D01*
X151025718Y-81692000D01*
X150938410Y-81692769D01*
X150903154Y-81693026D01*
X150853923Y-81692769D01*
X150773923Y-81692000D01*
X150745205Y-81736103D01*
X150652385Y-81866359D01*
X150537513Y-82022769D01*
X150524906Y-82022769D01*
X150545718Y-81692000D01*
X150473410Y-81692769D01*
X150434949Y-81693026D01*
X150389308Y-81692769D01*
X150317000Y-81692000D01*
X150317000Y-81736103D01*
X150316316Y-81781915D01*
X150314265Y-81845504D01*
X150310846Y-81926872D01*
X150306551Y-82018891D01*
X150302385Y-82100590D01*
X150298346Y-82171968D01*
X150294436Y-82233026D01*
X150288923Y-82304308D01*
X150280590Y-82392000D01*
X150206744Y-82392000D01*
X150218026Y-82237128D01*
X150164578Y-82239123D01*
X150096544Y-82240319D01*
X150013923Y-82240718D01*
X149971872Y-82240333D01*
X149899051Y-82239179D01*
X149901103Y-82167897D01*
X149916487Y-81877641D01*
X149928795Y-81692000D01*
X149868538Y-81692769D01*
X149824179Y-81693026D01*
X149766359Y-81692769D01*
X149700590Y-81692000D01*
X149699991Y-81756017D01*
X149698197Y-81831145D01*
X149695205Y-81917385D01*
X149692176Y-81986343D01*
X149688474Y-82055526D01*
X149684099Y-82124933D01*
X149679051Y-82194564D01*
X149674493Y-82250462D01*
X149668339Y-82316274D01*
X149660590Y-82392000D01*
X149520624Y-82392000D01*
X149541103Y-82389436D01*
X149552897Y-82305590D01*
X149567769Y-82221231D01*
X149508603Y-82235397D01*
X149460333Y-82244051D01*
X149381103Y-82249949D01*
X149319756Y-82244244D01*
X149269051Y-82227128D01*
X149228346Y-82199564D01*
X149197000Y-82162513D01*
X149177000Y-82116551D01*
X149170333Y-82062256D01*
X149178282Y-82000974D01*
X149202128Y-81945333D01*
X149239820Y-81898795D01*
X149289308Y-81864821D01*
X149348154Y-81844051D01*
X149413923Y-81837128D01*
X149482897Y-81842256D01*
X149525782Y-81849692D01*
X149580077Y-81861744D01*
X149576487Y-81803282D01*
X149573410Y-81741231D01*
X149572385Y-81698154D01*
X149501843Y-81687328D01*
X149439279Y-81680832D01*
X149384692Y-81678667D01*
X149303410Y-81683987D01*
X149224692Y-81699949D01*
X149150397Y-81728282D01*
X149082385Y-81770718D01*
X149025077Y-81826359D01*
X148982897Y-81894308D01*
X148956936Y-81973090D01*
X148948282Y-82061231D01*
X148498285Y-82061231D01*
X148497340Y-82042000D01*
X148499511Y-81997809D01*
X148506003Y-81954043D01*
X148516754Y-81911124D01*
X148531659Y-81869465D01*
X148550576Y-81829469D01*
X148573323Y-81791519D01*
X148599679Y-81755981D01*
X148629392Y-81723198D01*
X148662175Y-81693485D01*
X148697713Y-81667128D01*
X148735663Y-81644382D01*
X148775660Y-81625465D01*
X148817318Y-81610559D01*
X148860237Y-81599808D01*
X148904003Y-81593316D01*
X148948194Y-81591145D01*
X148948282Y-81591145D01*
X151025718Y-81591145D01*
X151025805Y-81591145D01*
X151069997Y-81593316D01*
G37*
D11*
%TO.C,TP3*%
X152846000Y-82423000D02*
G75*
G02*
X151446000Y-82423000I-700000J0D01*
G01*
X151446000Y-82423000D02*
G75*
G02*
X152846000Y-82423000I700000J0D01*
G01*
%TO.C,U9*%
X145575000Y-100775000D02*
X145245000Y-101015000D01*
X145245000Y-100535000D01*
X145575000Y-100775000D01*
G36*
X145575000Y-100775000D02*
G01*
X145245000Y-101015000D01*
X145245000Y-100535000D01*
X145575000Y-100775000D01*
G37*
X147845000Y-100395000D02*
X147845000Y-98995000D01*
X145525000Y-100405000D02*
X145525000Y-98995000D01*
%TO.C,TP1*%
X146750000Y-97028000D02*
G75*
G02*
X145350000Y-97028000I-700000J0D01*
G01*
X145350000Y-97028000D02*
G75*
G02*
X146750000Y-97028000I700000J0D01*
G01*
%TO.C,C3*%
X146671420Y-79554800D02*
X146952580Y-79554800D01*
X146671420Y-78534800D02*
X146952580Y-78534800D01*
%TO.C,U2*%
X147195694Y-89635391D02*
X146622938Y-89543467D01*
X147103770Y-89062635D01*
X147195694Y-89635391D01*
G36*
X147195694Y-89635391D02*
G01*
X146622938Y-89543467D01*
X147103770Y-89062635D01*
X147195694Y-89635391D01*
G37*
X157505311Y-88900000D02*
X157187113Y-88581802D01*
X157187113Y-89218198D02*
X157505311Y-88900000D01*
X152718198Y-93687113D02*
X152400000Y-94005311D01*
X152400000Y-94005311D02*
X152081802Y-93687113D01*
X152400000Y-83794689D02*
X152718198Y-84112887D01*
X152081802Y-84112887D02*
X152400000Y-83794689D01*
X147612887Y-88581802D02*
X147294689Y-88900000D01*
X147294689Y-88900000D02*
X147612887Y-89218198D01*
%TO.C,J4*%
X158357000Y-71625500D02*
X158357000Y-73149500D01*
X158357000Y-68831500D02*
X158357000Y-69085500D01*
X158357000Y-67815500D02*
X158357000Y-68831500D01*
X150229000Y-71625500D02*
X150229000Y-73149500D01*
X150229000Y-69085500D02*
X150229000Y-67815500D01*
X150229000Y-67815500D02*
X158357000Y-67815500D01*
%TO.C,D1*%
X139372684Y-92136871D02*
X137474103Y-94035452D01*
X138831748Y-95393097D02*
X140730329Y-93494516D01*
X137474103Y-94035452D02*
X138831748Y-95393097D01*
D12*
%TO.C,kibuzzard-667D9F22*%
G36*
X140252191Y-87555152D02*
G01*
X140295957Y-87561644D01*
X140338876Y-87572395D01*
X140380535Y-87587300D01*
X140420531Y-87606217D01*
X140458481Y-87628964D01*
X140494019Y-87655320D01*
X140526802Y-87685033D01*
X140556515Y-87717816D01*
X140582872Y-87753354D01*
X140605618Y-87791304D01*
X140624535Y-87831301D01*
X140639441Y-87872959D01*
X140650192Y-87915878D01*
X140656684Y-87959644D01*
X140658855Y-88003836D01*
X140658855Y-88003923D01*
X140658855Y-90050077D01*
X140658855Y-90050164D01*
X140656684Y-90094356D01*
X140650192Y-90138122D01*
X140639441Y-90181041D01*
X140624535Y-90222699D01*
X140605618Y-90262696D01*
X140582872Y-90300646D01*
X140556515Y-90336184D01*
X140526802Y-90368967D01*
X140494019Y-90398680D01*
X140458481Y-90425036D01*
X140420531Y-90447783D01*
X140380535Y-90466700D01*
X140338876Y-90481605D01*
X140295957Y-90492356D01*
X140252191Y-90498848D01*
X140208000Y-90501019D01*
X140163809Y-90498848D01*
X140120043Y-90492356D01*
X140077124Y-90481605D01*
X140035465Y-90466700D01*
X139995469Y-90447783D01*
X139957519Y-90425036D01*
X139921981Y-90398680D01*
X139889198Y-90368967D01*
X139859485Y-90336184D01*
X139833128Y-90300646D01*
X139810382Y-90262696D01*
X139791465Y-90222699D01*
X139776559Y-90181041D01*
X139765808Y-90138122D01*
X139759316Y-90094356D01*
X139757145Y-90050164D01*
X139757145Y-90050077D01*
X139757145Y-89730077D01*
X139844667Y-89730077D01*
X139847744Y-89789372D01*
X139856974Y-89848282D01*
X139873321Y-89903667D01*
X139897744Y-89952385D01*
X139929859Y-89992256D01*
X139969282Y-90021103D01*
X140014282Y-90038603D01*
X140063128Y-90044436D01*
X140111333Y-90038282D01*
X140152103Y-90019308D01*
X140183897Y-89988026D01*
X140204667Y-89951359D01*
X140218513Y-89900846D01*
X140240564Y-89950077D01*
X140266205Y-89988026D01*
X140302872Y-90021872D01*
X140347744Y-90043154D01*
X140398000Y-90050077D01*
X140476462Y-90031359D01*
X140533128Y-89972897D01*
X140551526Y-89929115D01*
X140563128Y-89877256D01*
X140569282Y-89820205D01*
X140571333Y-89760846D01*
X140569852Y-89696914D01*
X140565407Y-89628880D01*
X140558000Y-89556744D01*
X140524154Y-89550590D01*
X140405179Y-89524949D01*
X140415692Y-89580974D01*
X140421590Y-89623923D01*
X140425179Y-89692641D01*
X140419282Y-89755205D01*
X140399026Y-89792897D01*
X140366718Y-89805462D01*
X140329538Y-89789564D01*
X140306462Y-89743154D01*
X140300564Y-89666487D01*
X140307231Y-89589051D01*
X140229154Y-89583795D01*
X140149795Y-89577256D01*
X140154026Y-89619820D01*
X140155436Y-89666487D01*
X140151077Y-89731936D01*
X140138000Y-89777513D01*
X140083128Y-89813154D01*
X140021846Y-89778026D01*
X140004731Y-89737449D01*
X139999026Y-89685974D01*
X140003299Y-89621986D01*
X140016120Y-89553097D01*
X140037487Y-89479308D01*
X139965308Y-89485974D01*
X139871846Y-89492641D01*
X139858833Y-89561551D01*
X139850564Y-89619564D01*
X139846141Y-89673474D01*
X139844667Y-89730077D01*
X139757145Y-89730077D01*
X139757145Y-89122897D01*
X139858000Y-89122897D01*
X139923513Y-89153154D01*
X139979538Y-89180333D01*
X140330308Y-89357256D01*
X140413499Y-89399820D01*
X140489396Y-89439308D01*
X140558000Y-89475718D01*
X140557231Y-89405974D01*
X140556974Y-89363923D01*
X140557231Y-89311487D01*
X140558000Y-89244436D01*
X140511333Y-89225718D01*
X140486718Y-89215205D01*
X140094923Y-89036231D01*
X140035949Y-89012641D01*
X140091205Y-88997513D01*
X140134923Y-88984949D01*
X140377487Y-88909564D01*
X140445564Y-88888026D01*
X140488769Y-88874692D01*
X140558000Y-88856231D01*
X140557231Y-88794436D01*
X140556974Y-88751615D01*
X140557231Y-88693410D01*
X140558000Y-88627513D01*
X140281077Y-88725974D01*
X139920564Y-88851103D01*
X139858000Y-88870077D01*
X139858769Y-88950205D01*
X139859026Y-88999820D01*
X139858769Y-89049051D01*
X139858000Y-89122897D01*
X139757145Y-89122897D01*
X139757145Y-88870077D01*
X139757145Y-88254692D01*
X139844667Y-88254692D01*
X139847744Y-88313987D01*
X139856974Y-88372897D01*
X139873321Y-88428282D01*
X139897744Y-88477000D01*
X139929859Y-88516872D01*
X139969282Y-88545718D01*
X140014282Y-88563218D01*
X140063128Y-88569051D01*
X140111333Y-88562897D01*
X140152103Y-88543923D01*
X140183897Y-88512641D01*
X140204667Y-88475974D01*
X140218513Y-88425462D01*
X140240564Y-88474692D01*
X140266205Y-88512641D01*
X140302872Y-88546487D01*
X140347744Y-88567769D01*
X140398000Y-88574692D01*
X140476462Y-88555974D01*
X140533128Y-88497513D01*
X140551526Y-88453731D01*
X140563128Y-88401872D01*
X140569282Y-88344820D01*
X140571333Y-88285462D01*
X140569852Y-88221530D01*
X140565407Y-88153496D01*
X140558000Y-88081359D01*
X140524154Y-88075205D01*
X140405179Y-88049564D01*
X140415692Y-88105590D01*
X140421590Y-88148538D01*
X140425179Y-88217256D01*
X140419282Y-88279820D01*
X140399026Y-88317513D01*
X140366718Y-88330077D01*
X140329538Y-88314179D01*
X140306462Y-88267769D01*
X140300564Y-88191103D01*
X140307231Y-88113667D01*
X140229154Y-88108410D01*
X140149795Y-88101872D01*
X140154026Y-88144436D01*
X140155436Y-88191103D01*
X140151077Y-88256551D01*
X140138000Y-88302128D01*
X140083128Y-88337769D01*
X140021846Y-88302641D01*
X140004731Y-88262064D01*
X139999026Y-88210590D01*
X140003299Y-88146601D01*
X140016120Y-88077712D01*
X140037487Y-88003923D01*
X139965308Y-88010590D01*
X139871846Y-88017256D01*
X139858833Y-88086167D01*
X139850564Y-88144179D01*
X139846141Y-88198090D01*
X139844667Y-88254692D01*
X139757145Y-88254692D01*
X139757145Y-88003923D01*
X139757145Y-88003836D01*
X139759316Y-87959644D01*
X139765808Y-87915878D01*
X139776559Y-87872959D01*
X139791465Y-87831301D01*
X139810382Y-87791304D01*
X139833128Y-87753354D01*
X139859485Y-87717816D01*
X139889198Y-87685033D01*
X139921981Y-87655320D01*
X139957519Y-87628964D01*
X139995469Y-87606217D01*
X140035465Y-87587300D01*
X140077124Y-87572395D01*
X140120043Y-87561644D01*
X140163809Y-87555152D01*
X140208000Y-87552981D01*
X140252191Y-87555152D01*
G37*
%TD*%
M02*
