%TF.GenerationSoftware,KiCad,Pcbnew,8.0.2*%
%TF.CreationDate,2024-07-01T07:37:42+02:00*%
%TF.ProjectId,ant control board v1.2,616e7420-636f-46e7-9472-6f6c20626f61,1.1*%
%TF.SameCoordinates,Original*%
%TF.FileFunction,Soldermask,Bot*%
%TF.FilePolarity,Negative*%
%FSLAX46Y46*%
G04 Gerber Fmt 4.6, Leading zero omitted, Abs format (unit mm)*
G04 Created by KiCad (PCBNEW 8.0.2) date 2024-07-01 07:37:42*
%MOMM*%
%LPD*%
G01*
G04 APERTURE LIST*
G04 APERTURE END LIST*
G36*
X159228001Y-99563590D02*
G01*
X159234022Y-99566533D01*
X159236688Y-99566956D01*
X159279319Y-99588677D01*
X159338904Y-99617807D01*
X159426193Y-99705096D01*
X159455340Y-99764719D01*
X159477043Y-99807312D01*
X159477464Y-99809974D01*
X159480410Y-99815999D01*
X159496000Y-99923000D01*
X159496000Y-100673000D01*
X159480410Y-100780001D01*
X159477464Y-100786025D01*
X159477043Y-100788688D01*
X159455345Y-100831270D01*
X159426193Y-100890904D01*
X159338904Y-100978193D01*
X159279256Y-101007352D01*
X159236687Y-101029043D01*
X159234026Y-101029464D01*
X159228001Y-101032410D01*
X159121000Y-101048000D01*
X157871000Y-101048000D01*
X157763999Y-101032410D01*
X157757974Y-101029464D01*
X157755311Y-101029043D01*
X157712704Y-101007333D01*
X157653096Y-100978193D01*
X157565807Y-100890904D01*
X157536670Y-100831304D01*
X157514956Y-100788687D01*
X157514534Y-100786023D01*
X157511590Y-100780001D01*
X157496000Y-100673000D01*
X157496000Y-99923000D01*
X157511590Y-99815999D01*
X157514533Y-99809977D01*
X157514956Y-99807311D01*
X157536689Y-99764656D01*
X157565807Y-99705096D01*
X157653096Y-99617807D01*
X157712670Y-99588682D01*
X157755312Y-99566956D01*
X157757977Y-99566533D01*
X157763999Y-99563590D01*
X157871000Y-99548000D01*
X159121000Y-99548000D01*
X159228001Y-99563590D01*
G37*
G36*
X138997906Y-99037686D02*
G01*
X139003927Y-99040629D01*
X139006593Y-99041052D01*
X139049224Y-99062773D01*
X139108809Y-99091903D01*
X139196098Y-99179192D01*
X139225245Y-99238815D01*
X139246948Y-99281408D01*
X139247369Y-99284070D01*
X139250315Y-99290095D01*
X139265905Y-99397096D01*
X139265905Y-100647096D01*
X139250315Y-100754097D01*
X139247369Y-100760121D01*
X139246948Y-100762784D01*
X139225250Y-100805366D01*
X139196098Y-100865000D01*
X139108809Y-100952289D01*
X139049161Y-100981448D01*
X139006592Y-101003139D01*
X139003931Y-101003560D01*
X138997906Y-101006506D01*
X138890905Y-101022096D01*
X138140905Y-101022096D01*
X138033904Y-101006506D01*
X138027879Y-101003560D01*
X138025216Y-101003139D01*
X137982609Y-100981429D01*
X137923001Y-100952289D01*
X137835712Y-100865000D01*
X137806575Y-100805400D01*
X137784861Y-100762783D01*
X137784439Y-100760119D01*
X137781495Y-100754097D01*
X137765905Y-100647096D01*
X137765905Y-99397096D01*
X137781495Y-99290095D01*
X137784438Y-99284073D01*
X137784861Y-99281407D01*
X137806594Y-99238752D01*
X137835712Y-99179192D01*
X137923001Y-99091903D01*
X137982575Y-99062778D01*
X138025217Y-99041052D01*
X138027882Y-99040629D01*
X138033904Y-99037686D01*
X138140905Y-99022096D01*
X138890905Y-99022096D01*
X138997906Y-99037686D01*
G37*
G36*
X140997906Y-99037686D02*
G01*
X141003927Y-99040629D01*
X141006593Y-99041052D01*
X141049224Y-99062773D01*
X141108809Y-99091903D01*
X141196098Y-99179192D01*
X141225245Y-99238815D01*
X141246948Y-99281408D01*
X141247369Y-99284070D01*
X141250315Y-99290095D01*
X141265905Y-99397096D01*
X141265905Y-100647096D01*
X141250315Y-100754097D01*
X141247369Y-100760121D01*
X141246948Y-100762784D01*
X141225250Y-100805366D01*
X141196098Y-100865000D01*
X141108809Y-100952289D01*
X141049161Y-100981448D01*
X141006592Y-101003139D01*
X141003931Y-101003560D01*
X140997906Y-101006506D01*
X140890905Y-101022096D01*
X140140905Y-101022096D01*
X140033904Y-101006506D01*
X140027879Y-101003560D01*
X140025216Y-101003139D01*
X139982609Y-100981429D01*
X139923001Y-100952289D01*
X139835712Y-100865000D01*
X139806575Y-100805400D01*
X139784861Y-100762783D01*
X139784439Y-100760119D01*
X139781495Y-100754097D01*
X139765905Y-100647096D01*
X139765905Y-99397096D01*
X139781495Y-99290095D01*
X139784438Y-99284073D01*
X139784861Y-99281407D01*
X139806594Y-99238752D01*
X139835712Y-99179192D01*
X139923001Y-99091903D01*
X139982575Y-99062778D01*
X140025217Y-99041052D01*
X140027882Y-99040629D01*
X140033904Y-99037686D01*
X140140905Y-99022096D01*
X140890905Y-99022096D01*
X140997906Y-99037686D01*
G37*
G36*
X142997906Y-99037686D02*
G01*
X143003927Y-99040629D01*
X143006593Y-99041052D01*
X143049224Y-99062773D01*
X143108809Y-99091903D01*
X143196098Y-99179192D01*
X143225245Y-99238815D01*
X143246948Y-99281408D01*
X143247369Y-99284070D01*
X143250315Y-99290095D01*
X143265905Y-99397096D01*
X143265905Y-100647096D01*
X143250315Y-100754097D01*
X143247369Y-100760121D01*
X143246948Y-100762784D01*
X143225250Y-100805366D01*
X143196098Y-100865000D01*
X143108809Y-100952289D01*
X143049161Y-100981448D01*
X143006592Y-101003139D01*
X143003931Y-101003560D01*
X142997906Y-101006506D01*
X142890905Y-101022096D01*
X142140905Y-101022096D01*
X142033904Y-101006506D01*
X142027879Y-101003560D01*
X142025216Y-101003139D01*
X141982609Y-100981429D01*
X141923001Y-100952289D01*
X141835712Y-100865000D01*
X141806575Y-100805400D01*
X141784861Y-100762783D01*
X141784439Y-100760119D01*
X141781495Y-100754097D01*
X141765905Y-100647096D01*
X141765905Y-99397096D01*
X141781495Y-99290095D01*
X141784438Y-99284073D01*
X141784861Y-99281407D01*
X141806594Y-99238752D01*
X141835712Y-99179192D01*
X141923001Y-99091903D01*
X141982575Y-99062778D01*
X142025217Y-99041052D01*
X142027882Y-99040629D01*
X142033904Y-99037686D01*
X142140905Y-99022096D01*
X142890905Y-99022096D01*
X142997906Y-99037686D01*
G37*
G36*
X145580001Y-99037686D02*
G01*
X145586022Y-99040629D01*
X145588688Y-99041052D01*
X145631319Y-99062773D01*
X145690904Y-99091903D01*
X145778193Y-99179192D01*
X145807340Y-99238815D01*
X145829043Y-99281408D01*
X145829464Y-99284070D01*
X145832410Y-99290095D01*
X145848000Y-99397096D01*
X145848000Y-100647096D01*
X145832410Y-100754097D01*
X145829464Y-100760121D01*
X145829043Y-100762784D01*
X145807345Y-100805366D01*
X145778193Y-100865000D01*
X145690904Y-100952289D01*
X145631256Y-100981448D01*
X145588687Y-101003139D01*
X145586026Y-101003560D01*
X145580001Y-101006506D01*
X145473000Y-101022096D01*
X144723000Y-101022096D01*
X144615999Y-101006506D01*
X144609974Y-101003560D01*
X144607311Y-101003139D01*
X144564704Y-100981429D01*
X144505096Y-100952289D01*
X144417807Y-100865000D01*
X144388670Y-100805400D01*
X144366956Y-100762783D01*
X144366534Y-100760119D01*
X144363590Y-100754097D01*
X144348000Y-100647096D01*
X144348000Y-99397096D01*
X144363590Y-99290095D01*
X144366533Y-99284073D01*
X144366956Y-99281407D01*
X144388689Y-99238752D01*
X144417807Y-99179192D01*
X144505096Y-99091903D01*
X144564670Y-99062778D01*
X144607312Y-99041052D01*
X144609977Y-99040629D01*
X144615999Y-99037686D01*
X144723000Y-99022096D01*
X145473000Y-99022096D01*
X145580001Y-99037686D01*
G37*
G36*
X147580001Y-99037686D02*
G01*
X147586022Y-99040629D01*
X147588688Y-99041052D01*
X147631319Y-99062773D01*
X147690904Y-99091903D01*
X147778193Y-99179192D01*
X147807340Y-99238815D01*
X147829043Y-99281408D01*
X147829464Y-99284070D01*
X147832410Y-99290095D01*
X147848000Y-99397096D01*
X147848000Y-100647096D01*
X147832410Y-100754097D01*
X147829464Y-100760121D01*
X147829043Y-100762784D01*
X147807345Y-100805366D01*
X147778193Y-100865000D01*
X147690904Y-100952289D01*
X147631256Y-100981448D01*
X147588687Y-101003139D01*
X147586026Y-101003560D01*
X147580001Y-101006506D01*
X147473000Y-101022096D01*
X146723000Y-101022096D01*
X146615999Y-101006506D01*
X146609974Y-101003560D01*
X146607311Y-101003139D01*
X146564704Y-100981429D01*
X146505096Y-100952289D01*
X146417807Y-100865000D01*
X146388670Y-100805400D01*
X146366956Y-100762783D01*
X146366534Y-100760119D01*
X146363590Y-100754097D01*
X146348000Y-100647096D01*
X146348000Y-99397096D01*
X146363590Y-99290095D01*
X146366533Y-99284073D01*
X146366956Y-99281407D01*
X146388689Y-99238752D01*
X146417807Y-99179192D01*
X146505096Y-99091903D01*
X146564670Y-99062778D01*
X146607312Y-99041052D01*
X146609977Y-99040629D01*
X146615999Y-99037686D01*
X146723000Y-99022096D01*
X147473000Y-99022096D01*
X147580001Y-99037686D01*
G37*
G36*
X149580001Y-99037686D02*
G01*
X149586022Y-99040629D01*
X149588688Y-99041052D01*
X149631319Y-99062773D01*
X149690904Y-99091903D01*
X149778193Y-99179192D01*
X149807340Y-99238815D01*
X149829043Y-99281408D01*
X149829464Y-99284070D01*
X149832410Y-99290095D01*
X149848000Y-99397096D01*
X149848000Y-100647096D01*
X149832410Y-100754097D01*
X149829464Y-100760121D01*
X149829043Y-100762784D01*
X149807345Y-100805366D01*
X149778193Y-100865000D01*
X149690904Y-100952289D01*
X149631256Y-100981448D01*
X149588687Y-101003139D01*
X149586026Y-101003560D01*
X149580001Y-101006506D01*
X149473000Y-101022096D01*
X148723000Y-101022096D01*
X148615999Y-101006506D01*
X148609974Y-101003560D01*
X148607311Y-101003139D01*
X148564704Y-100981429D01*
X148505096Y-100952289D01*
X148417807Y-100865000D01*
X148388670Y-100805400D01*
X148366956Y-100762783D01*
X148366534Y-100760119D01*
X148363590Y-100754097D01*
X148348000Y-100647096D01*
X148348000Y-99397096D01*
X148363590Y-99290095D01*
X148366533Y-99284073D01*
X148366956Y-99281407D01*
X148388689Y-99238752D01*
X148417807Y-99179192D01*
X148505096Y-99091903D01*
X148564670Y-99062778D01*
X148607312Y-99041052D01*
X148609977Y-99040629D01*
X148615999Y-99037686D01*
X148723000Y-99022096D01*
X149473000Y-99022096D01*
X149580001Y-99037686D01*
G37*
G36*
X154191918Y-100717258D02*
G01*
X154212194Y-100730806D01*
X154225742Y-100751082D01*
X154230500Y-100775000D01*
X154230500Y-100900000D01*
X154225742Y-100923918D01*
X154212194Y-100944194D01*
X154191918Y-100957742D01*
X154168000Y-100962500D01*
X153793000Y-100962500D01*
X153769082Y-100957742D01*
X153748806Y-100944194D01*
X153735258Y-100923918D01*
X153730500Y-100900000D01*
X153730500Y-100775000D01*
X153735258Y-100751082D01*
X153748806Y-100730806D01*
X153769082Y-100717258D01*
X153793000Y-100712500D01*
X154168000Y-100712500D01*
X154191918Y-100717258D01*
G37*
G36*
X156091918Y-100717258D02*
G01*
X156112194Y-100730806D01*
X156125742Y-100751082D01*
X156130500Y-100775000D01*
X156130500Y-100900000D01*
X156125742Y-100923918D01*
X156112194Y-100944194D01*
X156091918Y-100957742D01*
X156068000Y-100962500D01*
X155693000Y-100962500D01*
X155669082Y-100957742D01*
X155648806Y-100944194D01*
X155635258Y-100923918D01*
X155630500Y-100900000D01*
X155630500Y-100775000D01*
X155635258Y-100751082D01*
X155648806Y-100730806D01*
X155669082Y-100717258D01*
X155693000Y-100712500D01*
X156068000Y-100712500D01*
X156091918Y-100717258D01*
G37*
G36*
X155380500Y-100887500D02*
G01*
X154480500Y-100887500D01*
X154480500Y-99287500D01*
X155380500Y-99287500D01*
X155380500Y-100887500D01*
G37*
G36*
X154191918Y-100217258D02*
G01*
X154212194Y-100230806D01*
X154225742Y-100251082D01*
X154230500Y-100275000D01*
X154230500Y-100400000D01*
X154225742Y-100423918D01*
X154212194Y-100444194D01*
X154191918Y-100457742D01*
X154168000Y-100462500D01*
X153793000Y-100462500D01*
X153769082Y-100457742D01*
X153748806Y-100444194D01*
X153735258Y-100423918D01*
X153730500Y-100400000D01*
X153730500Y-100275000D01*
X153735258Y-100251082D01*
X153748806Y-100230806D01*
X153769082Y-100217258D01*
X153793000Y-100212500D01*
X154168000Y-100212500D01*
X154191918Y-100217258D01*
G37*
G36*
X156091918Y-100217258D02*
G01*
X156112194Y-100230806D01*
X156125742Y-100251082D01*
X156130500Y-100275000D01*
X156130500Y-100400000D01*
X156125742Y-100423918D01*
X156112194Y-100444194D01*
X156091918Y-100457742D01*
X156068000Y-100462500D01*
X155693000Y-100462500D01*
X155669082Y-100457742D01*
X155648806Y-100444194D01*
X155635258Y-100423918D01*
X155630500Y-100400000D01*
X155630500Y-100275000D01*
X155635258Y-100251082D01*
X155648806Y-100230806D01*
X155669082Y-100217258D01*
X155693000Y-100212500D01*
X156068000Y-100212500D01*
X156091918Y-100217258D01*
G37*
G36*
X154191918Y-99717258D02*
G01*
X154212194Y-99730806D01*
X154225742Y-99751082D01*
X154230500Y-99775000D01*
X154230500Y-99900000D01*
X154225742Y-99923918D01*
X154212194Y-99944194D01*
X154191918Y-99957742D01*
X154168000Y-99962500D01*
X153793000Y-99962500D01*
X153769082Y-99957742D01*
X153748806Y-99944194D01*
X153735258Y-99923918D01*
X153730500Y-99900000D01*
X153730500Y-99775000D01*
X153735258Y-99751082D01*
X153748806Y-99730806D01*
X153769082Y-99717258D01*
X153793000Y-99712500D01*
X154168000Y-99712500D01*
X154191918Y-99717258D01*
G37*
G36*
X156091918Y-99717258D02*
G01*
X156112194Y-99730806D01*
X156125742Y-99751082D01*
X156130500Y-99775000D01*
X156130500Y-99900000D01*
X156125742Y-99923918D01*
X156112194Y-99944194D01*
X156091918Y-99957742D01*
X156068000Y-99962500D01*
X155693000Y-99962500D01*
X155669082Y-99957742D01*
X155648806Y-99944194D01*
X155635258Y-99923918D01*
X155630500Y-99900000D01*
X155630500Y-99775000D01*
X155635258Y-99751082D01*
X155648806Y-99730806D01*
X155669082Y-99717258D01*
X155693000Y-99712500D01*
X156068000Y-99712500D01*
X156091918Y-99717258D01*
G37*
G36*
X154191918Y-99217258D02*
G01*
X154212194Y-99230806D01*
X154225742Y-99251082D01*
X154230500Y-99275000D01*
X154230500Y-99400000D01*
X154225742Y-99423918D01*
X154212194Y-99444194D01*
X154191918Y-99457742D01*
X154168000Y-99462500D01*
X153793000Y-99462500D01*
X153769082Y-99457742D01*
X153748806Y-99444194D01*
X153735258Y-99423918D01*
X153730500Y-99400000D01*
X153730500Y-99275000D01*
X153735258Y-99251082D01*
X153748806Y-99230806D01*
X153769082Y-99217258D01*
X153793000Y-99212500D01*
X154168000Y-99212500D01*
X154191918Y-99217258D01*
G37*
G36*
X156091918Y-99217258D02*
G01*
X156112194Y-99230806D01*
X156125742Y-99251082D01*
X156130500Y-99275000D01*
X156130500Y-99400000D01*
X156125742Y-99423918D01*
X156112194Y-99444194D01*
X156091918Y-99457742D01*
X156068000Y-99462500D01*
X155693000Y-99462500D01*
X155669082Y-99457742D01*
X155648806Y-99444194D01*
X155635258Y-99423918D01*
X155630500Y-99400000D01*
X155630500Y-99275000D01*
X155635258Y-99251082D01*
X155648806Y-99230806D01*
X155669082Y-99217258D01*
X155693000Y-99212500D01*
X156068000Y-99212500D01*
X156091918Y-99217258D01*
G37*
G36*
X159228001Y-97563590D02*
G01*
X159234022Y-97566533D01*
X159236688Y-97566956D01*
X159279319Y-97588677D01*
X159338904Y-97617807D01*
X159426193Y-97705096D01*
X159455340Y-97764719D01*
X159477043Y-97807312D01*
X159477464Y-97809974D01*
X159480410Y-97815999D01*
X159496000Y-97923000D01*
X159496000Y-98673000D01*
X159480410Y-98780001D01*
X159477464Y-98786025D01*
X159477043Y-98788688D01*
X159455345Y-98831270D01*
X159426193Y-98890904D01*
X159338904Y-98978193D01*
X159279256Y-99007352D01*
X159236687Y-99029043D01*
X159234026Y-99029464D01*
X159228001Y-99032410D01*
X159121000Y-99048000D01*
X157871000Y-99048000D01*
X157763999Y-99032410D01*
X157757974Y-99029464D01*
X157755311Y-99029043D01*
X157712704Y-99007333D01*
X157653096Y-98978193D01*
X157565807Y-98890904D01*
X157536670Y-98831304D01*
X157514956Y-98788687D01*
X157514534Y-98786023D01*
X157511590Y-98780001D01*
X157496000Y-98673000D01*
X157496000Y-97923000D01*
X157511590Y-97815999D01*
X157514533Y-97809977D01*
X157514956Y-97807311D01*
X157536689Y-97764656D01*
X157565807Y-97705096D01*
X157653096Y-97617807D01*
X157712670Y-97588682D01*
X157755312Y-97566956D01*
X157757977Y-97566533D01*
X157763999Y-97563590D01*
X157871000Y-97548000D01*
X159121000Y-97548000D01*
X159228001Y-97563590D01*
G37*
G36*
X154720604Y-97597627D02*
G01*
X154793599Y-97646401D01*
X154842373Y-97719396D01*
X154859500Y-97805500D01*
X154859500Y-98305500D01*
X154842373Y-98391604D01*
X154793599Y-98464599D01*
X154720604Y-98513373D01*
X154634500Y-98530500D01*
X154184500Y-98530500D01*
X154098396Y-98513373D01*
X154025401Y-98464599D01*
X153976627Y-98391604D01*
X153959500Y-98305500D01*
X153959500Y-97805500D01*
X153976627Y-97719396D01*
X154025401Y-97646401D01*
X154098396Y-97597627D01*
X154184500Y-97580500D01*
X154634500Y-97580500D01*
X154720604Y-97597627D01*
G37*
G36*
X156270604Y-97597627D02*
G01*
X156343599Y-97646401D01*
X156392373Y-97719396D01*
X156409500Y-97805500D01*
X156409500Y-98305500D01*
X156392373Y-98391604D01*
X156343599Y-98464599D01*
X156270604Y-98513373D01*
X156184500Y-98530500D01*
X155734500Y-98530500D01*
X155648396Y-98513373D01*
X155575401Y-98464599D01*
X155526627Y-98391604D01*
X155509500Y-98305500D01*
X155509500Y-97805500D01*
X155526627Y-97719396D01*
X155575401Y-97646401D01*
X155648396Y-97597627D01*
X155734500Y-97580500D01*
X156184500Y-97580500D01*
X156270604Y-97597627D01*
G37*
G36*
X139342906Y-96801590D02*
G01*
X139348927Y-96804533D01*
X139351593Y-96804956D01*
X139394224Y-96826677D01*
X139453809Y-96855807D01*
X139541098Y-96943096D01*
X139570245Y-97002719D01*
X139591948Y-97045312D01*
X139592369Y-97047974D01*
X139595315Y-97053999D01*
X139610905Y-97161000D01*
X139610905Y-97911000D01*
X139595315Y-98018001D01*
X139592369Y-98024025D01*
X139591948Y-98026688D01*
X139570250Y-98069270D01*
X139541098Y-98128904D01*
X139453809Y-98216193D01*
X139394161Y-98245352D01*
X139351592Y-98267043D01*
X139348931Y-98267464D01*
X139342906Y-98270410D01*
X139235905Y-98286000D01*
X137985905Y-98286000D01*
X137878904Y-98270410D01*
X137872879Y-98267464D01*
X137870216Y-98267043D01*
X137827609Y-98245333D01*
X137768001Y-98216193D01*
X137680712Y-98128904D01*
X137651575Y-98069304D01*
X137629861Y-98026687D01*
X137629439Y-98024023D01*
X137626495Y-98018001D01*
X137610905Y-97911000D01*
X137610905Y-97161000D01*
X137626495Y-97053999D01*
X137629438Y-97047977D01*
X137629861Y-97045311D01*
X137651594Y-97002656D01*
X137680712Y-96943096D01*
X137768001Y-96855807D01*
X137827575Y-96826682D01*
X137870217Y-96804956D01*
X137872882Y-96804533D01*
X137878904Y-96801590D01*
X137985905Y-96786000D01*
X139235905Y-96786000D01*
X139342906Y-96801590D01*
G37*
G36*
X146116336Y-96731664D02*
G01*
X146117800Y-96735200D01*
X146117800Y-98235200D01*
X146116336Y-98238736D01*
X146112800Y-98240200D01*
X146102696Y-98240200D01*
X145572904Y-98240200D01*
X145562800Y-98240200D01*
X145559264Y-98238736D01*
X145557964Y-98235597D01*
X145555517Y-98235111D01*
X145491643Y-98235111D01*
X145490234Y-98234908D01*
X145456814Y-98225095D01*
X145357169Y-98195837D01*
X145357166Y-98195835D01*
X145353683Y-98194813D01*
X145352389Y-98194222D01*
X145232667Y-98117281D01*
X145231591Y-98116349D01*
X145229216Y-98113608D01*
X145229210Y-98113603D01*
X145140774Y-98011541D01*
X145140773Y-98011539D01*
X145138394Y-98008794D01*
X145137625Y-98007597D01*
X145136117Y-98004296D01*
X145136113Y-98004289D01*
X145080016Y-97881454D01*
X145080012Y-97881441D01*
X145078506Y-97878143D01*
X145078105Y-97876778D01*
X145068117Y-97807311D01*
X145058109Y-97737711D01*
X145058108Y-97737701D01*
X145057851Y-97735912D01*
X145057800Y-97735200D01*
X145057800Y-97235200D01*
X145057851Y-97234488D01*
X145058108Y-97232699D01*
X145058109Y-97232688D01*
X145077588Y-97097218D01*
X145078105Y-97093622D01*
X145078506Y-97092257D01*
X145080011Y-97088960D01*
X145080016Y-97088945D01*
X145136113Y-96966110D01*
X145136119Y-96966100D01*
X145137625Y-96962803D01*
X145138394Y-96961606D01*
X145140770Y-96958863D01*
X145140774Y-96958858D01*
X145229210Y-96856796D01*
X145229219Y-96856787D01*
X145231591Y-96854051D01*
X145232667Y-96853119D01*
X145235715Y-96851159D01*
X145235720Y-96851156D01*
X145349335Y-96778140D01*
X145349338Y-96778138D01*
X145352389Y-96776178D01*
X145353683Y-96775587D01*
X145357160Y-96774565D01*
X145357169Y-96774562D01*
X145486747Y-96736515D01*
X145486752Y-96736514D01*
X145490234Y-96735492D01*
X145491643Y-96735289D01*
X145555517Y-96735289D01*
X145557964Y-96734802D01*
X145559264Y-96731664D01*
X145562800Y-96730200D01*
X146112800Y-96730200D01*
X146116336Y-96731664D01*
G37*
G36*
X148166336Y-96731664D02*
G01*
X148167635Y-96734802D01*
X148170083Y-96735289D01*
X148230324Y-96735289D01*
X148233957Y-96735289D01*
X148235366Y-96735492D01*
X148238848Y-96736514D01*
X148238852Y-96736515D01*
X148368430Y-96774562D01*
X148368436Y-96774565D01*
X148371917Y-96775587D01*
X148373211Y-96776178D01*
X148492933Y-96853119D01*
X148494009Y-96854051D01*
X148496383Y-96856790D01*
X148496389Y-96856796D01*
X148571167Y-96943096D01*
X148587206Y-96961606D01*
X148587975Y-96962803D01*
X148589483Y-96966105D01*
X148589486Y-96966110D01*
X148645583Y-97088945D01*
X148645585Y-97088954D01*
X148647094Y-97092257D01*
X148647495Y-97093622D01*
X148667749Y-97234488D01*
X148667800Y-97235200D01*
X148667800Y-97735200D01*
X148667749Y-97735912D01*
X148647495Y-97876778D01*
X148647094Y-97878143D01*
X148645584Y-97881447D01*
X148645583Y-97881454D01*
X148589486Y-98004289D01*
X148587975Y-98007597D01*
X148587206Y-98008794D01*
X148536014Y-98067872D01*
X148496389Y-98113603D01*
X148496386Y-98113605D01*
X148494009Y-98116349D01*
X148492933Y-98117281D01*
X148373211Y-98194222D01*
X148371917Y-98194813D01*
X148235366Y-98234908D01*
X148233957Y-98235111D01*
X148230324Y-98235111D01*
X148170083Y-98235111D01*
X148167635Y-98235597D01*
X148166336Y-98238736D01*
X148162800Y-98240200D01*
X148152696Y-98240200D01*
X147622904Y-98240200D01*
X147612800Y-98240200D01*
X147609264Y-98238736D01*
X147607800Y-98235200D01*
X147607800Y-96735200D01*
X147609264Y-96731664D01*
X147612800Y-96730200D01*
X148162800Y-96730200D01*
X148166336Y-96731664D01*
G37*
G36*
X147362800Y-98235200D02*
G01*
X146362800Y-98235200D01*
X146362800Y-96735200D01*
X147362800Y-96735200D01*
X147362800Y-98235200D01*
G37*
G36*
X141575537Y-96858624D02*
G01*
X141640421Y-96901979D01*
X141683776Y-96966863D01*
X141699000Y-97043400D01*
X141699000Y-97443400D01*
X141683776Y-97519937D01*
X141640421Y-97584821D01*
X141575537Y-97628176D01*
X141499000Y-97643400D01*
X140949000Y-97643400D01*
X140872463Y-97628176D01*
X140807579Y-97584821D01*
X140764224Y-97519937D01*
X140749000Y-97443400D01*
X140749000Y-97043400D01*
X140764224Y-96966863D01*
X140807579Y-96901979D01*
X140872463Y-96858624D01*
X140949000Y-96843400D01*
X141499000Y-96843400D01*
X141575537Y-96858624D01*
G37*
G36*
X154720604Y-96073627D02*
G01*
X154793599Y-96122401D01*
X154842373Y-96195396D01*
X154859500Y-96281500D01*
X154859500Y-96781500D01*
X154842373Y-96867604D01*
X154793599Y-96940599D01*
X154720604Y-96989373D01*
X154634500Y-97006500D01*
X154184500Y-97006500D01*
X154098396Y-96989373D01*
X154025401Y-96940599D01*
X153976627Y-96867604D01*
X153959500Y-96781500D01*
X153959500Y-96281500D01*
X153976627Y-96195396D01*
X154025401Y-96122401D01*
X154098396Y-96073627D01*
X154184500Y-96056500D01*
X154634500Y-96056500D01*
X154720604Y-96073627D01*
G37*
G36*
X156270604Y-96073627D02*
G01*
X156343599Y-96122401D01*
X156392373Y-96195396D01*
X156409500Y-96281500D01*
X156409500Y-96781500D01*
X156392373Y-96867604D01*
X156343599Y-96940599D01*
X156270604Y-96989373D01*
X156184500Y-97006500D01*
X155734500Y-97006500D01*
X155648396Y-96989373D01*
X155575401Y-96940599D01*
X155526627Y-96867604D01*
X155509500Y-96781500D01*
X155509500Y-96281500D01*
X155526627Y-96195396D01*
X155575401Y-96122401D01*
X155648396Y-96073627D01*
X155734500Y-96056500D01*
X156184500Y-96056500D01*
X156270604Y-96073627D01*
G37*
G36*
X139342906Y-94801590D02*
G01*
X139348927Y-94804533D01*
X139351593Y-94804956D01*
X139394224Y-94826677D01*
X139453809Y-94855807D01*
X139541098Y-94943096D01*
X139570245Y-95002719D01*
X139591948Y-95045312D01*
X139592369Y-95047974D01*
X139595315Y-95053999D01*
X139610905Y-95161000D01*
X139610905Y-95911000D01*
X139595315Y-96018001D01*
X139592369Y-96024025D01*
X139591948Y-96026688D01*
X139570250Y-96069270D01*
X139541098Y-96128904D01*
X139453809Y-96216193D01*
X139394161Y-96245352D01*
X139351592Y-96267043D01*
X139348931Y-96267464D01*
X139342906Y-96270410D01*
X139235905Y-96286000D01*
X137985905Y-96286000D01*
X137878904Y-96270410D01*
X137872879Y-96267464D01*
X137870216Y-96267043D01*
X137827609Y-96245333D01*
X137768001Y-96216193D01*
X137680712Y-96128904D01*
X137651575Y-96069304D01*
X137629861Y-96026687D01*
X137629439Y-96024023D01*
X137626495Y-96018001D01*
X137610905Y-95911000D01*
X137610905Y-95161000D01*
X137626495Y-95053999D01*
X137629438Y-95047977D01*
X137629861Y-95045311D01*
X137651594Y-95002656D01*
X137680712Y-94943096D01*
X137768001Y-94855807D01*
X137827575Y-94826682D01*
X137870217Y-94804956D01*
X137872882Y-94804533D01*
X137878904Y-94801590D01*
X137985905Y-94786000D01*
X139235905Y-94786000D01*
X139342906Y-94801590D01*
G37*
G36*
X141575537Y-95208624D02*
G01*
X141640421Y-95251979D01*
X141683776Y-95316863D01*
X141699000Y-95393400D01*
X141699000Y-95793400D01*
X141683776Y-95869937D01*
X141640421Y-95934821D01*
X141575537Y-95978176D01*
X141499000Y-95993400D01*
X140949000Y-95993400D01*
X140872463Y-95978176D01*
X140807579Y-95934821D01*
X140764224Y-95869937D01*
X140749000Y-95793400D01*
X140749000Y-95393400D01*
X140764224Y-95316863D01*
X140807579Y-95251979D01*
X140872463Y-95208624D01*
X140949000Y-95193400D01*
X141499000Y-95193400D01*
X141575537Y-95208624D01*
G37*
G36*
X159228001Y-93213590D02*
G01*
X159234022Y-93216533D01*
X159236688Y-93216956D01*
X159279319Y-93238677D01*
X159338904Y-93267807D01*
X159426193Y-93355096D01*
X159455340Y-93414719D01*
X159477043Y-93457312D01*
X159477464Y-93459974D01*
X159480410Y-93465999D01*
X159496000Y-93573000D01*
X159496000Y-94323000D01*
X159480410Y-94430001D01*
X159477464Y-94436025D01*
X159477043Y-94438688D01*
X159455345Y-94481270D01*
X159426193Y-94540904D01*
X159338904Y-94628193D01*
X159279256Y-94657352D01*
X159236687Y-94679043D01*
X159234026Y-94679464D01*
X159228001Y-94682410D01*
X159121000Y-94698000D01*
X157871000Y-94698000D01*
X157763999Y-94682410D01*
X157757974Y-94679464D01*
X157755311Y-94679043D01*
X157712704Y-94657333D01*
X157653096Y-94628193D01*
X157565807Y-94540904D01*
X157536670Y-94481304D01*
X157514956Y-94438687D01*
X157514534Y-94436023D01*
X157511590Y-94430001D01*
X157496000Y-94323000D01*
X157496000Y-93573000D01*
X157511590Y-93465999D01*
X157514533Y-93459977D01*
X157514956Y-93457311D01*
X157536689Y-93414656D01*
X157565807Y-93355096D01*
X157653096Y-93267807D01*
X157712670Y-93238682D01*
X157755312Y-93216956D01*
X157757977Y-93216533D01*
X157763999Y-93213590D01*
X157871000Y-93198000D01*
X159121000Y-93198000D01*
X159228001Y-93213590D01*
G37*
G36*
X154191918Y-94367258D02*
G01*
X154212194Y-94380806D01*
X154225742Y-94401082D01*
X154230500Y-94425000D01*
X154230500Y-94550000D01*
X154225742Y-94573918D01*
X154212194Y-94594194D01*
X154191918Y-94607742D01*
X154168000Y-94612500D01*
X153793000Y-94612500D01*
X153769082Y-94607742D01*
X153748806Y-94594194D01*
X153735258Y-94573918D01*
X153730500Y-94550000D01*
X153730500Y-94425000D01*
X153735258Y-94401082D01*
X153748806Y-94380806D01*
X153769082Y-94367258D01*
X153793000Y-94362500D01*
X154168000Y-94362500D01*
X154191918Y-94367258D01*
G37*
G36*
X156091918Y-94367258D02*
G01*
X156112194Y-94380806D01*
X156125742Y-94401082D01*
X156130500Y-94425000D01*
X156130500Y-94550000D01*
X156125742Y-94573918D01*
X156112194Y-94594194D01*
X156091918Y-94607742D01*
X156068000Y-94612500D01*
X155693000Y-94612500D01*
X155669082Y-94607742D01*
X155648806Y-94594194D01*
X155635258Y-94573918D01*
X155630500Y-94550000D01*
X155630500Y-94425000D01*
X155635258Y-94401082D01*
X155648806Y-94380806D01*
X155669082Y-94367258D01*
X155693000Y-94362500D01*
X156068000Y-94362500D01*
X156091918Y-94367258D01*
G37*
G36*
X141560104Y-93712527D02*
G01*
X141633099Y-93761301D01*
X141681873Y-93834296D01*
X141699000Y-93920400D01*
X141699000Y-94370400D01*
X141681873Y-94456504D01*
X141633099Y-94529499D01*
X141560104Y-94578273D01*
X141474000Y-94595400D01*
X140974000Y-94595400D01*
X140887896Y-94578273D01*
X140814901Y-94529499D01*
X140766127Y-94456504D01*
X140749000Y-94370400D01*
X140749000Y-93920400D01*
X140766127Y-93834296D01*
X140814901Y-93761301D01*
X140887896Y-93712527D01*
X140974000Y-93695400D01*
X141474000Y-93695400D01*
X141560104Y-93712527D01*
G37*
G36*
X155380500Y-94537500D02*
G01*
X154480500Y-94537500D01*
X154480500Y-92937500D01*
X155380500Y-92937500D01*
X155380500Y-94537500D01*
G37*
G36*
X139342906Y-92801590D02*
G01*
X139348927Y-92804533D01*
X139351593Y-92804956D01*
X139394224Y-92826677D01*
X139453809Y-92855807D01*
X139541098Y-92943096D01*
X139570245Y-93002719D01*
X139591948Y-93045312D01*
X139592369Y-93047974D01*
X139595315Y-93053999D01*
X139610905Y-93161000D01*
X139610905Y-93911000D01*
X139595315Y-94018001D01*
X139592369Y-94024025D01*
X139591948Y-94026688D01*
X139570250Y-94069270D01*
X139541098Y-94128904D01*
X139453809Y-94216193D01*
X139394161Y-94245352D01*
X139351592Y-94267043D01*
X139348931Y-94267464D01*
X139342906Y-94270410D01*
X139235905Y-94286000D01*
X137985905Y-94286000D01*
X137878904Y-94270410D01*
X137872879Y-94267464D01*
X137870216Y-94267043D01*
X137827609Y-94245333D01*
X137768001Y-94216193D01*
X137680712Y-94128904D01*
X137651575Y-94069304D01*
X137629861Y-94026687D01*
X137629439Y-94024023D01*
X137626495Y-94018001D01*
X137610905Y-93911000D01*
X137610905Y-93161000D01*
X137626495Y-93053999D01*
X137629438Y-93047977D01*
X137629861Y-93045311D01*
X137651594Y-93002656D01*
X137680712Y-92943096D01*
X137768001Y-92855807D01*
X137827575Y-92826682D01*
X137870217Y-92804956D01*
X137872882Y-92804533D01*
X137878904Y-92801590D01*
X137985905Y-92786000D01*
X139235905Y-92786000D01*
X139342906Y-92801590D01*
G37*
G36*
X154191918Y-93867258D02*
G01*
X154212194Y-93880806D01*
X154225742Y-93901082D01*
X154230500Y-93925000D01*
X154230500Y-94050000D01*
X154225742Y-94073918D01*
X154212194Y-94094194D01*
X154191918Y-94107742D01*
X154168000Y-94112500D01*
X153793000Y-94112500D01*
X153769082Y-94107742D01*
X153748806Y-94094194D01*
X153735258Y-94073918D01*
X153730500Y-94050000D01*
X153730500Y-93925000D01*
X153735258Y-93901082D01*
X153748806Y-93880806D01*
X153769082Y-93867258D01*
X153793000Y-93862500D01*
X154168000Y-93862500D01*
X154191918Y-93867258D01*
G37*
G36*
X156091918Y-93867258D02*
G01*
X156112194Y-93880806D01*
X156125742Y-93901082D01*
X156130500Y-93925000D01*
X156130500Y-94050000D01*
X156125742Y-94073918D01*
X156112194Y-94094194D01*
X156091918Y-94107742D01*
X156068000Y-94112500D01*
X155693000Y-94112500D01*
X155669082Y-94107742D01*
X155648806Y-94094194D01*
X155635258Y-94073918D01*
X155630500Y-94050000D01*
X155630500Y-93925000D01*
X155635258Y-93901082D01*
X155648806Y-93880806D01*
X155669082Y-93867258D01*
X155693000Y-93862500D01*
X156068000Y-93862500D01*
X156091918Y-93867258D01*
G37*
G36*
X154191918Y-93367258D02*
G01*
X154212194Y-93380806D01*
X154225742Y-93401082D01*
X154230500Y-93425000D01*
X154230500Y-93550000D01*
X154225742Y-93573918D01*
X154212194Y-93594194D01*
X154191918Y-93607742D01*
X154168000Y-93612500D01*
X153793000Y-93612500D01*
X153769082Y-93607742D01*
X153748806Y-93594194D01*
X153735258Y-93573918D01*
X153730500Y-93550000D01*
X153730500Y-93425000D01*
X153735258Y-93401082D01*
X153748806Y-93380806D01*
X153769082Y-93367258D01*
X153793000Y-93362500D01*
X154168000Y-93362500D01*
X154191918Y-93367258D01*
G37*
G36*
X156091918Y-93367258D02*
G01*
X156112194Y-93380806D01*
X156125742Y-93401082D01*
X156130500Y-93425000D01*
X156130500Y-93550000D01*
X156125742Y-93573918D01*
X156112194Y-93594194D01*
X156091918Y-93607742D01*
X156068000Y-93612500D01*
X155693000Y-93612500D01*
X155669082Y-93607742D01*
X155648806Y-93594194D01*
X155635258Y-93573918D01*
X155630500Y-93550000D01*
X155630500Y-93425000D01*
X155635258Y-93401082D01*
X155648806Y-93380806D01*
X155669082Y-93367258D01*
X155693000Y-93362500D01*
X156068000Y-93362500D01*
X156091918Y-93367258D01*
G37*
G36*
X146069403Y-92543418D02*
G01*
X146118066Y-92575934D01*
X146150582Y-92624597D01*
X146162000Y-92682000D01*
X146162000Y-92982000D01*
X146150582Y-93039403D01*
X146118066Y-93088066D01*
X146069403Y-93120582D01*
X146012000Y-93132000D01*
X144987000Y-93132000D01*
X144929597Y-93120582D01*
X144880934Y-93088066D01*
X144848418Y-93039403D01*
X144837000Y-92982000D01*
X144837000Y-92682000D01*
X144848418Y-92624597D01*
X144880934Y-92575934D01*
X144929597Y-92543418D01*
X144987000Y-92532000D01*
X146012000Y-92532000D01*
X146069403Y-92543418D01*
G37*
G36*
X154191918Y-92867258D02*
G01*
X154212194Y-92880806D01*
X154225742Y-92901082D01*
X154230500Y-92925000D01*
X154230500Y-93050000D01*
X154225742Y-93073918D01*
X154212194Y-93094194D01*
X154191918Y-93107742D01*
X154168000Y-93112500D01*
X153793000Y-93112500D01*
X153769082Y-93107742D01*
X153748806Y-93094194D01*
X153735258Y-93073918D01*
X153730500Y-93050000D01*
X153730500Y-92925000D01*
X153735258Y-92901082D01*
X153748806Y-92880806D01*
X153769082Y-92867258D01*
X153793000Y-92862500D01*
X154168000Y-92862500D01*
X154191918Y-92867258D01*
G37*
G36*
X156091918Y-92867258D02*
G01*
X156112194Y-92880806D01*
X156125742Y-92901082D01*
X156130500Y-92925000D01*
X156130500Y-93050000D01*
X156125742Y-93073918D01*
X156112194Y-93094194D01*
X156091918Y-93107742D01*
X156068000Y-93112500D01*
X155693000Y-93112500D01*
X155669082Y-93107742D01*
X155648806Y-93094194D01*
X155635258Y-93073918D01*
X155630500Y-93050000D01*
X155630500Y-92925000D01*
X155635258Y-92901082D01*
X155648806Y-92880806D01*
X155669082Y-92867258D01*
X155693000Y-92862500D01*
X156068000Y-92862500D01*
X156091918Y-92867258D01*
G37*
G36*
X144179104Y-92224127D02*
G01*
X144252099Y-92272901D01*
X144300873Y-92345896D01*
X144318000Y-92432000D01*
X144318000Y-92882000D01*
X144300873Y-92968104D01*
X144252099Y-93041099D01*
X144179104Y-93089873D01*
X144093000Y-93107000D01*
X143593000Y-93107000D01*
X143506896Y-93089873D01*
X143433901Y-93041099D01*
X143385127Y-92968104D01*
X143368000Y-92882000D01*
X143368000Y-92432000D01*
X143385127Y-92345896D01*
X143433901Y-92272901D01*
X143506896Y-92224127D01*
X143593000Y-92207000D01*
X144093000Y-92207000D01*
X144179104Y-92224127D01*
G37*
G36*
X141560104Y-92162527D02*
G01*
X141633099Y-92211301D01*
X141681873Y-92284296D01*
X141699000Y-92370400D01*
X141699000Y-92820400D01*
X141681873Y-92906504D01*
X141633099Y-92979499D01*
X141560104Y-93028273D01*
X141474000Y-93045400D01*
X140974000Y-93045400D01*
X140887896Y-93028273D01*
X140814901Y-92979499D01*
X140766127Y-92906504D01*
X140749000Y-92820400D01*
X140749000Y-92370400D01*
X140766127Y-92284296D01*
X140814901Y-92211301D01*
X140887896Y-92162527D01*
X140974000Y-92145400D01*
X141474000Y-92145400D01*
X141560104Y-92162527D01*
G37*
G36*
X149815104Y-91959927D02*
G01*
X149888099Y-92008701D01*
X149936873Y-92081696D01*
X149954000Y-92167800D01*
X149954000Y-92617800D01*
X149936873Y-92703904D01*
X149888099Y-92776899D01*
X149815104Y-92825673D01*
X149729000Y-92842800D01*
X149229000Y-92842800D01*
X149142896Y-92825673D01*
X149069901Y-92776899D01*
X149021127Y-92703904D01*
X149004000Y-92617800D01*
X149004000Y-92167800D01*
X149021127Y-92081696D01*
X149069901Y-92008701D01*
X149142896Y-91959927D01*
X149229000Y-91942800D01*
X149729000Y-91942800D01*
X149815104Y-91959927D01*
G37*
G36*
X159228001Y-91213590D02*
G01*
X159234022Y-91216533D01*
X159236688Y-91216956D01*
X159279319Y-91238677D01*
X159338904Y-91267807D01*
X159426193Y-91355096D01*
X159455340Y-91414719D01*
X159477043Y-91457312D01*
X159477464Y-91459974D01*
X159480410Y-91465999D01*
X159496000Y-91573000D01*
X159496000Y-92323000D01*
X159480410Y-92430001D01*
X159477464Y-92436025D01*
X159477043Y-92438688D01*
X159455345Y-92481270D01*
X159426193Y-92540904D01*
X159338904Y-92628193D01*
X159279256Y-92657352D01*
X159236687Y-92679043D01*
X159234026Y-92679464D01*
X159228001Y-92682410D01*
X159121000Y-92698000D01*
X157871000Y-92698000D01*
X157763999Y-92682410D01*
X157757974Y-92679464D01*
X157755311Y-92679043D01*
X157712704Y-92657333D01*
X157653096Y-92628193D01*
X157565807Y-92540904D01*
X157536670Y-92481304D01*
X157514956Y-92438687D01*
X157514534Y-92436023D01*
X157511590Y-92430001D01*
X157496000Y-92323000D01*
X157496000Y-91573000D01*
X157511590Y-91465999D01*
X157514533Y-91459977D01*
X157514956Y-91457311D01*
X157536689Y-91414656D01*
X157565807Y-91355096D01*
X157653096Y-91267807D01*
X157712670Y-91238682D01*
X157755312Y-91216956D01*
X157757977Y-91216533D01*
X157763999Y-91213590D01*
X157871000Y-91198000D01*
X159121000Y-91198000D01*
X159228001Y-91213590D01*
G37*
G36*
X148344403Y-91593418D02*
G01*
X148393066Y-91625934D01*
X148425582Y-91674597D01*
X148437000Y-91732000D01*
X148437000Y-92032000D01*
X148425582Y-92089403D01*
X148393066Y-92138066D01*
X148344403Y-92170582D01*
X148287000Y-92182000D01*
X147262000Y-92182000D01*
X147204597Y-92170582D01*
X147155934Y-92138066D01*
X147123418Y-92089403D01*
X147112000Y-92032000D01*
X147112000Y-91732000D01*
X147123418Y-91674597D01*
X147155934Y-91625934D01*
X147204597Y-91593418D01*
X147262000Y-91582000D01*
X148287000Y-91582000D01*
X148344403Y-91593418D01*
G37*
G36*
X154720604Y-91247627D02*
G01*
X154793599Y-91296401D01*
X154842373Y-91369396D01*
X154859500Y-91455500D01*
X154859500Y-91955500D01*
X154842373Y-92041604D01*
X154793599Y-92114599D01*
X154720604Y-92163373D01*
X154634500Y-92180500D01*
X154184500Y-92180500D01*
X154098396Y-92163373D01*
X154025401Y-92114599D01*
X153976627Y-92041604D01*
X153959500Y-91955500D01*
X153959500Y-91455500D01*
X153976627Y-91369396D01*
X154025401Y-91296401D01*
X154098396Y-91247627D01*
X154184500Y-91230500D01*
X154634500Y-91230500D01*
X154720604Y-91247627D01*
G37*
G36*
X156270604Y-91247627D02*
G01*
X156343599Y-91296401D01*
X156392373Y-91369396D01*
X156409500Y-91455500D01*
X156409500Y-91955500D01*
X156392373Y-92041604D01*
X156343599Y-92114599D01*
X156270604Y-92163373D01*
X156184500Y-92180500D01*
X155734500Y-92180500D01*
X155648396Y-92163373D01*
X155575401Y-92114599D01*
X155526627Y-92041604D01*
X155509500Y-91955500D01*
X155509500Y-91455500D01*
X155526627Y-91369396D01*
X155575401Y-91296401D01*
X155648396Y-91247627D01*
X155734500Y-91230500D01*
X156184500Y-91230500D01*
X156270604Y-91247627D01*
G37*
G36*
X139302906Y-90578590D02*
G01*
X139308927Y-90581533D01*
X139311593Y-90581956D01*
X139354224Y-90603677D01*
X139413809Y-90632807D01*
X139501098Y-90720096D01*
X139530245Y-90779719D01*
X139551948Y-90822312D01*
X139552369Y-90824974D01*
X139555315Y-90830999D01*
X139570905Y-90938000D01*
X139570905Y-91688000D01*
X139555315Y-91795001D01*
X139552369Y-91801025D01*
X139551948Y-91803688D01*
X139530250Y-91846270D01*
X139501098Y-91905904D01*
X139413809Y-91993193D01*
X139354161Y-92022352D01*
X139311592Y-92044043D01*
X139308931Y-92044464D01*
X139302906Y-92047410D01*
X139195905Y-92063000D01*
X137945905Y-92063000D01*
X137838904Y-92047410D01*
X137832879Y-92044464D01*
X137830216Y-92044043D01*
X137787609Y-92022333D01*
X137728001Y-91993193D01*
X137640712Y-91905904D01*
X137611575Y-91846304D01*
X137589861Y-91803687D01*
X137589439Y-91801023D01*
X137586495Y-91795001D01*
X137570905Y-91688000D01*
X137570905Y-90938000D01*
X137586495Y-90830999D01*
X137589438Y-90824977D01*
X137589861Y-90822311D01*
X137611594Y-90779656D01*
X137640712Y-90720096D01*
X137728001Y-90632807D01*
X137787575Y-90603682D01*
X137830217Y-90581956D01*
X137832882Y-90581533D01*
X137838904Y-90578590D01*
X137945905Y-90563000D01*
X139195905Y-90563000D01*
X139302906Y-90578590D01*
G37*
G36*
X144179104Y-90674127D02*
G01*
X144252099Y-90722901D01*
X144300873Y-90795896D01*
X144318000Y-90882000D01*
X144318000Y-91332000D01*
X144300873Y-91418104D01*
X144252099Y-91491099D01*
X144179104Y-91539873D01*
X144093000Y-91557000D01*
X143593000Y-91557000D01*
X143506896Y-91539873D01*
X143433901Y-91491099D01*
X143385127Y-91418104D01*
X143368000Y-91332000D01*
X143368000Y-90882000D01*
X143385127Y-90795896D01*
X143433901Y-90722901D01*
X143506896Y-90674127D01*
X143593000Y-90657000D01*
X144093000Y-90657000D01*
X144179104Y-90674127D01*
G37*
G36*
X141575537Y-90635624D02*
G01*
X141640421Y-90678979D01*
X141683776Y-90743863D01*
X141699000Y-90820400D01*
X141699000Y-91220400D01*
X141683776Y-91296937D01*
X141640421Y-91361821D01*
X141575537Y-91405176D01*
X141499000Y-91420400D01*
X140949000Y-91420400D01*
X140872463Y-91405176D01*
X140807579Y-91361821D01*
X140764224Y-91296937D01*
X140749000Y-91220400D01*
X140749000Y-90820400D01*
X140764224Y-90743863D01*
X140807579Y-90678979D01*
X140872463Y-90635624D01*
X140949000Y-90620400D01*
X141499000Y-90620400D01*
X141575537Y-90635624D01*
G37*
G36*
X149815104Y-90409927D02*
G01*
X149888099Y-90458701D01*
X149936873Y-90531696D01*
X149954000Y-90617800D01*
X149954000Y-91067800D01*
X149936873Y-91153904D01*
X149888099Y-91226899D01*
X149815104Y-91275673D01*
X149729000Y-91292800D01*
X149229000Y-91292800D01*
X149142896Y-91275673D01*
X149069901Y-91226899D01*
X149021127Y-91153904D01*
X149004000Y-91067800D01*
X149004000Y-90617800D01*
X149021127Y-90531696D01*
X149069901Y-90458701D01*
X149142896Y-90409927D01*
X149229000Y-90392800D01*
X149729000Y-90392800D01*
X149815104Y-90409927D01*
G37*
G36*
X146069403Y-90643418D02*
G01*
X146118066Y-90675934D01*
X146150582Y-90724597D01*
X146162000Y-90782000D01*
X146162000Y-91082000D01*
X146150582Y-91139403D01*
X146118066Y-91188066D01*
X146069403Y-91220582D01*
X146012000Y-91232000D01*
X144987000Y-91232000D01*
X144929597Y-91220582D01*
X144880934Y-91188066D01*
X144848418Y-91139403D01*
X144837000Y-91082000D01*
X144837000Y-90782000D01*
X144848418Y-90724597D01*
X144880934Y-90675934D01*
X144929597Y-90643418D01*
X144987000Y-90632000D01*
X146012000Y-90632000D01*
X146069403Y-90643418D01*
G37*
G36*
X154720604Y-89723627D02*
G01*
X154793599Y-89772401D01*
X154842373Y-89845396D01*
X154859500Y-89931500D01*
X154859500Y-90431500D01*
X154842373Y-90517604D01*
X154793599Y-90590599D01*
X154720604Y-90639373D01*
X154634500Y-90656500D01*
X154184500Y-90656500D01*
X154098396Y-90639373D01*
X154025401Y-90590599D01*
X153976627Y-90517604D01*
X153959500Y-90431500D01*
X153959500Y-89931500D01*
X153976627Y-89845396D01*
X154025401Y-89772401D01*
X154098396Y-89723627D01*
X154184500Y-89706500D01*
X154634500Y-89706500D01*
X154720604Y-89723627D01*
G37*
G36*
X156270604Y-89723627D02*
G01*
X156343599Y-89772401D01*
X156392373Y-89845396D01*
X156409500Y-89931500D01*
X156409500Y-90431500D01*
X156392373Y-90517604D01*
X156343599Y-90590599D01*
X156270604Y-90639373D01*
X156184500Y-90656500D01*
X155734500Y-90656500D01*
X155648396Y-90639373D01*
X155575401Y-90590599D01*
X155526627Y-90517604D01*
X155509500Y-90431500D01*
X155509500Y-89931500D01*
X155526627Y-89845396D01*
X155575401Y-89772401D01*
X155648396Y-89723627D01*
X155734500Y-89706500D01*
X156184500Y-89706500D01*
X156270604Y-89723627D01*
G37*
G36*
X139302906Y-88578590D02*
G01*
X139308927Y-88581533D01*
X139311593Y-88581956D01*
X139354224Y-88603677D01*
X139413809Y-88632807D01*
X139501098Y-88720096D01*
X139530245Y-88779719D01*
X139551948Y-88822312D01*
X139552369Y-88824974D01*
X139555315Y-88830999D01*
X139570905Y-88938000D01*
X139570905Y-89688000D01*
X139555315Y-89795001D01*
X139552369Y-89801025D01*
X139551948Y-89803688D01*
X139530250Y-89846270D01*
X139501098Y-89905904D01*
X139413809Y-89993193D01*
X139354161Y-90022352D01*
X139311592Y-90044043D01*
X139308931Y-90044464D01*
X139302906Y-90047410D01*
X139195905Y-90063000D01*
X137945905Y-90063000D01*
X137838904Y-90047410D01*
X137832879Y-90044464D01*
X137830216Y-90044043D01*
X137787609Y-90022333D01*
X137728001Y-89993193D01*
X137640712Y-89905904D01*
X137611575Y-89846304D01*
X137589861Y-89803687D01*
X137589439Y-89801023D01*
X137586495Y-89795001D01*
X137570905Y-89688000D01*
X137570905Y-88938000D01*
X137586495Y-88830999D01*
X137589438Y-88824977D01*
X137589861Y-88822311D01*
X137611594Y-88779656D01*
X137640712Y-88720096D01*
X137728001Y-88632807D01*
X137787575Y-88603682D01*
X137830217Y-88581956D01*
X137832882Y-88581533D01*
X137838904Y-88578590D01*
X137945905Y-88563000D01*
X139195905Y-88563000D01*
X139302906Y-88578590D01*
G37*
G36*
X146581537Y-88948224D02*
G01*
X146646421Y-88991579D01*
X146689776Y-89056463D01*
X146705000Y-89133000D01*
X146705000Y-89683000D01*
X146689776Y-89759537D01*
X146646421Y-89824421D01*
X146581537Y-89867776D01*
X146505000Y-89883000D01*
X146105000Y-89883000D01*
X146028463Y-89867776D01*
X145963579Y-89824421D01*
X145920224Y-89759537D01*
X145905000Y-89683000D01*
X145905000Y-89133000D01*
X145920224Y-89056463D01*
X145963579Y-88991579D01*
X146028463Y-88948224D01*
X146105000Y-88933000D01*
X146505000Y-88933000D01*
X146581537Y-88948224D01*
G37*
G36*
X148231537Y-88948224D02*
G01*
X148296421Y-88991579D01*
X148339776Y-89056463D01*
X148355000Y-89133000D01*
X148355000Y-89683000D01*
X148339776Y-89759537D01*
X148296421Y-89824421D01*
X148231537Y-89867776D01*
X148155000Y-89883000D01*
X147755000Y-89883000D01*
X147678463Y-89867776D01*
X147613579Y-89824421D01*
X147570224Y-89759537D01*
X147555000Y-89683000D01*
X147555000Y-89133000D01*
X147570224Y-89056463D01*
X147613579Y-88991579D01*
X147678463Y-88948224D01*
X147755000Y-88933000D01*
X148155000Y-88933000D01*
X148231537Y-88948224D01*
G37*
G36*
X141575537Y-88985624D02*
G01*
X141640421Y-89028979D01*
X141683776Y-89093863D01*
X141699000Y-89170400D01*
X141699000Y-89570400D01*
X141683776Y-89646937D01*
X141640421Y-89711821D01*
X141575537Y-89755176D01*
X141499000Y-89770400D01*
X140949000Y-89770400D01*
X140872463Y-89755176D01*
X140807579Y-89711821D01*
X140764224Y-89646937D01*
X140749000Y-89570400D01*
X140749000Y-89170400D01*
X140764224Y-89093863D01*
X140807579Y-89028979D01*
X140872463Y-88985624D01*
X140949000Y-88970400D01*
X141499000Y-88970400D01*
X141575537Y-88985624D01*
G37*
G36*
X141560104Y-87489527D02*
G01*
X141633099Y-87538301D01*
X141681873Y-87611296D01*
X141699000Y-87697400D01*
X141699000Y-88147400D01*
X141681873Y-88233504D01*
X141633099Y-88306499D01*
X141560104Y-88355273D01*
X141474000Y-88372400D01*
X140974000Y-88372400D01*
X140887896Y-88355273D01*
X140814901Y-88306499D01*
X140766127Y-88233504D01*
X140749000Y-88147400D01*
X140749000Y-87697400D01*
X140766127Y-87611296D01*
X140814901Y-87538301D01*
X140887896Y-87489527D01*
X140974000Y-87472400D01*
X141474000Y-87472400D01*
X141560104Y-87489527D01*
G37*
G36*
X146581537Y-87424224D02*
G01*
X146646421Y-87467579D01*
X146689776Y-87532463D01*
X146705000Y-87609000D01*
X146705000Y-88159000D01*
X146689776Y-88235537D01*
X146646421Y-88300421D01*
X146581537Y-88343776D01*
X146505000Y-88359000D01*
X146105000Y-88359000D01*
X146028463Y-88343776D01*
X145963579Y-88300421D01*
X145920224Y-88235537D01*
X145905000Y-88159000D01*
X145905000Y-87609000D01*
X145920224Y-87532463D01*
X145963579Y-87467579D01*
X146028463Y-87424224D01*
X146105000Y-87409000D01*
X146505000Y-87409000D01*
X146581537Y-87424224D01*
G37*
G36*
X148231537Y-87424224D02*
G01*
X148296421Y-87467579D01*
X148339776Y-87532463D01*
X148355000Y-87609000D01*
X148355000Y-88159000D01*
X148339776Y-88235537D01*
X148296421Y-88300421D01*
X148231537Y-88343776D01*
X148155000Y-88359000D01*
X147755000Y-88359000D01*
X147678463Y-88343776D01*
X147613579Y-88300421D01*
X147570224Y-88235537D01*
X147555000Y-88159000D01*
X147555000Y-87609000D01*
X147570224Y-87532463D01*
X147613579Y-87467579D01*
X147678463Y-87424224D01*
X147755000Y-87409000D01*
X148155000Y-87409000D01*
X148231537Y-87424224D01*
G37*
G36*
X159228001Y-86870090D02*
G01*
X159234022Y-86873033D01*
X159236688Y-86873456D01*
X159279319Y-86895177D01*
X159338904Y-86924307D01*
X159426193Y-87011596D01*
X159455340Y-87071219D01*
X159477043Y-87113812D01*
X159477464Y-87116474D01*
X159480410Y-87122499D01*
X159496000Y-87229500D01*
X159496000Y-87979500D01*
X159480410Y-88086501D01*
X159477464Y-88092525D01*
X159477043Y-88095188D01*
X159455345Y-88137770D01*
X159426193Y-88197404D01*
X159338904Y-88284693D01*
X159279256Y-88313852D01*
X159236687Y-88335543D01*
X159234026Y-88335964D01*
X159228001Y-88338910D01*
X159121000Y-88354500D01*
X157871000Y-88354500D01*
X157763999Y-88338910D01*
X157757974Y-88335964D01*
X157755311Y-88335543D01*
X157712704Y-88313833D01*
X157653096Y-88284693D01*
X157565807Y-88197404D01*
X157536670Y-88137804D01*
X157514956Y-88095187D01*
X157514534Y-88092523D01*
X157511590Y-88086501D01*
X157496000Y-87979500D01*
X157496000Y-87229500D01*
X157511590Y-87122499D01*
X157514533Y-87116477D01*
X157514956Y-87113811D01*
X157536689Y-87071156D01*
X157565807Y-87011596D01*
X157653096Y-86924307D01*
X157712670Y-86895182D01*
X157755312Y-86873456D01*
X157757977Y-86873033D01*
X157763999Y-86870090D01*
X157871000Y-86854500D01*
X159121000Y-86854500D01*
X159228001Y-86870090D01*
G37*
G36*
X144481104Y-87464127D02*
G01*
X144554099Y-87512901D01*
X144602873Y-87585896D01*
X144620000Y-87672000D01*
X144620000Y-88122000D01*
X144602873Y-88208104D01*
X144554099Y-88281099D01*
X144481104Y-88329873D01*
X144395000Y-88347000D01*
X143895000Y-88347000D01*
X143808896Y-88329873D01*
X143735901Y-88281099D01*
X143687127Y-88208104D01*
X143670000Y-88122000D01*
X143670000Y-87672000D01*
X143687127Y-87585896D01*
X143735901Y-87512901D01*
X143808896Y-87464127D01*
X143895000Y-87447000D01*
X144395000Y-87447000D01*
X144481104Y-87464127D01*
G37*
G36*
X154191918Y-88017258D02*
G01*
X154212194Y-88030806D01*
X154225742Y-88051082D01*
X154230500Y-88075000D01*
X154230500Y-88200000D01*
X154225742Y-88223918D01*
X154212194Y-88244194D01*
X154191918Y-88257742D01*
X154168000Y-88262500D01*
X153793000Y-88262500D01*
X153769082Y-88257742D01*
X153748806Y-88244194D01*
X153735258Y-88223918D01*
X153730500Y-88200000D01*
X153730500Y-88075000D01*
X153735258Y-88051082D01*
X153748806Y-88030806D01*
X153769082Y-88017258D01*
X153793000Y-88012500D01*
X154168000Y-88012500D01*
X154191918Y-88017258D01*
G37*
G36*
X156091918Y-88017258D02*
G01*
X156112194Y-88030806D01*
X156125742Y-88051082D01*
X156130500Y-88075000D01*
X156130500Y-88200000D01*
X156125742Y-88223918D01*
X156112194Y-88244194D01*
X156091918Y-88257742D01*
X156068000Y-88262500D01*
X155693000Y-88262500D01*
X155669082Y-88257742D01*
X155648806Y-88244194D01*
X155635258Y-88223918D01*
X155630500Y-88200000D01*
X155630500Y-88075000D01*
X155635258Y-88051082D01*
X155648806Y-88030806D01*
X155669082Y-88017258D01*
X155693000Y-88012500D01*
X156068000Y-88012500D01*
X156091918Y-88017258D01*
G37*
G36*
X155380500Y-88187500D02*
G01*
X154480500Y-88187500D01*
X154480500Y-86587500D01*
X155380500Y-86587500D01*
X155380500Y-88187500D01*
G37*
G36*
X139302906Y-86578590D02*
G01*
X139308927Y-86581533D01*
X139311593Y-86581956D01*
X139354224Y-86603677D01*
X139413809Y-86632807D01*
X139501098Y-86720096D01*
X139530245Y-86779719D01*
X139551948Y-86822312D01*
X139552369Y-86824974D01*
X139555315Y-86830999D01*
X139570905Y-86938000D01*
X139570905Y-87688000D01*
X139555315Y-87795001D01*
X139552369Y-87801025D01*
X139551948Y-87803688D01*
X139530250Y-87846270D01*
X139501098Y-87905904D01*
X139413809Y-87993193D01*
X139354161Y-88022352D01*
X139311592Y-88044043D01*
X139308931Y-88044464D01*
X139302906Y-88047410D01*
X139195905Y-88063000D01*
X137945905Y-88063000D01*
X137838904Y-88047410D01*
X137832879Y-88044464D01*
X137830216Y-88044043D01*
X137787609Y-88022333D01*
X137728001Y-87993193D01*
X137640712Y-87905904D01*
X137611575Y-87846304D01*
X137589861Y-87803687D01*
X137589439Y-87801023D01*
X137586495Y-87795001D01*
X137570905Y-87688000D01*
X137570905Y-86938000D01*
X137586495Y-86830999D01*
X137589438Y-86824977D01*
X137589861Y-86822311D01*
X137611594Y-86779656D01*
X137640712Y-86720096D01*
X137728001Y-86632807D01*
X137787575Y-86603682D01*
X137830217Y-86581956D01*
X137832882Y-86581533D01*
X137838904Y-86578590D01*
X137945905Y-86563000D01*
X139195905Y-86563000D01*
X139302906Y-86578590D01*
G37*
G36*
X154191918Y-87517258D02*
G01*
X154212194Y-87530806D01*
X154225742Y-87551082D01*
X154230500Y-87575000D01*
X154230500Y-87700000D01*
X154225742Y-87723918D01*
X154212194Y-87744194D01*
X154191918Y-87757742D01*
X154168000Y-87762500D01*
X153793000Y-87762500D01*
X153769082Y-87757742D01*
X153748806Y-87744194D01*
X153735258Y-87723918D01*
X153730500Y-87700000D01*
X153730500Y-87575000D01*
X153735258Y-87551082D01*
X153748806Y-87530806D01*
X153769082Y-87517258D01*
X153793000Y-87512500D01*
X154168000Y-87512500D01*
X154191918Y-87517258D01*
G37*
G36*
X156091918Y-87517258D02*
G01*
X156112194Y-87530806D01*
X156125742Y-87551082D01*
X156130500Y-87575000D01*
X156130500Y-87700000D01*
X156125742Y-87723918D01*
X156112194Y-87744194D01*
X156091918Y-87757742D01*
X156068000Y-87762500D01*
X155693000Y-87762500D01*
X155669082Y-87757742D01*
X155648806Y-87744194D01*
X155635258Y-87723918D01*
X155630500Y-87700000D01*
X155630500Y-87575000D01*
X155635258Y-87551082D01*
X155648806Y-87530806D01*
X155669082Y-87517258D01*
X155693000Y-87512500D01*
X156068000Y-87512500D01*
X156091918Y-87517258D01*
G37*
G36*
X154191918Y-87017258D02*
G01*
X154212194Y-87030806D01*
X154225742Y-87051082D01*
X154230500Y-87075000D01*
X154230500Y-87200000D01*
X154225742Y-87223918D01*
X154212194Y-87244194D01*
X154191918Y-87257742D01*
X154168000Y-87262500D01*
X153793000Y-87262500D01*
X153769082Y-87257742D01*
X153748806Y-87244194D01*
X153735258Y-87223918D01*
X153730500Y-87200000D01*
X153730500Y-87075000D01*
X153735258Y-87051082D01*
X153748806Y-87030806D01*
X153769082Y-87017258D01*
X153793000Y-87012500D01*
X154168000Y-87012500D01*
X154191918Y-87017258D01*
G37*
G36*
X156091918Y-87017258D02*
G01*
X156112194Y-87030806D01*
X156125742Y-87051082D01*
X156130500Y-87075000D01*
X156130500Y-87200000D01*
X156125742Y-87223918D01*
X156112194Y-87244194D01*
X156091918Y-87257742D01*
X156068000Y-87262500D01*
X155693000Y-87262500D01*
X155669082Y-87257742D01*
X155648806Y-87244194D01*
X155635258Y-87223918D01*
X155630500Y-87200000D01*
X155630500Y-87075000D01*
X155635258Y-87051082D01*
X155648806Y-87030806D01*
X155669082Y-87017258D01*
X155693000Y-87012500D01*
X156068000Y-87012500D01*
X156091918Y-87017258D01*
G37*
G36*
X141560104Y-85939527D02*
G01*
X141633099Y-85988301D01*
X141681873Y-86061296D01*
X141699000Y-86147400D01*
X141699000Y-86597400D01*
X141681873Y-86683504D01*
X141633099Y-86756499D01*
X141560104Y-86805273D01*
X141474000Y-86822400D01*
X140974000Y-86822400D01*
X140887896Y-86805273D01*
X140814901Y-86756499D01*
X140766127Y-86683504D01*
X140749000Y-86597400D01*
X140749000Y-86147400D01*
X140766127Y-86061296D01*
X140814901Y-85988301D01*
X140887896Y-85939527D01*
X140974000Y-85922400D01*
X141474000Y-85922400D01*
X141560104Y-85939527D01*
G37*
G36*
X144481104Y-85914127D02*
G01*
X144554099Y-85962901D01*
X144602873Y-86035896D01*
X144620000Y-86122000D01*
X144620000Y-86572000D01*
X144602873Y-86658104D01*
X144554099Y-86731099D01*
X144481104Y-86779873D01*
X144395000Y-86797000D01*
X143895000Y-86797000D01*
X143808896Y-86779873D01*
X143735901Y-86731099D01*
X143687127Y-86658104D01*
X143670000Y-86572000D01*
X143670000Y-86122000D01*
X143687127Y-86035896D01*
X143735901Y-85962901D01*
X143808896Y-85914127D01*
X143895000Y-85897000D01*
X144395000Y-85897000D01*
X144481104Y-85914127D01*
G37*
G36*
X154191918Y-86517258D02*
G01*
X154212194Y-86530806D01*
X154225742Y-86551082D01*
X154230500Y-86575000D01*
X154230500Y-86700000D01*
X154225742Y-86723918D01*
X154212194Y-86744194D01*
X154191918Y-86757742D01*
X154168000Y-86762500D01*
X153793000Y-86762500D01*
X153769082Y-86757742D01*
X153748806Y-86744194D01*
X153735258Y-86723918D01*
X153730500Y-86700000D01*
X153730500Y-86575000D01*
X153735258Y-86551082D01*
X153748806Y-86530806D01*
X153769082Y-86517258D01*
X153793000Y-86512500D01*
X154168000Y-86512500D01*
X154191918Y-86517258D01*
G37*
G36*
X156091918Y-86517258D02*
G01*
X156112194Y-86530806D01*
X156125742Y-86551082D01*
X156130500Y-86575000D01*
X156130500Y-86700000D01*
X156125742Y-86723918D01*
X156112194Y-86744194D01*
X156091918Y-86757742D01*
X156068000Y-86762500D01*
X155693000Y-86762500D01*
X155669082Y-86757742D01*
X155648806Y-86744194D01*
X155635258Y-86723918D01*
X155630500Y-86700000D01*
X155630500Y-86575000D01*
X155635258Y-86551082D01*
X155648806Y-86530806D01*
X155669082Y-86517258D01*
X155693000Y-86512500D01*
X156068000Y-86512500D01*
X156091918Y-86517258D01*
G37*
G36*
X146196403Y-85068418D02*
G01*
X146245066Y-85100934D01*
X146277582Y-85149597D01*
X146289000Y-85207000D01*
X146289000Y-86232000D01*
X146277582Y-86289403D01*
X146245066Y-86338066D01*
X146196403Y-86370582D01*
X146139000Y-86382000D01*
X145839000Y-86382000D01*
X145781597Y-86370582D01*
X145732934Y-86338066D01*
X145700418Y-86289403D01*
X145689000Y-86232000D01*
X145689000Y-85207000D01*
X145700418Y-85149597D01*
X145732934Y-85100934D01*
X145781597Y-85068418D01*
X145839000Y-85057000D01*
X146139000Y-85057000D01*
X146196403Y-85068418D01*
G37*
G36*
X147146403Y-85068418D02*
G01*
X147195066Y-85100934D01*
X147227582Y-85149597D01*
X147239000Y-85207000D01*
X147239000Y-86232000D01*
X147227582Y-86289403D01*
X147195066Y-86338066D01*
X147146403Y-86370582D01*
X147089000Y-86382000D01*
X146789000Y-86382000D01*
X146731597Y-86370582D01*
X146682934Y-86338066D01*
X146650418Y-86289403D01*
X146639000Y-86232000D01*
X146639000Y-85207000D01*
X146650418Y-85149597D01*
X146682934Y-85100934D01*
X146731597Y-85068418D01*
X146789000Y-85057000D01*
X147089000Y-85057000D01*
X147146403Y-85068418D01*
G37*
G36*
X148096403Y-85068418D02*
G01*
X148145066Y-85100934D01*
X148177582Y-85149597D01*
X148189000Y-85207000D01*
X148189000Y-86232000D01*
X148177582Y-86289403D01*
X148145066Y-86338066D01*
X148096403Y-86370582D01*
X148039000Y-86382000D01*
X147739000Y-86382000D01*
X147681597Y-86370582D01*
X147632934Y-86338066D01*
X147600418Y-86289403D01*
X147589000Y-86232000D01*
X147589000Y-85207000D01*
X147600418Y-85149597D01*
X147632934Y-85100934D01*
X147681597Y-85068418D01*
X147739000Y-85057000D01*
X148039000Y-85057000D01*
X148096403Y-85068418D01*
G37*
G36*
X159228001Y-84870090D02*
G01*
X159234022Y-84873033D01*
X159236688Y-84873456D01*
X159279319Y-84895177D01*
X159338904Y-84924307D01*
X159426193Y-85011596D01*
X159455340Y-85071219D01*
X159477043Y-85113812D01*
X159477464Y-85116474D01*
X159480410Y-85122499D01*
X159496000Y-85229500D01*
X159496000Y-85979500D01*
X159480410Y-86086501D01*
X159477464Y-86092525D01*
X159477043Y-86095188D01*
X159455345Y-86137770D01*
X159426193Y-86197404D01*
X159338904Y-86284693D01*
X159279256Y-86313852D01*
X159236687Y-86335543D01*
X159234026Y-86335964D01*
X159228001Y-86338910D01*
X159121000Y-86354500D01*
X157871000Y-86354500D01*
X157763999Y-86338910D01*
X157757974Y-86335964D01*
X157755311Y-86335543D01*
X157712704Y-86313833D01*
X157653096Y-86284693D01*
X157565807Y-86197404D01*
X157536670Y-86137804D01*
X157514956Y-86095187D01*
X157514534Y-86092523D01*
X157511590Y-86086501D01*
X157496000Y-85979500D01*
X157496000Y-85229500D01*
X157511590Y-85122499D01*
X157514533Y-85116477D01*
X157514956Y-85113811D01*
X157536689Y-85071156D01*
X157565807Y-85011596D01*
X157653096Y-84924307D01*
X157712670Y-84895182D01*
X157755312Y-84873456D01*
X157757977Y-84873033D01*
X157763999Y-84870090D01*
X157871000Y-84854500D01*
X159121000Y-84854500D01*
X159228001Y-84870090D01*
G37*
G36*
X154720604Y-84897627D02*
G01*
X154793599Y-84946401D01*
X154842373Y-85019396D01*
X154859500Y-85105500D01*
X154859500Y-85605500D01*
X154842373Y-85691604D01*
X154793599Y-85764599D01*
X154720604Y-85813373D01*
X154634500Y-85830500D01*
X154184500Y-85830500D01*
X154098396Y-85813373D01*
X154025401Y-85764599D01*
X153976627Y-85691604D01*
X153959500Y-85605500D01*
X153959500Y-85105500D01*
X153976627Y-85019396D01*
X154025401Y-84946401D01*
X154098396Y-84897627D01*
X154184500Y-84880500D01*
X154634500Y-84880500D01*
X154720604Y-84897627D01*
G37*
G36*
X156270604Y-84897627D02*
G01*
X156343599Y-84946401D01*
X156392373Y-85019396D01*
X156409500Y-85105500D01*
X156409500Y-85605500D01*
X156392373Y-85691604D01*
X156343599Y-85764599D01*
X156270604Y-85813373D01*
X156184500Y-85830500D01*
X155734500Y-85830500D01*
X155648396Y-85813373D01*
X155575401Y-85764599D01*
X155526627Y-85691604D01*
X155509500Y-85605500D01*
X155509500Y-85105500D01*
X155526627Y-85019396D01*
X155575401Y-84946401D01*
X155648396Y-84897627D01*
X155734500Y-84880500D01*
X156184500Y-84880500D01*
X156270604Y-84897627D01*
G37*
G36*
X141179283Y-83339427D02*
G01*
X141186012Y-83341936D01*
X141190860Y-83342519D01*
X141248247Y-83365149D01*
X141312624Y-83389161D01*
X141316506Y-83392067D01*
X141317819Y-83392585D01*
X141365589Y-83428810D01*
X141426553Y-83474447D01*
X141472207Y-83535435D01*
X141508414Y-83583180D01*
X141508931Y-83584491D01*
X141511839Y-83588376D01*
X141535857Y-83652771D01*
X141558480Y-83710138D01*
X141559062Y-83714984D01*
X141561573Y-83721717D01*
X141573000Y-83828000D01*
X141573000Y-84828000D01*
X141561573Y-84934283D01*
X141559061Y-84941015D01*
X141558480Y-84945860D01*
X141535867Y-85003200D01*
X141511839Y-85067624D01*
X141508930Y-85071509D01*
X141508414Y-85072819D01*
X141472266Y-85120487D01*
X141426553Y-85181553D01*
X141365487Y-85227266D01*
X141317819Y-85263414D01*
X141316509Y-85263930D01*
X141312624Y-85266839D01*
X141248210Y-85290864D01*
X141190861Y-85313480D01*
X141186015Y-85314061D01*
X141179283Y-85316573D01*
X141073000Y-85328000D01*
X138073000Y-85328000D01*
X137966717Y-85316573D01*
X137959984Y-85314061D01*
X137955139Y-85313480D01*
X137897781Y-85290861D01*
X137833376Y-85266839D01*
X137829491Y-85263931D01*
X137828180Y-85263414D01*
X137780435Y-85227207D01*
X137719447Y-85181553D01*
X137673810Y-85120589D01*
X137637585Y-85072819D01*
X137637067Y-85071506D01*
X137634161Y-85067624D01*
X137610153Y-85003257D01*
X137587519Y-84945861D01*
X137586936Y-84941011D01*
X137584427Y-84934283D01*
X137573000Y-84828000D01*
X137573000Y-83828000D01*
X137584427Y-83721717D01*
X137586936Y-83714988D01*
X137587519Y-83710139D01*
X137610156Y-83652734D01*
X137634161Y-83588376D01*
X137637066Y-83584494D01*
X137637585Y-83583180D01*
X137673868Y-83535332D01*
X137719447Y-83474447D01*
X137780332Y-83428868D01*
X137828180Y-83392585D01*
X137829494Y-83392066D01*
X137833376Y-83389161D01*
X137897724Y-83365160D01*
X137955138Y-83342519D01*
X137959988Y-83341936D01*
X137966717Y-83339427D01*
X138073000Y-83328000D01*
X141073000Y-83328000D01*
X141179283Y-83339427D01*
G37*
G36*
X142919104Y-84378127D02*
G01*
X142992099Y-84426901D01*
X143040873Y-84499896D01*
X143058000Y-84586000D01*
X143058000Y-85086000D01*
X143040873Y-85172104D01*
X142992099Y-85245099D01*
X142919104Y-85293873D01*
X142833000Y-85311000D01*
X142383000Y-85311000D01*
X142296896Y-85293873D01*
X142223901Y-85245099D01*
X142175127Y-85172104D01*
X142158000Y-85086000D01*
X142158000Y-84586000D01*
X142175127Y-84499896D01*
X142223901Y-84426901D01*
X142296896Y-84378127D01*
X142383000Y-84361000D01*
X142833000Y-84361000D01*
X142919104Y-84378127D01*
G37*
G36*
X144469104Y-84378127D02*
G01*
X144542099Y-84426901D01*
X144590873Y-84499896D01*
X144608000Y-84586000D01*
X144608000Y-85086000D01*
X144590873Y-85172104D01*
X144542099Y-85245099D01*
X144469104Y-85293873D01*
X144383000Y-85311000D01*
X143933000Y-85311000D01*
X143846896Y-85293873D01*
X143773901Y-85245099D01*
X143725127Y-85172104D01*
X143708000Y-85086000D01*
X143708000Y-84586000D01*
X143725127Y-84499896D01*
X143773901Y-84426901D01*
X143846896Y-84378127D01*
X143933000Y-84361000D01*
X144383000Y-84361000D01*
X144469104Y-84378127D01*
G37*
G36*
X154720604Y-83373627D02*
G01*
X154793599Y-83422401D01*
X154842373Y-83495396D01*
X154859500Y-83581500D01*
X154859500Y-84081500D01*
X154842373Y-84167604D01*
X154793599Y-84240599D01*
X154720604Y-84289373D01*
X154634500Y-84306500D01*
X154184500Y-84306500D01*
X154098396Y-84289373D01*
X154025401Y-84240599D01*
X153976627Y-84167604D01*
X153959500Y-84081500D01*
X153959500Y-83581500D01*
X153976627Y-83495396D01*
X154025401Y-83422401D01*
X154098396Y-83373627D01*
X154184500Y-83356500D01*
X154634500Y-83356500D01*
X154720604Y-83373627D01*
G37*
G36*
X156270604Y-83373627D02*
G01*
X156343599Y-83422401D01*
X156392373Y-83495396D01*
X156409500Y-83581500D01*
X156409500Y-84081500D01*
X156392373Y-84167604D01*
X156343599Y-84240599D01*
X156270604Y-84289373D01*
X156184500Y-84306500D01*
X155734500Y-84306500D01*
X155648396Y-84289373D01*
X155575401Y-84240599D01*
X155526627Y-84167604D01*
X155509500Y-84081500D01*
X155509500Y-83581500D01*
X155526627Y-83495396D01*
X155575401Y-83422401D01*
X155648396Y-83373627D01*
X155734500Y-83356500D01*
X156184500Y-83356500D01*
X156270604Y-83373627D01*
G37*
G36*
X146196403Y-82793418D02*
G01*
X146245066Y-82825934D01*
X146277582Y-82874597D01*
X146289000Y-82932000D01*
X146289000Y-83957000D01*
X146277582Y-84014403D01*
X146245066Y-84063066D01*
X146196403Y-84095582D01*
X146139000Y-84107000D01*
X145839000Y-84107000D01*
X145781597Y-84095582D01*
X145732934Y-84063066D01*
X145700418Y-84014403D01*
X145689000Y-83957000D01*
X145689000Y-82932000D01*
X145700418Y-82874597D01*
X145732934Y-82825934D01*
X145781597Y-82793418D01*
X145839000Y-82782000D01*
X146139000Y-82782000D01*
X146196403Y-82793418D01*
G37*
G36*
X147146403Y-82793418D02*
G01*
X147195066Y-82825934D01*
X147227582Y-82874597D01*
X147239000Y-82932000D01*
X147239000Y-83957000D01*
X147227582Y-84014403D01*
X147195066Y-84063066D01*
X147146403Y-84095582D01*
X147089000Y-84107000D01*
X146789000Y-84107000D01*
X146731597Y-84095582D01*
X146682934Y-84063066D01*
X146650418Y-84014403D01*
X146639000Y-83957000D01*
X146639000Y-82932000D01*
X146650418Y-82874597D01*
X146682934Y-82825934D01*
X146731597Y-82793418D01*
X146789000Y-82782000D01*
X147089000Y-82782000D01*
X147146403Y-82793418D01*
G37*
G36*
X148096403Y-82793418D02*
G01*
X148145066Y-82825934D01*
X148177582Y-82874597D01*
X148189000Y-82932000D01*
X148189000Y-83957000D01*
X148177582Y-84014403D01*
X148145066Y-84063066D01*
X148096403Y-84095582D01*
X148039000Y-84107000D01*
X147739000Y-84107000D01*
X147681597Y-84095582D01*
X147632934Y-84063066D01*
X147600418Y-84014403D01*
X147589000Y-83957000D01*
X147589000Y-82932000D01*
X147600418Y-82874597D01*
X147632934Y-82825934D01*
X147681597Y-82793418D01*
X147739000Y-82782000D01*
X148039000Y-82782000D01*
X148096403Y-82793418D01*
G37*
G36*
X142919104Y-82854127D02*
G01*
X142992099Y-82902901D01*
X143040873Y-82975896D01*
X143058000Y-83062000D01*
X143058000Y-83562000D01*
X143040873Y-83648104D01*
X142992099Y-83721099D01*
X142919104Y-83769873D01*
X142833000Y-83787000D01*
X142383000Y-83787000D01*
X142296896Y-83769873D01*
X142223901Y-83721099D01*
X142175127Y-83648104D01*
X142158000Y-83562000D01*
X142158000Y-83062000D01*
X142175127Y-82975896D01*
X142223901Y-82902901D01*
X142296896Y-82854127D01*
X142383000Y-82837000D01*
X142833000Y-82837000D01*
X142919104Y-82854127D01*
G37*
G36*
X144469104Y-82854127D02*
G01*
X144542099Y-82902901D01*
X144590873Y-82975896D01*
X144608000Y-83062000D01*
X144608000Y-83562000D01*
X144590873Y-83648104D01*
X144542099Y-83721099D01*
X144469104Y-83769873D01*
X144383000Y-83787000D01*
X143933000Y-83787000D01*
X143846896Y-83769873D01*
X143773901Y-83721099D01*
X143725127Y-83648104D01*
X143708000Y-83562000D01*
X143708000Y-83062000D01*
X143725127Y-82975896D01*
X143773901Y-82902901D01*
X143846896Y-82854127D01*
X143933000Y-82837000D01*
X144383000Y-82837000D01*
X144469104Y-82854127D01*
G37*
G36*
X143465104Y-81114127D02*
G01*
X143538099Y-81162901D01*
X143586873Y-81235896D01*
X143604000Y-81322000D01*
X143604000Y-81772000D01*
X143586873Y-81858104D01*
X143538099Y-81931099D01*
X143465104Y-81979873D01*
X143379000Y-81997000D01*
X142879000Y-81997000D01*
X142792896Y-81979873D01*
X142719901Y-81931099D01*
X142671127Y-81858104D01*
X142654000Y-81772000D01*
X142654000Y-81322000D01*
X142671127Y-81235896D01*
X142719901Y-81162901D01*
X142792896Y-81114127D01*
X142879000Y-81097000D01*
X143379000Y-81097000D01*
X143465104Y-81114127D01*
G37*
G36*
X144989104Y-81114127D02*
G01*
X145062099Y-81162901D01*
X145110873Y-81235896D01*
X145128000Y-81322000D01*
X145128000Y-81772000D01*
X145110873Y-81858104D01*
X145062099Y-81931099D01*
X144989104Y-81979873D01*
X144903000Y-81997000D01*
X144403000Y-81997000D01*
X144316896Y-81979873D01*
X144243901Y-81931099D01*
X144195127Y-81858104D01*
X144178000Y-81772000D01*
X144178000Y-81322000D01*
X144195127Y-81235896D01*
X144243901Y-81162901D01*
X144316896Y-81114127D01*
X144403000Y-81097000D01*
X144903000Y-81097000D01*
X144989104Y-81114127D01*
G37*
G36*
X146513104Y-81114127D02*
G01*
X146586099Y-81162901D01*
X146634873Y-81235896D01*
X146652000Y-81322000D01*
X146652000Y-81772000D01*
X146634873Y-81858104D01*
X146586099Y-81931099D01*
X146513104Y-81979873D01*
X146427000Y-81997000D01*
X145927000Y-81997000D01*
X145840896Y-81979873D01*
X145767901Y-81931099D01*
X145719127Y-81858104D01*
X145702000Y-81772000D01*
X145702000Y-81322000D01*
X145719127Y-81235896D01*
X145767901Y-81162901D01*
X145840896Y-81114127D01*
X145927000Y-81097000D01*
X146427000Y-81097000D01*
X146513104Y-81114127D01*
G37*
G36*
X141179283Y-79783427D02*
G01*
X141186012Y-79785936D01*
X141190860Y-79786519D01*
X141248247Y-79809149D01*
X141312624Y-79833161D01*
X141316506Y-79836067D01*
X141317819Y-79836585D01*
X141365589Y-79872810D01*
X141426553Y-79918447D01*
X141472207Y-79979435D01*
X141508414Y-80027180D01*
X141508931Y-80028491D01*
X141511839Y-80032376D01*
X141535857Y-80096771D01*
X141558480Y-80154138D01*
X141559062Y-80158984D01*
X141561573Y-80165717D01*
X141573000Y-80272000D01*
X141573000Y-81272000D01*
X141561573Y-81378283D01*
X141559061Y-81385015D01*
X141558480Y-81389860D01*
X141535867Y-81447200D01*
X141511839Y-81511624D01*
X141508930Y-81515509D01*
X141508414Y-81516819D01*
X141472266Y-81564487D01*
X141426553Y-81625553D01*
X141365487Y-81671266D01*
X141317819Y-81707414D01*
X141316509Y-81707930D01*
X141312624Y-81710839D01*
X141248210Y-81734864D01*
X141190861Y-81757480D01*
X141186015Y-81758061D01*
X141179283Y-81760573D01*
X141073000Y-81772000D01*
X138073000Y-81772000D01*
X137966717Y-81760573D01*
X137959984Y-81758061D01*
X137955139Y-81757480D01*
X137897781Y-81734861D01*
X137833376Y-81710839D01*
X137829491Y-81707931D01*
X137828180Y-81707414D01*
X137780435Y-81671207D01*
X137719447Y-81625553D01*
X137673810Y-81564589D01*
X137637585Y-81516819D01*
X137637067Y-81515506D01*
X137634161Y-81511624D01*
X137610153Y-81447257D01*
X137587519Y-81389861D01*
X137586936Y-81385011D01*
X137584427Y-81378283D01*
X137573000Y-81272000D01*
X137573000Y-80272000D01*
X137584427Y-80165717D01*
X137586936Y-80158988D01*
X137587519Y-80154139D01*
X137610156Y-80096734D01*
X137634161Y-80032376D01*
X137637066Y-80028494D01*
X137637585Y-80027180D01*
X137673868Y-79979332D01*
X137719447Y-79918447D01*
X137780332Y-79872868D01*
X137828180Y-79836585D01*
X137829494Y-79836066D01*
X137833376Y-79833161D01*
X137897724Y-79809160D01*
X137955138Y-79786519D01*
X137959988Y-79785936D01*
X137966717Y-79783427D01*
X138073000Y-79772000D01*
X141073000Y-79772000D01*
X141179283Y-79783427D01*
G37*
G36*
X150577104Y-79717127D02*
G01*
X150650099Y-79765901D01*
X150698873Y-79838896D01*
X150716000Y-79925000D01*
X150716000Y-80375000D01*
X150698873Y-80461104D01*
X150650099Y-80534099D01*
X150577104Y-80582873D01*
X150491000Y-80600000D01*
X149991000Y-80600000D01*
X149904896Y-80582873D01*
X149831901Y-80534099D01*
X149783127Y-80461104D01*
X149766000Y-80375000D01*
X149766000Y-79925000D01*
X149783127Y-79838896D01*
X149831901Y-79765901D01*
X149904896Y-79717127D01*
X149991000Y-79700000D01*
X150491000Y-79700000D01*
X150577104Y-79717127D01*
G37*
G36*
X152101104Y-79717127D02*
G01*
X152174099Y-79765901D01*
X152222873Y-79838896D01*
X152240000Y-79925000D01*
X152240000Y-80375000D01*
X152222873Y-80461104D01*
X152174099Y-80534099D01*
X152101104Y-80582873D01*
X152015000Y-80600000D01*
X151515000Y-80600000D01*
X151428896Y-80582873D01*
X151355901Y-80534099D01*
X151307127Y-80461104D01*
X151290000Y-80375000D01*
X151290000Y-79925000D01*
X151307127Y-79838896D01*
X151355901Y-79765901D01*
X151428896Y-79717127D01*
X151515000Y-79700000D01*
X152015000Y-79700000D01*
X152101104Y-79717127D01*
G37*
G36*
X143465104Y-79564127D02*
G01*
X143538099Y-79612901D01*
X143586873Y-79685896D01*
X143604000Y-79772000D01*
X143604000Y-80222000D01*
X143586873Y-80308104D01*
X143538099Y-80381099D01*
X143465104Y-80429873D01*
X143379000Y-80447000D01*
X142879000Y-80447000D01*
X142792896Y-80429873D01*
X142719901Y-80381099D01*
X142671127Y-80308104D01*
X142654000Y-80222000D01*
X142654000Y-79772000D01*
X142671127Y-79685896D01*
X142719901Y-79612901D01*
X142792896Y-79564127D01*
X142879000Y-79547000D01*
X143379000Y-79547000D01*
X143465104Y-79564127D01*
G37*
G36*
X144989104Y-79564127D02*
G01*
X145062099Y-79612901D01*
X145110873Y-79685896D01*
X145128000Y-79772000D01*
X145128000Y-80222000D01*
X145110873Y-80308104D01*
X145062099Y-80381099D01*
X144989104Y-80429873D01*
X144903000Y-80447000D01*
X144403000Y-80447000D01*
X144316896Y-80429873D01*
X144243901Y-80381099D01*
X144195127Y-80308104D01*
X144178000Y-80222000D01*
X144178000Y-79772000D01*
X144195127Y-79685896D01*
X144243901Y-79612901D01*
X144316896Y-79564127D01*
X144403000Y-79547000D01*
X144903000Y-79547000D01*
X144989104Y-79564127D01*
G37*
G36*
X146513104Y-79564127D02*
G01*
X146586099Y-79612901D01*
X146634873Y-79685896D01*
X146652000Y-79772000D01*
X146652000Y-80222000D01*
X146634873Y-80308104D01*
X146586099Y-80381099D01*
X146513104Y-80429873D01*
X146427000Y-80447000D01*
X145927000Y-80447000D01*
X145840896Y-80429873D01*
X145767901Y-80381099D01*
X145719127Y-80308104D01*
X145702000Y-80222000D01*
X145702000Y-79772000D01*
X145719127Y-79685896D01*
X145767901Y-79612901D01*
X145840896Y-79564127D01*
X145927000Y-79547000D01*
X146427000Y-79547000D01*
X146513104Y-79564127D01*
G37*
G36*
X153677304Y-78030127D02*
G01*
X153750299Y-78078901D01*
X153799073Y-78151896D01*
X153816200Y-78238000D01*
X153816200Y-78988000D01*
X153799073Y-79074104D01*
X153750299Y-79147099D01*
X153677304Y-79195873D01*
X153591200Y-79213000D01*
X153141200Y-79213000D01*
X153055096Y-79195873D01*
X152982101Y-79147099D01*
X152933327Y-79074104D01*
X152916200Y-78988000D01*
X152916200Y-78238000D01*
X152933327Y-78151896D01*
X152982101Y-78078901D01*
X153055096Y-78030127D01*
X153141200Y-78013000D01*
X153591200Y-78013000D01*
X153677304Y-78030127D01*
G37*
G36*
X156977304Y-78030127D02*
G01*
X157050299Y-78078901D01*
X157099073Y-78151896D01*
X157116200Y-78238000D01*
X157116200Y-78988000D01*
X157099073Y-79074104D01*
X157050299Y-79147099D01*
X156977304Y-79195873D01*
X156891200Y-79213000D01*
X156441200Y-79213000D01*
X156355096Y-79195873D01*
X156282101Y-79147099D01*
X156233327Y-79074104D01*
X156216200Y-78988000D01*
X156216200Y-78238000D01*
X156233327Y-78151896D01*
X156282101Y-78078901D01*
X156355096Y-78030127D01*
X156441200Y-78013000D01*
X156891200Y-78013000D01*
X156977304Y-78030127D01*
G37*
G36*
X150577104Y-78167127D02*
G01*
X150650099Y-78215901D01*
X150698873Y-78288896D01*
X150716000Y-78375000D01*
X150716000Y-78825000D01*
X150698873Y-78911104D01*
X150650099Y-78984099D01*
X150577104Y-79032873D01*
X150491000Y-79050000D01*
X149991000Y-79050000D01*
X149904896Y-79032873D01*
X149831901Y-78984099D01*
X149783127Y-78911104D01*
X149766000Y-78825000D01*
X149766000Y-78375000D01*
X149783127Y-78288896D01*
X149831901Y-78215901D01*
X149904896Y-78167127D01*
X149991000Y-78150000D01*
X150491000Y-78150000D01*
X150577104Y-78167127D01*
G37*
G36*
X152101104Y-78167127D02*
G01*
X152174099Y-78215901D01*
X152222873Y-78288896D01*
X152240000Y-78375000D01*
X152240000Y-78825000D01*
X152222873Y-78911104D01*
X152174099Y-78984099D01*
X152101104Y-79032873D01*
X152015000Y-79050000D01*
X151515000Y-79050000D01*
X151428896Y-79032873D01*
X151355901Y-78984099D01*
X151307127Y-78911104D01*
X151290000Y-78825000D01*
X151290000Y-78375000D01*
X151307127Y-78288896D01*
X151355901Y-78215901D01*
X151428896Y-78167127D01*
X151515000Y-78150000D01*
X152015000Y-78150000D01*
X152101104Y-78167127D01*
G37*
G36*
X140188501Y-76876090D02*
G01*
X140194522Y-76879033D01*
X140197188Y-76879456D01*
X140239819Y-76901177D01*
X140299404Y-76930307D01*
X140386693Y-77017596D01*
X140415840Y-77077219D01*
X140437543Y-77119812D01*
X140437964Y-77122474D01*
X140440910Y-77128499D01*
X140456500Y-77235500D01*
X140456500Y-78485500D01*
X140440910Y-78592501D01*
X140437964Y-78598525D01*
X140437543Y-78601188D01*
X140415845Y-78643770D01*
X140386693Y-78703404D01*
X140299404Y-78790693D01*
X140239756Y-78819852D01*
X140197187Y-78841543D01*
X140194526Y-78841964D01*
X140188501Y-78844910D01*
X140081500Y-78860500D01*
X139331500Y-78860500D01*
X139224499Y-78844910D01*
X139218474Y-78841964D01*
X139215811Y-78841543D01*
X139173204Y-78819833D01*
X139113596Y-78790693D01*
X139026307Y-78703404D01*
X138997170Y-78643804D01*
X138975456Y-78601187D01*
X138975034Y-78598523D01*
X138972090Y-78592501D01*
X138956500Y-78485500D01*
X138956500Y-77235500D01*
X138972090Y-77128499D01*
X138975033Y-77122477D01*
X138975456Y-77119811D01*
X138997189Y-77077156D01*
X139026307Y-77017596D01*
X139113596Y-76930307D01*
X139173170Y-76901182D01*
X139215812Y-76879456D01*
X139218477Y-76879033D01*
X139224499Y-76876090D01*
X139331500Y-76860500D01*
X140081500Y-76860500D01*
X140188501Y-76876090D01*
G37*
G36*
X142188501Y-76876090D02*
G01*
X142194522Y-76879033D01*
X142197188Y-76879456D01*
X142239819Y-76901177D01*
X142299404Y-76930307D01*
X142386693Y-77017596D01*
X142415840Y-77077219D01*
X142437543Y-77119812D01*
X142437964Y-77122474D01*
X142440910Y-77128499D01*
X142456500Y-77235500D01*
X142456500Y-78485500D01*
X142440910Y-78592501D01*
X142437964Y-78598525D01*
X142437543Y-78601188D01*
X142415845Y-78643770D01*
X142386693Y-78703404D01*
X142299404Y-78790693D01*
X142239756Y-78819852D01*
X142197187Y-78841543D01*
X142194526Y-78841964D01*
X142188501Y-78844910D01*
X142081500Y-78860500D01*
X141331500Y-78860500D01*
X141224499Y-78844910D01*
X141218474Y-78841964D01*
X141215811Y-78841543D01*
X141173204Y-78819833D01*
X141113596Y-78790693D01*
X141026307Y-78703404D01*
X140997170Y-78643804D01*
X140975456Y-78601187D01*
X140975034Y-78598523D01*
X140972090Y-78592501D01*
X140956500Y-78485500D01*
X140956500Y-77235500D01*
X140972090Y-77128499D01*
X140975033Y-77122477D01*
X140975456Y-77119811D01*
X140997189Y-77077156D01*
X141026307Y-77017596D01*
X141113596Y-76930307D01*
X141173170Y-76901182D01*
X141215812Y-76879456D01*
X141218477Y-76879033D01*
X141224499Y-76876090D01*
X141331500Y-76860500D01*
X142081500Y-76860500D01*
X142188501Y-76876090D01*
G37*
G36*
X144252501Y-76876090D02*
G01*
X144258522Y-76879033D01*
X144261188Y-76879456D01*
X144303819Y-76901177D01*
X144363404Y-76930307D01*
X144450693Y-77017596D01*
X144479840Y-77077219D01*
X144501543Y-77119812D01*
X144501964Y-77122474D01*
X144504910Y-77128499D01*
X144520500Y-77235500D01*
X144520500Y-78485500D01*
X144504910Y-78592501D01*
X144501964Y-78598525D01*
X144501543Y-78601188D01*
X144479845Y-78643770D01*
X144450693Y-78703404D01*
X144363404Y-78790693D01*
X144303756Y-78819852D01*
X144261187Y-78841543D01*
X144258526Y-78841964D01*
X144252501Y-78844910D01*
X144145500Y-78860500D01*
X143395500Y-78860500D01*
X143288499Y-78844910D01*
X143282474Y-78841964D01*
X143279811Y-78841543D01*
X143237204Y-78819833D01*
X143177596Y-78790693D01*
X143090307Y-78703404D01*
X143061170Y-78643804D01*
X143039456Y-78601187D01*
X143039034Y-78598523D01*
X143036090Y-78592501D01*
X143020500Y-78485500D01*
X143020500Y-77235500D01*
X143036090Y-77128499D01*
X143039033Y-77122477D01*
X143039456Y-77119811D01*
X143061189Y-77077156D01*
X143090307Y-77017596D01*
X143177596Y-76930307D01*
X143237170Y-76901182D01*
X143279812Y-76879456D01*
X143282477Y-76879033D01*
X143288499Y-76876090D01*
X143395500Y-76860500D01*
X144145500Y-76860500D01*
X144252501Y-76876090D01*
G37*
G36*
X146252501Y-76876090D02*
G01*
X146258522Y-76879033D01*
X146261188Y-76879456D01*
X146303819Y-76901177D01*
X146363404Y-76930307D01*
X146450693Y-77017596D01*
X146479840Y-77077219D01*
X146501543Y-77119812D01*
X146501964Y-77122474D01*
X146504910Y-77128499D01*
X146520500Y-77235500D01*
X146520500Y-78485500D01*
X146504910Y-78592501D01*
X146501964Y-78598525D01*
X146501543Y-78601188D01*
X146479845Y-78643770D01*
X146450693Y-78703404D01*
X146363404Y-78790693D01*
X146303756Y-78819852D01*
X146261187Y-78841543D01*
X146258526Y-78841964D01*
X146252501Y-78844910D01*
X146145500Y-78860500D01*
X145395500Y-78860500D01*
X145288499Y-78844910D01*
X145282474Y-78841964D01*
X145279811Y-78841543D01*
X145237204Y-78819833D01*
X145177596Y-78790693D01*
X145090307Y-78703404D01*
X145061170Y-78643804D01*
X145039456Y-78601187D01*
X145039034Y-78598523D01*
X145036090Y-78592501D01*
X145020500Y-78485500D01*
X145020500Y-77235500D01*
X145036090Y-77128499D01*
X145039033Y-77122477D01*
X145039456Y-77119811D01*
X145061189Y-77077156D01*
X145090307Y-77017596D01*
X145177596Y-76930307D01*
X145237170Y-76901182D01*
X145279812Y-76879456D01*
X145282477Y-76879033D01*
X145288499Y-76876090D01*
X145395500Y-76860500D01*
X146145500Y-76860500D01*
X146252501Y-76876090D01*
G37*
G36*
X139387090Y-74457215D02*
G01*
X139574683Y-74514120D01*
X139747570Y-74606530D01*
X139899107Y-74730893D01*
X140023470Y-74882430D01*
X140115880Y-75055317D01*
X140172785Y-75242910D01*
X140192000Y-75438000D01*
X140172785Y-75633090D01*
X140115880Y-75820683D01*
X140023470Y-75993570D01*
X139899107Y-76145107D01*
X139747570Y-76269470D01*
X139574683Y-76361880D01*
X139387090Y-76418785D01*
X139192000Y-76438000D01*
X138996910Y-76418785D01*
X138809317Y-76361880D01*
X138636430Y-76269470D01*
X138484893Y-76145107D01*
X138360530Y-75993570D01*
X138268120Y-75820683D01*
X138211215Y-75633090D01*
X138192000Y-75438000D01*
X138211215Y-75242910D01*
X138268120Y-75055317D01*
X138360530Y-74882430D01*
X138484893Y-74730893D01*
X138636430Y-74606530D01*
X138809317Y-74514120D01*
X138996910Y-74457215D01*
X139192000Y-74438000D01*
X139387090Y-74457215D01*
G37*
G36*
X141927090Y-74457215D02*
G01*
X142114683Y-74514120D01*
X142287570Y-74606530D01*
X142439107Y-74730893D01*
X142563470Y-74882430D01*
X142655880Y-75055317D01*
X142712785Y-75242910D01*
X142732000Y-75438000D01*
X142712785Y-75633090D01*
X142655880Y-75820683D01*
X142563470Y-75993570D01*
X142439107Y-76145107D01*
X142287570Y-76269470D01*
X142114683Y-76361880D01*
X141927090Y-76418785D01*
X141732000Y-76438000D01*
X141536910Y-76418785D01*
X141349317Y-76361880D01*
X141176430Y-76269470D01*
X141024893Y-76145107D01*
X140900530Y-75993570D01*
X140808120Y-75820683D01*
X140751215Y-75633090D01*
X140732000Y-75438000D01*
X140751215Y-75242910D01*
X140808120Y-75055317D01*
X140900530Y-74882430D01*
X141024893Y-74730893D01*
X141176430Y-74606530D01*
X141349317Y-74514120D01*
X141536910Y-74457215D01*
X141732000Y-74438000D01*
X141927090Y-74457215D01*
G37*
G36*
X144467090Y-74457215D02*
G01*
X144654683Y-74514120D01*
X144827570Y-74606530D01*
X144979107Y-74730893D01*
X145103470Y-74882430D01*
X145195880Y-75055317D01*
X145252785Y-75242910D01*
X145272000Y-75438000D01*
X145252785Y-75633090D01*
X145195880Y-75820683D01*
X145103470Y-75993570D01*
X144979107Y-76145107D01*
X144827570Y-76269470D01*
X144654683Y-76361880D01*
X144467090Y-76418785D01*
X144272000Y-76438000D01*
X144076910Y-76418785D01*
X143889317Y-76361880D01*
X143716430Y-76269470D01*
X143564893Y-76145107D01*
X143440530Y-75993570D01*
X143348120Y-75820683D01*
X143291215Y-75633090D01*
X143272000Y-75438000D01*
X143291215Y-75242910D01*
X143348120Y-75055317D01*
X143440530Y-74882430D01*
X143564893Y-74730893D01*
X143716430Y-74606530D01*
X143889317Y-74514120D01*
X144076910Y-74457215D01*
X144272000Y-74438000D01*
X144467090Y-74457215D01*
G37*
G36*
X147007090Y-74457215D02*
G01*
X147194683Y-74514120D01*
X147367570Y-74606530D01*
X147519107Y-74730893D01*
X147643470Y-74882430D01*
X147735880Y-75055317D01*
X147792785Y-75242910D01*
X147812000Y-75438000D01*
X147792785Y-75633090D01*
X147735880Y-75820683D01*
X147643470Y-75993570D01*
X147519107Y-76145107D01*
X147367570Y-76269470D01*
X147194683Y-76361880D01*
X147007090Y-76418785D01*
X146812000Y-76438000D01*
X146616910Y-76418785D01*
X146429317Y-76361880D01*
X146256430Y-76269470D01*
X146104893Y-76145107D01*
X145980530Y-75993570D01*
X145888120Y-75820683D01*
X145831215Y-75633090D01*
X145812000Y-75438000D01*
X145831215Y-75242910D01*
X145888120Y-75055317D01*
X145980530Y-74882430D01*
X146104893Y-74730893D01*
X146256430Y-74606530D01*
X146429317Y-74514120D01*
X146616910Y-74457215D01*
X146812000Y-74438000D01*
X147007090Y-74457215D01*
G37*
G36*
X150154428Y-73312412D02*
G01*
X150267623Y-73359299D01*
X150369496Y-73427368D01*
X150456132Y-73514004D01*
X150524201Y-73615877D01*
X150571088Y-73729072D01*
X150594990Y-73849239D01*
X150598000Y-75160500D01*
X150594990Y-75221761D01*
X150571088Y-75341928D01*
X150524201Y-75455123D01*
X150456132Y-75556996D01*
X150369496Y-75643632D01*
X150267623Y-75711701D01*
X150154428Y-75758588D01*
X150034261Y-75782490D01*
X149911739Y-75782490D01*
X149791572Y-75758588D01*
X149678377Y-75711701D01*
X149576504Y-75643632D01*
X149489868Y-75556996D01*
X149421799Y-75455123D01*
X149374912Y-75341928D01*
X149351010Y-75221761D01*
X149348000Y-73910500D01*
X149351010Y-73849239D01*
X149374912Y-73729072D01*
X149421799Y-73615877D01*
X149489868Y-73514004D01*
X149576504Y-73427368D01*
X149678377Y-73359299D01*
X149791572Y-73312412D01*
X149911739Y-73288510D01*
X150034261Y-73288510D01*
X150154428Y-73312412D01*
G37*
G36*
X158794428Y-73312412D02*
G01*
X158907623Y-73359299D01*
X159009496Y-73427368D01*
X159096132Y-73514004D01*
X159164201Y-73615877D01*
X159211088Y-73729072D01*
X159234990Y-73849239D01*
X159238000Y-75160500D01*
X159234990Y-75221761D01*
X159211088Y-75341928D01*
X159164201Y-75455123D01*
X159096132Y-75556996D01*
X159009496Y-75643632D01*
X158907623Y-75711701D01*
X158794428Y-75758588D01*
X158674261Y-75782490D01*
X158551739Y-75782490D01*
X158431572Y-75758588D01*
X158318377Y-75711701D01*
X158216504Y-75643632D01*
X158129868Y-75556996D01*
X158061799Y-75455123D01*
X158014912Y-75341928D01*
X157991010Y-75221761D01*
X157988000Y-73910500D01*
X157991010Y-73849239D01*
X158014912Y-73729072D01*
X158061799Y-73615877D01*
X158129868Y-73514004D01*
X158216504Y-73427368D01*
X158318377Y-73359299D01*
X158431572Y-73312412D01*
X158551739Y-73288510D01*
X158674261Y-73288510D01*
X158794428Y-73312412D01*
G37*
G36*
X151430174Y-73715437D02*
G01*
X151459436Y-73715437D01*
X151481978Y-73723641D01*
X151503237Y-73727009D01*
X151533265Y-73742309D01*
X151565500Y-73754042D01*
X151579735Y-73765987D01*
X151593658Y-73773081D01*
X151622175Y-73801598D01*
X151651964Y-73826594D01*
X151658511Y-73837934D01*
X151665418Y-73844841D01*
X151687345Y-73887875D01*
X151708400Y-73924343D01*
X151709708Y-73931766D01*
X151711490Y-73935262D01*
X151721770Y-74000168D01*
X151728000Y-74035500D01*
X151721769Y-74070835D01*
X151711490Y-74135737D01*
X151709709Y-74139231D01*
X151708400Y-74146657D01*
X151687340Y-74183131D01*
X151665418Y-74226158D01*
X151658512Y-74233063D01*
X151651964Y-74244406D01*
X151622168Y-74269407D01*
X151593658Y-74297918D01*
X151579738Y-74305010D01*
X151565500Y-74316958D01*
X151533258Y-74328693D01*
X151503237Y-74343990D01*
X151481983Y-74347356D01*
X151459436Y-74355563D01*
X151430168Y-74355563D01*
X151403000Y-74359866D01*
X151375832Y-74355563D01*
X151346564Y-74355563D01*
X151324017Y-74347356D01*
X151302762Y-74343990D01*
X151272737Y-74328691D01*
X151240500Y-74316958D01*
X151226262Y-74305011D01*
X151212341Y-74297918D01*
X151183824Y-74269401D01*
X151154036Y-74244406D01*
X151147488Y-74233065D01*
X151140581Y-74226158D01*
X151118650Y-74183117D01*
X151097600Y-74146657D01*
X151096291Y-74139234D01*
X151094509Y-74135737D01*
X151084220Y-74070779D01*
X151078000Y-74035500D01*
X151084220Y-74000223D01*
X151094509Y-73935262D01*
X151096291Y-73931763D01*
X151097600Y-73924343D01*
X151118646Y-73887890D01*
X151140581Y-73844841D01*
X151147489Y-73837932D01*
X151154036Y-73826594D01*
X151183818Y-73801603D01*
X151212341Y-73773081D01*
X151226265Y-73765985D01*
X151240500Y-73754042D01*
X151272731Y-73742310D01*
X151302762Y-73727009D01*
X151324022Y-73723641D01*
X151346564Y-73715437D01*
X151375825Y-73715437D01*
X151403000Y-73711133D01*
X151430174Y-73715437D01*
G37*
G36*
X157210174Y-73715437D02*
G01*
X157239436Y-73715437D01*
X157261978Y-73723641D01*
X157283237Y-73727009D01*
X157313265Y-73742309D01*
X157345500Y-73754042D01*
X157359735Y-73765987D01*
X157373658Y-73773081D01*
X157402175Y-73801598D01*
X157431964Y-73826594D01*
X157438511Y-73837934D01*
X157445418Y-73844841D01*
X157467345Y-73887875D01*
X157488400Y-73924343D01*
X157489708Y-73931766D01*
X157491490Y-73935262D01*
X157501770Y-74000168D01*
X157508000Y-74035500D01*
X157501769Y-74070835D01*
X157491490Y-74135737D01*
X157489709Y-74139231D01*
X157488400Y-74146657D01*
X157467340Y-74183131D01*
X157445418Y-74226158D01*
X157438512Y-74233063D01*
X157431964Y-74244406D01*
X157402168Y-74269407D01*
X157373658Y-74297918D01*
X157359738Y-74305010D01*
X157345500Y-74316958D01*
X157313258Y-74328693D01*
X157283237Y-74343990D01*
X157261983Y-74347356D01*
X157239436Y-74355563D01*
X157210168Y-74355563D01*
X157183000Y-74359866D01*
X157155832Y-74355563D01*
X157126564Y-74355563D01*
X157104017Y-74347356D01*
X157082762Y-74343990D01*
X157052737Y-74328691D01*
X157020500Y-74316958D01*
X157006262Y-74305011D01*
X156992341Y-74297918D01*
X156963824Y-74269401D01*
X156934036Y-74244406D01*
X156927488Y-74233065D01*
X156920581Y-74226158D01*
X156898650Y-74183117D01*
X156877600Y-74146657D01*
X156876291Y-74139234D01*
X156874509Y-74135737D01*
X156864220Y-74070779D01*
X156858000Y-74035500D01*
X156864220Y-74000223D01*
X156874509Y-73935262D01*
X156876291Y-73931763D01*
X156877600Y-73924343D01*
X156898646Y-73887890D01*
X156920581Y-73844841D01*
X156927489Y-73837932D01*
X156934036Y-73826594D01*
X156963818Y-73801603D01*
X156992341Y-73773081D01*
X157006265Y-73765985D01*
X157020500Y-73754042D01*
X157052731Y-73742310D01*
X157082762Y-73727009D01*
X157104022Y-73723641D01*
X157126564Y-73715437D01*
X157155825Y-73715437D01*
X157183000Y-73711133D01*
X157210174Y-73715437D01*
G37*
G36*
X139387090Y-71917215D02*
G01*
X139574683Y-71974120D01*
X139747570Y-72066530D01*
X139899107Y-72190893D01*
X140023470Y-72342430D01*
X140115880Y-72515317D01*
X140172785Y-72702910D01*
X140192000Y-72898000D01*
X140172785Y-73093090D01*
X140115880Y-73280683D01*
X140023470Y-73453570D01*
X139899107Y-73605107D01*
X139747570Y-73729470D01*
X139574683Y-73821880D01*
X139387090Y-73878785D01*
X139192000Y-73898000D01*
X138996910Y-73878785D01*
X138809317Y-73821880D01*
X138636430Y-73729470D01*
X138484893Y-73605107D01*
X138360530Y-73453570D01*
X138268120Y-73280683D01*
X138211215Y-73093090D01*
X138192000Y-72898000D01*
X138211215Y-72702910D01*
X138268120Y-72515317D01*
X138360530Y-72342430D01*
X138484893Y-72190893D01*
X138636430Y-72066530D01*
X138809317Y-71974120D01*
X138996910Y-71917215D01*
X139192000Y-71898000D01*
X139387090Y-71917215D01*
G37*
G36*
X141927090Y-71917215D02*
G01*
X142114683Y-71974120D01*
X142287570Y-72066530D01*
X142439107Y-72190893D01*
X142563470Y-72342430D01*
X142655880Y-72515317D01*
X142712785Y-72702910D01*
X142732000Y-72898000D01*
X142712785Y-73093090D01*
X142655880Y-73280683D01*
X142563470Y-73453570D01*
X142439107Y-73605107D01*
X142287570Y-73729470D01*
X142114683Y-73821880D01*
X141927090Y-73878785D01*
X141732000Y-73898000D01*
X141536910Y-73878785D01*
X141349317Y-73821880D01*
X141176430Y-73729470D01*
X141024893Y-73605107D01*
X140900530Y-73453570D01*
X140808120Y-73280683D01*
X140751215Y-73093090D01*
X140732000Y-72898000D01*
X140751215Y-72702910D01*
X140808120Y-72515317D01*
X140900530Y-72342430D01*
X141024893Y-72190893D01*
X141176430Y-72066530D01*
X141349317Y-71974120D01*
X141536910Y-71917215D01*
X141732000Y-71898000D01*
X141927090Y-71917215D01*
G37*
G36*
X144467090Y-71917215D02*
G01*
X144654683Y-71974120D01*
X144827570Y-72066530D01*
X144979107Y-72190893D01*
X145103470Y-72342430D01*
X145195880Y-72515317D01*
X145252785Y-72702910D01*
X145272000Y-72898000D01*
X145252785Y-73093090D01*
X145195880Y-73280683D01*
X145103470Y-73453570D01*
X144979107Y-73605107D01*
X144827570Y-73729470D01*
X144654683Y-73821880D01*
X144467090Y-73878785D01*
X144272000Y-73898000D01*
X144076910Y-73878785D01*
X143889317Y-73821880D01*
X143716430Y-73729470D01*
X143564893Y-73605107D01*
X143440530Y-73453570D01*
X143348120Y-73280683D01*
X143291215Y-73093090D01*
X143272000Y-72898000D01*
X143291215Y-72702910D01*
X143348120Y-72515317D01*
X143440530Y-72342430D01*
X143564893Y-72190893D01*
X143716430Y-72066530D01*
X143889317Y-71974120D01*
X144076910Y-71917215D01*
X144272000Y-71898000D01*
X144467090Y-71917215D01*
G37*
G36*
X147007090Y-71917215D02*
G01*
X147194683Y-71974120D01*
X147367570Y-72066530D01*
X147519107Y-72190893D01*
X147643470Y-72342430D01*
X147735880Y-72515317D01*
X147792785Y-72702910D01*
X147812000Y-72898000D01*
X147792785Y-73093090D01*
X147735880Y-73280683D01*
X147643470Y-73453570D01*
X147519107Y-73605107D01*
X147367570Y-73729470D01*
X147194683Y-73821880D01*
X147007090Y-73878785D01*
X146812000Y-73898000D01*
X146616910Y-73878785D01*
X146429317Y-73821880D01*
X146256430Y-73729470D01*
X146104893Y-73605107D01*
X145980530Y-73453570D01*
X145888120Y-73280683D01*
X145831215Y-73093090D01*
X145812000Y-72898000D01*
X145831215Y-72702910D01*
X145888120Y-72515317D01*
X145980530Y-72342430D01*
X146104893Y-72190893D01*
X146256430Y-72066530D01*
X146429317Y-71974120D01*
X146616910Y-71917215D01*
X146812000Y-71898000D01*
X147007090Y-71917215D01*
G37*
G36*
X152903937Y-72093624D02*
G01*
X152968821Y-72136979D01*
X153012176Y-72201863D01*
X153027400Y-72278400D01*
X153027400Y-72678400D01*
X153012176Y-72754937D01*
X152968821Y-72819821D01*
X152903937Y-72863176D01*
X152827400Y-72878400D01*
X152277400Y-72878400D01*
X152200863Y-72863176D01*
X152135979Y-72819821D01*
X152092624Y-72754937D01*
X152077400Y-72678400D01*
X152077400Y-72278400D01*
X152092624Y-72201863D01*
X152135979Y-72136979D01*
X152200863Y-72093624D01*
X152277400Y-72078400D01*
X152827400Y-72078400D01*
X152903937Y-72093624D01*
G37*
G36*
X155901137Y-72093624D02*
G01*
X155966021Y-72136979D01*
X156009376Y-72201863D01*
X156024600Y-72278400D01*
X156024600Y-72678400D01*
X156009376Y-72754937D01*
X155966021Y-72819821D01*
X155901137Y-72863176D01*
X155824600Y-72878400D01*
X155274600Y-72878400D01*
X155198063Y-72863176D01*
X155133179Y-72819821D01*
X155089824Y-72754937D01*
X155074600Y-72678400D01*
X155074600Y-72278400D01*
X155089824Y-72201863D01*
X155133179Y-72136979D01*
X155198063Y-72093624D01*
X155274600Y-72078400D01*
X155824600Y-72078400D01*
X155901137Y-72093624D01*
G37*
G36*
X150154428Y-69132412D02*
G01*
X150267623Y-69179299D01*
X150369496Y-69247368D01*
X150456132Y-69334004D01*
X150524201Y-69435877D01*
X150571088Y-69549072D01*
X150594990Y-69669239D01*
X150598000Y-70980500D01*
X150594990Y-71041761D01*
X150571088Y-71161928D01*
X150524201Y-71275123D01*
X150456132Y-71376996D01*
X150369496Y-71463632D01*
X150267623Y-71531701D01*
X150154428Y-71578588D01*
X150034261Y-71602490D01*
X149911739Y-71602490D01*
X149791572Y-71578588D01*
X149678377Y-71531701D01*
X149576504Y-71463632D01*
X149489868Y-71376996D01*
X149421799Y-71275123D01*
X149374912Y-71161928D01*
X149351010Y-71041761D01*
X149348000Y-69730500D01*
X149351010Y-69669239D01*
X149374912Y-69549072D01*
X149421799Y-69435877D01*
X149489868Y-69334004D01*
X149576504Y-69247368D01*
X149678377Y-69179299D01*
X149791572Y-69132412D01*
X149911739Y-69108510D01*
X150034261Y-69108510D01*
X150154428Y-69132412D01*
G37*
G36*
X158794428Y-69132412D02*
G01*
X158907623Y-69179299D01*
X159009496Y-69247368D01*
X159096132Y-69334004D01*
X159164201Y-69435877D01*
X159211088Y-69549072D01*
X159234990Y-69669239D01*
X159238000Y-70980500D01*
X159234990Y-71041761D01*
X159211088Y-71161928D01*
X159164201Y-71275123D01*
X159096132Y-71376996D01*
X159009496Y-71463632D01*
X158907623Y-71531701D01*
X158794428Y-71578588D01*
X158674261Y-71602490D01*
X158551739Y-71602490D01*
X158431572Y-71578588D01*
X158318377Y-71531701D01*
X158216504Y-71463632D01*
X158129868Y-71376996D01*
X158061799Y-71275123D01*
X158014912Y-71161928D01*
X157991010Y-71041761D01*
X157988000Y-69730500D01*
X157991010Y-69669239D01*
X158014912Y-69549072D01*
X158061799Y-69435877D01*
X158129868Y-69334004D01*
X158216504Y-69247368D01*
X158318377Y-69179299D01*
X158431572Y-69132412D01*
X158551739Y-69108510D01*
X158674261Y-69108510D01*
X158794428Y-69132412D01*
G37*
G36*
X139387090Y-69377215D02*
G01*
X139574683Y-69434120D01*
X139747570Y-69526530D01*
X139899107Y-69650893D01*
X140023470Y-69802430D01*
X140115880Y-69975317D01*
X140172785Y-70162910D01*
X140192000Y-70358000D01*
X140172785Y-70553090D01*
X140115880Y-70740683D01*
X140023470Y-70913570D01*
X139899107Y-71065107D01*
X139747570Y-71189470D01*
X139574683Y-71281880D01*
X139387090Y-71338785D01*
X139192000Y-71358000D01*
X138996910Y-71338785D01*
X138809317Y-71281880D01*
X138636430Y-71189470D01*
X138484893Y-71065107D01*
X138360530Y-70913570D01*
X138268120Y-70740683D01*
X138211215Y-70553090D01*
X138192000Y-70358000D01*
X138211215Y-70162910D01*
X138268120Y-69975317D01*
X138360530Y-69802430D01*
X138484893Y-69650893D01*
X138636430Y-69526530D01*
X138809317Y-69434120D01*
X138996910Y-69377215D01*
X139192000Y-69358000D01*
X139387090Y-69377215D01*
G37*
G36*
X141927090Y-69377215D02*
G01*
X142114683Y-69434120D01*
X142287570Y-69526530D01*
X142439107Y-69650893D01*
X142563470Y-69802430D01*
X142655880Y-69975317D01*
X142712785Y-70162910D01*
X142732000Y-70358000D01*
X142712785Y-70553090D01*
X142655880Y-70740683D01*
X142563470Y-70913570D01*
X142439107Y-71065107D01*
X142287570Y-71189470D01*
X142114683Y-71281880D01*
X141927090Y-71338785D01*
X141732000Y-71358000D01*
X141536910Y-71338785D01*
X141349317Y-71281880D01*
X141176430Y-71189470D01*
X141024893Y-71065107D01*
X140900530Y-70913570D01*
X140808120Y-70740683D01*
X140751215Y-70553090D01*
X140732000Y-70358000D01*
X140751215Y-70162910D01*
X140808120Y-69975317D01*
X140900530Y-69802430D01*
X141024893Y-69650893D01*
X141176430Y-69526530D01*
X141349317Y-69434120D01*
X141536910Y-69377215D01*
X141732000Y-69358000D01*
X141927090Y-69377215D01*
G37*
G36*
X144467090Y-69377215D02*
G01*
X144654683Y-69434120D01*
X144827570Y-69526530D01*
X144979107Y-69650893D01*
X145103470Y-69802430D01*
X145195880Y-69975317D01*
X145252785Y-70162910D01*
X145272000Y-70358000D01*
X145252785Y-70553090D01*
X145195880Y-70740683D01*
X145103470Y-70913570D01*
X144979107Y-71065107D01*
X144827570Y-71189470D01*
X144654683Y-71281880D01*
X144467090Y-71338785D01*
X144272000Y-71358000D01*
X144076910Y-71338785D01*
X143889317Y-71281880D01*
X143716430Y-71189470D01*
X143564893Y-71065107D01*
X143440530Y-70913570D01*
X143348120Y-70740683D01*
X143291215Y-70553090D01*
X143272000Y-70358000D01*
X143291215Y-70162910D01*
X143348120Y-69975317D01*
X143440530Y-69802430D01*
X143564893Y-69650893D01*
X143716430Y-69526530D01*
X143889317Y-69434120D01*
X144076910Y-69377215D01*
X144272000Y-69358000D01*
X144467090Y-69377215D01*
G37*
G36*
X147007090Y-69377215D02*
G01*
X147194683Y-69434120D01*
X147367570Y-69526530D01*
X147519107Y-69650893D01*
X147643470Y-69802430D01*
X147735880Y-69975317D01*
X147792785Y-70162910D01*
X147812000Y-70358000D01*
X147792785Y-70553090D01*
X147735880Y-70740683D01*
X147643470Y-70913570D01*
X147519107Y-71065107D01*
X147367570Y-71189470D01*
X147194683Y-71281880D01*
X147007090Y-71338785D01*
X146812000Y-71358000D01*
X146616910Y-71338785D01*
X146429317Y-71281880D01*
X146256430Y-71189470D01*
X146104893Y-71065107D01*
X145980530Y-70913570D01*
X145888120Y-70740683D01*
X145831215Y-70553090D01*
X145812000Y-70358000D01*
X145831215Y-70162910D01*
X145888120Y-69975317D01*
X145980530Y-69802430D01*
X146104893Y-69650893D01*
X146256430Y-69526530D01*
X146429317Y-69434120D01*
X146616910Y-69377215D01*
X146812000Y-69358000D01*
X147007090Y-69377215D01*
G37*
G36*
X152903937Y-70443624D02*
G01*
X152968821Y-70486979D01*
X153012176Y-70551863D01*
X153027400Y-70628400D01*
X153027400Y-71028400D01*
X153012176Y-71104937D01*
X152968821Y-71169821D01*
X152903937Y-71213176D01*
X152827400Y-71228400D01*
X152277400Y-71228400D01*
X152200863Y-71213176D01*
X152135979Y-71169821D01*
X152092624Y-71104937D01*
X152077400Y-71028400D01*
X152077400Y-70628400D01*
X152092624Y-70551863D01*
X152135979Y-70486979D01*
X152200863Y-70443624D01*
X152277400Y-70428400D01*
X152827400Y-70428400D01*
X152903937Y-70443624D01*
G37*
G36*
X155901137Y-70443624D02*
G01*
X155966021Y-70486979D01*
X156009376Y-70551863D01*
X156024600Y-70628400D01*
X156024600Y-71028400D01*
X156009376Y-71104937D01*
X155966021Y-71169821D01*
X155901137Y-71213176D01*
X155824600Y-71228400D01*
X155274600Y-71228400D01*
X155198063Y-71213176D01*
X155133179Y-71169821D01*
X155089824Y-71104937D01*
X155074600Y-71028400D01*
X155074600Y-70628400D01*
X155089824Y-70551863D01*
X155133179Y-70486979D01*
X155198063Y-70443624D01*
X155274600Y-70428400D01*
X155824600Y-70428400D01*
X155901137Y-70443624D01*
G37*
M02*
