%TF.GenerationSoftware,KiCad,Pcbnew,8.0.2*%
%TF.CreationDate,2024-07-01T07:37:42+02:00*%
%TF.ProjectId,ant control board v1.2,616e7420-636f-46e7-9472-6f6c20626f61,1.1*%
%TF.SameCoordinates,Original*%
%TF.FileFunction,Soldermask,Top*%
%TF.FilePolarity,Negative*%
%FSLAX46Y46*%
G04 Gerber Fmt 4.6, Leading zero omitted, Abs format (unit mm)*
G04 Created by KiCad (PCBNEW 8.0.2) date 2024-07-01 07:37:42*
%MOMM*%
%LPD*%
G01*
G04 APERTURE LIST*
G04 APERTURE END LIST*
G36*
X146173268Y-100327612D02*
G01*
X146205711Y-100349289D01*
X146227388Y-100381732D01*
X146235000Y-100420000D01*
X146235000Y-100870000D01*
X146227388Y-100908268D01*
X146205711Y-100940711D01*
X146173268Y-100962388D01*
X146135000Y-100970000D01*
X145935000Y-100970000D01*
X145896732Y-100962388D01*
X145864289Y-100940711D01*
X145842612Y-100908268D01*
X145835000Y-100870000D01*
X145835000Y-100420000D01*
X145842612Y-100381732D01*
X145864289Y-100349289D01*
X145896732Y-100327612D01*
X145935000Y-100320000D01*
X146135000Y-100320000D01*
X146173268Y-100327612D01*
G37*
G36*
X146823268Y-100327612D02*
G01*
X146855711Y-100349289D01*
X146877388Y-100381732D01*
X146885000Y-100420000D01*
X146885000Y-100870000D01*
X146877388Y-100908268D01*
X146855711Y-100940711D01*
X146823268Y-100962388D01*
X146785000Y-100970000D01*
X146585000Y-100970000D01*
X146546732Y-100962388D01*
X146514289Y-100940711D01*
X146492612Y-100908268D01*
X146485000Y-100870000D01*
X146485000Y-100420000D01*
X146492612Y-100381732D01*
X146514289Y-100349289D01*
X146546732Y-100327612D01*
X146585000Y-100320000D01*
X146785000Y-100320000D01*
X146823268Y-100327612D01*
G37*
G36*
X147473268Y-100327612D02*
G01*
X147505711Y-100349289D01*
X147527388Y-100381732D01*
X147535000Y-100420000D01*
X147535000Y-100870000D01*
X147527388Y-100908268D01*
X147505711Y-100940711D01*
X147473268Y-100962388D01*
X147435000Y-100970000D01*
X147235000Y-100970000D01*
X147196732Y-100962388D01*
X147164289Y-100940711D01*
X147142612Y-100908268D01*
X147135000Y-100870000D01*
X147135000Y-100420000D01*
X147142612Y-100381732D01*
X147164289Y-100349289D01*
X147196732Y-100327612D01*
X147235000Y-100320000D01*
X147435000Y-100320000D01*
X147473268Y-100327612D01*
G37*
G36*
X140077268Y-100200612D02*
G01*
X140109711Y-100222289D01*
X140131388Y-100254732D01*
X140139000Y-100293000D01*
X140139000Y-100743000D01*
X140131388Y-100781268D01*
X140109711Y-100813711D01*
X140077268Y-100835388D01*
X140039000Y-100843000D01*
X139839000Y-100843000D01*
X139800732Y-100835388D01*
X139768289Y-100813711D01*
X139746612Y-100781268D01*
X139739000Y-100743000D01*
X139739000Y-100293000D01*
X139746612Y-100254732D01*
X139768289Y-100222289D01*
X139800732Y-100200612D01*
X139839000Y-100193000D01*
X140039000Y-100193000D01*
X140077268Y-100200612D01*
G37*
G36*
X140727268Y-100200612D02*
G01*
X140759711Y-100222289D01*
X140781388Y-100254732D01*
X140789000Y-100293000D01*
X140789000Y-100743000D01*
X140781388Y-100781268D01*
X140759711Y-100813711D01*
X140727268Y-100835388D01*
X140689000Y-100843000D01*
X140489000Y-100843000D01*
X140450732Y-100835388D01*
X140418289Y-100813711D01*
X140396612Y-100781268D01*
X140389000Y-100743000D01*
X140389000Y-100293000D01*
X140396612Y-100254732D01*
X140418289Y-100222289D01*
X140450732Y-100200612D01*
X140489000Y-100193000D01*
X140689000Y-100193000D01*
X140727268Y-100200612D01*
G37*
G36*
X141377268Y-100200612D02*
G01*
X141409711Y-100222289D01*
X141431388Y-100254732D01*
X141439000Y-100293000D01*
X141439000Y-100743000D01*
X141431388Y-100781268D01*
X141409711Y-100813711D01*
X141377268Y-100835388D01*
X141339000Y-100843000D01*
X141139000Y-100843000D01*
X141100732Y-100835388D01*
X141068289Y-100813711D01*
X141046612Y-100781268D01*
X141039000Y-100743000D01*
X141039000Y-100293000D01*
X141046612Y-100254732D01*
X141068289Y-100222289D01*
X141100732Y-100200612D01*
X141139000Y-100193000D01*
X141339000Y-100193000D01*
X141377268Y-100200612D01*
G37*
G36*
X150548818Y-98454659D02*
G01*
X150621813Y-98503433D01*
X150625355Y-98506975D01*
X150971827Y-98853446D01*
X150971829Y-98853449D01*
X150975367Y-98856987D01*
X151024141Y-98929982D01*
X151041268Y-99016086D01*
X151024141Y-99102189D01*
X150975367Y-99175185D01*
X150657169Y-99493383D01*
X150584173Y-99542157D01*
X150498070Y-99559284D01*
X150411966Y-99542157D01*
X150338971Y-99493383D01*
X150335428Y-99489840D01*
X149988956Y-99143369D01*
X149988953Y-99143365D01*
X149985417Y-99139829D01*
X149936643Y-99066834D01*
X149919516Y-98980730D01*
X149936643Y-98894627D01*
X149985417Y-98821631D01*
X149988959Y-98818089D01*
X150300075Y-98506972D01*
X150300078Y-98506969D01*
X150303615Y-98503433D01*
X150376611Y-98454659D01*
X150462714Y-98437532D01*
X150548818Y-98454659D01*
G37*
G36*
X153767537Y-98408024D02*
G01*
X153832421Y-98451379D01*
X153875776Y-98516263D01*
X153891000Y-98592800D01*
X153891000Y-98992800D01*
X153875776Y-99069337D01*
X153832421Y-99134221D01*
X153767537Y-99177576D01*
X153691000Y-99192800D01*
X153141000Y-99192800D01*
X153064463Y-99177576D01*
X152999579Y-99134221D01*
X152956224Y-99069337D01*
X152941000Y-98992800D01*
X152941000Y-98592800D01*
X152956224Y-98516263D01*
X152999579Y-98451379D01*
X153064463Y-98408024D01*
X153141000Y-98392800D01*
X153691000Y-98392800D01*
X153767537Y-98408024D01*
G37*
G36*
X155291537Y-98408024D02*
G01*
X155356421Y-98451379D01*
X155399776Y-98516263D01*
X155415000Y-98592800D01*
X155415000Y-98992800D01*
X155399776Y-99069337D01*
X155356421Y-99134221D01*
X155291537Y-99177576D01*
X155215000Y-99192800D01*
X154665000Y-99192800D01*
X154588463Y-99177576D01*
X154523579Y-99134221D01*
X154480224Y-99069337D01*
X154465000Y-98992800D01*
X154465000Y-98592800D01*
X154480224Y-98516263D01*
X154523579Y-98451379D01*
X154588463Y-98408024D01*
X154665000Y-98392800D01*
X155215000Y-98392800D01*
X155291537Y-98408024D01*
G37*
G36*
X156800104Y-98309927D02*
G01*
X156873099Y-98358701D01*
X156921873Y-98431696D01*
X156939000Y-98517800D01*
X156939000Y-98967800D01*
X156921873Y-99053904D01*
X156873099Y-99126899D01*
X156800104Y-99175673D01*
X156714000Y-99192800D01*
X156214000Y-99192800D01*
X156127896Y-99175673D01*
X156054901Y-99126899D01*
X156006127Y-99053904D01*
X155989000Y-98967800D01*
X155989000Y-98517800D01*
X156006127Y-98431696D01*
X156054901Y-98358701D01*
X156127896Y-98309927D01*
X156214000Y-98292800D01*
X156714000Y-98292800D01*
X156800104Y-98309927D01*
G37*
G36*
X146173268Y-98427612D02*
G01*
X146205711Y-98449289D01*
X146227388Y-98481732D01*
X146235000Y-98520000D01*
X146235000Y-98970000D01*
X146227388Y-99008268D01*
X146205711Y-99040711D01*
X146173268Y-99062388D01*
X146135000Y-99070000D01*
X145935000Y-99070000D01*
X145896732Y-99062388D01*
X145864289Y-99040711D01*
X145842612Y-99008268D01*
X145835000Y-98970000D01*
X145835000Y-98520000D01*
X145842612Y-98481732D01*
X145864289Y-98449289D01*
X145896732Y-98427612D01*
X145935000Y-98420000D01*
X146135000Y-98420000D01*
X146173268Y-98427612D01*
G37*
G36*
X146823268Y-98427612D02*
G01*
X146855711Y-98449289D01*
X146877388Y-98481732D01*
X146885000Y-98520000D01*
X146885000Y-98970000D01*
X146877388Y-99008268D01*
X146855711Y-99040711D01*
X146823268Y-99062388D01*
X146785000Y-99070000D01*
X146585000Y-99070000D01*
X146546732Y-99062388D01*
X146514289Y-99040711D01*
X146492612Y-99008268D01*
X146485000Y-98970000D01*
X146485000Y-98520000D01*
X146492612Y-98481732D01*
X146514289Y-98449289D01*
X146546732Y-98427612D01*
X146585000Y-98420000D01*
X146785000Y-98420000D01*
X146823268Y-98427612D01*
G37*
G36*
X147473268Y-98427612D02*
G01*
X147505711Y-98449289D01*
X147527388Y-98481732D01*
X147535000Y-98520000D01*
X147535000Y-98970000D01*
X147527388Y-99008268D01*
X147505711Y-99040711D01*
X147473268Y-99062388D01*
X147435000Y-99070000D01*
X147235000Y-99070000D01*
X147196732Y-99062388D01*
X147164289Y-99040711D01*
X147142612Y-99008268D01*
X147135000Y-98970000D01*
X147135000Y-98520000D01*
X147142612Y-98481732D01*
X147164289Y-98449289D01*
X147196732Y-98427612D01*
X147235000Y-98420000D01*
X147435000Y-98420000D01*
X147473268Y-98427612D01*
G37*
G36*
X140077268Y-98300612D02*
G01*
X140109711Y-98322289D01*
X140131388Y-98354732D01*
X140139000Y-98393000D01*
X140139000Y-98843000D01*
X140131388Y-98881268D01*
X140109711Y-98913711D01*
X140077268Y-98935388D01*
X140039000Y-98943000D01*
X139839000Y-98943000D01*
X139800732Y-98935388D01*
X139768289Y-98913711D01*
X139746612Y-98881268D01*
X139739000Y-98843000D01*
X139739000Y-98393000D01*
X139746612Y-98354732D01*
X139768289Y-98322289D01*
X139800732Y-98300612D01*
X139839000Y-98293000D01*
X140039000Y-98293000D01*
X140077268Y-98300612D01*
G37*
G36*
X140727268Y-98300612D02*
G01*
X140759711Y-98322289D01*
X140781388Y-98354732D01*
X140789000Y-98393000D01*
X140789000Y-98843000D01*
X140781388Y-98881268D01*
X140759711Y-98913711D01*
X140727268Y-98935388D01*
X140689000Y-98943000D01*
X140489000Y-98943000D01*
X140450732Y-98935388D01*
X140418289Y-98913711D01*
X140396612Y-98881268D01*
X140389000Y-98843000D01*
X140389000Y-98393000D01*
X140396612Y-98354732D01*
X140418289Y-98322289D01*
X140450732Y-98300612D01*
X140489000Y-98293000D01*
X140689000Y-98293000D01*
X140727268Y-98300612D01*
G37*
G36*
X141377268Y-98300612D02*
G01*
X141409711Y-98322289D01*
X141431388Y-98354732D01*
X141439000Y-98393000D01*
X141439000Y-98843000D01*
X141431388Y-98881268D01*
X141409711Y-98913711D01*
X141377268Y-98935388D01*
X141339000Y-98943000D01*
X141139000Y-98943000D01*
X141100732Y-98935388D01*
X141068289Y-98913711D01*
X141046612Y-98881268D01*
X141039000Y-98843000D01*
X141039000Y-98393000D01*
X141046612Y-98354732D01*
X141068289Y-98322289D01*
X141100732Y-98300612D01*
X141139000Y-98293000D01*
X141339000Y-98293000D01*
X141377268Y-98300612D01*
G37*
G36*
X149482018Y-97387859D02*
G01*
X149555013Y-97436633D01*
X149558555Y-97440175D01*
X149905027Y-97786646D01*
X149905029Y-97786649D01*
X149908567Y-97790187D01*
X149957341Y-97863182D01*
X149974468Y-97949286D01*
X149957341Y-98035389D01*
X149908567Y-98108385D01*
X149590369Y-98426583D01*
X149517373Y-98475357D01*
X149431270Y-98492484D01*
X149345166Y-98475357D01*
X149272171Y-98426583D01*
X149138388Y-98292800D01*
X148922156Y-98076569D01*
X148922153Y-98076565D01*
X148918617Y-98073029D01*
X148869843Y-98000034D01*
X148852716Y-97913930D01*
X148869843Y-97827827D01*
X148918617Y-97754831D01*
X149048695Y-97624753D01*
X149233275Y-97440172D01*
X149233278Y-97440169D01*
X149236815Y-97436633D01*
X149309811Y-97387859D01*
X149395914Y-97370732D01*
X149482018Y-97387859D01*
G37*
G36*
X151644834Y-97358643D02*
G01*
X151717829Y-97407417D01*
X151721371Y-97410959D01*
X152067843Y-97757430D01*
X152067845Y-97757433D01*
X152071383Y-97760971D01*
X152120157Y-97833966D01*
X152137284Y-97920070D01*
X152120157Y-98006173D01*
X152071383Y-98079169D01*
X151753185Y-98397367D01*
X151680189Y-98446141D01*
X151594086Y-98463268D01*
X151507982Y-98446141D01*
X151434987Y-98397367D01*
X151330420Y-98292800D01*
X151084972Y-98047353D01*
X151084969Y-98047349D01*
X151081433Y-98043813D01*
X151032659Y-97970818D01*
X151015532Y-97884714D01*
X151032659Y-97798611D01*
X151081433Y-97725615D01*
X151230854Y-97576194D01*
X151396091Y-97410956D01*
X151396094Y-97410953D01*
X151399631Y-97407417D01*
X151472627Y-97358643D01*
X151558730Y-97341516D01*
X151644834Y-97358643D01*
G37*
G36*
X156800104Y-96759927D02*
G01*
X156873099Y-96808701D01*
X156921873Y-96881696D01*
X156939000Y-96967800D01*
X156939000Y-97417800D01*
X156921873Y-97503904D01*
X156873099Y-97576899D01*
X156800104Y-97625673D01*
X156714000Y-97642800D01*
X156214000Y-97642800D01*
X156127896Y-97625673D01*
X156054901Y-97576899D01*
X156006127Y-97503904D01*
X155989000Y-97417800D01*
X155989000Y-96967800D01*
X156006127Y-96881696D01*
X156054901Y-96808701D01*
X156127896Y-96759927D01*
X156214000Y-96742800D01*
X156714000Y-96742800D01*
X156800104Y-96759927D01*
G37*
G36*
X153767537Y-96758024D02*
G01*
X153832421Y-96801379D01*
X153875776Y-96866263D01*
X153891000Y-96942800D01*
X153891000Y-97342800D01*
X153875776Y-97419337D01*
X153832421Y-97484221D01*
X153767537Y-97527576D01*
X153691000Y-97542800D01*
X153141000Y-97542800D01*
X153064463Y-97527576D01*
X152999579Y-97484221D01*
X152956224Y-97419337D01*
X152941000Y-97342800D01*
X152941000Y-96942800D01*
X152956224Y-96866263D01*
X152999579Y-96801379D01*
X153064463Y-96758024D01*
X153141000Y-96742800D01*
X153691000Y-96742800D01*
X153767537Y-96758024D01*
G37*
G36*
X155291537Y-96758024D02*
G01*
X155356421Y-96801379D01*
X155399776Y-96866263D01*
X155415000Y-96942800D01*
X155415000Y-97342800D01*
X155399776Y-97419337D01*
X155356421Y-97484221D01*
X155291537Y-97527576D01*
X155215000Y-97542800D01*
X154665000Y-97542800D01*
X154588463Y-97527576D01*
X154523579Y-97484221D01*
X154480224Y-97419337D01*
X154465000Y-97342800D01*
X154465000Y-96942800D01*
X154480224Y-96866263D01*
X154523579Y-96801379D01*
X154588463Y-96758024D01*
X154665000Y-96742800D01*
X155215000Y-96742800D01*
X155291537Y-96758024D01*
G37*
G36*
X146085333Y-96533089D02*
G01*
X146121157Y-96533089D01*
X146150277Y-96541639D01*
X146179295Y-96545460D01*
X146218271Y-96561604D01*
X146257708Y-96573184D01*
X146278523Y-96586561D01*
X146299780Y-96595366D01*
X146338734Y-96625256D01*
X146377430Y-96650125D01*
X146389903Y-96664520D01*
X146403243Y-96674756D01*
X146437824Y-96719824D01*
X146470627Y-96757680D01*
X146476146Y-96769767D01*
X146482633Y-96778220D01*
X146508242Y-96840046D01*
X146529746Y-96887134D01*
X146530809Y-96894529D01*
X146532539Y-96898705D01*
X146544804Y-96991866D01*
X146550000Y-97028000D01*
X146544804Y-97064133D01*
X146532539Y-97157295D01*
X146530809Y-97161470D01*
X146529746Y-97168866D01*
X146508242Y-97215953D01*
X146482633Y-97277780D01*
X146476147Y-97286232D01*
X146470627Y-97298320D01*
X146437820Y-97336180D01*
X146403243Y-97381243D01*
X146389906Y-97391476D01*
X146377430Y-97405875D01*
X146338726Y-97430748D01*
X146299780Y-97460633D01*
X146278527Y-97469435D01*
X146257708Y-97482816D01*
X146218262Y-97494398D01*
X146179295Y-97510539D01*
X146150283Y-97514358D01*
X146121157Y-97522911D01*
X146085326Y-97522911D01*
X146050000Y-97527562D01*
X146014674Y-97522911D01*
X145978843Y-97522911D01*
X145949716Y-97514358D01*
X145920704Y-97510539D01*
X145881733Y-97494397D01*
X145842292Y-97482816D01*
X145821473Y-97469437D01*
X145800219Y-97460633D01*
X145761267Y-97430744D01*
X145722570Y-97405875D01*
X145710095Y-97391478D01*
X145696756Y-97381243D01*
X145662170Y-97336170D01*
X145629373Y-97298320D01*
X145623854Y-97286235D01*
X145617366Y-97277780D01*
X145591747Y-97215929D01*
X145570254Y-97168866D01*
X145569191Y-97161474D01*
X145567460Y-97157295D01*
X145555183Y-97064050D01*
X145550000Y-97028000D01*
X145555183Y-96991949D01*
X145567460Y-96898705D01*
X145569191Y-96894525D01*
X145570254Y-96887134D01*
X145591747Y-96840070D01*
X145617366Y-96778220D01*
X145623854Y-96769763D01*
X145629373Y-96757680D01*
X145662166Y-96719834D01*
X145696756Y-96674756D01*
X145710098Y-96664518D01*
X145722570Y-96650125D01*
X145761263Y-96625258D01*
X145800220Y-96595366D01*
X145821476Y-96586561D01*
X145842292Y-96573184D01*
X145881728Y-96561604D01*
X145920705Y-96545460D01*
X145949722Y-96541639D01*
X145978843Y-96533089D01*
X146014667Y-96533089D01*
X146050000Y-96528437D01*
X146085333Y-96533089D01*
G37*
G36*
X148415218Y-96321059D02*
G01*
X148488213Y-96369833D01*
X148491755Y-96373375D01*
X148838227Y-96719846D01*
X148838229Y-96719849D01*
X148841767Y-96723387D01*
X148890541Y-96796382D01*
X148907668Y-96882486D01*
X148890541Y-96968589D01*
X148841767Y-97041585D01*
X148523569Y-97359783D01*
X148450573Y-97408557D01*
X148364470Y-97425684D01*
X148278366Y-97408557D01*
X148205371Y-97359783D01*
X148123368Y-97277780D01*
X147855356Y-97009769D01*
X147855353Y-97009765D01*
X147851817Y-97006229D01*
X147803043Y-96933234D01*
X147785916Y-96847130D01*
X147803043Y-96761027D01*
X147851817Y-96688031D01*
X148006759Y-96533089D01*
X148166475Y-96373372D01*
X148166478Y-96373369D01*
X148170015Y-96369833D01*
X148243011Y-96321059D01*
X148329114Y-96303932D01*
X148415218Y-96321059D01*
G37*
G36*
X150578034Y-96291843D02*
G01*
X150651029Y-96340617D01*
X150654571Y-96344159D01*
X151001043Y-96690630D01*
X151001045Y-96690633D01*
X151004583Y-96694171D01*
X151053357Y-96767166D01*
X151070484Y-96853270D01*
X151053357Y-96939373D01*
X151004583Y-97012369D01*
X150686385Y-97330567D01*
X150613389Y-97379341D01*
X150527286Y-97396468D01*
X150441182Y-97379341D01*
X150368187Y-97330567D01*
X150194915Y-97157295D01*
X150018172Y-96980553D01*
X150018169Y-96980549D01*
X150014633Y-96977013D01*
X149965859Y-96904018D01*
X149948732Y-96817914D01*
X149965859Y-96731811D01*
X150014633Y-96658815D01*
X150146563Y-96526885D01*
X150329291Y-96344156D01*
X150329294Y-96344153D01*
X150332831Y-96340617D01*
X150405827Y-96291843D01*
X150491930Y-96274716D01*
X150578034Y-96291843D01*
G37*
G36*
X141418589Y-95965459D02*
G01*
X141491585Y-96014233D01*
X141809783Y-96332431D01*
X141858557Y-96405427D01*
X141875684Y-96491530D01*
X141858557Y-96577634D01*
X141809783Y-96650629D01*
X141456229Y-97004183D01*
X141383234Y-97052957D01*
X141297130Y-97070084D01*
X141211027Y-97052957D01*
X141138031Y-97004183D01*
X140819833Y-96685985D01*
X140771059Y-96612989D01*
X140753932Y-96526886D01*
X140771059Y-96440782D01*
X140819833Y-96367787D01*
X140823372Y-96364247D01*
X140823375Y-96364244D01*
X141169846Y-96017772D01*
X141169852Y-96017767D01*
X141173387Y-96014233D01*
X141246382Y-95965459D01*
X141332486Y-95948332D01*
X141418589Y-95965459D01*
G37*
G36*
X147348418Y-95254259D02*
G01*
X147421413Y-95303033D01*
X147424955Y-95306575D01*
X147771427Y-95653046D01*
X147771429Y-95653049D01*
X147774967Y-95656587D01*
X147823741Y-95729582D01*
X147840868Y-95815686D01*
X147823741Y-95901789D01*
X147774967Y-95974785D01*
X147456769Y-96292983D01*
X147383773Y-96341757D01*
X147297670Y-96358884D01*
X147211566Y-96341757D01*
X147138571Y-96292983D01*
X146986244Y-96140656D01*
X146788556Y-95942969D01*
X146788553Y-95942965D01*
X146785017Y-95939429D01*
X146736243Y-95866434D01*
X146719116Y-95780330D01*
X146736243Y-95694227D01*
X146785017Y-95621231D01*
X146926252Y-95479996D01*
X147099675Y-95306572D01*
X147099678Y-95306569D01*
X147103215Y-95303033D01*
X147176211Y-95254259D01*
X147262314Y-95237132D01*
X147348418Y-95254259D01*
G37*
G36*
X149511234Y-95225043D02*
G01*
X149584229Y-95273817D01*
X149587771Y-95277359D01*
X149934243Y-95623830D01*
X149934245Y-95623833D01*
X149937783Y-95627371D01*
X149986557Y-95700366D01*
X150003684Y-95786470D01*
X149986557Y-95872573D01*
X149937783Y-95945569D01*
X149619585Y-96263767D01*
X149546589Y-96312541D01*
X149460486Y-96329668D01*
X149374382Y-96312541D01*
X149301387Y-96263767D01*
X149135138Y-96097518D01*
X148951372Y-95913753D01*
X148951369Y-95913749D01*
X148947833Y-95910213D01*
X148899059Y-95837218D01*
X148881932Y-95751114D01*
X148899059Y-95665011D01*
X148947833Y-95592015D01*
X149089763Y-95450085D01*
X149262491Y-95277356D01*
X149262494Y-95277353D01*
X149266031Y-95273817D01*
X149339027Y-95225043D01*
X149425130Y-95207916D01*
X149511234Y-95225043D01*
G37*
G36*
X143541262Y-95237347D02*
G01*
X142551312Y-96227297D01*
X141702784Y-95378769D01*
X141706321Y-95375231D01*
X141706324Y-95375228D01*
X142689193Y-94392358D01*
X142689199Y-94392353D01*
X142692734Y-94388819D01*
X143541262Y-95237347D01*
G37*
G36*
X154137537Y-95222024D02*
G01*
X154202421Y-95265379D01*
X154245776Y-95330263D01*
X154261000Y-95406800D01*
X154261000Y-95956800D01*
X154245776Y-96033337D01*
X154202421Y-96098221D01*
X154137537Y-96141576D01*
X154061000Y-96156800D01*
X153661000Y-96156800D01*
X153584463Y-96141576D01*
X153519579Y-96098221D01*
X153476224Y-96033337D01*
X153461000Y-95956800D01*
X153461000Y-95406800D01*
X153476224Y-95330263D01*
X153519579Y-95265379D01*
X153584463Y-95222024D01*
X153661000Y-95206800D01*
X154061000Y-95206800D01*
X154137537Y-95222024D01*
G37*
G36*
X155787537Y-95222024D02*
G01*
X155852421Y-95265379D01*
X155895776Y-95330263D01*
X155911000Y-95406800D01*
X155911000Y-95956800D01*
X155895776Y-96033337D01*
X155852421Y-96098221D01*
X155787537Y-96141576D01*
X155711000Y-96156800D01*
X155311000Y-96156800D01*
X155234463Y-96141576D01*
X155169579Y-96098221D01*
X155126224Y-96033337D01*
X155111000Y-95956800D01*
X155111000Y-95406800D01*
X155126224Y-95330263D01*
X155169579Y-95265379D01*
X155234463Y-95222024D01*
X155311000Y-95206800D01*
X155711000Y-95206800D01*
X155787537Y-95222024D01*
G37*
G36*
X140322573Y-94869443D02*
G01*
X140395569Y-94918217D01*
X140713767Y-95236415D01*
X140762541Y-95309411D01*
X140779668Y-95395514D01*
X140762541Y-95481618D01*
X140713767Y-95554613D01*
X140360213Y-95908167D01*
X140287218Y-95956941D01*
X140201114Y-95974068D01*
X140115011Y-95956941D01*
X140042015Y-95908167D01*
X139723817Y-95589969D01*
X139675043Y-95516973D01*
X139657916Y-95430870D01*
X139675043Y-95344766D01*
X139723817Y-95271771D01*
X139727356Y-95268231D01*
X139727359Y-95268228D01*
X140073830Y-94921756D01*
X140073836Y-94921751D01*
X140077371Y-94918217D01*
X140150366Y-94869443D01*
X140236470Y-94852316D01*
X140322573Y-94869443D01*
G37*
G36*
X144829741Y-94906311D02*
G01*
X144894625Y-94949666D01*
X144898167Y-94953208D01*
X145279994Y-95335034D01*
X145279996Y-95335037D01*
X145283534Y-95338575D01*
X145326889Y-95403459D01*
X145342112Y-95479996D01*
X145326889Y-95556533D01*
X145283534Y-95621417D01*
X145000691Y-95904260D01*
X144935807Y-95947615D01*
X144859270Y-95962838D01*
X144782733Y-95947615D01*
X144717849Y-95904260D01*
X144543171Y-95729582D01*
X144332479Y-95518891D01*
X144332476Y-95518887D01*
X144328940Y-95515351D01*
X144285585Y-95450467D01*
X144270362Y-95373930D01*
X144285585Y-95297393D01*
X144328940Y-95232509D01*
X144332479Y-95228969D01*
X144332482Y-95228966D01*
X144608242Y-94953205D01*
X144608248Y-94953200D01*
X144611783Y-94949666D01*
X144676667Y-94906311D01*
X144753204Y-94891088D01*
X144829741Y-94906311D01*
G37*
G36*
X148444434Y-94158243D02*
G01*
X148517429Y-94207017D01*
X148520971Y-94210559D01*
X148867443Y-94557030D01*
X148867445Y-94557033D01*
X148870983Y-94560571D01*
X148919757Y-94633566D01*
X148936884Y-94719670D01*
X148919757Y-94805773D01*
X148870983Y-94878769D01*
X148552785Y-95196967D01*
X148479789Y-95245741D01*
X148393686Y-95262868D01*
X148307582Y-95245741D01*
X148234587Y-95196967D01*
X148059295Y-95021675D01*
X147884572Y-94846953D01*
X147884569Y-94846949D01*
X147881033Y-94843413D01*
X147832259Y-94770418D01*
X147815132Y-94684314D01*
X147832259Y-94598211D01*
X147881033Y-94525215D01*
X148028511Y-94377737D01*
X148195691Y-94210556D01*
X148195694Y-94210553D01*
X148199231Y-94207017D01*
X148272227Y-94158243D01*
X148358330Y-94141116D01*
X148444434Y-94158243D01*
G37*
G36*
X142339181Y-94035266D02*
G01*
X141349231Y-95025216D01*
X140500703Y-94176688D01*
X140504240Y-94173150D01*
X140504243Y-94173147D01*
X141487112Y-93190277D01*
X141487118Y-93190272D01*
X141490653Y-93186738D01*
X142339181Y-94035266D01*
G37*
G36*
X138556441Y-93452004D02*
G01*
X138575853Y-93452004D01*
X138596335Y-93459938D01*
X138624506Y-93465542D01*
X138643418Y-93478178D01*
X138660770Y-93484901D01*
X138700089Y-93516046D01*
X138703584Y-93518381D01*
X139348819Y-94163616D01*
X139351149Y-94167104D01*
X139382298Y-94206428D01*
X139389020Y-94223781D01*
X139401658Y-94242694D01*
X139407261Y-94270864D01*
X139415196Y-94291347D01*
X139415196Y-94310759D01*
X139420211Y-94335973D01*
X139415196Y-94361187D01*
X139415196Y-94380599D01*
X139407261Y-94401079D01*
X139401658Y-94429253D01*
X139389019Y-94448167D01*
X139382298Y-94465517D01*
X139351155Y-94504833D01*
X139348819Y-94508330D01*
X139004104Y-94853045D01*
X139000612Y-94855378D01*
X138961290Y-94886524D01*
X138943942Y-94893244D01*
X138925027Y-94905884D01*
X138896854Y-94911487D01*
X138876374Y-94919422D01*
X138856961Y-94919422D01*
X138831747Y-94924437D01*
X138806533Y-94919422D01*
X138787121Y-94919422D01*
X138766639Y-94911487D01*
X138738468Y-94905884D01*
X138719554Y-94893246D01*
X138702203Y-94886524D01*
X138662886Y-94855381D01*
X138659390Y-94853045D01*
X138014155Y-94207810D01*
X138011825Y-94204323D01*
X137980675Y-94164997D01*
X137973952Y-94147643D01*
X137961316Y-94128732D01*
X137955712Y-94100560D01*
X137947778Y-94080078D01*
X137947778Y-94060666D01*
X137942763Y-94035453D01*
X137947778Y-94010238D01*
X137947778Y-93990826D01*
X137955713Y-93970342D01*
X137961316Y-93942173D01*
X137973951Y-93923262D01*
X137980675Y-93905908D01*
X138011828Y-93866577D01*
X138014155Y-93863096D01*
X138016230Y-93861020D01*
X138016234Y-93861016D01*
X138356789Y-93520460D01*
X138356798Y-93520452D01*
X138358870Y-93518381D01*
X138362347Y-93516057D01*
X138401683Y-93484901D01*
X138419035Y-93478178D01*
X138437947Y-93465542D01*
X138466117Y-93459939D01*
X138486600Y-93452004D01*
X138506013Y-93452004D01*
X138531227Y-93446989D01*
X138556441Y-93452004D01*
G37*
G36*
X145996467Y-93739585D02*
G01*
X146061351Y-93782940D01*
X146064893Y-93786482D01*
X146446720Y-94168308D01*
X146446722Y-94168311D01*
X146450260Y-94171849D01*
X146493615Y-94236733D01*
X146508838Y-94313270D01*
X146493615Y-94389807D01*
X146450260Y-94454691D01*
X146167417Y-94737534D01*
X146102533Y-94780889D01*
X146025996Y-94796112D01*
X145949459Y-94780889D01*
X145884575Y-94737534D01*
X145704071Y-94557030D01*
X145499205Y-94352165D01*
X145499202Y-94352161D01*
X145495666Y-94348625D01*
X145452311Y-94283741D01*
X145437088Y-94207204D01*
X145452311Y-94130667D01*
X145495666Y-94065783D01*
X145499205Y-94062243D01*
X145499208Y-94062240D01*
X145774968Y-93786479D01*
X145774974Y-93786474D01*
X145778509Y-93782940D01*
X145843393Y-93739585D01*
X145919930Y-93724362D01*
X145996467Y-93739585D01*
G37*
G36*
X145096897Y-93681712D02*
G01*
X144106947Y-94671662D01*
X143258419Y-93823134D01*
X143261956Y-93819596D01*
X143261959Y-93819593D01*
X144244828Y-92836723D01*
X144244834Y-92836718D01*
X144248369Y-92833184D01*
X145096897Y-93681712D01*
G37*
G36*
X151845339Y-93197094D02*
G01*
X151869670Y-93213352D01*
X151912145Y-93255827D01*
X151972201Y-93315882D01*
X151972203Y-93315885D01*
X151975736Y-93319418D01*
X151991994Y-93343749D01*
X151997703Y-93372451D01*
X151991994Y-93401152D01*
X151975736Y-93425484D01*
X151038820Y-94362400D01*
X151014488Y-94378658D01*
X150985787Y-94384367D01*
X150957085Y-94378658D01*
X150932754Y-94362400D01*
X150861701Y-94291347D01*
X150830222Y-94259869D01*
X150830219Y-94259865D01*
X150826688Y-94256334D01*
X150810430Y-94232003D01*
X150804721Y-94203301D01*
X150810430Y-94174600D01*
X150826688Y-94150268D01*
X151057469Y-93919487D01*
X151760064Y-93216890D01*
X151760070Y-93216885D01*
X151763604Y-93213352D01*
X151787936Y-93197094D01*
X151816637Y-93191385D01*
X151845339Y-93197094D01*
G37*
G36*
X153012064Y-93197094D02*
G01*
X153036396Y-93213352D01*
X153275048Y-93452004D01*
X153969773Y-94146728D01*
X153969774Y-94146730D01*
X153973312Y-94150268D01*
X153989570Y-94174600D01*
X153995279Y-94203301D01*
X153989570Y-94232003D01*
X153973312Y-94256334D01*
X153867246Y-94362400D01*
X153842915Y-94378658D01*
X153814213Y-94384367D01*
X153785512Y-94378658D01*
X153761180Y-94362400D01*
X153069410Y-93670630D01*
X152827802Y-93429023D01*
X152827799Y-93429019D01*
X152824264Y-93425484D01*
X152808006Y-93401152D01*
X152802297Y-93372451D01*
X152808006Y-93343749D01*
X152824264Y-93319418D01*
X152852500Y-93291182D01*
X152926794Y-93216886D01*
X152926800Y-93216881D01*
X152930330Y-93213352D01*
X152954661Y-93197094D01*
X152983363Y-93191385D01*
X153012064Y-93197094D01*
G37*
G36*
X151491785Y-92843540D02*
G01*
X151516116Y-92859798D01*
X151569151Y-92912833D01*
X151618647Y-92962328D01*
X151618649Y-92962331D01*
X151622182Y-92965864D01*
X151638440Y-92990195D01*
X151644149Y-93018897D01*
X151638440Y-93047598D01*
X151622182Y-93071930D01*
X150685266Y-94008846D01*
X150660934Y-94025104D01*
X150632233Y-94030813D01*
X150603531Y-94025104D01*
X150579200Y-94008846D01*
X150512527Y-93942173D01*
X150476668Y-93906315D01*
X150476665Y-93906311D01*
X150473134Y-93902780D01*
X150456876Y-93878449D01*
X150451167Y-93849747D01*
X150456876Y-93821046D01*
X150473134Y-93796714D01*
X150689790Y-93580058D01*
X151406510Y-92863336D01*
X151406516Y-92863331D01*
X151410050Y-92859798D01*
X151434382Y-92843540D01*
X151463083Y-92837831D01*
X151491785Y-92843540D01*
G37*
G36*
X153365618Y-92843540D02*
G01*
X153389950Y-92859798D01*
X153633579Y-93103427D01*
X154323327Y-93793174D01*
X154323328Y-93793176D01*
X154326866Y-93796714D01*
X154343124Y-93821046D01*
X154348833Y-93849747D01*
X154343124Y-93878449D01*
X154326866Y-93902780D01*
X154220800Y-94008846D01*
X154196469Y-94025104D01*
X154167767Y-94030813D01*
X154139066Y-94025104D01*
X154114734Y-94008846D01*
X153421766Y-93315878D01*
X153181356Y-93075469D01*
X153181353Y-93075465D01*
X153177818Y-93071930D01*
X153161560Y-93047598D01*
X153155851Y-93018897D01*
X153161560Y-92990195D01*
X153177818Y-92965864D01*
X153203499Y-92940183D01*
X153280348Y-92863332D01*
X153280354Y-92863327D01*
X153283884Y-92859798D01*
X153308215Y-92843540D01*
X153336917Y-92837831D01*
X153365618Y-92843540D01*
G37*
G36*
X156390818Y-92815859D02*
G01*
X156463813Y-92864633D01*
X156467355Y-92868175D01*
X156813827Y-93214646D01*
X156813829Y-93214649D01*
X156817367Y-93218187D01*
X156866141Y-93291182D01*
X156883268Y-93377286D01*
X156866141Y-93463389D01*
X156817367Y-93536385D01*
X156499169Y-93854583D01*
X156426173Y-93903357D01*
X156340070Y-93920484D01*
X156253966Y-93903357D01*
X156180971Y-93854583D01*
X156004560Y-93678172D01*
X155830956Y-93504569D01*
X155830953Y-93504565D01*
X155827417Y-93501029D01*
X155778643Y-93428034D01*
X155761516Y-93341930D01*
X155778643Y-93255827D01*
X155827417Y-93182831D01*
X155963031Y-93047217D01*
X156142075Y-92868172D01*
X156142078Y-92868169D01*
X156145615Y-92864633D01*
X156218611Y-92815859D01*
X156304714Y-92798732D01*
X156390818Y-92815859D01*
G37*
G36*
X151138232Y-92489987D02*
G01*
X151162563Y-92506245D01*
X151191508Y-92535190D01*
X151265094Y-92608775D01*
X151265096Y-92608778D01*
X151268629Y-92612311D01*
X151284887Y-92636642D01*
X151290596Y-92665344D01*
X151284887Y-92694045D01*
X151268629Y-92718377D01*
X150331713Y-93655293D01*
X150307381Y-93671551D01*
X150278680Y-93677260D01*
X150249978Y-93671551D01*
X150225647Y-93655293D01*
X150150412Y-93580058D01*
X150123115Y-93552762D01*
X150123112Y-93552758D01*
X150119581Y-93549227D01*
X150103323Y-93524896D01*
X150097614Y-93496194D01*
X150103323Y-93467493D01*
X150119581Y-93443161D01*
X150349390Y-93213352D01*
X151052957Y-92509783D01*
X151052963Y-92509778D01*
X151056497Y-92506245D01*
X151080829Y-92489987D01*
X151109530Y-92484278D01*
X151138232Y-92489987D01*
G37*
G36*
X153719171Y-92489987D02*
G01*
X153743503Y-92506245D01*
X153991510Y-92754252D01*
X154676880Y-93439621D01*
X154676881Y-93439623D01*
X154680419Y-93443161D01*
X154696677Y-93467493D01*
X154702386Y-93496194D01*
X154696677Y-93524896D01*
X154680419Y-93549227D01*
X154574353Y-93655293D01*
X154550022Y-93671551D01*
X154521320Y-93677260D01*
X154492619Y-93671551D01*
X154468287Y-93655293D01*
X153775318Y-92962324D01*
X153534909Y-92721916D01*
X153534906Y-92721912D01*
X153531371Y-92718377D01*
X153515113Y-92694045D01*
X153509404Y-92665344D01*
X153515113Y-92636642D01*
X153531371Y-92612311D01*
X153557053Y-92586629D01*
X153633901Y-92509779D01*
X153633907Y-92509774D01*
X153637437Y-92506245D01*
X153661768Y-92489987D01*
X153690470Y-92484278D01*
X153719171Y-92489987D01*
G37*
G36*
X139882267Y-92126178D02*
G01*
X139901679Y-92126178D01*
X139922161Y-92134112D01*
X139950332Y-92139716D01*
X139969244Y-92152352D01*
X139986596Y-92159075D01*
X140025915Y-92190220D01*
X140029410Y-92192555D01*
X140674645Y-92837790D01*
X140676975Y-92841278D01*
X140708124Y-92880602D01*
X140714846Y-92897955D01*
X140727484Y-92916868D01*
X140733087Y-92945038D01*
X140741022Y-92965521D01*
X140741022Y-92984933D01*
X140746037Y-93010147D01*
X140741022Y-93035361D01*
X140741022Y-93054773D01*
X140733087Y-93075253D01*
X140727484Y-93103427D01*
X140714845Y-93122341D01*
X140708124Y-93139691D01*
X140676981Y-93179007D01*
X140674645Y-93182504D01*
X140329930Y-93527219D01*
X140326438Y-93529552D01*
X140287116Y-93560698D01*
X140269768Y-93567418D01*
X140250853Y-93580058D01*
X140222680Y-93585661D01*
X140202200Y-93593596D01*
X140182787Y-93593596D01*
X140157573Y-93598611D01*
X140132359Y-93593596D01*
X140112947Y-93593596D01*
X140092465Y-93585661D01*
X140064294Y-93580058D01*
X140045380Y-93567420D01*
X140028029Y-93560698D01*
X139988712Y-93529555D01*
X139985216Y-93527219D01*
X139339981Y-92881984D01*
X139337651Y-92878497D01*
X139306501Y-92839171D01*
X139299778Y-92821817D01*
X139287142Y-92802906D01*
X139281538Y-92774734D01*
X139273604Y-92754252D01*
X139273604Y-92734840D01*
X139268589Y-92709627D01*
X139273604Y-92684412D01*
X139273604Y-92665000D01*
X139281539Y-92644516D01*
X139287142Y-92616347D01*
X139299777Y-92597436D01*
X139306501Y-92580082D01*
X139337654Y-92540751D01*
X139339981Y-92537270D01*
X139342056Y-92535194D01*
X139342060Y-92535190D01*
X139682615Y-92194634D01*
X139682624Y-92194626D01*
X139684696Y-92192555D01*
X139688173Y-92190231D01*
X139727509Y-92159075D01*
X139744861Y-92152352D01*
X139763773Y-92139716D01*
X139791943Y-92134113D01*
X139812426Y-92126178D01*
X139831839Y-92126178D01*
X139857053Y-92121163D01*
X139882267Y-92126178D01*
G37*
G36*
X143894816Y-92479631D02*
G01*
X142904866Y-93469581D01*
X142056338Y-92621053D01*
X142059875Y-92617515D01*
X142059878Y-92617512D01*
X143042747Y-91634642D01*
X143042753Y-91634637D01*
X143046288Y-91631103D01*
X143894816Y-92479631D01*
G37*
G36*
X150784678Y-92136433D02*
G01*
X150809009Y-92152691D01*
X150848873Y-92192555D01*
X150911540Y-92255221D01*
X150911542Y-92255224D01*
X150915075Y-92258757D01*
X150931333Y-92283088D01*
X150937042Y-92311790D01*
X150931333Y-92340491D01*
X150915075Y-92364823D01*
X149978159Y-93301739D01*
X149953827Y-93317997D01*
X149925126Y-93323706D01*
X149896424Y-93317997D01*
X149872093Y-93301739D01*
X149819057Y-93248703D01*
X149769561Y-93199208D01*
X149769558Y-93199204D01*
X149766027Y-93195673D01*
X149749769Y-93171342D01*
X149744060Y-93142640D01*
X149749769Y-93113939D01*
X149766027Y-93089607D01*
X149995836Y-92859798D01*
X150699403Y-92156229D01*
X150699409Y-92156224D01*
X150702943Y-92152691D01*
X150727275Y-92136433D01*
X150755976Y-92130724D01*
X150784678Y-92136433D01*
G37*
G36*
X154072725Y-92136433D02*
G01*
X154097057Y-92152691D01*
X154349379Y-92405013D01*
X155030434Y-93086067D01*
X155030435Y-93086069D01*
X155033973Y-93089607D01*
X155050231Y-93113939D01*
X155055940Y-93142640D01*
X155050231Y-93171342D01*
X155033973Y-93195673D01*
X154927907Y-93301739D01*
X154903576Y-93317997D01*
X154874874Y-93323706D01*
X154846173Y-93317997D01*
X154821841Y-93301739D01*
X154128873Y-92608771D01*
X153888463Y-92368362D01*
X153888460Y-92368358D01*
X153884925Y-92364823D01*
X153868667Y-92340491D01*
X153862958Y-92311790D01*
X153868667Y-92283088D01*
X153884925Y-92258757D01*
X153906144Y-92237538D01*
X153987455Y-92156225D01*
X153987461Y-92156220D01*
X153990991Y-92152691D01*
X154015322Y-92136433D01*
X154044024Y-92130724D01*
X154072725Y-92136433D01*
G37*
G36*
X145482589Y-91901459D02*
G01*
X145555585Y-91950233D01*
X145873783Y-92268431D01*
X145922557Y-92341427D01*
X145939684Y-92427530D01*
X145922557Y-92513634D01*
X145873783Y-92586629D01*
X145520229Y-92940183D01*
X145447234Y-92988957D01*
X145361130Y-93006084D01*
X145275027Y-92988957D01*
X145202031Y-92940183D01*
X144883833Y-92621985D01*
X144835059Y-92548989D01*
X144817932Y-92462886D01*
X144835059Y-92376782D01*
X144883833Y-92303787D01*
X144887372Y-92300247D01*
X144887375Y-92300244D01*
X145233846Y-91953772D01*
X145233852Y-91953767D01*
X145237387Y-91950233D01*
X145310382Y-91901459D01*
X145396486Y-91884332D01*
X145482589Y-91901459D01*
G37*
G36*
X150431125Y-91782880D02*
G01*
X150455456Y-91799138D01*
X150496942Y-91840624D01*
X150557987Y-91901668D01*
X150557989Y-91901671D01*
X150561522Y-91905204D01*
X150577780Y-91929535D01*
X150583489Y-91958237D01*
X150577780Y-91986938D01*
X150561522Y-92011270D01*
X149624606Y-92948186D01*
X149600274Y-92964444D01*
X149571573Y-92970153D01*
X149542871Y-92964444D01*
X149518540Y-92948186D01*
X149450956Y-92880602D01*
X149416008Y-92845655D01*
X149416005Y-92845651D01*
X149412474Y-92842120D01*
X149396216Y-92817789D01*
X149390507Y-92789087D01*
X149396216Y-92760386D01*
X149412474Y-92736054D01*
X149642283Y-92506245D01*
X150345850Y-91802676D01*
X150345856Y-91802671D01*
X150349390Y-91799138D01*
X150373722Y-91782880D01*
X150402423Y-91777171D01*
X150431125Y-91782880D01*
G37*
G36*
X154426278Y-91782880D02*
G01*
X154450610Y-91799138D01*
X154704751Y-92053279D01*
X155383987Y-92732514D01*
X155383988Y-92732516D01*
X155387526Y-92736054D01*
X155403784Y-92760386D01*
X155409493Y-92789087D01*
X155403784Y-92817789D01*
X155387526Y-92842120D01*
X155281460Y-92948186D01*
X155257129Y-92964444D01*
X155228427Y-92970153D01*
X155199726Y-92964444D01*
X155175394Y-92948186D01*
X154482425Y-92255217D01*
X154242016Y-92014809D01*
X154242013Y-92014805D01*
X154238478Y-92011270D01*
X154222220Y-91986938D01*
X154216511Y-91958237D01*
X154222220Y-91929535D01*
X154238478Y-91905204D01*
X154259697Y-91883985D01*
X154341008Y-91802672D01*
X154341014Y-91802667D01*
X154344544Y-91799138D01*
X154368875Y-91782880D01*
X154397577Y-91777171D01*
X154426278Y-91782880D01*
G37*
G36*
X157486834Y-91719843D02*
G01*
X157559829Y-91768617D01*
X157563371Y-91772159D01*
X157909843Y-92118630D01*
X157909845Y-92118633D01*
X157913383Y-92122171D01*
X157962157Y-92195166D01*
X157979284Y-92281270D01*
X157962157Y-92367373D01*
X157913383Y-92440369D01*
X157595185Y-92758567D01*
X157522189Y-92807341D01*
X157436086Y-92824468D01*
X157349982Y-92807341D01*
X157276987Y-92758567D01*
X157105049Y-92586629D01*
X156926972Y-92408553D01*
X156926969Y-92408549D01*
X156923433Y-92405013D01*
X156874659Y-92332018D01*
X156857532Y-92245914D01*
X156874659Y-92159811D01*
X156923433Y-92086815D01*
X157080713Y-91929535D01*
X157238091Y-91772156D01*
X157238094Y-91772153D01*
X157241631Y-91768617D01*
X157314627Y-91719843D01*
X157400730Y-91702716D01*
X157486834Y-91719843D01*
G37*
G36*
X150077572Y-91429327D02*
G01*
X150101903Y-91445585D01*
X150146931Y-91490613D01*
X150204434Y-91548115D01*
X150204436Y-91548118D01*
X150207969Y-91551651D01*
X150224227Y-91575982D01*
X150229936Y-91604684D01*
X150224227Y-91633385D01*
X150207969Y-91657717D01*
X149271053Y-92594633D01*
X149246721Y-92610891D01*
X149218020Y-92616600D01*
X149189318Y-92610891D01*
X149164987Y-92594633D01*
X149105544Y-92535190D01*
X149062455Y-92492102D01*
X149062452Y-92492098D01*
X149058921Y-92488567D01*
X149042663Y-92464236D01*
X149036954Y-92435534D01*
X149042663Y-92406833D01*
X149058921Y-92382501D01*
X149288731Y-92152691D01*
X149992297Y-91449123D01*
X149992303Y-91449118D01*
X149995837Y-91445585D01*
X150020169Y-91429327D01*
X150048870Y-91423618D01*
X150077572Y-91429327D01*
G37*
G36*
X154779831Y-91429327D02*
G01*
X154804163Y-91445585D01*
X155049171Y-91690593D01*
X155737540Y-92378961D01*
X155737541Y-92378963D01*
X155741079Y-92382501D01*
X155757337Y-92406833D01*
X155763046Y-92435534D01*
X155757337Y-92464236D01*
X155741079Y-92488567D01*
X155635013Y-92594633D01*
X155610682Y-92610891D01*
X155581980Y-92616600D01*
X155553279Y-92610891D01*
X155528947Y-92594633D01*
X154835773Y-91901459D01*
X154595569Y-91661256D01*
X154595566Y-91661252D01*
X154592031Y-91657717D01*
X154575773Y-91633385D01*
X154570064Y-91604684D01*
X154575773Y-91575982D01*
X154592031Y-91551651D01*
X154617713Y-91525969D01*
X154694561Y-91449119D01*
X154694567Y-91449114D01*
X154698097Y-91445585D01*
X154722428Y-91429327D01*
X154751130Y-91423618D01*
X154779831Y-91429327D01*
G37*
G36*
X141070541Y-91299511D02*
G01*
X141135425Y-91342866D01*
X141138967Y-91346408D01*
X141520794Y-91728234D01*
X141520796Y-91728237D01*
X141524334Y-91731775D01*
X141567689Y-91796659D01*
X141582912Y-91873196D01*
X141567689Y-91949733D01*
X141524334Y-92014617D01*
X141241491Y-92297460D01*
X141176607Y-92340815D01*
X141100070Y-92356038D01*
X141023533Y-92340815D01*
X140958649Y-92297460D01*
X140771488Y-92110299D01*
X140573279Y-91912091D01*
X140573276Y-91912087D01*
X140569740Y-91908551D01*
X140526385Y-91843667D01*
X140511162Y-91767130D01*
X140526385Y-91690593D01*
X140569740Y-91625709D01*
X140573279Y-91622169D01*
X140573282Y-91622166D01*
X140849042Y-91346405D01*
X140849048Y-91346400D01*
X140852583Y-91342866D01*
X140917467Y-91299511D01*
X140994004Y-91284288D01*
X141070541Y-91299511D01*
G37*
G36*
X149724018Y-91075773D02*
G01*
X149748349Y-91092031D01*
X149783509Y-91127191D01*
X149850880Y-91194561D01*
X149850882Y-91194564D01*
X149854415Y-91198097D01*
X149870673Y-91222428D01*
X149876382Y-91251130D01*
X149870673Y-91279831D01*
X149854415Y-91304163D01*
X148917499Y-92241079D01*
X148893167Y-92257337D01*
X148864466Y-92263046D01*
X148835764Y-92257337D01*
X148811433Y-92241079D01*
X148758397Y-92188043D01*
X148708901Y-92138548D01*
X148708898Y-92138544D01*
X148705367Y-92135013D01*
X148689109Y-92110682D01*
X148683400Y-92081980D01*
X148689109Y-92053279D01*
X148705367Y-92028947D01*
X148937655Y-91796659D01*
X149638743Y-91095569D01*
X149638749Y-91095564D01*
X149642283Y-91092031D01*
X149666615Y-91075773D01*
X149695316Y-91070064D01*
X149724018Y-91075773D01*
G37*
G36*
X155133385Y-91075773D02*
G01*
X155157717Y-91092031D01*
X155397200Y-91331514D01*
X156091094Y-92025407D01*
X156091095Y-92025409D01*
X156094633Y-92028947D01*
X156110891Y-92053279D01*
X156116600Y-92081980D01*
X156110891Y-92110682D01*
X156094633Y-92135013D01*
X155988567Y-92241079D01*
X155964236Y-92257337D01*
X155935534Y-92263046D01*
X155906833Y-92257337D01*
X155882501Y-92241079D01*
X155189533Y-91548111D01*
X154949123Y-91307702D01*
X154949120Y-91307698D01*
X154945585Y-91304163D01*
X154929327Y-91279831D01*
X154923618Y-91251130D01*
X154929327Y-91222428D01*
X154945585Y-91198097D01*
X154971267Y-91172415D01*
X155048115Y-91095565D01*
X155048121Y-91095560D01*
X155051651Y-91092031D01*
X155075982Y-91075773D01*
X155104684Y-91070064D01*
X155133385Y-91075773D01*
G37*
G36*
X144386573Y-90805443D02*
G01*
X144459569Y-90854217D01*
X144777767Y-91172415D01*
X144826541Y-91245411D01*
X144843668Y-91331514D01*
X144826541Y-91417618D01*
X144777767Y-91490613D01*
X144424213Y-91844167D01*
X144351218Y-91892941D01*
X144265114Y-91910068D01*
X144179011Y-91892941D01*
X144106015Y-91844167D01*
X143787817Y-91525969D01*
X143739043Y-91452973D01*
X143721916Y-91366870D01*
X143739043Y-91280766D01*
X143787817Y-91207771D01*
X143791356Y-91204231D01*
X143791359Y-91204228D01*
X144137830Y-90857756D01*
X144137836Y-90857751D01*
X144141371Y-90854217D01*
X144214366Y-90805443D01*
X144300470Y-90788316D01*
X144386573Y-90805443D01*
G37*
G36*
X149370465Y-90722220D02*
G01*
X149394796Y-90738478D01*
X149438941Y-90782623D01*
X149497327Y-90841008D01*
X149497329Y-90841011D01*
X149500862Y-90844544D01*
X149517120Y-90868875D01*
X149522829Y-90897577D01*
X149517120Y-90926278D01*
X149500862Y-90950610D01*
X148563946Y-91887526D01*
X148539614Y-91903784D01*
X148510913Y-91909493D01*
X148482211Y-91903784D01*
X148457880Y-91887526D01*
X148404844Y-91834490D01*
X148355348Y-91784995D01*
X148355345Y-91784991D01*
X148351814Y-91781460D01*
X148335556Y-91757129D01*
X148329847Y-91728427D01*
X148335556Y-91699726D01*
X148351814Y-91675394D01*
X148581623Y-91445585D01*
X149285190Y-90742016D01*
X149285196Y-90742011D01*
X149288730Y-90738478D01*
X149313062Y-90722220D01*
X149341763Y-90716511D01*
X149370465Y-90722220D01*
G37*
G36*
X155486938Y-90722220D02*
G01*
X155511270Y-90738478D01*
X155751372Y-90978580D01*
X156444647Y-91671854D01*
X156444648Y-91671856D01*
X156448186Y-91675394D01*
X156464444Y-91699726D01*
X156470153Y-91728427D01*
X156464444Y-91757129D01*
X156448186Y-91781460D01*
X156342120Y-91887526D01*
X156317789Y-91903784D01*
X156289087Y-91909493D01*
X156260386Y-91903784D01*
X156236054Y-91887526D01*
X155536845Y-91188317D01*
X155302676Y-90954149D01*
X155302673Y-90954145D01*
X155299138Y-90950610D01*
X155282880Y-90926278D01*
X155277171Y-90897577D01*
X155282880Y-90868875D01*
X155299138Y-90844544D01*
X155320357Y-90823325D01*
X155401668Y-90742012D01*
X155401674Y-90742007D01*
X155405204Y-90738478D01*
X155429535Y-90722220D01*
X155458237Y-90716511D01*
X155486938Y-90722220D01*
G37*
G36*
X149016912Y-90368667D02*
G01*
X149041243Y-90384925D01*
X149094278Y-90437960D01*
X149143774Y-90487455D01*
X149143776Y-90487458D01*
X149147309Y-90490991D01*
X149163567Y-90515322D01*
X149169276Y-90544024D01*
X149163567Y-90572725D01*
X149147309Y-90597057D01*
X148210393Y-91533973D01*
X148186061Y-91550231D01*
X148157360Y-91555940D01*
X148128658Y-91550231D01*
X148104327Y-91533973D01*
X148051291Y-91480937D01*
X148001795Y-91431442D01*
X148001792Y-91431438D01*
X147998261Y-91427907D01*
X147982003Y-91403576D01*
X147976294Y-91374874D01*
X147982003Y-91346173D01*
X147998261Y-91321841D01*
X148228071Y-91092031D01*
X148931637Y-90388463D01*
X148931643Y-90388458D01*
X148935177Y-90384925D01*
X148959509Y-90368667D01*
X148988210Y-90362958D01*
X149016912Y-90368667D01*
G37*
G36*
X155840491Y-90368667D02*
G01*
X155864823Y-90384925D01*
X156109831Y-90629933D01*
X156798200Y-91318301D01*
X156798201Y-91318303D01*
X156801739Y-91321841D01*
X156817997Y-91346173D01*
X156823706Y-91374874D01*
X156817997Y-91403576D01*
X156801739Y-91427907D01*
X156695673Y-91533973D01*
X156671342Y-91550231D01*
X156642640Y-91555940D01*
X156613939Y-91550231D01*
X156589607Y-91533973D01*
X155896638Y-90841004D01*
X155656229Y-90600596D01*
X155656226Y-90600592D01*
X155652691Y-90597057D01*
X155636433Y-90572725D01*
X155630724Y-90544024D01*
X155636433Y-90515322D01*
X155652691Y-90490991D01*
X155673911Y-90469771D01*
X155755221Y-90388459D01*
X155755227Y-90388454D01*
X155758757Y-90384925D01*
X155783088Y-90368667D01*
X155811790Y-90362958D01*
X155840491Y-90368667D01*
G37*
G36*
X138998733Y-90233889D02*
G01*
X139034557Y-90233889D01*
X139063677Y-90242439D01*
X139092695Y-90246260D01*
X139131671Y-90262404D01*
X139171108Y-90273984D01*
X139191923Y-90287361D01*
X139213180Y-90296166D01*
X139252134Y-90326056D01*
X139290830Y-90350925D01*
X139303303Y-90365320D01*
X139316643Y-90375556D01*
X139351224Y-90420624D01*
X139384027Y-90458480D01*
X139389546Y-90470567D01*
X139396033Y-90479020D01*
X139421642Y-90540846D01*
X139443146Y-90587934D01*
X139444209Y-90595329D01*
X139445939Y-90599505D01*
X139458204Y-90692666D01*
X139463400Y-90728800D01*
X139458204Y-90764933D01*
X139445939Y-90858095D01*
X139444209Y-90862270D01*
X139443146Y-90869666D01*
X139421642Y-90916753D01*
X139396033Y-90978580D01*
X139389547Y-90987032D01*
X139384027Y-90999120D01*
X139351220Y-91036980D01*
X139316643Y-91082043D01*
X139303306Y-91092276D01*
X139290830Y-91106675D01*
X139252126Y-91131548D01*
X139213180Y-91161433D01*
X139191927Y-91170235D01*
X139171108Y-91183616D01*
X139131662Y-91195198D01*
X139092695Y-91211339D01*
X139063683Y-91215158D01*
X139034557Y-91223711D01*
X138998726Y-91223711D01*
X138963400Y-91228362D01*
X138928074Y-91223711D01*
X138892243Y-91223711D01*
X138863116Y-91215158D01*
X138834104Y-91211339D01*
X138795133Y-91195197D01*
X138755692Y-91183616D01*
X138734873Y-91170237D01*
X138713619Y-91161433D01*
X138674667Y-91131544D01*
X138635970Y-91106675D01*
X138623495Y-91092278D01*
X138610156Y-91082043D01*
X138575570Y-91036970D01*
X138542773Y-90999120D01*
X138537254Y-90987035D01*
X138530766Y-90978580D01*
X138505147Y-90916729D01*
X138483654Y-90869666D01*
X138482591Y-90862274D01*
X138480860Y-90858095D01*
X138468583Y-90764850D01*
X138463400Y-90728800D01*
X138468583Y-90692749D01*
X138480860Y-90599505D01*
X138482591Y-90595325D01*
X138483654Y-90587934D01*
X138505147Y-90540870D01*
X138530766Y-90479020D01*
X138537254Y-90470563D01*
X138542773Y-90458480D01*
X138575566Y-90420634D01*
X138610156Y-90375556D01*
X138623498Y-90365318D01*
X138635970Y-90350925D01*
X138674663Y-90326058D01*
X138713620Y-90296166D01*
X138734876Y-90287361D01*
X138755692Y-90273984D01*
X138795128Y-90262404D01*
X138834105Y-90246260D01*
X138863122Y-90242439D01*
X138892243Y-90233889D01*
X138928067Y-90233889D01*
X138963400Y-90229237D01*
X138998733Y-90233889D01*
G37*
G36*
X148663358Y-90015113D02*
G01*
X148687689Y-90031371D01*
X148740724Y-90084406D01*
X148790220Y-90133901D01*
X148790222Y-90133904D01*
X148793755Y-90137437D01*
X148810013Y-90161768D01*
X148815722Y-90190470D01*
X148810013Y-90219171D01*
X148793755Y-90243503D01*
X147856839Y-91180419D01*
X147832507Y-91196677D01*
X147803806Y-91202386D01*
X147775104Y-91196677D01*
X147750773Y-91180419D01*
X147677029Y-91106675D01*
X147648241Y-91077888D01*
X147648238Y-91077884D01*
X147644707Y-91074353D01*
X147628449Y-91050022D01*
X147622740Y-91021320D01*
X147628449Y-90992619D01*
X147644707Y-90968287D01*
X147874516Y-90738478D01*
X148578083Y-90034909D01*
X148578089Y-90034904D01*
X148581623Y-90031371D01*
X148605955Y-90015113D01*
X148634656Y-90009404D01*
X148663358Y-90015113D01*
G37*
G36*
X156194045Y-90015113D02*
G01*
X156218377Y-90031371D01*
X156460990Y-90273984D01*
X157151754Y-90964747D01*
X157151755Y-90964749D01*
X157155293Y-90968287D01*
X157171551Y-90992619D01*
X157177260Y-91021320D01*
X157171551Y-91050022D01*
X157155293Y-91074353D01*
X157049227Y-91180419D01*
X157024896Y-91196677D01*
X156996194Y-91202386D01*
X156967493Y-91196677D01*
X156943161Y-91180419D01*
X156250193Y-90487451D01*
X156009783Y-90247042D01*
X156009780Y-90247038D01*
X156006245Y-90243503D01*
X155989987Y-90219171D01*
X155984278Y-90190470D01*
X155989987Y-90161768D01*
X156006245Y-90137437D01*
X156026120Y-90117562D01*
X156108775Y-90034905D01*
X156108781Y-90034900D01*
X156112311Y-90031371D01*
X156136642Y-90015113D01*
X156165344Y-90009404D01*
X156194045Y-90015113D01*
G37*
G36*
X142237267Y-90132785D02*
G01*
X142302151Y-90176140D01*
X142305693Y-90179682D01*
X142687520Y-90561508D01*
X142687522Y-90561511D01*
X142691060Y-90565049D01*
X142734415Y-90629933D01*
X142749638Y-90706470D01*
X142734415Y-90783007D01*
X142691060Y-90847891D01*
X142408217Y-91130734D01*
X142343333Y-91174089D01*
X142266796Y-91189312D01*
X142190259Y-91174089D01*
X142125375Y-91130734D01*
X141945251Y-90950610D01*
X141740005Y-90745365D01*
X141740002Y-90745361D01*
X141736466Y-90741825D01*
X141693111Y-90676941D01*
X141677888Y-90600404D01*
X141693111Y-90523867D01*
X141736466Y-90458983D01*
X141740005Y-90455443D01*
X141740008Y-90455440D01*
X142015768Y-90179679D01*
X142015774Y-90179674D01*
X142019309Y-90176140D01*
X142084193Y-90132785D01*
X142160730Y-90117562D01*
X142237267Y-90132785D01*
G37*
G36*
X148309805Y-89661560D02*
G01*
X148334136Y-89677818D01*
X148387171Y-89730853D01*
X148436667Y-89780348D01*
X148436669Y-89780351D01*
X148440202Y-89783884D01*
X148456460Y-89808215D01*
X148462169Y-89836917D01*
X148456460Y-89865618D01*
X148440202Y-89889950D01*
X147503286Y-90826866D01*
X147478954Y-90843124D01*
X147450253Y-90848833D01*
X147421551Y-90843124D01*
X147397220Y-90826866D01*
X147344184Y-90773830D01*
X147294688Y-90724335D01*
X147294685Y-90724331D01*
X147291154Y-90720800D01*
X147274896Y-90696469D01*
X147269187Y-90667767D01*
X147274896Y-90639066D01*
X147291154Y-90614734D01*
X147520963Y-90384925D01*
X148224530Y-89681356D01*
X148224536Y-89681351D01*
X148228070Y-89677818D01*
X148252402Y-89661560D01*
X148281103Y-89655851D01*
X148309805Y-89661560D01*
G37*
G36*
X156547598Y-89661560D02*
G01*
X156571930Y-89677818D01*
X156834149Y-89940037D01*
X157505307Y-90611194D01*
X157505308Y-90611196D01*
X157508846Y-90614734D01*
X157525104Y-90639066D01*
X157530813Y-90667767D01*
X157525104Y-90696469D01*
X157508846Y-90720800D01*
X157402780Y-90826866D01*
X157378449Y-90843124D01*
X157349747Y-90848833D01*
X157321046Y-90843124D01*
X157296714Y-90826866D01*
X156602633Y-90132785D01*
X156363336Y-89893489D01*
X156363333Y-89893485D01*
X156359798Y-89889950D01*
X156343540Y-89865618D01*
X156337831Y-89836917D01*
X156343540Y-89808215D01*
X156359798Y-89783884D01*
X156363338Y-89780344D01*
X156462328Y-89681352D01*
X156462334Y-89681347D01*
X156465864Y-89677818D01*
X156490195Y-89661560D01*
X156518897Y-89655851D01*
X156547598Y-89661560D01*
G37*
G36*
X147956251Y-89308006D02*
G01*
X147980582Y-89324264D01*
X148033617Y-89377299D01*
X148083113Y-89426794D01*
X148083115Y-89426797D01*
X148086648Y-89430330D01*
X148102906Y-89454661D01*
X148108615Y-89483363D01*
X148102906Y-89512064D01*
X148086648Y-89536396D01*
X147149732Y-90473312D01*
X147125400Y-90489570D01*
X147096699Y-90495279D01*
X147067997Y-90489570D01*
X147043666Y-90473312D01*
X146990630Y-90420276D01*
X146941134Y-90370781D01*
X146941131Y-90370777D01*
X146937600Y-90367246D01*
X146921342Y-90342915D01*
X146915633Y-90314213D01*
X146921342Y-90285512D01*
X146937600Y-90261180D01*
X147167409Y-90031371D01*
X147870976Y-89327802D01*
X147870982Y-89327797D01*
X147874516Y-89324264D01*
X147898848Y-89308006D01*
X147927549Y-89302297D01*
X147956251Y-89308006D01*
G37*
G36*
X156901152Y-89308006D02*
G01*
X156925484Y-89324264D01*
X157175205Y-89573985D01*
X157858861Y-90257640D01*
X157858862Y-90257642D01*
X157862400Y-90261180D01*
X157878658Y-90285512D01*
X157884367Y-90314213D01*
X157878658Y-90342915D01*
X157862400Y-90367246D01*
X157756334Y-90473312D01*
X157732003Y-90489570D01*
X157703301Y-90495279D01*
X157674600Y-90489570D01*
X157650268Y-90473312D01*
X156957300Y-89780344D01*
X156716890Y-89539935D01*
X156716887Y-89539931D01*
X156713352Y-89536396D01*
X156697094Y-89512064D01*
X156691385Y-89483363D01*
X156697094Y-89454661D01*
X156713352Y-89430330D01*
X156728797Y-89414885D01*
X156815882Y-89327798D01*
X156815888Y-89327793D01*
X156819418Y-89324264D01*
X156843749Y-89308006D01*
X156872451Y-89302297D01*
X156901152Y-89308006D01*
G37*
G36*
X145304789Y-88853459D02*
G01*
X145377785Y-88902233D01*
X145695983Y-89220431D01*
X145744757Y-89293427D01*
X145761884Y-89379530D01*
X145744757Y-89465634D01*
X145695983Y-89538629D01*
X145342429Y-89892183D01*
X145269434Y-89940957D01*
X145183330Y-89958084D01*
X145097227Y-89940957D01*
X145024231Y-89892183D01*
X144706033Y-89573985D01*
X144657259Y-89500989D01*
X144640132Y-89414886D01*
X144657259Y-89328782D01*
X144706033Y-89255787D01*
X144709572Y-89252247D01*
X144709575Y-89252244D01*
X145056046Y-88905772D01*
X145056052Y-88905767D01*
X145059587Y-88902233D01*
X145132582Y-88853459D01*
X145218686Y-88836332D01*
X145304789Y-88853459D01*
G37*
G36*
X138998733Y-88176489D02*
G01*
X139034557Y-88176489D01*
X139063677Y-88185039D01*
X139092695Y-88188860D01*
X139131671Y-88205004D01*
X139171108Y-88216584D01*
X139191923Y-88229961D01*
X139213180Y-88238766D01*
X139252134Y-88268656D01*
X139290830Y-88293525D01*
X139303303Y-88307920D01*
X139316643Y-88318156D01*
X139351224Y-88363224D01*
X139384027Y-88401080D01*
X139389546Y-88413167D01*
X139396033Y-88421620D01*
X139421642Y-88483446D01*
X139443146Y-88530534D01*
X139444209Y-88537929D01*
X139445939Y-88542105D01*
X139458204Y-88635266D01*
X139463400Y-88671400D01*
X139458204Y-88707533D01*
X139445939Y-88800695D01*
X139444209Y-88804870D01*
X139443146Y-88812266D01*
X139421642Y-88859353D01*
X139396033Y-88921180D01*
X139389547Y-88929632D01*
X139384027Y-88941720D01*
X139351220Y-88979580D01*
X139316643Y-89024643D01*
X139303306Y-89034876D01*
X139290830Y-89049275D01*
X139252126Y-89074148D01*
X139213180Y-89104033D01*
X139191927Y-89112835D01*
X139171108Y-89126216D01*
X139131662Y-89137798D01*
X139092695Y-89153939D01*
X139063683Y-89157758D01*
X139034557Y-89166311D01*
X138998726Y-89166311D01*
X138963400Y-89170962D01*
X138928074Y-89166311D01*
X138892243Y-89166311D01*
X138863116Y-89157758D01*
X138834104Y-89153939D01*
X138795133Y-89137797D01*
X138755692Y-89126216D01*
X138734873Y-89112837D01*
X138713619Y-89104033D01*
X138674667Y-89074144D01*
X138635970Y-89049275D01*
X138623495Y-89034878D01*
X138610156Y-89024643D01*
X138575570Y-88979570D01*
X138542773Y-88941720D01*
X138537254Y-88929635D01*
X138530766Y-88921180D01*
X138505147Y-88859329D01*
X138483654Y-88812266D01*
X138482591Y-88804874D01*
X138480860Y-88800695D01*
X138468583Y-88707450D01*
X138463400Y-88671400D01*
X138468583Y-88635349D01*
X138480860Y-88542105D01*
X138482591Y-88537925D01*
X138483654Y-88530534D01*
X138505147Y-88483470D01*
X138530766Y-88421620D01*
X138537254Y-88413163D01*
X138542773Y-88401080D01*
X138575566Y-88363234D01*
X138610156Y-88318156D01*
X138623498Y-88307918D01*
X138635970Y-88293525D01*
X138674663Y-88268658D01*
X138713620Y-88238766D01*
X138734876Y-88229961D01*
X138755692Y-88216584D01*
X138795128Y-88205004D01*
X138834105Y-88188860D01*
X138863122Y-88185039D01*
X138892243Y-88176489D01*
X138928067Y-88176489D01*
X138963400Y-88171837D01*
X138998733Y-88176489D01*
G37*
G36*
X146371589Y-87786659D02*
G01*
X146444585Y-87835433D01*
X146762783Y-88153631D01*
X146811557Y-88226627D01*
X146828684Y-88312730D01*
X146811557Y-88398834D01*
X146762783Y-88471829D01*
X146409229Y-88825383D01*
X146336234Y-88874157D01*
X146250130Y-88891284D01*
X146164027Y-88874157D01*
X146091031Y-88825383D01*
X145772833Y-88507185D01*
X145724059Y-88434189D01*
X145706932Y-88348086D01*
X145724059Y-88261982D01*
X145772833Y-88188987D01*
X145776372Y-88185447D01*
X145776375Y-88185444D01*
X146122846Y-87838972D01*
X146122852Y-87838967D01*
X146126387Y-87835433D01*
X146199382Y-87786659D01*
X146285486Y-87769532D01*
X146371589Y-87786659D01*
G37*
G36*
X144208773Y-87757443D02*
G01*
X144281769Y-87806217D01*
X144599967Y-88124415D01*
X144648741Y-88197411D01*
X144665868Y-88283514D01*
X144648741Y-88369618D01*
X144599967Y-88442613D01*
X144246413Y-88796167D01*
X144173418Y-88844941D01*
X144087314Y-88862068D01*
X144001211Y-88844941D01*
X143928215Y-88796167D01*
X143610017Y-88477969D01*
X143561243Y-88404973D01*
X143544116Y-88318870D01*
X143561243Y-88232766D01*
X143610017Y-88159771D01*
X143613556Y-88156231D01*
X143613559Y-88156228D01*
X143960030Y-87809756D01*
X143960036Y-87809751D01*
X143963571Y-87806217D01*
X144036566Y-87757443D01*
X144122670Y-87740316D01*
X144208773Y-87757443D01*
G37*
G36*
X147125400Y-87310430D02*
G01*
X147149732Y-87326688D01*
X147403873Y-87580829D01*
X148083109Y-88260064D01*
X148083110Y-88260066D01*
X148086648Y-88263604D01*
X148102906Y-88287936D01*
X148108615Y-88316637D01*
X148102906Y-88345339D01*
X148086648Y-88369670D01*
X147980582Y-88475736D01*
X147956251Y-88491994D01*
X147927549Y-88497703D01*
X147898848Y-88491994D01*
X147874516Y-88475736D01*
X147176001Y-87777221D01*
X146941138Y-87542359D01*
X146941135Y-87542355D01*
X146937600Y-87538820D01*
X146921342Y-87514488D01*
X146915633Y-87485787D01*
X146921342Y-87457085D01*
X146937600Y-87432754D01*
X146959185Y-87411169D01*
X147040130Y-87330222D01*
X147040136Y-87330217D01*
X147043666Y-87326688D01*
X147067997Y-87310430D01*
X147096699Y-87304721D01*
X147125400Y-87310430D01*
G37*
G36*
X157732003Y-87310430D02*
G01*
X157756334Y-87326688D01*
X157789641Y-87359995D01*
X157858865Y-87429218D01*
X157858867Y-87429221D01*
X157862400Y-87432754D01*
X157878658Y-87457085D01*
X157884367Y-87485787D01*
X157878658Y-87514488D01*
X157862400Y-87538820D01*
X156925484Y-88475736D01*
X156901152Y-88491994D01*
X156872451Y-88497703D01*
X156843749Y-88491994D01*
X156819418Y-88475736D01*
X156742134Y-88398452D01*
X156716886Y-88373205D01*
X156716883Y-88373201D01*
X156713352Y-88369670D01*
X156697094Y-88345339D01*
X156691385Y-88316637D01*
X156697094Y-88287936D01*
X156713352Y-88263604D01*
X156858315Y-88118641D01*
X157646728Y-87330226D01*
X157646734Y-87330221D01*
X157650268Y-87326688D01*
X157674600Y-87310430D01*
X157703301Y-87304721D01*
X157732003Y-87310430D01*
G37*
G36*
X147478954Y-86956876D02*
G01*
X147503286Y-86973134D01*
X147746866Y-87216714D01*
X148436663Y-87906510D01*
X148436664Y-87906512D01*
X148440202Y-87910050D01*
X148456460Y-87934382D01*
X148462169Y-87963083D01*
X148456460Y-87991785D01*
X148440202Y-88016116D01*
X148334136Y-88122182D01*
X148309805Y-88138440D01*
X148281103Y-88144149D01*
X148252402Y-88138440D01*
X148228070Y-88122182D01*
X147535102Y-87429214D01*
X147294692Y-87188805D01*
X147294689Y-87188801D01*
X147291154Y-87185266D01*
X147274896Y-87160934D01*
X147269187Y-87132233D01*
X147274896Y-87103531D01*
X147291154Y-87079200D01*
X147316279Y-87054075D01*
X147393684Y-86976668D01*
X147393690Y-86976663D01*
X147397220Y-86973134D01*
X147421551Y-86956876D01*
X147450253Y-86951167D01*
X147478954Y-86956876D01*
G37*
G36*
X157378449Y-86956876D02*
G01*
X157402780Y-86973134D01*
X157455815Y-87026169D01*
X157505311Y-87075664D01*
X157505313Y-87075667D01*
X157508846Y-87079200D01*
X157525104Y-87103531D01*
X157530813Y-87132233D01*
X157525104Y-87160934D01*
X157508846Y-87185266D01*
X156571930Y-88122182D01*
X156547598Y-88138440D01*
X156518897Y-88144149D01*
X156490195Y-88138440D01*
X156465864Y-88122182D01*
X156412828Y-88069146D01*
X156363332Y-88019651D01*
X156363329Y-88019647D01*
X156359798Y-88016116D01*
X156343540Y-87991785D01*
X156337831Y-87963083D01*
X156343540Y-87934382D01*
X156359798Y-87910050D01*
X156544024Y-87725824D01*
X157293174Y-86976672D01*
X157293180Y-86976667D01*
X157296714Y-86973134D01*
X157321046Y-86956876D01*
X157349747Y-86951167D01*
X157378449Y-86956876D01*
G37*
G36*
X139144000Y-87840000D02*
G01*
X137944000Y-87840000D01*
X137944000Y-86940000D01*
X139144000Y-86940000D01*
X139144000Y-87840000D01*
G37*
G36*
X145275573Y-86690643D02*
G01*
X145348569Y-86739417D01*
X145666767Y-87057615D01*
X145715541Y-87130611D01*
X145732668Y-87216714D01*
X145715541Y-87302818D01*
X145666767Y-87375813D01*
X145313213Y-87729367D01*
X145240218Y-87778141D01*
X145154114Y-87795268D01*
X145068011Y-87778141D01*
X144995015Y-87729367D01*
X144676817Y-87411169D01*
X144628043Y-87338173D01*
X144610916Y-87252070D01*
X144628043Y-87165966D01*
X144676817Y-87092971D01*
X144680356Y-87089431D01*
X144680359Y-87089428D01*
X145026830Y-86742956D01*
X145026836Y-86742951D01*
X145030371Y-86739417D01*
X145103366Y-86690643D01*
X145189470Y-86673516D01*
X145275573Y-86690643D01*
G37*
G36*
X147832507Y-86603323D02*
G01*
X147856839Y-86619581D01*
X148110980Y-86873722D01*
X148790216Y-87552957D01*
X148790217Y-87552959D01*
X148793755Y-87556497D01*
X148810013Y-87580829D01*
X148815722Y-87609530D01*
X148810013Y-87638232D01*
X148793755Y-87662563D01*
X148687689Y-87768629D01*
X148663358Y-87784887D01*
X148634656Y-87790596D01*
X148605955Y-87784887D01*
X148581623Y-87768629D01*
X147888654Y-87075660D01*
X147648245Y-86835252D01*
X147648242Y-86835248D01*
X147644707Y-86831713D01*
X147628449Y-86807381D01*
X147622740Y-86778680D01*
X147628449Y-86749978D01*
X147644707Y-86725647D01*
X147665926Y-86704428D01*
X147747237Y-86623115D01*
X147747243Y-86623110D01*
X147750773Y-86619581D01*
X147775104Y-86603323D01*
X147803806Y-86597614D01*
X147832507Y-86603323D01*
G37*
G36*
X157024896Y-86603323D02*
G01*
X157049227Y-86619581D01*
X157102262Y-86672616D01*
X157151758Y-86722111D01*
X157151760Y-86722114D01*
X157155293Y-86725647D01*
X157171551Y-86749978D01*
X157177260Y-86778680D01*
X157171551Y-86807381D01*
X157155293Y-86831713D01*
X156218377Y-87768629D01*
X156194045Y-87784887D01*
X156165344Y-87790596D01*
X156136642Y-87784887D01*
X156112311Y-87768629D01*
X156059275Y-87715593D01*
X156009779Y-87666098D01*
X156009776Y-87666094D01*
X156006245Y-87662563D01*
X155989987Y-87638232D01*
X155984278Y-87609530D01*
X155989987Y-87580829D01*
X156006245Y-87556497D01*
X156236054Y-87326688D01*
X156939621Y-86623119D01*
X156939627Y-86623114D01*
X156943161Y-86619581D01*
X156967493Y-86603323D01*
X156996194Y-86597614D01*
X157024896Y-86603323D01*
G37*
G36*
X148186061Y-86249769D02*
G01*
X148210393Y-86266027D01*
X148464535Y-86520169D01*
X149143770Y-87199403D01*
X149143771Y-87199405D01*
X149147309Y-87202943D01*
X149163567Y-87227275D01*
X149169276Y-87255976D01*
X149163567Y-87284678D01*
X149147309Y-87309009D01*
X149041243Y-87415075D01*
X149016912Y-87431333D01*
X148988210Y-87437042D01*
X148959509Y-87431333D01*
X148935177Y-87415075D01*
X148242209Y-86722107D01*
X148001799Y-86481698D01*
X148001796Y-86481694D01*
X147998261Y-86478159D01*
X147982003Y-86453827D01*
X147976294Y-86425126D01*
X147982003Y-86396424D01*
X147998261Y-86372093D01*
X148019480Y-86350874D01*
X148100791Y-86269561D01*
X148100797Y-86269556D01*
X148104327Y-86266027D01*
X148128658Y-86249769D01*
X148157360Y-86244060D01*
X148186061Y-86249769D01*
G37*
G36*
X156671342Y-86249769D02*
G01*
X156695673Y-86266027D01*
X156748708Y-86319062D01*
X156798204Y-86368557D01*
X156798206Y-86368560D01*
X156801739Y-86372093D01*
X156817997Y-86396424D01*
X156823706Y-86425126D01*
X156817997Y-86453827D01*
X156801739Y-86478159D01*
X155864823Y-87415075D01*
X155840491Y-87431333D01*
X155811790Y-87437042D01*
X155783088Y-87431333D01*
X155758757Y-87415075D01*
X155681474Y-87337792D01*
X155656225Y-87312544D01*
X155656222Y-87312540D01*
X155652691Y-87309009D01*
X155636433Y-87284678D01*
X155630724Y-87255976D01*
X155636433Y-87227275D01*
X155652691Y-87202943D01*
X155882500Y-86973134D01*
X156586067Y-86269565D01*
X156586073Y-86269560D01*
X156589607Y-86266027D01*
X156613939Y-86249769D01*
X156642640Y-86244060D01*
X156671342Y-86249769D01*
G37*
G36*
X140744000Y-87365000D02*
G01*
X139444000Y-87365000D01*
X139444000Y-86165000D01*
X140744000Y-86165000D01*
X140744000Y-87365000D01*
G37*
G36*
X148539614Y-85896216D02*
G01*
X148563946Y-85912474D01*
X148816472Y-86165000D01*
X149497323Y-86845850D01*
X149497324Y-86845852D01*
X149500862Y-86849390D01*
X149517120Y-86873722D01*
X149522829Y-86902423D01*
X149517120Y-86931125D01*
X149500862Y-86955456D01*
X149394796Y-87061522D01*
X149370465Y-87077780D01*
X149341763Y-87083489D01*
X149313062Y-87077780D01*
X149288730Y-87061522D01*
X148595761Y-86368553D01*
X148355352Y-86128145D01*
X148355349Y-86128141D01*
X148351814Y-86124606D01*
X148335556Y-86100274D01*
X148329847Y-86071573D01*
X148335556Y-86042871D01*
X148351814Y-86018540D01*
X148373033Y-85997321D01*
X148454344Y-85916008D01*
X148454350Y-85916003D01*
X148457880Y-85912474D01*
X148482211Y-85896216D01*
X148510913Y-85890507D01*
X148539614Y-85896216D01*
G37*
G36*
X156317789Y-85896216D02*
G01*
X156342120Y-85912474D01*
X156395155Y-85965509D01*
X156444651Y-86015004D01*
X156444653Y-86015007D01*
X156448186Y-86018540D01*
X156464444Y-86042871D01*
X156470153Y-86071573D01*
X156464444Y-86100274D01*
X156448186Y-86124606D01*
X155511270Y-87061522D01*
X155486938Y-87077780D01*
X155458237Y-87083489D01*
X155429535Y-87077780D01*
X155405204Y-87061522D01*
X155352168Y-87008486D01*
X155302672Y-86958991D01*
X155302669Y-86958987D01*
X155299138Y-86955456D01*
X155282880Y-86931125D01*
X155277171Y-86902423D01*
X155282880Y-86873722D01*
X155299138Y-86849390D01*
X155528947Y-86619581D01*
X156232514Y-85916012D01*
X156232520Y-85916007D01*
X156236054Y-85912474D01*
X156260386Y-85896216D01*
X156289087Y-85890507D01*
X156317789Y-85896216D01*
G37*
G36*
X148893167Y-85542663D02*
G01*
X148917499Y-85558921D01*
X149171640Y-85813062D01*
X149850876Y-86492297D01*
X149850877Y-86492299D01*
X149854415Y-86495837D01*
X149870673Y-86520169D01*
X149876382Y-86548870D01*
X149870673Y-86577572D01*
X149854415Y-86601903D01*
X149748349Y-86707969D01*
X149724018Y-86724227D01*
X149695316Y-86729936D01*
X149666615Y-86724227D01*
X149642283Y-86707969D01*
X148949314Y-86015000D01*
X148708905Y-85774592D01*
X148708902Y-85774588D01*
X148705367Y-85771053D01*
X148689109Y-85746721D01*
X148683400Y-85718020D01*
X148689109Y-85689318D01*
X148705367Y-85664987D01*
X148726586Y-85643768D01*
X148807897Y-85562455D01*
X148807903Y-85562450D01*
X148811433Y-85558921D01*
X148835764Y-85542663D01*
X148864466Y-85536954D01*
X148893167Y-85542663D01*
G37*
G36*
X155964236Y-85542663D02*
G01*
X155988567Y-85558921D01*
X156041602Y-85611956D01*
X156091098Y-85661451D01*
X156091100Y-85661454D01*
X156094633Y-85664987D01*
X156110891Y-85689318D01*
X156116600Y-85718020D01*
X156110891Y-85746721D01*
X156094633Y-85771053D01*
X155157717Y-86707969D01*
X155133385Y-86724227D01*
X155104684Y-86729936D01*
X155075982Y-86724227D01*
X155051651Y-86707969D01*
X154998615Y-86654933D01*
X154949119Y-86605438D01*
X154949116Y-86605434D01*
X154945585Y-86601903D01*
X154929327Y-86577572D01*
X154923618Y-86548870D01*
X154929327Y-86520169D01*
X154945585Y-86495837D01*
X155175395Y-86266027D01*
X155878961Y-85562459D01*
X155878967Y-85562454D01*
X155882501Y-85558921D01*
X155906833Y-85542663D01*
X155935534Y-85536954D01*
X155964236Y-85542663D01*
G37*
G36*
X149246721Y-85189109D02*
G01*
X149271053Y-85205367D01*
X149525195Y-85459509D01*
X150204430Y-86138743D01*
X150204431Y-86138745D01*
X150207969Y-86142283D01*
X150224227Y-86166615D01*
X150229936Y-86195316D01*
X150224227Y-86224018D01*
X150207969Y-86248349D01*
X150101903Y-86354415D01*
X150077572Y-86370673D01*
X150048870Y-86376382D01*
X150020169Y-86370673D01*
X149995837Y-86354415D01*
X149302869Y-85661447D01*
X149062459Y-85421038D01*
X149062456Y-85421034D01*
X149058921Y-85417499D01*
X149042663Y-85393167D01*
X149036954Y-85364466D01*
X149042663Y-85335764D01*
X149058921Y-85311433D01*
X149080140Y-85290214D01*
X149161451Y-85208901D01*
X149161457Y-85208896D01*
X149164987Y-85205367D01*
X149189318Y-85189109D01*
X149218020Y-85183400D01*
X149246721Y-85189109D01*
G37*
G36*
X155610682Y-85189109D02*
G01*
X155635013Y-85205367D01*
X155688048Y-85258402D01*
X155737544Y-85307897D01*
X155737546Y-85307900D01*
X155741079Y-85311433D01*
X155757337Y-85335764D01*
X155763046Y-85364466D01*
X155757337Y-85393167D01*
X155741079Y-85417499D01*
X154804163Y-86354415D01*
X154779831Y-86370673D01*
X154751130Y-86376382D01*
X154722428Y-86370673D01*
X154698097Y-86354415D01*
X154645061Y-86301379D01*
X154595565Y-86251884D01*
X154595562Y-86251880D01*
X154592031Y-86248349D01*
X154575773Y-86224018D01*
X154570064Y-86195316D01*
X154575773Y-86166615D01*
X154592031Y-86142283D01*
X154821840Y-85912474D01*
X155525407Y-85208905D01*
X155525413Y-85208900D01*
X155528947Y-85205367D01*
X155553279Y-85189109D01*
X155581980Y-85183400D01*
X155610682Y-85189109D01*
G37*
G36*
X149600274Y-84835556D02*
G01*
X149624606Y-84851814D01*
X149878747Y-85105955D01*
X150557983Y-85785190D01*
X150557984Y-85785192D01*
X150561522Y-85788730D01*
X150577780Y-85813062D01*
X150583489Y-85841763D01*
X150577780Y-85870465D01*
X150561522Y-85894796D01*
X150455456Y-86000862D01*
X150431125Y-86017120D01*
X150402423Y-86022829D01*
X150373722Y-86017120D01*
X150349390Y-86000862D01*
X149656421Y-85307893D01*
X149416012Y-85067485D01*
X149416009Y-85067481D01*
X149412474Y-85063946D01*
X149396216Y-85039614D01*
X149390507Y-85010913D01*
X149396216Y-84982211D01*
X149412474Y-84957880D01*
X149433693Y-84936661D01*
X149515004Y-84855348D01*
X149515010Y-84855343D01*
X149518540Y-84851814D01*
X149542871Y-84835556D01*
X149571573Y-84829847D01*
X149600274Y-84835556D01*
G37*
G36*
X155257129Y-84835556D02*
G01*
X155281460Y-84851814D01*
X155334495Y-84904849D01*
X155383991Y-84954344D01*
X155383993Y-84954347D01*
X155387526Y-84957880D01*
X155403784Y-84982211D01*
X155409493Y-85010913D01*
X155403784Y-85039614D01*
X155387526Y-85063946D01*
X154450610Y-86000862D01*
X154426278Y-86017120D01*
X154397577Y-86022829D01*
X154368875Y-86017120D01*
X154344544Y-86000862D01*
X154291508Y-85947826D01*
X154242012Y-85898331D01*
X154242009Y-85898327D01*
X154238478Y-85894796D01*
X154222220Y-85870465D01*
X154216511Y-85841763D01*
X154222220Y-85813062D01*
X154238478Y-85788730D01*
X154468287Y-85558921D01*
X155171854Y-84855352D01*
X155171860Y-84855347D01*
X155175394Y-84851814D01*
X155199726Y-84835556D01*
X155228427Y-84829847D01*
X155257129Y-84835556D01*
G37*
G36*
X149953827Y-84482003D02*
G01*
X149978159Y-84498261D01*
X150232300Y-84752402D01*
X150911536Y-85431637D01*
X150911537Y-85431639D01*
X150915075Y-85435177D01*
X150931333Y-85459509D01*
X150937042Y-85488210D01*
X150931333Y-85516912D01*
X150915075Y-85541243D01*
X150809009Y-85647309D01*
X150784678Y-85663567D01*
X150755976Y-85669276D01*
X150727275Y-85663567D01*
X150702943Y-85647309D01*
X150009974Y-84954340D01*
X149769565Y-84713932D01*
X149769562Y-84713928D01*
X149766027Y-84710393D01*
X149749769Y-84686061D01*
X149744060Y-84657360D01*
X149749769Y-84628658D01*
X149766027Y-84604327D01*
X149787247Y-84583107D01*
X149868557Y-84501795D01*
X149868563Y-84501790D01*
X149872093Y-84498261D01*
X149896424Y-84482003D01*
X149925126Y-84476294D01*
X149953827Y-84482003D01*
G37*
G36*
X154903576Y-84482003D02*
G01*
X154927907Y-84498261D01*
X154980942Y-84551296D01*
X155030438Y-84600791D01*
X155030440Y-84600794D01*
X155033973Y-84604327D01*
X155050231Y-84628658D01*
X155055940Y-84657360D01*
X155050231Y-84686061D01*
X155033973Y-84710393D01*
X154097057Y-85647309D01*
X154072725Y-85663567D01*
X154044024Y-85669276D01*
X154015322Y-85663567D01*
X153990991Y-85647309D01*
X153937955Y-85594273D01*
X153888459Y-85544778D01*
X153888456Y-85544774D01*
X153884925Y-85541243D01*
X153868667Y-85516912D01*
X153862958Y-85488210D01*
X153868667Y-85459509D01*
X153884925Y-85435177D01*
X154114735Y-85205367D01*
X154818301Y-84501799D01*
X154818307Y-84501794D01*
X154821841Y-84498261D01*
X154846173Y-84482003D01*
X154874874Y-84476294D01*
X154903576Y-84482003D01*
G37*
G36*
X150307381Y-84128449D02*
G01*
X150331713Y-84144707D01*
X150585854Y-84398848D01*
X151265090Y-85078083D01*
X151265091Y-85078085D01*
X151268629Y-85081623D01*
X151284887Y-85105955D01*
X151290596Y-85134656D01*
X151284887Y-85163358D01*
X151268629Y-85187689D01*
X151162563Y-85293755D01*
X151138232Y-85310013D01*
X151109530Y-85315722D01*
X151080829Y-85310013D01*
X151056497Y-85293755D01*
X150363529Y-84600787D01*
X150123119Y-84360378D01*
X150123116Y-84360374D01*
X150119581Y-84356839D01*
X150103323Y-84332507D01*
X150097614Y-84303806D01*
X150103323Y-84275104D01*
X150119581Y-84250773D01*
X150123121Y-84247233D01*
X150222111Y-84148241D01*
X150222117Y-84148236D01*
X150225647Y-84144707D01*
X150249978Y-84128449D01*
X150278680Y-84122740D01*
X150307381Y-84128449D01*
G37*
G36*
X154550022Y-84128449D02*
G01*
X154574353Y-84144707D01*
X154627388Y-84197742D01*
X154676884Y-84247237D01*
X154676886Y-84247240D01*
X154680419Y-84250773D01*
X154696677Y-84275104D01*
X154702386Y-84303806D01*
X154696677Y-84332507D01*
X154680419Y-84356839D01*
X153743503Y-85293755D01*
X153719171Y-85310013D01*
X153690470Y-85315722D01*
X153661768Y-85310013D01*
X153637437Y-85293755D01*
X153584401Y-85240719D01*
X153534905Y-85191224D01*
X153534902Y-85191220D01*
X153531371Y-85187689D01*
X153515113Y-85163358D01*
X153509404Y-85134656D01*
X153515113Y-85105955D01*
X153531371Y-85081623D01*
X153761180Y-84851814D01*
X154464747Y-84148245D01*
X154464753Y-84148240D01*
X154468287Y-84144707D01*
X154492619Y-84128449D01*
X154521320Y-84122740D01*
X154550022Y-84128449D01*
G37*
G36*
X150660934Y-83774896D02*
G01*
X150685266Y-83791154D01*
X151016852Y-84122740D01*
X151618643Y-84724530D01*
X151618644Y-84724532D01*
X151622182Y-84728070D01*
X151638440Y-84752402D01*
X151644149Y-84781103D01*
X151638440Y-84809805D01*
X151622182Y-84834136D01*
X151516116Y-84940202D01*
X151491785Y-84956460D01*
X151463083Y-84962169D01*
X151434382Y-84956460D01*
X151410050Y-84940202D01*
X150717081Y-84247233D01*
X150476672Y-84006825D01*
X150476669Y-84006821D01*
X150473134Y-84003286D01*
X150456876Y-83978954D01*
X150451167Y-83950253D01*
X150456876Y-83921551D01*
X150473134Y-83897220D01*
X150476674Y-83893680D01*
X150575664Y-83794688D01*
X150575670Y-83794683D01*
X150579200Y-83791154D01*
X150603531Y-83774896D01*
X150632233Y-83769187D01*
X150660934Y-83774896D01*
G37*
G36*
X154196469Y-83774896D02*
G01*
X154220800Y-83791154D01*
X154273835Y-83844189D01*
X154323331Y-83893684D01*
X154323333Y-83893687D01*
X154326866Y-83897220D01*
X154343124Y-83921551D01*
X154348833Y-83950253D01*
X154343124Y-83978954D01*
X154326866Y-84003286D01*
X153389950Y-84940202D01*
X153365618Y-84956460D01*
X153336917Y-84962169D01*
X153308215Y-84956460D01*
X153283884Y-84940202D01*
X153230848Y-84887166D01*
X153181352Y-84837671D01*
X153181349Y-84837667D01*
X153177818Y-84834136D01*
X153161560Y-84809805D01*
X153155851Y-84781103D01*
X153161560Y-84752402D01*
X153177818Y-84728070D01*
X153407627Y-84498261D01*
X154111194Y-83794692D01*
X154111200Y-83794687D01*
X154114734Y-83791154D01*
X154139066Y-83774896D01*
X154167767Y-83769187D01*
X154196469Y-83774896D01*
G37*
G36*
X151014488Y-83421342D02*
G01*
X151038820Y-83437600D01*
X151370407Y-83769187D01*
X151972197Y-84370976D01*
X151972198Y-84370978D01*
X151975736Y-84374516D01*
X151991994Y-84398848D01*
X151997703Y-84427549D01*
X151991994Y-84456251D01*
X151975736Y-84480582D01*
X151869670Y-84586648D01*
X151845339Y-84602906D01*
X151816637Y-84608615D01*
X151787936Y-84602906D01*
X151763604Y-84586648D01*
X151070636Y-83893680D01*
X150830226Y-83653271D01*
X150830223Y-83653267D01*
X150826688Y-83649732D01*
X150810430Y-83625400D01*
X150804721Y-83596699D01*
X150810430Y-83567997D01*
X150826688Y-83543666D01*
X150830228Y-83540126D01*
X150929218Y-83441134D01*
X150929224Y-83441129D01*
X150932754Y-83437600D01*
X150957085Y-83421342D01*
X150985787Y-83415633D01*
X151014488Y-83421342D01*
G37*
G36*
X153842915Y-83421342D02*
G01*
X153867246Y-83437600D01*
X153920279Y-83490633D01*
X153969777Y-83540130D01*
X153969779Y-83540133D01*
X153973312Y-83543666D01*
X153989570Y-83567997D01*
X153995279Y-83596699D01*
X153989570Y-83625400D01*
X153973312Y-83649732D01*
X153036396Y-84586648D01*
X153012064Y-84602906D01*
X152983363Y-84608615D01*
X152954661Y-84602906D01*
X152930330Y-84586648D01*
X152877294Y-84533612D01*
X152827798Y-84484117D01*
X152827795Y-84484113D01*
X152824264Y-84480582D01*
X152808006Y-84456251D01*
X152802297Y-84427549D01*
X152808006Y-84398848D01*
X152824264Y-84374516D01*
X153054073Y-84144707D01*
X153757640Y-83441138D01*
X153757646Y-83441133D01*
X153761180Y-83437600D01*
X153785512Y-83421342D01*
X153814213Y-83415633D01*
X153842915Y-83421342D01*
G37*
G36*
X140744000Y-84015000D02*
G01*
X139444000Y-84015000D01*
X139444000Y-82815000D01*
X140744000Y-82815000D01*
X140744000Y-84015000D01*
G37*
G36*
X155483333Y-82563089D02*
G01*
X155519157Y-82563089D01*
X155548277Y-82571639D01*
X155577295Y-82575460D01*
X155616271Y-82591604D01*
X155655708Y-82603184D01*
X155676523Y-82616561D01*
X155697780Y-82625366D01*
X155736734Y-82655256D01*
X155775430Y-82680125D01*
X155787903Y-82694520D01*
X155801243Y-82704756D01*
X155835824Y-82749824D01*
X155868627Y-82787680D01*
X155874146Y-82799767D01*
X155880633Y-82808220D01*
X155906242Y-82870046D01*
X155927746Y-82917134D01*
X155928809Y-82924529D01*
X155930539Y-82928705D01*
X155942804Y-83021866D01*
X155948000Y-83058000D01*
X155942804Y-83094133D01*
X155930539Y-83187295D01*
X155928809Y-83191470D01*
X155927746Y-83198866D01*
X155906242Y-83245953D01*
X155880633Y-83307780D01*
X155874147Y-83316232D01*
X155868627Y-83328320D01*
X155835820Y-83366180D01*
X155801243Y-83411243D01*
X155787906Y-83421476D01*
X155775430Y-83435875D01*
X155736726Y-83460748D01*
X155697780Y-83490633D01*
X155676527Y-83499435D01*
X155655708Y-83512816D01*
X155616262Y-83524398D01*
X155577295Y-83540539D01*
X155548283Y-83544358D01*
X155519157Y-83552911D01*
X155483326Y-83552911D01*
X155448000Y-83557562D01*
X155412674Y-83552911D01*
X155376843Y-83552911D01*
X155347716Y-83544358D01*
X155318704Y-83540539D01*
X155279733Y-83524397D01*
X155240292Y-83512816D01*
X155219473Y-83499437D01*
X155198219Y-83490633D01*
X155159267Y-83460744D01*
X155120570Y-83435875D01*
X155108095Y-83421478D01*
X155094756Y-83411243D01*
X155060170Y-83366170D01*
X155027373Y-83328320D01*
X155021854Y-83316235D01*
X155015366Y-83307780D01*
X154989747Y-83245929D01*
X154968254Y-83198866D01*
X154967191Y-83191474D01*
X154965460Y-83187295D01*
X154953183Y-83094050D01*
X154948000Y-83058000D01*
X154953183Y-83021949D01*
X154965460Y-82928705D01*
X154967191Y-82924525D01*
X154968254Y-82917134D01*
X154989747Y-82870070D01*
X155015366Y-82808220D01*
X155021854Y-82799763D01*
X155027373Y-82787680D01*
X155060166Y-82749834D01*
X155094756Y-82704756D01*
X155108098Y-82694518D01*
X155120570Y-82680125D01*
X155159263Y-82655258D01*
X155198220Y-82625366D01*
X155219476Y-82616561D01*
X155240292Y-82603184D01*
X155279728Y-82591604D01*
X155318705Y-82575460D01*
X155347722Y-82571639D01*
X155376843Y-82563089D01*
X155412667Y-82563089D01*
X155448000Y-82558437D01*
X155483333Y-82563089D01*
G37*
G36*
X139144000Y-82340000D02*
G01*
X139144000Y-83240000D01*
X137944000Y-83240000D01*
X137944000Y-82379000D01*
X137944000Y-81479000D01*
X139144000Y-81479000D01*
X139144000Y-82340000D01*
G37*
G36*
X152181333Y-81928089D02*
G01*
X152217157Y-81928089D01*
X152246277Y-81936639D01*
X152275295Y-81940460D01*
X152314271Y-81956604D01*
X152353708Y-81968184D01*
X152374523Y-81981561D01*
X152395780Y-81990366D01*
X152434734Y-82020256D01*
X152473430Y-82045125D01*
X152485903Y-82059520D01*
X152499243Y-82069756D01*
X152533824Y-82114824D01*
X152566627Y-82152680D01*
X152572146Y-82164767D01*
X152578633Y-82173220D01*
X152604242Y-82235046D01*
X152625746Y-82282134D01*
X152626809Y-82289529D01*
X152628539Y-82293705D01*
X152640804Y-82386866D01*
X152646000Y-82423000D01*
X152640804Y-82459133D01*
X152628539Y-82552295D01*
X152626809Y-82556470D01*
X152625746Y-82563866D01*
X152604242Y-82610953D01*
X152578633Y-82672780D01*
X152572147Y-82681232D01*
X152566627Y-82693320D01*
X152533820Y-82731180D01*
X152499243Y-82776243D01*
X152485906Y-82786476D01*
X152473430Y-82800875D01*
X152434726Y-82825748D01*
X152395780Y-82855633D01*
X152374527Y-82864435D01*
X152353708Y-82877816D01*
X152314262Y-82889398D01*
X152275295Y-82905539D01*
X152246283Y-82909358D01*
X152217157Y-82917911D01*
X152181326Y-82917911D01*
X152146000Y-82922562D01*
X152110674Y-82917911D01*
X152074843Y-82917911D01*
X152045716Y-82909358D01*
X152016704Y-82905539D01*
X151977733Y-82889397D01*
X151938292Y-82877816D01*
X151917473Y-82864437D01*
X151896219Y-82855633D01*
X151857267Y-82825744D01*
X151818570Y-82800875D01*
X151806095Y-82786478D01*
X151792756Y-82776243D01*
X151758170Y-82731170D01*
X151725373Y-82693320D01*
X151719854Y-82681235D01*
X151713366Y-82672780D01*
X151687747Y-82610929D01*
X151666254Y-82563866D01*
X151665191Y-82556474D01*
X151663460Y-82552295D01*
X151651183Y-82459050D01*
X151646000Y-82423000D01*
X151651183Y-82386949D01*
X151663460Y-82293705D01*
X151665191Y-82289525D01*
X151666254Y-82282134D01*
X151687747Y-82235070D01*
X151713366Y-82173220D01*
X151719854Y-82164763D01*
X151725373Y-82152680D01*
X151758166Y-82114834D01*
X151792756Y-82069756D01*
X151806098Y-82059518D01*
X151818570Y-82045125D01*
X151857263Y-82020258D01*
X151896220Y-81990366D01*
X151917476Y-81981561D01*
X151938292Y-81968184D01*
X151977728Y-81956604D01*
X152016705Y-81940460D01*
X152045722Y-81936639D01*
X152074843Y-81928089D01*
X152110667Y-81928089D01*
X152146000Y-81923437D01*
X152181333Y-81928089D01*
G37*
G36*
X154194789Y-81284259D02*
G01*
X154267785Y-81333033D01*
X154585983Y-81651231D01*
X154634757Y-81724227D01*
X154651884Y-81810330D01*
X154634757Y-81896434D01*
X154585983Y-81969429D01*
X154232429Y-82322983D01*
X154159434Y-82371757D01*
X154073330Y-82388884D01*
X153987227Y-82371757D01*
X153914231Y-82322983D01*
X153596033Y-82004785D01*
X153547259Y-81931789D01*
X153530132Y-81845686D01*
X153547259Y-81759582D01*
X153596033Y-81686587D01*
X153599572Y-81683047D01*
X153599575Y-81683044D01*
X153946046Y-81336572D01*
X153946052Y-81336567D01*
X153949587Y-81333033D01*
X154022582Y-81284259D01*
X154108686Y-81267132D01*
X154194789Y-81284259D01*
G37*
G36*
X140744000Y-81904000D02*
G01*
X139444000Y-81904000D01*
X139444000Y-80704000D01*
X140744000Y-80704000D01*
X140744000Y-81904000D01*
G37*
G36*
X153098773Y-80188243D02*
G01*
X153171769Y-80237017D01*
X153489967Y-80555215D01*
X153538741Y-80628211D01*
X153555868Y-80714314D01*
X153538741Y-80800418D01*
X153489967Y-80873413D01*
X153136413Y-81226967D01*
X153063418Y-81275741D01*
X152977314Y-81292868D01*
X152891211Y-81275741D01*
X152818215Y-81226967D01*
X152500017Y-80908769D01*
X152451243Y-80835773D01*
X152434116Y-80749670D01*
X152451243Y-80663566D01*
X152500017Y-80590571D01*
X152503556Y-80587031D01*
X152503559Y-80587028D01*
X152850030Y-80240556D01*
X152850036Y-80240551D01*
X152853571Y-80237017D01*
X152926566Y-80188243D01*
X153012670Y-80171116D01*
X153098773Y-80188243D01*
G37*
G36*
X146348104Y-78586927D02*
G01*
X146421099Y-78635701D01*
X146469873Y-78708696D01*
X146487000Y-78794800D01*
X146487000Y-79294800D01*
X146469873Y-79380904D01*
X146421099Y-79453899D01*
X146348104Y-79502673D01*
X146262000Y-79519800D01*
X145812000Y-79519800D01*
X145725896Y-79502673D01*
X145652901Y-79453899D01*
X145604127Y-79380904D01*
X145587000Y-79294800D01*
X145587000Y-78794800D01*
X145604127Y-78708696D01*
X145652901Y-78635701D01*
X145725896Y-78586927D01*
X145812000Y-78569800D01*
X146262000Y-78569800D01*
X146348104Y-78586927D01*
G37*
G36*
X147898104Y-78586927D02*
G01*
X147971099Y-78635701D01*
X148019873Y-78708696D01*
X148037000Y-78794800D01*
X148037000Y-79294800D01*
X148019873Y-79380904D01*
X147971099Y-79453899D01*
X147898104Y-79502673D01*
X147812000Y-79519800D01*
X147362000Y-79519800D01*
X147275896Y-79502673D01*
X147202901Y-79453899D01*
X147154127Y-79380904D01*
X147137000Y-79294800D01*
X147137000Y-78794800D01*
X147154127Y-78708696D01*
X147202901Y-78635701D01*
X147275896Y-78586927D01*
X147362000Y-78569800D01*
X147812000Y-78569800D01*
X147898104Y-78586927D01*
G37*
G36*
X140744000Y-78554000D02*
G01*
X139444000Y-78554000D01*
X139444000Y-77354000D01*
X140744000Y-77354000D01*
X140744000Y-78554000D01*
G37*
G36*
X139144000Y-77779000D02*
G01*
X137944000Y-77779000D01*
X137944000Y-76879000D01*
X139144000Y-76879000D01*
X139144000Y-77779000D01*
G37*
G36*
X139387090Y-74457215D02*
G01*
X139574683Y-74514120D01*
X139747570Y-74606530D01*
X139899107Y-74730893D01*
X140023470Y-74882430D01*
X140115880Y-75055317D01*
X140172785Y-75242910D01*
X140192000Y-75438000D01*
X140172785Y-75633090D01*
X140115880Y-75820683D01*
X140023470Y-75993570D01*
X139899107Y-76145107D01*
X139747570Y-76269470D01*
X139574683Y-76361880D01*
X139387090Y-76418785D01*
X139192000Y-76438000D01*
X138996910Y-76418785D01*
X138809317Y-76361880D01*
X138636430Y-76269470D01*
X138484893Y-76145107D01*
X138360530Y-75993570D01*
X138268120Y-75820683D01*
X138211215Y-75633090D01*
X138192000Y-75438000D01*
X138211215Y-75242910D01*
X138268120Y-75055317D01*
X138360530Y-74882430D01*
X138484893Y-74730893D01*
X138636430Y-74606530D01*
X138809317Y-74514120D01*
X138996910Y-74457215D01*
X139192000Y-74438000D01*
X139387090Y-74457215D01*
G37*
G36*
X141927090Y-74457215D02*
G01*
X142114683Y-74514120D01*
X142287570Y-74606530D01*
X142439107Y-74730893D01*
X142563470Y-74882430D01*
X142655880Y-75055317D01*
X142712785Y-75242910D01*
X142732000Y-75438000D01*
X142712785Y-75633090D01*
X142655880Y-75820683D01*
X142563470Y-75993570D01*
X142439107Y-76145107D01*
X142287570Y-76269470D01*
X142114683Y-76361880D01*
X141927090Y-76418785D01*
X141732000Y-76438000D01*
X141536910Y-76418785D01*
X141349317Y-76361880D01*
X141176430Y-76269470D01*
X141024893Y-76145107D01*
X140900530Y-75993570D01*
X140808120Y-75820683D01*
X140751215Y-75633090D01*
X140732000Y-75438000D01*
X140751215Y-75242910D01*
X140808120Y-75055317D01*
X140900530Y-74882430D01*
X141024893Y-74730893D01*
X141176430Y-74606530D01*
X141349317Y-74514120D01*
X141536910Y-74457215D01*
X141732000Y-74438000D01*
X141927090Y-74457215D01*
G37*
G36*
X144467090Y-74457215D02*
G01*
X144654683Y-74514120D01*
X144827570Y-74606530D01*
X144979107Y-74730893D01*
X145103470Y-74882430D01*
X145195880Y-75055317D01*
X145252785Y-75242910D01*
X145272000Y-75438000D01*
X145252785Y-75633090D01*
X145195880Y-75820683D01*
X145103470Y-75993570D01*
X144979107Y-76145107D01*
X144827570Y-76269470D01*
X144654683Y-76361880D01*
X144467090Y-76418785D01*
X144272000Y-76438000D01*
X144076910Y-76418785D01*
X143889317Y-76361880D01*
X143716430Y-76269470D01*
X143564893Y-76145107D01*
X143440530Y-75993570D01*
X143348120Y-75820683D01*
X143291215Y-75633090D01*
X143272000Y-75438000D01*
X143291215Y-75242910D01*
X143348120Y-75055317D01*
X143440530Y-74882430D01*
X143564893Y-74730893D01*
X143716430Y-74606530D01*
X143889317Y-74514120D01*
X144076910Y-74457215D01*
X144272000Y-74438000D01*
X144467090Y-74457215D01*
G37*
G36*
X147007090Y-74457215D02*
G01*
X147194683Y-74514120D01*
X147367570Y-74606530D01*
X147519107Y-74730893D01*
X147643470Y-74882430D01*
X147735880Y-75055317D01*
X147792785Y-75242910D01*
X147812000Y-75438000D01*
X147792785Y-75633090D01*
X147735880Y-75820683D01*
X147643470Y-75993570D01*
X147519107Y-76145107D01*
X147367570Y-76269470D01*
X147194683Y-76361880D01*
X147007090Y-76418785D01*
X146812000Y-76438000D01*
X146616910Y-76418785D01*
X146429317Y-76361880D01*
X146256430Y-76269470D01*
X146104893Y-76145107D01*
X145980530Y-75993570D01*
X145888120Y-75820683D01*
X145831215Y-75633090D01*
X145812000Y-75438000D01*
X145831215Y-75242910D01*
X145888120Y-75055317D01*
X145980530Y-74882430D01*
X146104893Y-74730893D01*
X146256430Y-74606530D01*
X146429317Y-74514120D01*
X146616910Y-74457215D01*
X146812000Y-74438000D01*
X147007090Y-74457215D01*
G37*
G36*
X150154428Y-73312412D02*
G01*
X150267623Y-73359299D01*
X150369496Y-73427368D01*
X150456132Y-73514004D01*
X150524201Y-73615877D01*
X150571088Y-73729072D01*
X150594990Y-73849239D01*
X150598000Y-75160500D01*
X150594990Y-75221761D01*
X150571088Y-75341928D01*
X150524201Y-75455123D01*
X150456132Y-75556996D01*
X150369496Y-75643632D01*
X150267623Y-75711701D01*
X150154428Y-75758588D01*
X150034261Y-75782490D01*
X149911739Y-75782490D01*
X149791572Y-75758588D01*
X149678377Y-75711701D01*
X149576504Y-75643632D01*
X149489868Y-75556996D01*
X149421799Y-75455123D01*
X149421671Y-75454815D01*
X149399563Y-75442999D01*
X149393005Y-75442999D01*
X149393000Y-75443000D01*
X148893000Y-75443000D01*
X148888873Y-75442179D01*
X148837620Y-75436233D01*
X148820109Y-75428501D01*
X148797329Y-75423970D01*
X148772939Y-75407673D01*
X148752211Y-75398521D01*
X148738053Y-75384363D01*
X148716223Y-75369777D01*
X148701636Y-75347946D01*
X148687478Y-75333788D01*
X148678324Y-75313057D01*
X148662030Y-75288671D01*
X148657499Y-75265892D01*
X148649766Y-75248379D01*
X148643818Y-75197117D01*
X148643000Y-75193000D01*
X148643000Y-73818000D01*
X148643818Y-73813885D01*
X148649766Y-73762620D01*
X148657499Y-73745105D01*
X148662030Y-73722329D01*
X148678323Y-73697944D01*
X148687478Y-73677211D01*
X148701638Y-73663050D01*
X148716223Y-73641223D01*
X148738050Y-73626638D01*
X148752211Y-73612478D01*
X148772944Y-73603323D01*
X148797329Y-73587030D01*
X148820105Y-73582499D01*
X148837620Y-73574766D01*
X148888884Y-73568818D01*
X148893000Y-73568000D01*
X149393000Y-73568000D01*
X149397114Y-73568818D01*
X149432835Y-73572962D01*
X149458360Y-73561158D01*
X149489868Y-73514004D01*
X149576504Y-73427368D01*
X149678377Y-73359299D01*
X149791572Y-73312412D01*
X149911739Y-73288510D01*
X150034261Y-73288510D01*
X150154428Y-73312412D01*
G37*
G36*
X158794428Y-73312412D02*
G01*
X158907623Y-73359299D01*
X159009496Y-73427368D01*
X159096132Y-73514004D01*
X159158641Y-73607557D01*
X159184149Y-73619361D01*
X159188942Y-73618806D01*
X159193000Y-73618000D01*
X159693000Y-73618000D01*
X159697116Y-73618818D01*
X159748379Y-73624766D01*
X159765892Y-73632499D01*
X159788671Y-73637030D01*
X159813057Y-73653324D01*
X159833788Y-73662478D01*
X159847946Y-73676636D01*
X159869777Y-73691223D01*
X159884363Y-73713053D01*
X159898521Y-73727211D01*
X159907673Y-73747939D01*
X159923970Y-73772329D01*
X159928501Y-73795109D01*
X159936233Y-73812620D01*
X159942178Y-73863872D01*
X159943000Y-73868000D01*
X159943000Y-75243000D01*
X159942178Y-75247128D01*
X159936233Y-75298379D01*
X159928501Y-75315888D01*
X159923970Y-75338671D01*
X159907672Y-75363062D01*
X159898521Y-75383788D01*
X159884365Y-75397943D01*
X159869777Y-75419777D01*
X159847943Y-75434365D01*
X159833788Y-75448521D01*
X159813062Y-75457672D01*
X159788671Y-75473970D01*
X159765888Y-75478501D01*
X159748379Y-75486233D01*
X159697129Y-75492178D01*
X159693000Y-75493000D01*
X159193000Y-75493000D01*
X159188876Y-75492179D01*
X159159365Y-75488757D01*
X159133841Y-75500559D01*
X159096132Y-75556996D01*
X159009496Y-75643632D01*
X158907623Y-75711701D01*
X158794428Y-75758588D01*
X158674261Y-75782490D01*
X158551739Y-75782490D01*
X158431572Y-75758588D01*
X158318377Y-75711701D01*
X158216504Y-75643632D01*
X158129868Y-75556996D01*
X158061799Y-75455123D01*
X158014912Y-75341928D01*
X157991010Y-75221761D01*
X157988000Y-73910500D01*
X157991010Y-73849239D01*
X158014912Y-73729072D01*
X158061799Y-73615877D01*
X158129868Y-73514004D01*
X158216504Y-73427368D01*
X158318377Y-73359299D01*
X158431572Y-73312412D01*
X158551739Y-73288510D01*
X158674261Y-73288510D01*
X158794428Y-73312412D01*
G37*
G36*
X151393000Y-75685500D02*
G01*
X150793000Y-75685500D01*
X150793000Y-74535500D01*
X151393000Y-74535500D01*
X151393000Y-75685500D01*
G37*
G36*
X152193000Y-75685500D02*
G01*
X151593000Y-75685500D01*
X151593000Y-74535500D01*
X152193000Y-74535500D01*
X152193000Y-75685500D01*
G37*
G36*
X152693000Y-75685500D02*
G01*
X152393000Y-75685500D01*
X152393000Y-74535500D01*
X152693000Y-74535500D01*
X152693000Y-75685500D01*
G37*
G36*
X153193000Y-75685500D02*
G01*
X152893000Y-75685500D01*
X152893000Y-74535500D01*
X153193000Y-74535500D01*
X153193000Y-75685500D01*
G37*
G36*
X153693000Y-75685500D02*
G01*
X153393000Y-75685500D01*
X153393000Y-74535500D01*
X153693000Y-74535500D01*
X153693000Y-75685500D01*
G37*
G36*
X154193000Y-75685500D02*
G01*
X153893000Y-75685500D01*
X153893000Y-74535500D01*
X154193000Y-74535500D01*
X154193000Y-75685500D01*
G37*
G36*
X154693000Y-75685500D02*
G01*
X154393000Y-75685500D01*
X154393000Y-74535500D01*
X154693000Y-74535500D01*
X154693000Y-75685500D01*
G37*
G36*
X155193000Y-75685500D02*
G01*
X154893000Y-75685500D01*
X154893000Y-74535500D01*
X155193000Y-74535500D01*
X155193000Y-75685500D01*
G37*
G36*
X155693000Y-75685500D02*
G01*
X155393000Y-75685500D01*
X155393000Y-74535500D01*
X155693000Y-74535500D01*
X155693000Y-75685500D01*
G37*
G36*
X156193000Y-75685500D02*
G01*
X155893000Y-75685500D01*
X155893000Y-74535500D01*
X156193000Y-74535500D01*
X156193000Y-75685500D01*
G37*
G36*
X156993000Y-75685500D02*
G01*
X156393000Y-75685500D01*
X156393000Y-74535500D01*
X156993000Y-74535500D01*
X156993000Y-75685500D01*
G37*
G36*
X157793000Y-75685500D02*
G01*
X157193000Y-75685500D01*
X157193000Y-74535500D01*
X157793000Y-74535500D01*
X157793000Y-75685500D01*
G37*
G36*
X151430174Y-73715437D02*
G01*
X151459436Y-73715437D01*
X151481978Y-73723641D01*
X151503237Y-73727009D01*
X151533265Y-73742309D01*
X151565500Y-73754042D01*
X151579735Y-73765987D01*
X151593658Y-73773081D01*
X151622175Y-73801598D01*
X151651964Y-73826594D01*
X151658511Y-73837934D01*
X151665418Y-73844841D01*
X151687345Y-73887875D01*
X151708400Y-73924343D01*
X151709708Y-73931766D01*
X151711490Y-73935262D01*
X151721770Y-74000168D01*
X151728000Y-74035500D01*
X151721769Y-74070835D01*
X151711490Y-74135737D01*
X151709709Y-74139231D01*
X151708400Y-74146657D01*
X151687340Y-74183131D01*
X151665418Y-74226158D01*
X151658512Y-74233063D01*
X151651964Y-74244406D01*
X151622168Y-74269407D01*
X151593658Y-74297918D01*
X151579738Y-74305010D01*
X151565500Y-74316958D01*
X151533258Y-74328693D01*
X151503237Y-74343990D01*
X151481983Y-74347356D01*
X151459436Y-74355563D01*
X151430168Y-74355563D01*
X151403000Y-74359866D01*
X151375832Y-74355563D01*
X151346564Y-74355563D01*
X151324017Y-74347356D01*
X151302762Y-74343990D01*
X151272737Y-74328691D01*
X151240500Y-74316958D01*
X151226262Y-74305011D01*
X151212341Y-74297918D01*
X151183824Y-74269401D01*
X151154036Y-74244406D01*
X151147488Y-74233065D01*
X151140581Y-74226158D01*
X151118650Y-74183117D01*
X151097600Y-74146657D01*
X151096291Y-74139234D01*
X151094509Y-74135737D01*
X151084220Y-74070779D01*
X151078000Y-74035500D01*
X151084220Y-74000223D01*
X151094509Y-73935262D01*
X151096291Y-73931763D01*
X151097600Y-73924343D01*
X151118646Y-73887890D01*
X151140581Y-73844841D01*
X151147489Y-73837932D01*
X151154036Y-73826594D01*
X151183818Y-73801603D01*
X151212341Y-73773081D01*
X151226265Y-73765985D01*
X151240500Y-73754042D01*
X151272731Y-73742310D01*
X151302762Y-73727009D01*
X151324022Y-73723641D01*
X151346564Y-73715437D01*
X151375825Y-73715437D01*
X151403000Y-73711133D01*
X151430174Y-73715437D01*
G37*
G36*
X157210174Y-73715437D02*
G01*
X157239436Y-73715437D01*
X157261978Y-73723641D01*
X157283237Y-73727009D01*
X157313265Y-73742309D01*
X157345500Y-73754042D01*
X157359735Y-73765987D01*
X157373658Y-73773081D01*
X157402175Y-73801598D01*
X157431964Y-73826594D01*
X157438511Y-73837934D01*
X157445418Y-73844841D01*
X157467345Y-73887875D01*
X157488400Y-73924343D01*
X157489708Y-73931766D01*
X157491490Y-73935262D01*
X157501770Y-74000168D01*
X157508000Y-74035500D01*
X157501769Y-74070835D01*
X157491490Y-74135737D01*
X157489709Y-74139231D01*
X157488400Y-74146657D01*
X157467340Y-74183131D01*
X157445418Y-74226158D01*
X157438512Y-74233063D01*
X157431964Y-74244406D01*
X157402168Y-74269407D01*
X157373658Y-74297918D01*
X157359738Y-74305010D01*
X157345500Y-74316958D01*
X157313258Y-74328693D01*
X157283237Y-74343990D01*
X157261983Y-74347356D01*
X157239436Y-74355563D01*
X157210168Y-74355563D01*
X157183000Y-74359866D01*
X157155832Y-74355563D01*
X157126564Y-74355563D01*
X157104017Y-74347356D01*
X157082762Y-74343990D01*
X157052737Y-74328691D01*
X157020500Y-74316958D01*
X157006262Y-74305011D01*
X156992341Y-74297918D01*
X156963824Y-74269401D01*
X156934036Y-74244406D01*
X156927488Y-74233065D01*
X156920581Y-74226158D01*
X156898650Y-74183117D01*
X156877600Y-74146657D01*
X156876291Y-74139234D01*
X156874509Y-74135737D01*
X156864220Y-74070779D01*
X156858000Y-74035500D01*
X156864220Y-74000223D01*
X156874509Y-73935262D01*
X156876291Y-73931763D01*
X156877600Y-73924343D01*
X156898646Y-73887890D01*
X156920581Y-73844841D01*
X156927489Y-73837932D01*
X156934036Y-73826594D01*
X156963818Y-73801603D01*
X156992341Y-73773081D01*
X157006265Y-73765985D01*
X157020500Y-73754042D01*
X157052731Y-73742310D01*
X157082762Y-73727009D01*
X157104022Y-73723641D01*
X157126564Y-73715437D01*
X157155825Y-73715437D01*
X157183000Y-73711133D01*
X157210174Y-73715437D01*
G37*
G36*
X139387090Y-71917215D02*
G01*
X139574683Y-71974120D01*
X139747570Y-72066530D01*
X139899107Y-72190893D01*
X140023470Y-72342430D01*
X140115880Y-72515317D01*
X140172785Y-72702910D01*
X140192000Y-72898000D01*
X140172785Y-73093090D01*
X140115880Y-73280683D01*
X140023470Y-73453570D01*
X139899107Y-73605107D01*
X139747570Y-73729470D01*
X139574683Y-73821880D01*
X139387090Y-73878785D01*
X139192000Y-73898000D01*
X138996910Y-73878785D01*
X138809317Y-73821880D01*
X138636430Y-73729470D01*
X138484893Y-73605107D01*
X138360530Y-73453570D01*
X138268120Y-73280683D01*
X138211215Y-73093090D01*
X138192000Y-72898000D01*
X138211215Y-72702910D01*
X138268120Y-72515317D01*
X138360530Y-72342430D01*
X138484893Y-72190893D01*
X138636430Y-72066530D01*
X138809317Y-71974120D01*
X138996910Y-71917215D01*
X139192000Y-71898000D01*
X139387090Y-71917215D01*
G37*
G36*
X141927090Y-71917215D02*
G01*
X142114683Y-71974120D01*
X142287570Y-72066530D01*
X142439107Y-72190893D01*
X142563470Y-72342430D01*
X142655880Y-72515317D01*
X142712785Y-72702910D01*
X142732000Y-72898000D01*
X142712785Y-73093090D01*
X142655880Y-73280683D01*
X142563470Y-73453570D01*
X142439107Y-73605107D01*
X142287570Y-73729470D01*
X142114683Y-73821880D01*
X141927090Y-73878785D01*
X141732000Y-73898000D01*
X141536910Y-73878785D01*
X141349317Y-73821880D01*
X141176430Y-73729470D01*
X141024893Y-73605107D01*
X140900530Y-73453570D01*
X140808120Y-73280683D01*
X140751215Y-73093090D01*
X140732000Y-72898000D01*
X140751215Y-72702910D01*
X140808120Y-72515317D01*
X140900530Y-72342430D01*
X141024893Y-72190893D01*
X141176430Y-72066530D01*
X141349317Y-71974120D01*
X141536910Y-71917215D01*
X141732000Y-71898000D01*
X141927090Y-71917215D01*
G37*
G36*
X144467090Y-71917215D02*
G01*
X144654683Y-71974120D01*
X144827570Y-72066530D01*
X144979107Y-72190893D01*
X145103470Y-72342430D01*
X145195880Y-72515317D01*
X145252785Y-72702910D01*
X145272000Y-72898000D01*
X145252785Y-73093090D01*
X145195880Y-73280683D01*
X145103470Y-73453570D01*
X144979107Y-73605107D01*
X144827570Y-73729470D01*
X144654683Y-73821880D01*
X144467090Y-73878785D01*
X144272000Y-73898000D01*
X144076910Y-73878785D01*
X143889317Y-73821880D01*
X143716430Y-73729470D01*
X143564893Y-73605107D01*
X143440530Y-73453570D01*
X143348120Y-73280683D01*
X143291215Y-73093090D01*
X143272000Y-72898000D01*
X143291215Y-72702910D01*
X143348120Y-72515317D01*
X143440530Y-72342430D01*
X143564893Y-72190893D01*
X143716430Y-72066530D01*
X143889317Y-71974120D01*
X144076910Y-71917215D01*
X144272000Y-71898000D01*
X144467090Y-71917215D01*
G37*
G36*
X147007090Y-71917215D02*
G01*
X147194683Y-71974120D01*
X147367570Y-72066530D01*
X147519107Y-72190893D01*
X147643470Y-72342430D01*
X147735880Y-72515317D01*
X147792785Y-72702910D01*
X147812000Y-72898000D01*
X147792785Y-73093090D01*
X147735880Y-73280683D01*
X147643470Y-73453570D01*
X147519107Y-73605107D01*
X147367570Y-73729470D01*
X147194683Y-73821880D01*
X147007090Y-73878785D01*
X146812000Y-73898000D01*
X146616910Y-73878785D01*
X146429317Y-73821880D01*
X146256430Y-73729470D01*
X146104893Y-73605107D01*
X145980530Y-73453570D01*
X145888120Y-73280683D01*
X145831215Y-73093090D01*
X145812000Y-72898000D01*
X145831215Y-72702910D01*
X145888120Y-72515317D01*
X145980530Y-72342430D01*
X146104893Y-72190893D01*
X146256430Y-72066530D01*
X146429317Y-71974120D01*
X146616910Y-71917215D01*
X146812000Y-71898000D01*
X147007090Y-71917215D01*
G37*
G36*
X150154428Y-69132412D02*
G01*
X150267623Y-69179299D01*
X150369496Y-69247368D01*
X150456132Y-69334004D01*
X150524201Y-69435877D01*
X150571088Y-69549072D01*
X150594990Y-69669239D01*
X150598000Y-70980500D01*
X150594990Y-71041761D01*
X150571088Y-71161928D01*
X150524201Y-71275123D01*
X150456132Y-71376996D01*
X150369496Y-71463632D01*
X150267623Y-71531701D01*
X150154428Y-71578588D01*
X150034261Y-71602490D01*
X149911739Y-71602490D01*
X149791572Y-71578588D01*
X149678377Y-71531701D01*
X149576504Y-71463632D01*
X149489868Y-71376996D01*
X149439756Y-71301998D01*
X149414232Y-71290195D01*
X149397127Y-71292178D01*
X149393000Y-71293000D01*
X148893000Y-71293000D01*
X148888873Y-71292179D01*
X148837620Y-71286233D01*
X148820109Y-71278501D01*
X148797329Y-71273970D01*
X148772939Y-71257673D01*
X148752211Y-71248521D01*
X148738053Y-71234363D01*
X148716223Y-71219777D01*
X148701636Y-71197946D01*
X148687478Y-71183788D01*
X148678324Y-71163057D01*
X148662030Y-71138671D01*
X148657499Y-71115892D01*
X148649766Y-71098379D01*
X148643818Y-71047117D01*
X148643000Y-71043000D01*
X148643000Y-69668000D01*
X148643818Y-69663885D01*
X148649766Y-69612620D01*
X148657499Y-69595105D01*
X148662030Y-69572329D01*
X148678323Y-69547944D01*
X148687478Y-69527211D01*
X148701638Y-69513050D01*
X148716223Y-69491223D01*
X148738050Y-69476638D01*
X148752211Y-69462478D01*
X148772944Y-69453323D01*
X148797329Y-69437030D01*
X148820105Y-69432499D01*
X148837620Y-69424766D01*
X148888884Y-69418818D01*
X148893000Y-69418000D01*
X149393000Y-69418000D01*
X149397114Y-69418818D01*
X149414231Y-69420804D01*
X149439756Y-69409001D01*
X149489868Y-69334004D01*
X149576504Y-69247368D01*
X149678377Y-69179299D01*
X149791572Y-69132412D01*
X149911739Y-69108510D01*
X150034261Y-69108510D01*
X150154428Y-69132412D01*
G37*
G36*
X158794428Y-69132412D02*
G01*
X158907623Y-69179299D01*
X159009496Y-69247368D01*
X159096132Y-69334004D01*
X159115237Y-69362597D01*
X159140761Y-69374401D01*
X159188887Y-69368818D01*
X159193000Y-69368000D01*
X159693000Y-69368000D01*
X159697116Y-69368818D01*
X159748379Y-69374766D01*
X159765892Y-69382499D01*
X159788671Y-69387030D01*
X159813057Y-69403324D01*
X159833788Y-69412478D01*
X159847946Y-69426636D01*
X159869777Y-69441223D01*
X159884363Y-69463053D01*
X159898521Y-69477211D01*
X159907673Y-69497939D01*
X159923970Y-69522329D01*
X159928501Y-69545109D01*
X159936233Y-69562620D01*
X159942178Y-69613872D01*
X159943000Y-69618000D01*
X159943000Y-70993000D01*
X159942178Y-70997128D01*
X159936233Y-71048379D01*
X159928501Y-71065888D01*
X159923970Y-71088671D01*
X159907672Y-71113062D01*
X159898521Y-71133788D01*
X159884365Y-71147943D01*
X159869777Y-71169777D01*
X159847943Y-71184365D01*
X159833788Y-71198521D01*
X159813062Y-71207672D01*
X159788671Y-71223970D01*
X159765888Y-71228501D01*
X159748379Y-71236233D01*
X159697128Y-71242178D01*
X159693000Y-71243000D01*
X159195770Y-71243000D01*
X159170515Y-71259877D01*
X159164201Y-71275123D01*
X159096132Y-71376996D01*
X159009496Y-71463632D01*
X158907623Y-71531701D01*
X158794428Y-71578588D01*
X158674261Y-71602490D01*
X158551739Y-71602490D01*
X158431572Y-71578588D01*
X158318377Y-71531701D01*
X158216504Y-71463632D01*
X158129868Y-71376996D01*
X158061799Y-71275123D01*
X158014912Y-71161928D01*
X157991010Y-71041761D01*
X157988000Y-69730500D01*
X157991010Y-69669239D01*
X158014912Y-69549072D01*
X158061799Y-69435877D01*
X158129868Y-69334004D01*
X158216504Y-69247368D01*
X158318377Y-69179299D01*
X158431572Y-69132412D01*
X158551739Y-69108510D01*
X158674261Y-69108510D01*
X158794428Y-69132412D01*
G37*
G36*
X139387090Y-69377215D02*
G01*
X139574683Y-69434120D01*
X139747570Y-69526530D01*
X139899107Y-69650893D01*
X140023470Y-69802430D01*
X140115880Y-69975317D01*
X140172785Y-70162910D01*
X140192000Y-70358000D01*
X140172785Y-70553090D01*
X140115880Y-70740683D01*
X140023470Y-70913570D01*
X139899107Y-71065107D01*
X139747570Y-71189470D01*
X139574683Y-71281880D01*
X139387090Y-71338785D01*
X139192000Y-71358000D01*
X138996910Y-71338785D01*
X138809317Y-71281880D01*
X138636430Y-71189470D01*
X138484893Y-71065107D01*
X138360530Y-70913570D01*
X138268120Y-70740683D01*
X138211215Y-70553090D01*
X138192000Y-70358000D01*
X138211215Y-70162910D01*
X138268120Y-69975317D01*
X138360530Y-69802430D01*
X138484893Y-69650893D01*
X138636430Y-69526530D01*
X138809317Y-69434120D01*
X138996910Y-69377215D01*
X139192000Y-69358000D01*
X139387090Y-69377215D01*
G37*
G36*
X141927090Y-69377215D02*
G01*
X142114683Y-69434120D01*
X142287570Y-69526530D01*
X142439107Y-69650893D01*
X142563470Y-69802430D01*
X142655880Y-69975317D01*
X142712785Y-70162910D01*
X142732000Y-70358000D01*
X142712785Y-70553090D01*
X142655880Y-70740683D01*
X142563470Y-70913570D01*
X142439107Y-71065107D01*
X142287570Y-71189470D01*
X142114683Y-71281880D01*
X141927090Y-71338785D01*
X141732000Y-71358000D01*
X141536910Y-71338785D01*
X141349317Y-71281880D01*
X141176430Y-71189470D01*
X141024893Y-71065107D01*
X140900530Y-70913570D01*
X140808120Y-70740683D01*
X140751215Y-70553090D01*
X140732000Y-70358000D01*
X140751215Y-70162910D01*
X140808120Y-69975317D01*
X140900530Y-69802430D01*
X141024893Y-69650893D01*
X141176430Y-69526530D01*
X141349317Y-69434120D01*
X141536910Y-69377215D01*
X141732000Y-69358000D01*
X141927090Y-69377215D01*
G37*
G36*
X144467090Y-69377215D02*
G01*
X144654683Y-69434120D01*
X144827570Y-69526530D01*
X144979107Y-69650893D01*
X145103470Y-69802430D01*
X145195880Y-69975317D01*
X145252785Y-70162910D01*
X145272000Y-70358000D01*
X145252785Y-70553090D01*
X145195880Y-70740683D01*
X145103470Y-70913570D01*
X144979107Y-71065107D01*
X144827570Y-71189470D01*
X144654683Y-71281880D01*
X144467090Y-71338785D01*
X144272000Y-71358000D01*
X144076910Y-71338785D01*
X143889317Y-71281880D01*
X143716430Y-71189470D01*
X143564893Y-71065107D01*
X143440530Y-70913570D01*
X143348120Y-70740683D01*
X143291215Y-70553090D01*
X143272000Y-70358000D01*
X143291215Y-70162910D01*
X143348120Y-69975317D01*
X143440530Y-69802430D01*
X143564893Y-69650893D01*
X143716430Y-69526530D01*
X143889317Y-69434120D01*
X144076910Y-69377215D01*
X144272000Y-69358000D01*
X144467090Y-69377215D01*
G37*
G36*
X147007090Y-69377215D02*
G01*
X147194683Y-69434120D01*
X147367570Y-69526530D01*
X147519107Y-69650893D01*
X147643470Y-69802430D01*
X147735880Y-69975317D01*
X147792785Y-70162910D01*
X147812000Y-70358000D01*
X147792785Y-70553090D01*
X147735880Y-70740683D01*
X147643470Y-70913570D01*
X147519107Y-71065107D01*
X147367570Y-71189470D01*
X147194683Y-71281880D01*
X147007090Y-71338785D01*
X146812000Y-71358000D01*
X146616910Y-71338785D01*
X146429317Y-71281880D01*
X146256430Y-71189470D01*
X146104893Y-71065107D01*
X145980530Y-70913570D01*
X145888120Y-70740683D01*
X145831215Y-70553090D01*
X145812000Y-70358000D01*
X145831215Y-70162910D01*
X145888120Y-69975317D01*
X145980530Y-69802430D01*
X146104893Y-69650893D01*
X146256430Y-69526530D01*
X146429317Y-69434120D01*
X146616910Y-69377215D01*
X146812000Y-69358000D01*
X147007090Y-69377215D01*
G37*
M02*
