%TF.GenerationSoftware,KiCad,Pcbnew,8.0.2*%
%TF.CreationDate,2024-08-03T15:43:08+02:00*%
%TF.ProjectId,ant control board v1.3,616e7420-636f-46e7-9472-6f6c20626f61,1.1*%
%TF.SameCoordinates,Original*%
%TF.FileFunction,Legend,Top*%
%TF.FilePolarity,Positive*%
%FSLAX46Y46*%
G04 Gerber Fmt 4.6, Leading zero omitted, Abs format (unit mm)*
G04 Created by KiCad (PCBNEW 8.0.2) date 2024-08-03 15:43:08*
%MOMM*%
%LPD*%
G01*
G04 APERTURE LIST*
%ADD10C,0.150000*%
%ADD11C,0.120000*%
%ADD12C,0.000000*%
%ADD13C,0.254000*%
G04 APERTURE END LIST*
D10*
X143256000Y-91059000D02*
X143046287Y-91348260D01*
X143049667Y-90533700D02*
X143049667Y-90867033D01*
X142816333Y-90167033D02*
X143049667Y-90533700D01*
X143049667Y-90533700D02*
X143283000Y-90167033D01*
X143883000Y-90867033D02*
X143483000Y-90867033D01*
X143683000Y-90867033D02*
X143683000Y-90167033D01*
X143683000Y-90167033D02*
X143616333Y-90267033D01*
X143616333Y-90267033D02*
X143549667Y-90333700D01*
X143549667Y-90333700D02*
X143483000Y-90367033D01*
X142348799Y-81672233D02*
X142115466Y-81338900D01*
X141948799Y-81672233D02*
X141948799Y-80972233D01*
X141948799Y-80972233D02*
X142215466Y-80972233D01*
X142215466Y-80972233D02*
X142282133Y-81005566D01*
X142282133Y-81005566D02*
X142315466Y-81038900D01*
X142315466Y-81038900D02*
X142348799Y-81105566D01*
X142348799Y-81105566D02*
X142348799Y-81205566D01*
X142348799Y-81205566D02*
X142315466Y-81272233D01*
X142315466Y-81272233D02*
X142282133Y-81305566D01*
X142282133Y-81305566D02*
X142215466Y-81338900D01*
X142215466Y-81338900D02*
X141948799Y-81338900D01*
X143015466Y-81672233D02*
X142615466Y-81672233D01*
X142815466Y-81672233D02*
X142815466Y-80972233D01*
X142815466Y-80972233D02*
X142748799Y-81072233D01*
X142748799Y-81072233D02*
X142682133Y-81138900D01*
X142682133Y-81138900D02*
X142615466Y-81172233D01*
X143282133Y-81038900D02*
X143315466Y-81005566D01*
X143315466Y-81005566D02*
X143382133Y-80972233D01*
X143382133Y-80972233D02*
X143548800Y-80972233D01*
X143548800Y-80972233D02*
X143615466Y-81005566D01*
X143615466Y-81005566D02*
X143648800Y-81038900D01*
X143648800Y-81038900D02*
X143682133Y-81105566D01*
X143682133Y-81105566D02*
X143682133Y-81172233D01*
X143682133Y-81172233D02*
X143648800Y-81272233D01*
X143648800Y-81272233D02*
X143248800Y-81672233D01*
X143248800Y-81672233D02*
X143682133Y-81672233D01*
X154823333Y-100265033D02*
X154590000Y-99931700D01*
X154423333Y-100265033D02*
X154423333Y-99565033D01*
X154423333Y-99565033D02*
X154690000Y-99565033D01*
X154690000Y-99565033D02*
X154756667Y-99598366D01*
X154756667Y-99598366D02*
X154790000Y-99631700D01*
X154790000Y-99631700D02*
X154823333Y-99698366D01*
X154823333Y-99698366D02*
X154823333Y-99798366D01*
X154823333Y-99798366D02*
X154790000Y-99865033D01*
X154790000Y-99865033D02*
X154756667Y-99898366D01*
X154756667Y-99898366D02*
X154690000Y-99931700D01*
X154690000Y-99931700D02*
X154423333Y-99931700D01*
X155056667Y-99565033D02*
X155490000Y-99565033D01*
X155490000Y-99565033D02*
X155256667Y-99831700D01*
X155256667Y-99831700D02*
X155356667Y-99831700D01*
X155356667Y-99831700D02*
X155423333Y-99865033D01*
X155423333Y-99865033D02*
X155456667Y-99898366D01*
X155456667Y-99898366D02*
X155490000Y-99965033D01*
X155490000Y-99965033D02*
X155490000Y-100131700D01*
X155490000Y-100131700D02*
X155456667Y-100198366D01*
X155456667Y-100198366D02*
X155423333Y-100231700D01*
X155423333Y-100231700D02*
X155356667Y-100265033D01*
X155356667Y-100265033D02*
X155156667Y-100265033D01*
X155156667Y-100265033D02*
X155090000Y-100231700D01*
X155090000Y-100231700D02*
X155056667Y-100198366D01*
X149829775Y-95166033D02*
X149782635Y-95166033D01*
X149782635Y-95166033D02*
X149688354Y-95118892D01*
X149688354Y-95118892D02*
X149641213Y-95071752D01*
X149641213Y-95071752D02*
X149594073Y-94977471D01*
X149594073Y-94977471D02*
X149594073Y-94883190D01*
X149594073Y-94883190D02*
X149617643Y-94812479D01*
X149617643Y-94812479D02*
X149688354Y-94694628D01*
X149688354Y-94694628D02*
X149759064Y-94623918D01*
X149759064Y-94623918D02*
X149876916Y-94553207D01*
X149876916Y-94553207D02*
X149947626Y-94529637D01*
X149947626Y-94529637D02*
X150041907Y-94529637D01*
X150041907Y-94529637D02*
X150136188Y-94576777D01*
X150136188Y-94576777D02*
X150183328Y-94623918D01*
X150183328Y-94623918D02*
X150230469Y-94718199D01*
X150230469Y-94718199D02*
X150230469Y-94765339D01*
X150018337Y-95448876D02*
X150112618Y-95543156D01*
X150112618Y-95543156D02*
X150183328Y-95566727D01*
X150183328Y-95566727D02*
X150230469Y-95566727D01*
X150230469Y-95566727D02*
X150348320Y-95543156D01*
X150348320Y-95543156D02*
X150466171Y-95472446D01*
X150466171Y-95472446D02*
X150654733Y-95283884D01*
X150654733Y-95283884D02*
X150678303Y-95213173D01*
X150678303Y-95213173D02*
X150678303Y-95166033D01*
X150678303Y-95166033D02*
X150654733Y-95095322D01*
X150654733Y-95095322D02*
X150560452Y-95001041D01*
X150560452Y-95001041D02*
X150489741Y-94977471D01*
X150489741Y-94977471D02*
X150442601Y-94977471D01*
X150442601Y-94977471D02*
X150371890Y-95001041D01*
X150371890Y-95001041D02*
X150254039Y-95118892D01*
X150254039Y-95118892D02*
X150230469Y-95189603D01*
X150230469Y-95189603D02*
X150230469Y-95236743D01*
X150230469Y-95236743D02*
X150254039Y-95307454D01*
X150254039Y-95307454D02*
X150348320Y-95401735D01*
X150348320Y-95401735D02*
X150419031Y-95425305D01*
X150419031Y-95425305D02*
X150466171Y-95425305D01*
X150466171Y-95425305D02*
X150536882Y-95401735D01*
X153299333Y-100265033D02*
X153066000Y-99931700D01*
X152899333Y-100265033D02*
X152899333Y-99565033D01*
X152899333Y-99565033D02*
X153166000Y-99565033D01*
X153166000Y-99565033D02*
X153232667Y-99598366D01*
X153232667Y-99598366D02*
X153266000Y-99631700D01*
X153266000Y-99631700D02*
X153299333Y-99698366D01*
X153299333Y-99698366D02*
X153299333Y-99798366D01*
X153299333Y-99798366D02*
X153266000Y-99865033D01*
X153266000Y-99865033D02*
X153232667Y-99898366D01*
X153232667Y-99898366D02*
X153166000Y-99931700D01*
X153166000Y-99931700D02*
X152899333Y-99931700D01*
X153566000Y-99631700D02*
X153599333Y-99598366D01*
X153599333Y-99598366D02*
X153666000Y-99565033D01*
X153666000Y-99565033D02*
X153832667Y-99565033D01*
X153832667Y-99565033D02*
X153899333Y-99598366D01*
X153899333Y-99598366D02*
X153932667Y-99631700D01*
X153932667Y-99631700D02*
X153966000Y-99698366D01*
X153966000Y-99698366D02*
X153966000Y-99765033D01*
X153966000Y-99765033D02*
X153932667Y-99865033D01*
X153932667Y-99865033D02*
X153532667Y-100265033D01*
X153532667Y-100265033D02*
X153966000Y-100265033D01*
X156347333Y-100198366D02*
X156314000Y-100231700D01*
X156314000Y-100231700D02*
X156214000Y-100265033D01*
X156214000Y-100265033D02*
X156147333Y-100265033D01*
X156147333Y-100265033D02*
X156047333Y-100231700D01*
X156047333Y-100231700D02*
X155980667Y-100165033D01*
X155980667Y-100165033D02*
X155947333Y-100098366D01*
X155947333Y-100098366D02*
X155914000Y-99965033D01*
X155914000Y-99965033D02*
X155914000Y-99865033D01*
X155914000Y-99865033D02*
X155947333Y-99731700D01*
X155947333Y-99731700D02*
X155980667Y-99665033D01*
X155980667Y-99665033D02*
X156047333Y-99598366D01*
X156047333Y-99598366D02*
X156147333Y-99565033D01*
X156147333Y-99565033D02*
X156214000Y-99565033D01*
X156214000Y-99565033D02*
X156314000Y-99598366D01*
X156314000Y-99598366D02*
X156347333Y-99631700D01*
X156947333Y-99798366D02*
X156947333Y-100265033D01*
X156780667Y-99531700D02*
X156614000Y-100031700D01*
X156614000Y-100031700D02*
X157047333Y-100031700D01*
X148839175Y-94073833D02*
X148792035Y-94073833D01*
X148792035Y-94073833D02*
X148697754Y-94026692D01*
X148697754Y-94026692D02*
X148650613Y-93979552D01*
X148650613Y-93979552D02*
X148603473Y-93885271D01*
X148603473Y-93885271D02*
X148603473Y-93790990D01*
X148603473Y-93790990D02*
X148627043Y-93720279D01*
X148627043Y-93720279D02*
X148697754Y-93602428D01*
X148697754Y-93602428D02*
X148768464Y-93531718D01*
X148768464Y-93531718D02*
X148886316Y-93461007D01*
X148886316Y-93461007D02*
X148957026Y-93437437D01*
X148957026Y-93437437D02*
X149051307Y-93437437D01*
X149051307Y-93437437D02*
X149145588Y-93484577D01*
X149145588Y-93484577D02*
X149192728Y-93531718D01*
X149192728Y-93531718D02*
X149239869Y-93625999D01*
X149239869Y-93625999D02*
X149239869Y-93673139D01*
X149357720Y-94120973D02*
X149334150Y-94050263D01*
X149334150Y-94050263D02*
X149334150Y-94003122D01*
X149334150Y-94003122D02*
X149357720Y-93932411D01*
X149357720Y-93932411D02*
X149381290Y-93908841D01*
X149381290Y-93908841D02*
X149452001Y-93885271D01*
X149452001Y-93885271D02*
X149499141Y-93885271D01*
X149499141Y-93885271D02*
X149569852Y-93908841D01*
X149569852Y-93908841D02*
X149664133Y-94003122D01*
X149664133Y-94003122D02*
X149687703Y-94073833D01*
X149687703Y-94073833D02*
X149687703Y-94120973D01*
X149687703Y-94120973D02*
X149664133Y-94191684D01*
X149664133Y-94191684D02*
X149640563Y-94215254D01*
X149640563Y-94215254D02*
X149569852Y-94238824D01*
X149569852Y-94238824D02*
X149522712Y-94238824D01*
X149522712Y-94238824D02*
X149452001Y-94215254D01*
X149452001Y-94215254D02*
X149357720Y-94120973D01*
X149357720Y-94120973D02*
X149287009Y-94097403D01*
X149287009Y-94097403D02*
X149239869Y-94097403D01*
X149239869Y-94097403D02*
X149169158Y-94120973D01*
X149169158Y-94120973D02*
X149074877Y-94215254D01*
X149074877Y-94215254D02*
X149051307Y-94285965D01*
X149051307Y-94285965D02*
X149051307Y-94333105D01*
X149051307Y-94333105D02*
X149074877Y-94403816D01*
X149074877Y-94403816D02*
X149169158Y-94498097D01*
X149169158Y-94498097D02*
X149239869Y-94521667D01*
X149239869Y-94521667D02*
X149287009Y-94521667D01*
X149287009Y-94521667D02*
X149357720Y-94498097D01*
X149357720Y-94498097D02*
X149452001Y-94403816D01*
X149452001Y-94403816D02*
X149475571Y-94333105D01*
X149475571Y-94333105D02*
X149475571Y-94285965D01*
X149475571Y-94285965D02*
X149452001Y-94215254D01*
X142151872Y-87284930D02*
X142104732Y-87284930D01*
X142104732Y-87284930D02*
X142010451Y-87237790D01*
X142010451Y-87237790D02*
X141963311Y-87190649D01*
X141963311Y-87190649D02*
X141916170Y-87096368D01*
X141916170Y-87096368D02*
X141916170Y-87002087D01*
X141916170Y-87002087D02*
X141939740Y-86931377D01*
X141939740Y-86931377D02*
X142010451Y-86813526D01*
X142010451Y-86813526D02*
X142081162Y-86742815D01*
X142081162Y-86742815D02*
X142199013Y-86672104D01*
X142199013Y-86672104D02*
X142269723Y-86648534D01*
X142269723Y-86648534D02*
X142364004Y-86648534D01*
X142364004Y-86648534D02*
X142458285Y-86695674D01*
X142458285Y-86695674D02*
X142505426Y-86742815D01*
X142505426Y-86742815D02*
X142552566Y-86837096D01*
X142552566Y-86837096D02*
X142552566Y-86884236D01*
X142576136Y-87803475D02*
X142293294Y-87520632D01*
X142434715Y-87662054D02*
X142929690Y-87167079D01*
X142929690Y-87167079D02*
X142811839Y-87190649D01*
X142811839Y-87190649D02*
X142717558Y-87190649D01*
X142717558Y-87190649D02*
X142646847Y-87167079D01*
X143236103Y-87473492D02*
X143542516Y-87779905D01*
X143542516Y-87779905D02*
X143188963Y-87803475D01*
X143188963Y-87803475D02*
X143259673Y-87874186D01*
X143259673Y-87874186D02*
X143283243Y-87944897D01*
X143283243Y-87944897D02*
X143283243Y-87992037D01*
X143283243Y-87992037D02*
X143259673Y-88062748D01*
X143259673Y-88062748D02*
X143141822Y-88180599D01*
X143141822Y-88180599D02*
X143071111Y-88204169D01*
X143071111Y-88204169D02*
X143023971Y-88204169D01*
X143023971Y-88204169D02*
X142953260Y-88180599D01*
X142953260Y-88180599D02*
X142811839Y-88039178D01*
X142811839Y-88039178D02*
X142788269Y-87968467D01*
X142788269Y-87968467D02*
X142788269Y-87921326D01*
X141960666Y-99285633D02*
X141960666Y-99852300D01*
X141960666Y-99852300D02*
X141994000Y-99918966D01*
X141994000Y-99918966D02*
X142027333Y-99952300D01*
X142027333Y-99952300D02*
X142094000Y-99985633D01*
X142094000Y-99985633D02*
X142227333Y-99985633D01*
X142227333Y-99985633D02*
X142294000Y-99952300D01*
X142294000Y-99952300D02*
X142327333Y-99918966D01*
X142327333Y-99918966D02*
X142360666Y-99852300D01*
X142360666Y-99852300D02*
X142360666Y-99285633D01*
X142793999Y-99585633D02*
X142727333Y-99552300D01*
X142727333Y-99552300D02*
X142693999Y-99518966D01*
X142693999Y-99518966D02*
X142660666Y-99452300D01*
X142660666Y-99452300D02*
X142660666Y-99418966D01*
X142660666Y-99418966D02*
X142693999Y-99352300D01*
X142693999Y-99352300D02*
X142727333Y-99318966D01*
X142727333Y-99318966D02*
X142793999Y-99285633D01*
X142793999Y-99285633D02*
X142927333Y-99285633D01*
X142927333Y-99285633D02*
X142993999Y-99318966D01*
X142993999Y-99318966D02*
X143027333Y-99352300D01*
X143027333Y-99352300D02*
X143060666Y-99418966D01*
X143060666Y-99418966D02*
X143060666Y-99452300D01*
X143060666Y-99452300D02*
X143027333Y-99518966D01*
X143027333Y-99518966D02*
X142993999Y-99552300D01*
X142993999Y-99552300D02*
X142927333Y-99585633D01*
X142927333Y-99585633D02*
X142793999Y-99585633D01*
X142793999Y-99585633D02*
X142727333Y-99618966D01*
X142727333Y-99618966D02*
X142693999Y-99652300D01*
X142693999Y-99652300D02*
X142660666Y-99718966D01*
X142660666Y-99718966D02*
X142660666Y-99852300D01*
X142660666Y-99852300D02*
X142693999Y-99918966D01*
X142693999Y-99918966D02*
X142727333Y-99952300D01*
X142727333Y-99952300D02*
X142793999Y-99985633D01*
X142793999Y-99985633D02*
X142927333Y-99985633D01*
X142927333Y-99985633D02*
X142993999Y-99952300D01*
X142993999Y-99952300D02*
X143027333Y-99918966D01*
X143027333Y-99918966D02*
X143060666Y-99852300D01*
X143060666Y-99852300D02*
X143060666Y-99718966D01*
X143060666Y-99718966D02*
X143027333Y-99652300D01*
X143027333Y-99652300D02*
X142993999Y-99618966D01*
X142993999Y-99618966D02*
X142927333Y-99585633D01*
X145783333Y-91399366D02*
X145750000Y-91432700D01*
X145750000Y-91432700D02*
X145650000Y-91466033D01*
X145650000Y-91466033D02*
X145583333Y-91466033D01*
X145583333Y-91466033D02*
X145483333Y-91432700D01*
X145483333Y-91432700D02*
X145416667Y-91366033D01*
X145416667Y-91366033D02*
X145383333Y-91299366D01*
X145383333Y-91299366D02*
X145350000Y-91166033D01*
X145350000Y-91166033D02*
X145350000Y-91066033D01*
X145350000Y-91066033D02*
X145383333Y-90932700D01*
X145383333Y-90932700D02*
X145416667Y-90866033D01*
X145416667Y-90866033D02*
X145483333Y-90799366D01*
X145483333Y-90799366D02*
X145583333Y-90766033D01*
X145583333Y-90766033D02*
X145650000Y-90766033D01*
X145650000Y-90766033D02*
X145750000Y-90799366D01*
X145750000Y-90799366D02*
X145783333Y-90832700D01*
X146450000Y-91466033D02*
X146050000Y-91466033D01*
X146250000Y-91466033D02*
X146250000Y-90766033D01*
X146250000Y-90766033D02*
X146183333Y-90866033D01*
X146183333Y-90866033D02*
X146116667Y-90932700D01*
X146116667Y-90932700D02*
X146050000Y-90966033D01*
X142468666Y-76959033D02*
X142468666Y-77525700D01*
X142468666Y-77525700D02*
X142502000Y-77592366D01*
X142502000Y-77592366D02*
X142535333Y-77625700D01*
X142535333Y-77625700D02*
X142602000Y-77659033D01*
X142602000Y-77659033D02*
X142735333Y-77659033D01*
X142735333Y-77659033D02*
X142802000Y-77625700D01*
X142802000Y-77625700D02*
X142835333Y-77592366D01*
X142835333Y-77592366D02*
X142868666Y-77525700D01*
X142868666Y-77525700D02*
X142868666Y-76959033D01*
X143501999Y-77192366D02*
X143501999Y-77659033D01*
X143335333Y-76925700D02*
X143168666Y-77425700D01*
X143168666Y-77425700D02*
X143601999Y-77425700D01*
X148379982Y-68651466D02*
X148779982Y-68651466D01*
X148579982Y-68651466D02*
X148579982Y-69351466D01*
X148579982Y-69351466D02*
X148646649Y-69251466D01*
X148646649Y-69251466D02*
X148713316Y-69184800D01*
X148713316Y-69184800D02*
X148779982Y-69151466D01*
X143218672Y-86319730D02*
X143171532Y-86319730D01*
X143171532Y-86319730D02*
X143077251Y-86272590D01*
X143077251Y-86272590D02*
X143030111Y-86225449D01*
X143030111Y-86225449D02*
X142982970Y-86131168D01*
X142982970Y-86131168D02*
X142982970Y-86036887D01*
X142982970Y-86036887D02*
X143006540Y-85966177D01*
X143006540Y-85966177D02*
X143077251Y-85848326D01*
X143077251Y-85848326D02*
X143147962Y-85777615D01*
X143147962Y-85777615D02*
X143265813Y-85706904D01*
X143265813Y-85706904D02*
X143336523Y-85683334D01*
X143336523Y-85683334D02*
X143430804Y-85683334D01*
X143430804Y-85683334D02*
X143525085Y-85730474D01*
X143525085Y-85730474D02*
X143572226Y-85777615D01*
X143572226Y-85777615D02*
X143619366Y-85871896D01*
X143619366Y-85871896D02*
X143619366Y-85919036D01*
X143642936Y-86838275D02*
X143360094Y-86555432D01*
X143501515Y-86696854D02*
X143996490Y-86201879D01*
X143996490Y-86201879D02*
X143878639Y-86225449D01*
X143878639Y-86225449D02*
X143784358Y-86225449D01*
X143784358Y-86225449D02*
X143713647Y-86201879D01*
X144279333Y-86579003D02*
X144326473Y-86579003D01*
X144326473Y-86579003D02*
X144397184Y-86602573D01*
X144397184Y-86602573D02*
X144515035Y-86720424D01*
X144515035Y-86720424D02*
X144538605Y-86791135D01*
X144538605Y-86791135D02*
X144538605Y-86838275D01*
X144538605Y-86838275D02*
X144515035Y-86908986D01*
X144515035Y-86908986D02*
X144467895Y-86956126D01*
X144467895Y-86956126D02*
X144373614Y-87003267D01*
X144373614Y-87003267D02*
X143807928Y-87003267D01*
X143807928Y-87003267D02*
X144114341Y-87309680D01*
X139554799Y-98410833D02*
X139321466Y-98077500D01*
X139154799Y-98410833D02*
X139154799Y-97710833D01*
X139154799Y-97710833D02*
X139421466Y-97710833D01*
X139421466Y-97710833D02*
X139488133Y-97744166D01*
X139488133Y-97744166D02*
X139521466Y-97777500D01*
X139521466Y-97777500D02*
X139554799Y-97844166D01*
X139554799Y-97844166D02*
X139554799Y-97944166D01*
X139554799Y-97944166D02*
X139521466Y-98010833D01*
X139521466Y-98010833D02*
X139488133Y-98044166D01*
X139488133Y-98044166D02*
X139421466Y-98077500D01*
X139421466Y-98077500D02*
X139154799Y-98077500D01*
X140221466Y-98410833D02*
X139821466Y-98410833D01*
X140021466Y-98410833D02*
X140021466Y-97710833D01*
X140021466Y-97710833D02*
X139954799Y-97810833D01*
X139954799Y-97810833D02*
X139888133Y-97877500D01*
X139888133Y-97877500D02*
X139821466Y-97910833D01*
X140454800Y-97710833D02*
X140888133Y-97710833D01*
X140888133Y-97710833D02*
X140654800Y-97977500D01*
X140654800Y-97977500D02*
X140754800Y-97977500D01*
X140754800Y-97977500D02*
X140821466Y-98010833D01*
X140821466Y-98010833D02*
X140854800Y-98044166D01*
X140854800Y-98044166D02*
X140888133Y-98110833D01*
X140888133Y-98110833D02*
X140888133Y-98277500D01*
X140888133Y-98277500D02*
X140854800Y-98344166D01*
X140854800Y-98344166D02*
X140821466Y-98377500D01*
X140821466Y-98377500D02*
X140754800Y-98410833D01*
X140754800Y-98410833D02*
X140554800Y-98410833D01*
X140554800Y-98410833D02*
X140488133Y-98377500D01*
X140488133Y-98377500D02*
X140454800Y-98344166D01*
X146783333Y-93716033D02*
X146550000Y-93382700D01*
X146383333Y-93716033D02*
X146383333Y-93016033D01*
X146383333Y-93016033D02*
X146650000Y-93016033D01*
X146650000Y-93016033D02*
X146716667Y-93049366D01*
X146716667Y-93049366D02*
X146750000Y-93082700D01*
X146750000Y-93082700D02*
X146783333Y-93149366D01*
X146783333Y-93149366D02*
X146783333Y-93249366D01*
X146783333Y-93249366D02*
X146750000Y-93316033D01*
X146750000Y-93316033D02*
X146716667Y-93349366D01*
X146716667Y-93349366D02*
X146650000Y-93382700D01*
X146650000Y-93382700D02*
X146383333Y-93382700D01*
X147383333Y-93249366D02*
X147383333Y-93716033D01*
X147216667Y-92982700D02*
X147050000Y-93482700D01*
X147050000Y-93482700D02*
X147483333Y-93482700D01*
X139695175Y-96867833D02*
X139648035Y-96867833D01*
X139648035Y-96867833D02*
X139553754Y-96820692D01*
X139553754Y-96820692D02*
X139506613Y-96773552D01*
X139506613Y-96773552D02*
X139459473Y-96679271D01*
X139459473Y-96679271D02*
X139459473Y-96584990D01*
X139459473Y-96584990D02*
X139483043Y-96514279D01*
X139483043Y-96514279D02*
X139553754Y-96396428D01*
X139553754Y-96396428D02*
X139624464Y-96325718D01*
X139624464Y-96325718D02*
X139742316Y-96255007D01*
X139742316Y-96255007D02*
X139813026Y-96231437D01*
X139813026Y-96231437D02*
X139907307Y-96231437D01*
X139907307Y-96231437D02*
X140001588Y-96278577D01*
X140001588Y-96278577D02*
X140048728Y-96325718D01*
X140048728Y-96325718D02*
X140095869Y-96419999D01*
X140095869Y-96419999D02*
X140095869Y-96467139D01*
X140284431Y-96655701D02*
X140331571Y-96655701D01*
X140331571Y-96655701D02*
X140402282Y-96679271D01*
X140402282Y-96679271D02*
X140520133Y-96797122D01*
X140520133Y-96797122D02*
X140543703Y-96867833D01*
X140543703Y-96867833D02*
X140543703Y-96914973D01*
X140543703Y-96914973D02*
X140520133Y-96985684D01*
X140520133Y-96985684D02*
X140472993Y-97032824D01*
X140472993Y-97032824D02*
X140378712Y-97079965D01*
X140378712Y-97079965D02*
X139813026Y-97079965D01*
X139813026Y-97079965D02*
X140119439Y-97386378D01*
X156652133Y-96023233D02*
X156418800Y-95689900D01*
X156252133Y-96023233D02*
X156252133Y-95323233D01*
X156252133Y-95323233D02*
X156518800Y-95323233D01*
X156518800Y-95323233D02*
X156585467Y-95356566D01*
X156585467Y-95356566D02*
X156618800Y-95389900D01*
X156618800Y-95389900D02*
X156652133Y-95456566D01*
X156652133Y-95456566D02*
X156652133Y-95556566D01*
X156652133Y-95556566D02*
X156618800Y-95623233D01*
X156618800Y-95623233D02*
X156585467Y-95656566D01*
X156585467Y-95656566D02*
X156518800Y-95689900D01*
X156518800Y-95689900D02*
X156252133Y-95689900D01*
X157318800Y-96023233D02*
X156918800Y-96023233D01*
X157118800Y-96023233D02*
X157118800Y-95323233D01*
X157118800Y-95323233D02*
X157052133Y-95423233D01*
X157052133Y-95423233D02*
X156985467Y-95489900D01*
X156985467Y-95489900D02*
X156918800Y-95523233D01*
X150838672Y-96174930D02*
X150791532Y-96174930D01*
X150791532Y-96174930D02*
X150697251Y-96127790D01*
X150697251Y-96127790D02*
X150650111Y-96080649D01*
X150650111Y-96080649D02*
X150602970Y-95986368D01*
X150602970Y-95986368D02*
X150602970Y-95892087D01*
X150602970Y-95892087D02*
X150626540Y-95821377D01*
X150626540Y-95821377D02*
X150697251Y-95703526D01*
X150697251Y-95703526D02*
X150767962Y-95632815D01*
X150767962Y-95632815D02*
X150885813Y-95562104D01*
X150885813Y-95562104D02*
X150956523Y-95538534D01*
X150956523Y-95538534D02*
X151050804Y-95538534D01*
X151050804Y-95538534D02*
X151145085Y-95585674D01*
X151145085Y-95585674D02*
X151192226Y-95632815D01*
X151192226Y-95632815D02*
X151239366Y-95727096D01*
X151239366Y-95727096D02*
X151239366Y-95774236D01*
X151262936Y-96693475D02*
X150980094Y-96410632D01*
X151121515Y-96552054D02*
X151616490Y-96057079D01*
X151616490Y-96057079D02*
X151498639Y-96080649D01*
X151498639Y-96080649D02*
X151404358Y-96080649D01*
X151404358Y-96080649D02*
X151333647Y-96057079D01*
X152182175Y-96622765D02*
X152087895Y-96528484D01*
X152087895Y-96528484D02*
X152017184Y-96504913D01*
X152017184Y-96504913D02*
X151970043Y-96504913D01*
X151970043Y-96504913D02*
X151852192Y-96528484D01*
X151852192Y-96528484D02*
X151734341Y-96599194D01*
X151734341Y-96599194D02*
X151545779Y-96787756D01*
X151545779Y-96787756D02*
X151522209Y-96858467D01*
X151522209Y-96858467D02*
X151522209Y-96905607D01*
X151522209Y-96905607D02*
X151545779Y-96976318D01*
X151545779Y-96976318D02*
X151640060Y-97070599D01*
X151640060Y-97070599D02*
X151710771Y-97094169D01*
X151710771Y-97094169D02*
X151757911Y-97094169D01*
X151757911Y-97094169D02*
X151828622Y-97070599D01*
X151828622Y-97070599D02*
X151946473Y-96952748D01*
X151946473Y-96952748D02*
X151970043Y-96882037D01*
X151970043Y-96882037D02*
X151970043Y-96834897D01*
X151970043Y-96834897D02*
X151946473Y-96764186D01*
X151946473Y-96764186D02*
X151852192Y-96669905D01*
X151852192Y-96669905D02*
X151781482Y-96646335D01*
X151781482Y-96646335D02*
X151734341Y-96646335D01*
X151734341Y-96646335D02*
X151663630Y-96669905D01*
X149263872Y-99680130D02*
X149216732Y-99680130D01*
X149216732Y-99680130D02*
X149122451Y-99632990D01*
X149122451Y-99632990D02*
X149075311Y-99585849D01*
X149075311Y-99585849D02*
X149028170Y-99491568D01*
X149028170Y-99491568D02*
X149028170Y-99397287D01*
X149028170Y-99397287D02*
X149051740Y-99326577D01*
X149051740Y-99326577D02*
X149122451Y-99208726D01*
X149122451Y-99208726D02*
X149193162Y-99138015D01*
X149193162Y-99138015D02*
X149311013Y-99067304D01*
X149311013Y-99067304D02*
X149381723Y-99043734D01*
X149381723Y-99043734D02*
X149476004Y-99043734D01*
X149476004Y-99043734D02*
X149570285Y-99090874D01*
X149570285Y-99090874D02*
X149617426Y-99138015D01*
X149617426Y-99138015D02*
X149664566Y-99232296D01*
X149664566Y-99232296D02*
X149664566Y-99279436D01*
X149688136Y-100198675D02*
X149405294Y-99915832D01*
X149546715Y-100057254D02*
X150041690Y-99562279D01*
X150041690Y-99562279D02*
X149923839Y-99585849D01*
X149923839Y-99585849D02*
X149829558Y-99585849D01*
X149829558Y-99585849D02*
X149758847Y-99562279D01*
X150630946Y-100151535D02*
X150395243Y-99915833D01*
X150395243Y-99915833D02*
X150135971Y-100127965D01*
X150135971Y-100127965D02*
X150183111Y-100127965D01*
X150183111Y-100127965D02*
X150253822Y-100151535D01*
X150253822Y-100151535D02*
X150371673Y-100269386D01*
X150371673Y-100269386D02*
X150395243Y-100340097D01*
X150395243Y-100340097D02*
X150395243Y-100387237D01*
X150395243Y-100387237D02*
X150371673Y-100457948D01*
X150371673Y-100457948D02*
X150253822Y-100575799D01*
X150253822Y-100575799D02*
X150183111Y-100599369D01*
X150183111Y-100599369D02*
X150135971Y-100599369D01*
X150135971Y-100599369D02*
X150065260Y-100575799D01*
X150065260Y-100575799D02*
X149947409Y-100457948D01*
X149947409Y-100457948D02*
X149923839Y-100387237D01*
X149923839Y-100387237D02*
X149923839Y-100340097D01*
X142653599Y-82799366D02*
X142620266Y-82832700D01*
X142620266Y-82832700D02*
X142520266Y-82866033D01*
X142520266Y-82866033D02*
X142453599Y-82866033D01*
X142453599Y-82866033D02*
X142353599Y-82832700D01*
X142353599Y-82832700D02*
X142286933Y-82766033D01*
X142286933Y-82766033D02*
X142253599Y-82699366D01*
X142253599Y-82699366D02*
X142220266Y-82566033D01*
X142220266Y-82566033D02*
X142220266Y-82466033D01*
X142220266Y-82466033D02*
X142253599Y-82332700D01*
X142253599Y-82332700D02*
X142286933Y-82266033D01*
X142286933Y-82266033D02*
X142353599Y-82199366D01*
X142353599Y-82199366D02*
X142453599Y-82166033D01*
X142453599Y-82166033D02*
X142520266Y-82166033D01*
X142520266Y-82166033D02*
X142620266Y-82199366D01*
X142620266Y-82199366D02*
X142653599Y-82232700D01*
X142886933Y-82166033D02*
X143320266Y-82166033D01*
X143320266Y-82166033D02*
X143086933Y-82432700D01*
X143086933Y-82432700D02*
X143186933Y-82432700D01*
X143186933Y-82432700D02*
X143253599Y-82466033D01*
X143253599Y-82466033D02*
X143286933Y-82499366D01*
X143286933Y-82499366D02*
X143320266Y-82566033D01*
X143320266Y-82566033D02*
X143320266Y-82732700D01*
X143320266Y-82732700D02*
X143286933Y-82799366D01*
X143286933Y-82799366D02*
X143253599Y-82832700D01*
X143253599Y-82832700D02*
X143186933Y-82866033D01*
X143186933Y-82866033D02*
X142986933Y-82866033D01*
X142986933Y-82866033D02*
X142920266Y-82832700D01*
X142920266Y-82832700D02*
X142886933Y-82799366D01*
X143986933Y-82866033D02*
X143586933Y-82866033D01*
X143786933Y-82866033D02*
X143786933Y-82166033D01*
X143786933Y-82166033D02*
X143720266Y-82266033D01*
X143720266Y-82266033D02*
X143653600Y-82332700D01*
X143653600Y-82332700D02*
X143586933Y-82366033D01*
X157592130Y-94220527D02*
X157592130Y-94267667D01*
X157592130Y-94267667D02*
X157544990Y-94361948D01*
X157544990Y-94361948D02*
X157497849Y-94409088D01*
X157497849Y-94409088D02*
X157403568Y-94456229D01*
X157403568Y-94456229D02*
X157309287Y-94456229D01*
X157309287Y-94456229D02*
X157238577Y-94432659D01*
X157238577Y-94432659D02*
X157120726Y-94361948D01*
X157120726Y-94361948D02*
X157050015Y-94291237D01*
X157050015Y-94291237D02*
X156979304Y-94173386D01*
X156979304Y-94173386D02*
X156955734Y-94102676D01*
X156955734Y-94102676D02*
X156955734Y-94008395D01*
X156955734Y-94008395D02*
X157002874Y-93914114D01*
X157002874Y-93914114D02*
X157050015Y-93866973D01*
X157050015Y-93866973D02*
X157144296Y-93819833D01*
X157144296Y-93819833D02*
X157191436Y-93819833D01*
X158110675Y-93796263D02*
X157827832Y-94079105D01*
X157969254Y-93937684D02*
X157474279Y-93442709D01*
X157474279Y-93442709D02*
X157497849Y-93560560D01*
X157497849Y-93560560D02*
X157497849Y-93654841D01*
X157497849Y-93654841D02*
X157474279Y-93725552D01*
X157922113Y-92994875D02*
X157969254Y-92947734D01*
X157969254Y-92947734D02*
X158039965Y-92924164D01*
X158039965Y-92924164D02*
X158087105Y-92924164D01*
X158087105Y-92924164D02*
X158157816Y-92947734D01*
X158157816Y-92947734D02*
X158275667Y-93018445D01*
X158275667Y-93018445D02*
X158393518Y-93136296D01*
X158393518Y-93136296D02*
X158464229Y-93254147D01*
X158464229Y-93254147D02*
X158487799Y-93324858D01*
X158487799Y-93324858D02*
X158487799Y-93371998D01*
X158487799Y-93371998D02*
X158464229Y-93442709D01*
X158464229Y-93442709D02*
X158417088Y-93489849D01*
X158417088Y-93489849D02*
X158346378Y-93513420D01*
X158346378Y-93513420D02*
X158299237Y-93513420D01*
X158299237Y-93513420D02*
X158228526Y-93489849D01*
X158228526Y-93489849D02*
X158110675Y-93419139D01*
X158110675Y-93419139D02*
X157992824Y-93301288D01*
X157992824Y-93301288D02*
X157922113Y-93183436D01*
X157922113Y-93183436D02*
X157898543Y-93112726D01*
X157898543Y-93112726D02*
X157898543Y-93065585D01*
X157898543Y-93065585D02*
X157922113Y-92994875D01*
X141869333Y-89978033D02*
X141636000Y-89644700D01*
X141469333Y-89978033D02*
X141469333Y-89278033D01*
X141469333Y-89278033D02*
X141736000Y-89278033D01*
X141736000Y-89278033D02*
X141802667Y-89311366D01*
X141802667Y-89311366D02*
X141836000Y-89344700D01*
X141836000Y-89344700D02*
X141869333Y-89411366D01*
X141869333Y-89411366D02*
X141869333Y-89511366D01*
X141869333Y-89511366D02*
X141836000Y-89578033D01*
X141836000Y-89578033D02*
X141802667Y-89611366D01*
X141802667Y-89611366D02*
X141736000Y-89644700D01*
X141736000Y-89644700D02*
X141469333Y-89644700D01*
X142502667Y-89278033D02*
X142169333Y-89278033D01*
X142169333Y-89278033D02*
X142136000Y-89611366D01*
X142136000Y-89611366D02*
X142169333Y-89578033D01*
X142169333Y-89578033D02*
X142236000Y-89544700D01*
X142236000Y-89544700D02*
X142402667Y-89544700D01*
X142402667Y-89544700D02*
X142469333Y-89578033D01*
X142469333Y-89578033D02*
X142502667Y-89611366D01*
X142502667Y-89611366D02*
X142536000Y-89678033D01*
X142536000Y-89678033D02*
X142536000Y-89844700D01*
X142536000Y-89844700D02*
X142502667Y-89911366D01*
X142502667Y-89911366D02*
X142469333Y-89944700D01*
X142469333Y-89944700D02*
X142402667Y-89978033D01*
X142402667Y-89978033D02*
X142236000Y-89978033D01*
X142236000Y-89978033D02*
X142169333Y-89944700D01*
X142169333Y-89944700D02*
X142136000Y-89911366D01*
X152449999Y-79899366D02*
X152416666Y-79932700D01*
X152416666Y-79932700D02*
X152316666Y-79966033D01*
X152316666Y-79966033D02*
X152249999Y-79966033D01*
X152249999Y-79966033D02*
X152149999Y-79932700D01*
X152149999Y-79932700D02*
X152083333Y-79866033D01*
X152083333Y-79866033D02*
X152049999Y-79799366D01*
X152049999Y-79799366D02*
X152016666Y-79666033D01*
X152016666Y-79666033D02*
X152016666Y-79566033D01*
X152016666Y-79566033D02*
X152049999Y-79432700D01*
X152049999Y-79432700D02*
X152083333Y-79366033D01*
X152083333Y-79366033D02*
X152149999Y-79299366D01*
X152149999Y-79299366D02*
X152249999Y-79266033D01*
X152249999Y-79266033D02*
X152316666Y-79266033D01*
X152316666Y-79266033D02*
X152416666Y-79299366D01*
X152416666Y-79299366D02*
X152449999Y-79332700D01*
X153116666Y-79966033D02*
X152716666Y-79966033D01*
X152916666Y-79966033D02*
X152916666Y-79266033D01*
X152916666Y-79266033D02*
X152849999Y-79366033D01*
X152849999Y-79366033D02*
X152783333Y-79432700D01*
X152783333Y-79432700D02*
X152716666Y-79466033D01*
X153783333Y-79966033D02*
X153383333Y-79966033D01*
X153583333Y-79966033D02*
X153583333Y-79266033D01*
X153583333Y-79266033D02*
X153516666Y-79366033D01*
X153516666Y-79366033D02*
X153450000Y-79432700D01*
X153450000Y-79432700D02*
X153383333Y-79466033D01*
X144195866Y-99311033D02*
X144195866Y-99877700D01*
X144195866Y-99877700D02*
X144229200Y-99944366D01*
X144229200Y-99944366D02*
X144262533Y-99977700D01*
X144262533Y-99977700D02*
X144329200Y-100011033D01*
X144329200Y-100011033D02*
X144462533Y-100011033D01*
X144462533Y-100011033D02*
X144529200Y-99977700D01*
X144529200Y-99977700D02*
X144562533Y-99944366D01*
X144562533Y-99944366D02*
X144595866Y-99877700D01*
X144595866Y-99877700D02*
X144595866Y-99311033D01*
X144962533Y-100011033D02*
X145095866Y-100011033D01*
X145095866Y-100011033D02*
X145162533Y-99977700D01*
X145162533Y-99977700D02*
X145195866Y-99944366D01*
X145195866Y-99944366D02*
X145262533Y-99844366D01*
X145262533Y-99844366D02*
X145295866Y-99711033D01*
X145295866Y-99711033D02*
X145295866Y-99444366D01*
X145295866Y-99444366D02*
X145262533Y-99377700D01*
X145262533Y-99377700D02*
X145229199Y-99344366D01*
X145229199Y-99344366D02*
X145162533Y-99311033D01*
X145162533Y-99311033D02*
X145029199Y-99311033D01*
X145029199Y-99311033D02*
X144962533Y-99344366D01*
X144962533Y-99344366D02*
X144929199Y-99377700D01*
X144929199Y-99377700D02*
X144895866Y-99444366D01*
X144895866Y-99444366D02*
X144895866Y-99611033D01*
X144895866Y-99611033D02*
X144929199Y-99677700D01*
X144929199Y-99677700D02*
X144962533Y-99711033D01*
X144962533Y-99711033D02*
X145029199Y-99744366D01*
X145029199Y-99744366D02*
X145162533Y-99744366D01*
X145162533Y-99744366D02*
X145229199Y-99711033D01*
X145229199Y-99711033D02*
X145262533Y-99677700D01*
X145262533Y-99677700D02*
X145295866Y-99611033D01*
X146720733Y-78278166D02*
X146687400Y-78311500D01*
X146687400Y-78311500D02*
X146587400Y-78344833D01*
X146587400Y-78344833D02*
X146520733Y-78344833D01*
X146520733Y-78344833D02*
X146420733Y-78311500D01*
X146420733Y-78311500D02*
X146354067Y-78244833D01*
X146354067Y-78244833D02*
X146320733Y-78178166D01*
X146320733Y-78178166D02*
X146287400Y-78044833D01*
X146287400Y-78044833D02*
X146287400Y-77944833D01*
X146287400Y-77944833D02*
X146320733Y-77811500D01*
X146320733Y-77811500D02*
X146354067Y-77744833D01*
X146354067Y-77744833D02*
X146420733Y-77678166D01*
X146420733Y-77678166D02*
X146520733Y-77644833D01*
X146520733Y-77644833D02*
X146587400Y-77644833D01*
X146587400Y-77644833D02*
X146687400Y-77678166D01*
X146687400Y-77678166D02*
X146720733Y-77711500D01*
X146954067Y-77644833D02*
X147387400Y-77644833D01*
X147387400Y-77644833D02*
X147154067Y-77911500D01*
X147154067Y-77911500D02*
X147254067Y-77911500D01*
X147254067Y-77911500D02*
X147320733Y-77944833D01*
X147320733Y-77944833D02*
X147354067Y-77978166D01*
X147354067Y-77978166D02*
X147387400Y-78044833D01*
X147387400Y-78044833D02*
X147387400Y-78211500D01*
X147387400Y-78211500D02*
X147354067Y-78278166D01*
X147354067Y-78278166D02*
X147320733Y-78311500D01*
X147320733Y-78311500D02*
X147254067Y-78344833D01*
X147254067Y-78344833D02*
X147054067Y-78344833D01*
X147054067Y-78344833D02*
X146987400Y-78311500D01*
X146987400Y-78311500D02*
X146954067Y-78278166D01*
X157835665Y-88516033D02*
X157835665Y-89082700D01*
X157835665Y-89082700D02*
X157868999Y-89149366D01*
X157868999Y-89149366D02*
X157902332Y-89182700D01*
X157902332Y-89182700D02*
X157968999Y-89216033D01*
X157968999Y-89216033D02*
X158102332Y-89216033D01*
X158102332Y-89216033D02*
X158168999Y-89182700D01*
X158168999Y-89182700D02*
X158202332Y-89149366D01*
X158202332Y-89149366D02*
X158235665Y-89082700D01*
X158235665Y-89082700D02*
X158235665Y-88516033D01*
X158535665Y-88582700D02*
X158568998Y-88549366D01*
X158568998Y-88549366D02*
X158635665Y-88516033D01*
X158635665Y-88516033D02*
X158802332Y-88516033D01*
X158802332Y-88516033D02*
X158868998Y-88549366D01*
X158868998Y-88549366D02*
X158902332Y-88582700D01*
X158902332Y-88582700D02*
X158935665Y-88649366D01*
X158935665Y-88649366D02*
X158935665Y-88716033D01*
X158935665Y-88716033D02*
X158902332Y-88816033D01*
X158902332Y-88816033D02*
X158502332Y-89216033D01*
X158502332Y-89216033D02*
X158935665Y-89216033D01*
X144776933Y-81912033D02*
X144776933Y-82478700D01*
X144776933Y-82478700D02*
X144810267Y-82545366D01*
X144810267Y-82545366D02*
X144843600Y-82578700D01*
X144843600Y-82578700D02*
X144910267Y-82612033D01*
X144910267Y-82612033D02*
X145043600Y-82612033D01*
X145043600Y-82612033D02*
X145110267Y-82578700D01*
X145110267Y-82578700D02*
X145143600Y-82545366D01*
X145143600Y-82545366D02*
X145176933Y-82478700D01*
X145176933Y-82478700D02*
X145176933Y-81912033D01*
X145876933Y-82612033D02*
X145476933Y-82612033D01*
X145676933Y-82612033D02*
X145676933Y-81912033D01*
X145676933Y-81912033D02*
X145610266Y-82012033D01*
X145610266Y-82012033D02*
X145543600Y-82078700D01*
X145543600Y-82078700D02*
X145476933Y-82112033D01*
X146310267Y-81912033D02*
X146376933Y-81912033D01*
X146376933Y-81912033D02*
X146443600Y-81945366D01*
X146443600Y-81945366D02*
X146476933Y-81978700D01*
X146476933Y-81978700D02*
X146510267Y-82045366D01*
X146510267Y-82045366D02*
X146543600Y-82178700D01*
X146543600Y-82178700D02*
X146543600Y-82345366D01*
X146543600Y-82345366D02*
X146510267Y-82478700D01*
X146510267Y-82478700D02*
X146476933Y-82545366D01*
X146476933Y-82545366D02*
X146443600Y-82578700D01*
X146443600Y-82578700D02*
X146376933Y-82612033D01*
X146376933Y-82612033D02*
X146310267Y-82612033D01*
X146310267Y-82612033D02*
X146243600Y-82578700D01*
X146243600Y-82578700D02*
X146210267Y-82545366D01*
X146210267Y-82545366D02*
X146176933Y-82478700D01*
X146176933Y-82478700D02*
X146143600Y-82345366D01*
X146143600Y-82345366D02*
X146143600Y-82178700D01*
X146143600Y-82178700D02*
X146176933Y-82045366D01*
X146176933Y-82045366D02*
X146210267Y-81978700D01*
X146210267Y-81978700D02*
X146243600Y-81945366D01*
X146243600Y-81945366D02*
X146310267Y-81912033D01*
X137532332Y-95947033D02*
X137532332Y-95247033D01*
X137532332Y-95247033D02*
X137698999Y-95247033D01*
X137698999Y-95247033D02*
X137798999Y-95280366D01*
X137798999Y-95280366D02*
X137865666Y-95347033D01*
X137865666Y-95347033D02*
X137898999Y-95413700D01*
X137898999Y-95413700D02*
X137932332Y-95547033D01*
X137932332Y-95547033D02*
X137932332Y-95647033D01*
X137932332Y-95647033D02*
X137898999Y-95780366D01*
X137898999Y-95780366D02*
X137865666Y-95847033D01*
X137865666Y-95847033D02*
X137798999Y-95913700D01*
X137798999Y-95913700D02*
X137698999Y-95947033D01*
X137698999Y-95947033D02*
X137532332Y-95947033D01*
X138598999Y-95947033D02*
X138198999Y-95947033D01*
X138398999Y-95947033D02*
X138398999Y-95247033D01*
X138398999Y-95247033D02*
X138332332Y-95347033D01*
X138332332Y-95347033D02*
X138265666Y-95413700D01*
X138265666Y-95413700D02*
X138198999Y-95447033D01*
D11*
%TO.C,Y1*%
X143046287Y-91348260D02*
X140217860Y-94176687D01*
X145379740Y-93681713D02*
X143046287Y-91348260D01*
%TO.C,R12*%
X140853900Y-82787258D02*
X140853900Y-82312742D01*
X141898900Y-82787258D02*
X141898900Y-82312742D01*
%TO.C,R3*%
X154417500Y-97730542D02*
X154417500Y-98205058D01*
X155462500Y-97730542D02*
X155462500Y-98205058D01*
%TO.C,C9*%
X148633581Y-95856770D02*
X148434770Y-96055581D01*
X149354830Y-96578019D02*
X149156019Y-96776830D01*
%TO.C,R2*%
X152893500Y-97730542D02*
X152893500Y-98205058D01*
X153938500Y-97730542D02*
X153938500Y-98205058D01*
%TO.C,C4*%
X155954000Y-97827220D02*
X155954000Y-98108380D01*
X156974000Y-97827220D02*
X156974000Y-98108380D01*
%TO.C,C8*%
X147566781Y-94789970D02*
X147367970Y-94988781D01*
X148288030Y-95511219D02*
X148089219Y-95710030D01*
%TO.C,C13*%
X144391781Y-89309230D02*
X144192970Y-89110419D01*
X145113030Y-88587981D02*
X144914219Y-88389170D01*
D12*
%TO.C,kibuzzard-667D9F0F*%
G36*
X156355654Y-83875282D02*
G01*
X156398923Y-83887590D01*
X156457641Y-83945795D01*
X156474179Y-83992397D01*
X156479692Y-84048615D01*
X156475974Y-84097782D01*
X156464820Y-84145795D01*
X156445910Y-84188936D01*
X156418923Y-84223487D01*
X156346872Y-84262974D01*
X156303026Y-84269897D01*
X156253538Y-84272205D01*
X156194564Y-84269641D01*
X156212000Y-83874256D01*
X156299179Y-83871179D01*
X156355654Y-83875282D01*
G37*
G36*
X157610718Y-83871436D02*
G01*
X157658154Y-83890667D01*
X157697385Y-83921500D01*
X157725846Y-83962718D01*
X157743154Y-84011244D01*
X157748923Y-84064000D01*
X157742705Y-84119192D01*
X157724051Y-84171949D01*
X157693538Y-84217718D01*
X157651744Y-84251949D01*
X157601936Y-84273295D01*
X157547385Y-84280410D01*
X157495462Y-84274064D01*
X157446359Y-84255026D01*
X157404756Y-84224705D01*
X157375333Y-84184513D01*
X157357833Y-84137077D01*
X157352000Y-84085026D01*
X157358410Y-84027910D01*
X157377641Y-83974513D01*
X157408795Y-83928615D01*
X157450974Y-83894000D01*
X157501487Y-83872269D01*
X157557641Y-83865026D01*
X157610718Y-83871436D01*
G37*
G36*
X158015253Y-83625316D02*
G01*
X158059019Y-83631808D01*
X158101938Y-83642559D01*
X158143596Y-83657465D01*
X158183593Y-83676382D01*
X158221543Y-83699128D01*
X158257081Y-83725485D01*
X158289864Y-83755198D01*
X158319577Y-83787981D01*
X158345934Y-83823519D01*
X158368680Y-83861469D01*
X158387597Y-83901465D01*
X158402503Y-83943124D01*
X158413253Y-83986043D01*
X158419746Y-84029809D01*
X158421917Y-84074000D01*
X158419746Y-84118191D01*
X158413253Y-84161957D01*
X158402503Y-84204876D01*
X158387597Y-84246535D01*
X158368680Y-84286531D01*
X158345934Y-84324481D01*
X158319577Y-84360019D01*
X158289864Y-84392802D01*
X158257081Y-84422515D01*
X158221543Y-84448872D01*
X158183593Y-84471618D01*
X158143596Y-84490535D01*
X158101938Y-84505441D01*
X158059019Y-84516192D01*
X158015253Y-84522684D01*
X157971062Y-84524855D01*
X157970974Y-84524855D01*
X157542256Y-84524855D01*
X156786359Y-84524855D01*
X155973026Y-84524855D01*
X155972938Y-84524855D01*
X155928747Y-84522684D01*
X155884981Y-84516192D01*
X155842062Y-84505441D01*
X155800403Y-84490535D01*
X155760407Y-84471618D01*
X155722457Y-84448872D01*
X155688921Y-84424000D01*
X155973026Y-84424000D01*
X156029564Y-84422846D01*
X156067897Y-84422462D01*
X156275077Y-84424000D01*
X156786359Y-84424000D01*
X156865590Y-84423231D01*
X156912513Y-84422974D01*
X157017641Y-84424000D01*
X157017983Y-84361123D01*
X157019009Y-84290097D01*
X157020718Y-84210923D01*
X157022513Y-84147317D01*
X157024585Y-84088103D01*
X157129949Y-84088103D01*
X157136103Y-84161051D01*
X157154564Y-84227077D01*
X157187705Y-84286756D01*
X157237897Y-84340667D01*
X157301808Y-84384641D01*
X157376103Y-84414513D01*
X157457385Y-84431628D01*
X157542256Y-84437333D01*
X157628282Y-84431500D01*
X157710974Y-84414000D01*
X157786359Y-84383936D01*
X157850462Y-84340410D01*
X157902064Y-84284705D01*
X157939949Y-84218103D01*
X157963218Y-84142526D01*
X157970974Y-84059897D01*
X157963923Y-83982590D01*
X157942769Y-83914769D01*
X157907385Y-83855346D01*
X157857641Y-83803231D01*
X157795974Y-83761372D01*
X157724820Y-83732718D01*
X157647385Y-83716179D01*
X157566872Y-83710667D01*
X157484279Y-83715966D01*
X157407442Y-83731863D01*
X157336359Y-83758359D01*
X157273738Y-83794285D01*
X157222285Y-83838473D01*
X157182000Y-83890923D01*
X157153083Y-83950553D01*
X157135732Y-84016279D01*
X157129949Y-84088103D01*
X157024585Y-84088103D01*
X157024820Y-84081372D01*
X157027641Y-84013087D01*
X157030974Y-83942462D01*
X157035134Y-83872376D01*
X157040091Y-83799556D01*
X157045846Y-83724000D01*
X156970077Y-83724769D01*
X156935590Y-83725026D01*
X156890462Y-83724769D01*
X156815590Y-83724000D01*
X156816103Y-83790154D01*
X156815638Y-83848631D01*
X156814244Y-83913038D01*
X156811920Y-83983375D01*
X156808667Y-84059641D01*
X156804484Y-84141837D01*
X156799372Y-84229962D01*
X156793330Y-84324016D01*
X156786359Y-84424000D01*
X156275077Y-84424000D01*
X156341615Y-84422462D01*
X156400718Y-84417846D01*
X156479179Y-84402974D01*
X156536103Y-84377333D01*
X156603538Y-84324256D01*
X156631167Y-84290218D01*
X156655077Y-84250154D01*
X156674692Y-84204449D01*
X156689436Y-84153487D01*
X156698667Y-84098808D01*
X156701744Y-84041949D01*
X156697769Y-83983808D01*
X156685846Y-83927333D01*
X156666359Y-83875218D01*
X156639692Y-83830154D01*
X156605782Y-83792590D01*
X156564564Y-83762974D01*
X156517962Y-83741692D01*
X156467897Y-83729128D01*
X156411872Y-83722974D01*
X156347385Y-83720923D01*
X156285333Y-83721500D01*
X156219179Y-83723231D01*
X156157513Y-83724962D01*
X156108923Y-83725538D01*
X156061231Y-83725154D01*
X156005333Y-83724000D01*
X156005333Y-83784000D01*
X156004820Y-83828615D01*
X156003282Y-83889299D01*
X156000718Y-83966051D01*
X155997641Y-84045282D01*
X155994564Y-84116821D01*
X155991487Y-84180667D01*
X155988410Y-84236821D01*
X155984877Y-84288843D01*
X155979749Y-84351236D01*
X155973026Y-84424000D01*
X155688921Y-84424000D01*
X155686919Y-84422515D01*
X155654136Y-84392802D01*
X155624423Y-84360019D01*
X155598066Y-84324481D01*
X155575320Y-84286531D01*
X155556403Y-84246535D01*
X155541497Y-84204876D01*
X155530747Y-84161957D01*
X155524254Y-84118191D01*
X155522083Y-84074000D01*
X155524254Y-84029809D01*
X155530747Y-83986043D01*
X155541497Y-83943124D01*
X155556403Y-83901465D01*
X155575320Y-83861469D01*
X155598066Y-83823519D01*
X155624423Y-83787981D01*
X155654136Y-83755198D01*
X155686919Y-83725485D01*
X155722457Y-83699128D01*
X155760407Y-83676382D01*
X155800403Y-83657465D01*
X155842062Y-83642559D01*
X155884981Y-83631808D01*
X155928747Y-83625316D01*
X155972938Y-83623145D01*
X155973026Y-83623145D01*
X157970974Y-83623145D01*
X157971062Y-83623145D01*
X158015253Y-83625316D01*
G37*
%TO.C,G\u002A\u002A\u002A*%
G36*
X157146205Y-80332015D02*
G01*
X157147401Y-80347501D01*
X157140389Y-80373360D01*
X157139507Y-80375972D01*
X157131093Y-80399939D01*
X157122865Y-80417673D01*
X157112337Y-80430111D01*
X157097023Y-80438194D01*
X157074437Y-80442859D01*
X157042094Y-80445045D01*
X156997508Y-80445691D01*
X156954752Y-80445728D01*
X156901288Y-80445506D01*
X156862360Y-80444730D01*
X156835921Y-80443237D01*
X156819927Y-80440862D01*
X156812333Y-80437442D01*
X156810918Y-80434208D01*
X156815401Y-80416318D01*
X156830048Y-80401521D01*
X156856655Y-80388837D01*
X156897018Y-80377285D01*
X156927013Y-80370802D01*
X156971603Y-80361434D01*
X157018122Y-80350896D01*
X157059244Y-80340876D01*
X157075162Y-80336678D01*
X157111906Y-80327716D01*
X157134980Y-80325791D01*
X157146205Y-80332015D01*
G37*
G36*
X156097786Y-81194021D02*
G01*
X156109884Y-81196692D01*
X156112355Y-81201408D01*
X156112120Y-81202109D01*
X156107739Y-81213024D01*
X156098263Y-81236569D01*
X156084798Y-81269990D01*
X156068455Y-81310538D01*
X156054370Y-81345467D01*
X156032056Y-81401366D01*
X156007609Y-81463550D01*
X155983562Y-81525520D01*
X155962449Y-81580776D01*
X155956599Y-81596316D01*
X155912338Y-81714485D01*
X155835053Y-81714485D01*
X155800736Y-81713695D01*
X155774510Y-81711558D01*
X155759770Y-81708420D01*
X155757767Y-81706584D01*
X155760766Y-81696244D01*
X155768937Y-81673871D01*
X155781043Y-81642730D01*
X155795846Y-81606083D01*
X155796291Y-81605001D01*
X155811944Y-81566297D01*
X155831645Y-81516616D01*
X155853612Y-81460510D01*
X155876062Y-81402528D01*
X155894727Y-81353760D01*
X155954639Y-81196202D01*
X156035500Y-81193816D01*
X156073758Y-81193145D01*
X156097786Y-81194021D01*
G37*
G36*
X158556000Y-81222870D02*
G01*
X158547501Y-81243421D01*
X158535033Y-81274399D01*
X158519610Y-81313205D01*
X158502244Y-81357243D01*
X158483948Y-81403914D01*
X158465736Y-81450620D01*
X158448620Y-81494764D01*
X158433613Y-81533748D01*
X158421730Y-81564974D01*
X158413982Y-81585844D01*
X158411375Y-81593712D01*
X158419174Y-81595388D01*
X158440599Y-81596799D01*
X158472693Y-81597824D01*
X158512496Y-81598347D01*
X158528161Y-81598389D01*
X158569723Y-81598802D01*
X158604354Y-81599938D01*
X158629193Y-81601639D01*
X158641376Y-81603750D01*
X158642101Y-81604609D01*
X158637888Y-81615049D01*
X158629635Y-81636317D01*
X158619567Y-81662656D01*
X158599881Y-81714485D01*
X158393783Y-81714485D01*
X158187686Y-81714485D01*
X158209092Y-81666803D01*
X158219564Y-81642463D01*
X158234559Y-81606252D01*
X158252922Y-81561086D01*
X158273497Y-81509883D01*
X158295130Y-81455559D01*
X158316664Y-81401031D01*
X158336946Y-81349215D01*
X158354820Y-81303030D01*
X158369131Y-81265392D01*
X158378723Y-81239217D01*
X158380681Y-81233518D01*
X158393083Y-81196202D01*
X158481237Y-81193846D01*
X158569392Y-81191490D01*
X158556000Y-81222870D01*
G37*
G36*
X155872722Y-81235591D02*
G01*
X155862252Y-81262404D01*
X155854100Y-81284608D01*
X155851145Y-81293639D01*
X155847987Y-81299358D01*
X155840579Y-81303357D01*
X155826363Y-81305935D01*
X155802780Y-81307393D01*
X155767275Y-81308030D01*
X155727353Y-81308151D01*
X155607656Y-81308151D01*
X155596633Y-81335102D01*
X155585352Y-81362423D01*
X155579432Y-81380689D01*
X155580946Y-81391710D01*
X155591964Y-81397296D01*
X155614557Y-81399260D01*
X155650796Y-81399410D01*
X155670137Y-81399369D01*
X155707800Y-81399895D01*
X155738514Y-81401327D01*
X155759015Y-81403443D01*
X155766060Y-81405889D01*
X155763262Y-81416515D01*
X155755976Y-81437685D01*
X155747169Y-81461179D01*
X155728278Y-81509949D01*
X155630770Y-81510633D01*
X155586811Y-81511383D01*
X155556780Y-81513125D01*
X155538031Y-81516188D01*
X155527919Y-81520902D01*
X155525414Y-81523756D01*
X155519613Y-81536308D01*
X155509884Y-81560830D01*
X155497661Y-81593595D01*
X155486329Y-81625295D01*
X155455090Y-81714395D01*
X155370092Y-81714440D01*
X155334812Y-81714063D01*
X155306684Y-81713012D01*
X155289176Y-81711460D01*
X155285093Y-81710132D01*
X155288015Y-81701502D01*
X155296207Y-81679692D01*
X155308808Y-81646931D01*
X155324957Y-81605451D01*
X155343792Y-81557480D01*
X155354735Y-81529770D01*
X155376923Y-81473202D01*
X155398910Y-81416268D01*
X155419293Y-81362662D01*
X155436672Y-81316077D01*
X155449644Y-81280207D01*
X155452172Y-81272948D01*
X155479968Y-81192137D01*
X155685087Y-81192096D01*
X155890206Y-81192056D01*
X155872722Y-81235591D01*
G37*
G36*
X156419463Y-81322561D02*
G01*
X156454272Y-81334535D01*
X156493350Y-81361218D01*
X156517375Y-81393899D01*
X156527283Y-81434164D01*
X156527196Y-81458209D01*
X156515095Y-81517059D01*
X156488556Y-81572548D01*
X156449676Y-81622583D01*
X156400555Y-81665070D01*
X156343289Y-81697915D01*
X156279978Y-81719024D01*
X156262466Y-81722384D01*
X156234702Y-81726661D01*
X156214100Y-81729409D01*
X156205564Y-81730032D01*
X156195621Y-81728232D01*
X156175037Y-81724690D01*
X156162051Y-81722492D01*
X156130790Y-81714292D01*
X156100803Y-81701912D01*
X156093437Y-81697790D01*
X156063001Y-81670361D01*
X156045171Y-81635190D01*
X156039196Y-81594369D01*
X156041521Y-81574263D01*
X156197965Y-81574263D01*
X156207523Y-81598657D01*
X156211195Y-81602836D01*
X156231103Y-81612226D01*
X156258342Y-81612346D01*
X156287083Y-81604022D01*
X156310842Y-81588703D01*
X156332735Y-81562754D01*
X156349939Y-81532008D01*
X156361321Y-81500318D01*
X156365749Y-81471541D01*
X156362090Y-81449529D01*
X156354415Y-81440400D01*
X156338356Y-81435250D01*
X156314989Y-81432715D01*
X156311930Y-81432666D01*
X156282285Y-81439239D01*
X156254302Y-81457011D01*
X156229930Y-81482692D01*
X156211117Y-81512989D01*
X156199813Y-81544610D01*
X156197965Y-81574263D01*
X156041521Y-81574263D01*
X156044327Y-81549992D01*
X156059817Y-81504151D01*
X156084914Y-81458940D01*
X156118871Y-81416451D01*
X156160939Y-81378778D01*
X156210368Y-81348013D01*
X156220340Y-81343208D01*
X156267100Y-81327205D01*
X156319293Y-81318303D01*
X156371790Y-81316691D01*
X156419463Y-81322561D01*
G37*
G36*
X157791703Y-81372418D02*
G01*
X157789270Y-81403776D01*
X157785737Y-81444006D01*
X157781780Y-81485490D01*
X157780894Y-81494280D01*
X157777807Y-81527318D01*
X157775909Y-81553378D01*
X157775453Y-81568614D01*
X157775813Y-81570946D01*
X157781139Y-81565541D01*
X157793707Y-81548984D01*
X157811569Y-81523931D01*
X157830252Y-81496766D01*
X157855751Y-81459368D01*
X157882049Y-81421183D01*
X157905279Y-81387807D01*
X157916137Y-81372418D01*
X157950070Y-81324736D01*
X158023164Y-81324736D01*
X158055660Y-81325153D01*
X158080731Y-81326270D01*
X158094639Y-81327882D01*
X158096259Y-81328714D01*
X158091580Y-81336851D01*
X158079411Y-81354013D01*
X158065162Y-81372866D01*
X158049886Y-81392591D01*
X158026779Y-81422417D01*
X157998172Y-81459334D01*
X157966396Y-81500334D01*
X157938701Y-81536064D01*
X157904405Y-81580392D01*
X157869755Y-81625323D01*
X157837566Y-81667199D01*
X157810653Y-81702359D01*
X157795753Y-81721950D01*
X157749805Y-81779925D01*
X157709848Y-81824223D01*
X157674594Y-81856073D01*
X157642757Y-81876701D01*
X157626117Y-81883748D01*
X157581889Y-81894961D01*
X157533868Y-81901009D01*
X157490142Y-81901023D01*
X157478466Y-81899625D01*
X157458497Y-81894739D01*
X157446748Y-81889027D01*
X157444946Y-81878687D01*
X157446261Y-81858254D01*
X157449801Y-81832990D01*
X157454672Y-81808159D01*
X157459983Y-81789025D01*
X157464842Y-81780852D01*
X157465088Y-81780825D01*
X157475832Y-81782914D01*
X157495403Y-81788039D01*
X157498795Y-81789002D01*
X157538903Y-81792304D01*
X157578073Y-81780486D01*
X157611541Y-81755551D01*
X157636024Y-81730012D01*
X157638509Y-81527374D01*
X157640994Y-81324736D01*
X157717970Y-81324736D01*
X157794946Y-81324736D01*
X157791703Y-81372418D01*
G37*
G36*
X159452989Y-81256323D02*
G01*
X159425497Y-81320590D01*
X159510763Y-81320590D01*
X159559942Y-81322101D01*
X159595721Y-81327548D01*
X159621083Y-81338302D01*
X159639015Y-81355733D01*
X159652499Y-81381211D01*
X159654646Y-81386657D01*
X159661667Y-81426562D01*
X159656462Y-81473250D01*
X159640166Y-81523673D01*
X159613912Y-81574785D01*
X159578835Y-81623540D01*
X159557950Y-81646478D01*
X159511465Y-81685046D01*
X159461115Y-81711858D01*
X159409901Y-81725862D01*
X159360826Y-81726003D01*
X159342732Y-81722019D01*
X159318217Y-81709629D01*
X159299345Y-81692721D01*
X159282386Y-81671162D01*
X159274151Y-81692823D01*
X159269468Y-81703143D01*
X159262617Y-81709522D01*
X159250014Y-81712908D01*
X159228079Y-81714246D01*
X159193230Y-81714485D01*
X159192184Y-81714485D01*
X159118453Y-81714485D01*
X159172099Y-81580159D01*
X159335875Y-81580159D01*
X159336389Y-81583056D01*
X159348936Y-81599692D01*
X159369455Y-81610064D01*
X159388498Y-81610309D01*
X159403392Y-81606910D01*
X159406520Y-81606682D01*
X159416702Y-81601768D01*
X159433754Y-81589474D01*
X159440192Y-81584220D01*
X159463205Y-81558705D01*
X159482629Y-81526347D01*
X159494962Y-81493757D01*
X159497513Y-81476074D01*
X159490260Y-81452248D01*
X159471048Y-81433817D01*
X159444442Y-81424718D01*
X159437575Y-81424359D01*
X159409525Y-81425599D01*
X159390312Y-81431030D01*
X159376607Y-81443644D01*
X159365086Y-81466431D01*
X159353097Y-81500338D01*
X159343460Y-81533194D01*
X159337398Y-81561395D01*
X159335875Y-81580159D01*
X159172099Y-81580159D01*
X159192140Y-81529976D01*
X159214818Y-81472774D01*
X159237128Y-81415737D01*
X159257749Y-81362303D01*
X159275357Y-81315912D01*
X159288629Y-81280002D01*
X159292617Y-81268802D01*
X159319406Y-81192137D01*
X159399944Y-81192096D01*
X159480481Y-81192056D01*
X159452989Y-81256323D01*
G37*
G36*
X156899976Y-81321154D02*
G01*
X156940630Y-81323485D01*
X156970307Y-81328539D01*
X156991805Y-81337271D01*
X157007917Y-81350637D01*
X157021439Y-81369593D01*
X157029115Y-81383373D01*
X157039071Y-81417273D01*
X157039656Y-81460122D01*
X157031248Y-81507452D01*
X157014650Y-81553876D01*
X156993126Y-81590978D01*
X156962986Y-81630347D01*
X156928990Y-81666481D01*
X156895900Y-81693881D01*
X156890313Y-81697519D01*
X156846257Y-81716892D01*
X156798078Y-81725053D01*
X156750550Y-81721976D01*
X156708445Y-81707637D01*
X156693934Y-81698554D01*
X156669772Y-81680690D01*
X156660672Y-81703807D01*
X156653944Y-81721185D01*
X156643060Y-81749606D01*
X156629728Y-81784600D01*
X156620144Y-81809849D01*
X156588715Y-81892774D01*
X156512254Y-81895171D01*
X156435794Y-81897568D01*
X156441583Y-81874440D01*
X156446571Y-81859373D01*
X156456795Y-81832005D01*
X156471090Y-81795334D01*
X156488289Y-81752358D01*
X156503755Y-81714485D01*
X156526637Y-81657927D01*
X156551408Y-81594984D01*
X156564088Y-81561988D01*
X156720593Y-81561988D01*
X156724340Y-81585568D01*
X156733424Y-81599809D01*
X156755520Y-81612790D01*
X156783910Y-81612416D01*
X156815243Y-81598826D01*
X156819037Y-81596316D01*
X156842565Y-81573920D01*
X156863862Y-81543095D01*
X156879375Y-81510042D01*
X156885547Y-81480958D01*
X156885551Y-81480349D01*
X156878969Y-81451848D01*
X156859859Y-81433503D01*
X156829176Y-81425812D01*
X156787871Y-81429270D01*
X156787584Y-81429328D01*
X156773000Y-81434126D01*
X156761906Y-81444106D01*
X156751266Y-81463052D01*
X156740939Y-81487462D01*
X156726067Y-81530170D01*
X156720593Y-81561988D01*
X156564088Y-81561988D01*
X156575607Y-81532011D01*
X156596775Y-81475367D01*
X156603933Y-81455652D01*
X156647729Y-81333646D01*
X156685788Y-81327118D01*
X156707998Y-81324744D01*
X156742554Y-81322756D01*
X156785218Y-81321327D01*
X156831753Y-81320630D01*
X156845553Y-81320590D01*
X156899976Y-81321154D01*
G37*
G36*
X157414119Y-81321154D02*
G01*
X157454768Y-81323483D01*
X157484442Y-81328533D01*
X157505935Y-81337261D01*
X157522044Y-81350622D01*
X157535564Y-81369572D01*
X157543252Y-81383373D01*
X157554137Y-81420530D01*
X157553226Y-81464836D01*
X157541838Y-81513291D01*
X157521293Y-81562896D01*
X157492912Y-81610648D01*
X157458014Y-81653549D01*
X157417920Y-81688597D01*
X157405278Y-81697006D01*
X157360440Y-81716820D01*
X157311764Y-81725098D01*
X157263878Y-81721815D01*
X157221413Y-81706945D01*
X157207506Y-81698136D01*
X157191082Y-81686995D01*
X157181579Y-81682448D01*
X157180883Y-81682657D01*
X157177156Y-81691523D01*
X157169060Y-81712525D01*
X157157887Y-81742211D01*
X157144927Y-81777126D01*
X157131471Y-81813818D01*
X157119406Y-81847165D01*
X157103044Y-81892774D01*
X157022314Y-81895159D01*
X156984193Y-81895837D01*
X156960306Y-81894982D01*
X156948354Y-81892345D01*
X156946036Y-81887675D01*
X156946339Y-81886867D01*
X156956402Y-81863279D01*
X156971280Y-81827108D01*
X156989830Y-81781249D01*
X157010910Y-81728595D01*
X157033374Y-81672041D01*
X157056080Y-81614481D01*
X157072350Y-81572938D01*
X157235679Y-81572938D01*
X157241028Y-81587019D01*
X157245071Y-81593569D01*
X157265142Y-81611024D01*
X157292039Y-81614074D01*
X157324189Y-81602614D01*
X157330122Y-81599180D01*
X157349562Y-81581204D01*
X157369546Y-81553262D01*
X157386678Y-81521342D01*
X157397564Y-81491430D01*
X157399687Y-81476519D01*
X157392454Y-81451591D01*
X157372740Y-81434021D01*
X157343523Y-81425159D01*
X157307780Y-81426354D01*
X157295185Y-81429152D01*
X157277279Y-81442176D01*
X157260656Y-81471384D01*
X157245226Y-81516941D01*
X157241950Y-81529302D01*
X157236090Y-81555821D01*
X157235679Y-81572938D01*
X157072350Y-81572938D01*
X157077883Y-81558810D01*
X157097641Y-81507921D01*
X157114208Y-81464710D01*
X157126443Y-81432069D01*
X157130585Y-81420597D01*
X157161213Y-81333743D01*
X157199598Y-81327167D01*
X157221935Y-81324775D01*
X157256606Y-81322772D01*
X157299361Y-81321332D01*
X157345949Y-81320630D01*
X157359701Y-81320590D01*
X157414119Y-81321154D01*
G37*
G36*
X158326098Y-79816371D02*
G01*
X158332864Y-79820581D01*
X158349586Y-79834883D01*
X158370086Y-79857033D01*
X158391266Y-79883027D01*
X158410033Y-79908864D01*
X158423289Y-79930539D01*
X158427960Y-79943552D01*
X158423895Y-79958812D01*
X158412728Y-79985279D01*
X158396001Y-80020003D01*
X158375255Y-80060035D01*
X158352032Y-80102427D01*
X158327875Y-80144231D01*
X158304324Y-80182496D01*
X158297633Y-80192806D01*
X158202346Y-80324905D01*
X158097852Y-80446368D01*
X157985275Y-80556367D01*
X157865742Y-80654076D01*
X157740381Y-80738667D01*
X157610317Y-80809314D01*
X157476676Y-80865189D01*
X157340586Y-80905466D01*
X157320908Y-80909920D01*
X157281737Y-80916826D01*
X157233685Y-80922855D01*
X157180875Y-80927744D01*
X157127432Y-80931232D01*
X157077480Y-80933056D01*
X157035142Y-80932955D01*
X157004543Y-80930667D01*
X157001646Y-80930196D01*
X156982161Y-80926762D01*
X156953600Y-80921771D01*
X156931159Y-80917869D01*
X156824481Y-80891647D01*
X156724633Y-80851609D01*
X156633179Y-80798658D01*
X156551679Y-80733699D01*
X156481852Y-80657832D01*
X156460334Y-80627988D01*
X156438356Y-80593440D01*
X156417472Y-80557192D01*
X156399233Y-80522247D01*
X156385191Y-80491608D01*
X156376901Y-80468279D01*
X156375913Y-80455262D01*
X156376614Y-80454262D01*
X156387152Y-80451085D01*
X156410955Y-80447124D01*
X156444749Y-80442834D01*
X156485260Y-80438669D01*
X156495802Y-80437723D01*
X156607751Y-80427957D01*
X156624336Y-80450916D01*
X156683626Y-80520517D01*
X156751038Y-80576023D01*
X156827275Y-80617834D01*
X156913042Y-80646349D01*
X156994150Y-80660453D01*
X157078933Y-80663704D01*
X157171571Y-80656088D01*
X157267960Y-80638224D01*
X157363993Y-80610736D01*
X157394337Y-80599873D01*
X157455755Y-80574068D01*
X157526155Y-80540049D01*
X157601628Y-80500037D01*
X157678265Y-80456248D01*
X157752155Y-80410904D01*
X157819388Y-80366222D01*
X157866371Y-80331971D01*
X157967846Y-80246911D01*
X158061665Y-80154207D01*
X158145621Y-80056420D01*
X158217510Y-79956110D01*
X158273222Y-79859619D01*
X158288754Y-79830796D01*
X158300759Y-79815279D01*
X158312214Y-79811121D01*
X158326098Y-79816371D01*
G37*
G36*
X159071733Y-81320274D02*
G01*
X159112189Y-81330024D01*
X159139498Y-81345250D01*
X159148742Y-81356659D01*
X159154495Y-81370088D01*
X159156492Y-81384555D01*
X159154115Y-81402952D01*
X159146747Y-81428173D01*
X159133772Y-81463111D01*
X159117324Y-81503952D01*
X159099640Y-81547787D01*
X159082184Y-81592196D01*
X159067084Y-81631703D01*
X159057277Y-81658510D01*
X159037609Y-81714485D01*
X158960829Y-81714485D01*
X158927447Y-81714195D01*
X158901399Y-81713418D01*
X158886334Y-81712292D01*
X158884049Y-81711592D01*
X158887048Y-81703221D01*
X158895139Y-81682936D01*
X158906964Y-81654101D01*
X158916642Y-81630855D01*
X158929993Y-81598135D01*
X158940147Y-81571640D01*
X158945862Y-81554706D01*
X158946558Y-81550331D01*
X158936289Y-81550039D01*
X158915816Y-81555164D01*
X158889892Y-81563963D01*
X158863274Y-81574694D01*
X158840716Y-81585613D01*
X158828424Y-81593622D01*
X158812201Y-81613022D01*
X158811443Y-81628196D01*
X158825197Y-81637244D01*
X158850950Y-81638424D01*
X158871659Y-81636834D01*
X158883195Y-81636697D01*
X158884049Y-81637009D01*
X158880046Y-81644372D01*
X158869652Y-81661724D01*
X158857932Y-81680763D01*
X158840839Y-81704523D01*
X158825390Y-81719468D01*
X158817506Y-81722777D01*
X158798692Y-81724060D01*
X158779356Y-81726556D01*
X158756390Y-81726724D01*
X158727664Y-81722586D01*
X158718198Y-81720336D01*
X158692166Y-81710869D01*
X158675870Y-81696683D01*
X158665711Y-81679291D01*
X158656320Y-81655829D01*
X158655605Y-81636421D01*
X158660369Y-81618459D01*
X158683885Y-81573374D01*
X158722183Y-81535684D01*
X158775171Y-81505457D01*
X158842753Y-81482757D01*
X158859171Y-81478868D01*
X158906602Y-81467835D01*
X158940238Y-81458556D01*
X158962644Y-81450073D01*
X158976386Y-81441423D01*
X158983728Y-81432223D01*
X158987044Y-81418438D01*
X158976534Y-81408366D01*
X158974722Y-81407370D01*
X158956481Y-81403802D01*
X158926844Y-81404550D01*
X158890260Y-81409030D01*
X158851179Y-81416661D01*
X158814050Y-81426860D01*
X158806701Y-81429350D01*
X158787863Y-81434941D01*
X158778342Y-81435647D01*
X158778094Y-81434471D01*
X158783037Y-81424233D01*
X158792732Y-81403739D01*
X158803026Y-81381806D01*
X158824823Y-81335220D01*
X158887945Y-81325832D01*
X158957965Y-81317984D01*
X159019776Y-81316196D01*
X159071733Y-81320274D01*
G37*
G36*
X158834913Y-78957430D02*
G01*
X158877267Y-78958028D01*
X158908613Y-78959322D01*
X158931739Y-78961566D01*
X158949433Y-78965017D01*
X158964483Y-78969927D01*
X158977201Y-78975404D01*
X159023022Y-78999883D01*
X159057322Y-79027471D01*
X159084961Y-79062905D01*
X159105927Y-79100862D01*
X159120601Y-79131653D01*
X159129739Y-79155664D01*
X159134645Y-79178854D01*
X159136621Y-79207184D01*
X159136971Y-79242882D01*
X159136584Y-79280450D01*
X159134494Y-79307975D01*
X159129308Y-79331484D01*
X159119631Y-79357005D01*
X159104069Y-79390568D01*
X159101658Y-79395592D01*
X159060481Y-79467147D01*
X159004679Y-79541807D01*
X158935602Y-79618217D01*
X158854600Y-79695021D01*
X158763022Y-79770865D01*
X158662216Y-79844392D01*
X158639483Y-79859757D01*
X158600198Y-79885384D01*
X158571743Y-79902238D01*
X158551594Y-79911376D01*
X158537223Y-79913856D01*
X158526105Y-79910738D01*
X158522720Y-79908661D01*
X158515809Y-79899949D01*
X158501854Y-79879314D01*
X158482338Y-79849058D01*
X158458745Y-79811482D01*
X158432557Y-79768887D01*
X158430643Y-79765741D01*
X158402781Y-79720007D01*
X158376063Y-79676326D01*
X158352382Y-79637782D01*
X158333630Y-79607455D01*
X158322222Y-79589243D01*
X158305620Y-79556404D01*
X158301703Y-79530779D01*
X158310639Y-79513776D01*
X158313063Y-79512079D01*
X158323645Y-79508396D01*
X158346919Y-79501789D01*
X158379449Y-79493196D01*
X158417792Y-79483552D01*
X158465119Y-79471016D01*
X158520117Y-79454991D01*
X158579170Y-79436671D01*
X158638667Y-79417252D01*
X158694994Y-79397929D01*
X158744537Y-79379898D01*
X158783683Y-79364354D01*
X158799532Y-79357270D01*
X158822254Y-79345689D01*
X158833778Y-79335314D01*
X158837906Y-79320276D01*
X158838440Y-79297214D01*
X158837667Y-79272214D01*
X158832774Y-79257520D01*
X158819897Y-79246851D01*
X158801440Y-79237093D01*
X158774881Y-79226202D01*
X158745762Y-79220390D01*
X158707639Y-79218463D01*
X158700872Y-79218435D01*
X158660114Y-79216837D01*
X158635450Y-79212026D01*
X158628219Y-79207488D01*
X158623632Y-79194614D01*
X158619125Y-79169438D01*
X158614968Y-79135733D01*
X158611433Y-79097271D01*
X158608788Y-79057823D01*
X158607305Y-79021162D01*
X158607254Y-78991058D01*
X158608904Y-78971285D01*
X158610907Y-78965861D01*
X158622525Y-78962641D01*
X158649376Y-78960114D01*
X158690118Y-78958347D01*
X158743412Y-78957410D01*
X158778763Y-78957273D01*
X158834913Y-78957430D01*
G37*
G36*
X158124661Y-78617486D02*
G01*
X158216346Y-78632804D01*
X158298805Y-78660432D01*
X158371174Y-78700163D01*
X158428152Y-78747280D01*
X158475226Y-78805123D01*
X158513267Y-78875623D01*
X158542367Y-78959099D01*
X158562619Y-79055869D01*
X158574112Y-79166250D01*
X158577064Y-79265080D01*
X158576765Y-79318785D01*
X158575340Y-79358319D01*
X158572289Y-79386088D01*
X158567116Y-79404493D01*
X158559322Y-79415939D01*
X158548409Y-79422828D01*
X158544030Y-79424514D01*
X158523950Y-79430038D01*
X158495882Y-79435958D01*
X158464279Y-79441571D01*
X158433592Y-79446176D01*
X158408272Y-79449067D01*
X158392770Y-79449544D01*
X158390208Y-79448808D01*
X158388634Y-79439513D01*
X158386984Y-79416537D01*
X158385405Y-79382784D01*
X158384042Y-79341157D01*
X158383374Y-79312883D01*
X158381701Y-79255392D01*
X158379032Y-79210386D01*
X158374932Y-79173774D01*
X158368963Y-79141464D01*
X158362219Y-79114778D01*
X158334282Y-79034318D01*
X158299225Y-78967273D01*
X158257495Y-78914240D01*
X158209542Y-78875817D01*
X158168160Y-78856392D01*
X158117789Y-78845253D01*
X158054107Y-78841277D01*
X157978703Y-78844348D01*
X157893170Y-78854353D01*
X157799099Y-78871176D01*
X157723095Y-78888397D01*
X157569710Y-78934540D01*
X157420540Y-78996051D01*
X157277016Y-79071950D01*
X157140569Y-79161255D01*
X157012631Y-79262986D01*
X156894630Y-79376161D01*
X156787999Y-79499799D01*
X156742605Y-79560698D01*
X156696242Y-79632791D01*
X156651913Y-79714395D01*
X156612248Y-79799940D01*
X156579879Y-79883860D01*
X156561537Y-79944031D01*
X156551008Y-79983354D01*
X156541450Y-80017483D01*
X156533895Y-80042831D01*
X156529378Y-80055810D01*
X156529296Y-80055980D01*
X156521790Y-80062838D01*
X156506004Y-80067140D01*
X156479853Y-80069046D01*
X156441250Y-80068719D01*
X156392491Y-80066560D01*
X156357630Y-80063827D01*
X156333849Y-80058379D01*
X156319819Y-80047710D01*
X156314212Y-80029314D01*
X156315703Y-80000683D01*
X156322963Y-79959311D01*
X156326499Y-79941946D01*
X156353092Y-79842789D01*
X156392390Y-79737857D01*
X156442788Y-79629762D01*
X156502684Y-79521113D01*
X156570472Y-79414521D01*
X156644548Y-79312596D01*
X156723308Y-79217949D01*
X156805147Y-79133190D01*
X156846852Y-79095221D01*
X156960687Y-79005709D01*
X157087826Y-78922469D01*
X157225823Y-78846577D01*
X157372232Y-78779108D01*
X157524608Y-78721139D01*
X157680506Y-78673743D01*
X157837478Y-78637997D01*
X157917068Y-78624613D01*
X158024613Y-78614687D01*
X158124661Y-78617486D01*
G37*
G36*
X157732158Y-79094038D02*
G01*
X157785476Y-79094047D01*
X157883412Y-79094065D01*
X157966060Y-79094186D01*
X158034718Y-79094511D01*
X158090683Y-79095144D01*
X158135252Y-79096184D01*
X158169722Y-79097734D01*
X158195392Y-79099896D01*
X158213557Y-79102771D01*
X158225516Y-79106461D01*
X158232566Y-79111067D01*
X158236004Y-79116692D01*
X158237128Y-79123437D01*
X158237232Y-79129452D01*
X158233479Y-79148386D01*
X158223714Y-79176654D01*
X158210178Y-79209203D01*
X158195113Y-79240982D01*
X158180761Y-79266938D01*
X158169652Y-79281763D01*
X158164154Y-79285852D01*
X158156460Y-79289201D01*
X158144885Y-79291914D01*
X158127745Y-79294097D01*
X158103357Y-79295854D01*
X158070034Y-79297291D01*
X158026092Y-79298512D01*
X157969848Y-79299622D01*
X157899617Y-79300727D01*
X157855134Y-79301360D01*
X157774421Y-79302391D01*
X157708608Y-79303316D01*
X157656018Y-79304591D01*
X157614977Y-79306673D01*
X157583809Y-79310018D01*
X157560837Y-79315084D01*
X157544386Y-79322326D01*
X157532781Y-79332202D01*
X157524346Y-79345168D01*
X157517404Y-79361680D01*
X157510281Y-79382196D01*
X157505184Y-79396724D01*
X157491501Y-79434409D01*
X157475442Y-79478404D01*
X157460382Y-79519461D01*
X157459775Y-79521112D01*
X157444097Y-79564646D01*
X157434096Y-79595534D01*
X157429250Y-79616512D01*
X157429035Y-79630319D01*
X157432930Y-79639689D01*
X157436368Y-79643680D01*
X157451467Y-79650318D01*
X157480953Y-79655787D01*
X157522663Y-79659967D01*
X157574433Y-79662738D01*
X157634099Y-79663983D01*
X157699496Y-79663580D01*
X157762624Y-79661663D01*
X157824214Y-79659668D01*
X157870858Y-79659995D01*
X157904115Y-79663352D01*
X157925545Y-79670444D01*
X157936709Y-79681979D01*
X157939165Y-79698662D01*
X157934474Y-79721201D01*
X157929144Y-79737092D01*
X157923472Y-79750614D01*
X157915867Y-79758897D01*
X157902290Y-79763727D01*
X157878702Y-79766886D01*
X157857406Y-79768778D01*
X157825194Y-79770757D01*
X157781776Y-79772396D01*
X157732532Y-79773538D01*
X157682839Y-79774027D01*
X157676427Y-79774034D01*
X157629832Y-79774128D01*
X157597003Y-79774701D01*
X157575116Y-79776188D01*
X157561353Y-79779024D01*
X157552893Y-79783644D01*
X157546914Y-79790485D01*
X157544264Y-79794428D01*
X157534837Y-79822573D01*
X157536440Y-79840037D01*
X157541978Y-79865252D01*
X157454638Y-79865252D01*
X157415184Y-79866162D01*
X157380543Y-79868625D01*
X157355206Y-79872244D01*
X157346141Y-79874891D01*
X157328781Y-79889904D01*
X157309959Y-79918383D01*
X157291270Y-79957495D01*
X157275741Y-79999890D01*
X157267730Y-80020799D01*
X157260320Y-80033845D01*
X157258906Y-80035130D01*
X157248474Y-80038252D01*
X157225163Y-80043643D01*
X157192414Y-80050618D01*
X157153667Y-80058489D01*
X157112365Y-80066572D01*
X157071946Y-80074180D01*
X157035853Y-80080626D01*
X157007961Y-80085162D01*
X156982579Y-80087687D01*
X156969081Y-80085151D01*
X156964002Y-80078849D01*
X156965503Y-80067891D01*
X156972269Y-80043848D01*
X156983521Y-80009077D01*
X156998479Y-79965936D01*
X157016364Y-79916784D01*
X157026700Y-79889267D01*
X157053898Y-79817384D01*
X157082258Y-79741990D01*
X157111065Y-79665019D01*
X157139605Y-79588403D01*
X157167165Y-79514078D01*
X157193031Y-79443977D01*
X157216489Y-79380034D01*
X157236824Y-79324182D01*
X157253324Y-79278357D01*
X157265275Y-79244491D01*
X157271266Y-79226727D01*
X157282520Y-79194774D01*
X157295011Y-79163922D01*
X157301203Y-79150570D01*
X157307148Y-79138368D01*
X157312638Y-79128057D01*
X157319033Y-79119479D01*
X157327694Y-79112474D01*
X157339982Y-79106885D01*
X157357258Y-79102551D01*
X157380882Y-79099314D01*
X157412216Y-79097015D01*
X157452620Y-79095496D01*
X157503455Y-79094598D01*
X157566083Y-79094161D01*
X157641863Y-79094027D01*
X157732158Y-79094038D01*
G37*
G36*
X156493187Y-79401120D02*
G01*
X156494048Y-79415836D01*
X156483835Y-79441692D01*
X156463076Y-79479676D01*
X156458378Y-79487678D01*
X156436163Y-79526438D01*
X156412640Y-79569347D01*
X156392587Y-79607672D01*
X156391075Y-79610678D01*
X156365606Y-79653890D01*
X156334961Y-79694569D01*
X156318569Y-79712293D01*
X156276481Y-79761628D01*
X156244490Y-79815544D01*
X156222866Y-79871695D01*
X156211880Y-79927734D01*
X156211802Y-79981316D01*
X156222901Y-80030092D01*
X156245449Y-80071717D01*
X156273968Y-80099835D01*
X156289962Y-80111239D01*
X156305020Y-80120437D01*
X156321080Y-80127662D01*
X156340075Y-80133147D01*
X156363942Y-80137125D01*
X156394617Y-80139831D01*
X156434036Y-80141497D01*
X156484132Y-80142357D01*
X156546844Y-80142645D01*
X156624106Y-80142593D01*
X156628482Y-80142586D01*
X156703728Y-80142392D01*
X156764953Y-80141997D01*
X156814721Y-80141253D01*
X156855598Y-80140009D01*
X156890146Y-80138116D01*
X156920931Y-80135424D01*
X156950517Y-80131785D01*
X156981469Y-80127049D01*
X157016349Y-80121066D01*
X157025456Y-80119451D01*
X157087479Y-80107887D01*
X157153512Y-80094631D01*
X157221535Y-80080177D01*
X157289528Y-80065017D01*
X157355473Y-80049644D01*
X157417350Y-80034552D01*
X157473140Y-80020233D01*
X157520824Y-80007180D01*
X157558382Y-79995887D01*
X157583795Y-79986845D01*
X157595044Y-79980549D01*
X157595167Y-79980367D01*
X157594957Y-79969728D01*
X157590728Y-79947022D01*
X157583269Y-79916056D01*
X157577366Y-79894376D01*
X157567117Y-79856495D01*
X157561753Y-79831130D01*
X157560857Y-79815079D01*
X157564015Y-79805142D01*
X157565538Y-79803058D01*
X157570122Y-79799669D01*
X157578726Y-79796973D01*
X157592964Y-79794911D01*
X157614453Y-79793428D01*
X157644809Y-79792469D01*
X157685649Y-79791977D01*
X157738589Y-79791895D01*
X157805246Y-79792168D01*
X157867244Y-79792587D01*
X157944336Y-79793182D01*
X158006459Y-79793767D01*
X158055229Y-79794451D01*
X158092261Y-79795342D01*
X158119172Y-79796549D01*
X158137576Y-79798182D01*
X158149091Y-79800349D01*
X158155330Y-79803159D01*
X158157911Y-79806721D01*
X158158448Y-79811144D01*
X158158453Y-79812213D01*
X158152548Y-79823667D01*
X158134946Y-79846515D01*
X158105819Y-79880561D01*
X158065336Y-79925613D01*
X158013668Y-79981477D01*
X157950986Y-80047959D01*
X157948455Y-80050623D01*
X157900440Y-80100919D01*
X157855846Y-80147198D01*
X157815993Y-80188124D01*
X157782200Y-80222360D01*
X157755783Y-80248572D01*
X157738064Y-80265424D01*
X157730359Y-80271580D01*
X157730296Y-80271585D01*
X157723688Y-80264518D01*
X157712137Y-80245391D01*
X157697400Y-80217314D01*
X157684608Y-80190734D01*
X157669104Y-80157570D01*
X157656252Y-80130529D01*
X157647586Y-80112811D01*
X157644704Y-80107505D01*
X157636404Y-80109045D01*
X157617350Y-80115476D01*
X157597713Y-80123018D01*
X157536472Y-80146441D01*
X157463476Y-80172529D01*
X157383048Y-80199877D01*
X157299511Y-80227083D01*
X157217189Y-80252744D01*
X157140405Y-80275456D01*
X157073483Y-80293816D01*
X157063840Y-80296291D01*
X156902356Y-80333674D01*
X156751477Y-80360956D01*
X156608845Y-80378380D01*
X156472101Y-80386189D01*
X156338889Y-80384627D01*
X156259465Y-80379274D01*
X156201703Y-80371405D01*
X156153230Y-80357611D01*
X156107135Y-80335523D01*
X156076775Y-80316662D01*
X156014869Y-80265741D01*
X155964241Y-80202698D01*
X155938155Y-80156734D01*
X155925455Y-80129168D01*
X155917250Y-80105114D01*
X155912348Y-80079024D01*
X155909555Y-80045348D01*
X155908356Y-80018145D01*
X155908510Y-79957362D01*
X155914881Y-79905022D01*
X155928882Y-79854954D01*
X155951928Y-79800986D01*
X155963347Y-79778180D01*
X156011502Y-79698481D01*
X156069732Y-79627463D01*
X156139267Y-79564140D01*
X156221339Y-79507529D01*
X156317180Y-79456645D01*
X156418861Y-79413934D01*
X156456122Y-79401156D01*
X156480721Y-79396556D01*
X156493187Y-79401120D01*
G37*
D11*
%TO.C,TP4*%
X139663400Y-89001600D02*
G75*
G02*
X138263400Y-89001600I-700000J0D01*
G01*
X138263400Y-89001600D02*
G75*
G02*
X139663400Y-89001600I700000J0D01*
G01*
%TO.C,U8*%
X139429000Y-100278000D02*
X139429000Y-98868000D01*
X141749000Y-100268000D02*
X141749000Y-98868000D01*
X139479000Y-100648000D02*
X139149000Y-100888000D01*
X139149000Y-100408000D01*
X139479000Y-100648000D01*
G36*
X139479000Y-100648000D02*
G01*
X139149000Y-100888000D01*
X139149000Y-100408000D01*
X139479000Y-100648000D01*
G37*
%TO.C,TP5*%
X139612600Y-91084400D02*
G75*
G02*
X138212600Y-91084400I-700000J0D01*
G01*
X138212600Y-91084400D02*
G75*
G02*
X139612600Y-91084400I700000J0D01*
G01*
%TO.C,C1*%
X144370770Y-92158419D02*
X144569581Y-92357230D01*
X145092019Y-91437170D02*
X145290830Y-91635981D01*
%TO.C,U4*%
X148336000Y-68834000D02*
X147320000Y-68834000D01*
X148336000Y-69850000D02*
X148336000Y-68834000D01*
X148082000Y-76708000D02*
X137922000Y-76708000D01*
X137922000Y-69088000D01*
X148082000Y-69088000D01*
X148082000Y-76708000D01*
%TO.C,C12*%
X145458581Y-88242430D02*
X145259770Y-88043619D01*
X146179830Y-87521181D02*
X145981019Y-87322370D01*
%TO.C,R13*%
X137907500Y-98332058D02*
X137907500Y-97857542D01*
X138952500Y-98332058D02*
X138952500Y-97857542D01*
%TO.C,R4*%
X144852370Y-94641903D02*
X145187903Y-94306370D01*
X145591297Y-95380830D02*
X145926830Y-95045297D01*
%TO.C,TP2*%
X156148000Y-83058000D02*
G75*
G02*
X154748000Y-83058000I-700000J0D01*
G01*
X154748000Y-83058000D02*
G75*
G02*
X156148000Y-83058000I700000J0D01*
G01*
D12*
%TO.C,kibuzzard-667D9F56*%
G36*
X145137469Y-97239716D02*
G01*
X145181235Y-97246208D01*
X145224153Y-97256959D01*
X145265812Y-97271865D01*
X145305809Y-97290782D01*
X145343759Y-97313528D01*
X145379296Y-97339885D01*
X145412080Y-97369598D01*
X145441793Y-97402381D01*
X145468149Y-97437919D01*
X145490896Y-97475869D01*
X145509813Y-97515865D01*
X145524718Y-97557524D01*
X145535469Y-97600443D01*
X145541961Y-97644209D01*
X145544132Y-97688400D01*
X145541961Y-97732591D01*
X145535469Y-97776357D01*
X145524718Y-97819276D01*
X145509813Y-97860935D01*
X145490896Y-97900931D01*
X145468149Y-97938881D01*
X145441793Y-97974419D01*
X145412080Y-98007202D01*
X145379296Y-98036915D01*
X145343759Y-98063272D01*
X145305809Y-98086018D01*
X145265812Y-98104935D01*
X145224153Y-98119841D01*
X145181235Y-98130592D01*
X145137469Y-98137084D01*
X145093277Y-98139255D01*
X145093190Y-98139255D01*
X144619344Y-98139255D01*
X144086523Y-98139255D01*
X143146010Y-98139255D01*
X143145923Y-98139255D01*
X143101731Y-98137084D01*
X143057965Y-98130592D01*
X143015047Y-98119841D01*
X142973388Y-98104935D01*
X142933391Y-98086018D01*
X142895441Y-98063272D01*
X142861906Y-98038400D01*
X143146010Y-98038400D01*
X143211523Y-98037631D01*
X143253190Y-98037374D01*
X143293831Y-98037631D01*
X143364472Y-98038400D01*
X143365465Y-97965227D01*
X143366908Y-97891349D01*
X143368799Y-97816765D01*
X143371138Y-97741477D01*
X143374728Y-97645750D01*
X143378660Y-97560280D01*
X143382933Y-97485067D01*
X143427805Y-97483785D01*
X143464985Y-97483015D01*
X143543190Y-97491221D01*
X143580369Y-97516092D01*
X143592164Y-97554810D01*
X143576523Y-97604554D01*
X143530369Y-97639426D01*
X143462420Y-97650708D01*
X143408062Y-97645579D01*
X143460882Y-97790708D01*
X143482036Y-97849041D01*
X143497292Y-97892759D01*
X143512164Y-97939426D01*
X143530369Y-98000323D01*
X143541908Y-98038400D01*
X143614215Y-98037631D01*
X143662933Y-98037374D01*
X143706010Y-98037631D01*
X143776779Y-98038400D01*
X143760369Y-97999938D01*
X143693058Y-97852759D01*
X143861395Y-97852759D01*
X143866979Y-97901363D01*
X143872107Y-97959654D01*
X143876779Y-98027631D01*
X143956381Y-98041021D01*
X144026295Y-98049055D01*
X144086523Y-98051733D01*
X144139023Y-98049041D01*
X144188831Y-98040964D01*
X144235305Y-98026156D01*
X144277805Y-98003272D01*
X144313703Y-97972631D01*
X144340369Y-97934554D01*
X144356908Y-97891669D01*
X144362420Y-97846605D01*
X144358831Y-97813015D01*
X144347805Y-97781990D01*
X144326523Y-97748144D01*
X144293703Y-97710708D01*
X144258318Y-97678400D01*
X144221395Y-97649169D01*
X144163446Y-97602759D01*
X144133703Y-97574041D01*
X144118318Y-97551221D01*
X144114215Y-97531221D01*
X144140626Y-97494297D01*
X144207036Y-97479426D01*
X144274215Y-97486862D01*
X144315241Y-97497182D01*
X144360369Y-97513272D01*
X144358572Y-97495323D01*
X144431651Y-97495323D01*
X144650113Y-97489682D01*
X144648229Y-97574224D01*
X144645508Y-97656715D01*
X144641950Y-97737155D01*
X144637554Y-97815543D01*
X144632321Y-97891880D01*
X144626251Y-97966166D01*
X144619344Y-98038400D01*
X144696779Y-98037631D01*
X144737292Y-98037374D01*
X144776779Y-98037631D01*
X144846010Y-98038400D01*
X144846779Y-97964362D01*
X144849087Y-97870451D01*
X144851423Y-97800508D01*
X144854329Y-97729141D01*
X144857805Y-97656349D01*
X144862805Y-97575964D01*
X144869600Y-97488656D01*
X144905497Y-97488656D01*
X144957292Y-97489226D01*
X145017634Y-97490936D01*
X145086523Y-97493785D01*
X145087292Y-97454297D01*
X145090113Y-97388144D01*
X145093190Y-97338400D01*
X145026523Y-97338913D01*
X144903446Y-97338913D01*
X144776779Y-97339426D01*
X144682869Y-97339362D01*
X144594985Y-97339169D01*
X144513126Y-97338849D01*
X144437292Y-97338400D01*
X144436010Y-97390579D01*
X144434215Y-97438400D01*
X144431651Y-97495323D01*
X144358572Y-97495323D01*
X144354087Y-97450515D01*
X144350626Y-97409938D01*
X144347036Y-97345067D01*
X144280711Y-97333956D01*
X144217805Y-97327289D01*
X144158318Y-97325067D01*
X144072677Y-97331990D01*
X143994728Y-97357887D01*
X143936267Y-97403015D01*
X143903190Y-97459169D01*
X143892164Y-97520451D01*
X143899087Y-97569938D01*
X143921138Y-97615836D01*
X143963446Y-97664554D01*
X144010626Y-97706092D01*
X144107036Y-97790195D01*
X144127549Y-97811990D01*
X144137292Y-97829938D01*
X144139856Y-97846605D01*
X144113446Y-97885323D01*
X144042420Y-97898400D01*
X143963703Y-97888400D01*
X143915690Y-97874490D01*
X143861395Y-97852759D01*
X143693058Y-97852759D01*
X143691651Y-97849682D01*
X143667549Y-97794297D01*
X143640882Y-97729169D01*
X143686459Y-97709362D01*
X143720626Y-97689938D01*
X143767805Y-97644297D01*
X143795241Y-97587887D01*
X143803959Y-97523528D01*
X143796010Y-97465836D01*
X143773703Y-97418913D01*
X143737805Y-97382759D01*
X143684728Y-97355323D01*
X143614728Y-97340451D01*
X143559856Y-97336605D01*
X143497805Y-97335323D01*
X143441138Y-97335900D01*
X143382933Y-97337631D01*
X143328446Y-97339362D01*
X143282933Y-97339938D01*
X143237292Y-97339554D01*
X143179344Y-97338400D01*
X143178831Y-97411797D01*
X143177292Y-97506862D01*
X143175697Y-97576292D01*
X143173646Y-97643386D01*
X143171138Y-97708144D01*
X143166651Y-97797759D01*
X143161395Y-97875836D01*
X143154728Y-97952631D01*
X143146010Y-98038400D01*
X142861906Y-98038400D01*
X142859904Y-98036915D01*
X142827120Y-98007202D01*
X142797407Y-97974419D01*
X142771051Y-97938881D01*
X142748304Y-97900931D01*
X142729387Y-97860935D01*
X142714482Y-97819276D01*
X142703731Y-97776357D01*
X142697239Y-97732591D01*
X142695068Y-97688400D01*
X142697239Y-97644209D01*
X142703731Y-97600443D01*
X142714482Y-97557524D01*
X142729387Y-97515865D01*
X142748304Y-97475869D01*
X142771051Y-97437919D01*
X142797407Y-97402381D01*
X142827120Y-97369598D01*
X142859904Y-97339885D01*
X142895441Y-97313528D01*
X142933391Y-97290782D01*
X142973388Y-97271865D01*
X143015047Y-97256959D01*
X143057965Y-97246208D01*
X143101731Y-97239716D01*
X143145923Y-97237545D01*
X143146010Y-97237545D01*
X145093190Y-97237545D01*
X145093277Y-97237545D01*
X145137469Y-97239716D01*
G37*
D11*
%TO.C,C2*%
X140505581Y-96421230D02*
X140306770Y-96222419D01*
X141226830Y-95699981D02*
X141028019Y-95501170D01*
%TO.C,R1*%
X154923258Y-95159300D02*
X154448742Y-95159300D01*
X154923258Y-96204300D02*
X154448742Y-96204300D01*
%TO.C,C16*%
X149700381Y-96923570D02*
X149501570Y-97122381D01*
X150421630Y-97644819D02*
X150222819Y-97843630D01*
%TO.C,C15*%
X150767181Y-97990370D02*
X150568370Y-98189181D01*
X151488430Y-98711619D02*
X151289619Y-98910430D01*
D12*
%TO.C,kibuzzard-667D9F19*%
G36*
X141395191Y-78206639D02*
G01*
X141438957Y-78213131D01*
X141481876Y-78223882D01*
X141523535Y-78238787D01*
X141563531Y-78257704D01*
X141601481Y-78280451D01*
X141637019Y-78306807D01*
X141669802Y-78336520D01*
X141699515Y-78369304D01*
X141725872Y-78404841D01*
X141748618Y-78442791D01*
X141767535Y-78482788D01*
X141782441Y-78524447D01*
X141793192Y-78567365D01*
X141799684Y-78611131D01*
X141801855Y-78655323D01*
X141801855Y-78655410D01*
X141801855Y-80602590D01*
X141801855Y-80602677D01*
X141799684Y-80646869D01*
X141793192Y-80690635D01*
X141782441Y-80733553D01*
X141767535Y-80775212D01*
X141748618Y-80815209D01*
X141725872Y-80853159D01*
X141699515Y-80888696D01*
X141669802Y-80921480D01*
X141637019Y-80951193D01*
X141601481Y-80977549D01*
X141563531Y-81000296D01*
X141523535Y-81019213D01*
X141481876Y-81034118D01*
X141438957Y-81044869D01*
X141395191Y-81051361D01*
X141351000Y-81053532D01*
X141306809Y-81051361D01*
X141263043Y-81044869D01*
X141220124Y-81034118D01*
X141178465Y-81019213D01*
X141138469Y-81000296D01*
X141100519Y-80977549D01*
X141064981Y-80951193D01*
X141032198Y-80921480D01*
X141002485Y-80888696D01*
X140976128Y-80853159D01*
X140953382Y-80815209D01*
X140934465Y-80775212D01*
X140919559Y-80733553D01*
X140908808Y-80690635D01*
X140902316Y-80646869D01*
X140900145Y-80602677D01*
X140900145Y-80602590D01*
X140900145Y-80128744D01*
X141001000Y-80128744D01*
X141001769Y-80206179D01*
X141002026Y-80246692D01*
X141001769Y-80286179D01*
X141001000Y-80355410D01*
X141075038Y-80356179D01*
X141168949Y-80358487D01*
X141238892Y-80360823D01*
X141310259Y-80363729D01*
X141383051Y-80367205D01*
X141463436Y-80372205D01*
X141550744Y-80379000D01*
X141550744Y-80414897D01*
X141550174Y-80466692D01*
X141548464Y-80527034D01*
X141545615Y-80595923D01*
X141585103Y-80596692D01*
X141651256Y-80599513D01*
X141701000Y-80602590D01*
X141700487Y-80535923D01*
X141700487Y-80412846D01*
X141699974Y-80286179D01*
X141700038Y-80192269D01*
X141700231Y-80104385D01*
X141700551Y-80022526D01*
X141701000Y-79946692D01*
X141648821Y-79945410D01*
X141601000Y-79943615D01*
X141544077Y-79941051D01*
X141549718Y-80159513D01*
X141465176Y-80157629D01*
X141382685Y-80154908D01*
X141302245Y-80151350D01*
X141223857Y-80146954D01*
X141147520Y-80141721D01*
X141073234Y-80135651D01*
X141001000Y-80128744D01*
X140900145Y-80128744D01*
X140900145Y-79595923D01*
X140987667Y-79595923D01*
X140990359Y-79648423D01*
X140998436Y-79698231D01*
X141013244Y-79744705D01*
X141036128Y-79787205D01*
X141066769Y-79823103D01*
X141104846Y-79849769D01*
X141147731Y-79866308D01*
X141192795Y-79871820D01*
X141226385Y-79868231D01*
X141257410Y-79857205D01*
X141291256Y-79835923D01*
X141328692Y-79803103D01*
X141361000Y-79767718D01*
X141390231Y-79730795D01*
X141436641Y-79672846D01*
X141465359Y-79643103D01*
X141488179Y-79627718D01*
X141508179Y-79623615D01*
X141545103Y-79650026D01*
X141559974Y-79716436D01*
X141552538Y-79783615D01*
X141542218Y-79824641D01*
X141526128Y-79869769D01*
X141588885Y-79863487D01*
X141629462Y-79860026D01*
X141694333Y-79856436D01*
X141705444Y-79790111D01*
X141712111Y-79727205D01*
X141714333Y-79667718D01*
X141707410Y-79582077D01*
X141681513Y-79504128D01*
X141636385Y-79445667D01*
X141580231Y-79412590D01*
X141518949Y-79401564D01*
X141469462Y-79408487D01*
X141423564Y-79430538D01*
X141374846Y-79472846D01*
X141333308Y-79520026D01*
X141249205Y-79616436D01*
X141227410Y-79636949D01*
X141209462Y-79646692D01*
X141192795Y-79649256D01*
X141154077Y-79622846D01*
X141141000Y-79551820D01*
X141151000Y-79473103D01*
X141164910Y-79425090D01*
X141186641Y-79370795D01*
X141138037Y-79376379D01*
X141079746Y-79381507D01*
X141011769Y-79386179D01*
X140998379Y-79465781D01*
X140990345Y-79535695D01*
X140987667Y-79595923D01*
X140900145Y-79595923D01*
X140900145Y-78873872D01*
X141001000Y-78873872D01*
X141074173Y-78874865D01*
X141148051Y-78876308D01*
X141222635Y-78878199D01*
X141297923Y-78880538D01*
X141393650Y-78884128D01*
X141479120Y-78888060D01*
X141554333Y-78892333D01*
X141555615Y-78937205D01*
X141556385Y-78974385D01*
X141548179Y-79052590D01*
X141523308Y-79089769D01*
X141484590Y-79101564D01*
X141434846Y-79085923D01*
X141399974Y-79039769D01*
X141388692Y-78971820D01*
X141393821Y-78917462D01*
X141248692Y-78970282D01*
X141190359Y-78991436D01*
X141146641Y-79006692D01*
X141099974Y-79021564D01*
X141039077Y-79039769D01*
X141001000Y-79051308D01*
X141001769Y-79123615D01*
X141002026Y-79172333D01*
X141001769Y-79215410D01*
X141001000Y-79286179D01*
X141039462Y-79269769D01*
X141189718Y-79201051D01*
X141245103Y-79176949D01*
X141310231Y-79150282D01*
X141330038Y-79195859D01*
X141349462Y-79230026D01*
X141395103Y-79277205D01*
X141451513Y-79304641D01*
X141515872Y-79313359D01*
X141573564Y-79305410D01*
X141620487Y-79283103D01*
X141656641Y-79247205D01*
X141684077Y-79194128D01*
X141698949Y-79124128D01*
X141702795Y-79069256D01*
X141704077Y-79007205D01*
X141703500Y-78950538D01*
X141701769Y-78892333D01*
X141700038Y-78837846D01*
X141699462Y-78792333D01*
X141699846Y-78746692D01*
X141701000Y-78688744D01*
X141627603Y-78688231D01*
X141532538Y-78686692D01*
X141463108Y-78685097D01*
X141396014Y-78683046D01*
X141331256Y-78680538D01*
X141241641Y-78676051D01*
X141163564Y-78670795D01*
X141086769Y-78664128D01*
X141001000Y-78655410D01*
X141001769Y-78720923D01*
X141002026Y-78762590D01*
X141001769Y-78803231D01*
X141001000Y-78873872D01*
X140900145Y-78873872D01*
X140900145Y-78655410D01*
X140900145Y-78655323D01*
X140902316Y-78611131D01*
X140908808Y-78567365D01*
X140919559Y-78524447D01*
X140934465Y-78482788D01*
X140953382Y-78442791D01*
X140976128Y-78404841D01*
X141002485Y-78369304D01*
X141032198Y-78336520D01*
X141064981Y-78306807D01*
X141100519Y-78280451D01*
X141138469Y-78257704D01*
X141178465Y-78238787D01*
X141220124Y-78223882D01*
X141263043Y-78213131D01*
X141306809Y-78206639D01*
X141351000Y-78204468D01*
X141395191Y-78206639D01*
G37*
D13*
%TO.C,SW1*%
X136444000Y-84090000D02*
X137644000Y-84090000D01*
X136444000Y-86090000D02*
X136444000Y-84090000D01*
X136444000Y-86090000D02*
X137644000Y-86090000D01*
X137644000Y-82790000D02*
X137782000Y-82790000D01*
X137644000Y-87390000D02*
X137644000Y-82790000D01*
X137782000Y-87390000D02*
X137644000Y-87390000D01*
X139944000Y-85979000D02*
X139944000Y-84201000D01*
D11*
%TO.C,C31*%
X142339600Y-84136620D02*
X142339600Y-84417780D01*
X143359600Y-84136620D02*
X143359600Y-84417780D01*
D12*
%TO.C,kibuzzard-667D9F2A*%
G36*
X137994744Y-91832364D02*
G01*
X137997821Y-91919544D01*
X137993718Y-91976018D01*
X137981410Y-92019287D01*
X137923205Y-92078005D01*
X137876603Y-92094544D01*
X137820385Y-92100056D01*
X137771218Y-92096338D01*
X137723205Y-92085185D01*
X137680064Y-92066274D01*
X137645513Y-92039287D01*
X137606026Y-91967236D01*
X137599103Y-91923390D01*
X137596795Y-91873903D01*
X137599359Y-91814928D01*
X137994744Y-91832364D01*
G37*
G36*
X137839191Y-89448721D02*
G01*
X137882957Y-89455213D01*
X137925876Y-89465964D01*
X137967535Y-89480869D01*
X138007531Y-89499786D01*
X138045481Y-89522533D01*
X138081019Y-89548889D01*
X138113802Y-89578602D01*
X138143515Y-89611386D01*
X138169872Y-89646923D01*
X138192618Y-89684873D01*
X138211535Y-89724870D01*
X138226441Y-89766529D01*
X138237192Y-89809447D01*
X138243684Y-89853213D01*
X138245855Y-89897405D01*
X138245855Y-89897492D01*
X138245855Y-92322108D01*
X138245855Y-92322195D01*
X138243684Y-92366387D01*
X138237192Y-92410153D01*
X138226441Y-92453071D01*
X138211535Y-92494730D01*
X138192618Y-92534727D01*
X138169872Y-92572677D01*
X138143515Y-92608214D01*
X138113802Y-92640998D01*
X138081019Y-92670711D01*
X138045481Y-92697067D01*
X138007531Y-92719814D01*
X137967535Y-92738731D01*
X137925876Y-92753636D01*
X137882957Y-92764387D01*
X137839191Y-92770879D01*
X137795000Y-92773050D01*
X137750809Y-92770879D01*
X137707043Y-92764387D01*
X137664124Y-92753636D01*
X137622465Y-92738731D01*
X137582469Y-92719814D01*
X137544519Y-92697067D01*
X137508981Y-92670711D01*
X137476198Y-92640998D01*
X137446485Y-92608214D01*
X137420128Y-92572677D01*
X137397382Y-92534727D01*
X137378465Y-92494730D01*
X137363559Y-92453071D01*
X137352808Y-92410153D01*
X137346316Y-92366387D01*
X137344145Y-92322195D01*
X137344145Y-92322108D01*
X137344145Y-91895441D01*
X137445000Y-91895441D01*
X137446538Y-91961979D01*
X137451154Y-92021082D01*
X137466026Y-92099544D01*
X137491667Y-92156467D01*
X137544744Y-92223903D01*
X137578782Y-92251531D01*
X137618846Y-92275441D01*
X137664551Y-92295056D01*
X137715513Y-92309800D01*
X137770192Y-92319031D01*
X137827051Y-92322108D01*
X137885192Y-92318133D01*
X137941667Y-92306210D01*
X137993782Y-92286723D01*
X138038846Y-92260056D01*
X138076410Y-92226146D01*
X138106026Y-92184928D01*
X138127308Y-92138326D01*
X138139872Y-92088262D01*
X138146026Y-92032236D01*
X138148077Y-91967749D01*
X138147500Y-91905697D01*
X138145769Y-91839544D01*
X138144038Y-91777877D01*
X138143462Y-91729287D01*
X138143846Y-91681595D01*
X138145000Y-91625697D01*
X138085000Y-91625697D01*
X138040385Y-91625185D01*
X137979701Y-91623646D01*
X137902949Y-91621082D01*
X137823718Y-91618005D01*
X137752179Y-91614928D01*
X137688333Y-91611851D01*
X137632179Y-91608774D01*
X137580157Y-91605242D01*
X137517764Y-91600113D01*
X137445000Y-91593390D01*
X137446154Y-91649928D01*
X137446538Y-91688262D01*
X137445000Y-91895441D01*
X137344145Y-91895441D01*
X137344145Y-91593390D01*
X137344145Y-90933390D01*
X137445000Y-90933390D01*
X137649615Y-90938518D01*
X137892692Y-90949287D01*
X137845000Y-90974031D01*
X137801410Y-90998005D01*
X137734231Y-91035569D01*
X137663974Y-91076467D01*
X137517821Y-91162620D01*
X137445000Y-91202108D01*
X137445769Y-91278005D01*
X137446026Y-91335441D01*
X137445769Y-91395569D01*
X137445000Y-91460056D01*
X137567564Y-91463133D01*
X137992179Y-91486210D01*
X138145000Y-91498518D01*
X138144231Y-91431851D01*
X138143974Y-91398005D01*
X138144231Y-91353774D01*
X138145000Y-91296979D01*
X138094687Y-91296324D01*
X138023063Y-91294358D01*
X137930128Y-91291082D01*
X137834231Y-91287179D01*
X137753718Y-91283333D01*
X137688590Y-91279544D01*
X137747051Y-91249287D01*
X138145000Y-91029800D01*
X138144231Y-90959672D01*
X138143974Y-90907236D01*
X138144231Y-90841595D01*
X138145000Y-90766723D01*
X138065000Y-90766723D01*
X137917821Y-90761082D01*
X137552692Y-90741082D01*
X137445000Y-90730826D01*
X137445769Y-90795954D01*
X137446026Y-90836467D01*
X137445769Y-90877364D01*
X137445000Y-90933390D01*
X137344145Y-90933390D01*
X137344145Y-90730826D01*
X137344145Y-90316979D01*
X137431667Y-90316979D01*
X137432628Y-90362492D01*
X137435513Y-90413903D01*
X137439615Y-90464351D01*
X137444231Y-90506979D01*
X137450577Y-90550762D01*
X137459872Y-90604672D01*
X137510641Y-90606296D01*
X137575427Y-90609116D01*
X137654231Y-90613133D01*
X137733547Y-90617720D01*
X137799872Y-90622250D01*
X137853205Y-90626723D01*
X137852436Y-90553390D01*
X137852179Y-90456467D01*
X137852436Y-90391210D01*
X137853205Y-90322620D01*
X137800641Y-90321595D01*
X137771154Y-90320056D01*
X137708077Y-90316467D01*
X137708590Y-90370826D01*
X137707051Y-90410313D01*
X137595769Y-90404672D01*
X137585769Y-90352492D01*
X137582436Y-90304672D01*
X137587821Y-90252364D01*
X137603974Y-90205185D01*
X137630449Y-90166595D01*
X137666795Y-90140056D01*
X137710962Y-90124672D01*
X137760897Y-90119544D01*
X137811410Y-90124031D01*
X137859359Y-90137492D01*
X137902756Y-90159992D01*
X137939615Y-90191595D01*
X137968846Y-90231274D01*
X137989359Y-90278005D01*
X138001474Y-90329800D01*
X138005513Y-90384672D01*
X138002949Y-90433646D01*
X137995000Y-90491595D01*
X137983205Y-90544928D01*
X137964487Y-90604672D01*
X138052051Y-90599672D01*
X138131154Y-90598005D01*
X138146254Y-90509743D01*
X138155313Y-90426837D01*
X138158333Y-90349287D01*
X138155080Y-90275906D01*
X138145321Y-90209608D01*
X138129054Y-90150393D01*
X138106282Y-90098262D01*
X138067450Y-90038518D01*
X138020356Y-89988860D01*
X137965000Y-89949287D01*
X137903860Y-89920512D01*
X137839416Y-89903247D01*
X137771667Y-89897492D01*
X137709615Y-89902300D01*
X137649615Y-89916723D01*
X137594615Y-89939992D01*
X137547564Y-89971338D01*
X137508974Y-90011146D01*
X137479359Y-90059800D01*
X137457692Y-90116403D01*
X137442949Y-90180056D01*
X137434487Y-90247877D01*
X137431667Y-90316979D01*
X137344145Y-90316979D01*
X137344145Y-89897492D01*
X137344145Y-89897405D01*
X137346316Y-89853213D01*
X137352808Y-89809447D01*
X137363559Y-89766529D01*
X137378465Y-89724870D01*
X137397382Y-89684873D01*
X137420128Y-89646923D01*
X137446485Y-89611386D01*
X137476198Y-89578602D01*
X137508981Y-89548889D01*
X137544519Y-89522533D01*
X137582469Y-89499786D01*
X137622465Y-89480869D01*
X137664124Y-89465964D01*
X137707043Y-89455213D01*
X137750809Y-89448721D01*
X137795000Y-89446550D01*
X137839191Y-89448721D01*
G37*
D11*
%TO.C,C10*%
X156609181Y-92351570D02*
X156410370Y-92550381D01*
X157330430Y-93072819D02*
X157131619Y-93271630D01*
D13*
%TO.C,SW2*%
X136444000Y-78629000D02*
X137644000Y-78629000D01*
X136444000Y-80629000D02*
X136444000Y-78629000D01*
X136444000Y-80629000D02*
X137644000Y-80629000D01*
X137644000Y-77329000D02*
X137782000Y-77329000D01*
X137644000Y-81929000D02*
X137644000Y-77329000D01*
X137782000Y-81929000D02*
X137644000Y-81929000D01*
X139944000Y-80518000D02*
X139944000Y-78740000D01*
D11*
%TO.C,R5*%
X141093170Y-91035103D02*
X141428703Y-90699570D01*
X141832097Y-91774030D02*
X142167630Y-91438497D01*
%TO.C,C11*%
X153281781Y-81740030D02*
X153082970Y-81541219D01*
X154003030Y-81018781D02*
X153804219Y-80819970D01*
D12*
%TO.C,kibuzzard-667D9F03*%
G36*
X151069997Y-81593316D02*
G01*
X151113763Y-81599808D01*
X151156682Y-81610559D01*
X151198340Y-81625465D01*
X151238337Y-81644382D01*
X151276287Y-81667128D01*
X151311825Y-81693485D01*
X151344608Y-81723198D01*
X151374321Y-81755981D01*
X151400677Y-81791519D01*
X151423424Y-81829469D01*
X151442341Y-81869465D01*
X151457246Y-81911124D01*
X151467997Y-81954043D01*
X151474489Y-81997809D01*
X151476660Y-82042000D01*
X151474489Y-82086191D01*
X151467997Y-82129957D01*
X151457246Y-82172876D01*
X151442341Y-82214535D01*
X151423424Y-82254531D01*
X151400677Y-82292481D01*
X151374321Y-82328019D01*
X151344608Y-82360802D01*
X151311825Y-82390515D01*
X151276287Y-82416872D01*
X151238337Y-82439618D01*
X151198340Y-82458535D01*
X151156682Y-82473441D01*
X151113763Y-82484192D01*
X151069997Y-82490684D01*
X151025805Y-82492855D01*
X151025718Y-82492855D01*
X151021103Y-82492855D01*
X150280590Y-82492855D01*
X149660590Y-82492855D01*
X149345205Y-82492855D01*
X148948282Y-82492855D01*
X148948194Y-82492855D01*
X148904003Y-82490684D01*
X148860237Y-82484192D01*
X148817318Y-82473441D01*
X148775660Y-82458535D01*
X148735663Y-82439618D01*
X148697713Y-82416872D01*
X148662175Y-82390515D01*
X148629392Y-82360802D01*
X148599679Y-82328019D01*
X148573323Y-82292481D01*
X148550576Y-82254531D01*
X148531659Y-82214535D01*
X148516754Y-82172876D01*
X148506003Y-82129957D01*
X148499511Y-82086191D01*
X148498285Y-82061231D01*
X148948282Y-82061231D01*
X148954692Y-82136872D01*
X148973923Y-82204821D01*
X149008090Y-82264756D01*
X149059308Y-82316359D01*
X149122000Y-82357128D01*
X149190590Y-82384564D01*
X149265013Y-82400141D01*
X149345205Y-82405333D01*
X149405262Y-82403567D01*
X149470561Y-82398268D01*
X149520624Y-82392000D01*
X149660590Y-82392000D01*
X149725205Y-82391551D01*
X149794949Y-82391231D01*
X149869820Y-82391038D01*
X149949820Y-82390974D01*
X150032612Y-82391088D01*
X150118254Y-82391430D01*
X150206744Y-82392000D01*
X150280590Y-82392000D01*
X150356872Y-82391231D01*
X150398026Y-82390974D01*
X150509308Y-82392000D01*
X150521615Y-82075077D01*
X150524906Y-82022769D01*
X150537513Y-82022769D01*
X150594990Y-82115815D01*
X150645574Y-82199262D01*
X150689267Y-82273108D01*
X150726067Y-82337354D01*
X150755974Y-82392000D01*
X150839692Y-82391231D01*
X150894949Y-82390974D01*
X151021103Y-82392000D01*
X150806744Y-82080718D01*
X150768795Y-82020205D01*
X150809308Y-81965333D01*
X151025718Y-81692000D01*
X150938410Y-81692769D01*
X150903154Y-81693026D01*
X150853923Y-81692769D01*
X150773923Y-81692000D01*
X150745205Y-81736103D01*
X150652385Y-81866359D01*
X150537513Y-82022769D01*
X150524906Y-82022769D01*
X150545718Y-81692000D01*
X150473410Y-81692769D01*
X150434949Y-81693026D01*
X150389308Y-81692769D01*
X150317000Y-81692000D01*
X150317000Y-81736103D01*
X150316316Y-81781915D01*
X150314265Y-81845504D01*
X150310846Y-81926872D01*
X150306551Y-82018891D01*
X150302385Y-82100590D01*
X150298346Y-82171968D01*
X150294436Y-82233026D01*
X150288923Y-82304308D01*
X150280590Y-82392000D01*
X150206744Y-82392000D01*
X150218026Y-82237128D01*
X150164578Y-82239123D01*
X150096544Y-82240319D01*
X150013923Y-82240718D01*
X149971872Y-82240333D01*
X149899051Y-82239179D01*
X149901103Y-82167897D01*
X149916487Y-81877641D01*
X149928795Y-81692000D01*
X149868538Y-81692769D01*
X149824179Y-81693026D01*
X149766359Y-81692769D01*
X149700590Y-81692000D01*
X149699991Y-81756017D01*
X149698197Y-81831145D01*
X149695205Y-81917385D01*
X149692176Y-81986343D01*
X149688474Y-82055526D01*
X149684099Y-82124933D01*
X149679051Y-82194564D01*
X149674493Y-82250462D01*
X149668339Y-82316274D01*
X149660590Y-82392000D01*
X149520624Y-82392000D01*
X149541103Y-82389436D01*
X149552897Y-82305590D01*
X149567769Y-82221231D01*
X149508603Y-82235397D01*
X149460333Y-82244051D01*
X149381103Y-82249949D01*
X149319756Y-82244244D01*
X149269051Y-82227128D01*
X149228346Y-82199564D01*
X149197000Y-82162513D01*
X149177000Y-82116551D01*
X149170333Y-82062256D01*
X149178282Y-82000974D01*
X149202128Y-81945333D01*
X149239820Y-81898795D01*
X149289308Y-81864821D01*
X149348154Y-81844051D01*
X149413923Y-81837128D01*
X149482897Y-81842256D01*
X149525782Y-81849692D01*
X149580077Y-81861744D01*
X149576487Y-81803282D01*
X149573410Y-81741231D01*
X149572385Y-81698154D01*
X149501843Y-81687328D01*
X149439279Y-81680832D01*
X149384692Y-81678667D01*
X149303410Y-81683987D01*
X149224692Y-81699949D01*
X149150397Y-81728282D01*
X149082385Y-81770718D01*
X149025077Y-81826359D01*
X148982897Y-81894308D01*
X148956936Y-81973090D01*
X148948282Y-82061231D01*
X148498285Y-82061231D01*
X148497340Y-82042000D01*
X148499511Y-81997809D01*
X148506003Y-81954043D01*
X148516754Y-81911124D01*
X148531659Y-81869465D01*
X148550576Y-81829469D01*
X148573323Y-81791519D01*
X148599679Y-81755981D01*
X148629392Y-81723198D01*
X148662175Y-81693485D01*
X148697713Y-81667128D01*
X148735663Y-81644382D01*
X148775660Y-81625465D01*
X148817318Y-81610559D01*
X148860237Y-81599808D01*
X148904003Y-81593316D01*
X148948194Y-81591145D01*
X148948282Y-81591145D01*
X151025718Y-81591145D01*
X151025805Y-81591145D01*
X151069997Y-81593316D01*
G37*
D11*
%TO.C,TP3*%
X152846000Y-82423000D02*
G75*
G02*
X151446000Y-82423000I-700000J0D01*
G01*
X151446000Y-82423000D02*
G75*
G02*
X152846000Y-82423000I700000J0D01*
G01*
%TO.C,U9*%
X145525000Y-100405000D02*
X145525000Y-98995000D01*
X147845000Y-100395000D02*
X147845000Y-98995000D01*
X145575000Y-100775000D02*
X145245000Y-101015000D01*
X145245000Y-100535000D01*
X145575000Y-100775000D01*
G36*
X145575000Y-100775000D02*
G01*
X145245000Y-101015000D01*
X145245000Y-100535000D01*
X145575000Y-100775000D01*
G37*
%TO.C,TP1*%
X146750000Y-97028000D02*
G75*
G02*
X145350000Y-97028000I-700000J0D01*
G01*
X145350000Y-97028000D02*
G75*
G02*
X146750000Y-97028000I700000J0D01*
G01*
%TO.C,C3*%
X146671420Y-78534800D02*
X146952580Y-78534800D01*
X146671420Y-79554800D02*
X146952580Y-79554800D01*
%TO.C,U2*%
X147294689Y-88900000D02*
X147612887Y-89218198D01*
X147612887Y-88581802D02*
X147294689Y-88900000D01*
X152081802Y-84112887D02*
X152400000Y-83794689D01*
X152400000Y-83794689D02*
X152718198Y-84112887D01*
X152400000Y-94005311D02*
X152081802Y-93687113D01*
X152718198Y-93687113D02*
X152400000Y-94005311D01*
X157187113Y-89218198D02*
X157505311Y-88900000D01*
X157505311Y-88900000D02*
X157187113Y-88581802D01*
X147195694Y-89635391D02*
X146622938Y-89543467D01*
X147103770Y-89062635D01*
X147195694Y-89635391D01*
G36*
X147195694Y-89635391D02*
G01*
X146622938Y-89543467D01*
X147103770Y-89062635D01*
X147195694Y-89635391D01*
G37*
%TO.C,U10*%
X145643600Y-82832900D02*
X144843600Y-82832900D01*
X145643600Y-82832900D02*
X146443600Y-82832900D01*
X145643600Y-85952900D02*
X144843600Y-85952900D01*
X145643600Y-85952900D02*
X146443600Y-85952900D01*
X147183600Y-86232900D02*
X146703600Y-86232900D01*
X146943600Y-85902900D01*
X147183600Y-86232900D01*
G36*
X147183600Y-86232900D02*
G01*
X146703600Y-86232900D01*
X146943600Y-85902900D01*
X147183600Y-86232900D01*
G37*
D12*
%TO.C,kibuzzard-669B8C44*%
G36*
X141263805Y-84562462D02*
G01*
X141263805Y-84670667D01*
X141259959Y-84721949D01*
X141247395Y-84749641D01*
X141225856Y-84766564D01*
X141196113Y-84772205D01*
X141160728Y-84765282D01*
X141135600Y-84746564D01*
X141120728Y-84712205D01*
X141116113Y-84654769D01*
X141116113Y-84556308D01*
X141263805Y-84562462D01*
G37*
G36*
X141540215Y-84574256D02*
G01*
X141540215Y-84666564D01*
X141533036Y-84727590D01*
X141510985Y-84756564D01*
X141477138Y-84765538D01*
X141450472Y-84761179D01*
X141426369Y-84746308D01*
X141410985Y-84721436D01*
X141404574Y-84691949D01*
X141402779Y-84640923D01*
X141402779Y-84568103D01*
X141540215Y-84574256D01*
G37*
G36*
X141337138Y-85944256D02*
G01*
X141391497Y-85951179D01*
X141435985Y-85961436D01*
X141475087Y-85975795D01*
X141522779Y-86012205D01*
X141537138Y-86055282D01*
X141526497Y-86092077D01*
X141494574Y-86120410D01*
X141440856Y-86138487D01*
X141364831Y-86144513D01*
X141282010Y-86138872D01*
X141203805Y-86120923D01*
X141146369Y-86092462D01*
X141119703Y-86061692D01*
X141113036Y-86031692D01*
X141132523Y-85983231D01*
X141187651Y-85952205D01*
X141227972Y-85944513D01*
X141277651Y-85941949D01*
X141337138Y-85944256D01*
G37*
G36*
X141369791Y-83890613D02*
G01*
X141413557Y-83897105D01*
X141456476Y-83907856D01*
X141498135Y-83922762D01*
X141538131Y-83941679D01*
X141576081Y-83964425D01*
X141611619Y-83990782D01*
X141644402Y-84020495D01*
X141674115Y-84053278D01*
X141700472Y-84088816D01*
X141723218Y-84126766D01*
X141742135Y-84166762D01*
X141757041Y-84208421D01*
X141767792Y-84251340D01*
X141774284Y-84295106D01*
X141776455Y-84339297D01*
X141776455Y-84339385D01*
X141776455Y-86348615D01*
X141776455Y-86348703D01*
X141774284Y-86392894D01*
X141767792Y-86436660D01*
X141757041Y-86479579D01*
X141742135Y-86521237D01*
X141723218Y-86561234D01*
X141700472Y-86599184D01*
X141674115Y-86634722D01*
X141644402Y-86667505D01*
X141611619Y-86697218D01*
X141576081Y-86723575D01*
X141538131Y-86746321D01*
X141498135Y-86765238D01*
X141456476Y-86780144D01*
X141413557Y-86790895D01*
X141369791Y-86797387D01*
X141325600Y-86799558D01*
X141281409Y-86797387D01*
X141237643Y-86790895D01*
X141194724Y-86780144D01*
X141153065Y-86765238D01*
X141113069Y-86746321D01*
X141075119Y-86723575D01*
X141039581Y-86697218D01*
X141006798Y-86667505D01*
X140977085Y-86634722D01*
X140950728Y-86599184D01*
X140927982Y-86561234D01*
X140909065Y-86521237D01*
X140894159Y-86479579D01*
X140883408Y-86436660D01*
X140876916Y-86392894D01*
X140874745Y-86348703D01*
X140874745Y-86348615D01*
X140874745Y-86023487D01*
X140962267Y-86023487D01*
X140969062Y-86094128D01*
X140989446Y-86160410D01*
X141022203Y-86218295D01*
X141066113Y-86263744D01*
X141123613Y-86298872D01*
X141197138Y-86325795D01*
X141279062Y-86342910D01*
X141361754Y-86348615D01*
X141429418Y-86344484D01*
X141490871Y-86332091D01*
X141546113Y-86311436D01*
X141612844Y-86266949D01*
X141656626Y-86207846D01*
X141680856Y-86137397D01*
X141688933Y-86058872D01*
X141682715Y-85991436D01*
X141664062Y-85927590D01*
X141632459Y-85870795D01*
X141587395Y-85824513D01*
X141528036Y-85788038D01*
X141453549Y-85760667D01*
X141370728Y-85743551D01*
X141286369Y-85737846D01*
X141218228Y-85741949D01*
X141154318Y-85754256D01*
X141096690Y-85776820D01*
X141047395Y-85811692D01*
X141008549Y-85856051D01*
X140982267Y-85907077D01*
X140967267Y-85963359D01*
X140962267Y-86023487D01*
X140874745Y-86023487D01*
X140874745Y-85238359D01*
X140975600Y-85238359D01*
X140976369Y-85315795D01*
X140976626Y-85356308D01*
X140976369Y-85395795D01*
X140975600Y-85465026D01*
X141049638Y-85465795D01*
X141143549Y-85468103D01*
X141213492Y-85470439D01*
X141284859Y-85473345D01*
X141357651Y-85476820D01*
X141438036Y-85481820D01*
X141525344Y-85488615D01*
X141525344Y-85524513D01*
X141524774Y-85576308D01*
X141523064Y-85636650D01*
X141520215Y-85705538D01*
X141559703Y-85706308D01*
X141625856Y-85709128D01*
X141675600Y-85712205D01*
X141675087Y-85645538D01*
X141675087Y-85522462D01*
X141674574Y-85395795D01*
X141674638Y-85301885D01*
X141674831Y-85214000D01*
X141675151Y-85132141D01*
X141675600Y-85056308D01*
X141623421Y-85055026D01*
X141575600Y-85053231D01*
X141518677Y-85050667D01*
X141524318Y-85269128D01*
X141439776Y-85267244D01*
X141357285Y-85264523D01*
X141276845Y-85260965D01*
X141198457Y-85256569D01*
X141122120Y-85251336D01*
X141047834Y-85245266D01*
X140975600Y-85238359D01*
X140874745Y-85238359D01*
X140874745Y-84573744D01*
X140975600Y-84573744D01*
X140976113Y-84650603D01*
X140977651Y-84723231D01*
X140980215Y-84782782D01*
X140983805Y-84820410D01*
X141004318Y-84884513D01*
X141040215Y-84935282D01*
X141099190Y-84971179D01*
X141172523Y-84984000D01*
X141226113Y-84976564D01*
X141272010Y-84954256D01*
X141305600Y-84920667D01*
X141324574Y-84885538D01*
X141335087Y-84841949D01*
X141350472Y-84885282D01*
X141372010Y-84918359D01*
X141406626Y-84948872D01*
X141454062Y-84969897D01*
X141509959Y-84977333D01*
X141580215Y-84964513D01*
X141629446Y-84933231D01*
X141658677Y-84888359D01*
X141675087Y-84825538D01*
X141677779Y-84789128D01*
X141678677Y-84734256D01*
X141678100Y-84675667D01*
X141676369Y-84606564D01*
X141674638Y-84536820D01*
X141674062Y-84476308D01*
X141674446Y-84429256D01*
X141675600Y-84368103D01*
X141612010Y-84368615D01*
X141559874Y-84368074D01*
X141487566Y-84366450D01*
X141395087Y-84363744D01*
X141299817Y-84360467D01*
X141219133Y-84357134D01*
X141153036Y-84353744D01*
X141104603Y-84350553D01*
X141045458Y-84345766D01*
X140975600Y-84339385D01*
X140976113Y-84438872D01*
X140975600Y-84573744D01*
X140874745Y-84573744D01*
X140874745Y-84339385D01*
X140874745Y-84339297D01*
X140876916Y-84295106D01*
X140883408Y-84251340D01*
X140894159Y-84208421D01*
X140909065Y-84166762D01*
X140927982Y-84126766D01*
X140950728Y-84088816D01*
X140977085Y-84053278D01*
X141006798Y-84020495D01*
X141039581Y-83990782D01*
X141075119Y-83964425D01*
X141113069Y-83941679D01*
X141153065Y-83922762D01*
X141194724Y-83907856D01*
X141237643Y-83897105D01*
X141281409Y-83890613D01*
X141325600Y-83888442D01*
X141369791Y-83890613D01*
G37*
D11*
%TO.C,J4*%
X150229000Y-67815500D02*
X158357000Y-67815500D01*
X150229000Y-69085500D02*
X150229000Y-67815500D01*
X150229000Y-71625500D02*
X150229000Y-73149500D01*
X158357000Y-67815500D02*
X158357000Y-68831500D01*
X158357000Y-68831500D02*
X158357000Y-69085500D01*
X158357000Y-71625500D02*
X158357000Y-73149500D01*
%TO.C,D1*%
X137474103Y-94035452D02*
X138831748Y-95393097D01*
X138831748Y-95393097D02*
X140730329Y-93494516D01*
X139372684Y-92136871D02*
X137474103Y-94035452D01*
D12*
%TO.C,kibuzzard-669B8939*%
G36*
X155208941Y-76321691D02*
G01*
X155227549Y-76378687D01*
X155256414Y-76466648D01*
X155119711Y-76466648D01*
X155151359Y-76401593D01*
X155173777Y-76354451D01*
X155200590Y-76295659D01*
X155208941Y-76321691D01*
G37*
G36*
X152047842Y-77041667D02*
G01*
X152088502Y-77058150D01*
X152122128Y-77084579D01*
X152146524Y-77119908D01*
X152161359Y-77161502D01*
X152166304Y-77206722D01*
X152160974Y-77254029D01*
X152144985Y-77299249D01*
X152118831Y-77338480D01*
X152083007Y-77367820D01*
X152040315Y-77386117D01*
X151993557Y-77392216D01*
X151949051Y-77386777D01*
X151906963Y-77370458D01*
X151871304Y-77344469D01*
X151846084Y-77310018D01*
X151831084Y-77269359D01*
X151826084Y-77224744D01*
X151831579Y-77175788D01*
X151848062Y-77130018D01*
X151874766Y-77090678D01*
X151910919Y-77061007D01*
X151954216Y-77042381D01*
X152002348Y-77036172D01*
X152047842Y-77041667D01*
G37*
G36*
X152524326Y-76291483D02*
G01*
X152564985Y-76307967D01*
X152598612Y-76334396D01*
X152623007Y-76369725D01*
X152637842Y-76411319D01*
X152642788Y-76456538D01*
X152637458Y-76503846D01*
X152621469Y-76549066D01*
X152595315Y-76588297D01*
X152559491Y-76617637D01*
X152516798Y-76635934D01*
X152470040Y-76642033D01*
X152425535Y-76636593D01*
X152383447Y-76620275D01*
X152347788Y-76594286D01*
X152322568Y-76559835D01*
X152307568Y-76519176D01*
X152302568Y-76474560D01*
X152308062Y-76425604D01*
X152324546Y-76379835D01*
X152351249Y-76340494D01*
X152387403Y-76310824D01*
X152430700Y-76292198D01*
X152478831Y-76285989D01*
X152524326Y-76291483D01*
G37*
G36*
X154768722Y-77041667D02*
G01*
X154809381Y-77058150D01*
X154843007Y-77084579D01*
X154867403Y-77119908D01*
X154882238Y-77161502D01*
X154887183Y-77206722D01*
X154881853Y-77254029D01*
X154865864Y-77299249D01*
X154839711Y-77338480D01*
X154803886Y-77367820D01*
X154761194Y-77386117D01*
X154714436Y-77392216D01*
X154669930Y-77386777D01*
X154627842Y-77370458D01*
X154592183Y-77344469D01*
X154566963Y-77310018D01*
X154551963Y-77269359D01*
X154546963Y-77224744D01*
X154552458Y-77175788D01*
X154568941Y-77130018D01*
X154595645Y-77090678D01*
X154631798Y-77061007D01*
X154675095Y-77042381D01*
X154723227Y-77036172D01*
X154768722Y-77041667D01*
G37*
G36*
X157359346Y-78351923D02*
G01*
X157359271Y-78351923D01*
X156795315Y-78351923D01*
X156202348Y-78351923D01*
X155670919Y-78351923D01*
X155143447Y-78351923D01*
X154710040Y-78351923D01*
X153736414Y-78351923D01*
X153299491Y-78351923D01*
X152792238Y-78351923D01*
X152307403Y-78351923D01*
X151898172Y-78351923D01*
X151203227Y-78351923D01*
X150995315Y-78351923D01*
X150995240Y-78351923D01*
X150313262Y-78351923D01*
X150519196Y-77665476D01*
X150995315Y-77665476D01*
X151079711Y-77902839D01*
X151186963Y-78211850D01*
X151203227Y-78265476D01*
X151271908Y-78264817D01*
X151314436Y-78264597D01*
X151356634Y-78264817D01*
X151419930Y-78265476D01*
X151445864Y-78209322D01*
X151469161Y-78161300D01*
X151603738Y-77894487D01*
X151824326Y-77894487D01*
X151866744Y-77864322D01*
X151891139Y-77847674D01*
X151922788Y-77827674D01*
X151921078Y-77880958D01*
X151917708Y-77953486D01*
X151912678Y-78045256D01*
X151907159Y-78137320D01*
X151902324Y-78210726D01*
X151898172Y-78265476D01*
X151944766Y-78264817D01*
X152001908Y-78264597D01*
X152051469Y-78264817D01*
X152092897Y-78265476D01*
X152307403Y-78265476D01*
X152369820Y-78264817D01*
X152396194Y-78264597D01*
X152472678Y-78265476D01*
X152475510Y-78198370D01*
X152478148Y-78145330D01*
X152480259Y-78111630D01*
X152577293Y-78111630D01*
X152583007Y-78173498D01*
X152588722Y-78253608D01*
X152647788Y-78264762D01*
X152697513Y-78271850D01*
X152743722Y-78275641D01*
X152792238Y-78276905D01*
X152843062Y-78274267D01*
X152893557Y-78266355D01*
X152941029Y-78252344D01*
X152982788Y-78231410D01*
X153016963Y-78203883D01*
X153041689Y-78170092D01*
X153056689Y-78131520D01*
X153061689Y-78089652D01*
X153056414Y-78048333D01*
X153040150Y-78013388D01*
X153013337Y-77986135D01*
X152981908Y-77968333D01*
X152938612Y-77956465D01*
X152980809Y-77937564D01*
X153013337Y-77915586D01*
X153042348Y-77884157D01*
X153060590Y-77845696D01*
X153066524Y-77802619D01*
X153050480Y-77735366D01*
X153000370Y-77686795D01*
X152962842Y-77671026D01*
X152918392Y-77661081D01*
X152869491Y-77655806D01*
X152818612Y-77654048D01*
X152763813Y-77655317D01*
X152705498Y-77659127D01*
X152643667Y-77665476D01*
X152638392Y-77694487D01*
X152616414Y-77796465D01*
X152664436Y-77787454D01*
X152701249Y-77782399D01*
X152760150Y-77779322D01*
X152813777Y-77784377D01*
X152846084Y-77801740D01*
X152856853Y-77829432D01*
X152843227Y-77861300D01*
X152803447Y-77881081D01*
X152737733Y-77886135D01*
X152671359Y-77880421D01*
X152666853Y-77947344D01*
X152661249Y-78015366D01*
X152697733Y-78011740D01*
X152737733Y-78010531D01*
X152793831Y-78014267D01*
X152832897Y-78025476D01*
X152863447Y-78072509D01*
X152833337Y-78125037D01*
X152798557Y-78139707D01*
X152754436Y-78144597D01*
X152699588Y-78140934D01*
X152640541Y-78129945D01*
X152577293Y-78111630D01*
X152480259Y-78111630D01*
X152480590Y-78106355D01*
X152430480Y-78107344D01*
X152427403Y-78107383D01*
X152404106Y-78107674D01*
X152313557Y-78106355D01*
X152311701Y-78168577D01*
X152309650Y-78221618D01*
X152307403Y-78265476D01*
X152092897Y-78265476D01*
X152092897Y-78208333D01*
X152097293Y-78088773D01*
X152116194Y-77763498D01*
X152124985Y-77665476D01*
X152074985Y-77666135D01*
X152026084Y-77666355D01*
X151989161Y-77666186D01*
X151978062Y-77666135D01*
X151935974Y-77665476D01*
X151916853Y-77680201D01*
X151882128Y-77702399D01*
X151831359Y-77732729D01*
X151829161Y-77806795D01*
X151826853Y-77853883D01*
X151824326Y-77894487D01*
X151603738Y-77894487D01*
X151620809Y-77860641D01*
X151657293Y-77789335D01*
X151691139Y-77724280D01*
X151722348Y-77665476D01*
X151662568Y-77666135D01*
X151626524Y-77666355D01*
X151591798Y-77666185D01*
X151581579Y-77666135D01*
X151524106Y-77665476D01*
X151508062Y-77705476D01*
X151499051Y-77726575D01*
X151372458Y-78003702D01*
X151345645Y-78062399D01*
X151325425Y-78112949D01*
X151312458Y-78065586D01*
X151301689Y-78028114D01*
X151237073Y-77820201D01*
X151218612Y-77761850D01*
X151207183Y-77724817D01*
X151191359Y-77665476D01*
X151138392Y-77666135D01*
X151101689Y-77666355D01*
X151051798Y-77666135D01*
X150995315Y-77665476D01*
X150519196Y-77665476D01*
X150649306Y-77231777D01*
X151032238Y-77231777D01*
X151037733Y-77296612D01*
X151054216Y-77354853D01*
X151083502Y-77406227D01*
X151127403Y-77450458D01*
X151181139Y-77485403D01*
X151239930Y-77508919D01*
X151303722Y-77522271D01*
X151372458Y-77526722D01*
X151423935Y-77525208D01*
X151479906Y-77520665D01*
X151540370Y-77513095D01*
X151550480Y-77441227D01*
X151563227Y-77368919D01*
X151512513Y-77381062D01*
X151471139Y-77388480D01*
X151403227Y-77393535D01*
X151350645Y-77388645D01*
X151307183Y-77373974D01*
X151272293Y-77350348D01*
X151245425Y-77318590D01*
X151228282Y-77279194D01*
X151222568Y-77232656D01*
X151223252Y-77227381D01*
X151635755Y-77227381D01*
X151641029Y-77289908D01*
X151656853Y-77346502D01*
X151685260Y-77397656D01*
X151728282Y-77443864D01*
X151783062Y-77481557D01*
X151846744Y-77507161D01*
X151916414Y-77521831D01*
X151989161Y-77526722D01*
X152062897Y-77521722D01*
X152093276Y-77515293D01*
X152427403Y-77515293D01*
X152483227Y-77514634D01*
X152517952Y-77514414D01*
X152553007Y-77514634D01*
X152601029Y-77515293D01*
X152605425Y-77339908D01*
X152614656Y-77131557D01*
X152635864Y-77172436D01*
X152656414Y-77209798D01*
X152688612Y-77267381D01*
X152723667Y-77327601D01*
X152797513Y-77452875D01*
X152831359Y-77515293D01*
X152896414Y-77514634D01*
X152945645Y-77514414D01*
X152997183Y-77514634D01*
X153052458Y-77515293D01*
X153055095Y-77410238D01*
X153074684Y-77049798D01*
X153138612Y-77049798D01*
X153325864Y-77044963D01*
X153324250Y-77117428D01*
X153321917Y-77188134D01*
X153318867Y-77257083D01*
X153315100Y-77324273D01*
X153310614Y-77389704D01*
X153305411Y-77453378D01*
X153299491Y-77515293D01*
X153365864Y-77514634D01*
X153400590Y-77514414D01*
X153434436Y-77514634D01*
X153493777Y-77515293D01*
X153736414Y-77515293D01*
X153792568Y-77514634D01*
X153828282Y-77514414D01*
X153863117Y-77514634D01*
X153923667Y-77515293D01*
X153924518Y-77452573D01*
X153925755Y-77389249D01*
X153927375Y-77325320D01*
X153929381Y-77260788D01*
X153932458Y-77178736D01*
X153935828Y-77105476D01*
X153939491Y-77041007D01*
X153977952Y-77039908D01*
X154009820Y-77039249D01*
X154076853Y-77046282D01*
X154108722Y-77067601D01*
X154118831Y-77100788D01*
X154105425Y-77143425D01*
X154065864Y-77173315D01*
X154007623Y-77182985D01*
X153961029Y-77178590D01*
X154006304Y-77302985D01*
X154024436Y-77352985D01*
X154037513Y-77390458D01*
X154050260Y-77430458D01*
X154065864Y-77482656D01*
X154075755Y-77515293D01*
X154137733Y-77514634D01*
X154179491Y-77514414D01*
X154216414Y-77514634D01*
X154277073Y-77515293D01*
X154263007Y-77482326D01*
X154204106Y-77353535D01*
X154183447Y-77306062D01*
X154160590Y-77250238D01*
X154199656Y-77233260D01*
X154209998Y-77227381D01*
X154356634Y-77227381D01*
X154361908Y-77289908D01*
X154377733Y-77346502D01*
X154406139Y-77397656D01*
X154449161Y-77443864D01*
X154503941Y-77481557D01*
X154567623Y-77507161D01*
X154637293Y-77521831D01*
X154710040Y-77526722D01*
X154783777Y-77521722D01*
X154814156Y-77515293D01*
X155143447Y-77515293D01*
X155198831Y-77514908D01*
X155258612Y-77514634D01*
X155322788Y-77514469D01*
X155391359Y-77514414D01*
X155462324Y-77514512D01*
X155535730Y-77514805D01*
X155611579Y-77515293D01*
X155670919Y-77515293D01*
X155726304Y-77514908D01*
X155786084Y-77514634D01*
X155850260Y-77514469D01*
X155918831Y-77514414D01*
X155989796Y-77514512D01*
X156063203Y-77514805D01*
X156139051Y-77515293D01*
X156202348Y-77515293D01*
X156264766Y-77514853D01*
X156458172Y-77514414D01*
X156520837Y-77514469D01*
X156580919Y-77514634D01*
X156638419Y-77514908D01*
X156693337Y-77515293D01*
X156795315Y-77515293D01*
X156851469Y-77514634D01*
X156887183Y-77514414D01*
X156922018Y-77514634D01*
X156982568Y-77515293D01*
X156983419Y-77452573D01*
X156984656Y-77389249D01*
X156986277Y-77325320D01*
X156988282Y-77260788D01*
X156991359Y-77178736D01*
X156994729Y-77105476D01*
X156998392Y-77041007D01*
X157036853Y-77039908D01*
X157068722Y-77039249D01*
X157135755Y-77046282D01*
X157167623Y-77067601D01*
X157177733Y-77100788D01*
X157164326Y-77143425D01*
X157124766Y-77173315D01*
X157066524Y-77182985D01*
X157019930Y-77178590D01*
X157065205Y-77302985D01*
X157083337Y-77352985D01*
X157096414Y-77390458D01*
X157109161Y-77430458D01*
X157124766Y-77482656D01*
X157134656Y-77515293D01*
X157196634Y-77514634D01*
X157238392Y-77514414D01*
X157275315Y-77514634D01*
X157335974Y-77515293D01*
X157321908Y-77482326D01*
X157263007Y-77353535D01*
X157242348Y-77306062D01*
X157219491Y-77250238D01*
X157258557Y-77233260D01*
X157287842Y-77216612D01*
X157328282Y-77177491D01*
X157351798Y-77129139D01*
X157359271Y-77073974D01*
X157352458Y-77024524D01*
X157333337Y-76984304D01*
X157302568Y-76953315D01*
X157257073Y-76929798D01*
X157197073Y-76917051D01*
X157150040Y-76913755D01*
X157096853Y-76912656D01*
X157048282Y-76913150D01*
X156998392Y-76914634D01*
X156951689Y-76916117D01*
X156912678Y-76916612D01*
X156873557Y-76916282D01*
X156823886Y-76915293D01*
X156823447Y-76978205D01*
X156822128Y-77059689D01*
X156820761Y-77119200D01*
X156819002Y-77176709D01*
X156816853Y-77232216D01*
X156813007Y-77309029D01*
X156808502Y-77375952D01*
X156802788Y-77441777D01*
X156795315Y-77515293D01*
X156693337Y-77515293D01*
X156697293Y-77446941D01*
X156702128Y-77380788D01*
X156634436Y-77384304D01*
X156543447Y-77386502D01*
X156485095Y-77387491D01*
X156450700Y-77387820D01*
X156400150Y-77387820D01*
X156405425Y-77281007D01*
X156476963Y-77278700D01*
X156541249Y-77277930D01*
X156590919Y-77278150D01*
X156658172Y-77278809D01*
X156662238Y-77206392D01*
X156666524Y-77144744D01*
X156580590Y-77147051D01*
X156535535Y-77147820D01*
X156470809Y-77147491D01*
X156414656Y-77146502D01*
X156419930Y-77045842D01*
X156489161Y-77043864D01*
X156521634Y-77043700D01*
X156574656Y-77043645D01*
X156639051Y-77044524D01*
X156717073Y-77047161D01*
X156717952Y-77015952D01*
X156720590Y-76968040D01*
X156722788Y-76929798D01*
X156723667Y-76915293D01*
X156669793Y-76915678D01*
X156611908Y-76915952D01*
X156550013Y-76916117D01*
X156484106Y-76916172D01*
X156463447Y-76916156D01*
X156413200Y-76916117D01*
X156347733Y-76915952D01*
X156287705Y-76915678D01*
X156233117Y-76915293D01*
X156233557Y-76953974D01*
X156232995Y-76991019D01*
X156231310Y-77047063D01*
X156228502Y-77122106D01*
X156225132Y-77201056D01*
X156221762Y-77268822D01*
X156218392Y-77325403D01*
X156214363Y-77380494D01*
X156209015Y-77443791D01*
X156202348Y-77515293D01*
X156139051Y-77515293D01*
X156148722Y-77382546D01*
X156102910Y-77384255D01*
X156044595Y-77385281D01*
X155973777Y-77385623D01*
X155937733Y-77385293D01*
X155875315Y-77384304D01*
X155877073Y-77323205D01*
X155890260Y-77074414D01*
X155900809Y-76915293D01*
X155849161Y-76915952D01*
X155811139Y-76916172D01*
X155761579Y-76915952D01*
X155705205Y-76915293D01*
X155704692Y-76970165D01*
X155703154Y-77034560D01*
X155700590Y-77108480D01*
X155697994Y-77167587D01*
X155694820Y-77226886D01*
X155691070Y-77286378D01*
X155686744Y-77346062D01*
X155682836Y-77393974D01*
X155677562Y-77450385D01*
X155670919Y-77515293D01*
X155611579Y-77515293D01*
X155621249Y-77382546D01*
X155591359Y-77383661D01*
X155575437Y-77384255D01*
X155517122Y-77385281D01*
X155446304Y-77385623D01*
X155410260Y-77385293D01*
X155347842Y-77384304D01*
X155349601Y-77323205D01*
X155362788Y-77074414D01*
X155373337Y-76915293D01*
X155321689Y-76915952D01*
X155283667Y-76916172D01*
X155234106Y-76915952D01*
X155177733Y-76915293D01*
X155177220Y-76970165D01*
X155175681Y-77034560D01*
X155173117Y-77108480D01*
X155170521Y-77167587D01*
X155167348Y-77226886D01*
X155163598Y-77286378D01*
X155159271Y-77346062D01*
X155155364Y-77393974D01*
X155150089Y-77450385D01*
X155143447Y-77515293D01*
X154814156Y-77515293D01*
X154854656Y-77506722D01*
X154919271Y-77480952D01*
X154974216Y-77443645D01*
X155018447Y-77395897D01*
X155050919Y-77338809D01*
X155070864Y-77274029D01*
X155077513Y-77203205D01*
X155071469Y-77136941D01*
X155053337Y-77078809D01*
X155023007Y-77027875D01*
X154980370Y-76983205D01*
X154927513Y-76947326D01*
X154866524Y-76922766D01*
X154800150Y-76908590D01*
X154779491Y-76907175D01*
X154731139Y-76903864D01*
X154660346Y-76908407D01*
X154594485Y-76922033D01*
X154533557Y-76944744D01*
X154479882Y-76975537D01*
X154435779Y-77013413D01*
X154401249Y-77058370D01*
X154376463Y-77109481D01*
X154361591Y-77165818D01*
X154356634Y-77227381D01*
X154209998Y-77227381D01*
X154228941Y-77216612D01*
X154269381Y-77177491D01*
X154292897Y-77129139D01*
X154300370Y-77073974D01*
X154293557Y-77024524D01*
X154274436Y-76984304D01*
X154243667Y-76953315D01*
X154198172Y-76929798D01*
X154179491Y-76925830D01*
X154138172Y-76917051D01*
X154091139Y-76913755D01*
X154037952Y-76912656D01*
X153989381Y-76913150D01*
X153939491Y-76914634D01*
X153892788Y-76916117D01*
X153853777Y-76916612D01*
X153814656Y-76916282D01*
X153764985Y-76915293D01*
X153764546Y-76978205D01*
X153763227Y-77059689D01*
X153761860Y-77119200D01*
X153760101Y-77176709D01*
X153757952Y-77232216D01*
X153754106Y-77309029D01*
X153749601Y-77375952D01*
X153743886Y-77441777D01*
X153736414Y-77515293D01*
X153493777Y-77515293D01*
X153494436Y-77451831D01*
X153496414Y-77371337D01*
X153498416Y-77311386D01*
X153500907Y-77250214D01*
X153503886Y-77187820D01*
X153508172Y-77118919D01*
X153513996Y-77044084D01*
X153544766Y-77044084D01*
X153589161Y-77044573D01*
X153640883Y-77046038D01*
X153699930Y-77048480D01*
X153700590Y-77014634D01*
X153703007Y-76957930D01*
X153705645Y-76915293D01*
X153648502Y-76915733D01*
X153543007Y-76915733D01*
X153479711Y-76915989D01*
X153434436Y-76916172D01*
X153353941Y-76916117D01*
X153278612Y-76915952D01*
X153208447Y-76915678D01*
X153143447Y-76915293D01*
X153142348Y-76960018D01*
X153140809Y-77001007D01*
X153138612Y-77049798D01*
X153074684Y-77049798D01*
X153074875Y-77046282D01*
X153085425Y-76915293D01*
X153028282Y-76915952D01*
X152999271Y-76916172D01*
X152961359Y-76915952D01*
X152912678Y-76915293D01*
X152912116Y-76958419D01*
X152910431Y-77019811D01*
X152907623Y-77099469D01*
X152905205Y-77158867D01*
X152904277Y-77181667D01*
X152900980Y-77250678D01*
X152897733Y-77306502D01*
X152871798Y-77256392D01*
X152683667Y-76915293D01*
X152623557Y-76915952D01*
X152578612Y-76916172D01*
X152522348Y-76915952D01*
X152465645Y-76915370D01*
X152458172Y-76915293D01*
X152458172Y-76983864D01*
X152453337Y-77110018D01*
X152436194Y-77422985D01*
X152427403Y-77515293D01*
X152093276Y-77515293D01*
X152133777Y-77506722D01*
X152198392Y-77480952D01*
X152253337Y-77443645D01*
X152297568Y-77395897D01*
X152330040Y-77338809D01*
X152349985Y-77274029D01*
X152356634Y-77203205D01*
X152350590Y-77136941D01*
X152332458Y-77078809D01*
X152302128Y-77027875D01*
X152259491Y-76983205D01*
X152206634Y-76947326D01*
X152145645Y-76922766D01*
X152079271Y-76908590D01*
X152010260Y-76903864D01*
X151939466Y-76908407D01*
X151873606Y-76922033D01*
X151812678Y-76944744D01*
X151759002Y-76975537D01*
X151714900Y-77013413D01*
X151680370Y-77058370D01*
X151655584Y-77109481D01*
X151640712Y-77165818D01*
X151635755Y-77227381D01*
X151223252Y-77227381D01*
X151229381Y-77180128D01*
X151249820Y-77132436D01*
X151282128Y-77092546D01*
X151324546Y-77063425D01*
X151374985Y-77045623D01*
X151431359Y-77039689D01*
X151490480Y-77044084D01*
X151527238Y-77050458D01*
X151573777Y-77060788D01*
X151570700Y-77010678D01*
X151568062Y-76957491D01*
X151567183Y-76920568D01*
X151506719Y-76911288D01*
X151453093Y-76905720D01*
X151406304Y-76903864D01*
X151336634Y-76908425D01*
X151269161Y-76922106D01*
X151205480Y-76946392D01*
X151147183Y-76982766D01*
X151098062Y-77030458D01*
X151061908Y-77088700D01*
X151045425Y-77138720D01*
X151039656Y-77156227D01*
X151032238Y-77231777D01*
X150649306Y-77231777D01*
X150789306Y-76765110D01*
X151045425Y-76765110D01*
X151117073Y-76764451D01*
X151148282Y-76764231D01*
X151242788Y-76765110D01*
X151591798Y-76765110D01*
X151647183Y-76764725D01*
X151706963Y-76764451D01*
X151771139Y-76764286D01*
X151839711Y-76764231D01*
X151910675Y-76764328D01*
X151984082Y-76764621D01*
X152059930Y-76765110D01*
X152069601Y-76632363D01*
X152023789Y-76634072D01*
X151965474Y-76635098D01*
X151894656Y-76635440D01*
X151858612Y-76635110D01*
X151796194Y-76634121D01*
X151797952Y-76573022D01*
X151803031Y-76477198D01*
X152112238Y-76477198D01*
X152117513Y-76539725D01*
X152133337Y-76596319D01*
X152161744Y-76647472D01*
X152204766Y-76693681D01*
X152259546Y-76731374D01*
X152323227Y-76756978D01*
X152392897Y-76771648D01*
X152465645Y-76776538D01*
X152539381Y-76771538D01*
X152569755Y-76765110D01*
X152905205Y-76765110D01*
X152964546Y-76764451D01*
X152996634Y-76764231D01*
X153084106Y-76765110D01*
X153479711Y-76765110D01*
X153539051Y-76764451D01*
X153571139Y-76764231D01*
X153658612Y-76765110D01*
X153658612Y-76707967D01*
X153658969Y-76679615D01*
X153660040Y-76632363D01*
X153661826Y-76566209D01*
X153664326Y-76481154D01*
X153666670Y-76414096D01*
X153669601Y-76351239D01*
X153673117Y-76292582D01*
X153710040Y-76289945D01*
X153743007Y-76289066D01*
X153772018Y-76291264D01*
X153795315Y-76300934D01*
X153810700Y-76320055D01*
X153815535Y-76346648D01*
X153793777Y-76398736D01*
X153727623Y-76420055D01*
X153687183Y-76416099D01*
X153703007Y-76475440D01*
X153716194Y-76535659D01*
X153771139Y-76540934D01*
X153832568Y-76534890D01*
X153887623Y-76516758D01*
X153933667Y-76486429D01*
X153968062Y-76443791D01*
X153989491Y-76392472D01*
X153996634Y-76336099D01*
X153989161Y-76280055D01*
X153966744Y-76231044D01*
X153928941Y-76193461D01*
X153877733Y-76169945D01*
X153846683Y-76165110D01*
X153994875Y-76165110D01*
X154196194Y-76523791D01*
X154194656Y-76571483D01*
X154190040Y-76644231D01*
X154184326Y-76717088D01*
X154179491Y-76765110D01*
X154234656Y-76764451D01*
X154276194Y-76764231D01*
X154317073Y-76764451D01*
X154372018Y-76765110D01*
X154779491Y-76765110D01*
X154843557Y-76764451D01*
X154887183Y-76764231D01*
X154921469Y-76764451D01*
X154987403Y-76765110D01*
X155014363Y-76704744D01*
X155040736Y-76647894D01*
X155066524Y-76594560D01*
X155288062Y-76594560D01*
X155310480Y-76657076D01*
X155329088Y-76713925D01*
X155343886Y-76765110D01*
X155406853Y-76764451D01*
X155452458Y-76764231D01*
X155483667Y-76764451D01*
X155544766Y-76765110D01*
X155591359Y-76765110D01*
X155647183Y-76764451D01*
X155681908Y-76764231D01*
X155716963Y-76764451D01*
X155764985Y-76765110D01*
X155769381Y-76589725D01*
X155778612Y-76381374D01*
X155799820Y-76422253D01*
X155820370Y-76459615D01*
X155852568Y-76517198D01*
X155887623Y-76577418D01*
X155961469Y-76702692D01*
X155995315Y-76765110D01*
X156060370Y-76764451D01*
X156109601Y-76764231D01*
X156161139Y-76764451D01*
X156216414Y-76765110D01*
X156219051Y-76660055D01*
X156238640Y-76299615D01*
X156302568Y-76299615D01*
X156489820Y-76294780D01*
X156488206Y-76367245D01*
X156485873Y-76437951D01*
X156482823Y-76506899D01*
X156479056Y-76574089D01*
X156474570Y-76639521D01*
X156469367Y-76703195D01*
X156463447Y-76765110D01*
X156529820Y-76764451D01*
X156564546Y-76764231D01*
X156598392Y-76764451D01*
X156657733Y-76765110D01*
X156658392Y-76701648D01*
X156660370Y-76621154D01*
X156662372Y-76561203D01*
X156664863Y-76500030D01*
X156667842Y-76437637D01*
X156672128Y-76368736D01*
X156677952Y-76293901D01*
X156708722Y-76293901D01*
X156753117Y-76294389D01*
X156804839Y-76295855D01*
X156863886Y-76298297D01*
X156864546Y-76264451D01*
X156866963Y-76207747D01*
X156869601Y-76165110D01*
X156812458Y-76165549D01*
X156706963Y-76165549D01*
X156598392Y-76165989D01*
X156517897Y-76165934D01*
X156442568Y-76165769D01*
X156372403Y-76165494D01*
X156307403Y-76165110D01*
X156306304Y-76209835D01*
X156304766Y-76250824D01*
X156302568Y-76299615D01*
X156238640Y-76299615D01*
X156238831Y-76296099D01*
X156249381Y-76165110D01*
X156192238Y-76165769D01*
X156163227Y-76165989D01*
X156125315Y-76165769D01*
X156076634Y-76165110D01*
X156076072Y-76208236D01*
X156074387Y-76269628D01*
X156071579Y-76349286D01*
X156068233Y-76431483D01*
X156064936Y-76500494D01*
X156061689Y-76556319D01*
X156035755Y-76506209D01*
X155847623Y-76165110D01*
X155787513Y-76165769D01*
X155742568Y-76165989D01*
X155686304Y-76165769D01*
X155622128Y-76165110D01*
X155622128Y-76233681D01*
X155617293Y-76359835D01*
X155600150Y-76672802D01*
X155591359Y-76765110D01*
X155544766Y-76765110D01*
X155519271Y-76700934D01*
X155388722Y-76348407D01*
X155324546Y-76165110D01*
X155269491Y-76165769D01*
X155209820Y-76165989D01*
X155163777Y-76165769D01*
X155096853Y-76165110D01*
X155067403Y-76225769D01*
X155043227Y-76273681D01*
X154815974Y-76701813D01*
X154779491Y-76765110D01*
X154372018Y-76765110D01*
X154374106Y-76688516D01*
X154376853Y-76618736D01*
X154379930Y-76551923D01*
X154380370Y-76547527D01*
X154380370Y-76543132D01*
X154380809Y-76538736D01*
X154395205Y-76514451D01*
X154438392Y-76449505D01*
X154631359Y-76165110D01*
X154570809Y-76165769D01*
X154532458Y-76165989D01*
X154479930Y-76165769D01*
X154425205Y-76165110D01*
X154407623Y-76196044D01*
X154381249Y-76239615D01*
X154358538Y-76277247D01*
X154331432Y-76323620D01*
X154299930Y-76378736D01*
X154278227Y-76327582D01*
X154250919Y-76269945D01*
X154223941Y-76213297D01*
X154203227Y-76165110D01*
X154149711Y-76165769D01*
X154104326Y-76165989D01*
X154055425Y-76165769D01*
X153994875Y-76165110D01*
X153846683Y-76165110D01*
X153841744Y-76164341D01*
X153790480Y-76162472D01*
X153745095Y-76162967D01*
X153690700Y-76164451D01*
X153638062Y-76165934D01*
X153597952Y-76166429D01*
X153557073Y-76166099D01*
X153504766Y-76165110D01*
X153505205Y-76227088D01*
X153504766Y-76277198D01*
X153499930Y-76432802D01*
X153488502Y-76652582D01*
X153479711Y-76765110D01*
X153084106Y-76765110D01*
X153084106Y-76707967D01*
X153084463Y-76679615D01*
X153085535Y-76632363D01*
X153087320Y-76566209D01*
X153089820Y-76481154D01*
X153092165Y-76414096D01*
X153095095Y-76351239D01*
X153098612Y-76292582D01*
X153135535Y-76289945D01*
X153168502Y-76289066D01*
X153197513Y-76291264D01*
X153220809Y-76300934D01*
X153236194Y-76320055D01*
X153241029Y-76346648D01*
X153219271Y-76398736D01*
X153153117Y-76420055D01*
X153112678Y-76416099D01*
X153128502Y-76475440D01*
X153141689Y-76535659D01*
X153196634Y-76540934D01*
X153258062Y-76534890D01*
X153313117Y-76516758D01*
X153359161Y-76486429D01*
X153393557Y-76443791D01*
X153414985Y-76392472D01*
X153422128Y-76336099D01*
X153414656Y-76280055D01*
X153392238Y-76231044D01*
X153354436Y-76193461D01*
X153303227Y-76169945D01*
X153267238Y-76164341D01*
X153215974Y-76162472D01*
X153170590Y-76162967D01*
X153116194Y-76164451D01*
X153063557Y-76165934D01*
X153023447Y-76166429D01*
X152982568Y-76166099D01*
X152930260Y-76165110D01*
X152930700Y-76227088D01*
X152930260Y-76277198D01*
X152925425Y-76432802D01*
X152913996Y-76652582D01*
X152905205Y-76765110D01*
X152569755Y-76765110D01*
X152610260Y-76756538D01*
X152674875Y-76730769D01*
X152729820Y-76693461D01*
X152774051Y-76645714D01*
X152806524Y-76588626D01*
X152826469Y-76523846D01*
X152833117Y-76453022D01*
X152827073Y-76386758D01*
X152808941Y-76328626D01*
X152778612Y-76277692D01*
X152735974Y-76233022D01*
X152683117Y-76197143D01*
X152622128Y-76172582D01*
X152555755Y-76158407D01*
X152486744Y-76153681D01*
X152415950Y-76158223D01*
X152350089Y-76171850D01*
X152289161Y-76194560D01*
X152235486Y-76225354D01*
X152191383Y-76263230D01*
X152156853Y-76308187D01*
X152132067Y-76359298D01*
X152117195Y-76415635D01*
X152112238Y-76477198D01*
X151803031Y-76477198D01*
X151811139Y-76324231D01*
X151821689Y-76165110D01*
X151770040Y-76165769D01*
X151732018Y-76165989D01*
X151682458Y-76165769D01*
X151626084Y-76165110D01*
X151625571Y-76219982D01*
X151624033Y-76284377D01*
X151621469Y-76358297D01*
X151618873Y-76417404D01*
X151615700Y-76476703D01*
X151611950Y-76536195D01*
X151607623Y-76595879D01*
X151603715Y-76643791D01*
X151598441Y-76700201D01*
X151591798Y-76765110D01*
X151242788Y-76765110D01*
X151242788Y-76745769D01*
X151243227Y-76686868D01*
X151247623Y-76528626D01*
X151313557Y-76526978D01*
X151374216Y-76526429D01*
X151417623Y-76526978D01*
X151479271Y-76528626D01*
X151480480Y-76472582D01*
X151484106Y-76398516D01*
X151428941Y-76399505D01*
X151390040Y-76399835D01*
X151318831Y-76399835D01*
X151255095Y-76398516D01*
X151259051Y-76296099D01*
X151317183Y-76295440D01*
X151346524Y-76295220D01*
X151433117Y-76295220D01*
X151463886Y-76295659D01*
X151494656Y-76296099D01*
X151532897Y-76297418D01*
X151534656Y-76248736D01*
X151539930Y-76165110D01*
X151468331Y-76165598D01*
X151394778Y-76165891D01*
X151319271Y-76165989D01*
X151261194Y-76165934D01*
X151200809Y-76165769D01*
X151138117Y-76165494D01*
X151073117Y-76165110D01*
X151073117Y-76213461D01*
X151072580Y-76255879D01*
X151070968Y-76318663D01*
X151068282Y-76401813D01*
X151065010Y-76488480D01*
X151061640Y-76561813D01*
X151058172Y-76621813D01*
X151053227Y-76684670D01*
X151045425Y-76765110D01*
X150789306Y-76765110D01*
X150995240Y-76078663D01*
X150995315Y-76078663D01*
X157359271Y-76078663D01*
X157359346Y-76078663D01*
X158041324Y-76078663D01*
X157359346Y-78351923D01*
G37*
%TO.C,kibuzzard-667D9F22*%
G36*
X140201391Y-87555152D02*
G01*
X140245157Y-87561644D01*
X140288076Y-87572395D01*
X140329735Y-87587300D01*
X140369731Y-87606217D01*
X140407681Y-87628964D01*
X140443219Y-87655320D01*
X140476002Y-87685033D01*
X140505715Y-87717816D01*
X140532072Y-87753354D01*
X140554818Y-87791304D01*
X140573735Y-87831301D01*
X140588641Y-87872959D01*
X140599392Y-87915878D01*
X140605884Y-87959644D01*
X140608055Y-88003836D01*
X140608055Y-88003923D01*
X140608055Y-90050077D01*
X140608055Y-90050164D01*
X140605884Y-90094356D01*
X140599392Y-90138122D01*
X140588641Y-90181041D01*
X140573735Y-90222699D01*
X140554818Y-90262696D01*
X140532072Y-90300646D01*
X140505715Y-90336184D01*
X140476002Y-90368967D01*
X140443219Y-90398680D01*
X140407681Y-90425036D01*
X140369731Y-90447783D01*
X140329735Y-90466700D01*
X140288076Y-90481605D01*
X140245157Y-90492356D01*
X140201391Y-90498848D01*
X140157200Y-90501019D01*
X140113009Y-90498848D01*
X140069243Y-90492356D01*
X140026324Y-90481605D01*
X139984665Y-90466700D01*
X139944669Y-90447783D01*
X139906719Y-90425036D01*
X139871181Y-90398680D01*
X139838398Y-90368967D01*
X139808685Y-90336184D01*
X139782328Y-90300646D01*
X139759582Y-90262696D01*
X139740665Y-90222699D01*
X139725759Y-90181041D01*
X139715008Y-90138122D01*
X139708516Y-90094356D01*
X139706345Y-90050164D01*
X139706345Y-90050077D01*
X139706345Y-89730077D01*
X139793867Y-89730077D01*
X139796944Y-89789372D01*
X139806174Y-89848282D01*
X139822521Y-89903667D01*
X139846944Y-89952385D01*
X139879059Y-89992256D01*
X139918482Y-90021103D01*
X139963482Y-90038603D01*
X140012328Y-90044436D01*
X140060533Y-90038282D01*
X140101303Y-90019308D01*
X140133097Y-89988026D01*
X140153867Y-89951359D01*
X140167713Y-89900846D01*
X140189764Y-89950077D01*
X140215405Y-89988026D01*
X140252072Y-90021872D01*
X140296944Y-90043154D01*
X140347200Y-90050077D01*
X140425662Y-90031359D01*
X140482328Y-89972897D01*
X140500726Y-89929115D01*
X140512328Y-89877256D01*
X140518482Y-89820205D01*
X140520533Y-89760846D01*
X140519052Y-89696914D01*
X140514607Y-89628880D01*
X140507200Y-89556744D01*
X140473354Y-89550590D01*
X140354379Y-89524949D01*
X140364892Y-89580974D01*
X140370790Y-89623923D01*
X140374379Y-89692641D01*
X140368482Y-89755205D01*
X140348226Y-89792897D01*
X140315918Y-89805462D01*
X140278738Y-89789564D01*
X140255662Y-89743154D01*
X140249764Y-89666487D01*
X140256431Y-89589051D01*
X140178354Y-89583795D01*
X140098995Y-89577256D01*
X140103226Y-89619820D01*
X140104636Y-89666487D01*
X140100277Y-89731936D01*
X140087200Y-89777513D01*
X140032328Y-89813154D01*
X139971046Y-89778026D01*
X139953931Y-89737449D01*
X139948226Y-89685974D01*
X139952499Y-89621986D01*
X139965320Y-89553097D01*
X139986687Y-89479308D01*
X139914508Y-89485974D01*
X139821046Y-89492641D01*
X139808033Y-89561551D01*
X139799764Y-89619564D01*
X139795341Y-89673474D01*
X139793867Y-89730077D01*
X139706345Y-89730077D01*
X139706345Y-89122897D01*
X139807200Y-89122897D01*
X139872713Y-89153154D01*
X139928738Y-89180333D01*
X140279508Y-89357256D01*
X140362699Y-89399820D01*
X140438596Y-89439308D01*
X140507200Y-89475718D01*
X140506431Y-89405974D01*
X140506174Y-89363923D01*
X140506431Y-89311487D01*
X140507200Y-89244436D01*
X140460533Y-89225718D01*
X140435918Y-89215205D01*
X140044123Y-89036231D01*
X139985149Y-89012641D01*
X140040405Y-88997513D01*
X140084123Y-88984949D01*
X140326687Y-88909564D01*
X140394764Y-88888026D01*
X140437969Y-88874692D01*
X140507200Y-88856231D01*
X140506431Y-88794436D01*
X140506174Y-88751615D01*
X140506431Y-88693410D01*
X140507200Y-88627513D01*
X140230277Y-88725974D01*
X139869764Y-88851103D01*
X139807200Y-88870077D01*
X139807969Y-88950205D01*
X139808226Y-88999820D01*
X139807969Y-89049051D01*
X139807200Y-89122897D01*
X139706345Y-89122897D01*
X139706345Y-88870077D01*
X139706345Y-88254692D01*
X139793867Y-88254692D01*
X139796944Y-88313987D01*
X139806174Y-88372897D01*
X139822521Y-88428282D01*
X139846944Y-88477000D01*
X139879059Y-88516872D01*
X139918482Y-88545718D01*
X139963482Y-88563218D01*
X140012328Y-88569051D01*
X140060533Y-88562897D01*
X140101303Y-88543923D01*
X140133097Y-88512641D01*
X140153867Y-88475974D01*
X140167713Y-88425462D01*
X140189764Y-88474692D01*
X140215405Y-88512641D01*
X140252072Y-88546487D01*
X140296944Y-88567769D01*
X140347200Y-88574692D01*
X140425662Y-88555974D01*
X140482328Y-88497513D01*
X140500726Y-88453731D01*
X140512328Y-88401872D01*
X140518482Y-88344820D01*
X140520533Y-88285462D01*
X140519052Y-88221530D01*
X140514607Y-88153496D01*
X140507200Y-88081359D01*
X140473354Y-88075205D01*
X140354379Y-88049564D01*
X140364892Y-88105590D01*
X140370790Y-88148538D01*
X140374379Y-88217256D01*
X140368482Y-88279820D01*
X140348226Y-88317513D01*
X140315918Y-88330077D01*
X140278738Y-88314179D01*
X140255662Y-88267769D01*
X140249764Y-88191103D01*
X140256431Y-88113667D01*
X140178354Y-88108410D01*
X140098995Y-88101872D01*
X140103226Y-88144436D01*
X140104636Y-88191103D01*
X140100277Y-88256551D01*
X140087200Y-88302128D01*
X140032328Y-88337769D01*
X139971046Y-88302641D01*
X139953931Y-88262064D01*
X139948226Y-88210590D01*
X139952499Y-88146601D01*
X139965320Y-88077712D01*
X139986687Y-88003923D01*
X139914508Y-88010590D01*
X139821046Y-88017256D01*
X139808033Y-88086167D01*
X139799764Y-88144179D01*
X139795341Y-88198090D01*
X139793867Y-88254692D01*
X139706345Y-88254692D01*
X139706345Y-88003923D01*
X139706345Y-88003836D01*
X139708516Y-87959644D01*
X139715008Y-87915878D01*
X139725759Y-87872959D01*
X139740665Y-87831301D01*
X139759582Y-87791304D01*
X139782328Y-87753354D01*
X139808685Y-87717816D01*
X139838398Y-87685033D01*
X139871181Y-87655320D01*
X139906719Y-87628964D01*
X139944669Y-87606217D01*
X139984665Y-87587300D01*
X140026324Y-87572395D01*
X140069243Y-87561644D01*
X140113009Y-87555152D01*
X140157200Y-87552981D01*
X140201391Y-87555152D01*
G37*
%TD*%
M02*
