%TF.GenerationSoftware,KiCad,Pcbnew,8.0.2*%
%TF.CreationDate,2024-08-03T15:43:03+02:00*%
%TF.ProjectId,ant control board v1.3,616e7420-636f-46e7-9472-6f6c20626f61,1.1*%
%TF.SameCoordinates,Original*%
%TF.FileFunction,Drillmap*%
%TF.FilePolarity,Positive*%
%FSLAX45Y45*%
G04 Gerber Fmt 4.5, Leading zero omitted, Abs format (unit mm)*
G04 Created by KiCad (PCBNEW 8.0.2) date 2024-08-03 15:43:03*
%MOMM*%
%LPD*%
G01*
G04 APERTURE LIST*
%ADD10C,0.050000*%
%ADD11C,0.100000*%
%ADD12C,0.200000*%
G04 APERTURE END LIST*
D10*
X13725000Y-6975000D02*
G75*
G02*
X13875000Y-6825000I150000J0D01*
G01*
D11*
X13875000Y-6825000D02*
X15850000Y-6825000D01*
D10*
X13875000Y-10150000D02*
G75*
G02*
X13725000Y-10000000I0J150000D01*
G01*
D11*
X16000000Y-6975000D02*
X16000000Y-10000000D01*
D10*
X15850000Y-6825000D02*
G75*
G02*
X16000000Y-6975000I0J-150000D01*
G01*
D11*
X13725000Y-10000000D02*
X13725000Y-6975000D01*
X15850000Y-10150000D02*
X13875000Y-10150000D01*
D10*
X16000000Y-10000000D02*
G75*
G02*
X15850000Y-10150000I-150000J0D01*
G01*
D12*
D11*
X13764500Y-7630400D02*
X13794500Y-7660400D01*
X13794500Y-7630400D02*
X13764500Y-7660400D01*
X13822920Y-9992600D02*
X13852920Y-10022600D01*
X13852920Y-9992600D02*
X13822920Y-10022600D01*
X13838160Y-8270480D02*
X13868160Y-8300480D01*
X13868160Y-8270480D02*
X13838160Y-8300480D01*
X13839400Y-8207200D02*
X13869400Y-8237200D01*
X13869400Y-8207200D02*
X13839400Y-8237200D01*
X13840700Y-8722600D02*
X13870700Y-8752600D01*
X13870700Y-8722600D02*
X13840700Y-8752600D01*
X13843240Y-8585440D02*
X13873240Y-8615440D01*
X13873240Y-8585440D02*
X13843240Y-8615440D01*
X13846090Y-9338600D02*
X13876090Y-9368600D01*
X13876090Y-9338600D02*
X13846090Y-9368600D01*
X13944400Y-8219680D02*
X13974400Y-8249680D01*
X13974400Y-8219680D02*
X13944400Y-8249680D01*
X13978900Y-9769080D02*
X14008900Y-9799080D01*
X14008900Y-9769080D02*
X13978900Y-9799080D01*
X13980400Y-9977360D02*
X14010400Y-10007360D01*
X14010400Y-9977360D02*
X13980400Y-10007360D01*
X13993100Y-7892020D02*
X14023100Y-7922020D01*
X14023100Y-7892020D02*
X13993100Y-7922020D01*
X13995640Y-8661640D02*
X14025640Y-8691640D01*
X14025640Y-8661640D02*
X13995640Y-8691640D01*
X14099780Y-8994380D02*
X14129780Y-9024380D01*
X14129780Y-8994380D02*
X14099780Y-9024380D01*
X14153192Y-8067512D02*
X14183192Y-8097512D01*
X14183192Y-8067512D02*
X14153192Y-8097512D01*
X14160332Y-10036800D02*
X14190332Y-10066800D01*
X14190332Y-10036800D02*
X14160332Y-10066800D01*
X14166508Y-8696349D02*
X14196508Y-8726349D01*
X14196508Y-8696349D02*
X14166508Y-8726349D01*
X14198840Y-7991080D02*
X14228840Y-8021080D01*
X14228840Y-7991080D02*
X14198840Y-8021080D01*
X14209000Y-9662400D02*
X14239000Y-9692400D01*
X14239000Y-9662400D02*
X14209000Y-9692400D01*
X14209307Y-9405209D02*
X14239307Y-9435209D01*
X14239307Y-9405209D02*
X14209307Y-9435209D01*
X14272500Y-8976600D02*
X14302500Y-9006600D01*
X14302500Y-8976600D02*
X14272500Y-9006600D01*
X14294569Y-9620969D02*
X14324569Y-9650969D01*
X14324569Y-9620969D02*
X14294569Y-9650969D01*
X14315089Y-9855008D02*
X14345089Y-9885008D01*
X14345089Y-9855008D02*
X14315089Y-9885008D01*
X14315800Y-8712440D02*
X14345800Y-8742440D01*
X14345800Y-8712440D02*
X14315800Y-8742440D01*
X14353780Y-9367760D02*
X14383780Y-9397760D01*
X14383780Y-9367760D02*
X14353780Y-9397760D01*
X14356320Y-9967200D02*
X14386320Y-9997200D01*
X14386320Y-9967200D02*
X14356320Y-9997200D01*
X14358860Y-8982560D02*
X14388860Y-9012560D01*
X14388860Y-8982560D02*
X14358860Y-9012560D01*
X14412200Y-7721840D02*
X14442200Y-7751840D01*
X14442200Y-7721840D02*
X14412200Y-7751840D01*
X14424900Y-9803520D02*
X14454900Y-9833520D01*
X14454900Y-9803520D02*
X14424900Y-9833520D01*
X14437600Y-9657320D02*
X14467600Y-9687320D01*
X14467600Y-9657320D02*
X14437600Y-9687320D01*
X14457920Y-7892020D02*
X14487920Y-7922020D01*
X14487920Y-7892020D02*
X14457920Y-7922020D01*
X14514810Y-9967200D02*
X14544810Y-9997200D01*
X14544810Y-9967200D02*
X14514810Y-9997200D01*
X14587460Y-9162020D02*
X14617460Y-9192020D01*
X14617460Y-9162020D02*
X14587460Y-9192020D01*
X14627359Y-8718378D02*
X14657359Y-8748378D01*
X14657359Y-8718378D02*
X14627359Y-8748378D01*
X14702513Y-8102086D02*
X14732513Y-8132086D01*
X14732513Y-8102086D02*
X14702513Y-8132086D01*
X14726040Y-9261080D02*
X14756040Y-9291080D01*
X14756040Y-9261080D02*
X14726040Y-9291080D01*
X14814800Y-10043400D02*
X14844800Y-10073400D01*
X14844800Y-10043400D02*
X14814800Y-10073400D01*
X14818530Y-8453365D02*
X14848530Y-8483365D01*
X14848530Y-8453365D02*
X14818530Y-8483365D01*
X14821140Y-9565880D02*
X14851140Y-9595880D01*
X14851140Y-9565880D02*
X14821140Y-9595880D01*
X14866529Y-9845611D02*
X14896529Y-9875611D01*
X14896529Y-9845611D02*
X14866529Y-9875611D01*
X14869400Y-8811500D02*
X14899400Y-8841500D01*
X14899400Y-8811500D02*
X14869400Y-8841500D01*
X14875360Y-8273811D02*
X14905360Y-8303811D01*
X14905360Y-8273811D02*
X14875360Y-8303811D01*
X14904960Y-8971520D02*
X14934960Y-9001520D01*
X14934960Y-8971520D02*
X14904960Y-9001520D01*
X14910040Y-9367162D02*
X14940040Y-9397162D01*
X14940040Y-9367162D02*
X14910040Y-9397162D01*
X14918619Y-8854566D02*
X14948619Y-8884566D01*
X14948619Y-8854566D02*
X14918619Y-8884566D01*
X14920200Y-8052040D02*
X14950200Y-8082040D01*
X14950200Y-8052040D02*
X14920200Y-8082040D01*
X14945600Y-7224000D02*
X14975600Y-7254000D01*
X14975600Y-7224000D02*
X14945600Y-7254000D01*
X14961679Y-9469939D02*
X14991679Y-9499939D01*
X14991679Y-9469939D02*
X14961679Y-9499939D01*
X14973540Y-7695560D02*
X15003540Y-7725560D01*
X15003540Y-7695560D02*
X14973540Y-7725560D01*
X14983700Y-9827500D02*
X15013700Y-9857500D01*
X15013700Y-9827500D02*
X14983700Y-9857500D01*
X15011640Y-8125700D02*
X15041640Y-8155700D01*
X15041640Y-8125700D02*
X15011640Y-8155700D01*
X15021800Y-10005300D02*
X15051800Y-10035300D01*
X15051800Y-10005300D02*
X15021800Y-10035300D01*
X15028281Y-8268716D02*
X15058281Y-8298716D01*
X15058281Y-8268716D02*
X15028281Y-8298716D01*
X15047200Y-9121380D02*
X15077200Y-9151380D01*
X15077200Y-9121380D02*
X15047200Y-9151380D01*
X15068719Y-9576860D02*
X15098719Y-9606860D01*
X15098719Y-9576860D02*
X15068719Y-9606860D01*
X15072600Y-8885160D02*
X15102600Y-8915160D01*
X15102600Y-8885160D02*
X15072600Y-8915160D01*
X15079741Y-8793241D02*
X15109741Y-8823241D01*
X15109741Y-8793241D02*
X15079741Y-8823241D01*
X15087840Y-8113000D02*
X15117840Y-8143000D01*
X15117840Y-8113000D02*
X15087840Y-8143000D01*
X15093281Y-8947204D02*
X15123281Y-8977204D01*
X15123281Y-8947204D02*
X15093281Y-8977204D01*
X15133224Y-9875425D02*
X15163224Y-9905425D01*
X15163224Y-9875425D02*
X15133224Y-9905425D01*
X15153880Y-9616680D02*
X15183880Y-9646680D01*
X15183880Y-9616680D02*
X15153880Y-9646680D01*
X15158960Y-9451580D02*
X15188960Y-9481580D01*
X15188960Y-9451580D02*
X15158960Y-9481580D01*
X15186900Y-10094200D02*
X15216900Y-10124200D01*
X15216900Y-10094200D02*
X15186900Y-10124200D01*
X15199600Y-9690340D02*
X15229600Y-9720340D01*
X15229600Y-9690340D02*
X15199600Y-9720340D01*
X15214840Y-9870680D02*
X15244840Y-9900680D01*
X15244840Y-9870680D02*
X15214840Y-9900680D01*
X15216356Y-10014247D02*
X15246356Y-10044247D01*
X15246356Y-10014247D02*
X15216356Y-10044247D01*
X15217380Y-8483840D02*
X15247380Y-8513840D01*
X15247380Y-8483840D02*
X15217380Y-8513840D01*
X15222312Y-9784468D02*
X15252312Y-9814468D01*
X15252312Y-9784468D02*
X15222312Y-9814468D01*
X15222403Y-8829965D02*
X15252403Y-8859965D01*
X15252403Y-8829965D02*
X15222403Y-8859965D01*
X15225000Y-9949420D02*
X15255000Y-9979420D01*
X15255000Y-9949420D02*
X15225000Y-9979420D01*
X15240240Y-7592300D02*
X15270240Y-7622300D01*
X15270240Y-7592300D02*
X15240240Y-7622300D01*
X15242780Y-9431260D02*
X15272780Y-9461260D01*
X15272780Y-9431260D02*
X15242780Y-9461260D01*
X15250400Y-7947900D02*
X15280400Y-7977900D01*
X15280400Y-7947900D02*
X15250400Y-7977900D01*
X15250400Y-8770860D02*
X15280400Y-8800860D01*
X15280400Y-8770860D02*
X15250400Y-8800860D01*
X15279131Y-8616711D02*
X15309131Y-8646711D01*
X15309131Y-8616711D02*
X15279131Y-8646711D01*
X15283420Y-8537180D02*
X15313420Y-8567180D01*
X15313420Y-8537180D02*
X15283420Y-8567180D01*
X15283420Y-8890240D02*
X15313420Y-8920240D01*
X15313420Y-8890240D02*
X15283420Y-8920240D01*
X15285960Y-8699740D02*
X15315960Y-8729740D01*
X15315960Y-8699740D02*
X15285960Y-8729740D01*
X15285960Y-10038320D02*
X15315960Y-10068320D01*
X15315960Y-10038320D02*
X15285960Y-10068320D01*
X15335982Y-9184463D02*
X15365982Y-9214463D01*
X15365982Y-9184463D02*
X15335982Y-9214463D01*
X15343301Y-8218601D02*
X15373301Y-8248601D01*
X15373301Y-8218601D02*
X15343301Y-8248601D01*
X15412960Y-7130020D02*
X15442960Y-7160020D01*
X15442960Y-7130020D02*
X15412960Y-7160020D01*
X15425660Y-8909601D02*
X15455660Y-8939601D01*
X15455660Y-8909601D02*
X15425660Y-8939601D01*
X15509480Y-8181580D02*
X15539480Y-8211580D01*
X15539480Y-8181580D02*
X15509480Y-8211580D01*
X15522180Y-8913100D02*
X15552180Y-8943100D01*
X15552180Y-8913100D02*
X15522180Y-8943100D01*
X15574250Y-7598650D02*
X15604250Y-7628650D01*
X15604250Y-7598650D02*
X15574250Y-7628650D01*
X15622081Y-9542936D02*
X15652081Y-9572936D01*
X15652081Y-9542936D02*
X15622081Y-9572936D01*
X15636480Y-7762480D02*
X15666480Y-7792480D01*
X15666480Y-7762480D02*
X15636480Y-7792480D01*
X15644100Y-10101820D02*
X15674100Y-10131820D01*
X15674100Y-10101820D02*
X15644100Y-10131820D01*
X15669500Y-9471900D02*
X15699500Y-9501900D01*
X15699500Y-9471900D02*
X15669500Y-9501900D01*
X15730821Y-8854601D02*
X15760821Y-8884601D01*
X15760821Y-8854601D02*
X15730821Y-8884601D01*
X15748240Y-9612936D02*
X15778240Y-9642936D01*
X15778240Y-9612936D02*
X15748240Y-9642936D01*
X15885400Y-8199360D02*
X15915400Y-8229360D01*
X15915400Y-8199360D02*
X15885400Y-8229360D01*
X15887940Y-8377160D02*
X15917940Y-8407160D01*
X15917940Y-8377160D02*
X15887940Y-8407160D01*
X15944280Y-8966440D02*
X15974280Y-8996440D01*
X15974280Y-8966440D02*
X15944280Y-8996440D01*
X15944280Y-9542936D02*
X15974280Y-9572936D01*
X15974280Y-9542936D02*
X15944280Y-9572936D01*
X15944553Y-9619613D02*
X15974553Y-9649613D01*
X15974553Y-9619613D02*
X15944553Y-9649613D01*
X15027300Y-7035550D02*
G75*
G02*
X14967300Y-7035550I-30000J0D01*
G01*
X14967300Y-7035550D02*
G75*
G02*
X15027300Y-7035550I30000J0D01*
G01*
X14967300Y-6980550D02*
X14967300Y-7090550D01*
X15027300Y-7090550D02*
G75*
G02*
X14967300Y-7090550I-30000J0D01*
G01*
X15027300Y-7090550D02*
X15027300Y-6980550D01*
X15027300Y-6980550D02*
G75*
G03*
X14967300Y-6980550I-30000J0D01*
G01*
X15027300Y-7453550D02*
G75*
G02*
X14967300Y-7453550I-30000J0D01*
G01*
X14967300Y-7453550D02*
G75*
G02*
X15027300Y-7453550I30000J0D01*
G01*
X14967300Y-7398550D02*
X14967300Y-7508550D01*
X15027300Y-7508550D02*
G75*
G02*
X14967300Y-7508550I-30000J0D01*
G01*
X15027300Y-7508550D02*
X15027300Y-7398550D01*
X15027300Y-7398550D02*
G75*
G03*
X14967300Y-7398550I-30000J0D01*
G01*
X15891300Y-7035550D02*
G75*
G02*
X15831300Y-7035550I-30000J0D01*
G01*
X15831300Y-7035550D02*
G75*
G02*
X15891300Y-7035550I30000J0D01*
G01*
X15831300Y-6980550D02*
X15831300Y-7090550D01*
X15891300Y-7090550D02*
G75*
G02*
X15831300Y-7090550I-30000J0D01*
G01*
X15891300Y-7090550D02*
X15891300Y-6980550D01*
X15891300Y-6980550D02*
G75*
G03*
X15831300Y-6980550I-30000J0D01*
G01*
X15891300Y-7453550D02*
G75*
G02*
X15831300Y-7453550I-30000J0D01*
G01*
X15831300Y-7453550D02*
G75*
G02*
X15891300Y-7453550I30000J0D01*
G01*
X15831300Y-7398550D02*
X15831300Y-7508550D01*
X15891300Y-7508550D02*
G75*
G02*
X15831300Y-7508550I-30000J0D01*
G01*
X15891300Y-7508550D02*
X15891300Y-7398550D01*
X15891300Y-7398550D02*
G75*
G03*
X15831300Y-7398550I-30000J0D01*
G01*
X13919200Y-6985800D02*
X13919200Y-7085800D01*
X13869200Y-7035800D02*
X13969200Y-7035800D01*
X13919200Y-7239800D02*
X13919200Y-7339800D01*
X13869200Y-7289800D02*
X13969200Y-7289800D01*
X13919200Y-7493800D02*
X13919200Y-7593800D01*
X13869200Y-7543800D02*
X13969200Y-7543800D01*
X14173200Y-6985800D02*
X14173200Y-7085800D01*
X14123200Y-7035800D02*
X14223200Y-7035800D01*
X14173200Y-7239800D02*
X14173200Y-7339800D01*
X14123200Y-7289800D02*
X14223200Y-7289800D01*
X14173200Y-7493800D02*
X14173200Y-7593800D01*
X14123200Y-7543800D02*
X14223200Y-7543800D01*
X14427200Y-6985800D02*
X14427200Y-7085800D01*
X14377200Y-7035800D02*
X14477200Y-7035800D01*
X14427200Y-7239800D02*
X14427200Y-7339800D01*
X14377200Y-7289800D02*
X14477200Y-7289800D01*
X14427200Y-7493800D02*
X14427200Y-7593800D01*
X14377200Y-7543800D02*
X14477200Y-7543800D01*
X14681200Y-6985800D02*
X14681200Y-7085800D01*
X14631200Y-7035800D02*
X14731200Y-7035800D01*
X14681200Y-7239800D02*
X14681200Y-7339800D01*
X14631200Y-7289800D02*
X14731200Y-7289800D01*
X14681200Y-7493800D02*
X14681200Y-7593800D01*
X14631200Y-7543800D02*
X14731200Y-7543800D01*
D12*
X13980777Y-10466484D02*
X13980777Y-10266484D01*
X13980777Y-10266484D02*
X14028396Y-10266484D01*
X14028396Y-10266484D02*
X14056967Y-10276008D01*
X14056967Y-10276008D02*
X14076015Y-10295055D01*
X14076015Y-10295055D02*
X14085539Y-10314103D01*
X14085539Y-10314103D02*
X14095062Y-10352198D01*
X14095062Y-10352198D02*
X14095062Y-10380770D01*
X14095062Y-10380770D02*
X14085539Y-10418865D01*
X14085539Y-10418865D02*
X14076015Y-10437912D01*
X14076015Y-10437912D02*
X14056967Y-10456960D01*
X14056967Y-10456960D02*
X14028396Y-10466484D01*
X14028396Y-10466484D02*
X13980777Y-10466484D01*
X14180777Y-10466484D02*
X14180777Y-10333150D01*
X14180777Y-10371246D02*
X14190301Y-10352198D01*
X14190301Y-10352198D02*
X14199824Y-10342674D01*
X14199824Y-10342674D02*
X14218872Y-10333150D01*
X14218872Y-10333150D02*
X14237920Y-10333150D01*
X14304586Y-10466484D02*
X14304586Y-10333150D01*
X14304586Y-10266484D02*
X14295062Y-10276008D01*
X14295062Y-10276008D02*
X14304586Y-10285531D01*
X14304586Y-10285531D02*
X14314110Y-10276008D01*
X14314110Y-10276008D02*
X14304586Y-10266484D01*
X14304586Y-10266484D02*
X14304586Y-10285531D01*
X14428396Y-10466484D02*
X14409348Y-10456960D01*
X14409348Y-10456960D02*
X14399824Y-10437912D01*
X14399824Y-10437912D02*
X14399824Y-10266484D01*
X14533158Y-10466484D02*
X14514110Y-10456960D01*
X14514110Y-10456960D02*
X14504586Y-10437912D01*
X14504586Y-10437912D02*
X14504586Y-10266484D01*
X14761729Y-10466484D02*
X14761729Y-10266484D01*
X14761729Y-10266484D02*
X14828396Y-10409341D01*
X14828396Y-10409341D02*
X14895062Y-10266484D01*
X14895062Y-10266484D02*
X14895062Y-10466484D01*
X15076015Y-10466484D02*
X15076015Y-10361722D01*
X15076015Y-10361722D02*
X15066491Y-10342674D01*
X15066491Y-10342674D02*
X15047443Y-10333150D01*
X15047443Y-10333150D02*
X15009348Y-10333150D01*
X15009348Y-10333150D02*
X14990301Y-10342674D01*
X15076015Y-10456960D02*
X15056967Y-10466484D01*
X15056967Y-10466484D02*
X15009348Y-10466484D01*
X15009348Y-10466484D02*
X14990301Y-10456960D01*
X14990301Y-10456960D02*
X14980777Y-10437912D01*
X14980777Y-10437912D02*
X14980777Y-10418865D01*
X14980777Y-10418865D02*
X14990301Y-10399817D01*
X14990301Y-10399817D02*
X15009348Y-10390293D01*
X15009348Y-10390293D02*
X15056967Y-10390293D01*
X15056967Y-10390293D02*
X15076015Y-10380770D01*
X15171253Y-10333150D02*
X15171253Y-10533150D01*
X15171253Y-10342674D02*
X15190301Y-10333150D01*
X15190301Y-10333150D02*
X15228396Y-10333150D01*
X15228396Y-10333150D02*
X15247443Y-10342674D01*
X15247443Y-10342674D02*
X15256967Y-10352198D01*
X15256967Y-10352198D02*
X15266491Y-10371246D01*
X15266491Y-10371246D02*
X15266491Y-10428389D01*
X15266491Y-10428389D02*
X15256967Y-10447436D01*
X15256967Y-10447436D02*
X15247443Y-10456960D01*
X15247443Y-10456960D02*
X15228396Y-10466484D01*
X15228396Y-10466484D02*
X15190301Y-10466484D01*
X15190301Y-10466484D02*
X15171253Y-10456960D01*
X15352205Y-10447436D02*
X15361729Y-10456960D01*
X15361729Y-10456960D02*
X15352205Y-10466484D01*
X15352205Y-10466484D02*
X15342682Y-10456960D01*
X15342682Y-10456960D02*
X15352205Y-10447436D01*
X15352205Y-10447436D02*
X15352205Y-10466484D01*
X15352205Y-10342674D02*
X15361729Y-10352198D01*
X15361729Y-10352198D02*
X15352205Y-10361722D01*
X15352205Y-10361722D02*
X15342682Y-10352198D01*
X15342682Y-10352198D02*
X15352205Y-10342674D01*
X15352205Y-10342674D02*
X15352205Y-10361722D01*
D11*
X13690000Y-10780000D02*
X13720000Y-10810000D01*
X13720000Y-10780000D02*
X13690000Y-10810000D01*
D12*
X14018872Y-10686484D02*
X14037920Y-10686484D01*
X14037920Y-10686484D02*
X14056967Y-10696008D01*
X14056967Y-10696008D02*
X14066491Y-10705531D01*
X14066491Y-10705531D02*
X14076015Y-10724579D01*
X14076015Y-10724579D02*
X14085539Y-10762674D01*
X14085539Y-10762674D02*
X14085539Y-10810293D01*
X14085539Y-10810293D02*
X14076015Y-10848389D01*
X14076015Y-10848389D02*
X14066491Y-10867436D01*
X14066491Y-10867436D02*
X14056967Y-10876960D01*
X14056967Y-10876960D02*
X14037920Y-10886484D01*
X14037920Y-10886484D02*
X14018872Y-10886484D01*
X14018872Y-10886484D02*
X13999824Y-10876960D01*
X13999824Y-10876960D02*
X13990301Y-10867436D01*
X13990301Y-10867436D02*
X13980777Y-10848389D01*
X13980777Y-10848389D02*
X13971253Y-10810293D01*
X13971253Y-10810293D02*
X13971253Y-10762674D01*
X13971253Y-10762674D02*
X13980777Y-10724579D01*
X13980777Y-10724579D02*
X13990301Y-10705531D01*
X13990301Y-10705531D02*
X13999824Y-10696008D01*
X13999824Y-10696008D02*
X14018872Y-10686484D01*
X14171253Y-10867436D02*
X14180777Y-10876960D01*
X14180777Y-10876960D02*
X14171253Y-10886484D01*
X14171253Y-10886484D02*
X14161729Y-10876960D01*
X14161729Y-10876960D02*
X14171253Y-10867436D01*
X14171253Y-10867436D02*
X14171253Y-10886484D01*
X14247443Y-10686484D02*
X14371253Y-10686484D01*
X14371253Y-10686484D02*
X14304586Y-10762674D01*
X14304586Y-10762674D02*
X14333158Y-10762674D01*
X14333158Y-10762674D02*
X14352205Y-10772198D01*
X14352205Y-10772198D02*
X14361729Y-10781722D01*
X14361729Y-10781722D02*
X14371253Y-10800770D01*
X14371253Y-10800770D02*
X14371253Y-10848389D01*
X14371253Y-10848389D02*
X14361729Y-10867436D01*
X14361729Y-10867436D02*
X14352205Y-10876960D01*
X14352205Y-10876960D02*
X14333158Y-10886484D01*
X14333158Y-10886484D02*
X14276015Y-10886484D01*
X14276015Y-10886484D02*
X14256967Y-10876960D01*
X14256967Y-10876960D02*
X14247443Y-10867436D01*
X14495062Y-10686484D02*
X14514110Y-10686484D01*
X14514110Y-10686484D02*
X14533158Y-10696008D01*
X14533158Y-10696008D02*
X14542682Y-10705531D01*
X14542682Y-10705531D02*
X14552205Y-10724579D01*
X14552205Y-10724579D02*
X14561729Y-10762674D01*
X14561729Y-10762674D02*
X14561729Y-10810293D01*
X14561729Y-10810293D02*
X14552205Y-10848389D01*
X14552205Y-10848389D02*
X14542682Y-10867436D01*
X14542682Y-10867436D02*
X14533158Y-10876960D01*
X14533158Y-10876960D02*
X14514110Y-10886484D01*
X14514110Y-10886484D02*
X14495062Y-10886484D01*
X14495062Y-10886484D02*
X14476015Y-10876960D01*
X14476015Y-10876960D02*
X14466491Y-10867436D01*
X14466491Y-10867436D02*
X14456967Y-10848389D01*
X14456967Y-10848389D02*
X14447443Y-10810293D01*
X14447443Y-10810293D02*
X14447443Y-10762674D01*
X14447443Y-10762674D02*
X14456967Y-10724579D01*
X14456967Y-10724579D02*
X14466491Y-10705531D01*
X14466491Y-10705531D02*
X14476015Y-10696008D01*
X14476015Y-10696008D02*
X14495062Y-10686484D01*
X14685539Y-10686484D02*
X14704586Y-10686484D01*
X14704586Y-10686484D02*
X14723634Y-10696008D01*
X14723634Y-10696008D02*
X14733158Y-10705531D01*
X14733158Y-10705531D02*
X14742682Y-10724579D01*
X14742682Y-10724579D02*
X14752205Y-10762674D01*
X14752205Y-10762674D02*
X14752205Y-10810293D01*
X14752205Y-10810293D02*
X14742682Y-10848389D01*
X14742682Y-10848389D02*
X14733158Y-10867436D01*
X14733158Y-10867436D02*
X14723634Y-10876960D01*
X14723634Y-10876960D02*
X14704586Y-10886484D01*
X14704586Y-10886484D02*
X14685539Y-10886484D01*
X14685539Y-10886484D02*
X14666491Y-10876960D01*
X14666491Y-10876960D02*
X14656967Y-10867436D01*
X14656967Y-10867436D02*
X14647443Y-10848389D01*
X14647443Y-10848389D02*
X14637920Y-10810293D01*
X14637920Y-10810293D02*
X14637920Y-10762674D01*
X14637920Y-10762674D02*
X14647443Y-10724579D01*
X14647443Y-10724579D02*
X14656967Y-10705531D01*
X14656967Y-10705531D02*
X14666491Y-10696008D01*
X14666491Y-10696008D02*
X14685539Y-10686484D01*
X14837920Y-10886484D02*
X14837920Y-10753150D01*
X14837920Y-10772198D02*
X14847443Y-10762674D01*
X14847443Y-10762674D02*
X14866491Y-10753150D01*
X14866491Y-10753150D02*
X14895063Y-10753150D01*
X14895063Y-10753150D02*
X14914110Y-10762674D01*
X14914110Y-10762674D02*
X14923634Y-10781722D01*
X14923634Y-10781722D02*
X14923634Y-10886484D01*
X14923634Y-10781722D02*
X14933158Y-10762674D01*
X14933158Y-10762674D02*
X14952205Y-10753150D01*
X14952205Y-10753150D02*
X14980777Y-10753150D01*
X14980777Y-10753150D02*
X14999824Y-10762674D01*
X14999824Y-10762674D02*
X15009348Y-10781722D01*
X15009348Y-10781722D02*
X15009348Y-10886484D01*
X15104586Y-10886484D02*
X15104586Y-10753150D01*
X15104586Y-10772198D02*
X15114110Y-10762674D01*
X15114110Y-10762674D02*
X15133158Y-10753150D01*
X15133158Y-10753150D02*
X15161729Y-10753150D01*
X15161729Y-10753150D02*
X15180777Y-10762674D01*
X15180777Y-10762674D02*
X15190301Y-10781722D01*
X15190301Y-10781722D02*
X15190301Y-10886484D01*
X15190301Y-10781722D02*
X15199824Y-10762674D01*
X15199824Y-10762674D02*
X15218872Y-10753150D01*
X15218872Y-10753150D02*
X15247443Y-10753150D01*
X15247443Y-10753150D02*
X15266491Y-10762674D01*
X15266491Y-10762674D02*
X15276015Y-10781722D01*
X15276015Y-10781722D02*
X15276015Y-10886484D01*
X15666491Y-10676960D02*
X15495063Y-10934103D01*
X15923634Y-10686484D02*
X15942682Y-10686484D01*
X15942682Y-10686484D02*
X15961729Y-10696008D01*
X15961729Y-10696008D02*
X15971253Y-10705531D01*
X15971253Y-10705531D02*
X15980777Y-10724579D01*
X15980777Y-10724579D02*
X15990301Y-10762674D01*
X15990301Y-10762674D02*
X15990301Y-10810293D01*
X15990301Y-10810293D02*
X15980777Y-10848389D01*
X15980777Y-10848389D02*
X15971253Y-10867436D01*
X15971253Y-10867436D02*
X15961729Y-10876960D01*
X15961729Y-10876960D02*
X15942682Y-10886484D01*
X15942682Y-10886484D02*
X15923634Y-10886484D01*
X15923634Y-10886484D02*
X15904586Y-10876960D01*
X15904586Y-10876960D02*
X15895063Y-10867436D01*
X15895063Y-10867436D02*
X15885539Y-10848389D01*
X15885539Y-10848389D02*
X15876015Y-10810293D01*
X15876015Y-10810293D02*
X15876015Y-10762674D01*
X15876015Y-10762674D02*
X15885539Y-10724579D01*
X15885539Y-10724579D02*
X15895063Y-10705531D01*
X15895063Y-10705531D02*
X15904586Y-10696008D01*
X15904586Y-10696008D02*
X15923634Y-10686484D01*
X16076015Y-10867436D02*
X16085539Y-10876960D01*
X16085539Y-10876960D02*
X16076015Y-10886484D01*
X16076015Y-10886484D02*
X16066491Y-10876960D01*
X16066491Y-10876960D02*
X16076015Y-10867436D01*
X16076015Y-10867436D02*
X16076015Y-10886484D01*
X16209348Y-10686484D02*
X16228396Y-10686484D01*
X16228396Y-10686484D02*
X16247444Y-10696008D01*
X16247444Y-10696008D02*
X16256967Y-10705531D01*
X16256967Y-10705531D02*
X16266491Y-10724579D01*
X16266491Y-10724579D02*
X16276015Y-10762674D01*
X16276015Y-10762674D02*
X16276015Y-10810293D01*
X16276015Y-10810293D02*
X16266491Y-10848389D01*
X16266491Y-10848389D02*
X16256967Y-10867436D01*
X16256967Y-10867436D02*
X16247444Y-10876960D01*
X16247444Y-10876960D02*
X16228396Y-10886484D01*
X16228396Y-10886484D02*
X16209348Y-10886484D01*
X16209348Y-10886484D02*
X16190301Y-10876960D01*
X16190301Y-10876960D02*
X16180777Y-10867436D01*
X16180777Y-10867436D02*
X16171253Y-10848389D01*
X16171253Y-10848389D02*
X16161729Y-10810293D01*
X16161729Y-10810293D02*
X16161729Y-10762674D01*
X16161729Y-10762674D02*
X16171253Y-10724579D01*
X16171253Y-10724579D02*
X16180777Y-10705531D01*
X16180777Y-10705531D02*
X16190301Y-10696008D01*
X16190301Y-10696008D02*
X16209348Y-10686484D01*
X16466491Y-10886484D02*
X16352206Y-10886484D01*
X16409348Y-10886484D02*
X16409348Y-10686484D01*
X16409348Y-10686484D02*
X16390301Y-10715055D01*
X16390301Y-10715055D02*
X16371253Y-10734103D01*
X16371253Y-10734103D02*
X16352206Y-10743627D01*
X16656967Y-10886484D02*
X16542682Y-10886484D01*
X16599825Y-10886484D02*
X16599825Y-10686484D01*
X16599825Y-10686484D02*
X16580777Y-10715055D01*
X16580777Y-10715055D02*
X16561729Y-10734103D01*
X16561729Y-10734103D02*
X16542682Y-10743627D01*
X16771253Y-10772198D02*
X16752206Y-10762674D01*
X16752206Y-10762674D02*
X16742682Y-10753150D01*
X16742682Y-10753150D02*
X16733158Y-10734103D01*
X16733158Y-10734103D02*
X16733158Y-10724579D01*
X16733158Y-10724579D02*
X16742682Y-10705531D01*
X16742682Y-10705531D02*
X16752206Y-10696008D01*
X16752206Y-10696008D02*
X16771253Y-10686484D01*
X16771253Y-10686484D02*
X16809349Y-10686484D01*
X16809349Y-10686484D02*
X16828396Y-10696008D01*
X16828396Y-10696008D02*
X16837920Y-10705531D01*
X16837920Y-10705531D02*
X16847444Y-10724579D01*
X16847444Y-10724579D02*
X16847444Y-10734103D01*
X16847444Y-10734103D02*
X16837920Y-10753150D01*
X16837920Y-10753150D02*
X16828396Y-10762674D01*
X16828396Y-10762674D02*
X16809349Y-10772198D01*
X16809349Y-10772198D02*
X16771253Y-10772198D01*
X16771253Y-10772198D02*
X16752206Y-10781722D01*
X16752206Y-10781722D02*
X16742682Y-10791246D01*
X16742682Y-10791246D02*
X16733158Y-10810293D01*
X16733158Y-10810293D02*
X16733158Y-10848389D01*
X16733158Y-10848389D02*
X16742682Y-10867436D01*
X16742682Y-10867436D02*
X16752206Y-10876960D01*
X16752206Y-10876960D02*
X16771253Y-10886484D01*
X16771253Y-10886484D02*
X16809349Y-10886484D01*
X16809349Y-10886484D02*
X16828396Y-10876960D01*
X16828396Y-10876960D02*
X16837920Y-10867436D01*
X16837920Y-10867436D02*
X16847444Y-10848389D01*
X16847444Y-10848389D02*
X16847444Y-10810293D01*
X16847444Y-10810293D02*
X16837920Y-10791246D01*
X16837920Y-10791246D02*
X16828396Y-10781722D01*
X16828396Y-10781722D02*
X16809349Y-10772198D01*
X16923634Y-10686484D02*
X16923634Y-10724579D01*
X16999825Y-10686484D02*
X16999825Y-10724579D01*
X17295063Y-10962674D02*
X17285539Y-10953150D01*
X17285539Y-10953150D02*
X17266491Y-10924579D01*
X17266491Y-10924579D02*
X17256968Y-10905531D01*
X17256968Y-10905531D02*
X17247444Y-10876960D01*
X17247444Y-10876960D02*
X17237920Y-10829341D01*
X17237920Y-10829341D02*
X17237920Y-10791246D01*
X17237920Y-10791246D02*
X17247444Y-10743627D01*
X17247444Y-10743627D02*
X17256968Y-10715055D01*
X17256968Y-10715055D02*
X17266491Y-10696008D01*
X17266491Y-10696008D02*
X17285539Y-10667436D01*
X17285539Y-10667436D02*
X17295063Y-10657912D01*
X17380777Y-10886484D02*
X17418872Y-10886484D01*
X17418872Y-10886484D02*
X17437920Y-10876960D01*
X17437920Y-10876960D02*
X17447444Y-10867436D01*
X17447444Y-10867436D02*
X17466491Y-10838865D01*
X17466491Y-10838865D02*
X17476015Y-10800770D01*
X17476015Y-10800770D02*
X17476015Y-10724579D01*
X17476015Y-10724579D02*
X17466491Y-10705531D01*
X17466491Y-10705531D02*
X17456968Y-10696008D01*
X17456968Y-10696008D02*
X17437920Y-10686484D01*
X17437920Y-10686484D02*
X17399825Y-10686484D01*
X17399825Y-10686484D02*
X17380777Y-10696008D01*
X17380777Y-10696008D02*
X17371253Y-10705531D01*
X17371253Y-10705531D02*
X17361730Y-10724579D01*
X17361730Y-10724579D02*
X17361730Y-10772198D01*
X17361730Y-10772198D02*
X17371253Y-10791246D01*
X17371253Y-10791246D02*
X17380777Y-10800770D01*
X17380777Y-10800770D02*
X17399825Y-10810293D01*
X17399825Y-10810293D02*
X17437920Y-10810293D01*
X17437920Y-10810293D02*
X17456968Y-10800770D01*
X17456968Y-10800770D02*
X17466491Y-10791246D01*
X17466491Y-10791246D02*
X17476015Y-10772198D01*
X17647444Y-10686484D02*
X17609349Y-10686484D01*
X17609349Y-10686484D02*
X17590301Y-10696008D01*
X17590301Y-10696008D02*
X17580777Y-10705531D01*
X17580777Y-10705531D02*
X17561730Y-10734103D01*
X17561730Y-10734103D02*
X17552206Y-10772198D01*
X17552206Y-10772198D02*
X17552206Y-10848389D01*
X17552206Y-10848389D02*
X17561730Y-10867436D01*
X17561730Y-10867436D02*
X17571253Y-10876960D01*
X17571253Y-10876960D02*
X17590301Y-10886484D01*
X17590301Y-10886484D02*
X17628396Y-10886484D01*
X17628396Y-10886484D02*
X17647444Y-10876960D01*
X17647444Y-10876960D02*
X17656968Y-10867436D01*
X17656968Y-10867436D02*
X17666491Y-10848389D01*
X17666491Y-10848389D02*
X17666491Y-10800770D01*
X17666491Y-10800770D02*
X17656968Y-10781722D01*
X17656968Y-10781722D02*
X17647444Y-10772198D01*
X17647444Y-10772198D02*
X17628396Y-10762674D01*
X17628396Y-10762674D02*
X17590301Y-10762674D01*
X17590301Y-10762674D02*
X17571253Y-10772198D01*
X17571253Y-10772198D02*
X17561730Y-10781722D01*
X17561730Y-10781722D02*
X17552206Y-10800770D01*
X17904587Y-10886484D02*
X17904587Y-10686484D01*
X17990301Y-10886484D02*
X17990301Y-10781722D01*
X17990301Y-10781722D02*
X17980777Y-10762674D01*
X17980777Y-10762674D02*
X17961730Y-10753150D01*
X17961730Y-10753150D02*
X17933158Y-10753150D01*
X17933158Y-10753150D02*
X17914111Y-10762674D01*
X17914111Y-10762674D02*
X17904587Y-10772198D01*
X18114111Y-10886484D02*
X18095063Y-10876960D01*
X18095063Y-10876960D02*
X18085539Y-10867436D01*
X18085539Y-10867436D02*
X18076015Y-10848389D01*
X18076015Y-10848389D02*
X18076015Y-10791246D01*
X18076015Y-10791246D02*
X18085539Y-10772198D01*
X18085539Y-10772198D02*
X18095063Y-10762674D01*
X18095063Y-10762674D02*
X18114111Y-10753150D01*
X18114111Y-10753150D02*
X18142682Y-10753150D01*
X18142682Y-10753150D02*
X18161730Y-10762674D01*
X18161730Y-10762674D02*
X18171253Y-10772198D01*
X18171253Y-10772198D02*
X18180777Y-10791246D01*
X18180777Y-10791246D02*
X18180777Y-10848389D01*
X18180777Y-10848389D02*
X18171253Y-10867436D01*
X18171253Y-10867436D02*
X18161730Y-10876960D01*
X18161730Y-10876960D02*
X18142682Y-10886484D01*
X18142682Y-10886484D02*
X18114111Y-10886484D01*
X18295063Y-10886484D02*
X18276015Y-10876960D01*
X18276015Y-10876960D02*
X18266492Y-10857912D01*
X18266492Y-10857912D02*
X18266492Y-10686484D01*
X18447444Y-10876960D02*
X18428396Y-10886484D01*
X18428396Y-10886484D02*
X18390301Y-10886484D01*
X18390301Y-10886484D02*
X18371253Y-10876960D01*
X18371253Y-10876960D02*
X18361730Y-10857912D01*
X18361730Y-10857912D02*
X18361730Y-10781722D01*
X18361730Y-10781722D02*
X18371253Y-10762674D01*
X18371253Y-10762674D02*
X18390301Y-10753150D01*
X18390301Y-10753150D02*
X18428396Y-10753150D01*
X18428396Y-10753150D02*
X18447444Y-10762674D01*
X18447444Y-10762674D02*
X18456968Y-10781722D01*
X18456968Y-10781722D02*
X18456968Y-10800770D01*
X18456968Y-10800770D02*
X18361730Y-10819817D01*
X18533158Y-10876960D02*
X18552206Y-10886484D01*
X18552206Y-10886484D02*
X18590301Y-10886484D01*
X18590301Y-10886484D02*
X18609349Y-10876960D01*
X18609349Y-10876960D02*
X18618873Y-10857912D01*
X18618873Y-10857912D02*
X18618873Y-10848389D01*
X18618873Y-10848389D02*
X18609349Y-10829341D01*
X18609349Y-10829341D02*
X18590301Y-10819817D01*
X18590301Y-10819817D02*
X18561730Y-10819817D01*
X18561730Y-10819817D02*
X18542682Y-10810293D01*
X18542682Y-10810293D02*
X18533158Y-10791246D01*
X18533158Y-10791246D02*
X18533158Y-10781722D01*
X18533158Y-10781722D02*
X18542682Y-10762674D01*
X18542682Y-10762674D02*
X18561730Y-10753150D01*
X18561730Y-10753150D02*
X18590301Y-10753150D01*
X18590301Y-10753150D02*
X18609349Y-10762674D01*
X18685539Y-10962674D02*
X18695063Y-10953150D01*
X18695063Y-10953150D02*
X18714111Y-10924579D01*
X18714111Y-10924579D02*
X18723634Y-10905531D01*
X18723634Y-10905531D02*
X18733158Y-10876960D01*
X18733158Y-10876960D02*
X18742682Y-10829341D01*
X18742682Y-10829341D02*
X18742682Y-10791246D01*
X18742682Y-10791246D02*
X18733158Y-10743627D01*
X18733158Y-10743627D02*
X18723634Y-10715055D01*
X18723634Y-10715055D02*
X18714111Y-10696008D01*
X18714111Y-10696008D02*
X18695063Y-10667436D01*
X18695063Y-10667436D02*
X18685539Y-10657912D01*
D11*
X13720000Y-11059000D02*
G75*
G02*
X13660000Y-11059000I-30000J0D01*
G01*
X13660000Y-11059000D02*
G75*
G02*
X13720000Y-11059000I30000J0D01*
G01*
D12*
X14018872Y-10950484D02*
X14037920Y-10950484D01*
X14037920Y-10950484D02*
X14056967Y-10960008D01*
X14056967Y-10960008D02*
X14066491Y-10969531D01*
X14066491Y-10969531D02*
X14076015Y-10988579D01*
X14076015Y-10988579D02*
X14085539Y-11026674D01*
X14085539Y-11026674D02*
X14085539Y-11074293D01*
X14085539Y-11074293D02*
X14076015Y-11112389D01*
X14076015Y-11112389D02*
X14066491Y-11131436D01*
X14066491Y-11131436D02*
X14056967Y-11140960D01*
X14056967Y-11140960D02*
X14037920Y-11150484D01*
X14037920Y-11150484D02*
X14018872Y-11150484D01*
X14018872Y-11150484D02*
X13999824Y-11140960D01*
X13999824Y-11140960D02*
X13990301Y-11131436D01*
X13990301Y-11131436D02*
X13980777Y-11112389D01*
X13980777Y-11112389D02*
X13971253Y-11074293D01*
X13971253Y-11074293D02*
X13971253Y-11026674D01*
X13971253Y-11026674D02*
X13980777Y-10988579D01*
X13980777Y-10988579D02*
X13990301Y-10969531D01*
X13990301Y-10969531D02*
X13999824Y-10960008D01*
X13999824Y-10960008D02*
X14018872Y-10950484D01*
X14171253Y-11131436D02*
X14180777Y-11140960D01*
X14180777Y-11140960D02*
X14171253Y-11150484D01*
X14171253Y-11150484D02*
X14161729Y-11140960D01*
X14161729Y-11140960D02*
X14171253Y-11131436D01*
X14171253Y-11131436D02*
X14171253Y-11150484D01*
X14352205Y-10950484D02*
X14314110Y-10950484D01*
X14314110Y-10950484D02*
X14295062Y-10960008D01*
X14295062Y-10960008D02*
X14285539Y-10969531D01*
X14285539Y-10969531D02*
X14266491Y-10998103D01*
X14266491Y-10998103D02*
X14256967Y-11036198D01*
X14256967Y-11036198D02*
X14256967Y-11112389D01*
X14256967Y-11112389D02*
X14266491Y-11131436D01*
X14266491Y-11131436D02*
X14276015Y-11140960D01*
X14276015Y-11140960D02*
X14295062Y-11150484D01*
X14295062Y-11150484D02*
X14333158Y-11150484D01*
X14333158Y-11150484D02*
X14352205Y-11140960D01*
X14352205Y-11140960D02*
X14361729Y-11131436D01*
X14361729Y-11131436D02*
X14371253Y-11112389D01*
X14371253Y-11112389D02*
X14371253Y-11064770D01*
X14371253Y-11064770D02*
X14361729Y-11045722D01*
X14361729Y-11045722D02*
X14352205Y-11036198D01*
X14352205Y-11036198D02*
X14333158Y-11026674D01*
X14333158Y-11026674D02*
X14295062Y-11026674D01*
X14295062Y-11026674D02*
X14276015Y-11036198D01*
X14276015Y-11036198D02*
X14266491Y-11045722D01*
X14266491Y-11045722D02*
X14256967Y-11064770D01*
X14495062Y-10950484D02*
X14514110Y-10950484D01*
X14514110Y-10950484D02*
X14533158Y-10960008D01*
X14533158Y-10960008D02*
X14542682Y-10969531D01*
X14542682Y-10969531D02*
X14552205Y-10988579D01*
X14552205Y-10988579D02*
X14561729Y-11026674D01*
X14561729Y-11026674D02*
X14561729Y-11074293D01*
X14561729Y-11074293D02*
X14552205Y-11112389D01*
X14552205Y-11112389D02*
X14542682Y-11131436D01*
X14542682Y-11131436D02*
X14533158Y-11140960D01*
X14533158Y-11140960D02*
X14514110Y-11150484D01*
X14514110Y-11150484D02*
X14495062Y-11150484D01*
X14495062Y-11150484D02*
X14476015Y-11140960D01*
X14476015Y-11140960D02*
X14466491Y-11131436D01*
X14466491Y-11131436D02*
X14456967Y-11112389D01*
X14456967Y-11112389D02*
X14447443Y-11074293D01*
X14447443Y-11074293D02*
X14447443Y-11026674D01*
X14447443Y-11026674D02*
X14456967Y-10988579D01*
X14456967Y-10988579D02*
X14466491Y-10969531D01*
X14466491Y-10969531D02*
X14476015Y-10960008D01*
X14476015Y-10960008D02*
X14495062Y-10950484D01*
X14685539Y-10950484D02*
X14704586Y-10950484D01*
X14704586Y-10950484D02*
X14723634Y-10960008D01*
X14723634Y-10960008D02*
X14733158Y-10969531D01*
X14733158Y-10969531D02*
X14742682Y-10988579D01*
X14742682Y-10988579D02*
X14752205Y-11026674D01*
X14752205Y-11026674D02*
X14752205Y-11074293D01*
X14752205Y-11074293D02*
X14742682Y-11112389D01*
X14742682Y-11112389D02*
X14733158Y-11131436D01*
X14733158Y-11131436D02*
X14723634Y-11140960D01*
X14723634Y-11140960D02*
X14704586Y-11150484D01*
X14704586Y-11150484D02*
X14685539Y-11150484D01*
X14685539Y-11150484D02*
X14666491Y-11140960D01*
X14666491Y-11140960D02*
X14656967Y-11131436D01*
X14656967Y-11131436D02*
X14647443Y-11112389D01*
X14647443Y-11112389D02*
X14637920Y-11074293D01*
X14637920Y-11074293D02*
X14637920Y-11026674D01*
X14637920Y-11026674D02*
X14647443Y-10988579D01*
X14647443Y-10988579D02*
X14656967Y-10969531D01*
X14656967Y-10969531D02*
X14666491Y-10960008D01*
X14666491Y-10960008D02*
X14685539Y-10950484D01*
X14837920Y-11150484D02*
X14837920Y-11017150D01*
X14837920Y-11036198D02*
X14847443Y-11026674D01*
X14847443Y-11026674D02*
X14866491Y-11017150D01*
X14866491Y-11017150D02*
X14895063Y-11017150D01*
X14895063Y-11017150D02*
X14914110Y-11026674D01*
X14914110Y-11026674D02*
X14923634Y-11045722D01*
X14923634Y-11045722D02*
X14923634Y-11150484D01*
X14923634Y-11045722D02*
X14933158Y-11026674D01*
X14933158Y-11026674D02*
X14952205Y-11017150D01*
X14952205Y-11017150D02*
X14980777Y-11017150D01*
X14980777Y-11017150D02*
X14999824Y-11026674D01*
X14999824Y-11026674D02*
X15009348Y-11045722D01*
X15009348Y-11045722D02*
X15009348Y-11150484D01*
X15104586Y-11150484D02*
X15104586Y-11017150D01*
X15104586Y-11036198D02*
X15114110Y-11026674D01*
X15114110Y-11026674D02*
X15133158Y-11017150D01*
X15133158Y-11017150D02*
X15161729Y-11017150D01*
X15161729Y-11017150D02*
X15180777Y-11026674D01*
X15180777Y-11026674D02*
X15190301Y-11045722D01*
X15190301Y-11045722D02*
X15190301Y-11150484D01*
X15190301Y-11045722D02*
X15199824Y-11026674D01*
X15199824Y-11026674D02*
X15218872Y-11017150D01*
X15218872Y-11017150D02*
X15247443Y-11017150D01*
X15247443Y-11017150D02*
X15266491Y-11026674D01*
X15266491Y-11026674D02*
X15276015Y-11045722D01*
X15276015Y-11045722D02*
X15276015Y-11150484D01*
X15666491Y-10940960D02*
X15495063Y-11198103D01*
X15923634Y-10950484D02*
X15942682Y-10950484D01*
X15942682Y-10950484D02*
X15961729Y-10960008D01*
X15961729Y-10960008D02*
X15971253Y-10969531D01*
X15971253Y-10969531D02*
X15980777Y-10988579D01*
X15980777Y-10988579D02*
X15990301Y-11026674D01*
X15990301Y-11026674D02*
X15990301Y-11074293D01*
X15990301Y-11074293D02*
X15980777Y-11112389D01*
X15980777Y-11112389D02*
X15971253Y-11131436D01*
X15971253Y-11131436D02*
X15961729Y-11140960D01*
X15961729Y-11140960D02*
X15942682Y-11150484D01*
X15942682Y-11150484D02*
X15923634Y-11150484D01*
X15923634Y-11150484D02*
X15904586Y-11140960D01*
X15904586Y-11140960D02*
X15895063Y-11131436D01*
X15895063Y-11131436D02*
X15885539Y-11112389D01*
X15885539Y-11112389D02*
X15876015Y-11074293D01*
X15876015Y-11074293D02*
X15876015Y-11026674D01*
X15876015Y-11026674D02*
X15885539Y-10988579D01*
X15885539Y-10988579D02*
X15895063Y-10969531D01*
X15895063Y-10969531D02*
X15904586Y-10960008D01*
X15904586Y-10960008D02*
X15923634Y-10950484D01*
X16076015Y-11131436D02*
X16085539Y-11140960D01*
X16085539Y-11140960D02*
X16076015Y-11150484D01*
X16076015Y-11150484D02*
X16066491Y-11140960D01*
X16066491Y-11140960D02*
X16076015Y-11131436D01*
X16076015Y-11131436D02*
X16076015Y-11150484D01*
X16209348Y-10950484D02*
X16228396Y-10950484D01*
X16228396Y-10950484D02*
X16247444Y-10960008D01*
X16247444Y-10960008D02*
X16256967Y-10969531D01*
X16256967Y-10969531D02*
X16266491Y-10988579D01*
X16266491Y-10988579D02*
X16276015Y-11026674D01*
X16276015Y-11026674D02*
X16276015Y-11074293D01*
X16276015Y-11074293D02*
X16266491Y-11112389D01*
X16266491Y-11112389D02*
X16256967Y-11131436D01*
X16256967Y-11131436D02*
X16247444Y-11140960D01*
X16247444Y-11140960D02*
X16228396Y-11150484D01*
X16228396Y-11150484D02*
X16209348Y-11150484D01*
X16209348Y-11150484D02*
X16190301Y-11140960D01*
X16190301Y-11140960D02*
X16180777Y-11131436D01*
X16180777Y-11131436D02*
X16171253Y-11112389D01*
X16171253Y-11112389D02*
X16161729Y-11074293D01*
X16161729Y-11074293D02*
X16161729Y-11026674D01*
X16161729Y-11026674D02*
X16171253Y-10988579D01*
X16171253Y-10988579D02*
X16180777Y-10969531D01*
X16180777Y-10969531D02*
X16190301Y-10960008D01*
X16190301Y-10960008D02*
X16209348Y-10950484D01*
X16352206Y-10969531D02*
X16361729Y-10960008D01*
X16361729Y-10960008D02*
X16380777Y-10950484D01*
X16380777Y-10950484D02*
X16428396Y-10950484D01*
X16428396Y-10950484D02*
X16447444Y-10960008D01*
X16447444Y-10960008D02*
X16456967Y-10969531D01*
X16456967Y-10969531D02*
X16466491Y-10988579D01*
X16466491Y-10988579D02*
X16466491Y-11007627D01*
X16466491Y-11007627D02*
X16456967Y-11036198D01*
X16456967Y-11036198D02*
X16342682Y-11150484D01*
X16342682Y-11150484D02*
X16466491Y-11150484D01*
X16533158Y-10950484D02*
X16656967Y-10950484D01*
X16656967Y-10950484D02*
X16590301Y-11026674D01*
X16590301Y-11026674D02*
X16618872Y-11026674D01*
X16618872Y-11026674D02*
X16637920Y-11036198D01*
X16637920Y-11036198D02*
X16647444Y-11045722D01*
X16647444Y-11045722D02*
X16656967Y-11064770D01*
X16656967Y-11064770D02*
X16656967Y-11112389D01*
X16656967Y-11112389D02*
X16647444Y-11131436D01*
X16647444Y-11131436D02*
X16637920Y-11140960D01*
X16637920Y-11140960D02*
X16618872Y-11150484D01*
X16618872Y-11150484D02*
X16561729Y-11150484D01*
X16561729Y-11150484D02*
X16542682Y-11140960D01*
X16542682Y-11140960D02*
X16533158Y-11131436D01*
X16828396Y-10950484D02*
X16790301Y-10950484D01*
X16790301Y-10950484D02*
X16771253Y-10960008D01*
X16771253Y-10960008D02*
X16761729Y-10969531D01*
X16761729Y-10969531D02*
X16742682Y-10998103D01*
X16742682Y-10998103D02*
X16733158Y-11036198D01*
X16733158Y-11036198D02*
X16733158Y-11112389D01*
X16733158Y-11112389D02*
X16742682Y-11131436D01*
X16742682Y-11131436D02*
X16752206Y-11140960D01*
X16752206Y-11140960D02*
X16771253Y-11150484D01*
X16771253Y-11150484D02*
X16809349Y-11150484D01*
X16809349Y-11150484D02*
X16828396Y-11140960D01*
X16828396Y-11140960D02*
X16837920Y-11131436D01*
X16837920Y-11131436D02*
X16847444Y-11112389D01*
X16847444Y-11112389D02*
X16847444Y-11064770D01*
X16847444Y-11064770D02*
X16837920Y-11045722D01*
X16837920Y-11045722D02*
X16828396Y-11036198D01*
X16828396Y-11036198D02*
X16809349Y-11026674D01*
X16809349Y-11026674D02*
X16771253Y-11026674D01*
X16771253Y-11026674D02*
X16752206Y-11036198D01*
X16752206Y-11036198D02*
X16742682Y-11045722D01*
X16742682Y-11045722D02*
X16733158Y-11064770D01*
X16923634Y-10950484D02*
X16923634Y-10988579D01*
X16999825Y-10950484D02*
X16999825Y-10988579D01*
X17295063Y-11226674D02*
X17285539Y-11217150D01*
X17285539Y-11217150D02*
X17266491Y-11188579D01*
X17266491Y-11188579D02*
X17256968Y-11169531D01*
X17256968Y-11169531D02*
X17247444Y-11140960D01*
X17247444Y-11140960D02*
X17237920Y-11093341D01*
X17237920Y-11093341D02*
X17237920Y-11055246D01*
X17237920Y-11055246D02*
X17247444Y-11007627D01*
X17247444Y-11007627D02*
X17256968Y-10979055D01*
X17256968Y-10979055D02*
X17266491Y-10960008D01*
X17266491Y-10960008D02*
X17285539Y-10931436D01*
X17285539Y-10931436D02*
X17295063Y-10921912D01*
X17409349Y-10950484D02*
X17428396Y-10950484D01*
X17428396Y-10950484D02*
X17447444Y-10960008D01*
X17447444Y-10960008D02*
X17456968Y-10969531D01*
X17456968Y-10969531D02*
X17466491Y-10988579D01*
X17466491Y-10988579D02*
X17476015Y-11026674D01*
X17476015Y-11026674D02*
X17476015Y-11074293D01*
X17476015Y-11074293D02*
X17466491Y-11112389D01*
X17466491Y-11112389D02*
X17456968Y-11131436D01*
X17456968Y-11131436D02*
X17447444Y-11140960D01*
X17447444Y-11140960D02*
X17428396Y-11150484D01*
X17428396Y-11150484D02*
X17409349Y-11150484D01*
X17409349Y-11150484D02*
X17390301Y-11140960D01*
X17390301Y-11140960D02*
X17380777Y-11131436D01*
X17380777Y-11131436D02*
X17371253Y-11112389D01*
X17371253Y-11112389D02*
X17361730Y-11074293D01*
X17361730Y-11074293D02*
X17361730Y-11026674D01*
X17361730Y-11026674D02*
X17371253Y-10988579D01*
X17371253Y-10988579D02*
X17380777Y-10969531D01*
X17380777Y-10969531D02*
X17390301Y-10960008D01*
X17390301Y-10960008D02*
X17409349Y-10950484D01*
X17714111Y-11150484D02*
X17714111Y-10950484D01*
X17799825Y-11150484D02*
X17799825Y-11045722D01*
X17799825Y-11045722D02*
X17790301Y-11026674D01*
X17790301Y-11026674D02*
X17771253Y-11017150D01*
X17771253Y-11017150D02*
X17742682Y-11017150D01*
X17742682Y-11017150D02*
X17723634Y-11026674D01*
X17723634Y-11026674D02*
X17714111Y-11036198D01*
X17923634Y-11150484D02*
X17904587Y-11140960D01*
X17904587Y-11140960D02*
X17895063Y-11131436D01*
X17895063Y-11131436D02*
X17885539Y-11112389D01*
X17885539Y-11112389D02*
X17885539Y-11055246D01*
X17885539Y-11055246D02*
X17895063Y-11036198D01*
X17895063Y-11036198D02*
X17904587Y-11026674D01*
X17904587Y-11026674D02*
X17923634Y-11017150D01*
X17923634Y-11017150D02*
X17952206Y-11017150D01*
X17952206Y-11017150D02*
X17971253Y-11026674D01*
X17971253Y-11026674D02*
X17980777Y-11036198D01*
X17980777Y-11036198D02*
X17990301Y-11055246D01*
X17990301Y-11055246D02*
X17990301Y-11112389D01*
X17990301Y-11112389D02*
X17980777Y-11131436D01*
X17980777Y-11131436D02*
X17971253Y-11140960D01*
X17971253Y-11140960D02*
X17952206Y-11150484D01*
X17952206Y-11150484D02*
X17923634Y-11150484D01*
X18104587Y-11150484D02*
X18085539Y-11140960D01*
X18085539Y-11140960D02*
X18076015Y-11121912D01*
X18076015Y-11121912D02*
X18076015Y-10950484D01*
X18256968Y-11140960D02*
X18237920Y-11150484D01*
X18237920Y-11150484D02*
X18199825Y-11150484D01*
X18199825Y-11150484D02*
X18180777Y-11140960D01*
X18180777Y-11140960D02*
X18171253Y-11121912D01*
X18171253Y-11121912D02*
X18171253Y-11045722D01*
X18171253Y-11045722D02*
X18180777Y-11026674D01*
X18180777Y-11026674D02*
X18199825Y-11017150D01*
X18199825Y-11017150D02*
X18237920Y-11017150D01*
X18237920Y-11017150D02*
X18256968Y-11026674D01*
X18256968Y-11026674D02*
X18266492Y-11045722D01*
X18266492Y-11045722D02*
X18266492Y-11064770D01*
X18266492Y-11064770D02*
X18171253Y-11083817D01*
X18342682Y-11140960D02*
X18361730Y-11150484D01*
X18361730Y-11150484D02*
X18399825Y-11150484D01*
X18399825Y-11150484D02*
X18418873Y-11140960D01*
X18418873Y-11140960D02*
X18428396Y-11121912D01*
X18428396Y-11121912D02*
X18428396Y-11112389D01*
X18428396Y-11112389D02*
X18418873Y-11093341D01*
X18418873Y-11093341D02*
X18399825Y-11083817D01*
X18399825Y-11083817D02*
X18371253Y-11083817D01*
X18371253Y-11083817D02*
X18352206Y-11074293D01*
X18352206Y-11074293D02*
X18342682Y-11055246D01*
X18342682Y-11055246D02*
X18342682Y-11045722D01*
X18342682Y-11045722D02*
X18352206Y-11026674D01*
X18352206Y-11026674D02*
X18371253Y-11017150D01*
X18371253Y-11017150D02*
X18399825Y-11017150D01*
X18399825Y-11017150D02*
X18418873Y-11026674D01*
X18666492Y-11074293D02*
X18818873Y-11074293D01*
X18742682Y-11150484D02*
X18742682Y-10998103D01*
X19152206Y-11017150D02*
X19152206Y-11150484D01*
X19104587Y-10940960D02*
X19056968Y-11083817D01*
X19056968Y-11083817D02*
X19180777Y-11083817D01*
X19399825Y-11140960D02*
X19418873Y-11150484D01*
X19418873Y-11150484D02*
X19456968Y-11150484D01*
X19456968Y-11150484D02*
X19476016Y-11140960D01*
X19476016Y-11140960D02*
X19485539Y-11121912D01*
X19485539Y-11121912D02*
X19485539Y-11112389D01*
X19485539Y-11112389D02*
X19476016Y-11093341D01*
X19476016Y-11093341D02*
X19456968Y-11083817D01*
X19456968Y-11083817D02*
X19428396Y-11083817D01*
X19428396Y-11083817D02*
X19409349Y-11074293D01*
X19409349Y-11074293D02*
X19399825Y-11055246D01*
X19399825Y-11055246D02*
X19399825Y-11045722D01*
X19399825Y-11045722D02*
X19409349Y-11026674D01*
X19409349Y-11026674D02*
X19428396Y-11017150D01*
X19428396Y-11017150D02*
X19456968Y-11017150D01*
X19456968Y-11017150D02*
X19476016Y-11026674D01*
X19599825Y-11150484D02*
X19580777Y-11140960D01*
X19580777Y-11140960D02*
X19571254Y-11121912D01*
X19571254Y-11121912D02*
X19571254Y-10950484D01*
X19704587Y-11150484D02*
X19685539Y-11140960D01*
X19685539Y-11140960D02*
X19676016Y-11131436D01*
X19676016Y-11131436D02*
X19666492Y-11112389D01*
X19666492Y-11112389D02*
X19666492Y-11055246D01*
X19666492Y-11055246D02*
X19676016Y-11036198D01*
X19676016Y-11036198D02*
X19685539Y-11026674D01*
X19685539Y-11026674D02*
X19704587Y-11017150D01*
X19704587Y-11017150D02*
X19733158Y-11017150D01*
X19733158Y-11017150D02*
X19752206Y-11026674D01*
X19752206Y-11026674D02*
X19761730Y-11036198D01*
X19761730Y-11036198D02*
X19771254Y-11055246D01*
X19771254Y-11055246D02*
X19771254Y-11112389D01*
X19771254Y-11112389D02*
X19761730Y-11131436D01*
X19761730Y-11131436D02*
X19752206Y-11140960D01*
X19752206Y-11140960D02*
X19733158Y-11150484D01*
X19733158Y-11150484D02*
X19704587Y-11150484D01*
X19828397Y-11017150D02*
X19904587Y-11017150D01*
X19856968Y-10950484D02*
X19856968Y-11121912D01*
X19856968Y-11121912D02*
X19866492Y-11140960D01*
X19866492Y-11140960D02*
X19885539Y-11150484D01*
X19885539Y-11150484D02*
X19904587Y-11150484D01*
X19961730Y-11140960D02*
X19980777Y-11150484D01*
X19980777Y-11150484D02*
X20018873Y-11150484D01*
X20018873Y-11150484D02*
X20037920Y-11140960D01*
X20037920Y-11140960D02*
X20047444Y-11121912D01*
X20047444Y-11121912D02*
X20047444Y-11112389D01*
X20047444Y-11112389D02*
X20037920Y-11093341D01*
X20037920Y-11093341D02*
X20018873Y-11083817D01*
X20018873Y-11083817D02*
X19990301Y-11083817D01*
X19990301Y-11083817D02*
X19971254Y-11074293D01*
X19971254Y-11074293D02*
X19961730Y-11055246D01*
X19961730Y-11055246D02*
X19961730Y-11045722D01*
X19961730Y-11045722D02*
X19971254Y-11026674D01*
X19971254Y-11026674D02*
X19990301Y-11017150D01*
X19990301Y-11017150D02*
X20018873Y-11017150D01*
X20018873Y-11017150D02*
X20037920Y-11026674D01*
X20114111Y-11226674D02*
X20123635Y-11217150D01*
X20123635Y-11217150D02*
X20142682Y-11188579D01*
X20142682Y-11188579D02*
X20152206Y-11169531D01*
X20152206Y-11169531D02*
X20161730Y-11140960D01*
X20161730Y-11140960D02*
X20171254Y-11093341D01*
X20171254Y-11093341D02*
X20171254Y-11055246D01*
X20171254Y-11055246D02*
X20161730Y-11007627D01*
X20161730Y-11007627D02*
X20152206Y-10979055D01*
X20152206Y-10979055D02*
X20142682Y-10960008D01*
X20142682Y-10960008D02*
X20123635Y-10931436D01*
X20123635Y-10931436D02*
X20114111Y-10921912D01*
D11*
X13670000Y-11273000D02*
X13670000Y-11373000D01*
X13620000Y-11323000D02*
X13720000Y-11323000D01*
D12*
X14085539Y-11414484D02*
X13971253Y-11414484D01*
X14028396Y-11414484D02*
X14028396Y-11214484D01*
X14028396Y-11214484D02*
X14009348Y-11243055D01*
X14009348Y-11243055D02*
X13990301Y-11262103D01*
X13990301Y-11262103D02*
X13971253Y-11271627D01*
X14171253Y-11395436D02*
X14180777Y-11404960D01*
X14180777Y-11404960D02*
X14171253Y-11414484D01*
X14171253Y-11414484D02*
X14161729Y-11404960D01*
X14161729Y-11404960D02*
X14171253Y-11395436D01*
X14171253Y-11395436D02*
X14171253Y-11414484D01*
X14304586Y-11214484D02*
X14323634Y-11214484D01*
X14323634Y-11214484D02*
X14342682Y-11224008D01*
X14342682Y-11224008D02*
X14352205Y-11233531D01*
X14352205Y-11233531D02*
X14361729Y-11252579D01*
X14361729Y-11252579D02*
X14371253Y-11290674D01*
X14371253Y-11290674D02*
X14371253Y-11338293D01*
X14371253Y-11338293D02*
X14361729Y-11376388D01*
X14361729Y-11376388D02*
X14352205Y-11395436D01*
X14352205Y-11395436D02*
X14342682Y-11404960D01*
X14342682Y-11404960D02*
X14323634Y-11414484D01*
X14323634Y-11414484D02*
X14304586Y-11414484D01*
X14304586Y-11414484D02*
X14285539Y-11404960D01*
X14285539Y-11404960D02*
X14276015Y-11395436D01*
X14276015Y-11395436D02*
X14266491Y-11376388D01*
X14266491Y-11376388D02*
X14256967Y-11338293D01*
X14256967Y-11338293D02*
X14256967Y-11290674D01*
X14256967Y-11290674D02*
X14266491Y-11252579D01*
X14266491Y-11252579D02*
X14276015Y-11233531D01*
X14276015Y-11233531D02*
X14285539Y-11224008D01*
X14285539Y-11224008D02*
X14304586Y-11214484D01*
X14495062Y-11214484D02*
X14514110Y-11214484D01*
X14514110Y-11214484D02*
X14533158Y-11224008D01*
X14533158Y-11224008D02*
X14542682Y-11233531D01*
X14542682Y-11233531D02*
X14552205Y-11252579D01*
X14552205Y-11252579D02*
X14561729Y-11290674D01*
X14561729Y-11290674D02*
X14561729Y-11338293D01*
X14561729Y-11338293D02*
X14552205Y-11376388D01*
X14552205Y-11376388D02*
X14542682Y-11395436D01*
X14542682Y-11395436D02*
X14533158Y-11404960D01*
X14533158Y-11404960D02*
X14514110Y-11414484D01*
X14514110Y-11414484D02*
X14495062Y-11414484D01*
X14495062Y-11414484D02*
X14476015Y-11404960D01*
X14476015Y-11404960D02*
X14466491Y-11395436D01*
X14466491Y-11395436D02*
X14456967Y-11376388D01*
X14456967Y-11376388D02*
X14447443Y-11338293D01*
X14447443Y-11338293D02*
X14447443Y-11290674D01*
X14447443Y-11290674D02*
X14456967Y-11252579D01*
X14456967Y-11252579D02*
X14466491Y-11233531D01*
X14466491Y-11233531D02*
X14476015Y-11224008D01*
X14476015Y-11224008D02*
X14495062Y-11214484D01*
X14685539Y-11214484D02*
X14704586Y-11214484D01*
X14704586Y-11214484D02*
X14723634Y-11224008D01*
X14723634Y-11224008D02*
X14733158Y-11233531D01*
X14733158Y-11233531D02*
X14742682Y-11252579D01*
X14742682Y-11252579D02*
X14752205Y-11290674D01*
X14752205Y-11290674D02*
X14752205Y-11338293D01*
X14752205Y-11338293D02*
X14742682Y-11376388D01*
X14742682Y-11376388D02*
X14733158Y-11395436D01*
X14733158Y-11395436D02*
X14723634Y-11404960D01*
X14723634Y-11404960D02*
X14704586Y-11414484D01*
X14704586Y-11414484D02*
X14685539Y-11414484D01*
X14685539Y-11414484D02*
X14666491Y-11404960D01*
X14666491Y-11404960D02*
X14656967Y-11395436D01*
X14656967Y-11395436D02*
X14647443Y-11376388D01*
X14647443Y-11376388D02*
X14637920Y-11338293D01*
X14637920Y-11338293D02*
X14637920Y-11290674D01*
X14637920Y-11290674D02*
X14647443Y-11252579D01*
X14647443Y-11252579D02*
X14656967Y-11233531D01*
X14656967Y-11233531D02*
X14666491Y-11224008D01*
X14666491Y-11224008D02*
X14685539Y-11214484D01*
X14837920Y-11414484D02*
X14837920Y-11281150D01*
X14837920Y-11300198D02*
X14847443Y-11290674D01*
X14847443Y-11290674D02*
X14866491Y-11281150D01*
X14866491Y-11281150D02*
X14895063Y-11281150D01*
X14895063Y-11281150D02*
X14914110Y-11290674D01*
X14914110Y-11290674D02*
X14923634Y-11309722D01*
X14923634Y-11309722D02*
X14923634Y-11414484D01*
X14923634Y-11309722D02*
X14933158Y-11290674D01*
X14933158Y-11290674D02*
X14952205Y-11281150D01*
X14952205Y-11281150D02*
X14980777Y-11281150D01*
X14980777Y-11281150D02*
X14999824Y-11290674D01*
X14999824Y-11290674D02*
X15009348Y-11309722D01*
X15009348Y-11309722D02*
X15009348Y-11414484D01*
X15104586Y-11414484D02*
X15104586Y-11281150D01*
X15104586Y-11300198D02*
X15114110Y-11290674D01*
X15114110Y-11290674D02*
X15133158Y-11281150D01*
X15133158Y-11281150D02*
X15161729Y-11281150D01*
X15161729Y-11281150D02*
X15180777Y-11290674D01*
X15180777Y-11290674D02*
X15190301Y-11309722D01*
X15190301Y-11309722D02*
X15190301Y-11414484D01*
X15190301Y-11309722D02*
X15199824Y-11290674D01*
X15199824Y-11290674D02*
X15218872Y-11281150D01*
X15218872Y-11281150D02*
X15247443Y-11281150D01*
X15247443Y-11281150D02*
X15266491Y-11290674D01*
X15266491Y-11290674D02*
X15276015Y-11309722D01*
X15276015Y-11309722D02*
X15276015Y-11414484D01*
X15666491Y-11204960D02*
X15495063Y-11462103D01*
X15923634Y-11214484D02*
X15942682Y-11214484D01*
X15942682Y-11214484D02*
X15961729Y-11224008D01*
X15961729Y-11224008D02*
X15971253Y-11233531D01*
X15971253Y-11233531D02*
X15980777Y-11252579D01*
X15980777Y-11252579D02*
X15990301Y-11290674D01*
X15990301Y-11290674D02*
X15990301Y-11338293D01*
X15990301Y-11338293D02*
X15980777Y-11376388D01*
X15980777Y-11376388D02*
X15971253Y-11395436D01*
X15971253Y-11395436D02*
X15961729Y-11404960D01*
X15961729Y-11404960D02*
X15942682Y-11414484D01*
X15942682Y-11414484D02*
X15923634Y-11414484D01*
X15923634Y-11414484D02*
X15904586Y-11404960D01*
X15904586Y-11404960D02*
X15895063Y-11395436D01*
X15895063Y-11395436D02*
X15885539Y-11376388D01*
X15885539Y-11376388D02*
X15876015Y-11338293D01*
X15876015Y-11338293D02*
X15876015Y-11290674D01*
X15876015Y-11290674D02*
X15885539Y-11252579D01*
X15885539Y-11252579D02*
X15895063Y-11233531D01*
X15895063Y-11233531D02*
X15904586Y-11224008D01*
X15904586Y-11224008D02*
X15923634Y-11214484D01*
X16076015Y-11395436D02*
X16085539Y-11404960D01*
X16085539Y-11404960D02*
X16076015Y-11414484D01*
X16076015Y-11414484D02*
X16066491Y-11404960D01*
X16066491Y-11404960D02*
X16076015Y-11395436D01*
X16076015Y-11395436D02*
X16076015Y-11414484D01*
X16209348Y-11214484D02*
X16228396Y-11214484D01*
X16228396Y-11214484D02*
X16247444Y-11224008D01*
X16247444Y-11224008D02*
X16256967Y-11233531D01*
X16256967Y-11233531D02*
X16266491Y-11252579D01*
X16266491Y-11252579D02*
X16276015Y-11290674D01*
X16276015Y-11290674D02*
X16276015Y-11338293D01*
X16276015Y-11338293D02*
X16266491Y-11376388D01*
X16266491Y-11376388D02*
X16256967Y-11395436D01*
X16256967Y-11395436D02*
X16247444Y-11404960D01*
X16247444Y-11404960D02*
X16228396Y-11414484D01*
X16228396Y-11414484D02*
X16209348Y-11414484D01*
X16209348Y-11414484D02*
X16190301Y-11404960D01*
X16190301Y-11404960D02*
X16180777Y-11395436D01*
X16180777Y-11395436D02*
X16171253Y-11376388D01*
X16171253Y-11376388D02*
X16161729Y-11338293D01*
X16161729Y-11338293D02*
X16161729Y-11290674D01*
X16161729Y-11290674D02*
X16171253Y-11252579D01*
X16171253Y-11252579D02*
X16180777Y-11233531D01*
X16180777Y-11233531D02*
X16190301Y-11224008D01*
X16190301Y-11224008D02*
X16209348Y-11214484D01*
X16342682Y-11214484D02*
X16466491Y-11214484D01*
X16466491Y-11214484D02*
X16399825Y-11290674D01*
X16399825Y-11290674D02*
X16428396Y-11290674D01*
X16428396Y-11290674D02*
X16447444Y-11300198D01*
X16447444Y-11300198D02*
X16456967Y-11309722D01*
X16456967Y-11309722D02*
X16466491Y-11328769D01*
X16466491Y-11328769D02*
X16466491Y-11376388D01*
X16466491Y-11376388D02*
X16456967Y-11395436D01*
X16456967Y-11395436D02*
X16447444Y-11404960D01*
X16447444Y-11404960D02*
X16428396Y-11414484D01*
X16428396Y-11414484D02*
X16371253Y-11414484D01*
X16371253Y-11414484D02*
X16352206Y-11404960D01*
X16352206Y-11404960D02*
X16342682Y-11395436D01*
X16561729Y-11414484D02*
X16599825Y-11414484D01*
X16599825Y-11414484D02*
X16618872Y-11404960D01*
X16618872Y-11404960D02*
X16628396Y-11395436D01*
X16628396Y-11395436D02*
X16647444Y-11366865D01*
X16647444Y-11366865D02*
X16656967Y-11328769D01*
X16656967Y-11328769D02*
X16656967Y-11252579D01*
X16656967Y-11252579D02*
X16647444Y-11233531D01*
X16647444Y-11233531D02*
X16637920Y-11224008D01*
X16637920Y-11224008D02*
X16618872Y-11214484D01*
X16618872Y-11214484D02*
X16580777Y-11214484D01*
X16580777Y-11214484D02*
X16561729Y-11224008D01*
X16561729Y-11224008D02*
X16552206Y-11233531D01*
X16552206Y-11233531D02*
X16542682Y-11252579D01*
X16542682Y-11252579D02*
X16542682Y-11300198D01*
X16542682Y-11300198D02*
X16552206Y-11319246D01*
X16552206Y-11319246D02*
X16561729Y-11328769D01*
X16561729Y-11328769D02*
X16580777Y-11338293D01*
X16580777Y-11338293D02*
X16618872Y-11338293D01*
X16618872Y-11338293D02*
X16637920Y-11328769D01*
X16637920Y-11328769D02*
X16647444Y-11319246D01*
X16647444Y-11319246D02*
X16656967Y-11300198D01*
X16828396Y-11281150D02*
X16828396Y-11414484D01*
X16780777Y-11204960D02*
X16733158Y-11347817D01*
X16733158Y-11347817D02*
X16856968Y-11347817D01*
X16923634Y-11214484D02*
X16923634Y-11252579D01*
X16999825Y-11214484D02*
X16999825Y-11252579D01*
X17295063Y-11490674D02*
X17285539Y-11481150D01*
X17285539Y-11481150D02*
X17266491Y-11452579D01*
X17266491Y-11452579D02*
X17256968Y-11433531D01*
X17256968Y-11433531D02*
X17247444Y-11404960D01*
X17247444Y-11404960D02*
X17237920Y-11357341D01*
X17237920Y-11357341D02*
X17237920Y-11319246D01*
X17237920Y-11319246D02*
X17247444Y-11271627D01*
X17247444Y-11271627D02*
X17256968Y-11243055D01*
X17256968Y-11243055D02*
X17266491Y-11224008D01*
X17266491Y-11224008D02*
X17285539Y-11195436D01*
X17285539Y-11195436D02*
X17295063Y-11185912D01*
X17476015Y-11414484D02*
X17361730Y-11414484D01*
X17418872Y-11414484D02*
X17418872Y-11214484D01*
X17418872Y-11214484D02*
X17399825Y-11243055D01*
X17399825Y-11243055D02*
X17380777Y-11262103D01*
X17380777Y-11262103D02*
X17361730Y-11271627D01*
X17552206Y-11233531D02*
X17561730Y-11224008D01*
X17561730Y-11224008D02*
X17580777Y-11214484D01*
X17580777Y-11214484D02*
X17628396Y-11214484D01*
X17628396Y-11214484D02*
X17647444Y-11224008D01*
X17647444Y-11224008D02*
X17656968Y-11233531D01*
X17656968Y-11233531D02*
X17666491Y-11252579D01*
X17666491Y-11252579D02*
X17666491Y-11271627D01*
X17666491Y-11271627D02*
X17656968Y-11300198D01*
X17656968Y-11300198D02*
X17542682Y-11414484D01*
X17542682Y-11414484D02*
X17666491Y-11414484D01*
X17904587Y-11414484D02*
X17904587Y-11214484D01*
X17990301Y-11414484D02*
X17990301Y-11309722D01*
X17990301Y-11309722D02*
X17980777Y-11290674D01*
X17980777Y-11290674D02*
X17961730Y-11281150D01*
X17961730Y-11281150D02*
X17933158Y-11281150D01*
X17933158Y-11281150D02*
X17914111Y-11290674D01*
X17914111Y-11290674D02*
X17904587Y-11300198D01*
X18114111Y-11414484D02*
X18095063Y-11404960D01*
X18095063Y-11404960D02*
X18085539Y-11395436D01*
X18085539Y-11395436D02*
X18076015Y-11376388D01*
X18076015Y-11376388D02*
X18076015Y-11319246D01*
X18076015Y-11319246D02*
X18085539Y-11300198D01*
X18085539Y-11300198D02*
X18095063Y-11290674D01*
X18095063Y-11290674D02*
X18114111Y-11281150D01*
X18114111Y-11281150D02*
X18142682Y-11281150D01*
X18142682Y-11281150D02*
X18161730Y-11290674D01*
X18161730Y-11290674D02*
X18171253Y-11300198D01*
X18171253Y-11300198D02*
X18180777Y-11319246D01*
X18180777Y-11319246D02*
X18180777Y-11376388D01*
X18180777Y-11376388D02*
X18171253Y-11395436D01*
X18171253Y-11395436D02*
X18161730Y-11404960D01*
X18161730Y-11404960D02*
X18142682Y-11414484D01*
X18142682Y-11414484D02*
X18114111Y-11414484D01*
X18295063Y-11414484D02*
X18276015Y-11404960D01*
X18276015Y-11404960D02*
X18266492Y-11385912D01*
X18266492Y-11385912D02*
X18266492Y-11214484D01*
X18447444Y-11404960D02*
X18428396Y-11414484D01*
X18428396Y-11414484D02*
X18390301Y-11414484D01*
X18390301Y-11414484D02*
X18371253Y-11404960D01*
X18371253Y-11404960D02*
X18361730Y-11385912D01*
X18361730Y-11385912D02*
X18361730Y-11309722D01*
X18361730Y-11309722D02*
X18371253Y-11290674D01*
X18371253Y-11290674D02*
X18390301Y-11281150D01*
X18390301Y-11281150D02*
X18428396Y-11281150D01*
X18428396Y-11281150D02*
X18447444Y-11290674D01*
X18447444Y-11290674D02*
X18456968Y-11309722D01*
X18456968Y-11309722D02*
X18456968Y-11328769D01*
X18456968Y-11328769D02*
X18361730Y-11347817D01*
X18533158Y-11404960D02*
X18552206Y-11414484D01*
X18552206Y-11414484D02*
X18590301Y-11414484D01*
X18590301Y-11414484D02*
X18609349Y-11404960D01*
X18609349Y-11404960D02*
X18618873Y-11385912D01*
X18618873Y-11385912D02*
X18618873Y-11376388D01*
X18618873Y-11376388D02*
X18609349Y-11357341D01*
X18609349Y-11357341D02*
X18590301Y-11347817D01*
X18590301Y-11347817D02*
X18561730Y-11347817D01*
X18561730Y-11347817D02*
X18542682Y-11338293D01*
X18542682Y-11338293D02*
X18533158Y-11319246D01*
X18533158Y-11319246D02*
X18533158Y-11309722D01*
X18533158Y-11309722D02*
X18542682Y-11290674D01*
X18542682Y-11290674D02*
X18561730Y-11281150D01*
X18561730Y-11281150D02*
X18590301Y-11281150D01*
X18590301Y-11281150D02*
X18609349Y-11290674D01*
X18685539Y-11490674D02*
X18695063Y-11481150D01*
X18695063Y-11481150D02*
X18714111Y-11452579D01*
X18714111Y-11452579D02*
X18723634Y-11433531D01*
X18723634Y-11433531D02*
X18733158Y-11404960D01*
X18733158Y-11404960D02*
X18742682Y-11357341D01*
X18742682Y-11357341D02*
X18742682Y-11319246D01*
X18742682Y-11319246D02*
X18733158Y-11271627D01*
X18733158Y-11271627D02*
X18723634Y-11243055D01*
X18723634Y-11243055D02*
X18714111Y-11224008D01*
X18714111Y-11224008D02*
X18695063Y-11195436D01*
X18695063Y-11195436D02*
X18685539Y-11185912D01*
M02*
