%TF.GenerationSoftware,KiCad,Pcbnew,8.0.2*%
%TF.CreationDate,2024-08-03T15:43:08+02:00*%
%TF.ProjectId,ant control board v1.3,616e7420-636f-46e7-9472-6f6c20626f61,1.1*%
%TF.SameCoordinates,Original*%
%TF.FileFunction,Soldermask,Top*%
%TF.FilePolarity,Negative*%
%FSLAX46Y46*%
G04 Gerber Fmt 4.6, Leading zero omitted, Abs format (unit mm)*
G04 Created by KiCad (PCBNEW 8.0.2) date 2024-08-03 15:43:08*
%MOMM*%
%LPD*%
G01*
G04 APERTURE LIST*
G04 Aperture macros list*
%AMRoundRect*
0 Rectangle with rounded corners*
0 $1 Rounding radius*
0 $2 $3 $4 $5 $6 $7 $8 $9 X,Y pos of 4 corners*
0 Add a 4 corners polygon primitive as box body*
4,1,4,$2,$3,$4,$5,$6,$7,$8,$9,$2,$3,0*
0 Add four circle primitives for the rounded corners*
1,1,$1+$1,$2,$3*
1,1,$1+$1,$4,$5*
1,1,$1+$1,$6,$7*
1,1,$1+$1,$8,$9*
0 Add four rect primitives between the rounded corners*
20,1,$1+$1,$2,$3,$4,$5,0*
20,1,$1+$1,$4,$5,$6,$7,0*
20,1,$1+$1,$6,$7,$8,$9,0*
20,1,$1+$1,$8,$9,$2,$3,0*%
%AMRotRect*
0 Rectangle, with rotation*
0 The origin of the aperture is its center*
0 $1 length*
0 $2 width*
0 $3 Rotation angle, in degrees counterclockwise*
0 Add horizontal line*
21,1,$1,$2,0,0,$3*%
G04 Aperture macros list end*
%ADD10RotRect,1.400000X1.200000X225.000000*%
%ADD11RoundRect,0.200000X0.275000X-0.200000X0.275000X0.200000X-0.275000X0.200000X-0.275000X-0.200000X0*%
%ADD12RoundRect,0.200000X-0.275000X0.200000X-0.275000X-0.200000X0.275000X-0.200000X0.275000X0.200000X0*%
%ADD13RoundRect,0.225000X-0.017678X0.335876X-0.335876X0.017678X0.017678X-0.335876X0.335876X-0.017678X0*%
%ADD14RoundRect,0.225000X-0.250000X0.225000X-0.250000X-0.225000X0.250000X-0.225000X0.250000X0.225000X0*%
%ADD15RoundRect,0.225000X0.335876X0.017678X0.017678X0.335876X-0.335876X-0.017678X-0.017678X-0.335876X0*%
%ADD16C,1.000000*%
%ADD17RoundRect,0.100000X0.100000X-0.225000X0.100000X0.225000X-0.100000X0.225000X-0.100000X-0.225000X0*%
%ADD18RoundRect,0.225000X-0.335876X-0.017678X-0.017678X-0.335876X0.335876X0.017678X0.017678X0.335876X0*%
%ADD19C,2.000000*%
%ADD20RoundRect,0.200000X0.053033X-0.335876X0.335876X-0.053033X-0.053033X0.335876X-0.335876X0.053033X0*%
%ADD21RoundRect,0.200000X0.200000X0.275000X-0.200000X0.275000X-0.200000X-0.275000X0.200000X-0.275000X0*%
%ADD22R,1.300000X1.200000*%
%ADD23R,1.200000X0.900000*%
%ADD24RoundRect,0.225000X-0.225000X-0.250000X0.225000X-0.250000X0.225000X0.250000X-0.225000X0.250000X0*%
%ADD25RoundRect,0.075000X-0.415425X-0.521491X0.521491X0.415425X0.415425X0.521491X-0.521491X-0.415425X0*%
%ADD26RoundRect,0.075000X0.415425X-0.521491X0.521491X-0.415425X-0.415425X0.521491X-0.521491X0.415425X0*%
%ADD27RoundRect,0.150000X0.512500X0.150000X-0.512500X0.150000X-0.512500X-0.150000X0.512500X-0.150000X0*%
%ADD28C,0.650000*%
%ADD29R,0.600000X1.150000*%
%ADD30R,0.300000X1.150000*%
%ADD31RoundRect,0.250000X-0.250000X0.687500X-0.250000X-0.687500X0.250000X-0.687500X0.250000X0.687500X0*%
%ADD32O,1.250000X2.500000*%
%ADD33RoundRect,0.243750X0.150260X-0.494975X0.494975X-0.150260X-0.150260X0.494975X-0.494975X0.150260X0*%
G04 APERTURE END LIST*
D10*
%TO.C,Y1*%
X142975577Y-92550342D03*
X141419942Y-94105977D03*
X142622023Y-95308058D03*
X144177658Y-93752423D03*
%TD*%
D11*
%TO.C,R12*%
X141376400Y-83375000D03*
X141376400Y-81725000D03*
%TD*%
D12*
%TO.C,R3*%
X154940000Y-97142800D03*
X154940000Y-98792800D03*
%TD*%
D13*
%TO.C,C9*%
X149442808Y-95768792D03*
X148346792Y-96864808D03*
%TD*%
D12*
%TO.C,R2*%
X153416000Y-97142800D03*
X153416000Y-98792800D03*
%TD*%
D14*
%TO.C,C4*%
X156464000Y-97192800D03*
X156464000Y-98742800D03*
%TD*%
D13*
%TO.C,C8*%
X148376008Y-94701992D03*
X147279992Y-95798008D03*
%TD*%
D15*
%TO.C,C13*%
X145201008Y-89397208D03*
X144104992Y-88301192D03*
%TD*%
D16*
%TO.C,TP4*%
X138963400Y-89001600D03*
%TD*%
D17*
%TO.C,U8*%
X139939000Y-100518000D03*
X140589000Y-100518000D03*
X141239000Y-100518000D03*
X141239000Y-98618000D03*
X140589000Y-98618000D03*
X139939000Y-98618000D03*
%TD*%
D16*
%TO.C,TP5*%
X138912600Y-91084400D03*
%TD*%
D18*
%TO.C,C1*%
X144282792Y-91349192D03*
X145378808Y-92445208D03*
%TD*%
D19*
%TO.C,U4*%
X146812000Y-70358000D03*
X146812000Y-72898000D03*
X146812000Y-75438000D03*
X144272000Y-70358000D03*
X144272000Y-72898000D03*
X144272000Y-75438000D03*
X141732000Y-70358000D03*
X141732000Y-72898000D03*
X141732000Y-75438000D03*
X139192000Y-70358000D03*
X139192000Y-72898000D03*
X139192000Y-75438000D03*
%TD*%
D15*
%TO.C,C12*%
X146267808Y-88330408D03*
X145171792Y-87234392D03*
%TD*%
D11*
%TO.C,R13*%
X138430000Y-98919800D03*
X138430000Y-97269800D03*
%TD*%
D20*
%TO.C,R4*%
X144806237Y-95426963D03*
X145972963Y-94260237D03*
%TD*%
D16*
%TO.C,TP2*%
X155448000Y-83058000D03*
%TD*%
D15*
%TO.C,C2*%
X141314808Y-96509208D03*
X140218792Y-95413192D03*
%TD*%
D21*
%TO.C,R1*%
X155511000Y-95681800D03*
X153861000Y-95681800D03*
%TD*%
D13*
%TO.C,C16*%
X150509608Y-96835592D03*
X149413592Y-97931608D03*
%TD*%
%TO.C,C15*%
X151576408Y-97902392D03*
X150480392Y-98998408D03*
%TD*%
D22*
%TO.C,SW1*%
X140094000Y-86765000D03*
X140094000Y-83415000D03*
D23*
X138544000Y-87390000D03*
X138544000Y-82790000D03*
%TD*%
D14*
%TO.C,C31*%
X142849600Y-83502200D03*
X142849600Y-85052200D03*
%TD*%
D13*
%TO.C,C10*%
X157418408Y-92263592D03*
X156322392Y-93359608D03*
%TD*%
D22*
%TO.C,SW2*%
X140094000Y-81304000D03*
X140094000Y-77954000D03*
D23*
X138544000Y-81929000D03*
X138544000Y-77329000D03*
%TD*%
D20*
%TO.C,R5*%
X141047037Y-91820163D03*
X142213763Y-90653437D03*
%TD*%
D15*
%TO.C,C11*%
X154091008Y-81828008D03*
X152994992Y-80731992D03*
%TD*%
D16*
%TO.C,TP3*%
X152146000Y-82423000D03*
%TD*%
D17*
%TO.C,U9*%
X146035000Y-100645000D03*
X146685000Y-100645000D03*
X147335000Y-100645000D03*
X147335000Y-98745000D03*
X146685000Y-98745000D03*
X146035000Y-98745000D03*
%TD*%
D16*
%TO.C,TP1*%
X146050000Y-97028000D03*
%TD*%
D24*
%TO.C,C3*%
X146037000Y-79044800D03*
X147587000Y-79044800D03*
%TD*%
D25*
%TO.C,U2*%
X147512124Y-89898788D03*
X147865678Y-90252342D03*
X148219231Y-90605895D03*
X148572785Y-90959449D03*
X148926338Y-91313002D03*
X149279891Y-91666555D03*
X149633445Y-92020109D03*
X149986998Y-92373662D03*
X150340551Y-92727215D03*
X150694105Y-93080769D03*
X151047658Y-93434322D03*
X151401212Y-93787876D03*
D26*
X153398788Y-93787876D03*
X153752342Y-93434322D03*
X154105895Y-93080769D03*
X154459449Y-92727215D03*
X154813002Y-92373662D03*
X155166555Y-92020109D03*
X155520109Y-91666555D03*
X155873662Y-91313002D03*
X156227215Y-90959449D03*
X156580769Y-90605895D03*
X156934322Y-90252342D03*
X157287876Y-89898788D03*
D25*
X157287876Y-87901212D03*
X156934322Y-87547658D03*
X156580769Y-87194105D03*
X156227215Y-86840551D03*
X155873662Y-86486998D03*
X155520109Y-86133445D03*
X155166555Y-85779891D03*
X154813002Y-85426338D03*
X154459449Y-85072785D03*
X154105895Y-84719231D03*
X153752342Y-84365678D03*
X153398788Y-84012124D03*
D26*
X151401212Y-84012124D03*
X151047658Y-84365678D03*
X150694105Y-84719231D03*
X150340551Y-85072785D03*
X149986998Y-85426338D03*
X149633445Y-85779891D03*
X149279891Y-86133445D03*
X148926338Y-86486998D03*
X148572785Y-86840551D03*
X148219231Y-87194105D03*
X147865678Y-87547658D03*
X147512124Y-87901212D03*
%TD*%
D27*
%TO.C,U10*%
X146781100Y-85342900D03*
X146781100Y-84392900D03*
X146781100Y-83442900D03*
X144506100Y-83442900D03*
X144506100Y-85342900D03*
%TD*%
D28*
%TO.C,J4*%
X157183000Y-74035500D03*
X151403000Y-74035500D03*
D29*
X157493000Y-75110500D03*
X156693000Y-75110500D03*
D30*
X156043000Y-75110500D03*
X155543000Y-75110500D03*
X155043000Y-75110500D03*
X154543000Y-75110500D03*
X154043000Y-75110500D03*
X153543000Y-75110500D03*
X153043000Y-75110500D03*
X152543000Y-75110500D03*
D29*
X151893000Y-75110500D03*
X151093000Y-75110500D03*
D31*
X159443000Y-74555500D03*
X159443000Y-70305500D03*
D32*
X158613000Y-74535500D03*
X158613000Y-70355500D03*
X149973000Y-74535500D03*
X149973000Y-70355500D03*
D31*
X149143000Y-74505500D03*
X149143000Y-70355500D03*
%TD*%
D33*
%TO.C,D1*%
X138681487Y-94185713D03*
X140007313Y-92859887D03*
%TD*%
M02*
