%TF.GenerationSoftware,KiCad,Pcbnew,8.0.2*%
%TF.CreationDate,2024-08-03T15:43:08+02:00*%
%TF.ProjectId,ant control board v1.3,616e7420-636f-46e7-9472-6f6c20626f61,1.1*%
%TF.SameCoordinates,Original*%
%TF.FileFunction,Paste,Bot*%
%TF.FilePolarity,Positive*%
%FSLAX46Y46*%
G04 Gerber Fmt 4.6, Leading zero omitted, Abs format (unit mm)*
G04 Created by KiCad (PCBNEW 8.0.2) date 2024-08-03 15:43:08*
%MOMM*%
%LPD*%
G01*
G04 APERTURE LIST*
G04 Aperture macros list*
%AMRoundRect*
0 Rectangle with rounded corners*
0 $1 Rounding radius*
0 $2 $3 $4 $5 $6 $7 $8 $9 X,Y pos of 4 corners*
0 Add a 4 corners polygon primitive as box body*
4,1,4,$2,$3,$4,$5,$6,$7,$8,$9,$2,$3,0*
0 Add four circle primitives for the rounded corners*
1,1,$1+$1,$2,$3*
1,1,$1+$1,$4,$5*
1,1,$1+$1,$6,$7*
1,1,$1+$1,$8,$9*
0 Add four rect primitives between the rounded corners*
20,1,$1+$1,$2,$3,$4,$5,0*
20,1,$1+$1,$4,$5,$6,$7,0*
20,1,$1+$1,$6,$7,$8,$9,0*
20,1,$1+$1,$8,$9,$2,$3,0*%
G04 Aperture macros list end*
%ADD10RoundRect,0.225000X-0.225000X-0.250000X0.225000X-0.250000X0.225000X0.250000X-0.225000X0.250000X0*%
%ADD11RoundRect,0.225000X-0.250000X0.225000X-0.250000X-0.225000X0.250000X-0.225000X0.250000X0.225000X0*%
%ADD12RoundRect,0.500000X-1.500000X0.500000X-1.500000X-0.500000X1.500000X-0.500000X1.500000X0.500000X0*%
%ADD13RoundRect,0.200000X-0.275000X0.200000X-0.275000X-0.200000X0.275000X-0.200000X0.275000X0.200000X0*%
%ADD14RoundRect,0.150000X-0.512500X-0.150000X0.512500X-0.150000X0.512500X0.150000X-0.512500X0.150000X0*%
%ADD15R,0.750000X0.650000*%
%ADD16RoundRect,0.062500X0.187500X0.062500X-0.187500X0.062500X-0.187500X-0.062500X0.187500X-0.062500X0*%
%ADD17RoundRect,0.200000X0.200000X0.275000X-0.200000X0.275000X-0.200000X-0.275000X0.200000X-0.275000X0*%
%ADD18RoundRect,0.200000X0.275000X-0.200000X0.275000X0.200000X-0.275000X0.200000X-0.275000X-0.200000X0*%
%ADD19RoundRect,0.225000X0.225000X0.250000X-0.225000X0.250000X-0.225000X-0.250000X0.225000X-0.250000X0*%
%ADD20RoundRect,0.150000X-0.150000X0.512500X-0.150000X-0.512500X0.150000X-0.512500X0.150000X0.512500X0*%
%ADD21RoundRect,0.225000X0.250000X-0.225000X0.250000X0.225000X-0.250000X0.225000X-0.250000X-0.225000X0*%
%ADD22RoundRect,0.200000X-0.200000X-0.275000X0.200000X-0.275000X0.200000X0.275000X-0.200000X0.275000X0*%
%ADD23RoundRect,0.225000X-0.225000X-0.375000X0.225000X-0.375000X0.225000X0.375000X-0.225000X0.375000X0*%
G04 APERTURE END LIST*
D10*
%TO.C,C18*%
X142608000Y-83312000D03*
X144158000Y-83312000D03*
%TD*%
D11*
%TO.C,C21*%
X149479000Y-90842800D03*
X149479000Y-92392800D03*
%TD*%
D12*
%TO.C,L1*%
X139573000Y-80772000D03*
X139573000Y-84328000D03*
%TD*%
D11*
%TO.C,C22*%
X143843000Y-91107000D03*
X143843000Y-92657000D03*
%TD*%
D13*
%TO.C,R8*%
X155041600Y-74994000D03*
X155041600Y-76644000D03*
%TD*%
D14*
%TO.C,U3*%
X145499500Y-92832000D03*
X145499500Y-90932000D03*
X147774500Y-91882000D03*
%TD*%
D11*
%TO.C,C20*%
X150241000Y-78600000D03*
X150241000Y-80150000D03*
%TD*%
D15*
%TO.C,U7*%
X154930500Y-87787500D03*
X154930500Y-86987500D03*
D16*
X155880500Y-86637500D03*
X155880500Y-87137500D03*
X155880500Y-87637500D03*
X155880500Y-88137500D03*
X153980500Y-88137500D03*
X153980500Y-87637500D03*
X153980500Y-87137500D03*
X153980500Y-86637500D03*
%TD*%
D11*
%TO.C,C7*%
X146177000Y-79997000D03*
X146177000Y-81547000D03*
%TD*%
D17*
%TO.C,R7*%
X147955000Y-87884000D03*
X146305000Y-87884000D03*
%TD*%
D18*
%TO.C,R11*%
X141224000Y-97243400D03*
X141224000Y-95593400D03*
%TD*%
D11*
%TO.C,C19*%
X151765000Y-78600000D03*
X151765000Y-80150000D03*
%TD*%
%TO.C,C23*%
X141224000Y-86372400D03*
X141224000Y-87922400D03*
%TD*%
D10*
%TO.C,C17*%
X142608000Y-84836000D03*
X144158000Y-84836000D03*
%TD*%
D19*
%TO.C,C28*%
X155959500Y-98055500D03*
X154409500Y-98055500D03*
%TD*%
D10*
%TO.C,C26*%
X154409500Y-90181500D03*
X155959500Y-90181500D03*
%TD*%
D11*
%TO.C,C24*%
X141224000Y-92595400D03*
X141224000Y-94145400D03*
%TD*%
D10*
%TO.C,C27*%
X154409500Y-83831500D03*
X155959500Y-83831500D03*
%TD*%
D20*
%TO.C,U1*%
X145989000Y-83444500D03*
X146939000Y-83444500D03*
X147889000Y-83444500D03*
X147889000Y-85719500D03*
X146939000Y-85719500D03*
X145989000Y-85719500D03*
%TD*%
D21*
%TO.C,C14*%
X144145000Y-87897000D03*
X144145000Y-86347000D03*
%TD*%
D22*
%TO.C,R6*%
X146305000Y-89408000D03*
X147955000Y-89408000D03*
%TD*%
D10*
%TO.C,C25*%
X154409500Y-96531500D03*
X155959500Y-96531500D03*
%TD*%
D15*
%TO.C,U5*%
X154930500Y-100487500D03*
X154930500Y-99687500D03*
D16*
X155880500Y-99337500D03*
X155880500Y-99837500D03*
X155880500Y-100337500D03*
X155880500Y-100837500D03*
X153980500Y-100837500D03*
X153980500Y-100337500D03*
X153980500Y-99837500D03*
X153980500Y-99337500D03*
%TD*%
D18*
%TO.C,R10*%
X141224000Y-91020400D03*
X141224000Y-89370400D03*
%TD*%
D19*
%TO.C,C30*%
X155959500Y-85355500D03*
X154409500Y-85355500D03*
%TD*%
D11*
%TO.C,C5*%
X143129000Y-79997000D03*
X143129000Y-81547000D03*
%TD*%
%TO.C,C6*%
X144653000Y-79997000D03*
X144653000Y-81547000D03*
%TD*%
D13*
%TO.C,R9*%
X153568400Y-74994000D03*
X153568400Y-76644000D03*
%TD*%
D19*
%TO.C,C29*%
X155959500Y-91705500D03*
X154409500Y-91705500D03*
%TD*%
D15*
%TO.C,U6*%
X154930500Y-94137500D03*
X154930500Y-93337500D03*
D16*
X155880500Y-92987500D03*
X155880500Y-93487500D03*
X155880500Y-93987500D03*
X155880500Y-94487500D03*
X153980500Y-94487500D03*
X153980500Y-93987500D03*
X153980500Y-93487500D03*
X153980500Y-92987500D03*
%TD*%
D23*
%TO.C,D2*%
X153213800Y-78613000D03*
X156513800Y-78613000D03*
%TD*%
M02*
