%TF.GenerationSoftware,KiCad,Pcbnew,9.0.2*%
%TF.CreationDate,2025-06-25T14:47:54+02:00*%
%TF.ProjectId,ant control board v2,616e7420-636f-46e7-9472-6f6c20626f61,1.0*%
%TF.SameCoordinates,Original*%
%TF.FileFunction,Copper,L1,Top*%
%TF.FilePolarity,Positive*%
%FSLAX46Y46*%
G04 Gerber Fmt 4.6, Leading zero omitted, Abs format (unit mm)*
G04 Created by KiCad (PCBNEW 9.0.2) date 2025-06-25 14:47:54*
%MOMM*%
%LPD*%
G01*
G04 APERTURE LIST*
G04 Aperture macros list*
%AMRoundRect*
0 Rectangle with rounded corners*
0 $1 Rounding radius*
0 $2 $3 $4 $5 $6 $7 $8 $9 X,Y pos of 4 corners*
0 Add a 4 corners polygon primitive as box body*
4,1,4,$2,$3,$4,$5,$6,$7,$8,$9,$2,$3,0*
0 Add four circle primitives for the rounded corners*
1,1,$1+$1,$2,$3*
1,1,$1+$1,$4,$5*
1,1,$1+$1,$6,$7*
1,1,$1+$1,$8,$9*
0 Add four rect primitives between the rounded corners*
20,1,$1+$1,$2,$3,$4,$5,0*
20,1,$1+$1,$4,$5,$6,$7,0*
20,1,$1+$1,$6,$7,$8,$9,0*
20,1,$1+$1,$8,$9,$2,$3,0*%
%AMFreePoly0*
4,1,9,3.862500,-0.866500,0.737500,-0.866500,0.737500,-0.450000,-0.737500,-0.450000,-0.737500,0.450000,0.737500,0.450000,0.737500,0.866500,3.862500,0.866500,3.862500,-0.866500,3.862500,-0.866500,$1*%
G04 Aperture macros list end*
%TA.AperFunction,ComponentPad*%
%ADD10R,1.500000X1.500000*%
%TD*%
%TA.AperFunction,ComponentPad*%
%ADD11R,1.700000X1.700000*%
%TD*%
%TA.AperFunction,ComponentPad*%
%ADD12C,1.700000*%
%TD*%
%TA.AperFunction,SMDPad,CuDef*%
%ADD13RoundRect,0.225000X0.225000X0.250000X-0.225000X0.250000X-0.225000X-0.250000X0.225000X-0.250000X0*%
%TD*%
%TA.AperFunction,ComponentPad*%
%ADD14C,0.700000*%
%TD*%
%TA.AperFunction,ComponentPad*%
%ADD15C,4.400000*%
%TD*%
%TA.AperFunction,SMDPad,CuDef*%
%ADD16RoundRect,0.225000X-0.250000X0.225000X-0.250000X-0.225000X0.250000X-0.225000X0.250000X0.225000X0*%
%TD*%
%TA.AperFunction,SMDPad,CuDef*%
%ADD17RoundRect,0.062500X0.062500X-0.187500X0.062500X0.187500X-0.062500X0.187500X-0.062500X-0.187500X0*%
%TD*%
%TA.AperFunction,SMDPad,CuDef*%
%ADD18R,1.600000X0.900000*%
%TD*%
%TA.AperFunction,SMDPad,CuDef*%
%ADD19RoundRect,0.087500X-0.087500X0.225000X-0.087500X-0.225000X0.087500X-0.225000X0.087500X0.225000X0*%
%TD*%
%TA.AperFunction,SMDPad,CuDef*%
%ADD20RoundRect,0.087500X-0.225000X0.087500X-0.225000X-0.087500X0.225000X-0.087500X0.225000X0.087500X0*%
%TD*%
%TA.AperFunction,SMDPad,CuDef*%
%ADD21RoundRect,0.150000X0.512500X0.150000X-0.512500X0.150000X-0.512500X-0.150000X0.512500X-0.150000X0*%
%TD*%
%TA.AperFunction,SMDPad,CuDef*%
%ADD22RoundRect,0.225000X0.250000X-0.225000X0.250000X0.225000X-0.250000X0.225000X-0.250000X-0.225000X0*%
%TD*%
%TA.AperFunction,SMDPad,CuDef*%
%ADD23RoundRect,0.075000X-0.662500X-0.075000X0.662500X-0.075000X0.662500X0.075000X-0.662500X0.075000X0*%
%TD*%
%TA.AperFunction,SMDPad,CuDef*%
%ADD24RoundRect,0.075000X-0.075000X-0.662500X0.075000X-0.662500X0.075000X0.662500X-0.075000X0.662500X0*%
%TD*%
%TA.AperFunction,SMDPad,CuDef*%
%ADD25R,2.000000X1.000000*%
%TD*%
%TA.AperFunction,SMDPad,CuDef*%
%ADD26RoundRect,0.200000X-0.200000X-0.275000X0.200000X-0.275000X0.200000X0.275000X-0.200000X0.275000X0*%
%TD*%
%TA.AperFunction,SMDPad,CuDef*%
%ADD27RoundRect,0.225000X0.375000X-0.225000X0.375000X0.225000X-0.375000X0.225000X-0.375000X-0.225000X0*%
%TD*%
%TA.AperFunction,SMDPad,CuDef*%
%ADD28RoundRect,0.200000X-0.275000X0.200000X-0.275000X-0.200000X0.275000X-0.200000X0.275000X0.200000X0*%
%TD*%
%TA.AperFunction,ComponentPad*%
%ADD29C,2.000000*%
%TD*%
%TA.AperFunction,SMDPad,CuDef*%
%ADD30RoundRect,0.200000X0.275000X-0.200000X0.275000X0.200000X-0.275000X0.200000X-0.275000X-0.200000X0*%
%TD*%
%TA.AperFunction,SMDPad,CuDef*%
%ADD31R,1.150000X0.600000*%
%TD*%
%TA.AperFunction,SMDPad,CuDef*%
%ADD32R,1.150000X0.300000*%
%TD*%
%TA.AperFunction,SMDPad,CuDef*%
%ADD33RoundRect,0.250000X0.687500X0.250000X-0.687500X0.250000X-0.687500X-0.250000X0.687500X-0.250000X0*%
%TD*%
%TA.AperFunction,ComponentPad*%
%ADD34O,2.500000X1.250000*%
%TD*%
%TA.AperFunction,SMDPad,CuDef*%
%ADD35RoundRect,0.225000X0.225000X-0.425000X0.225000X0.425000X-0.225000X0.425000X-0.225000X-0.425000X0*%
%TD*%
%TA.AperFunction,SMDPad,CuDef*%
%ADD36FreePoly0,90.000000*%
%TD*%
%TA.AperFunction,SMDPad,CuDef*%
%ADD37RoundRect,0.243750X-0.456250X0.243750X-0.456250X-0.243750X0.456250X-0.243750X0.456250X0.243750X0*%
%TD*%
%TA.AperFunction,SMDPad,CuDef*%
%ADD38R,1.500000X1.500000*%
%TD*%
%TA.AperFunction,ViaPad*%
%ADD39C,0.500000*%
%TD*%
%TA.AperFunction,ViaPad*%
%ADD40C,0.600000*%
%TD*%
%TA.AperFunction,Conductor*%
%ADD41C,0.200000*%
%TD*%
%TA.AperFunction,Conductor*%
%ADD42C,0.500000*%
%TD*%
G04 APERTURE END LIST*
D10*
%TO.P,TP9,1,1*%
%TO.N,/MCU and RX/SERVO1*%
X160250000Y-121000000D03*
%TD*%
%TO.P,TP2,1,1*%
%TO.N,GND*%
X131000000Y-100000000D03*
%TD*%
D11*
%TO.P,J5,1,Pin_1*%
%TO.N,/DC Motors/M3+*%
X147725000Y-125000000D03*
D12*
%TO.P,J5,2,Pin_2*%
%TO.N,/DC Motors/M3-*%
X150265000Y-125000000D03*
%TD*%
D13*
%TO.P,C7,1*%
%TO.N,+3V3*%
X140775000Y-116000000D03*
%TO.P,C7,2*%
%TO.N,GND*%
X139225000Y-116000000D03*
%TD*%
%TO.P,C13,1*%
%TO.N,+3V3*%
X126775000Y-87000000D03*
%TO.P,C13,2*%
%TO.N,GND*%
X125225000Y-87000000D03*
%TD*%
D14*
%TO.P,H3,1*%
%TO.N,N/C*%
X177350000Y-126000000D03*
X177833274Y-124833274D03*
X177833274Y-127166726D03*
X179000000Y-124350000D03*
D15*
X179000000Y-126000000D03*
D14*
X179000000Y-127650000D03*
X180166726Y-124833274D03*
X180166726Y-127166726D03*
X180650000Y-126000000D03*
%TD*%
D16*
%TO.P,C1,1*%
%TO.N,+BATT*%
X127000000Y-95725000D03*
%TO.P,C1,2*%
%TO.N,GND*%
X127000000Y-97275000D03*
%TD*%
D11*
%TO.P,J3,1,Pin_1*%
%TO.N,/DC Motors/M1+*%
X131725000Y-125000000D03*
D12*
%TO.P,J3,2,Pin_2*%
%TO.N,/DC Motors/M1-*%
X134265000Y-125000000D03*
%TD*%
D17*
%TO.P,U2,1,VM*%
%TO.N,+BATT*%
X133250000Y-119450000D03*
%TO.P,U2,2,OUT1*%
%TO.N,/DC Motors/M1+*%
X133750000Y-119450000D03*
%TO.P,U2,3,OUT2*%
%TO.N,/DC Motors/M1-*%
X134250000Y-119450000D03*
%TO.P,U2,4,GND*%
%TO.N,GND*%
X134750000Y-119450000D03*
%TO.P,U2,5,IN2*%
%TO.N,/DC Motors/PWM_M1_B*%
X134750000Y-117550000D03*
%TO.P,U2,6,IN1*%
%TO.N,/DC Motors/PWM_M1_F*%
X134250000Y-117550000D03*
%TO.P,U2,7,~{SLEEP}*%
%TO.N,+3V3*%
X133750000Y-117550000D03*
%TO.P,U2,8,VCC*%
X133250000Y-117550000D03*
D18*
%TO.P,U2,9,GND*%
%TO.N,GND*%
X134000000Y-118500000D03*
%TD*%
D13*
%TO.P,C15,1*%
%TO.N,/MCU and RX/RESET*%
X142775000Y-99000000D03*
%TO.P,C15,2*%
%TO.N,GND*%
X141225000Y-99000000D03*
%TD*%
D10*
%TO.P,TP10,1,1*%
%TO.N,/MCU and RX/SERVO2*%
X169000000Y-121000000D03*
%TD*%
D11*
%TO.P,J10,1,Pin_1*%
%TO.N,/MCU and RX/UART2_RX*%
X129200000Y-73475000D03*
D12*
%TO.P,J10,2,Pin_2*%
%TO.N,/MCU and RX/UART2_TX*%
X131740000Y-73475000D03*
%TO.P,J10,3,Pin_3*%
%TO.N,+3V3*%
X134280000Y-73475000D03*
%TO.P,J10,4,Pin_4*%
%TO.N,GND*%
X136820000Y-73475000D03*
%TD*%
D19*
%TO.P,U5,1,SDO/SA0*%
%TO.N,GND*%
X125750000Y-82837500D03*
%TO.P,U5,2,SDX*%
X125250000Y-82837500D03*
%TO.P,U5,3,SCX*%
X124750000Y-82837500D03*
%TO.P,U5,4,INT1*%
%TO.N,unconnected-(U5-INT1-Pad4)*%
X124250000Y-82837500D03*
D20*
%TO.P,U5,5,VDDIO*%
%TO.N,+3V3*%
X124087500Y-83500000D03*
%TO.P,U5,6,GND*%
%TO.N,GND*%
X124087500Y-84000000D03*
%TO.P,U5,7,GND*%
X124087500Y-84500000D03*
D19*
%TO.P,U5,8,VDD*%
%TO.N,+3V3*%
X124250000Y-85162500D03*
%TO.P,U5,9,INT2*%
%TO.N,unconnected-(U5-INT2-Pad9)*%
X124750000Y-85162500D03*
%TO.P,U5,10,NC*%
%TO.N,unconnected-(U5-NC-Pad10)*%
X125250000Y-85162500D03*
%TO.P,U5,11,NC*%
%TO.N,unconnected-(U5-NC-Pad11)*%
X125750000Y-85162500D03*
D20*
%TO.P,U5,12,CS*%
%TO.N,+3V3*%
X125912500Y-84500000D03*
%TO.P,U5,13,SCL*%
%TO.N,/MCU and RX/I2C1_SCL*%
X125912500Y-84000000D03*
%TO.P,U5,14,SDA*%
%TO.N,/MCU and RX/I2C1_SDA*%
X125912500Y-83500000D03*
%TD*%
D11*
%TO.P,J8,1,Pin_1*%
%TO.N,+3V3*%
X121000000Y-115460000D03*
D12*
%TO.P,J8,2,Pin_2*%
%TO.N,Net-(J8-Pin_2)*%
X121000000Y-118000000D03*
%TO.P,J8,3,Pin_3*%
%TO.N,GND*%
X121000000Y-120540000D03*
%TD*%
D16*
%TO.P,C2,1*%
%TO.N,+BATT*%
X128500000Y-95725000D03*
%TO.P,C2,2*%
%TO.N,GND*%
X128500000Y-97275000D03*
%TD*%
D21*
%TO.P,U8,1,SCL*%
%TO.N,/MCU and RX/I2C1_SCL*%
X125637500Y-80450000D03*
%TO.P,U8,2,GND*%
%TO.N,GND*%
X125637500Y-79500000D03*
%TO.P,U8,3,SDA*%
%TO.N,/MCU and RX/I2C1_SDA*%
X125637500Y-78550000D03*
%TO.P,U8,4,VCC*%
%TO.N,+3V3*%
X123362500Y-78550000D03*
%TO.P,U8,5,WP*%
%TO.N,GND*%
X123362500Y-80450000D03*
%TD*%
D22*
%TO.P,C16,1*%
%TO.N,+3V3*%
X141500000Y-102275000D03*
%TO.P,C16,2*%
%TO.N,GND*%
X141500000Y-100725000D03*
%TD*%
D11*
%TO.P,J4,1,Pin_1*%
%TO.N,/DC Motors/M2+*%
X139725000Y-125000000D03*
D12*
%TO.P,J4,2,Pin_2*%
%TO.N,/DC Motors/M2-*%
X142265000Y-125000000D03*
%TD*%
D13*
%TO.P,C5,1*%
%TO.N,+3V3*%
X132775000Y-116000000D03*
%TO.P,C5,2*%
%TO.N,GND*%
X131225000Y-116000000D03*
%TD*%
D11*
%TO.P,J11,1,Pin_1*%
%TO.N,+3V3*%
X163420000Y-73500000D03*
D12*
%TO.P,J11,2,Pin_2*%
%TO.N,/MCU and RX/SWCLK*%
X165960000Y-73500000D03*
%TO.P,J11,3,Pin_3*%
%TO.N,GND*%
X168500000Y-73500000D03*
%TO.P,J11,4,Pin_4*%
%TO.N,/MCU and RX/SWDIO*%
X171040000Y-73500000D03*
%TO.P,J11,5,Pin_5*%
%TO.N,/MCU and RX/RESET*%
X173580000Y-73500000D03*
%TD*%
D23*
%TO.P,U6,1,VBAT*%
%TO.N,+3V3*%
X145837500Y-97250000D03*
%TO.P,U6,2,PC13*%
%TO.N,unconnected-(U6-PC13-Pad2)*%
X145837500Y-97750000D03*
%TO.P,U6,3,PC14*%
%TO.N,/MCU and RX/STATUS_LED*%
X145837500Y-98250000D03*
%TO.P,U6,4,PC15*%
%TO.N,unconnected-(U6-PC15-Pad4)*%
X145837500Y-98750000D03*
%TO.P,U6,5,PF0*%
%TO.N,/MCU and RX/DIGITAL_AUX1*%
X145837500Y-99250000D03*
%TO.P,U6,6,PF1*%
%TO.N,/MCU and RX/DIGITAL_AUX2*%
X145837500Y-99750000D03*
%TO.P,U6,7,NRST*%
%TO.N,/MCU and RX/RESET*%
X145837500Y-100250000D03*
%TO.P,U6,8,VSSA*%
%TO.N,GND*%
X145837500Y-100750000D03*
%TO.P,U6,9,VDDA*%
%TO.N,+3V3*%
X145837500Y-101250000D03*
%TO.P,U6,10,ADC_IN0*%
%TO.N,/MCU and RX/VBAT*%
X145837500Y-101750000D03*
%TO.P,U6,11,ADC_IN1*%
%TO.N,/MCU and RX/ADC1*%
X145837500Y-102250000D03*
%TO.P,U6,12,PA2*%
%TO.N,/DC Motors/PWM_M1_F*%
X145837500Y-102750000D03*
D24*
%TO.P,U6,13,PA3*%
%TO.N,/DC Motors/PWM_M1_B*%
X147250000Y-104162500D03*
%TO.P,U6,14,PA4*%
%TO.N,/DC Motors/PWM_M2_F*%
X147750000Y-104162500D03*
%TO.P,U6,15,PA5*%
%TO.N,/DC Motors/PWM_M2_B*%
X148250000Y-104162500D03*
%TO.P,U6,16,PA6*%
%TO.N,/DC Motors/PWM_M3_F*%
X148750000Y-104162500D03*
%TO.P,U6,17,PA7*%
%TO.N,/DC Motors/PWM_M3_B*%
X149250000Y-104162500D03*
%TO.P,U6,18,PB0*%
%TO.N,unconnected-(U6-PB0-Pad18)*%
X149750000Y-104162500D03*
%TO.P,U6,19,PB1*%
%TO.N,unconnected-(U6-PB1-Pad19)*%
X150250000Y-104162500D03*
%TO.P,U6,20,PB2*%
%TO.N,unconnected-(U6-PB2-Pad20)*%
X150750000Y-104162500D03*
%TO.P,U6,21,TIM2_CH3*%
%TO.N,/MCU and RX/SERVO1*%
X151250000Y-104162500D03*
%TO.P,U6,22,TIM2_CH4*%
%TO.N,/MCU and RX/SERVO2*%
X151750000Y-104162500D03*
%TO.P,U6,23,VSS*%
%TO.N,GND*%
X152250000Y-104162500D03*
%TO.P,U6,24,VDD*%
%TO.N,+3V3*%
X152750000Y-104162500D03*
D23*
%TO.P,U6,25,SPI2_NSS*%
%TO.N,/MCU and RX/SPI2_NSS*%
X154162500Y-102750000D03*
%TO.P,U6,26,SPI2_SCK*%
%TO.N,/MCU and RX/SPI2_SCK*%
X154162500Y-102250000D03*
%TO.P,U6,27,SPI2_MISO*%
%TO.N,/MCU and RX/SPI2_MISO*%
X154162500Y-101750000D03*
%TO.P,U6,28,SPI2_MOSI*%
%TO.N,/MCU and RX/SPI2_MOSI*%
X154162500Y-101250000D03*
%TO.P,U6,29,PA8*%
%TO.N,/MCU and RX/NRF24L01_CE*%
X154162500Y-100750000D03*
%TO.P,U6,30,PA9*%
%TO.N,/MCU and RX/NRF24L01_IRQ*%
X154162500Y-100250000D03*
%TO.P,U6,31,PA10*%
%TO.N,unconnected-(U6-PA10-Pad31)*%
X154162500Y-99750000D03*
%TO.P,U6,32,USB_DM*%
%TO.N,/MCU and RX/USB_D-*%
X154162500Y-99250000D03*
%TO.P,U6,33,USB_DP*%
%TO.N,/MCU and RX/USB_D+*%
X154162500Y-98750000D03*
%TO.P,U6,34,SYS_SWDIO*%
%TO.N,/MCU and RX/SWDIO*%
X154162500Y-98250000D03*
%TO.P,U6,35,VSS*%
%TO.N,GND*%
X154162500Y-97750000D03*
%TO.P,U6,36,VDDIO2*%
%TO.N,+3V3*%
X154162500Y-97250000D03*
D24*
%TO.P,U6,37,SYS_SWCLK*%
%TO.N,/MCU and RX/SWCLK*%
X152750000Y-95837500D03*
%TO.P,U6,38,PA15*%
%TO.N,/MCU and RX/CH4*%
X152250000Y-95837500D03*
%TO.P,U6,39,PB3*%
%TO.N,/MCU and RX/CH3*%
X151750000Y-95837500D03*
%TO.P,U6,40,PB4*%
%TO.N,/MCU and RX/CH2*%
X151250000Y-95837500D03*
%TO.P,U6,41,PB5*%
%TO.N,/MCU and RX/CH1_PPM*%
X150750000Y-95837500D03*
%TO.P,U6,42,USART1_TX*%
%TO.N,/MCU and RX/UART2_TX*%
X150250000Y-95837500D03*
%TO.P,U6,43,USART1_RX*%
%TO.N,/MCU and RX/UART2_RX*%
X149750000Y-95837500D03*
%TO.P,U6,44,BOOT0*%
%TO.N,/MCU and RX/BOOT0*%
X149250000Y-95837500D03*
%TO.P,U6,45,I2C1_SCL*%
%TO.N,/MCU and RX/I2C1_SCL*%
X148750000Y-95837500D03*
%TO.P,U6,46,I2C1_SDA*%
%TO.N,/MCU and RX/I2C1_SDA*%
X148250000Y-95837500D03*
%TO.P,U6,47,VSS*%
%TO.N,GND*%
X147750000Y-95837500D03*
%TO.P,U6,48,VDD*%
%TO.N,+3V3*%
X147250000Y-95837500D03*
%TD*%
D22*
%TO.P,C8,1*%
%TO.N,+BATT*%
X139500000Y-119275000D03*
%TO.P,C8,2*%
%TO.N,GND*%
X139500000Y-117725000D03*
%TD*%
%TO.P,C6,1*%
%TO.N,+BATT*%
X131500000Y-119275000D03*
%TO.P,C6,2*%
%TO.N,GND*%
X131500000Y-117725000D03*
%TD*%
D14*
%TO.P,H1,1*%
%TO.N,N/C*%
X118350000Y-72000000D03*
X118833274Y-70833274D03*
X118833274Y-73166726D03*
X120000000Y-70350000D03*
D15*
X120000000Y-72000000D03*
D14*
X120000000Y-73650000D03*
X121166726Y-70833274D03*
X121166726Y-73166726D03*
X121650000Y-72000000D03*
%TD*%
D22*
%TO.P,C14,1*%
%TO.N,GND*%
X123500000Y-121235000D03*
%TO.P,C14,2*%
%TO.N,/MCU and RX/ADC1*%
X123500000Y-119685000D03*
%TD*%
D13*
%TO.P,C9,1*%
%TO.N,+3V3*%
X148775000Y-116000000D03*
%TO.P,C9,2*%
%TO.N,GND*%
X147225000Y-116000000D03*
%TD*%
D16*
%TO.P,C12,1*%
%TO.N,+3V3*%
X122000000Y-83225000D03*
%TO.P,C12,2*%
%TO.N,GND*%
X122000000Y-84775000D03*
%TD*%
D22*
%TO.P,C4,1*%
%TO.N,+3V3*%
X137000000Y-97275000D03*
%TO.P,C4,2*%
%TO.N,GND*%
X137000000Y-95725000D03*
%TD*%
D11*
%TO.P,J6,1,Pin_1*%
%TO.N,/MCU and RX/SERVO1*%
X158460000Y-125000000D03*
D12*
%TO.P,J6,2,Pin_2*%
%TO.N,+BATT*%
X161000000Y-125000000D03*
%TO.P,J6,3,Pin_3*%
%TO.N,GND*%
X163540000Y-125000000D03*
%TD*%
D13*
%TO.P,C20,1*%
%TO.N,+3V3*%
X146775000Y-93500000D03*
%TO.P,C20,2*%
%TO.N,GND*%
X145225000Y-93500000D03*
%TD*%
D25*
%TO.P,U9,1,VCC*%
%TO.N,+3V3*%
X164062500Y-107600000D03*
%TO.P,U9,2,GND*%
%TO.N,GND*%
X164062500Y-108870000D03*
%TO.P,U9,3,CE*%
%TO.N,/MCU and RX/NRF24L01_CE*%
X164062500Y-110140000D03*
%TO.P,U9,4,~{CS}*%
%TO.N,/MCU and RX/SPI2_NSS*%
X164062500Y-111410000D03*
%TO.P,U9,5,SCK*%
%TO.N,/MCU and RX/SPI2_SCK*%
X164062500Y-112680000D03*
%TO.P,U9,6,MOSI*%
%TO.N,/MCU and RX/SPI2_MOSI*%
X164062500Y-113950000D03*
%TO.P,U9,7,MISO*%
%TO.N,/MCU and RX/SPI2_MISO*%
X164062500Y-115220000D03*
%TO.P,U9,8,IRQ*%
%TO.N,/MCU and RX/NRF24L01_IRQ*%
X164062500Y-116490000D03*
%TD*%
D26*
%TO.P,R3,1*%
%TO.N,/Sensors/VBAT_DIV*%
X125675000Y-102500000D03*
%TO.P,R3,2*%
%TO.N,/MCU and RX/VBAT*%
X127325000Y-102500000D03*
%TD*%
D27*
%TO.P,D1,1,K*%
%TO.N,+BATT*%
X173500000Y-99650000D03*
%TO.P,D1,2,A*%
%TO.N,/Power/VUSB*%
X173500000Y-96350000D03*
%TD*%
D28*
%TO.P,R4,1*%
%TO.N,Net-(J8-Pin_2)*%
X123500000Y-116635000D03*
%TO.P,R4,2*%
%TO.N,/MCU and RX/ADC1*%
X123500000Y-118285000D03*
%TD*%
D10*
%TO.P,TP7,1,1*%
%TO.N,/DC Motors/PWM_M3_F*%
X148750000Y-113250000D03*
%TD*%
D11*
%TO.P,J9,1,Pin_1*%
%TO.N,/MCU and RX/DIGITAL_AUX1*%
X121000000Y-108725000D03*
D12*
%TO.P,J9,2,Pin_2*%
%TO.N,/MCU and RX/DIGITAL_AUX2*%
X121000000Y-111265000D03*
%TD*%
D10*
%TO.P,TP6,1,1*%
%TO.N,/DC Motors/PWM_M2_B*%
X144500000Y-113250000D03*
%TD*%
D28*
%TO.P,R1,1*%
%TO.N,+BATT*%
X124000000Y-99675000D03*
%TO.P,R1,2*%
%TO.N,/Sensors/VBAT_DIV*%
X124000000Y-101325000D03*
%TD*%
D10*
%TO.P,TP4,1,1*%
%TO.N,/DC Motors/PWM_M1_B*%
X138250000Y-113250000D03*
%TD*%
D17*
%TO.P,U3,1,VM*%
%TO.N,+BATT*%
X141250000Y-119450000D03*
%TO.P,U3,2,OUT1*%
%TO.N,/DC Motors/M2+*%
X141750000Y-119450000D03*
%TO.P,U3,3,OUT2*%
%TO.N,/DC Motors/M2-*%
X142250000Y-119450000D03*
%TO.P,U3,4,GND*%
%TO.N,GND*%
X142750000Y-119450000D03*
%TO.P,U3,5,IN2*%
%TO.N,/DC Motors/PWM_M2_B*%
X142750000Y-117550000D03*
%TO.P,U3,6,IN1*%
%TO.N,/DC Motors/PWM_M2_F*%
X142250000Y-117550000D03*
%TO.P,U3,7,~{SLEEP}*%
%TO.N,+3V3*%
X141750000Y-117550000D03*
%TO.P,U3,8,VCC*%
X141250000Y-117550000D03*
D18*
%TO.P,U3,9,GND*%
%TO.N,GND*%
X142000000Y-118500000D03*
%TD*%
D17*
%TO.P,U4,1,VM*%
%TO.N,+BATT*%
X149250000Y-119450000D03*
%TO.P,U4,2,OUT1*%
%TO.N,/DC Motors/M3+*%
X149750000Y-119450000D03*
%TO.P,U4,3,OUT2*%
%TO.N,/DC Motors/M3-*%
X150250000Y-119450000D03*
%TO.P,U4,4,GND*%
%TO.N,GND*%
X150750000Y-119450000D03*
%TO.P,U4,5,IN2*%
%TO.N,/DC Motors/PWM_M3_B*%
X150750000Y-117550000D03*
%TO.P,U4,6,IN1*%
%TO.N,/DC Motors/PWM_M3_F*%
X150250000Y-117550000D03*
%TO.P,U4,7,~{SLEEP}*%
%TO.N,+3V3*%
X149750000Y-117550000D03*
%TO.P,U4,8,VCC*%
X149250000Y-117550000D03*
D18*
%TO.P,U4,9,GND*%
%TO.N,GND*%
X150000000Y-118500000D03*
%TD*%
D29*
%TO.P,U7,1,GND*%
%TO.N,GND*%
X143500000Y-78000000D03*
%TO.P,U7,2,VCC*%
%TO.N,+3V3*%
X143500000Y-75460000D03*
%TO.P,U7,3,CH1_(PPM)*%
%TO.N,/MCU and RX/CH1_PPM*%
X143500000Y-72920000D03*
%TO.P,U7,4*%
%TO.N,GND*%
X146040000Y-78000000D03*
%TO.P,U7,5*%
%TO.N,+3V3*%
X146040000Y-75460000D03*
%TO.P,U7,6,CH2*%
%TO.N,/MCU and RX/CH2*%
X146040000Y-72920000D03*
%TO.P,U7,7*%
%TO.N,GND*%
X148580000Y-78000000D03*
%TO.P,U7,8*%
%TO.N,+3V3*%
X148580000Y-75460000D03*
%TO.P,U7,9,CH3*%
%TO.N,/MCU and RX/CH3*%
X148580000Y-72920000D03*
%TO.P,U7,10*%
%TO.N,GND*%
X151120000Y-78000000D03*
%TO.P,U7,11*%
%TO.N,+3V3*%
X151120000Y-75460000D03*
%TO.P,U7,12,CH4*%
%TO.N,/MCU and RX/CH4*%
X151120000Y-72920000D03*
%TD*%
D10*
%TO.P,TP1,1,1*%
%TO.N,+3V3*%
X136000000Y-100000000D03*
%TD*%
D16*
%TO.P,C3,1*%
%TO.N,+BATT*%
X130000000Y-95725000D03*
%TO.P,C3,2*%
%TO.N,GND*%
X130000000Y-97275000D03*
%TD*%
D30*
%TO.P,R8,1*%
%TO.N,/MCU and RX/I2C1_SCL*%
X149000000Y-90825000D03*
%TO.P,R8,2*%
%TO.N,+3V3*%
X149000000Y-89175000D03*
%TD*%
D14*
%TO.P,H2,1*%
%TO.N,N/C*%
X177350000Y-72000000D03*
X177833274Y-70833274D03*
X177833274Y-73166726D03*
X179000000Y-70350000D03*
D15*
X179000000Y-72000000D03*
D14*
X179000000Y-73650000D03*
X180166726Y-70833274D03*
X180166726Y-73166726D03*
X180650000Y-72000000D03*
%TD*%
D30*
%TO.P,R5,1*%
%TO.N,/MCU and RX/STATUS_LED*%
X141500000Y-96825000D03*
%TO.P,R5,2*%
%TO.N,Net-(D2-A)*%
X141500000Y-95175000D03*
%TD*%
D31*
%TO.P,J1,1,GND_1*%
%TO.N,GND*%
X175745000Y-97200000D03*
%TO.P,J1,2,VBUS*%
%TO.N,/Power/VUSB*%
X175745000Y-96400000D03*
D32*
%TO.P,J1,3,SBU2*%
%TO.N,unconnected-(J1-SBU2-Pad3)*%
X175745000Y-95750000D03*
%TO.P,J1,4,CC1*%
%TO.N,unconnected-(J1-CC1-Pad4)*%
X175745000Y-95250000D03*
%TO.P,J1,5,DN2*%
%TO.N,/MCU and RX/USB_D-*%
X175745000Y-94750000D03*
%TO.P,J1,6,DP1*%
%TO.N,/MCU and RX/USB_D+*%
X175745000Y-94250000D03*
%TO.P,J1,7,DN1*%
%TO.N,/MCU and RX/USB_D-*%
X175745000Y-93750000D03*
%TO.P,J1,8,DP2*%
%TO.N,/MCU and RX/USB_D+*%
X175745000Y-93250000D03*
%TO.P,J1,9,SBU1*%
%TO.N,unconnected-(J1-SBU1-Pad9)*%
X175745000Y-92750000D03*
%TO.P,J1,10,CC2*%
%TO.N,unconnected-(J1-CC2-Pad10)*%
X175745000Y-92250000D03*
D31*
%TO.P,J1,11,VBUS*%
%TO.N,/Power/VUSB*%
X175745000Y-91600000D03*
%TO.P,J1,12,GND_2*%
%TO.N,GND*%
X175745000Y-90800000D03*
D33*
%TO.P,J1,13,SHIELD*%
X176300000Y-99150000D03*
X180550000Y-99150000D03*
D34*
X176320000Y-98320000D03*
X180500000Y-98320000D03*
X176320000Y-89680000D03*
X180500000Y-89680000D03*
D33*
X176350000Y-88850000D03*
X180500000Y-88850000D03*
%TD*%
D35*
%TO.P,U1,1,GND*%
%TO.N,GND*%
X132000000Y-97450000D03*
D36*
%TO.P,U1,2,IN*%
%TO.N,+BATT*%
X133500000Y-97362500D03*
D35*
%TO.P,U1,3,OUT*%
%TO.N,+3V3*%
X135000000Y-97450000D03*
%TD*%
D10*
%TO.P,TP8,1,1*%
%TO.N,/DC Motors/PWM_M3_B*%
X152250000Y-113250000D03*
%TD*%
D37*
%TO.P,D2,1,K*%
%TO.N,GND*%
X141500000Y-91562500D03*
%TO.P,D2,2,A*%
%TO.N,Net-(D2-A)*%
X141500000Y-93437500D03*
%TD*%
D10*
%TO.P,TP5,1,1*%
%TO.N,/DC Motors/PWM_M2_F*%
X140750000Y-113250000D03*
%TD*%
D28*
%TO.P,R2,1*%
%TO.N,/Sensors/VBAT_DIV*%
X124000000Y-102675000D03*
%TO.P,R2,2*%
%TO.N,GND*%
X124000000Y-104325000D03*
%TD*%
D22*
%TO.P,C11,1*%
%TO.N,GND*%
X129000000Y-104275000D03*
%TO.P,C11,2*%
%TO.N,/MCU and RX/VBAT*%
X129000000Y-102725000D03*
%TD*%
D38*
%TO.P,SW1,1,1*%
%TO.N,+3V3*%
X157000000Y-73100000D03*
%TO.P,SW1,2,2*%
%TO.N,/MCU and RX/BOOT0*%
X157000000Y-80900000D03*
%TD*%
D16*
%TO.P,C22,1*%
%TO.N,+3V3*%
X121500000Y-78725000D03*
%TO.P,C22,2*%
%TO.N,GND*%
X121500000Y-80275000D03*
%TD*%
D11*
%TO.P,J7,1,Pin_1*%
%TO.N,/MCU and RX/SERVO2*%
X168000000Y-125000000D03*
D12*
%TO.P,J7,2,Pin_2*%
%TO.N,+BATT*%
X170540000Y-125000000D03*
%TO.P,J7,3,Pin_3*%
%TO.N,GND*%
X173080000Y-125000000D03*
%TD*%
D16*
%TO.P,C23,1*%
%TO.N,+3V3*%
X161561637Y-107402973D03*
%TO.P,C23,2*%
%TO.N,GND*%
X161561637Y-108952973D03*
%TD*%
D10*
%TO.P,TP3,1,1*%
%TO.N,/DC Motors/PWM_M1_F*%
X134500000Y-113250000D03*
%TD*%
D16*
%TO.P,C17,1*%
%TO.N,+3V3*%
X154500000Y-104725000D03*
%TO.P,C17,2*%
%TO.N,GND*%
X154500000Y-106275000D03*
%TD*%
%TO.P,C21,1*%
%TO.N,+3V3*%
X156500000Y-95725000D03*
%TO.P,C21,2*%
%TO.N,GND*%
X156500000Y-97275000D03*
%TD*%
D30*
%TO.P,R7,1*%
%TO.N,/MCU and RX/I2C1_SDA*%
X147500000Y-90825000D03*
%TO.P,R7,2*%
%TO.N,+3V3*%
X147500000Y-89175000D03*
%TD*%
D22*
%TO.P,C18,1*%
%TO.N,+3V3*%
X143500000Y-96775000D03*
%TO.P,C18,2*%
%TO.N,GND*%
X143500000Y-95225000D03*
%TD*%
D14*
%TO.P,H4,1*%
%TO.N,N/C*%
X118350000Y-126000000D03*
X118833274Y-124833274D03*
X118833274Y-127166726D03*
X120000000Y-124350000D03*
D15*
X120000000Y-126000000D03*
D14*
X120000000Y-127650000D03*
X121166726Y-124833274D03*
X121166726Y-127166726D03*
X121650000Y-126000000D03*
%TD*%
D22*
%TO.P,C10,1*%
%TO.N,+BATT*%
X147500000Y-119275000D03*
%TO.P,C10,2*%
%TO.N,GND*%
X147500000Y-117725000D03*
%TD*%
D26*
%TO.P,R6,1*%
%TO.N,/MCU and RX/BOOT0*%
X156925000Y-82750000D03*
%TO.P,R6,2*%
%TO.N,GND*%
X158575000Y-82750000D03*
%TD*%
D11*
%TO.P,J2,1,Pin_1*%
%TO.N,GND*%
X121000000Y-97000000D03*
D12*
%TO.P,J2,2,Pin_2*%
%TO.N,+BATT*%
X121000000Y-94460000D03*
%TD*%
D22*
%TO.P,C19,1*%
%TO.N,+3V3*%
X143000000Y-102275000D03*
%TO.P,C19,2*%
%TO.N,GND*%
X143000000Y-100725000D03*
%TD*%
D39*
%TO.N,/MCU and RX/RESET*%
X171750000Y-77470000D03*
D40*
%TO.N,GND*%
X143500000Y-118500000D03*
X123500000Y-122000000D03*
X135500000Y-118500000D03*
X141500000Y-90750000D03*
X159250000Y-82750000D03*
X160750000Y-108952973D03*
X121500000Y-81250000D03*
X144500000Y-93500000D03*
X151500000Y-118500000D03*
X146250000Y-117725000D03*
X143500000Y-94500000D03*
X130250000Y-117719672D03*
X138250000Y-116000000D03*
X129000000Y-105250000D03*
X157750000Y-97275000D03*
X147986763Y-93986763D03*
X130250000Y-116000000D03*
X124250000Y-87000000D03*
D39*
X132000000Y-99000000D03*
D40*
X123000000Y-84750000D03*
X130000000Y-98000000D03*
X127000000Y-98000000D03*
X137000000Y-95000000D03*
D39*
X125250000Y-81750000D03*
D40*
X128500000Y-98000000D03*
X155500000Y-106250000D03*
X126750000Y-79500000D03*
X146250000Y-116000000D03*
X140500000Y-99000000D03*
X140750000Y-100750000D03*
X123362500Y-81250000D03*
X138250000Y-117750000D03*
X124000000Y-105250000D03*
D39*
%TO.N,+3V3*%
X132775000Y-114550000D03*
X129500000Y-114500000D03*
X156500000Y-94500000D03*
X146000000Y-89250000D03*
X138250000Y-102250000D03*
X146000000Y-91375000D03*
%TO.N,/MCU and RX/RESET*%
X170250000Y-77470000D03*
%TO.N,/MCU and RX/DIGITAL_AUX1*%
X140125000Y-104125000D03*
X144500000Y-99000000D03*
%TO.N,/MCU and RX/DIGITAL_AUX2*%
X147000000Y-99500000D03*
X140878260Y-104141302D03*
%TO.N,/MCU and RX/BOOT0*%
X149250000Y-97250000D03*
X153750000Y-95500000D03*
X154750000Y-89750000D03*
X154750000Y-91250000D03*
%TO.N,/MCU and RX/I2C1_SDA*%
X129500000Y-81400057D03*
X128750000Y-83000000D03*
%TO.N,/MCU and RX/I2C1_SCL*%
X142494000Y-88500000D03*
X144000000Y-88500000D03*
%TO.N,/DC Motors/PWM_M1_B*%
X136750000Y-115050000D03*
X136750000Y-113950000D03*
%TO.N,/DC Motors/PWM_M1_F*%
X136000000Y-115050000D03*
X136000000Y-113950000D03*
%TO.N,/DC Motors/PWM_M2_F*%
X142250000Y-113950000D03*
X142250000Y-115050000D03*
%TO.N,/DC Motors/PWM_M2_B*%
X143000000Y-115050000D03*
X143000000Y-113950000D03*
%TO.N,/MCU and RX/CH1_PPM*%
X140000000Y-74910000D03*
X140000000Y-76010000D03*
%TO.N,/MCU and RX/SPI2_MISO*%
X158750000Y-110250000D03*
X158915042Y-104542479D03*
%TO.N,/MCU and RX/SPI2_SCK*%
X156750000Y-107000000D03*
X156750000Y-103500000D03*
%TO.N,/MCU and RX/CH2*%
X141250000Y-72250000D03*
X141250000Y-76010000D03*
%TO.N,/MCU and RX/SPI2_NSS*%
X156000000Y-104175000D03*
X156000000Y-105275000D03*
%TO.N,/MCU and RX/CH3*%
X153750000Y-74250000D03*
X153750000Y-72250000D03*
%TO.N,/MCU and RX/SPI2_MOSI*%
X159500000Y-104250000D03*
X159500000Y-110587500D03*
%TD*%
D41*
%TO.N,/MCU and RX/I2C1_SCL*%
X135000000Y-88500000D02*
X130500000Y-84000000D01*
X142494000Y-88500000D02*
X135000000Y-88500000D01*
%TO.N,/MCU and RX/RESET*%
X149750000Y-100250000D02*
X145837500Y-100250000D01*
X170250000Y-79750000D02*
X149750000Y-100250000D01*
X170250000Y-77470000D02*
X170250000Y-79750000D01*
D42*
%TO.N,GND*%
X129000000Y-104275000D02*
X129000000Y-105250000D01*
D41*
X141225000Y-99000000D02*
X140500000Y-99000000D01*
D42*
X138775000Y-117725000D02*
X139500000Y-117725000D01*
X134000000Y-118500000D02*
X135000000Y-118500000D01*
X142826000Y-119048070D02*
X142826000Y-118674000D01*
D41*
X155475000Y-106275000D02*
X155500000Y-106250000D01*
D42*
X142000000Y-118500000D02*
X143000000Y-118500000D01*
X125637500Y-79500000D02*
X126750000Y-79500000D01*
X150826000Y-118576000D02*
X150826000Y-119450000D01*
D41*
X154500000Y-106275000D02*
X155475000Y-106275000D01*
X147750000Y-94223526D02*
X147750000Y-95837500D01*
D42*
X143000000Y-118500000D02*
X143500000Y-118500000D01*
X121500000Y-81250000D02*
X121500000Y-80275000D01*
D41*
X157750000Y-97275000D02*
X156500000Y-97275000D01*
X141500000Y-100725000D02*
X143000000Y-100725000D01*
D42*
X139225000Y-116000000D02*
X138250000Y-116000000D01*
X175745000Y-90255000D02*
X176320000Y-89680000D01*
X160750000Y-108952973D02*
X161561637Y-108952973D01*
D41*
X155250000Y-97750000D02*
X155725000Y-97275000D01*
D42*
X150750000Y-118500000D02*
X150826000Y-118576000D01*
X175745000Y-90800000D02*
X175745000Y-90255000D01*
D41*
X143025000Y-100750000D02*
X143000000Y-100725000D01*
X153591176Y-106275000D02*
X154500000Y-106275000D01*
D42*
X138750000Y-117750000D02*
X138775000Y-117725000D01*
X161595000Y-108870000D02*
X161561637Y-108903363D01*
D41*
X140775000Y-100725000D02*
X141500000Y-100725000D01*
X140750000Y-100750000D02*
X140775000Y-100725000D01*
D42*
X130250000Y-117719672D02*
X130255328Y-117725000D01*
X130000000Y-97275000D02*
X130000000Y-98000000D01*
X124000000Y-105250000D02*
X124000000Y-104325000D01*
X135000000Y-118500000D02*
X135500000Y-118500000D01*
X142826000Y-118674000D02*
X143000000Y-118500000D01*
X138250000Y-117750000D02*
X138750000Y-117750000D01*
D41*
X141500000Y-91562500D02*
X141500000Y-90750000D01*
D42*
X125225000Y-87000000D02*
X124250000Y-87000000D01*
X147225000Y-116000000D02*
X146250000Y-116000000D01*
X123500000Y-121235000D02*
X123500000Y-122000000D01*
X132000000Y-99000000D02*
X131000000Y-100000000D01*
D41*
X147986763Y-93986763D02*
X147750000Y-94223526D01*
D42*
X158575000Y-82750000D02*
X159250000Y-82750000D01*
D41*
X145225000Y-93500000D02*
X144500000Y-93500000D01*
D42*
X142826000Y-119048070D02*
X142826000Y-119450000D01*
X123000000Y-84750000D02*
X122975000Y-84775000D01*
D41*
X145837500Y-100750000D02*
X143025000Y-100750000D01*
D42*
X127000000Y-97275000D02*
X127000000Y-98000000D01*
X132000000Y-97450000D02*
X132000000Y-99000000D01*
D41*
X152250000Y-104162500D02*
X152250000Y-104933824D01*
D42*
X161561637Y-108903363D02*
X161561637Y-108952973D01*
D41*
X152250000Y-104933824D02*
X153591176Y-106275000D01*
D42*
X134826000Y-118674000D02*
X134826000Y-119450000D01*
D41*
X137000000Y-95725000D02*
X137000000Y-95000000D01*
D42*
X164062500Y-108870000D02*
X161595000Y-108870000D01*
X128500000Y-97275000D02*
X128500000Y-98000000D01*
X135000000Y-118500000D02*
X134826000Y-118674000D01*
X150000000Y-118500000D02*
X150750000Y-118500000D01*
X131225000Y-116000000D02*
X130250000Y-116000000D01*
D41*
X155725000Y-97275000D02*
X156500000Y-97275000D01*
D42*
X122975000Y-84775000D02*
X122000000Y-84775000D01*
D41*
X143500000Y-95225000D02*
X143500000Y-94500000D01*
D42*
X130255328Y-117725000D02*
X131500000Y-117725000D01*
X142826000Y-118500000D02*
X142826000Y-119048070D01*
X142000000Y-118500000D02*
X142826000Y-118500000D01*
X146250000Y-117725000D02*
X147500000Y-117725000D01*
X150750000Y-118500000D02*
X151500000Y-118500000D01*
D41*
X154162500Y-97750000D02*
X155250000Y-97750000D01*
D42*
X175745000Y-97200000D02*
X175745000Y-97745000D01*
X123362500Y-81250000D02*
X123362500Y-80450000D01*
X175745000Y-97745000D02*
X176320000Y-98320000D01*
%TO.N,+BATT*%
X139500000Y-119275000D02*
X139675000Y-119450000D01*
X127000000Y-95725000D02*
X128500000Y-95725000D01*
X170540000Y-125000000D02*
X170540000Y-122960000D01*
X133500000Y-96000000D02*
X133225000Y-95725000D01*
X147500000Y-119275000D02*
X147675000Y-119450000D01*
X124000000Y-97650000D02*
X124000000Y-96500000D01*
X128500000Y-95725000D02*
X130000000Y-95725000D01*
X133500000Y-97362500D02*
X133500000Y-96000000D01*
X131500000Y-119275000D02*
X131675000Y-119450000D01*
X170540000Y-122960000D02*
X173500000Y-120000000D01*
X121110000Y-94350000D02*
X121000000Y-94460000D01*
X139675000Y-119450000D02*
X141174000Y-119450000D01*
X173500000Y-120000000D02*
X173500000Y-99650000D01*
X147675000Y-119450000D02*
X149174000Y-119450000D01*
X131675000Y-119450000D02*
X133174000Y-119450000D01*
X124000000Y-96500000D02*
X124775000Y-95725000D01*
X133225000Y-95725000D02*
X130000000Y-95725000D01*
X124000000Y-97650000D02*
X124000000Y-99675000D01*
X124775000Y-95725000D02*
X127000000Y-95725000D01*
D41*
%TO.N,+3V3*%
X148775000Y-116000000D02*
X148775000Y-115025000D01*
X135000000Y-99000000D02*
X136000000Y-100000000D01*
X148775000Y-115025000D02*
X148250000Y-114500000D01*
X136000000Y-114500000D02*
X132775000Y-114500000D01*
X140750000Y-114500000D02*
X136000000Y-114500000D01*
X151500000Y-101250000D02*
X150608824Y-101250000D01*
X149750000Y-117550000D02*
X149250000Y-117550000D01*
X134280000Y-70530000D02*
X134250000Y-70500000D01*
X121675000Y-78550000D02*
X121500000Y-78725000D01*
X141750000Y-117550000D02*
X141250000Y-117550000D01*
X129500000Y-114500000D02*
X128540000Y-115460000D01*
X120500000Y-83225000D02*
X120500000Y-85099943D01*
X152750000Y-104162500D02*
X153937500Y-104162500D01*
X134250000Y-70500000D02*
X133500000Y-70500000D01*
X138250000Y-102250000D02*
X136000000Y-100000000D01*
X136265000Y-75460000D02*
X134280000Y-73475000D01*
X124750000Y-70500000D02*
X123362500Y-71887500D01*
X152750000Y-104162500D02*
X152750000Y-102500000D01*
X157475000Y-104725000D02*
X154500000Y-104725000D01*
X133500000Y-70500000D02*
X156000000Y-70500000D01*
X161875000Y-107600000D02*
X161677973Y-107402973D01*
X140775000Y-116000000D02*
X140775000Y-114525000D01*
X123362500Y-78550000D02*
X121675000Y-78550000D01*
X148580000Y-75460000D02*
X146040000Y-75460000D01*
X133250000Y-117250000D02*
X133250000Y-117550000D01*
X149250000Y-117550000D02*
X149250000Y-117250000D01*
X140000000Y-96000000D02*
X142725000Y-96000000D01*
X146000000Y-89250000D02*
X146075000Y-89175000D01*
X124250000Y-85526848D02*
X124723152Y-86000000D01*
X141250000Y-117250000D02*
X140775000Y-116775000D01*
X146000000Y-91375000D02*
X146000000Y-91500000D01*
X157000000Y-71500000D02*
X157000000Y-73100000D01*
X152750000Y-102500000D02*
X151500000Y-101250000D01*
X125912500Y-84500000D02*
X126500000Y-84500000D01*
X156500000Y-95725000D02*
X156500000Y-94500000D01*
X124087500Y-83500000D02*
X123500000Y-83500000D01*
X143500000Y-75460000D02*
X146040000Y-75460000D01*
X149250000Y-117250000D02*
X148775000Y-116775000D01*
X138725000Y-97275000D02*
X140000000Y-96000000D01*
X134280000Y-73475000D02*
X134280000Y-70530000D01*
X132775000Y-116000000D02*
X132775000Y-116775000D01*
X164062500Y-107600000D02*
X161875000Y-107600000D01*
X126500000Y-84500000D02*
X126775000Y-84775000D01*
X154162500Y-96837500D02*
X155275000Y-95725000D01*
X154162500Y-97250000D02*
X154162500Y-96837500D01*
X120500000Y-85099943D02*
X121400057Y-86000000D01*
X141250000Y-117550000D02*
X141250000Y-117250000D01*
X155275000Y-95725000D02*
X156500000Y-95725000D01*
X141500000Y-102275000D02*
X138275000Y-102275000D01*
X123500000Y-83500000D02*
X123225000Y-83225000D01*
X126750000Y-86000000D02*
X126775000Y-86025000D01*
X150608824Y-101250000D02*
X145837500Y-101250000D01*
X126775000Y-86025000D02*
X126775000Y-87000000D01*
X132775000Y-114500000D02*
X132775000Y-116000000D01*
X124723152Y-86000000D02*
X126750000Y-86000000D01*
X142725000Y-96000000D02*
X143500000Y-96775000D01*
X140775000Y-116775000D02*
X140775000Y-116000000D01*
X161561637Y-107402973D02*
X160152973Y-107402973D01*
X137000000Y-97275000D02*
X138725000Y-97275000D01*
X124250000Y-85162500D02*
X124250000Y-85526848D01*
X145837500Y-101250000D02*
X144025000Y-101250000D01*
X137000000Y-97275000D02*
X135175000Y-97275000D01*
X156000000Y-70500000D02*
X157000000Y-71500000D01*
X123362500Y-71887500D02*
X123362500Y-78550000D01*
X143500000Y-75460000D02*
X136265000Y-75460000D01*
X135000000Y-97450000D02*
X135000000Y-99000000D01*
X121025000Y-78725000D02*
X121500000Y-78725000D01*
X157400000Y-73500000D02*
X157000000Y-73100000D01*
X120500000Y-79250000D02*
X121025000Y-78725000D01*
X149000000Y-89175000D02*
X147500000Y-89175000D01*
X153937500Y-104162500D02*
X154500000Y-104725000D01*
X126775000Y-87000000D02*
X130250000Y-87000000D01*
X120500000Y-83225000D02*
X120500000Y-79250000D01*
X121400057Y-86000000D02*
X124723152Y-86000000D01*
X122000000Y-83225000D02*
X120500000Y-83225000D01*
X146775000Y-92275000D02*
X146775000Y-93500000D01*
X144025000Y-101250000D02*
X143000000Y-102275000D01*
X132775000Y-116775000D02*
X133250000Y-117250000D01*
X135175000Y-97275000D02*
X135000000Y-97450000D01*
X126775000Y-84775000D02*
X126775000Y-86025000D01*
X146075000Y-89175000D02*
X147500000Y-89175000D01*
X161677973Y-107402973D02*
X161561637Y-107402973D01*
X148775000Y-116775000D02*
X148775000Y-116000000D01*
X133250000Y-117550000D02*
X133750000Y-117550000D01*
X138275000Y-102275000D02*
X138250000Y-102250000D01*
X128540000Y-115460000D02*
X121000000Y-115460000D01*
X140775000Y-114525000D02*
X140750000Y-114500000D01*
X143000000Y-102275000D02*
X141500000Y-102275000D01*
X148250000Y-114500000D02*
X140750000Y-114500000D01*
X130250000Y-87000000D02*
X135000000Y-91750000D01*
X135000000Y-91750000D02*
X135000000Y-97450000D01*
X151120000Y-75460000D02*
X148580000Y-75460000D01*
X160152973Y-107402973D02*
X157475000Y-104725000D01*
X146000000Y-91500000D02*
X146775000Y-92275000D01*
X133500000Y-70500000D02*
X124750000Y-70500000D01*
X163420000Y-73500000D02*
X157400000Y-73500000D01*
X123225000Y-83225000D02*
X122000000Y-83225000D01*
%TO.N,/MCU and RX/VBAT*%
X127325000Y-102500000D02*
X128775000Y-102500000D01*
X128775000Y-102500000D02*
X129000000Y-102725000D01*
X145100002Y-101750000D02*
X143600002Y-103250000D01*
X143600002Y-103250000D02*
X130500000Y-103250000D01*
X129975000Y-102725000D02*
X129000000Y-102725000D01*
X145837500Y-101750000D02*
X145100002Y-101750000D01*
X130500000Y-103250000D02*
X129975000Y-102725000D01*
%TO.N,/MCU and RX/ADC1*%
X145096390Y-102250000D02*
X143745390Y-103601000D01*
X123500000Y-119685000D02*
X123500000Y-118285000D01*
X142149000Y-103601000D02*
X134000000Y-111750000D01*
X134000000Y-111750000D02*
X133250000Y-111750000D01*
X133250000Y-111750000D02*
X126715000Y-118285000D01*
X145837500Y-102250000D02*
X145096390Y-102250000D01*
X143745390Y-103601000D02*
X142149000Y-103601000D01*
X126715000Y-118285000D02*
X123500000Y-118285000D01*
%TO.N,/MCU and RX/RESET*%
X142775000Y-99000000D02*
X142775000Y-99225000D01*
X142775000Y-99000000D02*
X143500000Y-99000000D01*
X144750000Y-100250000D02*
X145837500Y-100250000D01*
X143500000Y-99000000D02*
X144750000Y-100250000D01*
D42*
%TO.N,/Power/VUSB*%
X173500000Y-96350000D02*
X173900000Y-96350000D01*
X173900000Y-96350000D02*
X173950000Y-96400000D01*
D41*
X177250000Y-95498335D02*
X176348335Y-96400000D01*
D42*
X173950000Y-96400000D02*
X175745000Y-96400000D01*
D41*
X177250000Y-92501665D02*
X177250000Y-95498335D01*
X176348335Y-91600000D02*
X177250000Y-92501665D01*
X175745000Y-91600000D02*
X176348335Y-91600000D01*
X176348335Y-96400000D02*
X175745000Y-96400000D01*
%TO.N,Net-(D2-A)*%
X141500000Y-95175000D02*
X141500000Y-93437500D01*
%TO.N,/DC Motors/M1+*%
X133750000Y-120000000D02*
X133750000Y-119450000D01*
D42*
X131725000Y-125000000D02*
X131725000Y-122025000D01*
X131725000Y-122025000D02*
X133500000Y-120250000D01*
D41*
X133500000Y-120250000D02*
X133750000Y-120000000D01*
%TO.N,/DC Motors/M1-*%
X134250000Y-119450000D02*
X134250000Y-120250000D01*
D42*
X134250000Y-124985000D02*
X134250000Y-120250000D01*
X134265000Y-125000000D02*
X134250000Y-124985000D01*
D41*
%TO.N,/DC Motors/M2-*%
X142250000Y-119450000D02*
X142250000Y-120250000D01*
D42*
X142250000Y-124985000D02*
X142250000Y-120250000D01*
X142265000Y-125000000D02*
X142250000Y-124985000D01*
D41*
%TO.N,/DC Motors/M2+*%
X141250000Y-120250000D02*
X141750000Y-119750000D01*
X141750000Y-119750000D02*
X141750000Y-119450000D01*
D42*
X141250000Y-120250000D02*
X139725000Y-121775000D01*
X139725000Y-121775000D02*
X139725000Y-125000000D01*
D41*
%TO.N,/DC Motors/M3-*%
X150250000Y-119450000D02*
X150250000Y-120529232D01*
D42*
X150250000Y-124985000D02*
X150250000Y-120529232D01*
X150265000Y-125000000D02*
X150250000Y-124985000D01*
D41*
%TO.N,/DC Motors/M3+*%
X149750000Y-119450000D02*
X149750000Y-120250000D01*
D42*
X149500000Y-120500000D02*
X147725000Y-122275000D01*
D41*
X149750000Y-120250000D02*
X149500000Y-120500000D01*
D42*
X147725000Y-122275000D02*
X147725000Y-125000000D01*
D41*
%TO.N,/MCU and RX/SERVO1*%
X151250000Y-107250000D02*
X158460000Y-114460000D01*
X158460000Y-121000000D02*
X158460000Y-125000000D01*
X160250000Y-121000000D02*
X158460000Y-121000000D01*
X151250000Y-104162500D02*
X151250000Y-107250000D01*
X158460000Y-114460000D02*
X158460000Y-121000000D01*
%TO.N,/MCU and RX/SERVO2*%
X168000000Y-123250000D02*
X168000000Y-125000000D01*
X169000000Y-121000000D02*
X167375000Y-122625000D01*
X167375000Y-122625000D02*
X168000000Y-123250000D01*
X151750000Y-107000000D02*
X167375000Y-122625000D01*
X151750000Y-104162500D02*
X151750000Y-107000000D01*
%TO.N,Net-(J8-Pin_2)*%
X123500000Y-116635000D02*
X122365000Y-116635000D01*
X122365000Y-116635000D02*
X121000000Y-118000000D01*
%TO.N,/MCU and RX/DIGITAL_AUX1*%
X145837500Y-99250000D02*
X144750000Y-99250000D01*
X140125000Y-104125000D02*
X135525000Y-108725000D01*
X135525000Y-108725000D02*
X121000000Y-108725000D01*
X144750000Y-99250000D02*
X144500000Y-99000000D01*
%TO.N,/MCU and RX/DIGITAL_AUX2*%
X145837500Y-99750000D02*
X146750000Y-99750000D01*
X129000000Y-111250000D02*
X133750000Y-111250000D01*
X121000000Y-111265000D02*
X128985000Y-111265000D01*
X140858698Y-104141302D02*
X140878260Y-104141302D01*
X133750000Y-111250000D02*
X140858698Y-104141302D01*
X128985000Y-111265000D02*
X129000000Y-111250000D01*
X146750000Y-99750000D02*
X147000000Y-99500000D01*
%TO.N,/MCU and RX/UART2_TX*%
X150250000Y-95837500D02*
X150250000Y-88249999D01*
X148000001Y-86000000D02*
X144265000Y-86000000D01*
X150250000Y-88249999D02*
X148000001Y-86000000D01*
X144265000Y-86000000D02*
X131740000Y-73475000D01*
%TO.N,/MCU and RX/UART2_RX*%
X142225000Y-86500000D02*
X147757032Y-86500000D01*
X129200000Y-73475000D02*
X142225000Y-86500000D01*
X149776000Y-88518968D02*
X149776000Y-95811500D01*
X149776000Y-95811500D02*
X149750000Y-95837500D01*
X147757032Y-86500000D02*
X149776000Y-88518968D01*
%TO.N,/Sensors/VBAT_DIV*%
X124000000Y-101325000D02*
X124000000Y-102675000D01*
X125675000Y-102500000D02*
X124175000Y-102500000D01*
X124175000Y-102500000D02*
X124000000Y-102675000D01*
%TO.N,/MCU and RX/BOOT0*%
X156925000Y-82900000D02*
X157000000Y-82825000D01*
X156925000Y-85075000D02*
X156925000Y-82900000D01*
X154750000Y-87250000D02*
X156925000Y-85075000D01*
X157000000Y-82825000D02*
X157000000Y-80900000D01*
X153750000Y-95500000D02*
X154750000Y-94500000D01*
X154750000Y-94500000D02*
X154750000Y-91250000D01*
X154750000Y-89750000D02*
X154750000Y-87250000D01*
X149250000Y-97250000D02*
X149250000Y-95837500D01*
%TO.N,/MCU and RX/I2C1_SDA*%
X128250000Y-83500000D02*
X128750000Y-83000000D01*
X145575000Y-90825000D02*
X147500000Y-90825000D01*
X147500000Y-92250000D02*
X147500000Y-90825000D01*
X135599943Y-87500000D02*
X142250000Y-87500000D01*
X125912500Y-83500000D02*
X128250000Y-83500000D01*
X148750000Y-94072055D02*
X148750000Y-93500000D01*
X148250000Y-94572055D02*
X148750000Y-94072055D01*
X126649943Y-78550000D02*
X125637500Y-78550000D01*
X148750000Y-93500000D02*
X147500000Y-92250000D01*
X142250000Y-87500000D02*
X145575000Y-90825000D01*
X148250000Y-95837500D02*
X148250000Y-94572055D01*
X129500000Y-81400057D02*
X135599943Y-87500000D01*
X129500000Y-81400057D02*
X126649943Y-78550000D01*
%TO.N,/MCU and RX/I2C1_SCL*%
X148750000Y-90000000D02*
X145500000Y-90000000D01*
X149000000Y-90825000D02*
X149000000Y-93250000D01*
X148750000Y-94568444D02*
X148750000Y-95837500D01*
X125912500Y-84000000D02*
X130500000Y-84000000D01*
X149000000Y-90825000D02*
X149000000Y-90250000D01*
X126950000Y-80450000D02*
X130500000Y-84000000D01*
X125637500Y-80450000D02*
X126950000Y-80450000D01*
X149000000Y-93250000D02*
X149250000Y-93500000D01*
X145500000Y-90000000D02*
X144000000Y-88500000D01*
X149250000Y-93500000D02*
X149250000Y-94068444D01*
X149000000Y-90250000D02*
X148750000Y-90000000D01*
X149250000Y-94068444D02*
X148750000Y-94568444D01*
%TO.N,/DC Motors/PWM_M1_B*%
X136750000Y-116025000D02*
X135225000Y-117550000D01*
X136750000Y-113950000D02*
X136750000Y-113250000D01*
X138250000Y-113250000D02*
X136750000Y-113250000D01*
X136750000Y-115050000D02*
X136750000Y-116025000D01*
X136750000Y-113250000D02*
X136750000Y-112750000D01*
X135225000Y-117550000D02*
X134750000Y-117550000D01*
X136750000Y-112750000D02*
X145337500Y-104162500D01*
X145337500Y-104162500D02*
X147250000Y-104162500D01*
%TO.N,/DC Motors/PWM_M1_F*%
X136000000Y-113950000D02*
X136000000Y-113250000D01*
X134500000Y-113250000D02*
X136000000Y-113250000D01*
X135950000Y-115050000D02*
X134250000Y-116750000D01*
X136000000Y-113250000D02*
X136000000Y-112000000D01*
X136000000Y-115050000D02*
X135950000Y-115050000D01*
X145250000Y-102750000D02*
X145837500Y-102750000D01*
X134250000Y-116750000D02*
X134250000Y-117550000D01*
X136000000Y-112000000D02*
X145250000Y-102750000D01*
%TO.N,/DC Motors/PWM_M2_F*%
X142250000Y-112225000D02*
X147750000Y-106725000D01*
X142250000Y-117550000D02*
X142250000Y-115050000D01*
X140750000Y-113250000D02*
X142250000Y-113250000D01*
X142250000Y-113250000D02*
X142250000Y-112225000D01*
X142250000Y-113950000D02*
X142250000Y-113250000D01*
X147750000Y-106725000D02*
X147750000Y-104162500D01*
%TO.N,/DC Motors/PWM_M2_B*%
X143000000Y-113250000D02*
X143000000Y-112250000D01*
X143000000Y-112250000D02*
X148250000Y-107000000D01*
X142750000Y-117550000D02*
X142750000Y-115300000D01*
X148250000Y-107000000D02*
X148250000Y-104162500D01*
X143000000Y-113950000D02*
X143000000Y-113250000D01*
X142750000Y-115300000D02*
X143000000Y-115050000D01*
X144500000Y-113250000D02*
X143000000Y-113250000D01*
%TO.N,/DC Motors/PWM_M3_B*%
X150750000Y-108250000D02*
X149250000Y-106750000D01*
X149250000Y-106750000D02*
X149250000Y-104162500D01*
X152250000Y-113250000D02*
X150750000Y-113250000D01*
X150750000Y-113250000D02*
X150750000Y-108250000D01*
X150750000Y-117550000D02*
X150750000Y-113250000D01*
%TO.N,/DC Motors/PWM_M3_F*%
X148750000Y-113250000D02*
X150250000Y-113250000D01*
X150250000Y-113250000D02*
X150250000Y-108500000D01*
X150250000Y-117550000D02*
X150250000Y-113250000D01*
X150250000Y-108500000D02*
X148750000Y-107000000D01*
X148750000Y-107000000D02*
X148750000Y-104162500D01*
%TO.N,/MCU and RX/CH1_PPM*%
X140830000Y-72920000D02*
X140000000Y-73750000D01*
X140000000Y-73750000D02*
X140000000Y-74910000D01*
X143500000Y-72920000D02*
X140830000Y-72920000D01*
X140000000Y-76010000D02*
X140000000Y-77250000D01*
X150750000Y-88000000D02*
X150750000Y-95837500D01*
X140000000Y-77250000D02*
X150750000Y-88000000D01*
%TO.N,/MCU and RX/USB_D-*%
X155293751Y-99225000D02*
X155268751Y-99250000D01*
X155268751Y-99250000D02*
X154162500Y-99250000D01*
X176750000Y-93980000D02*
X176520000Y-93750000D01*
X176520000Y-93750000D02*
X175745000Y-93750000D01*
X176520000Y-94750000D02*
X176750000Y-94520000D01*
X174857499Y-94725000D02*
X167593198Y-94725000D01*
X167593198Y-94725000D02*
X163093198Y-99225000D01*
X175745000Y-94750000D02*
X174882499Y-94750000D01*
X176750000Y-94520000D02*
X176750000Y-93980000D01*
X163093198Y-99225000D02*
X155293751Y-99225000D01*
X174882499Y-94750000D02*
X174857499Y-94725000D01*
X175745000Y-94750000D02*
X176520000Y-94750000D01*
%TO.N,/MCU and RX/SPI2_MISO*%
X156122563Y-101750000D02*
X154162500Y-101750000D01*
X158750000Y-111750000D02*
X162220000Y-115220000D01*
X158750000Y-110250000D02*
X158750000Y-111750000D01*
X158915042Y-104542478D02*
X156122563Y-101750000D01*
X158915042Y-104542479D02*
X158915042Y-104542478D01*
X162220000Y-115220000D02*
X164062500Y-115220000D01*
%TO.N,/MCU and RX/SPI2_SCK*%
X156750000Y-107000000D02*
X162430000Y-112680000D01*
X156750000Y-103500000D02*
X155500000Y-102250000D01*
X162430000Y-112680000D02*
X164062500Y-112680000D01*
X155500000Y-102250000D02*
X154162500Y-102250000D01*
%TO.N,/MCU and RX/USB_D+*%
X155268751Y-98750000D02*
X154162500Y-98750000D01*
X174882499Y-94250000D02*
X174857499Y-94275000D01*
X175745000Y-93250000D02*
X175000000Y-93250000D01*
X155293751Y-98775000D02*
X155268751Y-98750000D01*
X162906802Y-98775000D02*
X155293751Y-98775000D01*
X175745000Y-94250000D02*
X174882499Y-94250000D01*
X167406802Y-94275000D02*
X162906802Y-98775000D01*
X174750000Y-94030000D02*
X174970000Y-94250000D01*
X174857499Y-94275000D02*
X167406802Y-94275000D01*
X175000000Y-93250000D02*
X174750000Y-93500000D01*
X174970000Y-94250000D02*
X175745000Y-94250000D01*
X174750000Y-93500000D02*
X174750000Y-94030000D01*
%TO.N,/MCU and RX/CH2*%
X142250000Y-71250000D02*
X141250000Y-72250000D01*
X144370000Y-71250000D02*
X142250000Y-71250000D01*
X141250000Y-77589892D02*
X151250000Y-87589892D01*
X146040000Y-72920000D02*
X144370000Y-71250000D01*
X141250000Y-76010000D02*
X141250000Y-77589892D01*
X151250000Y-87589892D02*
X151250000Y-95837500D01*
%TO.N,/MCU and RX/SPI2_NSS*%
X164062500Y-111410000D02*
X162135000Y-111410000D01*
X155575000Y-103750000D02*
X154500000Y-103750000D01*
X156000000Y-104175000D02*
X155575000Y-103750000D01*
X154162500Y-103412500D02*
X154162500Y-102750000D01*
X154500000Y-103750000D02*
X154162500Y-103412500D01*
X162135000Y-111410000D02*
X156000000Y-105275000D01*
%TO.N,/MCU and RX/CH3*%
X152750000Y-71250000D02*
X150250000Y-71250000D01*
X151750000Y-87625000D02*
X153750000Y-85625000D01*
X153750000Y-72250000D02*
X152750000Y-71250000D01*
X150250000Y-71250000D02*
X148580000Y-72920000D01*
X153750000Y-85625000D02*
X153750000Y-74250000D01*
X151750000Y-95837500D02*
X151750000Y-87625000D01*
%TO.N,/MCU and RX/NRF24L01_CE*%
X166250000Y-106250000D02*
X166250000Y-109500000D01*
X154162500Y-100750000D02*
X160750000Y-100750000D01*
X165610000Y-110140000D02*
X164062500Y-110140000D01*
X160750000Y-100750000D02*
X166250000Y-106250000D01*
X166250000Y-109500000D02*
X165610000Y-110140000D01*
%TO.N,/MCU and RX/SPI2_MOSI*%
X159500000Y-110587500D02*
X162862500Y-113950000D01*
X156500000Y-101250000D02*
X154162500Y-101250000D01*
X159500000Y-104250000D02*
X156500000Y-101250000D01*
X162862500Y-113950000D02*
X164062500Y-113950000D01*
%TO.N,/MCU and RX/CH4*%
X152250000Y-88000000D02*
X152250000Y-95837500D01*
X151120000Y-72920000D02*
X153420000Y-72920000D01*
X154500000Y-85750000D02*
X152250000Y-88000000D01*
X154500000Y-74000000D02*
X154500000Y-85750000D01*
X153420000Y-72920000D02*
X154500000Y-74000000D01*
%TO.N,/MCU and RX/SWDIO*%
X171040000Y-85960000D02*
X158750000Y-98250000D01*
X158750000Y-98250000D02*
X154162500Y-98250000D01*
X171040000Y-73500000D02*
X171040000Y-85960000D01*
%TO.N,/MCU and RX/SWCLK*%
X152750000Y-95837500D02*
X152750000Y-92500000D01*
X152750000Y-92500000D02*
X165960000Y-79290000D01*
X165960000Y-79290000D02*
X165960000Y-73500000D01*
%TO.N,/MCU and RX/STATUS_LED*%
X142250000Y-98250000D02*
X145837500Y-98250000D01*
X141500000Y-96825000D02*
X141500000Y-97500000D01*
X141500000Y-97500000D02*
X142250000Y-98250000D01*
%TO.N,/MCU and RX/NRF24L01_IRQ*%
X167500000Y-115000000D02*
X166010000Y-116490000D01*
X164250000Y-100250000D02*
X167500000Y-103500000D01*
X154162500Y-100250000D02*
X164250000Y-100250000D01*
X167500000Y-103500000D02*
X167500000Y-115000000D01*
X166010000Y-116490000D02*
X164062500Y-116490000D01*
%TO.N,/MCU and RX/RESET*%
X171750000Y-76750000D02*
X173580000Y-74920000D01*
X171750000Y-77470000D02*
X171750000Y-76750000D01*
X173580000Y-74920000D02*
X173580000Y-73500000D01*
%TD*%
%TA.AperFunction,Conductor*%
%TO.N,+BATT*%
G36*
X171693039Y-123769685D02*
G01*
X171738794Y-123822489D01*
X171750000Y-123874000D01*
X171750000Y-126500000D01*
X169250000Y-126500000D01*
X169250000Y-123874000D01*
X169269685Y-123806961D01*
X169322489Y-123761206D01*
X169374000Y-123750000D01*
X171626000Y-123750000D01*
X171693039Y-123769685D01*
G37*
%TD.AperFunction*%
%TD*%
%TA.AperFunction,Conductor*%
%TO.N,+BATT*%
G36*
X162193039Y-123769685D02*
G01*
X162238794Y-123822489D01*
X162250000Y-123874000D01*
X162250000Y-126500000D01*
X159750000Y-126500000D01*
X159750000Y-123874000D01*
X159769685Y-123806961D01*
X159822489Y-123761206D01*
X159874000Y-123750000D01*
X162126000Y-123750000D01*
X162193039Y-123769685D01*
G37*
%TD.AperFunction*%
%TD*%
%TA.AperFunction,Conductor*%
%TO.N,+BATT*%
G36*
X148193039Y-118519685D02*
G01*
X148238794Y-118572489D01*
X148250000Y-118624000D01*
X148250000Y-119876000D01*
X148230315Y-119943039D01*
X148177511Y-119988794D01*
X148126000Y-120000000D01*
X146749999Y-120000000D01*
X145750000Y-120999999D01*
X145750000Y-121000000D01*
X145750000Y-126500000D01*
X143750000Y-126500000D01*
X143750000Y-121051362D01*
X143769685Y-120984323D01*
X143786319Y-120963681D01*
X146213681Y-118536319D01*
X146275004Y-118502834D01*
X146301362Y-118500000D01*
X148126000Y-118500000D01*
X148193039Y-118519685D01*
G37*
%TD.AperFunction*%
%TD*%
%TA.AperFunction,Conductor*%
%TO.N,GND*%
G36*
X123685390Y-83819407D02*
G01*
X123696682Y-83829051D01*
X123696919Y-83829213D01*
X123696921Y-83829215D01*
X123795420Y-83872707D01*
X123819495Y-83875500D01*
X124355504Y-83875499D01*
X124379580Y-83872707D01*
X124379580Y-83872706D01*
X124386978Y-83871849D01*
X124387291Y-83874550D01*
X124436099Y-83876908D01*
X124483807Y-83915218D01*
X124500000Y-83969477D01*
X124500000Y-84552213D01*
X124481093Y-84610404D01*
X124431593Y-84646368D01*
X124389597Y-84650554D01*
X124380507Y-84649500D01*
X124119499Y-84649500D01*
X124119496Y-84649501D01*
X124095418Y-84652293D01*
X123996922Y-84695784D01*
X123996921Y-84695785D01*
X123920785Y-84771921D01*
X123886242Y-84850154D01*
X123877292Y-84870423D01*
X123874500Y-84894488D01*
X123874500Y-84908011D01*
X123866964Y-84945898D01*
X123850127Y-84986545D01*
X123810390Y-85033070D01*
X123796409Y-85040180D01*
X122848605Y-85431083D01*
X122800306Y-85451004D01*
X122748132Y-85472522D01*
X122710386Y-85480000D01*
X121561628Y-85480000D01*
X121503437Y-85461093D01*
X121491624Y-85451004D01*
X121267757Y-85227137D01*
X121239980Y-85172620D01*
X121238798Y-85154473D01*
X121261843Y-84301825D01*
X121282316Y-84244166D01*
X121332769Y-84209553D01*
X121360807Y-84205500D01*
X122330063Y-84205500D01*
X122343860Y-84205036D01*
X122357116Y-84204144D01*
X122370836Y-84202757D01*
X122458876Y-84190861D01*
X122458879Y-84190860D01*
X122458882Y-84190860D01*
X122485885Y-84185346D01*
X122485884Y-84185346D01*
X122485890Y-84185345D01*
X122511451Y-84178310D01*
X122537495Y-84169222D01*
X122613035Y-84137025D01*
X122637623Y-84124533D01*
X122660400Y-84110966D01*
X122683091Y-84095296D01*
X122747651Y-84043990D01*
X122767555Y-84025928D01*
X122785517Y-84007345D01*
X122802897Y-83986834D01*
X122820185Y-83963491D01*
X122870009Y-83927984D01*
X122880153Y-83925372D01*
X123489833Y-83802452D01*
X123509399Y-83800500D01*
X123539562Y-83800500D01*
X123627199Y-83800500D01*
X123685390Y-83819407D01*
G37*
%TD.AperFunction*%
%TD*%
%TA.AperFunction,Conductor*%
%TO.N,+3V3*%
G36*
X164260231Y-69001347D02*
G01*
X164265313Y-69002016D01*
X164366489Y-69015336D01*
X164391447Y-69022023D01*
X164487960Y-69062000D01*
X164510336Y-69074918D01*
X164593216Y-69138515D01*
X164611484Y-69156783D01*
X164665292Y-69226906D01*
X164675079Y-69239660D01*
X164688001Y-69262042D01*
X164727975Y-69358548D01*
X164734664Y-69383512D01*
X164749153Y-69493566D01*
X164750000Y-69506488D01*
X164750000Y-74493511D01*
X164749153Y-74506432D01*
X164749153Y-74506433D01*
X164734664Y-74616487D01*
X164727975Y-74641451D01*
X164688001Y-74737957D01*
X164675079Y-74760339D01*
X164611487Y-74843213D01*
X164593213Y-74861487D01*
X164510339Y-74925079D01*
X164487957Y-74938001D01*
X164391451Y-74977975D01*
X164366487Y-74984664D01*
X164256434Y-74999153D01*
X164243512Y-75000000D01*
X155506488Y-75000000D01*
X155493566Y-74999153D01*
X155383512Y-74984664D01*
X155358548Y-74977975D01*
X155262042Y-74938001D01*
X155239660Y-74925079D01*
X155156783Y-74861484D01*
X155138515Y-74843216D01*
X155074918Y-74760336D01*
X155062000Y-74737960D01*
X155022023Y-74641447D01*
X155015336Y-74616489D01*
X155000847Y-74506432D01*
X155000000Y-74493511D01*
X155000000Y-71000001D01*
X155000000Y-71000000D01*
X154999999Y-71000000D01*
X152944515Y-71000000D01*
X152895016Y-70986737D01*
X152865990Y-70969979D01*
X152865988Y-70969978D01*
X152789564Y-70949500D01*
X152789562Y-70949500D01*
X150289562Y-70949500D01*
X150210438Y-70949500D01*
X150134012Y-70969978D01*
X150134011Y-70969978D01*
X150134009Y-70969979D01*
X150113661Y-70981727D01*
X150104985Y-70986736D01*
X150055486Y-71000000D01*
X144564515Y-71000000D01*
X144515016Y-70986737D01*
X144485990Y-70969979D01*
X144485988Y-70969978D01*
X144409564Y-70949500D01*
X144409562Y-70949500D01*
X142289562Y-70949500D01*
X142210438Y-70949500D01*
X142134012Y-70969978D01*
X142134011Y-70969978D01*
X142134009Y-70969979D01*
X142113661Y-70981727D01*
X142104985Y-70986736D01*
X142055486Y-71000000D01*
X135500001Y-71000000D01*
X135500000Y-71000000D01*
X135500000Y-71000001D01*
X135500000Y-73993511D01*
X135499153Y-74006432D01*
X135499153Y-74006433D01*
X135484664Y-74116487D01*
X135477975Y-74141451D01*
X135438001Y-74237957D01*
X135425079Y-74260339D01*
X135361487Y-74343213D01*
X135343213Y-74361487D01*
X135260339Y-74425079D01*
X135237957Y-74438001D01*
X135141451Y-74477975D01*
X135116487Y-74484664D01*
X135006434Y-74499153D01*
X134993512Y-74500000D01*
X133506488Y-74500000D01*
X133493566Y-74499153D01*
X133383512Y-74484664D01*
X133358548Y-74477975D01*
X133262042Y-74438001D01*
X133239660Y-74425079D01*
X133156783Y-74361484D01*
X133138515Y-74343216D01*
X133074918Y-74260336D01*
X133062000Y-74237960D01*
X133022023Y-74141447D01*
X133015336Y-74116489D01*
X133000847Y-74006432D01*
X133000000Y-73993511D01*
X133000000Y-72250001D01*
X133000000Y-72250000D01*
X132999999Y-72250000D01*
X124500001Y-72250000D01*
X124500000Y-72250000D01*
X124500000Y-77500000D01*
X117000500Y-77500000D01*
X117000500Y-72002585D01*
X117000636Y-71997404D01*
X117006095Y-71893240D01*
X117007566Y-71865174D01*
X117599500Y-71865174D01*
X117599500Y-72134825D01*
X117629687Y-72402728D01*
X117629688Y-72402734D01*
X117689684Y-72665594D01*
X117778732Y-72920077D01*
X117778733Y-72920080D01*
X117895708Y-73162982D01*
X117895714Y-73162994D01*
X117895716Y-73162997D01*
X118039162Y-73391289D01*
X118207266Y-73602085D01*
X118397915Y-73792734D01*
X118608711Y-73960838D01*
X118837003Y-74104284D01*
X118837005Y-74104285D01*
X118837017Y-74104291D01*
X119016429Y-74190691D01*
X119079921Y-74221267D01*
X119191574Y-74260336D01*
X119334405Y-74310315D01*
X119334408Y-74310315D01*
X119334409Y-74310316D01*
X119597268Y-74370312D01*
X119669515Y-74378452D01*
X119865174Y-74400499D01*
X119865190Y-74400499D01*
X119865191Y-74400500D01*
X119865192Y-74400500D01*
X120134808Y-74400500D01*
X120134809Y-74400500D01*
X120134810Y-74400499D01*
X120134825Y-74400499D01*
X120306402Y-74381165D01*
X120402732Y-74370312D01*
X120665591Y-74310316D01*
X120920079Y-74221267D01*
X121162997Y-74104284D01*
X121391289Y-73960838D01*
X121602085Y-73792734D01*
X121792734Y-73602085D01*
X121960838Y-73391289D01*
X122104284Y-73162997D01*
X122221267Y-72920079D01*
X122310316Y-72665591D01*
X122370312Y-72402732D01*
X122387521Y-72250000D01*
X122400499Y-72134825D01*
X122400500Y-72134808D01*
X122400500Y-71865191D01*
X122400499Y-71865174D01*
X122370312Y-71597271D01*
X122370311Y-71597265D01*
X122354952Y-71529974D01*
X122310316Y-71334409D01*
X122221267Y-71079921D01*
X122104284Y-70837003D01*
X121960838Y-70608711D01*
X121792734Y-70397915D01*
X121602085Y-70207266D01*
X121391289Y-70039162D01*
X121162997Y-69895716D01*
X121162994Y-69895714D01*
X121162982Y-69895708D01*
X120920080Y-69778733D01*
X120920077Y-69778732D01*
X120665594Y-69689684D01*
X120402734Y-69629688D01*
X120402728Y-69629687D01*
X120134825Y-69599500D01*
X120134809Y-69599500D01*
X119865191Y-69599500D01*
X119865174Y-69599500D01*
X119597271Y-69629687D01*
X119597265Y-69629688D01*
X119334405Y-69689684D01*
X119079922Y-69778732D01*
X119079919Y-69778733D01*
X118837017Y-69895708D01*
X118837005Y-69895714D01*
X118608710Y-70039162D01*
X118397916Y-70207265D01*
X118207265Y-70397916D01*
X118039162Y-70608710D01*
X117895714Y-70837005D01*
X117895708Y-70837017D01*
X117778733Y-71079919D01*
X117778732Y-71079922D01*
X117689684Y-71334405D01*
X117629688Y-71597265D01*
X117629687Y-71597271D01*
X117599500Y-71865174D01*
X117007566Y-71865174D01*
X117015223Y-71719059D01*
X117015705Y-71713204D01*
X117022880Y-71649524D01*
X117023463Y-71645227D01*
X117061982Y-71402022D01*
X117063237Y-71395523D01*
X117076196Y-71338748D01*
X117077060Y-71335263D01*
X117142531Y-71090923D01*
X117144693Y-71083915D01*
X117160076Y-71039950D01*
X117161032Y-71037344D01*
X117256111Y-70789653D01*
X117259315Y-70782234D01*
X117269899Y-70760257D01*
X117270718Y-70758602D01*
X117400019Y-70504836D01*
X117405168Y-70495920D01*
X117570536Y-70241276D01*
X117576606Y-70232921D01*
X117767676Y-69996969D01*
X117774590Y-69989289D01*
X117989289Y-69774590D01*
X117996969Y-69767676D01*
X118232921Y-69576606D01*
X118241276Y-69570536D01*
X118495920Y-69405168D01*
X118504836Y-69400019D01*
X118758602Y-69270718D01*
X118760257Y-69269899D01*
X118782234Y-69259315D01*
X118789653Y-69256111D01*
X119037336Y-69161035D01*
X119039958Y-69160074D01*
X119083901Y-69144697D01*
X119090936Y-69142527D01*
X119335277Y-69077056D01*
X119338723Y-69076201D01*
X119395535Y-69063234D01*
X119402005Y-69061985D01*
X119645241Y-69023461D01*
X119649510Y-69022882D01*
X119713210Y-69015705D01*
X119719053Y-69015224D01*
X119997405Y-69000635D01*
X120002586Y-69000500D01*
X164247310Y-69000500D01*
X164260231Y-69001347D01*
G37*
%TD.AperFunction*%
%TD*%
%TA.AperFunction,Conductor*%
%TO.N,+BATT*%
G36*
X140193039Y-118519685D02*
G01*
X140238794Y-118572489D01*
X140250000Y-118624000D01*
X140250000Y-119876000D01*
X140230315Y-119943039D01*
X140177511Y-119988794D01*
X140126000Y-120000000D01*
X138749999Y-120000000D01*
X137750000Y-120999999D01*
X137750000Y-121000000D01*
X137750000Y-126500000D01*
X135750000Y-126500000D01*
X135750000Y-121051362D01*
X135769685Y-120984323D01*
X135786319Y-120963681D01*
X138213681Y-118536319D01*
X138275004Y-118502834D01*
X138301362Y-118500000D01*
X140126000Y-118500000D01*
X140193039Y-118519685D01*
G37*
%TD.AperFunction*%
%TD*%
%TA.AperFunction,Conductor*%
%TO.N,+3V3*%
G36*
X139250000Y-100000000D02*
G01*
X140770000Y-101500000D01*
X143473643Y-101500000D01*
X143492794Y-101501869D01*
X143559064Y-101514937D01*
X143594493Y-101529474D01*
X143642623Y-101561287D01*
X143669884Y-101588187D01*
X143702332Y-101635883D01*
X143717344Y-101671124D01*
X143731292Y-101737209D01*
X143733417Y-101756334D01*
X143745166Y-102637528D01*
X143727036Y-102695966D01*
X143716179Y-102708851D01*
X143504528Y-102920503D01*
X143450011Y-102948281D01*
X143434524Y-102949500D01*
X135990816Y-102949500D01*
X135935799Y-102932805D01*
X135934868Y-102932183D01*
X135919883Y-102919883D01*
X134580116Y-101580116D01*
X134567804Y-101565113D01*
X134529970Y-101508490D01*
X134515188Y-101472802D01*
X134501902Y-101406007D01*
X134500000Y-101386694D01*
X134500000Y-96813570D01*
X134518907Y-96755379D01*
X134521599Y-96751844D01*
X134551649Y-96714163D01*
X134572000Y-96625000D01*
X134572000Y-96599000D01*
X134590907Y-96540809D01*
X134640407Y-96504845D01*
X134671000Y-96500000D01*
X134749999Y-96500000D01*
X139250000Y-96500000D01*
X139250000Y-100000000D01*
G37*
%TD.AperFunction*%
%TD*%
%TA.AperFunction,Conductor*%
%TO.N,+BATT*%
G36*
X132193039Y-118519685D02*
G01*
X132238794Y-118572489D01*
X132250000Y-118624000D01*
X132250000Y-119876000D01*
X132230315Y-119943039D01*
X132177511Y-119988794D01*
X132126000Y-120000000D01*
X130749999Y-120000000D01*
X129750000Y-120999999D01*
X129750000Y-121000000D01*
X129750000Y-126500000D01*
X127750000Y-122500000D01*
X127750000Y-121051362D01*
X127769685Y-120984323D01*
X127786319Y-120963681D01*
X130213681Y-118536319D01*
X130275004Y-118502834D01*
X130301362Y-118500000D01*
X132126000Y-118500000D01*
X132193039Y-118519685D01*
G37*
%TD.AperFunction*%
%TD*%
%TA.AperFunction,Conductor*%
%TO.N,+BATT*%
G36*
X122500000Y-95750000D02*
G01*
X119500000Y-95725000D01*
X119500000Y-121250000D01*
X117000500Y-122499750D01*
X117000500Y-93124000D01*
X117020185Y-93056961D01*
X117072989Y-93011206D01*
X117124500Y-93000000D01*
X122500000Y-93000000D01*
X122500000Y-95750000D01*
G37*
%TD.AperFunction*%
%TD*%
%TA.AperFunction,Conductor*%
%TO.N,+BATT*%
G36*
X120750000Y-122500000D02*
G01*
X123432242Y-122500000D01*
X123434108Y-122500500D01*
X123565892Y-122500500D01*
X123567758Y-122500000D01*
X127750000Y-122500000D01*
X129750000Y-126500000D01*
X171750000Y-126500000D01*
X171750000Y-128875500D01*
X171730315Y-128942539D01*
X171677511Y-128988294D01*
X171626000Y-128999500D01*
X120003246Y-128999500D01*
X119996757Y-128999330D01*
X119986676Y-128998801D01*
X119719816Y-128984814D01*
X119712424Y-128984204D01*
X119650142Y-128977187D01*
X119644627Y-128976440D01*
X119402872Y-128938150D01*
X119394679Y-128936569D01*
X119366044Y-128930033D01*
X119339245Y-128923917D01*
X119334766Y-128922806D01*
X119091860Y-128857719D01*
X119082999Y-128854985D01*
X119040369Y-128840068D01*
X119036887Y-128838791D01*
X118790643Y-128744268D01*
X118781277Y-128740223D01*
X118760691Y-128730309D01*
X118758199Y-128729075D01*
X118506036Y-128600591D01*
X118494796Y-128594101D01*
X118242391Y-128430187D01*
X118231890Y-128422558D01*
X117997989Y-128233149D01*
X117988344Y-128224464D01*
X117775535Y-128011655D01*
X117766850Y-128002010D01*
X117577441Y-127768109D01*
X117569812Y-127757608D01*
X117468814Y-127602085D01*
X117405896Y-127505199D01*
X117399408Y-127493963D01*
X117333223Y-127364068D01*
X117270900Y-127241754D01*
X117269689Y-127239307D01*
X117259775Y-127218721D01*
X117255739Y-127209378D01*
X117161195Y-126963079D01*
X117159930Y-126959629D01*
X117145013Y-126916999D01*
X117142284Y-126908157D01*
X117077179Y-126665181D01*
X117076100Y-126660830D01*
X117063423Y-126605289D01*
X117061848Y-126597126D01*
X117046465Y-126500000D01*
X117023555Y-126355353D01*
X117022811Y-126349856D01*
X117015794Y-126287574D01*
X117015184Y-126280181D01*
X117000670Y-126003243D01*
X117000500Y-125996753D01*
X117000500Y-125865186D01*
X117599500Y-125865186D01*
X117599500Y-126134813D01*
X117629686Y-126402719D01*
X117629688Y-126402731D01*
X117689684Y-126665594D01*
X117689687Y-126665602D01*
X117778734Y-126920082D01*
X117895714Y-127162994D01*
X117895716Y-127162997D01*
X118039162Y-127391289D01*
X118207266Y-127602085D01*
X118397915Y-127792734D01*
X118608711Y-127960838D01*
X118837003Y-128104284D01*
X119079921Y-128221267D01*
X119271049Y-128288145D01*
X119334397Y-128310312D01*
X119334405Y-128310315D01*
X119334408Y-128310315D01*
X119334409Y-128310316D01*
X119597268Y-128370312D01*
X119865187Y-128400499D01*
X119865188Y-128400500D01*
X119865191Y-128400500D01*
X120134812Y-128400500D01*
X120134812Y-128400499D01*
X120402732Y-128370312D01*
X120665591Y-128310316D01*
X120920079Y-128221267D01*
X121162997Y-128104284D01*
X121391289Y-127960838D01*
X121602085Y-127792734D01*
X121792734Y-127602085D01*
X121960838Y-127391289D01*
X122104284Y-127162997D01*
X122221267Y-126920079D01*
X122310316Y-126665591D01*
X122370312Y-126402732D01*
X122400500Y-126134809D01*
X122400500Y-125865191D01*
X122370312Y-125597268D01*
X122310316Y-125334409D01*
X122221267Y-125079921D01*
X122104284Y-124837003D01*
X121960838Y-124608711D01*
X121792734Y-124397915D01*
X121602085Y-124207266D01*
X121391289Y-124039162D01*
X121162997Y-123895716D01*
X121162994Y-123895714D01*
X120920082Y-123778734D01*
X120665602Y-123689687D01*
X120665594Y-123689684D01*
X120468446Y-123644687D01*
X120402732Y-123629688D01*
X120402728Y-123629687D01*
X120402719Y-123629686D01*
X120134813Y-123599500D01*
X120134809Y-123599500D01*
X119865191Y-123599500D01*
X119865186Y-123599500D01*
X119597280Y-123629686D01*
X119597268Y-123629688D01*
X119334405Y-123689684D01*
X119334397Y-123689687D01*
X119079917Y-123778734D01*
X118837005Y-123895714D01*
X118608712Y-124039161D01*
X118397915Y-124207265D01*
X118207265Y-124397915D01*
X118039161Y-124608712D01*
X117895714Y-124837005D01*
X117778734Y-125079917D01*
X117689687Y-125334397D01*
X117689684Y-125334405D01*
X117629688Y-125597268D01*
X117629686Y-125597280D01*
X117599500Y-125865186D01*
X117000500Y-125865186D01*
X117000500Y-122499750D01*
X119500000Y-121250000D01*
X120750000Y-122500000D01*
G37*
%TD.AperFunction*%
%TD*%
%TA.AperFunction,Conductor*%
%TO.N,GND*%
G36*
X125505208Y-81518907D02*
G01*
X125529390Y-81544085D01*
X125983373Y-82225059D01*
X126000000Y-82279974D01*
X126000000Y-83025500D01*
X125981093Y-83083691D01*
X125931593Y-83119655D01*
X125901000Y-83124500D01*
X125644499Y-83124500D01*
X125644496Y-83124501D01*
X125620418Y-83127293D01*
X125521922Y-83170784D01*
X125521921Y-83170784D01*
X125521921Y-83170785D01*
X125471700Y-83221005D01*
X125417186Y-83248781D01*
X125401699Y-83250000D01*
X124719478Y-83250000D01*
X124661287Y-83231093D01*
X124625323Y-83181593D01*
X124624246Y-83137255D01*
X124621849Y-83136977D01*
X124625499Y-83105511D01*
X124625500Y-83105505D01*
X124625499Y-82569496D01*
X124622707Y-82545420D01*
X124579215Y-82446921D01*
X124528994Y-82396700D01*
X124525369Y-82389585D01*
X124518907Y-82384890D01*
X124511743Y-82362841D01*
X124501219Y-82342186D01*
X124500000Y-82326699D01*
X124500000Y-82279974D01*
X124516627Y-82225059D01*
X124970610Y-81544085D01*
X125018620Y-81506155D01*
X125052983Y-81500000D01*
X125447017Y-81500000D01*
X125505208Y-81518907D01*
G37*
%TD.AperFunction*%
%TD*%
%TA.AperFunction,Conductor*%
%TO.N,+3V3*%
G36*
X147459191Y-92768907D02*
G01*
X147495155Y-92818407D01*
X147500000Y-92849000D01*
X147500000Y-93856568D01*
X147499320Y-93861727D01*
X147499758Y-93863481D01*
X147499092Y-93872991D01*
X147486263Y-93920871D01*
X147486263Y-94052655D01*
X147486463Y-94053401D01*
X147486021Y-94059718D01*
X147473001Y-94102303D01*
X147469978Y-94107537D01*
X147469977Y-94107540D01*
X147449500Y-94183961D01*
X147449500Y-94986567D01*
X147432815Y-95041569D01*
X147415486Y-95067501D01*
X147415486Y-95067503D01*
X147415485Y-95067505D01*
X147403469Y-95127911D01*
X147399500Y-95147866D01*
X147399500Y-96527129D01*
X147399501Y-96527136D01*
X147415484Y-96607494D01*
X147415486Y-96607499D01*
X147460721Y-96675197D01*
X147477330Y-96734085D01*
X147456152Y-96791488D01*
X147447457Y-96801141D01*
X146788718Y-97442313D01*
X146733831Y-97469351D01*
X146673534Y-97458964D01*
X146664665Y-97453685D01*
X146607497Y-97415486D01*
X146607496Y-97415485D01*
X146607495Y-97415485D01*
X146527133Y-97399500D01*
X146527132Y-97399500D01*
X145147870Y-97399500D01*
X145147863Y-97399501D01*
X145067505Y-97415484D01*
X145067503Y-97415485D01*
X144982287Y-97472426D01*
X144927780Y-97489110D01*
X142849495Y-97499502D01*
X142791210Y-97480886D01*
X142755000Y-97431566D01*
X142750000Y-97400503D01*
X142750000Y-96099000D01*
X142768907Y-96040809D01*
X142818407Y-96004845D01*
X142849000Y-96000000D01*
X144249999Y-96000000D01*
X144250000Y-96000000D01*
X146000000Y-94230000D01*
X146000000Y-92849000D01*
X146018907Y-92790809D01*
X146068407Y-92754845D01*
X146099000Y-92750000D01*
X147401000Y-92750000D01*
X147459191Y-92768907D01*
G37*
%TD.AperFunction*%
%TD*%
%TA.AperFunction,Conductor*%
%TO.N,+BATT*%
G36*
X134008059Y-93001061D02*
G01*
X134113223Y-93014906D01*
X134144491Y-93023284D01*
X134234918Y-93060740D01*
X134262952Y-93076925D01*
X134340602Y-93136509D01*
X134363491Y-93159398D01*
X134423074Y-93237048D01*
X134439259Y-93265081D01*
X134476715Y-93355508D01*
X134485093Y-93386775D01*
X134498939Y-93491939D01*
X134500000Y-93508125D01*
X134500000Y-95991874D01*
X134498939Y-96008060D01*
X134485093Y-96113224D01*
X134476715Y-96144491D01*
X134439259Y-96234918D01*
X134423074Y-96262951D01*
X134363491Y-96340601D01*
X134340601Y-96363491D01*
X134262951Y-96423074D01*
X134234918Y-96439259D01*
X134144491Y-96476715D01*
X134113224Y-96485093D01*
X134019398Y-96497446D01*
X134008058Y-96498939D01*
X133991874Y-96500000D01*
X126250000Y-96500000D01*
X126250000Y-99741874D01*
X126248939Y-99758059D01*
X126248939Y-99758060D01*
X126235093Y-99863224D01*
X126226715Y-99894491D01*
X126189259Y-99984918D01*
X126173074Y-100012951D01*
X126113491Y-100090601D01*
X126090601Y-100113491D01*
X126012951Y-100173074D01*
X125984918Y-100189259D01*
X125894491Y-100226715D01*
X125863224Y-100235093D01*
X125769398Y-100247446D01*
X125758058Y-100248939D01*
X125741874Y-100250000D01*
X123008126Y-100250000D01*
X122991941Y-100248939D01*
X122978917Y-100247224D01*
X122886775Y-100235093D01*
X122855508Y-100226715D01*
X122765081Y-100189259D01*
X122737048Y-100173074D01*
X122659398Y-100113491D01*
X122636508Y-100090601D01*
X122576925Y-100012951D01*
X122560740Y-99984918D01*
X122523284Y-99894491D01*
X122514906Y-99863223D01*
X122501061Y-99758059D01*
X122500000Y-99741874D01*
X122500000Y-95750000D01*
X122500000Y-93000000D01*
X133991874Y-93000000D01*
X134008059Y-93001061D01*
G37*
%TD.AperFunction*%
%TD*%
%TA.AperFunction,Conductor*%
%TO.N,+3V3*%
G36*
X124500000Y-78993511D02*
G01*
X124499153Y-79006433D01*
X124484664Y-79116487D01*
X124477975Y-79141451D01*
X124438001Y-79237957D01*
X124425079Y-79260339D01*
X124361487Y-79343213D01*
X124343213Y-79361487D01*
X124260339Y-79425079D01*
X124237957Y-79438001D01*
X124141451Y-79477975D01*
X124116487Y-79484664D01*
X124006434Y-79499153D01*
X123993512Y-79500000D01*
X120750000Y-79500000D01*
X120750000Y-82250000D01*
X122316735Y-82250000D01*
X122329656Y-82250847D01*
X122338331Y-82251989D01*
X122420764Y-82262841D01*
X122445714Y-82269526D01*
X122524569Y-82302188D01*
X122546949Y-82315110D01*
X122614659Y-82367065D01*
X122632934Y-82385340D01*
X122684889Y-82453050D01*
X122697811Y-82475431D01*
X122730471Y-82554280D01*
X122737159Y-82579239D01*
X122749153Y-82670343D01*
X122750000Y-82683265D01*
X122750000Y-83570406D01*
X122749196Y-83582994D01*
X122737687Y-83672773D01*
X122731336Y-83697137D01*
X122699925Y-83775211D01*
X122687636Y-83797182D01*
X122637759Y-83864524D01*
X122619797Y-83883107D01*
X122555237Y-83934413D01*
X122532460Y-83947980D01*
X122456920Y-83980177D01*
X122431359Y-83987212D01*
X122343319Y-83999108D01*
X122330063Y-84000000D01*
X120750000Y-84000000D01*
X120750000Y-85000000D01*
X121500000Y-85750000D01*
X123500000Y-85750000D01*
X123999999Y-85750000D01*
X124000000Y-85750000D01*
X124000000Y-85256488D01*
X124000847Y-85243567D01*
X124002511Y-85230923D01*
X124015336Y-85133508D01*
X124022022Y-85108554D01*
X124062001Y-85012035D01*
X124074917Y-84989664D01*
X124112722Y-84940396D01*
X124132802Y-84914230D01*
X124183227Y-84879575D01*
X124211341Y-84875499D01*
X124275500Y-84875499D01*
X124333691Y-84894406D01*
X124369655Y-84943906D01*
X124374500Y-84974499D01*
X124374500Y-85430500D01*
X124374501Y-85430503D01*
X124377292Y-85454576D01*
X124377293Y-85454580D01*
X124420785Y-85553079D01*
X124496921Y-85629215D01*
X124595420Y-85672707D01*
X124619495Y-85675500D01*
X124880504Y-85675499D01*
X124904580Y-85672707D01*
X124960012Y-85648230D01*
X125020879Y-85642022D01*
X125039986Y-85648230D01*
X125095420Y-85672707D01*
X125119495Y-85675500D01*
X125380504Y-85675499D01*
X125404580Y-85672707D01*
X125460012Y-85648230D01*
X125520879Y-85642022D01*
X125539986Y-85648230D01*
X125595420Y-85672707D01*
X125619495Y-85675500D01*
X125880504Y-85675499D01*
X125904580Y-85672707D01*
X126003079Y-85629215D01*
X126079215Y-85553079D01*
X126122707Y-85454580D01*
X126125500Y-85430505D01*
X126125499Y-84894496D01*
X126122707Y-84870420D01*
X126079215Y-84771921D01*
X126003079Y-84695785D01*
X125904580Y-84652293D01*
X125904577Y-84652292D01*
X125904576Y-84652292D01*
X125880511Y-84649500D01*
X125849000Y-84649500D01*
X125834088Y-84644655D01*
X125818407Y-84644655D01*
X125805721Y-84635438D01*
X125790809Y-84630593D01*
X125781592Y-84617907D01*
X125768907Y-84608691D01*
X125764061Y-84593778D01*
X125754845Y-84581093D01*
X125750000Y-84550500D01*
X125750000Y-84509751D01*
X125751902Y-84490437D01*
X125758914Y-84455185D01*
X125788811Y-84401801D01*
X125844376Y-84376185D01*
X125856001Y-84375499D01*
X126180504Y-84375499D01*
X126204580Y-84372707D01*
X126303079Y-84329215D01*
X126303081Y-84329212D01*
X126310648Y-84324030D01*
X126311392Y-84325116D01*
X126357314Y-84301719D01*
X126372801Y-84300500D01*
X129233397Y-84300500D01*
X129271278Y-84308034D01*
X129274796Y-84309491D01*
X129280849Y-84311998D01*
X129303233Y-84324921D01*
X129391293Y-84392492D01*
X129401030Y-84401030D01*
X135000000Y-90000000D01*
X138743512Y-90000000D01*
X138756433Y-90000847D01*
X138771739Y-90002862D01*
X138866489Y-90015336D01*
X138891447Y-90022023D01*
X138987960Y-90062000D01*
X139010336Y-90074918D01*
X139093216Y-90138515D01*
X139111484Y-90156783D01*
X139175079Y-90239660D01*
X139188001Y-90262042D01*
X139227975Y-90358548D01*
X139234664Y-90383512D01*
X139249153Y-90493566D01*
X139250000Y-90506488D01*
X139250000Y-96500000D01*
X134750000Y-96500000D01*
X134750000Y-95466510D01*
X136324500Y-95466510D01*
X136324500Y-95983489D01*
X136340281Y-96083125D01*
X136340283Y-96083132D01*
X136401470Y-96203217D01*
X136401472Y-96203220D01*
X136496780Y-96298528D01*
X136496782Y-96298529D01*
X136616867Y-96359716D01*
X136616869Y-96359716D01*
X136616874Y-96359719D01*
X136692541Y-96371703D01*
X136716510Y-96375500D01*
X136716512Y-96375500D01*
X137283490Y-96375500D01*
X137304885Y-96372111D01*
X137383126Y-96359719D01*
X137503220Y-96298528D01*
X137598528Y-96203220D01*
X137659719Y-96083126D01*
X137675500Y-95983488D01*
X137675500Y-95466512D01*
X137659719Y-95366874D01*
X137659716Y-95366869D01*
X137659716Y-95366867D01*
X137598529Y-95246782D01*
X137598528Y-95246780D01*
X137523403Y-95171655D01*
X137495628Y-95117141D01*
X137497783Y-95076028D01*
X137500500Y-95065892D01*
X137500500Y-94934108D01*
X137466392Y-94806814D01*
X137466390Y-94806811D01*
X137466390Y-94806809D01*
X137400503Y-94692690D01*
X137400501Y-94692688D01*
X137400500Y-94692686D01*
X137307314Y-94599500D01*
X137307311Y-94599498D01*
X137307309Y-94599496D01*
X137193189Y-94533609D01*
X137193191Y-94533609D01*
X137143799Y-94520375D01*
X137065892Y-94499500D01*
X136934108Y-94499500D01*
X136856200Y-94520375D01*
X136806809Y-94533609D01*
X136692690Y-94599496D01*
X136599496Y-94692690D01*
X136533609Y-94806809D01*
X136533608Y-94806814D01*
X136499500Y-94934108D01*
X136499500Y-95065892D01*
X136502215Y-95076025D01*
X136502217Y-95076032D01*
X136499014Y-95137134D01*
X136476594Y-95171657D01*
X136401473Y-95246778D01*
X136401470Y-95246782D01*
X136340283Y-95366867D01*
X136340281Y-95366874D01*
X136324500Y-95466510D01*
X134750000Y-95466510D01*
X134750000Y-92750000D01*
X134749999Y-92750000D01*
X117506488Y-92750000D01*
X117493566Y-92749153D01*
X117383512Y-92734664D01*
X117358548Y-92727975D01*
X117262042Y-92688001D01*
X117239660Y-92675079D01*
X117156783Y-92611484D01*
X117138515Y-92593216D01*
X117074918Y-92510336D01*
X117062000Y-92487960D01*
X117022023Y-92391447D01*
X117015336Y-92366489D01*
X117001347Y-92260229D01*
X117000500Y-92247308D01*
X117000500Y-86934108D01*
X123749500Y-86934108D01*
X123749500Y-87065892D01*
X123779579Y-87178151D01*
X123783609Y-87193190D01*
X123849496Y-87307309D01*
X123849498Y-87307311D01*
X123849500Y-87307314D01*
X123942686Y-87400500D01*
X123942688Y-87400501D01*
X123942690Y-87400503D01*
X124056810Y-87466390D01*
X124056808Y-87466390D01*
X124056812Y-87466391D01*
X124056814Y-87466392D01*
X124184108Y-87500500D01*
X124184110Y-87500500D01*
X124315890Y-87500500D01*
X124315892Y-87500500D01*
X124443186Y-87466392D01*
X124447741Y-87463761D01*
X124497239Y-87450500D01*
X124563942Y-87450500D01*
X124622133Y-87469407D01*
X124646109Y-87497480D01*
X124646890Y-87496914D01*
X124651468Y-87503215D01*
X124651470Y-87503217D01*
X124651472Y-87503220D01*
X124746780Y-87598528D01*
X124746782Y-87598529D01*
X124866867Y-87659716D01*
X124866869Y-87659716D01*
X124866874Y-87659719D01*
X124942541Y-87671703D01*
X124966510Y-87675500D01*
X124966512Y-87675500D01*
X125483490Y-87675500D01*
X125504885Y-87672111D01*
X125583126Y-87659719D01*
X125703220Y-87598528D01*
X125798528Y-87503220D01*
X125859719Y-87383126D01*
X125875500Y-87283488D01*
X125875500Y-86716512D01*
X125859719Y-86616874D01*
X125859716Y-86616869D01*
X125859716Y-86616867D01*
X125798529Y-86496782D01*
X125798528Y-86496780D01*
X125703220Y-86401472D01*
X125703217Y-86401470D01*
X125583132Y-86340283D01*
X125583127Y-86340281D01*
X125583126Y-86340281D01*
X125549913Y-86335020D01*
X125483490Y-86324500D01*
X125483488Y-86324500D01*
X124966512Y-86324500D01*
X124966510Y-86324500D01*
X124866874Y-86340281D01*
X124866867Y-86340283D01*
X124746782Y-86401470D01*
X124651468Y-86496784D01*
X124646890Y-86503086D01*
X124645512Y-86502084D01*
X124635761Y-86511835D01*
X124622133Y-86530593D01*
X124614534Y-86533061D01*
X124608886Y-86538710D01*
X124563942Y-86549500D01*
X124497239Y-86549500D01*
X124447741Y-86536238D01*
X124443186Y-86533608D01*
X124431934Y-86530593D01*
X124315892Y-86499500D01*
X124184108Y-86499500D01*
X124106200Y-86520375D01*
X124056809Y-86533609D01*
X123942690Y-86599496D01*
X123849496Y-86692690D01*
X123783609Y-86806809D01*
X123783608Y-86806814D01*
X123749500Y-86934108D01*
X117000500Y-86934108D01*
X117000500Y-77500000D01*
X124500000Y-77500000D01*
X124500000Y-78993511D01*
G37*
%TD.AperFunction*%
%TD*%
M02*
