%TF.GenerationSoftware,KiCad,Pcbnew,9.0.2*%
%TF.CreationDate,2025-06-25T14:47:54+02:00*%
%TF.ProjectId,ant control board v2,616e7420-636f-46e7-9472-6f6c20626f61,1.0*%
%TF.SameCoordinates,Original*%
%TF.FileFunction,Soldermask,Bot*%
%TF.FilePolarity,Negative*%
%FSLAX46Y46*%
G04 Gerber Fmt 4.6, Leading zero omitted, Abs format (unit mm)*
G04 Created by KiCad (PCBNEW 9.0.2) date 2025-06-25 14:47:54*
%MOMM*%
%LPD*%
G01*
G04 APERTURE LIST*
%ADD10R,1.500000X1.500000*%
%ADD11R,1.700000X1.700000*%
%ADD12C,1.700000*%
%ADD13C,0.700000*%
%ADD14C,4.400000*%
%ADD15C,2.000000*%
%ADD16C,0.650000*%
%ADD17O,2.500000X1.250000*%
G04 APERTURE END LIST*
D10*
%TO.C,TP9*%
X160250000Y-121000000D03*
%TD*%
%TO.C,TP2*%
X131000000Y-100000000D03*
%TD*%
D11*
%TO.C,J5*%
X147725000Y-125000000D03*
D12*
X150265000Y-125000000D03*
%TD*%
D13*
%TO.C,H3*%
X177350000Y-126000000D03*
X177833274Y-124833274D03*
X177833274Y-127166726D03*
X179000000Y-124350000D03*
D14*
X179000000Y-126000000D03*
D13*
X179000000Y-127650000D03*
X180166726Y-124833274D03*
X180166726Y-127166726D03*
X180650000Y-126000000D03*
%TD*%
D11*
%TO.C,J3*%
X131725000Y-125000000D03*
D12*
X134265000Y-125000000D03*
%TD*%
D10*
%TO.C,TP10*%
X169000000Y-121000000D03*
%TD*%
D11*
%TO.C,J10*%
X129200000Y-73475000D03*
D12*
X131740000Y-73475000D03*
X134280000Y-73475000D03*
X136820000Y-73475000D03*
%TD*%
D11*
%TO.C,J8*%
X121000000Y-115460000D03*
D12*
X121000000Y-118000000D03*
X121000000Y-120540000D03*
%TD*%
D11*
%TO.C,J4*%
X139725000Y-125000000D03*
D12*
X142265000Y-125000000D03*
%TD*%
D11*
%TO.C,J11*%
X163420000Y-73500000D03*
D12*
X165960000Y-73500000D03*
X168500000Y-73500000D03*
X171040000Y-73500000D03*
X173580000Y-73500000D03*
%TD*%
D13*
%TO.C,H1*%
X118350000Y-72000000D03*
X118833274Y-70833274D03*
X118833274Y-73166726D03*
X120000000Y-70350000D03*
D14*
X120000000Y-72000000D03*
D13*
X120000000Y-73650000D03*
X121166726Y-70833274D03*
X121166726Y-73166726D03*
X121650000Y-72000000D03*
%TD*%
D11*
%TO.C,J6*%
X158460000Y-125000000D03*
D12*
X161000000Y-125000000D03*
X163540000Y-125000000D03*
%TD*%
D10*
%TO.C,TP7*%
X148750000Y-113250000D03*
%TD*%
D11*
%TO.C,J9*%
X121000000Y-108725000D03*
D12*
X121000000Y-111265000D03*
%TD*%
D10*
%TO.C,TP6*%
X144500000Y-113250000D03*
%TD*%
%TO.C,TP4*%
X138250000Y-113250000D03*
%TD*%
D15*
%TO.C,U7*%
X143500000Y-78000000D03*
X143500000Y-75460000D03*
X143500000Y-72920000D03*
X146040000Y-78000000D03*
X146040000Y-75460000D03*
X146040000Y-72920000D03*
X148580000Y-78000000D03*
X148580000Y-75460000D03*
X148580000Y-72920000D03*
X151120000Y-78000000D03*
X151120000Y-75460000D03*
X151120000Y-72920000D03*
%TD*%
D10*
%TO.C,TP1*%
X136000000Y-100000000D03*
%TD*%
D13*
%TO.C,H2*%
X177350000Y-72000000D03*
X177833274Y-70833274D03*
X177833274Y-73166726D03*
X179000000Y-70350000D03*
D14*
X179000000Y-72000000D03*
D13*
X179000000Y-73650000D03*
X180166726Y-70833274D03*
X180166726Y-73166726D03*
X180650000Y-72000000D03*
%TD*%
D16*
%TO.C,J1*%
X176820000Y-96890000D03*
X176820000Y-91110000D03*
D17*
X176320000Y-98320000D03*
X180500000Y-98320000D03*
X176320000Y-89680000D03*
X180500000Y-89680000D03*
%TD*%
D10*
%TO.C,TP8*%
X152250000Y-113250000D03*
%TD*%
%TO.C,TP5*%
X140750000Y-113250000D03*
%TD*%
D11*
%TO.C,J7*%
X168000000Y-125000000D03*
D12*
X170540000Y-125000000D03*
X173080000Y-125000000D03*
%TD*%
D10*
%TO.C,TP3*%
X134500000Y-113250000D03*
%TD*%
D13*
%TO.C,H4*%
X118350000Y-126000000D03*
X118833274Y-124833274D03*
X118833274Y-127166726D03*
X120000000Y-124350000D03*
D14*
X120000000Y-126000000D03*
D13*
X120000000Y-127650000D03*
X121166726Y-124833274D03*
X121166726Y-127166726D03*
X121650000Y-126000000D03*
%TD*%
D11*
%TO.C,J2*%
X121000000Y-97000000D03*
D12*
X121000000Y-94460000D03*
%TD*%
M02*
