%TF.GenerationSoftware,KiCad,Pcbnew,9.0.2*%
%TF.CreationDate,2025-06-25T14:47:54+02:00*%
%TF.ProjectId,ant control board v2,616e7420-636f-46e7-9472-6f6c20626f61,1.0*%
%TF.SameCoordinates,Original*%
%TF.FileFunction,Soldermask,Top*%
%TF.FilePolarity,Negative*%
%FSLAX46Y46*%
G04 Gerber Fmt 4.6, Leading zero omitted, Abs format (unit mm)*
G04 Created by KiCad (PCBNEW 9.0.2) date 2025-06-25 14:47:54*
%MOMM*%
%LPD*%
G01*
G04 APERTURE LIST*
G04 Aperture macros list*
%AMRoundRect*
0 Rectangle with rounded corners*
0 $1 Rounding radius*
0 $2 $3 $4 $5 $6 $7 $8 $9 X,Y pos of 4 corners*
0 Add a 4 corners polygon primitive as box body*
4,1,4,$2,$3,$4,$5,$6,$7,$8,$9,$2,$3,0*
0 Add four circle primitives for the rounded corners*
1,1,$1+$1,$2,$3*
1,1,$1+$1,$4,$5*
1,1,$1+$1,$6,$7*
1,1,$1+$1,$8,$9*
0 Add four rect primitives between the rounded corners*
20,1,$1+$1,$2,$3,$4,$5,0*
20,1,$1+$1,$4,$5,$6,$7,0*
20,1,$1+$1,$6,$7,$8,$9,0*
20,1,$1+$1,$8,$9,$2,$3,0*%
%AMFreePoly0*
4,1,9,3.862500,-0.866500,0.737500,-0.866500,0.737500,-0.450000,-0.737500,-0.450000,-0.737500,0.450000,0.737500,0.450000,0.737500,0.866500,3.862500,0.866500,3.862500,-0.866500,3.862500,-0.866500,$1*%
G04 Aperture macros list end*
%ADD10R,1.500000X1.500000*%
%ADD11R,1.700000X1.700000*%
%ADD12C,1.700000*%
%ADD13RoundRect,0.225000X0.225000X0.250000X-0.225000X0.250000X-0.225000X-0.250000X0.225000X-0.250000X0*%
%ADD14C,0.700000*%
%ADD15C,4.400000*%
%ADD16RoundRect,0.225000X-0.250000X0.225000X-0.250000X-0.225000X0.250000X-0.225000X0.250000X0.225000X0*%
%ADD17RoundRect,0.062500X0.062500X-0.187500X0.062500X0.187500X-0.062500X0.187500X-0.062500X-0.187500X0*%
%ADD18R,1.600000X0.900000*%
%ADD19RoundRect,0.087500X-0.087500X0.225000X-0.087500X-0.225000X0.087500X-0.225000X0.087500X0.225000X0*%
%ADD20RoundRect,0.087500X-0.225000X0.087500X-0.225000X-0.087500X0.225000X-0.087500X0.225000X0.087500X0*%
%ADD21RoundRect,0.150000X0.512500X0.150000X-0.512500X0.150000X-0.512500X-0.150000X0.512500X-0.150000X0*%
%ADD22RoundRect,0.225000X0.250000X-0.225000X0.250000X0.225000X-0.250000X0.225000X-0.250000X-0.225000X0*%
%ADD23RoundRect,0.075000X-0.662500X-0.075000X0.662500X-0.075000X0.662500X0.075000X-0.662500X0.075000X0*%
%ADD24RoundRect,0.075000X-0.075000X-0.662500X0.075000X-0.662500X0.075000X0.662500X-0.075000X0.662500X0*%
%ADD25R,2.000000X1.000000*%
%ADD26RoundRect,0.200000X-0.200000X-0.275000X0.200000X-0.275000X0.200000X0.275000X-0.200000X0.275000X0*%
%ADD27RoundRect,0.225000X0.375000X-0.225000X0.375000X0.225000X-0.375000X0.225000X-0.375000X-0.225000X0*%
%ADD28RoundRect,0.200000X-0.275000X0.200000X-0.275000X-0.200000X0.275000X-0.200000X0.275000X0.200000X0*%
%ADD29C,2.000000*%
%ADD30RoundRect,0.200000X0.275000X-0.200000X0.275000X0.200000X-0.275000X0.200000X-0.275000X-0.200000X0*%
%ADD31C,0.650000*%
%ADD32R,1.150000X0.600000*%
%ADD33R,1.150000X0.300000*%
%ADD34RoundRect,0.250000X0.687500X0.250000X-0.687500X0.250000X-0.687500X-0.250000X0.687500X-0.250000X0*%
%ADD35O,2.500000X1.250000*%
%ADD36RoundRect,0.225000X0.225000X-0.425000X0.225000X0.425000X-0.225000X0.425000X-0.225000X-0.425000X0*%
%ADD37FreePoly0,90.000000*%
%ADD38RoundRect,0.243750X-0.456250X0.243750X-0.456250X-0.243750X0.456250X-0.243750X0.456250X0.243750X0*%
G04 APERTURE END LIST*
D10*
%TO.C,TP9*%
X160250000Y-121000000D03*
%TD*%
%TO.C,TP2*%
X131000000Y-100000000D03*
%TD*%
D11*
%TO.C,J5*%
X147725000Y-125000000D03*
D12*
X150265000Y-125000000D03*
%TD*%
D13*
%TO.C,C7*%
X140775000Y-116000000D03*
X139225000Y-116000000D03*
%TD*%
%TO.C,C13*%
X126775000Y-87000000D03*
X125225000Y-87000000D03*
%TD*%
D14*
%TO.C,H3*%
X177350000Y-126000000D03*
X177833274Y-124833274D03*
X177833274Y-127166726D03*
X179000000Y-124350000D03*
D15*
X179000000Y-126000000D03*
D14*
X179000000Y-127650000D03*
X180166726Y-124833274D03*
X180166726Y-127166726D03*
X180650000Y-126000000D03*
%TD*%
D16*
%TO.C,C1*%
X127000000Y-95725000D03*
X127000000Y-97275000D03*
%TD*%
D11*
%TO.C,J3*%
X131725000Y-125000000D03*
D12*
X134265000Y-125000000D03*
%TD*%
D17*
%TO.C,U2*%
X133250000Y-119450000D03*
X133750000Y-119450000D03*
X134250000Y-119450000D03*
X134750000Y-119450000D03*
X134750000Y-117550000D03*
X134250000Y-117550000D03*
X133750000Y-117550000D03*
X133250000Y-117550000D03*
D18*
X134000000Y-118500000D03*
%TD*%
D13*
%TO.C,C15*%
X142775000Y-99000000D03*
X141225000Y-99000000D03*
%TD*%
D10*
%TO.C,TP10*%
X169000000Y-121000000D03*
%TD*%
D11*
%TO.C,J10*%
X129200000Y-73475000D03*
D12*
X131740000Y-73475000D03*
X134280000Y-73475000D03*
X136820000Y-73475000D03*
%TD*%
D19*
%TO.C,U5*%
X125750000Y-82837500D03*
X125250000Y-82837500D03*
X124750000Y-82837500D03*
X124250000Y-82837500D03*
D20*
X124087500Y-83500000D03*
X124087500Y-84000000D03*
X124087500Y-84500000D03*
D19*
X124250000Y-85162500D03*
X124750000Y-85162500D03*
X125250000Y-85162500D03*
X125750000Y-85162500D03*
D20*
X125912500Y-84500000D03*
X125912500Y-84000000D03*
X125912500Y-83500000D03*
%TD*%
D11*
%TO.C,J8*%
X121000000Y-115460000D03*
D12*
X121000000Y-118000000D03*
X121000000Y-120540000D03*
%TD*%
D16*
%TO.C,C2*%
X128500000Y-95725000D03*
X128500000Y-97275000D03*
%TD*%
D21*
%TO.C,U8*%
X125637500Y-80450000D03*
X125637500Y-79500000D03*
X125637500Y-78550000D03*
X123362500Y-78550000D03*
X123362500Y-80450000D03*
%TD*%
D22*
%TO.C,C16*%
X141500000Y-102275000D03*
X141500000Y-100725000D03*
%TD*%
D11*
%TO.C,J4*%
X139725000Y-125000000D03*
D12*
X142265000Y-125000000D03*
%TD*%
D13*
%TO.C,C5*%
X132775000Y-116000000D03*
X131225000Y-116000000D03*
%TD*%
D11*
%TO.C,J11*%
X163420000Y-73500000D03*
D12*
X165960000Y-73500000D03*
X168500000Y-73500000D03*
X171040000Y-73500000D03*
X173580000Y-73500000D03*
%TD*%
D23*
%TO.C,U6*%
X145837500Y-97250000D03*
X145837500Y-97750000D03*
X145837500Y-98250000D03*
X145837500Y-98750000D03*
X145837500Y-99250000D03*
X145837500Y-99750000D03*
X145837500Y-100250000D03*
X145837500Y-100750000D03*
X145837500Y-101250000D03*
X145837500Y-101750000D03*
X145837500Y-102250000D03*
X145837500Y-102750000D03*
D24*
X147250000Y-104162500D03*
X147750000Y-104162500D03*
X148250000Y-104162500D03*
X148750000Y-104162500D03*
X149250000Y-104162500D03*
X149750000Y-104162500D03*
X150250000Y-104162500D03*
X150750000Y-104162500D03*
X151250000Y-104162500D03*
X151750000Y-104162500D03*
X152250000Y-104162500D03*
X152750000Y-104162500D03*
D23*
X154162500Y-102750000D03*
X154162500Y-102250000D03*
X154162500Y-101750000D03*
X154162500Y-101250000D03*
X154162500Y-100750000D03*
X154162500Y-100250000D03*
X154162500Y-99750000D03*
X154162500Y-99250000D03*
X154162500Y-98750000D03*
X154162500Y-98250000D03*
X154162500Y-97750000D03*
X154162500Y-97250000D03*
D24*
X152750000Y-95837500D03*
X152250000Y-95837500D03*
X151750000Y-95837500D03*
X151250000Y-95837500D03*
X150750000Y-95837500D03*
X150250000Y-95837500D03*
X149750000Y-95837500D03*
X149250000Y-95837500D03*
X148750000Y-95837500D03*
X148250000Y-95837500D03*
X147750000Y-95837500D03*
X147250000Y-95837500D03*
%TD*%
D22*
%TO.C,C8*%
X139500000Y-119275000D03*
X139500000Y-117725000D03*
%TD*%
%TO.C,C6*%
X131500000Y-119275000D03*
X131500000Y-117725000D03*
%TD*%
D14*
%TO.C,H1*%
X118350000Y-72000000D03*
X118833274Y-70833274D03*
X118833274Y-73166726D03*
X120000000Y-70350000D03*
D15*
X120000000Y-72000000D03*
D14*
X120000000Y-73650000D03*
X121166726Y-70833274D03*
X121166726Y-73166726D03*
X121650000Y-72000000D03*
%TD*%
D22*
%TO.C,C14*%
X123500000Y-121235000D03*
X123500000Y-119685000D03*
%TD*%
D13*
%TO.C,C9*%
X148775000Y-116000000D03*
X147225000Y-116000000D03*
%TD*%
D16*
%TO.C,C12*%
X122000000Y-83225000D03*
X122000000Y-84775000D03*
%TD*%
D22*
%TO.C,C4*%
X137000000Y-97275000D03*
X137000000Y-95725000D03*
%TD*%
D11*
%TO.C,J6*%
X158460000Y-125000000D03*
D12*
X161000000Y-125000000D03*
X163540000Y-125000000D03*
%TD*%
D13*
%TO.C,C20*%
X146775000Y-93500000D03*
X145225000Y-93500000D03*
%TD*%
D25*
%TO.C,U9*%
X164062500Y-107600000D03*
X164062500Y-108870000D03*
X164062500Y-110140000D03*
X164062500Y-111410000D03*
X164062500Y-112680000D03*
X164062500Y-113950000D03*
X164062500Y-115220000D03*
X164062500Y-116490000D03*
%TD*%
D26*
%TO.C,R3*%
X125675000Y-102500000D03*
X127325000Y-102500000D03*
%TD*%
D27*
%TO.C,D1*%
X173500000Y-99650000D03*
X173500000Y-96350000D03*
%TD*%
D28*
%TO.C,R4*%
X123500000Y-116635000D03*
X123500000Y-118285000D03*
%TD*%
D10*
%TO.C,TP7*%
X148750000Y-113250000D03*
%TD*%
D11*
%TO.C,J9*%
X121000000Y-108725000D03*
D12*
X121000000Y-111265000D03*
%TD*%
D10*
%TO.C,TP6*%
X144500000Y-113250000D03*
%TD*%
D28*
%TO.C,R1*%
X124000000Y-99675000D03*
X124000000Y-101325000D03*
%TD*%
D10*
%TO.C,TP4*%
X138250000Y-113250000D03*
%TD*%
D17*
%TO.C,U3*%
X141250000Y-119450000D03*
X141750000Y-119450000D03*
X142250000Y-119450000D03*
X142750000Y-119450000D03*
X142750000Y-117550000D03*
X142250000Y-117550000D03*
X141750000Y-117550000D03*
X141250000Y-117550000D03*
D18*
X142000000Y-118500000D03*
%TD*%
D17*
%TO.C,U4*%
X149250000Y-119450000D03*
X149750000Y-119450000D03*
X150250000Y-119450000D03*
X150750000Y-119450000D03*
X150750000Y-117550000D03*
X150250000Y-117550000D03*
X149750000Y-117550000D03*
X149250000Y-117550000D03*
D18*
X150000000Y-118500000D03*
%TD*%
D29*
%TO.C,U7*%
X143500000Y-78000000D03*
X143500000Y-75460000D03*
X143500000Y-72920000D03*
X146040000Y-78000000D03*
X146040000Y-75460000D03*
X146040000Y-72920000D03*
X148580000Y-78000000D03*
X148580000Y-75460000D03*
X148580000Y-72920000D03*
X151120000Y-78000000D03*
X151120000Y-75460000D03*
X151120000Y-72920000D03*
%TD*%
D10*
%TO.C,TP1*%
X136000000Y-100000000D03*
%TD*%
D16*
%TO.C,C3*%
X130000000Y-95725000D03*
X130000000Y-97275000D03*
%TD*%
D30*
%TO.C,R8*%
X149000000Y-90825000D03*
X149000000Y-89175000D03*
%TD*%
D14*
%TO.C,H2*%
X177350000Y-72000000D03*
X177833274Y-70833274D03*
X177833274Y-73166726D03*
X179000000Y-70350000D03*
D15*
X179000000Y-72000000D03*
D14*
X179000000Y-73650000D03*
X180166726Y-70833274D03*
X180166726Y-73166726D03*
X180650000Y-72000000D03*
%TD*%
D30*
%TO.C,R5*%
X141500000Y-96825000D03*
X141500000Y-95175000D03*
%TD*%
D31*
%TO.C,J1*%
X176820000Y-96890000D03*
X176820000Y-91110000D03*
D32*
X175745000Y-97200000D03*
X175745000Y-96400000D03*
D33*
X175745000Y-95750000D03*
X175745000Y-95250000D03*
X175745000Y-94750000D03*
X175745000Y-94250000D03*
X175745000Y-93750000D03*
X175745000Y-93250000D03*
X175745000Y-92750000D03*
X175745000Y-92250000D03*
D32*
X175745000Y-91600000D03*
X175745000Y-90800000D03*
D34*
X176300000Y-99150000D03*
X180550000Y-99150000D03*
D35*
X176320000Y-98320000D03*
X180500000Y-98320000D03*
X176320000Y-89680000D03*
X180500000Y-89680000D03*
D34*
X176350000Y-88850000D03*
X180500000Y-88850000D03*
%TD*%
D36*
%TO.C,U1*%
X132000000Y-97450000D03*
D37*
X133500000Y-97362500D03*
D36*
X135000000Y-97450000D03*
%TD*%
D10*
%TO.C,TP8*%
X152250000Y-113250000D03*
%TD*%
D38*
%TO.C,D2*%
X141500000Y-91562500D03*
X141500000Y-93437500D03*
%TD*%
D10*
%TO.C,TP5*%
X140750000Y-113250000D03*
%TD*%
D28*
%TO.C,R2*%
X124000000Y-102675000D03*
X124000000Y-104325000D03*
%TD*%
D22*
%TO.C,C11*%
X129000000Y-104275000D03*
X129000000Y-102725000D03*
%TD*%
D10*
%TO.C,SW1*%
X157000000Y-73100000D03*
X157000000Y-80900000D03*
%TD*%
D16*
%TO.C,C22*%
X121500000Y-78725000D03*
X121500000Y-80275000D03*
%TD*%
D11*
%TO.C,J7*%
X168000000Y-125000000D03*
D12*
X170540000Y-125000000D03*
X173080000Y-125000000D03*
%TD*%
D16*
%TO.C,C23*%
X161561637Y-107402973D03*
X161561637Y-108952973D03*
%TD*%
D10*
%TO.C,TP3*%
X134500000Y-113250000D03*
%TD*%
D16*
%TO.C,C17*%
X154500000Y-104725000D03*
X154500000Y-106275000D03*
%TD*%
%TO.C,C21*%
X156500000Y-95725000D03*
X156500000Y-97275000D03*
%TD*%
D30*
%TO.C,R7*%
X147500000Y-90825000D03*
X147500000Y-89175000D03*
%TD*%
D22*
%TO.C,C18*%
X143500000Y-96775000D03*
X143500000Y-95225000D03*
%TD*%
D14*
%TO.C,H4*%
X118350000Y-126000000D03*
X118833274Y-124833274D03*
X118833274Y-127166726D03*
X120000000Y-124350000D03*
D15*
X120000000Y-126000000D03*
D14*
X120000000Y-127650000D03*
X121166726Y-124833274D03*
X121166726Y-127166726D03*
X121650000Y-126000000D03*
%TD*%
D22*
%TO.C,C10*%
X147500000Y-119275000D03*
X147500000Y-117725000D03*
%TD*%
D26*
%TO.C,R6*%
X156925000Y-82750000D03*
X158575000Y-82750000D03*
%TD*%
D11*
%TO.C,J2*%
X121000000Y-97000000D03*
D12*
X121000000Y-94460000D03*
%TD*%
D22*
%TO.C,C19*%
X143000000Y-102275000D03*
X143000000Y-100725000D03*
%TD*%
M02*
