%TF.GenerationSoftware,KiCad,Pcbnew,9.0.2*%
%TF.CreationDate,2025-06-25T14:47:54+02:00*%
%TF.ProjectId,ant control board v2,616e7420-636f-46e7-9472-6f6c20626f61,1.0*%
%TF.SameCoordinates,Original*%
%TF.FileFunction,Copper,L2,Bot*%
%TF.FilePolarity,Positive*%
%FSLAX46Y46*%
G04 Gerber Fmt 4.6, Leading zero omitted, Abs format (unit mm)*
G04 Created by KiCad (PCBNEW 9.0.2) date 2025-06-25 14:47:54*
%MOMM*%
%LPD*%
G01*
G04 APERTURE LIST*
%TA.AperFunction,ComponentPad*%
%ADD10R,1.500000X1.500000*%
%TD*%
%TA.AperFunction,ComponentPad*%
%ADD11R,1.700000X1.700000*%
%TD*%
%TA.AperFunction,ComponentPad*%
%ADD12C,1.700000*%
%TD*%
%TA.AperFunction,ComponentPad*%
%ADD13C,0.700000*%
%TD*%
%TA.AperFunction,ComponentPad*%
%ADD14C,4.400000*%
%TD*%
%TA.AperFunction,ComponentPad*%
%ADD15C,2.000000*%
%TD*%
%TA.AperFunction,ComponentPad*%
%ADD16O,2.500000X1.250000*%
%TD*%
%TA.AperFunction,ViaPad*%
%ADD17C,0.500000*%
%TD*%
%TA.AperFunction,ViaPad*%
%ADD18C,0.600000*%
%TD*%
%TA.AperFunction,Conductor*%
%ADD19C,0.200000*%
%TD*%
G04 APERTURE END LIST*
D10*
%TO.P,TP9,1,1*%
%TO.N,/MCU and RX/SERVO1*%
X160250000Y-121000000D03*
%TD*%
%TO.P,TP2,1,1*%
%TO.N,GND*%
X131000000Y-100000000D03*
%TD*%
D11*
%TO.P,J5,1,Pin_1*%
%TO.N,/DC Motors/M3+*%
X147725000Y-125000000D03*
D12*
%TO.P,J5,2,Pin_2*%
%TO.N,/DC Motors/M3-*%
X150265000Y-125000000D03*
%TD*%
D13*
%TO.P,H3,1*%
%TO.N,N/C*%
X177350000Y-126000000D03*
X177833274Y-124833274D03*
X177833274Y-127166726D03*
X179000000Y-124350000D03*
D14*
X179000000Y-126000000D03*
D13*
X179000000Y-127650000D03*
X180166726Y-124833274D03*
X180166726Y-127166726D03*
X180650000Y-126000000D03*
%TD*%
D11*
%TO.P,J3,1,Pin_1*%
%TO.N,/DC Motors/M1+*%
X131725000Y-125000000D03*
D12*
%TO.P,J3,2,Pin_2*%
%TO.N,/DC Motors/M1-*%
X134265000Y-125000000D03*
%TD*%
D10*
%TO.P,TP10,1,1*%
%TO.N,/MCU and RX/SERVO2*%
X169000000Y-121000000D03*
%TD*%
D11*
%TO.P,J10,1,Pin_1*%
%TO.N,/MCU and RX/UART2_RX*%
X129200000Y-73475000D03*
D12*
%TO.P,J10,2,Pin_2*%
%TO.N,/MCU and RX/UART2_TX*%
X131740000Y-73475000D03*
%TO.P,J10,3,Pin_3*%
%TO.N,+3V3*%
X134280000Y-73475000D03*
%TO.P,J10,4,Pin_4*%
%TO.N,GND*%
X136820000Y-73475000D03*
%TD*%
D11*
%TO.P,J8,1,Pin_1*%
%TO.N,+3V3*%
X121000000Y-115460000D03*
D12*
%TO.P,J8,2,Pin_2*%
%TO.N,Net-(J8-Pin_2)*%
X121000000Y-118000000D03*
%TO.P,J8,3,Pin_3*%
%TO.N,GND*%
X121000000Y-120540000D03*
%TD*%
D11*
%TO.P,J4,1,Pin_1*%
%TO.N,/DC Motors/M2+*%
X139725000Y-125000000D03*
D12*
%TO.P,J4,2,Pin_2*%
%TO.N,/DC Motors/M2-*%
X142265000Y-125000000D03*
%TD*%
D11*
%TO.P,J11,1,Pin_1*%
%TO.N,+3V3*%
X163420000Y-73500000D03*
D12*
%TO.P,J11,2,Pin_2*%
%TO.N,/MCU and RX/SWCLK*%
X165960000Y-73500000D03*
%TO.P,J11,3,Pin_3*%
%TO.N,GND*%
X168500000Y-73500000D03*
%TO.P,J11,4,Pin_4*%
%TO.N,/MCU and RX/SWDIO*%
X171040000Y-73500000D03*
%TO.P,J11,5,Pin_5*%
%TO.N,/MCU and RX/RESET*%
X173580000Y-73500000D03*
%TD*%
D13*
%TO.P,H1,1*%
%TO.N,N/C*%
X118350000Y-72000000D03*
X118833274Y-70833274D03*
X118833274Y-73166726D03*
X120000000Y-70350000D03*
D14*
X120000000Y-72000000D03*
D13*
X120000000Y-73650000D03*
X121166726Y-70833274D03*
X121166726Y-73166726D03*
X121650000Y-72000000D03*
%TD*%
D11*
%TO.P,J6,1,Pin_1*%
%TO.N,/MCU and RX/SERVO1*%
X158460000Y-125000000D03*
D12*
%TO.P,J6,2,Pin_2*%
%TO.N,+BATT*%
X161000000Y-125000000D03*
%TO.P,J6,3,Pin_3*%
%TO.N,GND*%
X163540000Y-125000000D03*
%TD*%
D10*
%TO.P,TP7,1,1*%
%TO.N,/DC Motors/PWM_M3_F*%
X148750000Y-113250000D03*
%TD*%
D11*
%TO.P,J9,1,Pin_1*%
%TO.N,/MCU and RX/DIGITAL_AUX1*%
X121000000Y-108725000D03*
D12*
%TO.P,J9,2,Pin_2*%
%TO.N,/MCU and RX/DIGITAL_AUX2*%
X121000000Y-111265000D03*
%TD*%
D10*
%TO.P,TP6,1,1*%
%TO.N,/DC Motors/PWM_M2_B*%
X144500000Y-113250000D03*
%TD*%
%TO.P,TP4,1,1*%
%TO.N,/DC Motors/PWM_M1_B*%
X138250000Y-113250000D03*
%TD*%
D15*
%TO.P,U7,1,GND*%
%TO.N,GND*%
X143500000Y-78000000D03*
%TO.P,U7,2,VCC*%
%TO.N,+3V3*%
X143500000Y-75460000D03*
%TO.P,U7,3,CH1_(PPM)*%
%TO.N,/MCU and RX/CH1_PPM*%
X143500000Y-72920000D03*
%TO.P,U7,4*%
%TO.N,GND*%
X146040000Y-78000000D03*
%TO.P,U7,5*%
%TO.N,+3V3*%
X146040000Y-75460000D03*
%TO.P,U7,6,CH2*%
%TO.N,/MCU and RX/CH2*%
X146040000Y-72920000D03*
%TO.P,U7,7*%
%TO.N,GND*%
X148580000Y-78000000D03*
%TO.P,U7,8*%
%TO.N,+3V3*%
X148580000Y-75460000D03*
%TO.P,U7,9,CH3*%
%TO.N,/MCU and RX/CH3*%
X148580000Y-72920000D03*
%TO.P,U7,10*%
%TO.N,GND*%
X151120000Y-78000000D03*
%TO.P,U7,11*%
%TO.N,+3V3*%
X151120000Y-75460000D03*
%TO.P,U7,12,CH4*%
%TO.N,/MCU and RX/CH4*%
X151120000Y-72920000D03*
%TD*%
D10*
%TO.P,TP1,1,1*%
%TO.N,+3V3*%
X136000000Y-100000000D03*
%TD*%
D13*
%TO.P,H2,1*%
%TO.N,N/C*%
X177350000Y-72000000D03*
X177833274Y-70833274D03*
X177833274Y-73166726D03*
X179000000Y-70350000D03*
D14*
X179000000Y-72000000D03*
D13*
X179000000Y-73650000D03*
X180166726Y-70833274D03*
X180166726Y-73166726D03*
X180650000Y-72000000D03*
%TD*%
D16*
%TO.P,J1,13,SHIELD*%
%TO.N,GND*%
X176320000Y-98320000D03*
X180500000Y-98320000D03*
X176320000Y-89680000D03*
X180500000Y-89680000D03*
%TD*%
D10*
%TO.P,TP8,1,1*%
%TO.N,/DC Motors/PWM_M3_B*%
X152250000Y-113250000D03*
%TD*%
%TO.P,TP5,1,1*%
%TO.N,/DC Motors/PWM_M2_F*%
X140750000Y-113250000D03*
%TD*%
D11*
%TO.P,J7,1,Pin_1*%
%TO.N,/MCU and RX/SERVO2*%
X168000000Y-125000000D03*
D12*
%TO.P,J7,2,Pin_2*%
%TO.N,+BATT*%
X170540000Y-125000000D03*
%TO.P,J7,3,Pin_3*%
%TO.N,GND*%
X173080000Y-125000000D03*
%TD*%
D10*
%TO.P,TP3,1,1*%
%TO.N,/DC Motors/PWM_M1_F*%
X134500000Y-113250000D03*
%TD*%
D13*
%TO.P,H4,1*%
%TO.N,N/C*%
X118350000Y-126000000D03*
X118833274Y-124833274D03*
X118833274Y-127166726D03*
X120000000Y-124350000D03*
D14*
X120000000Y-126000000D03*
D13*
X120000000Y-127650000D03*
X121166726Y-124833274D03*
X121166726Y-127166726D03*
X121650000Y-126000000D03*
%TD*%
D11*
%TO.P,J2,1,Pin_1*%
%TO.N,GND*%
X121000000Y-97000000D03*
D12*
%TO.P,J2,2,Pin_2*%
%TO.N,+BATT*%
X121000000Y-94460000D03*
%TD*%
D17*
%TO.N,/MCU and RX/RESET*%
X171750000Y-77470000D03*
D18*
%TO.N,GND*%
X143500000Y-118500000D03*
X123500000Y-122000000D03*
X135500000Y-118500000D03*
X141500000Y-90750000D03*
X159250000Y-82750000D03*
X160750000Y-108952973D03*
X121500000Y-81250000D03*
X144500000Y-93500000D03*
X151500000Y-118500000D03*
X146250000Y-117725000D03*
X143500000Y-94500000D03*
X130250000Y-117719672D03*
X138250000Y-116000000D03*
X129000000Y-105250000D03*
X157750000Y-97275000D03*
X147986763Y-93986763D03*
X130250000Y-116000000D03*
X124250000Y-87000000D03*
D17*
X132000000Y-99000000D03*
D18*
X123000000Y-84750000D03*
X130000000Y-98000000D03*
X127000000Y-98000000D03*
X137000000Y-95000000D03*
D17*
X125250000Y-81750000D03*
D18*
X128500000Y-98000000D03*
X155500000Y-106250000D03*
X126750000Y-79500000D03*
X146250000Y-116000000D03*
X140500000Y-99000000D03*
X140750000Y-100750000D03*
X123362500Y-81250000D03*
X138250000Y-117750000D03*
X124000000Y-105250000D03*
D17*
%TO.N,+3V3*%
X132775000Y-114550000D03*
X129500000Y-114500000D03*
X156500000Y-94500000D03*
X146000000Y-89250000D03*
X138250000Y-102250000D03*
X146000000Y-91375000D03*
%TO.N,/MCU and RX/RESET*%
X170250000Y-77470000D03*
%TO.N,/MCU and RX/DIGITAL_AUX1*%
X140125000Y-104125000D03*
X144500000Y-99000000D03*
%TO.N,/MCU and RX/DIGITAL_AUX2*%
X147000000Y-99500000D03*
X140878260Y-104141302D03*
%TO.N,/MCU and RX/BOOT0*%
X149250000Y-97250000D03*
X153750000Y-95500000D03*
X154750000Y-89750000D03*
X154750000Y-91250000D03*
%TO.N,/MCU and RX/I2C1_SDA*%
X129500000Y-81400057D03*
X128750000Y-83000000D03*
%TO.N,/MCU and RX/I2C1_SCL*%
X142494000Y-88500000D03*
X144000000Y-88500000D03*
%TO.N,/DC Motors/PWM_M1_B*%
X136750000Y-115050000D03*
X136750000Y-113950000D03*
%TO.N,/DC Motors/PWM_M1_F*%
X136000000Y-115050000D03*
X136000000Y-113950000D03*
%TO.N,/DC Motors/PWM_M2_F*%
X142250000Y-113950000D03*
X142250000Y-115050000D03*
%TO.N,/DC Motors/PWM_M2_B*%
X143000000Y-115050000D03*
X143000000Y-113950000D03*
%TO.N,/MCU and RX/CH1_PPM*%
X140000000Y-74910000D03*
X140000000Y-76010000D03*
%TO.N,/MCU and RX/SPI2_MISO*%
X158750000Y-110250000D03*
X158915042Y-104542479D03*
%TO.N,/MCU and RX/SPI2_SCK*%
X156750000Y-107000000D03*
X156750000Y-103500000D03*
%TO.N,/MCU and RX/CH2*%
X141250000Y-72250000D03*
X141250000Y-76010000D03*
%TO.N,/MCU and RX/SPI2_NSS*%
X156000000Y-104175000D03*
X156000000Y-105275000D03*
%TO.N,/MCU and RX/CH3*%
X153750000Y-74250000D03*
X153750000Y-72250000D03*
%TO.N,/MCU and RX/SPI2_MOSI*%
X159500000Y-104250000D03*
X159500000Y-110587500D03*
%TD*%
D19*
%TO.N,/MCU and RX/I2C1_SCL*%
X144000000Y-88500000D02*
X142494000Y-88500000D01*
%TO.N,+3V3*%
X146000000Y-91375000D02*
X153375000Y-91375000D01*
X132775000Y-107725000D02*
X132775000Y-114550000D01*
X129550000Y-114550000D02*
X132775000Y-114550000D01*
X146000000Y-89250000D02*
X146000000Y-91375000D01*
X138250000Y-102250000D02*
X132775000Y-107725000D01*
X153375000Y-91375000D02*
X156500000Y-94500000D01*
X129500000Y-114500000D02*
X129550000Y-114550000D01*
%TO.N,/MCU and RX/DIGITAL_AUX1*%
X140750000Y-102750000D02*
X144500000Y-99000000D01*
X140750000Y-103500000D02*
X140750000Y-102750000D01*
X140125000Y-104125000D02*
X140750000Y-103500000D01*
%TO.N,/MCU and RX/DIGITAL_AUX2*%
X145500000Y-99500000D02*
X147000000Y-99500000D01*
X140878260Y-104121740D02*
X145500000Y-99500000D01*
X140878260Y-104141302D02*
X140878260Y-104121740D01*
%TO.N,/MCU and RX/BOOT0*%
X154750000Y-91250000D02*
X154750000Y-89750000D01*
X149250000Y-97250000D02*
X152000000Y-97250000D01*
X152000000Y-97250000D02*
X153750000Y-95500000D01*
%TO.N,/MCU and RX/I2C1_SDA*%
X129500000Y-82250000D02*
X129500000Y-81400057D01*
X128750000Y-83000000D02*
X129500000Y-82250000D01*
%TO.N,/DC Motors/PWM_M1_B*%
X136750000Y-113950000D02*
X136750000Y-115050000D01*
%TO.N,/DC Motors/PWM_M1_F*%
X136000000Y-115050000D02*
X136000000Y-113950000D01*
%TO.N,/DC Motors/PWM_M2_F*%
X142250000Y-115050000D02*
X142250000Y-113950000D01*
%TO.N,/DC Motors/PWM_M2_B*%
X143000000Y-115050000D02*
X143000000Y-113950000D01*
%TO.N,/MCU and RX/CH1_PPM*%
X140000000Y-74910000D02*
X140000000Y-76010000D01*
%TO.N,/MCU and RX/SPI2_MISO*%
X158915042Y-104542479D02*
X158888909Y-104568612D01*
X158888909Y-104568612D02*
X158888909Y-110111091D01*
X158888909Y-110111091D02*
X158750000Y-110250000D01*
%TO.N,/MCU and RX/SPI2_SCK*%
X156750000Y-103500000D02*
X156750000Y-107000000D01*
%TO.N,/MCU and RX/CH2*%
X141250000Y-72250000D02*
X141250000Y-76010000D01*
%TO.N,/MCU and RX/SPI2_NSS*%
X156000000Y-105275000D02*
X156000000Y-104175000D01*
%TO.N,/MCU and RX/CH3*%
X153750000Y-74250000D02*
X153750000Y-72250000D01*
%TO.N,/MCU and RX/SPI2_MOSI*%
X159500000Y-104250000D02*
X159500000Y-110587500D01*
%TO.N,/MCU and RX/RESET*%
X171750000Y-77470000D02*
X170250000Y-77470000D01*
%TD*%
%TA.AperFunction,Conductor*%
%TO.N,GND*%
G36*
X144824712Y-75726238D02*
G01*
X144876188Y-75773482D01*
X144887931Y-75799196D01*
X144927454Y-75920836D01*
X145013240Y-76089199D01*
X145124310Y-76242073D01*
X145257927Y-76375690D01*
X145410801Y-76486760D01*
X145579168Y-76572547D01*
X145701612Y-76612331D01*
X145759287Y-76651769D01*
X145786485Y-76716127D01*
X145774570Y-76784974D01*
X145727326Y-76836449D01*
X145701612Y-76848193D01*
X145579361Y-76887915D01*
X145411060Y-76973669D01*
X145385670Y-76992116D01*
X145385669Y-76992116D01*
X145910591Y-77517037D01*
X145847007Y-77534075D01*
X145732993Y-77599901D01*
X145639901Y-77692993D01*
X145574075Y-77807007D01*
X145557037Y-77870590D01*
X145032116Y-77345669D01*
X145032116Y-77345670D01*
X145013669Y-77371060D01*
X144927914Y-77539362D01*
X144887931Y-77662420D01*
X144848494Y-77720095D01*
X144784135Y-77747294D01*
X144715289Y-77735380D01*
X144663813Y-77688136D01*
X144652069Y-77662420D01*
X144612085Y-77539362D01*
X144526329Y-77371059D01*
X144507883Y-77345670D01*
X144507882Y-77345669D01*
X143982962Y-77870590D01*
X143965925Y-77807007D01*
X143900099Y-77692993D01*
X143807007Y-77599901D01*
X143692993Y-77534075D01*
X143629409Y-77517037D01*
X144154328Y-76992116D01*
X144128933Y-76973666D01*
X143960637Y-76887914D01*
X143838388Y-76848193D01*
X143780712Y-76808755D01*
X143753514Y-76744397D01*
X143765429Y-76675550D01*
X143812673Y-76624075D01*
X143838382Y-76612333D01*
X143960832Y-76572547D01*
X144129199Y-76486760D01*
X144282073Y-76375690D01*
X144415690Y-76242073D01*
X144526760Y-76089199D01*
X144612547Y-75920832D01*
X144652069Y-75799195D01*
X144691507Y-75741521D01*
X144755866Y-75714323D01*
X144824712Y-75726238D01*
G37*
%TD.AperFunction*%
%TA.AperFunction,Conductor*%
G36*
X147364712Y-75726238D02*
G01*
X147416188Y-75773482D01*
X147427931Y-75799196D01*
X147467454Y-75920836D01*
X147553240Y-76089199D01*
X147664310Y-76242073D01*
X147797927Y-76375690D01*
X147950801Y-76486760D01*
X148119168Y-76572547D01*
X148241612Y-76612331D01*
X148299287Y-76651769D01*
X148326485Y-76716127D01*
X148314570Y-76784974D01*
X148267326Y-76836449D01*
X148241612Y-76848193D01*
X148119361Y-76887915D01*
X147951060Y-76973669D01*
X147925670Y-76992116D01*
X147925669Y-76992116D01*
X148450591Y-77517037D01*
X148387007Y-77534075D01*
X148272993Y-77599901D01*
X148179901Y-77692993D01*
X148114075Y-77807007D01*
X148097037Y-77870590D01*
X147572116Y-77345669D01*
X147572116Y-77345670D01*
X147553669Y-77371060D01*
X147467914Y-77539362D01*
X147427931Y-77662420D01*
X147388494Y-77720095D01*
X147324135Y-77747294D01*
X147255289Y-77735380D01*
X147203813Y-77688136D01*
X147192069Y-77662420D01*
X147152085Y-77539362D01*
X147066329Y-77371059D01*
X147047883Y-77345670D01*
X147047882Y-77345669D01*
X146522962Y-77870590D01*
X146505925Y-77807007D01*
X146440099Y-77692993D01*
X146347007Y-77599901D01*
X146232993Y-77534075D01*
X146169409Y-77517037D01*
X146694328Y-76992116D01*
X146668933Y-76973666D01*
X146500637Y-76887914D01*
X146378388Y-76848193D01*
X146320712Y-76808755D01*
X146293514Y-76744397D01*
X146305429Y-76675550D01*
X146352673Y-76624075D01*
X146378382Y-76612333D01*
X146500832Y-76572547D01*
X146669199Y-76486760D01*
X146822073Y-76375690D01*
X146955690Y-76242073D01*
X147066760Y-76089199D01*
X147152547Y-75920832D01*
X147192069Y-75799195D01*
X147231507Y-75741521D01*
X147295866Y-75714323D01*
X147364712Y-75726238D01*
G37*
%TD.AperFunction*%
%TA.AperFunction,Conductor*%
G36*
X149904712Y-75726238D02*
G01*
X149956188Y-75773482D01*
X149967931Y-75799196D01*
X150007454Y-75920836D01*
X150093240Y-76089199D01*
X150204310Y-76242073D01*
X150337927Y-76375690D01*
X150490801Y-76486760D01*
X150659168Y-76572547D01*
X150781612Y-76612331D01*
X150839287Y-76651769D01*
X150866485Y-76716127D01*
X150854570Y-76784974D01*
X150807326Y-76836449D01*
X150781612Y-76848193D01*
X150659361Y-76887915D01*
X150491060Y-76973669D01*
X150465670Y-76992116D01*
X150465669Y-76992116D01*
X150990591Y-77517037D01*
X150927007Y-77534075D01*
X150812993Y-77599901D01*
X150719901Y-77692993D01*
X150654075Y-77807007D01*
X150637037Y-77870590D01*
X150112116Y-77345669D01*
X150112116Y-77345670D01*
X150093669Y-77371060D01*
X150007914Y-77539362D01*
X149967931Y-77662420D01*
X149928494Y-77720095D01*
X149864135Y-77747294D01*
X149795289Y-77735380D01*
X149743813Y-77688136D01*
X149732069Y-77662420D01*
X149692085Y-77539362D01*
X149606329Y-77371059D01*
X149587883Y-77345670D01*
X149587882Y-77345669D01*
X149062962Y-77870590D01*
X149045925Y-77807007D01*
X148980099Y-77692993D01*
X148887007Y-77599901D01*
X148772993Y-77534075D01*
X148709409Y-77517037D01*
X149234328Y-76992116D01*
X149208933Y-76973666D01*
X149040637Y-76887914D01*
X148918388Y-76848193D01*
X148860712Y-76808755D01*
X148833514Y-76744397D01*
X148845429Y-76675550D01*
X148892673Y-76624075D01*
X148918382Y-76612333D01*
X149040832Y-76572547D01*
X149209199Y-76486760D01*
X149362073Y-76375690D01*
X149495690Y-76242073D01*
X149606760Y-76089199D01*
X149692547Y-75920832D01*
X149732069Y-75799195D01*
X149771507Y-75741521D01*
X149835866Y-75714323D01*
X149904712Y-75726238D01*
G37*
%TD.AperFunction*%
%TA.AperFunction,Conductor*%
G36*
X179003243Y-69000669D02*
G01*
X179280182Y-69015184D01*
X179287575Y-69015794D01*
X179349875Y-69022813D01*
X179355353Y-69023555D01*
X179597128Y-69061848D01*
X179605289Y-69063423D01*
X179660830Y-69076100D01*
X179665181Y-69077179D01*
X179908157Y-69142284D01*
X179916999Y-69145013D01*
X179959629Y-69159930D01*
X179963079Y-69161195D01*
X180209378Y-69255739D01*
X180218711Y-69259770D01*
X180239307Y-69269689D01*
X180241754Y-69270900D01*
X180493968Y-69399411D01*
X180505203Y-69405898D01*
X180757608Y-69569812D01*
X180768109Y-69577441D01*
X181002010Y-69766850D01*
X181011655Y-69775535D01*
X181224464Y-69988344D01*
X181233149Y-69997989D01*
X181422558Y-70231890D01*
X181430187Y-70242391D01*
X181594101Y-70494796D01*
X181600591Y-70506036D01*
X181729075Y-70758199D01*
X181730309Y-70760691D01*
X181740223Y-70781277D01*
X181744268Y-70790643D01*
X181838791Y-71036887D01*
X181840068Y-71040369D01*
X181854985Y-71082999D01*
X181857719Y-71091860D01*
X181922806Y-71334766D01*
X181923923Y-71339269D01*
X181936569Y-71394679D01*
X181938150Y-71402872D01*
X181976440Y-71644627D01*
X181977187Y-71650142D01*
X181984204Y-71712424D01*
X181984814Y-71719816D01*
X181999330Y-71996755D01*
X181999500Y-72003246D01*
X181999500Y-89095047D01*
X181979815Y-89162086D01*
X181927011Y-89207841D01*
X181857853Y-89217785D01*
X181794297Y-89188760D01*
X181772399Y-89163940D01*
X181765818Y-89154091D01*
X181650910Y-89039183D01*
X181650906Y-89039180D01*
X181515781Y-88948892D01*
X181515779Y-88948891D01*
X181365648Y-88886705D01*
X181365636Y-88886702D01*
X181206259Y-88855000D01*
X180750000Y-88855000D01*
X180750000Y-89380000D01*
X180250000Y-89380000D01*
X180250000Y-88855000D01*
X179793740Y-88855000D01*
X179634363Y-88886702D01*
X179634351Y-88886705D01*
X179484220Y-88948891D01*
X179484218Y-88948892D01*
X179349093Y-89039180D01*
X179349089Y-89039183D01*
X179234183Y-89154089D01*
X179234180Y-89154093D01*
X179143892Y-89289218D01*
X179085579Y-89429999D01*
X179085579Y-89430000D01*
X179783012Y-89430000D01*
X179765795Y-89439940D01*
X179709940Y-89495795D01*
X179670444Y-89564204D01*
X179650000Y-89640504D01*
X179650000Y-89719496D01*
X179670444Y-89795796D01*
X179709940Y-89864205D01*
X179765795Y-89920060D01*
X179783012Y-89930000D01*
X179085579Y-89930000D01*
X179143892Y-90070781D01*
X179234180Y-90205906D01*
X179234183Y-90205910D01*
X179349089Y-90320816D01*
X179349093Y-90320819D01*
X179484218Y-90411107D01*
X179484220Y-90411108D01*
X179634351Y-90473294D01*
X179634363Y-90473297D01*
X179793740Y-90504999D01*
X179793744Y-90505000D01*
X180250000Y-90505000D01*
X180250000Y-89980000D01*
X180750000Y-89980000D01*
X180750000Y-90505000D01*
X181206256Y-90505000D01*
X181206259Y-90504999D01*
X181365636Y-90473297D01*
X181365648Y-90473294D01*
X181515779Y-90411108D01*
X181515781Y-90411107D01*
X181650906Y-90320819D01*
X181650910Y-90320816D01*
X181765817Y-90205909D01*
X181772397Y-90196062D01*
X181826009Y-90151257D01*
X181895334Y-90142548D01*
X181958362Y-90172703D01*
X181995081Y-90232145D01*
X181999500Y-90264952D01*
X181999500Y-97735047D01*
X181979815Y-97802086D01*
X181927011Y-97847841D01*
X181857853Y-97857785D01*
X181794297Y-97828760D01*
X181772399Y-97803940D01*
X181765818Y-97794091D01*
X181650910Y-97679183D01*
X181650906Y-97679180D01*
X181515781Y-97588892D01*
X181515779Y-97588891D01*
X181365648Y-97526705D01*
X181365636Y-97526702D01*
X181206259Y-97495000D01*
X180750000Y-97495000D01*
X180750000Y-98020000D01*
X180250000Y-98020000D01*
X180250000Y-97495000D01*
X179793740Y-97495000D01*
X179634363Y-97526702D01*
X179634351Y-97526705D01*
X179484220Y-97588891D01*
X179484218Y-97588892D01*
X179349093Y-97679180D01*
X179349089Y-97679183D01*
X179234183Y-97794089D01*
X179234180Y-97794093D01*
X179143892Y-97929218D01*
X179085579Y-98069999D01*
X179085579Y-98070000D01*
X179783012Y-98070000D01*
X179765795Y-98079940D01*
X179709940Y-98135795D01*
X179670444Y-98204204D01*
X179650000Y-98280504D01*
X179650000Y-98359496D01*
X179670444Y-98435796D01*
X179709940Y-98504205D01*
X179765795Y-98560060D01*
X179783012Y-98570000D01*
X179085579Y-98570000D01*
X179143892Y-98710781D01*
X179234180Y-98845906D01*
X179234183Y-98845910D01*
X179349089Y-98960816D01*
X179349093Y-98960819D01*
X179484218Y-99051107D01*
X179484220Y-99051108D01*
X179634351Y-99113294D01*
X179634363Y-99113297D01*
X179793740Y-99144999D01*
X179793744Y-99145000D01*
X180250000Y-99145000D01*
X180250000Y-98620000D01*
X180750000Y-98620000D01*
X180750000Y-99145000D01*
X181206256Y-99145000D01*
X181206259Y-99144999D01*
X181365636Y-99113297D01*
X181365648Y-99113294D01*
X181515779Y-99051108D01*
X181515781Y-99051107D01*
X181650906Y-98960819D01*
X181650910Y-98960816D01*
X181765817Y-98845909D01*
X181772397Y-98836062D01*
X181826009Y-98791257D01*
X181895334Y-98782548D01*
X181958362Y-98812703D01*
X181995081Y-98872145D01*
X181999500Y-98904952D01*
X181999500Y-105653000D01*
X181979815Y-105720039D01*
X181927011Y-105765794D01*
X181875500Y-105777000D01*
X174419500Y-105777000D01*
X174419500Y-118223000D01*
X181875500Y-118223000D01*
X181942539Y-118242685D01*
X181988294Y-118295489D01*
X181999500Y-118347000D01*
X181999500Y-125996753D01*
X181999330Y-126003244D01*
X181984814Y-126280182D01*
X181984204Y-126287574D01*
X181977187Y-126349856D01*
X181976440Y-126355371D01*
X181938150Y-126597126D01*
X181936569Y-126605319D01*
X181923923Y-126660729D01*
X181922806Y-126665232D01*
X181857719Y-126908138D01*
X181854985Y-126916999D01*
X181840068Y-126959629D01*
X181838791Y-126963111D01*
X181744268Y-127209355D01*
X181740223Y-127218721D01*
X181730309Y-127239307D01*
X181729075Y-127241799D01*
X181600591Y-127493964D01*
X181594105Y-127505197D01*
X181531186Y-127602085D01*
X181430187Y-127757609D01*
X181422558Y-127768109D01*
X181233149Y-128002010D01*
X181224464Y-128011655D01*
X181011655Y-128224464D01*
X181002010Y-128233149D01*
X180768109Y-128422558D01*
X180757609Y-128430187D01*
X180505197Y-128594105D01*
X180493964Y-128600591D01*
X180241799Y-128729075D01*
X180239307Y-128730309D01*
X180218721Y-128740223D01*
X180209355Y-128744268D01*
X179963111Y-128838791D01*
X179959629Y-128840068D01*
X179916999Y-128854985D01*
X179908138Y-128857719D01*
X179665232Y-128922806D01*
X179660729Y-128923923D01*
X179605319Y-128936569D01*
X179597126Y-128938150D01*
X179355371Y-128976440D01*
X179349856Y-128977187D01*
X179287574Y-128984204D01*
X179280182Y-128984814D01*
X179003244Y-128999330D01*
X178996753Y-128999500D01*
X120003246Y-128999500D01*
X119996757Y-128999330D01*
X119986676Y-128998801D01*
X119719816Y-128984814D01*
X119712424Y-128984204D01*
X119650142Y-128977187D01*
X119644627Y-128976440D01*
X119402872Y-128938150D01*
X119394679Y-128936569D01*
X119366044Y-128930033D01*
X119339245Y-128923917D01*
X119334766Y-128922806D01*
X119091860Y-128857719D01*
X119082999Y-128854985D01*
X119040369Y-128840068D01*
X119036887Y-128838791D01*
X118790643Y-128744268D01*
X118781277Y-128740223D01*
X118760691Y-128730309D01*
X118758199Y-128729075D01*
X118506036Y-128600591D01*
X118494796Y-128594101D01*
X118242391Y-128430187D01*
X118231890Y-128422558D01*
X117997989Y-128233149D01*
X117988344Y-128224464D01*
X117775535Y-128011655D01*
X117766850Y-128002010D01*
X117577441Y-127768109D01*
X117569812Y-127757608D01*
X117468814Y-127602085D01*
X117405896Y-127505199D01*
X117399408Y-127493963D01*
X117333223Y-127364068D01*
X117270900Y-127241754D01*
X117269689Y-127239307D01*
X117259775Y-127218721D01*
X117255739Y-127209378D01*
X117161195Y-126963079D01*
X117159930Y-126959629D01*
X117145013Y-126916999D01*
X117142284Y-126908157D01*
X117077179Y-126665181D01*
X117076100Y-126660830D01*
X117063423Y-126605289D01*
X117061848Y-126597126D01*
X117023555Y-126355353D01*
X117022811Y-126349856D01*
X117015794Y-126287574D01*
X117015184Y-126280181D01*
X117000670Y-126003243D01*
X117000500Y-125996753D01*
X117000500Y-125865186D01*
X117599500Y-125865186D01*
X117599500Y-126134813D01*
X117629686Y-126402719D01*
X117629688Y-126402731D01*
X117689684Y-126665594D01*
X117689687Y-126665602D01*
X117778734Y-126920082D01*
X117895714Y-127162994D01*
X117895716Y-127162997D01*
X118039162Y-127391289D01*
X118207266Y-127602085D01*
X118397915Y-127792734D01*
X118608711Y-127960838D01*
X118837003Y-128104284D01*
X119079921Y-128221267D01*
X119271049Y-128288145D01*
X119334397Y-128310312D01*
X119334405Y-128310315D01*
X119334408Y-128310315D01*
X119334409Y-128310316D01*
X119597268Y-128370312D01*
X119865187Y-128400499D01*
X119865188Y-128400500D01*
X119865191Y-128400500D01*
X120134812Y-128400500D01*
X120134812Y-128400499D01*
X120402732Y-128370312D01*
X120665591Y-128310316D01*
X120920079Y-128221267D01*
X121162997Y-128104284D01*
X121391289Y-127960838D01*
X121602085Y-127792734D01*
X121792734Y-127602085D01*
X121960838Y-127391289D01*
X122104284Y-127162997D01*
X122221267Y-126920079D01*
X122310316Y-126665591D01*
X122370312Y-126402732D01*
X122400500Y-126134809D01*
X122400500Y-125865191D01*
X122370312Y-125597268D01*
X122310316Y-125334409D01*
X122300519Y-125306412D01*
X122288145Y-125271049D01*
X122221267Y-125079921D01*
X122104284Y-124837003D01*
X121960838Y-124608711D01*
X121792734Y-124397915D01*
X121602085Y-124207266D01*
X121572940Y-124184024D01*
X121505512Y-124130252D01*
X121505506Y-124130247D01*
X130674500Y-124130247D01*
X130674500Y-125869752D01*
X130686131Y-125928229D01*
X130686132Y-125928230D01*
X130730447Y-125994552D01*
X130796769Y-126038867D01*
X130796770Y-126038868D01*
X130855247Y-126050499D01*
X130855250Y-126050500D01*
X130855252Y-126050500D01*
X132594750Y-126050500D01*
X132594751Y-126050499D01*
X132609568Y-126047552D01*
X132653229Y-126038868D01*
X132653229Y-126038867D01*
X132653231Y-126038867D01*
X132719552Y-125994552D01*
X132763867Y-125928231D01*
X132763867Y-125928229D01*
X132763868Y-125928229D01*
X132775499Y-125869752D01*
X132775500Y-125869750D01*
X132775500Y-124896530D01*
X133214500Y-124896530D01*
X133214500Y-125103469D01*
X133254868Y-125306412D01*
X133254870Y-125306420D01*
X133334058Y-125497596D01*
X133449024Y-125669657D01*
X133595342Y-125815975D01*
X133595345Y-125815977D01*
X133767402Y-125930941D01*
X133958580Y-126010130D01*
X134103052Y-126038867D01*
X134161530Y-126050499D01*
X134161534Y-126050500D01*
X134161535Y-126050500D01*
X134368466Y-126050500D01*
X134368467Y-126050499D01*
X134571420Y-126010130D01*
X134762598Y-125930941D01*
X134934655Y-125815977D01*
X135080977Y-125669655D01*
X135195941Y-125497598D01*
X135275130Y-125306420D01*
X135315500Y-125103465D01*
X135315500Y-124896535D01*
X135275130Y-124693580D01*
X135195941Y-124502402D01*
X135080977Y-124330345D01*
X135080975Y-124330342D01*
X134934657Y-124184024D01*
X134854173Y-124130247D01*
X138674500Y-124130247D01*
X138674500Y-125869752D01*
X138686131Y-125928229D01*
X138686132Y-125928230D01*
X138730447Y-125994552D01*
X138796769Y-126038867D01*
X138796770Y-126038868D01*
X138855247Y-126050499D01*
X138855250Y-126050500D01*
X138855252Y-126050500D01*
X140594750Y-126050500D01*
X140594751Y-126050499D01*
X140609568Y-126047552D01*
X140653229Y-126038868D01*
X140653229Y-126038867D01*
X140653231Y-126038867D01*
X140719552Y-125994552D01*
X140763867Y-125928231D01*
X140763867Y-125928229D01*
X140763868Y-125928229D01*
X140775499Y-125869752D01*
X140775500Y-125869750D01*
X140775500Y-124896530D01*
X141214500Y-124896530D01*
X141214500Y-125103469D01*
X141254868Y-125306412D01*
X141254870Y-125306420D01*
X141334058Y-125497596D01*
X141449024Y-125669657D01*
X141595342Y-125815975D01*
X141595345Y-125815977D01*
X141767402Y-125930941D01*
X141958580Y-126010130D01*
X142103052Y-126038867D01*
X142161530Y-126050499D01*
X142161534Y-126050500D01*
X142161535Y-126050500D01*
X142368466Y-126050500D01*
X142368467Y-126050499D01*
X142571420Y-126010130D01*
X142762598Y-125930941D01*
X142934655Y-125815977D01*
X143080977Y-125669655D01*
X143195941Y-125497598D01*
X143275130Y-125306420D01*
X143315500Y-125103465D01*
X143315500Y-124896535D01*
X143275130Y-124693580D01*
X143195941Y-124502402D01*
X143080977Y-124330345D01*
X143080975Y-124330342D01*
X142934657Y-124184024D01*
X142854173Y-124130247D01*
X146674500Y-124130247D01*
X146674500Y-125869752D01*
X146686131Y-125928229D01*
X146686132Y-125928230D01*
X146730447Y-125994552D01*
X146796769Y-126038867D01*
X146796770Y-126038868D01*
X146855247Y-126050499D01*
X146855250Y-126050500D01*
X146855252Y-126050500D01*
X148594750Y-126050500D01*
X148594751Y-126050499D01*
X148609568Y-126047552D01*
X148653229Y-126038868D01*
X148653229Y-126038867D01*
X148653231Y-126038867D01*
X148719552Y-125994552D01*
X148763867Y-125928231D01*
X148763867Y-125928229D01*
X148763868Y-125928229D01*
X148775499Y-125869752D01*
X148775500Y-125869750D01*
X148775500Y-124896530D01*
X149214500Y-124896530D01*
X149214500Y-125103469D01*
X149254868Y-125306412D01*
X149254870Y-125306420D01*
X149334058Y-125497596D01*
X149449024Y-125669657D01*
X149595342Y-125815975D01*
X149595345Y-125815977D01*
X149767402Y-125930941D01*
X149958580Y-126010130D01*
X150103052Y-126038867D01*
X150161530Y-126050499D01*
X150161534Y-126050500D01*
X150161535Y-126050500D01*
X150368466Y-126050500D01*
X150368467Y-126050499D01*
X150571420Y-126010130D01*
X150762598Y-125930941D01*
X150934655Y-125815977D01*
X151080977Y-125669655D01*
X151195941Y-125497598D01*
X151275130Y-125306420D01*
X151315500Y-125103465D01*
X151315500Y-124896535D01*
X151275130Y-124693580D01*
X151195941Y-124502402D01*
X151080977Y-124330345D01*
X151080975Y-124330342D01*
X150934657Y-124184024D01*
X150854173Y-124130247D01*
X157409500Y-124130247D01*
X157409500Y-125869752D01*
X157421131Y-125928229D01*
X157421132Y-125928230D01*
X157465447Y-125994552D01*
X157531769Y-126038867D01*
X157531770Y-126038868D01*
X157590247Y-126050499D01*
X157590250Y-126050500D01*
X157590252Y-126050500D01*
X159329750Y-126050500D01*
X159329751Y-126050499D01*
X159344568Y-126047552D01*
X159388229Y-126038868D01*
X159388229Y-126038867D01*
X159388231Y-126038867D01*
X159454552Y-125994552D01*
X159498867Y-125928231D01*
X159498867Y-125928229D01*
X159498868Y-125928229D01*
X159510499Y-125869752D01*
X159510500Y-125869750D01*
X159510500Y-124896530D01*
X159949500Y-124896530D01*
X159949500Y-125103469D01*
X159989868Y-125306412D01*
X159989870Y-125306420D01*
X160069058Y-125497596D01*
X160184024Y-125669657D01*
X160330342Y-125815975D01*
X160330345Y-125815977D01*
X160502402Y-125930941D01*
X160693580Y-126010130D01*
X160838052Y-126038867D01*
X160896530Y-126050499D01*
X160896534Y-126050500D01*
X160896535Y-126050500D01*
X161103466Y-126050500D01*
X161103467Y-126050499D01*
X161306420Y-126010130D01*
X161497598Y-125930941D01*
X161669655Y-125815977D01*
X161669658Y-125815974D01*
X161720905Y-125764728D01*
X161815974Y-125669658D01*
X161815975Y-125669657D01*
X161815977Y-125669655D01*
X161930941Y-125497598D01*
X162010130Y-125306420D01*
X162050500Y-125103465D01*
X162050500Y-124896579D01*
X162490000Y-124896579D01*
X162490000Y-125103420D01*
X162530348Y-125306266D01*
X162530350Y-125306274D01*
X162609500Y-125497359D01*
X162641377Y-125545067D01*
X162641378Y-125545067D01*
X163057037Y-125129408D01*
X163074075Y-125192993D01*
X163139901Y-125307007D01*
X163232993Y-125400099D01*
X163347007Y-125465925D01*
X163410590Y-125482962D01*
X162994931Y-125898620D01*
X162994932Y-125898621D01*
X163042633Y-125930495D01*
X163042639Y-125930498D01*
X163233725Y-126009649D01*
X163233733Y-126009651D01*
X163436579Y-126049999D01*
X163436583Y-126050000D01*
X163643417Y-126050000D01*
X163643420Y-126049999D01*
X163846266Y-126009651D01*
X163846274Y-126009649D01*
X164037366Y-125930495D01*
X164085066Y-125898621D01*
X164085067Y-125898620D01*
X163669409Y-125482962D01*
X163732993Y-125465925D01*
X163847007Y-125400099D01*
X163940099Y-125307007D01*
X164005925Y-125192993D01*
X164022962Y-125129408D01*
X164438620Y-125545067D01*
X164438621Y-125545066D01*
X164470495Y-125497366D01*
X164549649Y-125306274D01*
X164549651Y-125306266D01*
X164589999Y-125103420D01*
X164590000Y-125103417D01*
X164590000Y-124896583D01*
X164589999Y-124896579D01*
X164549651Y-124693733D01*
X164549649Y-124693725D01*
X164470498Y-124502639D01*
X164470495Y-124502633D01*
X164438621Y-124454932D01*
X164438620Y-124454931D01*
X164022962Y-124870590D01*
X164005925Y-124807007D01*
X163940099Y-124692993D01*
X163847007Y-124599901D01*
X163732993Y-124534075D01*
X163669408Y-124517037D01*
X164056197Y-124130247D01*
X166949500Y-124130247D01*
X166949500Y-125869752D01*
X166961131Y-125928229D01*
X166961132Y-125928230D01*
X167005447Y-125994552D01*
X167071769Y-126038867D01*
X167071770Y-126038868D01*
X167130247Y-126050499D01*
X167130250Y-126050500D01*
X167130252Y-126050500D01*
X168869750Y-126050500D01*
X168869751Y-126050499D01*
X168884568Y-126047552D01*
X168928229Y-126038868D01*
X168928229Y-126038867D01*
X168928231Y-126038867D01*
X168994552Y-125994552D01*
X169038867Y-125928231D01*
X169038867Y-125928229D01*
X169038868Y-125928229D01*
X169050499Y-125869752D01*
X169050500Y-125869750D01*
X169050500Y-124896530D01*
X169489500Y-124896530D01*
X169489500Y-125103469D01*
X169529868Y-125306412D01*
X169529870Y-125306420D01*
X169609058Y-125497596D01*
X169724024Y-125669657D01*
X169870342Y-125815975D01*
X169870345Y-125815977D01*
X170042402Y-125930941D01*
X170233580Y-126010130D01*
X170378052Y-126038867D01*
X170436530Y-126050499D01*
X170436534Y-126050500D01*
X170436535Y-126050500D01*
X170643466Y-126050500D01*
X170643467Y-126050499D01*
X170846420Y-126010130D01*
X171037598Y-125930941D01*
X171209655Y-125815977D01*
X171209658Y-125815974D01*
X171260905Y-125764728D01*
X171355974Y-125669658D01*
X171355975Y-125669657D01*
X171355977Y-125669655D01*
X171470941Y-125497598D01*
X171550130Y-125306420D01*
X171590500Y-125103465D01*
X171590500Y-124896579D01*
X172030000Y-124896579D01*
X172030000Y-125103420D01*
X172070348Y-125306266D01*
X172070350Y-125306274D01*
X172149500Y-125497359D01*
X172181377Y-125545067D01*
X172181378Y-125545067D01*
X172597037Y-125129408D01*
X172614075Y-125192993D01*
X172679901Y-125307007D01*
X172772993Y-125400099D01*
X172887007Y-125465925D01*
X172950590Y-125482962D01*
X172534931Y-125898620D01*
X172534932Y-125898621D01*
X172582633Y-125930495D01*
X172582639Y-125930498D01*
X172773725Y-126009649D01*
X172773733Y-126009651D01*
X172976579Y-126049999D01*
X172976583Y-126050000D01*
X173183417Y-126050000D01*
X173183420Y-126049999D01*
X173386266Y-126009651D01*
X173386274Y-126009649D01*
X173577366Y-125930495D01*
X173625066Y-125898621D01*
X173625067Y-125898620D01*
X173591633Y-125865186D01*
X176599500Y-125865186D01*
X176599500Y-126134813D01*
X176629686Y-126402719D01*
X176629688Y-126402731D01*
X176689684Y-126665594D01*
X176689687Y-126665602D01*
X176778734Y-126920082D01*
X176895714Y-127162994D01*
X176895716Y-127162997D01*
X177039162Y-127391289D01*
X177207266Y-127602085D01*
X177397915Y-127792734D01*
X177608711Y-127960838D01*
X177837003Y-128104284D01*
X178079921Y-128221267D01*
X178271049Y-128288145D01*
X178334397Y-128310312D01*
X178334405Y-128310315D01*
X178334408Y-128310315D01*
X178334409Y-128310316D01*
X178597268Y-128370312D01*
X178865187Y-128400499D01*
X178865188Y-128400500D01*
X178865191Y-128400500D01*
X179134812Y-128400500D01*
X179134812Y-128400499D01*
X179402732Y-128370312D01*
X179665591Y-128310316D01*
X179920079Y-128221267D01*
X180162997Y-128104284D01*
X180391289Y-127960838D01*
X180602085Y-127792734D01*
X180792734Y-127602085D01*
X180960838Y-127391289D01*
X181104284Y-127162997D01*
X181221267Y-126920079D01*
X181310316Y-126665591D01*
X181370312Y-126402732D01*
X181400500Y-126134809D01*
X181400500Y-125865191D01*
X181370312Y-125597268D01*
X181310316Y-125334409D01*
X181300519Y-125306412D01*
X181288145Y-125271049D01*
X181221267Y-125079921D01*
X181104284Y-124837003D01*
X180960838Y-124608711D01*
X180792734Y-124397915D01*
X180602085Y-124207266D01*
X180572940Y-124184024D01*
X180505512Y-124130252D01*
X180391289Y-124039162D01*
X180162997Y-123895716D01*
X180162994Y-123895714D01*
X179920082Y-123778734D01*
X179665602Y-123689687D01*
X179665594Y-123689684D01*
X179468446Y-123644687D01*
X179402732Y-123629688D01*
X179402728Y-123629687D01*
X179402719Y-123629686D01*
X179134813Y-123599500D01*
X179134809Y-123599500D01*
X178865191Y-123599500D01*
X178865186Y-123599500D01*
X178597280Y-123629686D01*
X178597268Y-123629688D01*
X178334405Y-123689684D01*
X178334397Y-123689687D01*
X178079917Y-123778734D01*
X177837005Y-123895714D01*
X177608712Y-124039161D01*
X177397915Y-124207265D01*
X177207265Y-124397915D01*
X177039161Y-124608712D01*
X176895714Y-124837005D01*
X176778734Y-125079917D01*
X176689687Y-125334397D01*
X176689684Y-125334405D01*
X176629688Y-125597268D01*
X176629686Y-125597280D01*
X176599500Y-125865186D01*
X173591633Y-125865186D01*
X173209409Y-125482962D01*
X173272993Y-125465925D01*
X173387007Y-125400099D01*
X173480099Y-125307007D01*
X173545925Y-125192993D01*
X173562962Y-125129408D01*
X173978620Y-125545067D01*
X173978621Y-125545066D01*
X174010495Y-125497366D01*
X174089649Y-125306274D01*
X174089651Y-125306266D01*
X174129999Y-125103420D01*
X174130000Y-125103417D01*
X174130000Y-124896583D01*
X174129999Y-124896579D01*
X174089651Y-124693733D01*
X174089649Y-124693725D01*
X174010498Y-124502639D01*
X174010495Y-124502633D01*
X173978621Y-124454932D01*
X173978620Y-124454931D01*
X173562962Y-124870590D01*
X173545925Y-124807007D01*
X173480099Y-124692993D01*
X173387007Y-124599901D01*
X173272993Y-124534075D01*
X173209409Y-124517037D01*
X173625067Y-124101378D01*
X173625067Y-124101377D01*
X173577359Y-124069500D01*
X173386274Y-123990350D01*
X173386266Y-123990348D01*
X173183420Y-123950000D01*
X172976579Y-123950000D01*
X172773733Y-123990348D01*
X172773725Y-123990350D01*
X172582641Y-124069500D01*
X172582631Y-124069505D01*
X172534932Y-124101377D01*
X172534932Y-124101378D01*
X172950591Y-124517037D01*
X172887007Y-124534075D01*
X172772993Y-124599901D01*
X172679901Y-124692993D01*
X172614075Y-124807007D01*
X172597037Y-124870591D01*
X172181378Y-124454932D01*
X172181377Y-124454932D01*
X172149505Y-124502631D01*
X172149500Y-124502641D01*
X172070350Y-124693725D01*
X172070348Y-124693733D01*
X172030000Y-124896579D01*
X171590500Y-124896579D01*
X171590500Y-124896535D01*
X171550130Y-124693580D01*
X171470941Y-124502402D01*
X171355977Y-124330345D01*
X171355975Y-124330342D01*
X171209657Y-124184024D01*
X171085967Y-124101378D01*
X171037598Y-124069059D01*
X170965418Y-124039161D01*
X170846420Y-123989870D01*
X170846412Y-123989868D01*
X170643469Y-123949500D01*
X170643465Y-123949500D01*
X170436535Y-123949500D01*
X170436530Y-123949500D01*
X170233587Y-123989868D01*
X170233579Y-123989870D01*
X170042403Y-124069058D01*
X169870342Y-124184024D01*
X169724024Y-124330342D01*
X169609058Y-124502403D01*
X169529870Y-124693579D01*
X169529868Y-124693587D01*
X169489500Y-124896530D01*
X169050500Y-124896530D01*
X169050500Y-124130249D01*
X169050499Y-124130247D01*
X169038868Y-124071770D01*
X169038867Y-124071769D01*
X168994552Y-124005447D01*
X168928230Y-123961132D01*
X168928229Y-123961131D01*
X168869752Y-123949500D01*
X168869748Y-123949500D01*
X167130252Y-123949500D01*
X167130247Y-123949500D01*
X167071770Y-123961131D01*
X167071769Y-123961132D01*
X167005447Y-124005447D01*
X166961132Y-124071769D01*
X166961131Y-124071770D01*
X166949500Y-124130247D01*
X164056197Y-124130247D01*
X164085067Y-124101377D01*
X164037359Y-124069500D01*
X163846274Y-123990350D01*
X163846266Y-123990348D01*
X163643420Y-123950000D01*
X163436579Y-123950000D01*
X163233733Y-123990348D01*
X163233725Y-123990350D01*
X163042641Y-124069500D01*
X163042631Y-124069505D01*
X162994932Y-124101377D01*
X162994932Y-124101378D01*
X163410591Y-124517037D01*
X163347007Y-124534075D01*
X163232993Y-124599901D01*
X163139901Y-124692993D01*
X163074075Y-124807007D01*
X163057037Y-124870590D01*
X162641378Y-124454932D01*
X162641377Y-124454932D01*
X162609505Y-124502631D01*
X162609500Y-124502641D01*
X162530350Y-124693725D01*
X162530348Y-124693733D01*
X162490000Y-124896579D01*
X162050500Y-124896579D01*
X162050500Y-124896535D01*
X162010130Y-124693580D01*
X161930941Y-124502402D01*
X161815977Y-124330345D01*
X161815975Y-124330342D01*
X161669657Y-124184024D01*
X161545967Y-124101378D01*
X161497598Y-124069059D01*
X161425418Y-124039161D01*
X161306420Y-123989870D01*
X161306412Y-123989868D01*
X161103469Y-123949500D01*
X161103465Y-123949500D01*
X160896535Y-123949500D01*
X160896530Y-123949500D01*
X160693587Y-123989868D01*
X160693579Y-123989870D01*
X160502403Y-124069058D01*
X160330342Y-124184024D01*
X160184024Y-124330342D01*
X160069058Y-124502403D01*
X159989870Y-124693579D01*
X159989868Y-124693587D01*
X159949500Y-124896530D01*
X159510500Y-124896530D01*
X159510500Y-124130249D01*
X159510499Y-124130247D01*
X159498868Y-124071770D01*
X159498867Y-124071769D01*
X159454552Y-124005447D01*
X159388230Y-123961132D01*
X159388229Y-123961131D01*
X159329752Y-123949500D01*
X159329748Y-123949500D01*
X157590252Y-123949500D01*
X157590247Y-123949500D01*
X157531770Y-123961131D01*
X157531769Y-123961132D01*
X157465447Y-124005447D01*
X157421132Y-124071769D01*
X157421131Y-124071770D01*
X157409500Y-124130247D01*
X150854173Y-124130247D01*
X150810967Y-124101378D01*
X150762598Y-124069059D01*
X150690418Y-124039161D01*
X150571420Y-123989870D01*
X150571412Y-123989868D01*
X150368469Y-123949500D01*
X150368465Y-123949500D01*
X150161535Y-123949500D01*
X150161530Y-123949500D01*
X149958587Y-123989868D01*
X149958579Y-123989870D01*
X149767403Y-124069058D01*
X149595342Y-124184024D01*
X149449024Y-124330342D01*
X149334058Y-124502403D01*
X149254870Y-124693579D01*
X149254868Y-124693587D01*
X149214500Y-124896530D01*
X148775500Y-124896530D01*
X148775500Y-124130249D01*
X148775499Y-124130247D01*
X148763868Y-124071770D01*
X148763867Y-124071769D01*
X148719552Y-124005447D01*
X148653230Y-123961132D01*
X148653229Y-123961131D01*
X148594752Y-123949500D01*
X148594748Y-123949500D01*
X146855252Y-123949500D01*
X146855247Y-123949500D01*
X146796770Y-123961131D01*
X146796769Y-123961132D01*
X146730447Y-124005447D01*
X146686132Y-124071769D01*
X146686131Y-124071770D01*
X146674500Y-124130247D01*
X142854173Y-124130247D01*
X142810967Y-124101378D01*
X142762598Y-124069059D01*
X142690418Y-124039161D01*
X142571420Y-123989870D01*
X142571412Y-123989868D01*
X142368469Y-123949500D01*
X142368465Y-123949500D01*
X142161535Y-123949500D01*
X142161530Y-123949500D01*
X141958587Y-123989868D01*
X141958579Y-123989870D01*
X141767403Y-124069058D01*
X141595342Y-124184024D01*
X141449024Y-124330342D01*
X141334058Y-124502403D01*
X141254870Y-124693579D01*
X141254868Y-124693587D01*
X141214500Y-124896530D01*
X140775500Y-124896530D01*
X140775500Y-124130249D01*
X140775499Y-124130247D01*
X140763868Y-124071770D01*
X140763867Y-124071769D01*
X140719552Y-124005447D01*
X140653230Y-123961132D01*
X140653229Y-123961131D01*
X140594752Y-123949500D01*
X140594748Y-123949500D01*
X138855252Y-123949500D01*
X138855247Y-123949500D01*
X138796770Y-123961131D01*
X138796769Y-123961132D01*
X138730447Y-124005447D01*
X138686132Y-124071769D01*
X138686131Y-124071770D01*
X138674500Y-124130247D01*
X134854173Y-124130247D01*
X134810967Y-124101378D01*
X134762598Y-124069059D01*
X134690418Y-124039161D01*
X134571420Y-123989870D01*
X134571412Y-123989868D01*
X134368469Y-123949500D01*
X134368465Y-123949500D01*
X134161535Y-123949500D01*
X134161530Y-123949500D01*
X133958587Y-123989868D01*
X133958579Y-123989870D01*
X133767403Y-124069058D01*
X133595342Y-124184024D01*
X133449024Y-124330342D01*
X133334058Y-124502403D01*
X133254870Y-124693579D01*
X133254868Y-124693587D01*
X133214500Y-124896530D01*
X132775500Y-124896530D01*
X132775500Y-124130249D01*
X132775499Y-124130247D01*
X132763868Y-124071770D01*
X132763867Y-124071769D01*
X132719552Y-124005447D01*
X132653230Y-123961132D01*
X132653229Y-123961131D01*
X132594752Y-123949500D01*
X132594748Y-123949500D01*
X130855252Y-123949500D01*
X130855247Y-123949500D01*
X130796770Y-123961131D01*
X130796769Y-123961132D01*
X130730447Y-124005447D01*
X130686132Y-124071769D01*
X130686131Y-124071770D01*
X130674500Y-124130247D01*
X121505506Y-124130247D01*
X121391289Y-124039162D01*
X121162997Y-123895716D01*
X121162994Y-123895714D01*
X120920082Y-123778734D01*
X120665602Y-123689687D01*
X120665594Y-123689684D01*
X120468446Y-123644687D01*
X120402732Y-123629688D01*
X120402728Y-123629687D01*
X120402719Y-123629686D01*
X120134813Y-123599500D01*
X120134809Y-123599500D01*
X119865191Y-123599500D01*
X119865186Y-123599500D01*
X119597280Y-123629686D01*
X119597268Y-123629688D01*
X119334405Y-123689684D01*
X119334397Y-123689687D01*
X119079917Y-123778734D01*
X118837005Y-123895714D01*
X118608712Y-124039161D01*
X118397915Y-124207265D01*
X118207265Y-124397915D01*
X118039161Y-124608712D01*
X117895714Y-124837005D01*
X117778734Y-125079917D01*
X117689687Y-125334397D01*
X117689684Y-125334405D01*
X117629688Y-125597268D01*
X117629686Y-125597280D01*
X117599500Y-125865186D01*
X117000500Y-125865186D01*
X117000500Y-120436579D01*
X119950000Y-120436579D01*
X119950000Y-120643420D01*
X119990348Y-120846266D01*
X119990350Y-120846274D01*
X120069500Y-121037359D01*
X120101377Y-121085067D01*
X120101378Y-121085067D01*
X120517037Y-120669408D01*
X120534075Y-120732993D01*
X120599901Y-120847007D01*
X120692993Y-120940099D01*
X120807007Y-121005925D01*
X120870590Y-121022962D01*
X120454931Y-121438620D01*
X120454932Y-121438621D01*
X120502633Y-121470495D01*
X120502639Y-121470498D01*
X120693725Y-121549649D01*
X120693733Y-121549651D01*
X120896579Y-121589999D01*
X120896583Y-121590000D01*
X121103417Y-121590000D01*
X121103420Y-121589999D01*
X121306266Y-121549651D01*
X121306274Y-121549649D01*
X121497366Y-121470495D01*
X121545066Y-121438621D01*
X121545067Y-121438620D01*
X121129409Y-121022962D01*
X121192993Y-121005925D01*
X121307007Y-120940099D01*
X121400099Y-120847007D01*
X121465925Y-120732993D01*
X121482962Y-120669408D01*
X121898620Y-121085067D01*
X121898621Y-121085066D01*
X121930495Y-121037366D01*
X122009649Y-120846274D01*
X122009651Y-120846266D01*
X122049999Y-120643420D01*
X122050000Y-120643417D01*
X122050000Y-120436585D01*
X122012559Y-120248350D01*
X122012559Y-120248349D01*
X122009650Y-120233728D01*
X122009649Y-120233725D01*
X122008208Y-120230247D01*
X159299500Y-120230247D01*
X159299500Y-121769752D01*
X159311131Y-121828229D01*
X159311132Y-121828230D01*
X159355447Y-121894552D01*
X159421769Y-121938867D01*
X159421770Y-121938868D01*
X159480247Y-121950499D01*
X159480250Y-121950500D01*
X159480252Y-121950500D01*
X161019750Y-121950500D01*
X161019751Y-121950499D01*
X161034568Y-121947552D01*
X161078229Y-121938868D01*
X161078229Y-121938867D01*
X161078231Y-121938867D01*
X161144552Y-121894552D01*
X161188867Y-121828231D01*
X161188867Y-121828229D01*
X161188868Y-121828229D01*
X161200499Y-121769752D01*
X161200500Y-121769750D01*
X161200500Y-120230249D01*
X161200499Y-120230247D01*
X168049500Y-120230247D01*
X168049500Y-121769752D01*
X168061131Y-121828229D01*
X168061132Y-121828230D01*
X168105447Y-121894552D01*
X168171769Y-121938867D01*
X168171770Y-121938868D01*
X168230247Y-121950499D01*
X168230250Y-121950500D01*
X168230252Y-121950500D01*
X169769750Y-121950500D01*
X169769751Y-121950499D01*
X169784568Y-121947552D01*
X169828229Y-121938868D01*
X169828229Y-121938867D01*
X169828231Y-121938867D01*
X169894552Y-121894552D01*
X169938867Y-121828231D01*
X169938867Y-121828229D01*
X169938868Y-121828229D01*
X169950499Y-121769752D01*
X169950500Y-121769750D01*
X169950500Y-120230249D01*
X169950499Y-120230247D01*
X169938868Y-120171770D01*
X169938867Y-120171769D01*
X169894552Y-120105447D01*
X169828230Y-120061132D01*
X169828229Y-120061131D01*
X169769752Y-120049500D01*
X169769748Y-120049500D01*
X168230252Y-120049500D01*
X168230247Y-120049500D01*
X168171770Y-120061131D01*
X168171769Y-120061132D01*
X168105447Y-120105447D01*
X168061132Y-120171769D01*
X168061131Y-120171770D01*
X168049500Y-120230247D01*
X161200499Y-120230247D01*
X161188868Y-120171770D01*
X161188867Y-120171769D01*
X161144552Y-120105447D01*
X161078230Y-120061132D01*
X161078229Y-120061131D01*
X161019752Y-120049500D01*
X161019748Y-120049500D01*
X159480252Y-120049500D01*
X159480247Y-120049500D01*
X159421770Y-120061131D01*
X159421769Y-120061132D01*
X159355447Y-120105447D01*
X159311132Y-120171769D01*
X159311131Y-120171770D01*
X159299500Y-120230247D01*
X122008208Y-120230247D01*
X121930498Y-120042639D01*
X121930495Y-120042633D01*
X121898621Y-119994932D01*
X121898620Y-119994931D01*
X121482962Y-120410590D01*
X121465925Y-120347007D01*
X121400099Y-120232993D01*
X121307007Y-120139901D01*
X121192993Y-120074075D01*
X121129409Y-120057037D01*
X121545067Y-119641378D01*
X121545067Y-119641377D01*
X121497359Y-119609500D01*
X121306274Y-119530350D01*
X121306266Y-119530348D01*
X121103420Y-119490000D01*
X120896579Y-119490000D01*
X120693733Y-119530348D01*
X120693725Y-119530350D01*
X120502641Y-119609500D01*
X120502631Y-119609505D01*
X120454932Y-119641377D01*
X120454932Y-119641378D01*
X120870591Y-120057037D01*
X120807007Y-120074075D01*
X120692993Y-120139901D01*
X120599901Y-120232993D01*
X120534075Y-120347007D01*
X120517037Y-120410591D01*
X120101378Y-119994932D01*
X120101377Y-119994932D01*
X120069505Y-120042631D01*
X120069500Y-120042641D01*
X119990350Y-120233725D01*
X119990348Y-120233733D01*
X119950000Y-120436579D01*
X117000500Y-120436579D01*
X117000500Y-117896530D01*
X119949500Y-117896530D01*
X119949500Y-118103469D01*
X119989868Y-118306412D01*
X119989870Y-118306420D01*
X120069058Y-118497596D01*
X120184024Y-118669657D01*
X120330342Y-118815975D01*
X120330345Y-118815977D01*
X120502402Y-118930941D01*
X120693580Y-119010130D01*
X120896530Y-119050499D01*
X120896534Y-119050500D01*
X120896535Y-119050500D01*
X121103466Y-119050500D01*
X121103467Y-119050499D01*
X121306420Y-119010130D01*
X121497598Y-118930941D01*
X121669655Y-118815977D01*
X121815977Y-118669655D01*
X121930941Y-118497598D01*
X122010130Y-118306420D01*
X122050500Y-118103465D01*
X122050500Y-117896535D01*
X122010130Y-117693580D01*
X121930941Y-117502402D01*
X121815977Y-117330345D01*
X121815975Y-117330342D01*
X121669657Y-117184024D01*
X121583626Y-117126541D01*
X121497598Y-117069059D01*
X121306420Y-116989870D01*
X121306412Y-116989868D01*
X121103469Y-116949500D01*
X121103465Y-116949500D01*
X120896535Y-116949500D01*
X120896530Y-116949500D01*
X120693587Y-116989868D01*
X120693579Y-116989870D01*
X120502403Y-117069058D01*
X120330342Y-117184024D01*
X120184024Y-117330342D01*
X120069058Y-117502403D01*
X119989870Y-117693579D01*
X119989868Y-117693587D01*
X119949500Y-117896530D01*
X117000500Y-117896530D01*
X117000500Y-114590247D01*
X119949500Y-114590247D01*
X119949500Y-116329752D01*
X119961131Y-116388229D01*
X119961132Y-116388230D01*
X120005447Y-116454552D01*
X120071769Y-116498867D01*
X120071770Y-116498868D01*
X120130247Y-116510499D01*
X120130250Y-116510500D01*
X120130252Y-116510500D01*
X121869750Y-116510500D01*
X121869751Y-116510499D01*
X121884568Y-116507552D01*
X121928229Y-116498868D01*
X121928229Y-116498867D01*
X121928231Y-116498867D01*
X121994552Y-116454552D01*
X122038867Y-116388231D01*
X122038867Y-116388229D01*
X122038868Y-116388229D01*
X122050499Y-116329752D01*
X122050500Y-116329750D01*
X122050500Y-114590249D01*
X122050499Y-114590247D01*
X122038868Y-114531770D01*
X122038867Y-114531769D01*
X122018613Y-114501457D01*
X122018612Y-114501456D01*
X121994551Y-114465446D01*
X121957502Y-114440691D01*
X129049500Y-114440691D01*
X129049500Y-114559309D01*
X129080201Y-114673886D01*
X129139511Y-114776613D01*
X129223387Y-114860489D01*
X129326114Y-114919799D01*
X129440691Y-114950500D01*
X129440694Y-114950500D01*
X129559306Y-114950500D01*
X129559309Y-114950500D01*
X129673886Y-114919799D01*
X129765140Y-114867112D01*
X129827140Y-114850500D01*
X132387036Y-114850500D01*
X132454075Y-114870185D01*
X132474717Y-114886819D01*
X132498387Y-114910489D01*
X132601114Y-114969799D01*
X132715691Y-115000500D01*
X132715694Y-115000500D01*
X132834306Y-115000500D01*
X132834309Y-115000500D01*
X132948886Y-114969799D01*
X133051613Y-114910489D01*
X133135489Y-114826613D01*
X133194799Y-114723886D01*
X133225500Y-114609309D01*
X133225500Y-114490691D01*
X133194799Y-114376114D01*
X133135489Y-114273387D01*
X133111819Y-114249717D01*
X133078334Y-114188394D01*
X133075500Y-114162036D01*
X133075500Y-112480247D01*
X133549500Y-112480247D01*
X133549500Y-114019752D01*
X133561131Y-114078229D01*
X133561132Y-114078230D01*
X133605447Y-114144552D01*
X133671769Y-114188867D01*
X133671770Y-114188868D01*
X133730247Y-114200499D01*
X133730250Y-114200500D01*
X133730252Y-114200500D01*
X135269750Y-114200500D01*
X135269751Y-114200499D01*
X135284568Y-114197552D01*
X135328229Y-114188868D01*
X135328229Y-114188867D01*
X135328231Y-114188867D01*
X135394552Y-114144552D01*
X135394553Y-114144551D01*
X135403188Y-114135917D01*
X135405686Y-114138415D01*
X135413811Y-114131623D01*
X135436624Y-114110100D01*
X135440405Y-114109391D01*
X135443359Y-114106923D01*
X135474478Y-114103010D01*
X135505300Y-114097238D01*
X135508864Y-114098687D01*
X135512683Y-114098207D01*
X135540976Y-114111739D01*
X135570027Y-114123548D01*
X135573086Y-114127097D01*
X135575715Y-114128355D01*
X135594248Y-114149219D01*
X135597463Y-114153785D01*
X135639511Y-114226613D01*
X135670736Y-114257838D01*
X135676885Y-114266570D01*
X135684836Y-114289942D01*
X135696666Y-114311606D01*
X135698726Y-114330768D01*
X135699389Y-114332716D01*
X135699072Y-114333990D01*
X135699500Y-114337964D01*
X135699500Y-114662036D01*
X135679815Y-114729075D01*
X135663181Y-114749717D01*
X135639513Y-114773384D01*
X135639511Y-114773387D01*
X135608780Y-114826615D01*
X135580201Y-114876114D01*
X135549500Y-114990691D01*
X135549500Y-115109309D01*
X135580201Y-115223886D01*
X135639511Y-115326613D01*
X135723387Y-115410489D01*
X135826114Y-115469799D01*
X135940691Y-115500500D01*
X135940694Y-115500500D01*
X136059306Y-115500500D01*
X136059309Y-115500500D01*
X136173886Y-115469799D01*
X136276613Y-115410489D01*
X136287319Y-115399783D01*
X136348642Y-115366298D01*
X136418334Y-115371282D01*
X136462681Y-115399783D01*
X136473387Y-115410489D01*
X136576114Y-115469799D01*
X136690691Y-115500500D01*
X136690694Y-115500500D01*
X136809306Y-115500500D01*
X136809309Y-115500500D01*
X136923886Y-115469799D01*
X137026613Y-115410489D01*
X137110489Y-115326613D01*
X137169799Y-115223886D01*
X137200500Y-115109309D01*
X137200500Y-114990691D01*
X137169799Y-114876114D01*
X137110489Y-114773387D01*
X137086819Y-114749717D01*
X137053334Y-114688394D01*
X137050500Y-114662036D01*
X137050500Y-114337964D01*
X137070185Y-114270925D01*
X137073115Y-114266571D01*
X137079265Y-114257836D01*
X137110489Y-114226613D01*
X137152537Y-114153783D01*
X137155751Y-114149220D01*
X137178904Y-114130813D01*
X137200316Y-114110397D01*
X137205951Y-114109310D01*
X137210443Y-114105740D01*
X137239876Y-114102772D01*
X137268923Y-114097175D01*
X137274250Y-114099307D01*
X137279961Y-114098732D01*
X137306328Y-114112149D01*
X137333788Y-114123143D01*
X137339003Y-114128777D01*
X137342231Y-114130420D01*
X137345155Y-114135424D01*
X137346188Y-114136540D01*
X137346812Y-114135917D01*
X137355446Y-114144551D01*
X137421769Y-114188867D01*
X137421770Y-114188868D01*
X137480247Y-114200499D01*
X137480250Y-114200500D01*
X137480252Y-114200500D01*
X139019750Y-114200500D01*
X139019751Y-114200499D01*
X139034568Y-114197552D01*
X139078229Y-114188868D01*
X139078229Y-114188867D01*
X139078231Y-114188867D01*
X139144552Y-114144552D01*
X139188867Y-114078231D01*
X139188867Y-114078229D01*
X139188868Y-114078229D01*
X139200499Y-114019752D01*
X139200500Y-114019750D01*
X139200500Y-112480249D01*
X139200499Y-112480247D01*
X139799500Y-112480247D01*
X139799500Y-114019752D01*
X139811131Y-114078229D01*
X139811132Y-114078230D01*
X139855447Y-114144552D01*
X139921769Y-114188867D01*
X139921770Y-114188868D01*
X139980247Y-114200499D01*
X139980250Y-114200500D01*
X139980252Y-114200500D01*
X141519750Y-114200500D01*
X141519751Y-114200499D01*
X141534568Y-114197552D01*
X141578229Y-114188868D01*
X141578229Y-114188867D01*
X141578231Y-114188867D01*
X141644552Y-114144552D01*
X141644553Y-114144551D01*
X141653188Y-114135917D01*
X141655686Y-114138415D01*
X141663811Y-114131623D01*
X141686624Y-114110100D01*
X141690405Y-114109391D01*
X141693359Y-114106923D01*
X141724478Y-114103010D01*
X141755300Y-114097238D01*
X141758864Y-114098687D01*
X141762683Y-114098207D01*
X141790976Y-114111739D01*
X141820027Y-114123548D01*
X141823086Y-114127097D01*
X141825715Y-114128355D01*
X141844248Y-114149219D01*
X141847463Y-114153785D01*
X141889511Y-114226613D01*
X141920736Y-114257838D01*
X141926885Y-114266570D01*
X141934836Y-114289942D01*
X141946666Y-114311606D01*
X141948726Y-114330768D01*
X141949389Y-114332716D01*
X141949072Y-114333990D01*
X141949500Y-114337964D01*
X141949500Y-114662036D01*
X141929815Y-114729075D01*
X141913181Y-114749717D01*
X141889513Y-114773384D01*
X141889511Y-114773387D01*
X141858780Y-114826615D01*
X141830201Y-114876114D01*
X141799500Y-114990691D01*
X141799500Y-115109309D01*
X141830201Y-115223886D01*
X141889511Y-115326613D01*
X141973387Y-115410489D01*
X142076114Y-115469799D01*
X142190691Y-115500500D01*
X142190694Y-115500500D01*
X142309306Y-115500500D01*
X142309309Y-115500500D01*
X142423886Y-115469799D01*
X142526613Y-115410489D01*
X142537319Y-115399783D01*
X142598642Y-115366298D01*
X142668334Y-115371282D01*
X142712681Y-115399783D01*
X142723387Y-115410489D01*
X142826114Y-115469799D01*
X142940691Y-115500500D01*
X142940694Y-115500500D01*
X143059306Y-115500500D01*
X143059309Y-115500500D01*
X143173886Y-115469799D01*
X143276613Y-115410489D01*
X143360489Y-115326613D01*
X143419799Y-115223886D01*
X143450500Y-115109309D01*
X143450500Y-114990691D01*
X143419799Y-114876114D01*
X143360489Y-114773387D01*
X143336819Y-114749717D01*
X143303334Y-114688394D01*
X143300500Y-114662036D01*
X143300500Y-114337964D01*
X143320185Y-114270925D01*
X143323115Y-114266571D01*
X143329265Y-114257836D01*
X143360489Y-114226613D01*
X143402537Y-114153783D01*
X143405751Y-114149220D01*
X143428904Y-114130813D01*
X143450316Y-114110397D01*
X143455951Y-114109310D01*
X143460443Y-114105740D01*
X143489876Y-114102772D01*
X143518923Y-114097175D01*
X143524250Y-114099307D01*
X143529961Y-114098732D01*
X143556328Y-114112149D01*
X143583788Y-114123143D01*
X143589003Y-114128777D01*
X143592231Y-114130420D01*
X143595155Y-114135424D01*
X143596188Y-114136540D01*
X143596812Y-114135917D01*
X143605446Y-114144551D01*
X143671769Y-114188867D01*
X143671770Y-114188868D01*
X143730247Y-114200499D01*
X143730250Y-114200500D01*
X143730252Y-114200500D01*
X145269750Y-114200500D01*
X145269751Y-114200499D01*
X145284568Y-114197552D01*
X145328229Y-114188868D01*
X145328229Y-114188867D01*
X145328231Y-114188867D01*
X145394552Y-114144552D01*
X145438867Y-114078231D01*
X145438867Y-114078229D01*
X145438868Y-114078229D01*
X145450499Y-114019752D01*
X145450500Y-114019750D01*
X145450500Y-112480249D01*
X145450499Y-112480247D01*
X147799500Y-112480247D01*
X147799500Y-114019752D01*
X147811131Y-114078229D01*
X147811132Y-114078230D01*
X147855447Y-114144552D01*
X147921769Y-114188867D01*
X147921770Y-114188868D01*
X147980247Y-114200499D01*
X147980250Y-114200500D01*
X147980252Y-114200500D01*
X149519750Y-114200500D01*
X149519751Y-114200499D01*
X149534568Y-114197552D01*
X149578229Y-114188868D01*
X149578229Y-114188867D01*
X149578231Y-114188867D01*
X149644552Y-114144552D01*
X149688867Y-114078231D01*
X149688867Y-114078229D01*
X149688868Y-114078229D01*
X149700499Y-114019752D01*
X149700500Y-114019750D01*
X149700500Y-112480249D01*
X149700499Y-112480247D01*
X151299500Y-112480247D01*
X151299500Y-114019752D01*
X151311131Y-114078229D01*
X151311132Y-114078230D01*
X151355447Y-114144552D01*
X151421769Y-114188867D01*
X151421770Y-114188868D01*
X151480247Y-114200499D01*
X151480250Y-114200500D01*
X151480252Y-114200500D01*
X153019750Y-114200500D01*
X153019751Y-114200499D01*
X153034568Y-114197552D01*
X153078229Y-114188868D01*
X153078229Y-114188867D01*
X153078231Y-114188867D01*
X153144552Y-114144552D01*
X153188867Y-114078231D01*
X153188867Y-114078229D01*
X153188868Y-114078229D01*
X153200499Y-114019752D01*
X153200500Y-114019750D01*
X153200500Y-112480249D01*
X153200499Y-112480247D01*
X153188868Y-112421770D01*
X153188867Y-112421769D01*
X153144552Y-112355447D01*
X153078230Y-112311132D01*
X153078229Y-112311131D01*
X153019752Y-112299500D01*
X153019748Y-112299500D01*
X151480252Y-112299500D01*
X151480247Y-112299500D01*
X151421770Y-112311131D01*
X151421769Y-112311132D01*
X151355447Y-112355447D01*
X151311132Y-112421769D01*
X151311131Y-112421770D01*
X151299500Y-112480247D01*
X149700499Y-112480247D01*
X149688868Y-112421770D01*
X149688867Y-112421769D01*
X149644552Y-112355447D01*
X149578230Y-112311132D01*
X149578229Y-112311131D01*
X149519752Y-112299500D01*
X149519748Y-112299500D01*
X147980252Y-112299500D01*
X147980247Y-112299500D01*
X147921770Y-112311131D01*
X147921769Y-112311132D01*
X147855447Y-112355447D01*
X147811132Y-112421769D01*
X147811131Y-112421770D01*
X147799500Y-112480247D01*
X145450499Y-112480247D01*
X145438868Y-112421770D01*
X145438867Y-112421769D01*
X145394552Y-112355447D01*
X145328230Y-112311132D01*
X145328229Y-112311131D01*
X145269752Y-112299500D01*
X145269748Y-112299500D01*
X143730252Y-112299500D01*
X143730247Y-112299500D01*
X143671770Y-112311131D01*
X143671769Y-112311132D01*
X143605447Y-112355447D01*
X143561132Y-112421769D01*
X143561131Y-112421770D01*
X143549500Y-112480247D01*
X143549500Y-113563036D01*
X143529815Y-113630075D01*
X143477011Y-113675830D01*
X143407853Y-113685774D01*
X143344297Y-113656749D01*
X143337819Y-113650717D01*
X143276615Y-113589513D01*
X143276613Y-113589511D01*
X143173886Y-113530201D01*
X143059309Y-113499500D01*
X142940691Y-113499500D01*
X142826114Y-113530201D01*
X142826112Y-113530201D01*
X142826112Y-113530202D01*
X142723387Y-113589511D01*
X142723386Y-113589511D01*
X142712679Y-113600219D01*
X142651354Y-113633702D01*
X142581663Y-113628715D01*
X142537321Y-113600219D01*
X142526613Y-113589511D01*
X142423886Y-113530201D01*
X142309309Y-113499500D01*
X142190691Y-113499500D01*
X142076114Y-113530201D01*
X142076112Y-113530201D01*
X142076112Y-113530202D01*
X141973387Y-113589511D01*
X141973384Y-113589513D01*
X141912181Y-113650717D01*
X141850858Y-113684202D01*
X141781166Y-113679218D01*
X141725233Y-113637346D01*
X141700816Y-113571882D01*
X141700500Y-113563036D01*
X141700500Y-112480249D01*
X141700499Y-112480247D01*
X141688868Y-112421770D01*
X141688867Y-112421769D01*
X141644552Y-112355447D01*
X141578230Y-112311132D01*
X141578229Y-112311131D01*
X141519752Y-112299500D01*
X141519748Y-112299500D01*
X139980252Y-112299500D01*
X139980247Y-112299500D01*
X139921770Y-112311131D01*
X139921769Y-112311132D01*
X139855447Y-112355447D01*
X139811132Y-112421769D01*
X139811131Y-112421770D01*
X139799500Y-112480247D01*
X139200499Y-112480247D01*
X139188868Y-112421770D01*
X139188867Y-112421769D01*
X139144552Y-112355447D01*
X139078230Y-112311132D01*
X139078229Y-112311131D01*
X139019752Y-112299500D01*
X139019748Y-112299500D01*
X137480252Y-112299500D01*
X137480247Y-112299500D01*
X137421770Y-112311131D01*
X137421769Y-112311132D01*
X137355447Y-112355447D01*
X137311132Y-112421769D01*
X137311131Y-112421770D01*
X137299500Y-112480247D01*
X137299500Y-113563036D01*
X137279815Y-113630075D01*
X137227011Y-113675830D01*
X137157853Y-113685774D01*
X137094297Y-113656749D01*
X137087819Y-113650717D01*
X137026615Y-113589513D01*
X137026613Y-113589511D01*
X136923886Y-113530201D01*
X136809309Y-113499500D01*
X136690691Y-113499500D01*
X136576114Y-113530201D01*
X136576112Y-113530201D01*
X136576112Y-113530202D01*
X136473387Y-113589511D01*
X136473386Y-113589511D01*
X136462679Y-113600219D01*
X136401354Y-113633702D01*
X136331663Y-113628715D01*
X136287321Y-113600219D01*
X136276613Y-113589511D01*
X136173886Y-113530201D01*
X136059309Y-113499500D01*
X135940691Y-113499500D01*
X135826114Y-113530201D01*
X135826112Y-113530201D01*
X135826112Y-113530202D01*
X135723387Y-113589511D01*
X135723384Y-113589513D01*
X135662181Y-113650717D01*
X135600858Y-113684202D01*
X135531166Y-113679218D01*
X135475233Y-113637346D01*
X135450816Y-113571882D01*
X135450500Y-113563036D01*
X135450500Y-112480249D01*
X135450499Y-112480247D01*
X135438868Y-112421770D01*
X135438867Y-112421769D01*
X135394552Y-112355447D01*
X135328230Y-112311132D01*
X135328229Y-112311131D01*
X135269752Y-112299500D01*
X135269748Y-112299500D01*
X133730252Y-112299500D01*
X133730247Y-112299500D01*
X133671770Y-112311131D01*
X133671769Y-112311132D01*
X133605447Y-112355447D01*
X133561132Y-112421769D01*
X133561131Y-112421770D01*
X133549500Y-112480247D01*
X133075500Y-112480247D01*
X133075500Y-110190691D01*
X158299500Y-110190691D01*
X158299500Y-110309309D01*
X158330201Y-110423886D01*
X158389511Y-110526613D01*
X158473387Y-110610489D01*
X158576114Y-110669799D01*
X158690691Y-110700500D01*
X158690694Y-110700500D01*
X158809306Y-110700500D01*
X158809309Y-110700500D01*
X158923886Y-110669799D01*
X158923889Y-110669797D01*
X158927058Y-110668948D01*
X158996908Y-110670611D01*
X159054771Y-110709773D01*
X159078927Y-110756630D01*
X159080201Y-110761387D01*
X159109856Y-110812749D01*
X159139511Y-110864113D01*
X159223387Y-110947989D01*
X159326114Y-111007299D01*
X159440691Y-111038000D01*
X159440694Y-111038000D01*
X159559306Y-111038000D01*
X159559309Y-111038000D01*
X159673886Y-111007299D01*
X159776613Y-110947989D01*
X159860489Y-110864113D01*
X159919799Y-110761386D01*
X159950500Y-110646809D01*
X159950500Y-110528191D01*
X159919799Y-110413614D01*
X159860489Y-110310887D01*
X159836819Y-110287217D01*
X159803334Y-110225894D01*
X159800500Y-110199536D01*
X159800500Y-104637964D01*
X159820185Y-104570925D01*
X159836819Y-104550283D01*
X159842305Y-104544797D01*
X159860489Y-104526613D01*
X159919799Y-104423886D01*
X159950500Y-104309309D01*
X159950500Y-104190691D01*
X159919799Y-104076114D01*
X159860489Y-103973387D01*
X159776613Y-103889511D01*
X159673886Y-103830201D01*
X159559309Y-103799500D01*
X159440691Y-103799500D01*
X159326114Y-103830201D01*
X159326112Y-103830201D01*
X159326112Y-103830202D01*
X159223387Y-103889511D01*
X159223384Y-103889513D01*
X159139513Y-103973384D01*
X159139511Y-103973387D01*
X159105636Y-104032058D01*
X159055068Y-104080272D01*
X158986460Y-104093493D01*
X158982068Y-104092995D01*
X158974352Y-104091979D01*
X158974351Y-104091979D01*
X158855733Y-104091979D01*
X158741156Y-104122680D01*
X158741154Y-104122680D01*
X158741154Y-104122681D01*
X158638429Y-104181990D01*
X158638426Y-104181992D01*
X158554555Y-104265863D01*
X158554553Y-104265866D01*
X158495243Y-104368593D01*
X158464542Y-104483170D01*
X158464542Y-104601788D01*
X158495243Y-104716365D01*
X158554553Y-104819092D01*
X158554556Y-104819095D01*
X158559500Y-104825538D01*
X158557706Y-104826914D01*
X158585575Y-104877952D01*
X158588409Y-104904310D01*
X158588409Y-109751511D01*
X158568724Y-109818550D01*
X158526410Y-109858898D01*
X158473387Y-109889511D01*
X158473384Y-109889513D01*
X158389513Y-109973384D01*
X158389511Y-109973387D01*
X158330201Y-110076114D01*
X158299500Y-110190691D01*
X133075500Y-110190691D01*
X133075500Y-107900833D01*
X133095185Y-107833794D01*
X133111819Y-107813152D01*
X136859280Y-104065691D01*
X139674500Y-104065691D01*
X139674500Y-104184309D01*
X139705201Y-104298886D01*
X139764511Y-104401613D01*
X139848387Y-104485489D01*
X139951114Y-104544799D01*
X140065691Y-104575500D01*
X140065694Y-104575500D01*
X140184306Y-104575500D01*
X140184309Y-104575500D01*
X140298886Y-104544799D01*
X140401613Y-104485489D01*
X140405796Y-104481305D01*
X140467114Y-104447820D01*
X140536806Y-104452801D01*
X140581158Y-104481302D01*
X140601647Y-104501791D01*
X140704374Y-104561101D01*
X140818951Y-104591802D01*
X140818954Y-104591802D01*
X140937566Y-104591802D01*
X140937569Y-104591802D01*
X141052146Y-104561101D01*
X141154873Y-104501791D01*
X141238749Y-104417915D01*
X141298059Y-104315188D01*
X141328760Y-104200611D01*
X141328760Y-104147573D01*
X141337404Y-104118132D01*
X141337935Y-104115691D01*
X155549500Y-104115691D01*
X155549500Y-104234309D01*
X155580201Y-104348886D01*
X155639511Y-104451613D01*
X155639513Y-104451615D01*
X155663181Y-104475283D01*
X155696666Y-104536606D01*
X155699500Y-104562964D01*
X155699500Y-104887036D01*
X155679815Y-104954075D01*
X155663181Y-104974717D01*
X155639513Y-104998384D01*
X155639511Y-104998387D01*
X155580201Y-105101114D01*
X155549500Y-105215691D01*
X155549500Y-105334309D01*
X155580201Y-105448886D01*
X155639511Y-105551613D01*
X155723387Y-105635489D01*
X155826114Y-105694799D01*
X155940691Y-105725500D01*
X155940694Y-105725500D01*
X156059306Y-105725500D01*
X156059309Y-105725500D01*
X156173886Y-105694799D01*
X156263501Y-105643059D01*
X156331398Y-105626586D01*
X156397426Y-105649437D01*
X156440617Y-105704358D01*
X156449500Y-105750446D01*
X156449500Y-106612036D01*
X156429815Y-106679075D01*
X156413181Y-106699717D01*
X156389513Y-106723384D01*
X156389511Y-106723387D01*
X156330201Y-106826114D01*
X156299500Y-106940691D01*
X156299500Y-107059309D01*
X156330201Y-107173886D01*
X156389511Y-107276613D01*
X156473387Y-107360489D01*
X156576114Y-107419799D01*
X156690691Y-107450500D01*
X156690694Y-107450500D01*
X156809306Y-107450500D01*
X156809309Y-107450500D01*
X156923886Y-107419799D01*
X157026613Y-107360489D01*
X157110489Y-107276613D01*
X157169799Y-107173886D01*
X157200500Y-107059309D01*
X157200500Y-106940691D01*
X157169799Y-106826114D01*
X157110489Y-106723387D01*
X157086819Y-106699717D01*
X157053334Y-106638394D01*
X157050500Y-106612036D01*
X157050500Y-103887964D01*
X157070185Y-103820925D01*
X157086819Y-103800283D01*
X157087602Y-103799500D01*
X157110489Y-103776613D01*
X157169799Y-103673886D01*
X157200500Y-103559309D01*
X157200500Y-103440691D01*
X157169799Y-103326114D01*
X157110489Y-103223387D01*
X157026613Y-103139511D01*
X156923886Y-103080201D01*
X156809309Y-103049500D01*
X156690691Y-103049500D01*
X156576114Y-103080201D01*
X156576112Y-103080201D01*
X156576112Y-103080202D01*
X156473387Y-103139511D01*
X156473384Y-103139513D01*
X156389513Y-103223384D01*
X156389511Y-103223387D01*
X156330201Y-103326114D01*
X156299500Y-103440691D01*
X156299500Y-103440693D01*
X156299500Y-103559308D01*
X156310178Y-103599159D01*
X156308515Y-103669009D01*
X156269352Y-103726871D01*
X156205124Y-103754375D01*
X156158310Y-103751027D01*
X156099131Y-103735170D01*
X156059309Y-103724500D01*
X155940691Y-103724500D01*
X155826114Y-103755201D01*
X155826112Y-103755201D01*
X155826112Y-103755202D01*
X155723387Y-103814511D01*
X155723384Y-103814513D01*
X155639513Y-103898384D01*
X155639511Y-103898387D01*
X155580201Y-104001114D01*
X155549500Y-104115691D01*
X141337935Y-104115691D01*
X141343928Y-104088146D01*
X141347682Y-104083130D01*
X141348445Y-104080534D01*
X141365079Y-104059892D01*
X145588152Y-99836819D01*
X145649475Y-99803334D01*
X145675833Y-99800500D01*
X146612036Y-99800500D01*
X146679075Y-99820185D01*
X146699717Y-99836819D01*
X146723387Y-99860489D01*
X146826114Y-99919799D01*
X146940691Y-99950500D01*
X146940694Y-99950500D01*
X147059306Y-99950500D01*
X147059309Y-99950500D01*
X147173886Y-99919799D01*
X147276613Y-99860489D01*
X147360489Y-99776613D01*
X147419799Y-99673886D01*
X147450500Y-99559309D01*
X147450500Y-99440691D01*
X147419799Y-99326114D01*
X147360489Y-99223387D01*
X147276613Y-99139511D01*
X147173886Y-99080201D01*
X147059309Y-99049500D01*
X146940691Y-99049500D01*
X146826114Y-99080201D01*
X146826112Y-99080201D01*
X146826112Y-99080202D01*
X146723387Y-99139511D01*
X146723384Y-99139513D01*
X146699717Y-99163181D01*
X146638394Y-99196666D01*
X146612036Y-99199500D01*
X145460438Y-99199500D01*
X145384011Y-99219979D01*
X145384009Y-99219980D01*
X145366217Y-99230252D01*
X145366216Y-99230251D01*
X145315495Y-99259535D01*
X145315487Y-99259541D01*
X141262181Y-103312848D01*
X141200858Y-103346333D01*
X141131166Y-103341349D01*
X141075233Y-103299477D01*
X141050816Y-103234013D01*
X141050500Y-103225167D01*
X141050500Y-102925833D01*
X141070185Y-102858794D01*
X141086819Y-102838152D01*
X144438152Y-99486819D01*
X144499475Y-99453334D01*
X144525833Y-99450500D01*
X144559306Y-99450500D01*
X144559309Y-99450500D01*
X144673886Y-99419799D01*
X144776613Y-99360489D01*
X144860489Y-99276613D01*
X144919799Y-99173886D01*
X144950500Y-99059309D01*
X144950500Y-98940691D01*
X144919799Y-98826114D01*
X144860489Y-98723387D01*
X144776613Y-98639511D01*
X144673886Y-98580201D01*
X144559309Y-98549500D01*
X144440691Y-98549500D01*
X144326114Y-98580201D01*
X144326112Y-98580201D01*
X144326112Y-98580202D01*
X144223387Y-98639511D01*
X144223384Y-98639513D01*
X144139513Y-98723384D01*
X144139511Y-98723387D01*
X144080201Y-98826114D01*
X144049500Y-98940691D01*
X144049500Y-98940693D01*
X144049500Y-98974167D01*
X144029815Y-99041206D01*
X144013181Y-99061848D01*
X140509541Y-102565487D01*
X140509535Y-102565495D01*
X140469982Y-102634004D01*
X140469979Y-102634009D01*
X140449500Y-102710439D01*
X140449500Y-103324167D01*
X140429815Y-103391206D01*
X140413181Y-103411848D01*
X140186848Y-103638181D01*
X140125525Y-103671666D01*
X140099167Y-103674500D01*
X140065691Y-103674500D01*
X139951114Y-103705201D01*
X139951112Y-103705201D01*
X139951112Y-103705202D01*
X139848387Y-103764511D01*
X139848384Y-103764513D01*
X139764513Y-103848384D01*
X139764511Y-103848387D01*
X139705201Y-103951114D01*
X139674500Y-104065691D01*
X136859280Y-104065691D01*
X138188152Y-102736819D01*
X138249475Y-102703334D01*
X138275833Y-102700500D01*
X138309306Y-102700500D01*
X138309309Y-102700500D01*
X138423886Y-102669799D01*
X138526613Y-102610489D01*
X138610489Y-102526613D01*
X138669799Y-102423886D01*
X138700500Y-102309309D01*
X138700500Y-102190691D01*
X138669799Y-102076114D01*
X138610489Y-101973387D01*
X138526613Y-101889511D01*
X138423886Y-101830201D01*
X138309309Y-101799500D01*
X138190691Y-101799500D01*
X138076114Y-101830201D01*
X138076112Y-101830201D01*
X138076112Y-101830202D01*
X137973387Y-101889511D01*
X137973384Y-101889513D01*
X137889513Y-101973384D01*
X137889511Y-101973387D01*
X137830201Y-102076114D01*
X137799500Y-102190691D01*
X137799500Y-102190693D01*
X137799500Y-102224167D01*
X137779815Y-102291206D01*
X137763181Y-102311848D01*
X132534541Y-107540487D01*
X132534535Y-107540495D01*
X132494982Y-107609004D01*
X132494979Y-107609009D01*
X132474500Y-107685439D01*
X132474500Y-114125500D01*
X132454815Y-114192539D01*
X132402011Y-114238294D01*
X132350500Y-114249500D01*
X129937964Y-114249500D01*
X129870925Y-114229815D01*
X129850283Y-114213181D01*
X129776615Y-114139513D01*
X129776613Y-114139511D01*
X129673886Y-114080201D01*
X129559309Y-114049500D01*
X129440691Y-114049500D01*
X129326114Y-114080201D01*
X129326112Y-114080201D01*
X129326112Y-114080202D01*
X129223387Y-114139511D01*
X129223384Y-114139513D01*
X129139513Y-114223384D01*
X129139511Y-114223387D01*
X129124435Y-114249500D01*
X129080201Y-114326114D01*
X129049500Y-114440691D01*
X121957502Y-114440691D01*
X121928230Y-114421132D01*
X121928229Y-114421131D01*
X121869752Y-114409500D01*
X121869748Y-114409500D01*
X120130252Y-114409500D01*
X120130247Y-114409500D01*
X120071770Y-114421131D01*
X120071769Y-114421132D01*
X120005447Y-114465447D01*
X119961132Y-114531769D01*
X119961131Y-114531770D01*
X119949500Y-114590247D01*
X117000500Y-114590247D01*
X117000500Y-111161530D01*
X119949500Y-111161530D01*
X119949500Y-111368469D01*
X119989868Y-111571412D01*
X119989870Y-111571420D01*
X120069058Y-111762596D01*
X120184024Y-111934657D01*
X120330342Y-112080975D01*
X120330345Y-112080977D01*
X120502402Y-112195941D01*
X120693580Y-112275130D01*
X120896530Y-112315499D01*
X120896534Y-112315500D01*
X120896535Y-112315500D01*
X121103466Y-112315500D01*
X121103467Y-112315499D01*
X121306420Y-112275130D01*
X121497598Y-112195941D01*
X121669655Y-112080977D01*
X121815977Y-111934655D01*
X121930941Y-111762598D01*
X122010130Y-111571420D01*
X122050500Y-111368465D01*
X122050500Y-111161535D01*
X122010130Y-110958580D01*
X121930941Y-110767402D01*
X121815977Y-110595345D01*
X121815975Y-110595342D01*
X121669657Y-110449024D01*
X121583626Y-110391541D01*
X121497598Y-110334059D01*
X121437839Y-110309306D01*
X121306420Y-110254870D01*
X121306412Y-110254868D01*
X121103469Y-110214500D01*
X121103465Y-110214500D01*
X120896535Y-110214500D01*
X120896530Y-110214500D01*
X120693587Y-110254868D01*
X120693579Y-110254870D01*
X120502403Y-110334058D01*
X120330342Y-110449024D01*
X120184024Y-110595342D01*
X120069058Y-110767403D01*
X119989870Y-110958579D01*
X119989868Y-110958587D01*
X119949500Y-111161530D01*
X117000500Y-111161530D01*
X117000500Y-107855247D01*
X119949500Y-107855247D01*
X119949500Y-109594752D01*
X119961131Y-109653229D01*
X119961132Y-109653230D01*
X120005447Y-109719552D01*
X120071769Y-109763867D01*
X120071770Y-109763868D01*
X120130247Y-109775499D01*
X120130250Y-109775500D01*
X120130252Y-109775500D01*
X121869750Y-109775500D01*
X121869751Y-109775499D01*
X121884568Y-109772552D01*
X121928229Y-109763868D01*
X121928229Y-109763867D01*
X121928231Y-109763867D01*
X121994552Y-109719552D01*
X122038867Y-109653231D01*
X122038867Y-109653229D01*
X122038868Y-109653229D01*
X122050499Y-109594752D01*
X122050500Y-109594750D01*
X122050500Y-107855249D01*
X122050499Y-107855247D01*
X122038868Y-107796770D01*
X122038867Y-107796769D01*
X121994552Y-107730447D01*
X121928230Y-107686132D01*
X121928229Y-107686131D01*
X121869752Y-107674500D01*
X121869748Y-107674500D01*
X120130252Y-107674500D01*
X120130247Y-107674500D01*
X120071770Y-107686131D01*
X120071769Y-107686132D01*
X120005447Y-107730447D01*
X119961132Y-107796769D01*
X119961131Y-107796770D01*
X119949500Y-107855247D01*
X117000500Y-107855247D01*
X117000500Y-100769702D01*
X130050000Y-100769702D01*
X130061602Y-100828033D01*
X130061603Y-100828034D01*
X130105808Y-100894191D01*
X130171965Y-100938396D01*
X130171966Y-100938397D01*
X130230297Y-100949999D01*
X130230301Y-100950000D01*
X130750000Y-100950000D01*
X131250000Y-100950000D01*
X131769699Y-100950000D01*
X131769702Y-100949999D01*
X131828033Y-100938397D01*
X131828034Y-100938396D01*
X131894191Y-100894191D01*
X131938396Y-100828034D01*
X131938397Y-100828033D01*
X131949999Y-100769702D01*
X131950000Y-100769699D01*
X131950000Y-100250000D01*
X131250000Y-100250000D01*
X131250000Y-100950000D01*
X130750000Y-100950000D01*
X130750000Y-100250000D01*
X130050000Y-100250000D01*
X130050000Y-100769702D01*
X117000500Y-100769702D01*
X117000500Y-99953922D01*
X130650000Y-99953922D01*
X130650000Y-100046078D01*
X130673852Y-100135095D01*
X130719930Y-100214905D01*
X130785095Y-100280070D01*
X130864905Y-100326148D01*
X130953922Y-100350000D01*
X131046078Y-100350000D01*
X131135095Y-100326148D01*
X131214905Y-100280070D01*
X131280070Y-100214905D01*
X131326148Y-100135095D01*
X131350000Y-100046078D01*
X131350000Y-99953922D01*
X131326148Y-99864905D01*
X131280070Y-99785095D01*
X131244975Y-99750000D01*
X131250000Y-99750000D01*
X131950000Y-99750000D01*
X131950000Y-99230300D01*
X131949999Y-99230298D01*
X131949989Y-99230247D01*
X135049500Y-99230247D01*
X135049500Y-100769752D01*
X135061131Y-100828229D01*
X135061132Y-100828230D01*
X135105447Y-100894552D01*
X135171769Y-100938867D01*
X135171770Y-100938868D01*
X135230247Y-100950499D01*
X135230250Y-100950500D01*
X135230252Y-100950500D01*
X136769750Y-100950500D01*
X136769751Y-100950499D01*
X136784568Y-100947552D01*
X136828229Y-100938868D01*
X136828229Y-100938867D01*
X136828231Y-100938867D01*
X136894552Y-100894552D01*
X136938867Y-100828231D01*
X136938867Y-100828229D01*
X136938868Y-100828229D01*
X136950499Y-100769752D01*
X136950500Y-100769750D01*
X136950500Y-99230249D01*
X136950499Y-99230247D01*
X136938868Y-99171770D01*
X136938867Y-99171769D01*
X136894552Y-99105447D01*
X136828230Y-99061132D01*
X136828229Y-99061131D01*
X136769752Y-99049500D01*
X136769748Y-99049500D01*
X135230252Y-99049500D01*
X135230247Y-99049500D01*
X135171770Y-99061131D01*
X135171769Y-99061132D01*
X135105447Y-99105447D01*
X135061132Y-99171769D01*
X135061131Y-99171770D01*
X135049500Y-99230247D01*
X131949989Y-99230247D01*
X131938397Y-99171966D01*
X131938396Y-99171965D01*
X131894191Y-99105808D01*
X131828034Y-99061603D01*
X131828033Y-99061602D01*
X131769702Y-99050000D01*
X131250000Y-99050000D01*
X131250000Y-99750000D01*
X131244975Y-99750000D01*
X131214905Y-99719930D01*
X131135095Y-99673852D01*
X131046078Y-99650000D01*
X130953922Y-99650000D01*
X130864905Y-99673852D01*
X130785095Y-99719930D01*
X130719930Y-99785095D01*
X130673852Y-99864905D01*
X130650000Y-99953922D01*
X117000500Y-99953922D01*
X117000500Y-99230297D01*
X130050000Y-99230297D01*
X130050000Y-99750000D01*
X130750000Y-99750000D01*
X130750000Y-99050000D01*
X130230297Y-99050000D01*
X130171966Y-99061602D01*
X130171965Y-99061603D01*
X130105808Y-99105808D01*
X130061603Y-99171965D01*
X130061602Y-99171966D01*
X130050000Y-99230297D01*
X117000500Y-99230297D01*
X117000500Y-98069999D01*
X174905579Y-98069999D01*
X174905579Y-98070000D01*
X175603012Y-98070000D01*
X175585795Y-98079940D01*
X175529940Y-98135795D01*
X175490444Y-98204204D01*
X175470000Y-98280504D01*
X175470000Y-98359496D01*
X175490444Y-98435796D01*
X175529940Y-98504205D01*
X175585795Y-98560060D01*
X175603012Y-98570000D01*
X174905579Y-98570000D01*
X174963892Y-98710781D01*
X175054180Y-98845906D01*
X175054183Y-98845910D01*
X175169089Y-98960816D01*
X175169093Y-98960819D01*
X175304218Y-99051107D01*
X175304220Y-99051108D01*
X175454351Y-99113294D01*
X175454363Y-99113297D01*
X175613740Y-99144999D01*
X175613744Y-99145000D01*
X176070000Y-99145000D01*
X176070000Y-98620000D01*
X176570000Y-98620000D01*
X176570000Y-99145000D01*
X177026256Y-99145000D01*
X177026259Y-99144999D01*
X177185636Y-99113297D01*
X177185648Y-99113294D01*
X177335779Y-99051108D01*
X177335781Y-99051107D01*
X177470906Y-98960819D01*
X177470910Y-98960816D01*
X177585816Y-98845910D01*
X177585819Y-98845906D01*
X177676107Y-98710781D01*
X177734421Y-98570000D01*
X177036988Y-98570000D01*
X177054205Y-98560060D01*
X177110060Y-98504205D01*
X177149556Y-98435796D01*
X177170000Y-98359496D01*
X177170000Y-98280504D01*
X177149556Y-98204204D01*
X177110060Y-98135795D01*
X177054205Y-98079940D01*
X177036988Y-98070000D01*
X177734421Y-98070000D01*
X177734420Y-98069999D01*
X177676107Y-97929218D01*
X177585819Y-97794093D01*
X177585816Y-97794089D01*
X177470910Y-97679183D01*
X177470906Y-97679180D01*
X177335781Y-97588892D01*
X177227828Y-97544177D01*
X177173425Y-97500336D01*
X177151360Y-97434042D01*
X177168639Y-97366343D01*
X177187593Y-97341942D01*
X177283715Y-97245821D01*
X177360008Y-97113678D01*
X177399500Y-96966293D01*
X177399500Y-96813707D01*
X177360008Y-96666322D01*
X177283715Y-96534179D01*
X177175821Y-96426285D01*
X177175819Y-96426284D01*
X177175817Y-96426282D01*
X177043681Y-96349993D01*
X177043682Y-96349993D01*
X177031595Y-96346754D01*
X176896293Y-96310500D01*
X176743707Y-96310500D01*
X176608404Y-96346754D01*
X176596318Y-96349993D01*
X176464182Y-96426282D01*
X176464176Y-96426287D01*
X176356287Y-96534176D01*
X176356282Y-96534182D01*
X176279993Y-96666318D01*
X176279992Y-96666322D01*
X176240500Y-96813707D01*
X176240500Y-96966293D01*
X176267170Y-97065826D01*
X176279993Y-97113681D01*
X176356282Y-97245817D01*
X176356284Y-97245819D01*
X176356285Y-97245821D01*
X176464179Y-97353715D01*
X176508000Y-97379015D01*
X176556216Y-97429582D01*
X176570000Y-97486402D01*
X176570000Y-98020000D01*
X176070000Y-98020000D01*
X176070000Y-97495000D01*
X175613740Y-97495000D01*
X175454363Y-97526702D01*
X175454351Y-97526705D01*
X175304220Y-97588891D01*
X175304218Y-97588892D01*
X175169093Y-97679180D01*
X175169089Y-97679183D01*
X175054183Y-97794089D01*
X175054180Y-97794093D01*
X174963892Y-97929218D01*
X174905579Y-98069999D01*
X117000500Y-98069999D01*
X117000500Y-96130297D01*
X119950000Y-96130297D01*
X119950000Y-96750000D01*
X120566988Y-96750000D01*
X120534075Y-96807007D01*
X120500000Y-96934174D01*
X120500000Y-97065826D01*
X120534075Y-97192993D01*
X120566988Y-97250000D01*
X119950000Y-97250000D01*
X119950000Y-97869702D01*
X119961602Y-97928033D01*
X119961603Y-97928034D01*
X120005808Y-97994191D01*
X120071965Y-98038396D01*
X120071966Y-98038397D01*
X120130297Y-98049999D01*
X120130301Y-98050000D01*
X120750000Y-98050000D01*
X120750000Y-97433012D01*
X120807007Y-97465925D01*
X120934174Y-97500000D01*
X121065826Y-97500000D01*
X121192993Y-97465925D01*
X121250000Y-97433012D01*
X121250000Y-98050000D01*
X121869699Y-98050000D01*
X121869702Y-98049999D01*
X121928033Y-98038397D01*
X121928034Y-98038396D01*
X121994191Y-97994191D01*
X122038396Y-97928034D01*
X122038397Y-97928033D01*
X122049999Y-97869702D01*
X122050000Y-97869699D01*
X122050000Y-97250000D01*
X121433012Y-97250000D01*
X121465925Y-97192993D01*
X121466542Y-97190691D01*
X148799500Y-97190691D01*
X148799500Y-97309309D01*
X148830201Y-97423886D01*
X148889511Y-97526613D01*
X148973387Y-97610489D01*
X149076114Y-97669799D01*
X149190691Y-97700500D01*
X149190694Y-97700500D01*
X149309306Y-97700500D01*
X149309309Y-97700500D01*
X149423886Y-97669799D01*
X149526613Y-97610489D01*
X149550283Y-97586819D01*
X149611606Y-97553334D01*
X149637964Y-97550500D01*
X152039560Y-97550500D01*
X152039562Y-97550500D01*
X152115989Y-97530021D01*
X152184511Y-97490460D01*
X152240460Y-97434511D01*
X153688152Y-95986819D01*
X153749475Y-95953334D01*
X153775833Y-95950500D01*
X153809306Y-95950500D01*
X153809309Y-95950500D01*
X153923886Y-95919799D01*
X154026613Y-95860489D01*
X154110489Y-95776613D01*
X154169799Y-95673886D01*
X154200500Y-95559309D01*
X154200500Y-95440691D01*
X154169799Y-95326114D01*
X154110489Y-95223387D01*
X154026613Y-95139511D01*
X153923886Y-95080201D01*
X153809309Y-95049500D01*
X153690691Y-95049500D01*
X153576114Y-95080201D01*
X153576112Y-95080201D01*
X153576112Y-95080202D01*
X153473387Y-95139511D01*
X153473384Y-95139513D01*
X153389513Y-95223384D01*
X153389511Y-95223387D01*
X153330201Y-95326114D01*
X153299500Y-95440691D01*
X153299500Y-95440693D01*
X153299500Y-95474167D01*
X153279815Y-95541206D01*
X153263181Y-95561848D01*
X151911848Y-96913181D01*
X151850525Y-96946666D01*
X151824167Y-96949500D01*
X149637964Y-96949500D01*
X149570925Y-96929815D01*
X149550283Y-96913181D01*
X149526615Y-96889513D01*
X149526613Y-96889511D01*
X149423886Y-96830201D01*
X149309309Y-96799500D01*
X149190691Y-96799500D01*
X149076114Y-96830201D01*
X149076112Y-96830201D01*
X149076112Y-96830202D01*
X148973387Y-96889511D01*
X148973384Y-96889513D01*
X148889513Y-96973384D01*
X148889511Y-96973387D01*
X148830201Y-97076114D01*
X148799500Y-97190691D01*
X121466542Y-97190691D01*
X121500000Y-97065826D01*
X121500000Y-96934174D01*
X121465925Y-96807007D01*
X121433012Y-96750000D01*
X122050000Y-96750000D01*
X122050000Y-96130301D01*
X122049999Y-96130297D01*
X122038397Y-96071966D01*
X122038396Y-96071965D01*
X121994191Y-96005808D01*
X121928034Y-95961603D01*
X121928033Y-95961602D01*
X121869702Y-95950000D01*
X121250000Y-95950000D01*
X121250000Y-96566988D01*
X121192993Y-96534075D01*
X121065826Y-96500000D01*
X120934174Y-96500000D01*
X120807007Y-96534075D01*
X120750000Y-96566988D01*
X120750000Y-95950000D01*
X120130297Y-95950000D01*
X120071966Y-95961602D01*
X120071965Y-95961603D01*
X120005808Y-96005808D01*
X119961603Y-96071965D01*
X119961602Y-96071966D01*
X119950000Y-96130297D01*
X117000500Y-96130297D01*
X117000500Y-94356530D01*
X119949500Y-94356530D01*
X119949500Y-94563469D01*
X119989868Y-94766412D01*
X119989870Y-94766420D01*
X120069058Y-94957596D01*
X120184024Y-95129657D01*
X120330342Y-95275975D01*
X120330345Y-95275977D01*
X120502402Y-95390941D01*
X120693580Y-95470130D01*
X120896530Y-95510499D01*
X120896534Y-95510500D01*
X120896535Y-95510500D01*
X121103466Y-95510500D01*
X121103467Y-95510499D01*
X121306420Y-95470130D01*
X121497598Y-95390941D01*
X121669655Y-95275977D01*
X121815977Y-95129655D01*
X121930941Y-94957598D01*
X122010130Y-94766420D01*
X122050500Y-94563465D01*
X122050500Y-94356535D01*
X122010130Y-94153580D01*
X121930941Y-93962402D01*
X121815977Y-93790345D01*
X121815975Y-93790342D01*
X121669657Y-93644024D01*
X121583626Y-93586541D01*
X121497598Y-93529059D01*
X121306420Y-93449870D01*
X121306412Y-93449868D01*
X121103469Y-93409500D01*
X121103465Y-93409500D01*
X120896535Y-93409500D01*
X120896530Y-93409500D01*
X120693587Y-93449868D01*
X120693579Y-93449870D01*
X120502403Y-93529058D01*
X120330342Y-93644024D01*
X120184024Y-93790342D01*
X120069058Y-93962403D01*
X119989870Y-94153579D01*
X119989868Y-94153587D01*
X119949500Y-94356530D01*
X117000500Y-94356530D01*
X117000500Y-89190691D01*
X145549500Y-89190691D01*
X145549500Y-89309309D01*
X145580201Y-89423886D01*
X145639511Y-89526613D01*
X145639513Y-89526615D01*
X145663181Y-89550283D01*
X145696666Y-89611606D01*
X145699500Y-89637964D01*
X145699500Y-90987036D01*
X145679815Y-91054075D01*
X145663181Y-91074717D01*
X145639513Y-91098384D01*
X145639511Y-91098387D01*
X145586218Y-91190693D01*
X145580201Y-91201114D01*
X145549500Y-91315691D01*
X145549500Y-91434309D01*
X145580201Y-91548886D01*
X145639511Y-91651613D01*
X145723387Y-91735489D01*
X145826114Y-91794799D01*
X145940691Y-91825500D01*
X145940694Y-91825500D01*
X146059306Y-91825500D01*
X146059309Y-91825500D01*
X146173886Y-91794799D01*
X146276613Y-91735489D01*
X146300283Y-91711819D01*
X146361606Y-91678334D01*
X146387964Y-91675500D01*
X153199167Y-91675500D01*
X153266206Y-91695185D01*
X153286848Y-91711819D01*
X156013181Y-94438152D01*
X156046666Y-94499475D01*
X156049500Y-94525833D01*
X156049500Y-94559309D01*
X156080201Y-94673886D01*
X156139511Y-94776613D01*
X156223387Y-94860489D01*
X156326114Y-94919799D01*
X156440691Y-94950500D01*
X156440694Y-94950500D01*
X156559306Y-94950500D01*
X156559309Y-94950500D01*
X156673886Y-94919799D01*
X156776613Y-94860489D01*
X156860489Y-94776613D01*
X156919799Y-94673886D01*
X156950500Y-94559309D01*
X156950500Y-94440691D01*
X156919799Y-94326114D01*
X156860489Y-94223387D01*
X156776613Y-94139511D01*
X156673886Y-94080201D01*
X156559309Y-94049500D01*
X156559306Y-94049500D01*
X156525833Y-94049500D01*
X156458794Y-94029815D01*
X156438152Y-94013181D01*
X153559512Y-91134541D01*
X153559507Y-91134537D01*
X153545812Y-91126630D01*
X153545810Y-91126630D01*
X153515161Y-91108934D01*
X153490990Y-91094979D01*
X153465513Y-91088152D01*
X153414562Y-91074500D01*
X153414560Y-91074500D01*
X146424500Y-91074500D01*
X146357461Y-91054815D01*
X146311706Y-91002011D01*
X146300500Y-90950500D01*
X146300500Y-89690691D01*
X154299500Y-89690691D01*
X154299500Y-89809309D01*
X154330201Y-89923886D01*
X154389511Y-90026613D01*
X154389513Y-90026615D01*
X154413181Y-90050283D01*
X154446666Y-90111606D01*
X154449500Y-90137964D01*
X154449500Y-90862036D01*
X154429815Y-90929075D01*
X154413181Y-90949717D01*
X154389513Y-90973384D01*
X154389511Y-90973387D01*
X154331008Y-91074717D01*
X154330201Y-91076114D01*
X154299500Y-91190691D01*
X154299500Y-91309309D01*
X154330201Y-91423886D01*
X154389511Y-91526613D01*
X154473387Y-91610489D01*
X154576114Y-91669799D01*
X154690691Y-91700500D01*
X154690694Y-91700500D01*
X154809306Y-91700500D01*
X154809309Y-91700500D01*
X154923886Y-91669799D01*
X155026613Y-91610489D01*
X155110489Y-91526613D01*
X155169799Y-91423886D01*
X155200500Y-91309309D01*
X155200500Y-91190691D01*
X155169799Y-91076114D01*
X155110489Y-90973387D01*
X155078051Y-90940949D01*
X155071196Y-90930624D01*
X155064375Y-90908614D01*
X155053334Y-90888394D01*
X155050797Y-90864799D01*
X155050514Y-90863886D01*
X155050647Y-90863405D01*
X155050500Y-90862036D01*
X155050500Y-90137964D01*
X155070185Y-90070925D01*
X155086819Y-90050283D01*
X155110489Y-90026613D01*
X155169799Y-89923886D01*
X155200500Y-89809309D01*
X155200500Y-89690691D01*
X155169799Y-89576114D01*
X155110489Y-89473387D01*
X155067101Y-89429999D01*
X174905579Y-89429999D01*
X174905579Y-89430000D01*
X175603012Y-89430000D01*
X175585795Y-89439940D01*
X175529940Y-89495795D01*
X175490444Y-89564204D01*
X175470000Y-89640504D01*
X175470000Y-89719496D01*
X175490444Y-89795796D01*
X175529940Y-89864205D01*
X175585795Y-89920060D01*
X175603012Y-89930000D01*
X174905579Y-89930000D01*
X174963892Y-90070781D01*
X175054180Y-90205906D01*
X175054183Y-90205910D01*
X175169089Y-90320816D01*
X175169093Y-90320819D01*
X175304218Y-90411107D01*
X175304220Y-90411108D01*
X175454351Y-90473294D01*
X175454363Y-90473297D01*
X175613740Y-90504999D01*
X175613744Y-90505000D01*
X176070000Y-90505000D01*
X176070000Y-89980000D01*
X176570000Y-89980000D01*
X176570000Y-90513597D01*
X176550315Y-90580636D01*
X176508002Y-90620983D01*
X176464182Y-90646283D01*
X176464176Y-90646287D01*
X176356287Y-90754176D01*
X176356282Y-90754182D01*
X176279993Y-90886318D01*
X176279992Y-90886322D01*
X176240500Y-91033707D01*
X176240500Y-91186293D01*
X176275173Y-91315693D01*
X176279993Y-91333681D01*
X176356282Y-91465817D01*
X176356284Y-91465819D01*
X176356285Y-91465821D01*
X176464179Y-91573715D01*
X176464180Y-91573716D01*
X176464182Y-91573717D01*
X176596318Y-91650006D01*
X176596319Y-91650006D01*
X176596322Y-91650008D01*
X176743707Y-91689500D01*
X176743710Y-91689500D01*
X176896290Y-91689500D01*
X176896293Y-91689500D01*
X177043678Y-91650008D01*
X177175821Y-91573715D01*
X177283715Y-91465821D01*
X177360008Y-91333678D01*
X177399500Y-91186293D01*
X177399500Y-91033707D01*
X177360008Y-90886322D01*
X177345986Y-90862036D01*
X177283717Y-90754182D01*
X177283712Y-90754176D01*
X177187600Y-90658064D01*
X177154115Y-90596741D01*
X177159099Y-90527049D01*
X177200971Y-90471116D01*
X177227829Y-90455822D01*
X177335779Y-90411108D01*
X177335781Y-90411107D01*
X177470906Y-90320819D01*
X177470910Y-90320816D01*
X177585816Y-90205910D01*
X177585819Y-90205906D01*
X177676107Y-90070781D01*
X177734421Y-89930000D01*
X177036988Y-89930000D01*
X177054205Y-89920060D01*
X177110060Y-89864205D01*
X177149556Y-89795796D01*
X177170000Y-89719496D01*
X177170000Y-89640504D01*
X177149556Y-89564204D01*
X177110060Y-89495795D01*
X177054205Y-89439940D01*
X177036988Y-89430000D01*
X177734421Y-89430000D01*
X177734420Y-89429999D01*
X177676107Y-89289218D01*
X177585819Y-89154093D01*
X177585816Y-89154089D01*
X177470910Y-89039183D01*
X177470906Y-89039180D01*
X177335781Y-88948892D01*
X177335779Y-88948891D01*
X177185648Y-88886705D01*
X177185636Y-88886702D01*
X177026259Y-88855000D01*
X176570000Y-88855000D01*
X176570000Y-89380000D01*
X176070000Y-89380000D01*
X176070000Y-88855000D01*
X175613740Y-88855000D01*
X175454363Y-88886702D01*
X175454351Y-88886705D01*
X175304220Y-88948891D01*
X175304218Y-88948892D01*
X175169093Y-89039180D01*
X175169089Y-89039183D01*
X175054183Y-89154089D01*
X175054180Y-89154093D01*
X174963892Y-89289218D01*
X174905579Y-89429999D01*
X155067101Y-89429999D01*
X155026613Y-89389511D01*
X154923886Y-89330201D01*
X154809309Y-89299500D01*
X154690691Y-89299500D01*
X154576114Y-89330201D01*
X154576112Y-89330201D01*
X154576112Y-89330202D01*
X154473387Y-89389511D01*
X154473384Y-89389513D01*
X154389513Y-89473384D01*
X154389511Y-89473387D01*
X154358780Y-89526615D01*
X154330201Y-89576114D01*
X154299500Y-89690691D01*
X146300500Y-89690691D01*
X146300500Y-89637964D01*
X146320185Y-89570925D01*
X146336819Y-89550283D01*
X146360489Y-89526613D01*
X146419799Y-89423886D01*
X146450500Y-89309309D01*
X146450500Y-89190691D01*
X146419799Y-89076114D01*
X146360489Y-88973387D01*
X146276613Y-88889511D01*
X146173886Y-88830201D01*
X146059309Y-88799500D01*
X145940691Y-88799500D01*
X145826114Y-88830201D01*
X145826112Y-88830201D01*
X145826112Y-88830202D01*
X145723387Y-88889511D01*
X145723384Y-88889513D01*
X145639513Y-88973384D01*
X145639511Y-88973387D01*
X145580201Y-89076114D01*
X145549500Y-89190691D01*
X117000500Y-89190691D01*
X117000500Y-88440691D01*
X142043500Y-88440691D01*
X142043500Y-88559309D01*
X142074201Y-88673886D01*
X142133511Y-88776613D01*
X142217387Y-88860489D01*
X142320114Y-88919799D01*
X142434691Y-88950500D01*
X142434694Y-88950500D01*
X142553306Y-88950500D01*
X142553309Y-88950500D01*
X142667886Y-88919799D01*
X142770613Y-88860489D01*
X142794283Y-88836819D01*
X142855606Y-88803334D01*
X142881964Y-88800500D01*
X143612036Y-88800500D01*
X143679075Y-88820185D01*
X143699717Y-88836819D01*
X143723387Y-88860489D01*
X143826114Y-88919799D01*
X143940691Y-88950500D01*
X143940694Y-88950500D01*
X144059306Y-88950500D01*
X144059309Y-88950500D01*
X144173886Y-88919799D01*
X144276613Y-88860489D01*
X144360489Y-88776613D01*
X144419799Y-88673886D01*
X144450500Y-88559309D01*
X144450500Y-88440691D01*
X144419799Y-88326114D01*
X144360489Y-88223387D01*
X144276613Y-88139511D01*
X144173886Y-88080201D01*
X144059309Y-88049500D01*
X143940691Y-88049500D01*
X143826114Y-88080201D01*
X143826112Y-88080201D01*
X143826112Y-88080202D01*
X143723387Y-88139511D01*
X143723384Y-88139513D01*
X143699717Y-88163181D01*
X143638394Y-88196666D01*
X143612036Y-88199500D01*
X142881964Y-88199500D01*
X142814925Y-88179815D01*
X142794283Y-88163181D01*
X142770615Y-88139513D01*
X142770613Y-88139511D01*
X142667886Y-88080201D01*
X142553309Y-88049500D01*
X142434691Y-88049500D01*
X142320114Y-88080201D01*
X142320112Y-88080201D01*
X142320112Y-88080202D01*
X142217387Y-88139511D01*
X142217384Y-88139513D01*
X142133513Y-88223384D01*
X142133511Y-88223387D01*
X142074201Y-88326114D01*
X142043500Y-88440691D01*
X117000500Y-88440691D01*
X117000500Y-82940691D01*
X128299500Y-82940691D01*
X128299500Y-83059309D01*
X128330201Y-83173886D01*
X128389511Y-83276613D01*
X128473387Y-83360489D01*
X128576114Y-83419799D01*
X128690691Y-83450500D01*
X128690694Y-83450500D01*
X128809306Y-83450500D01*
X128809309Y-83450500D01*
X128923886Y-83419799D01*
X129026613Y-83360489D01*
X129110489Y-83276613D01*
X129169799Y-83173886D01*
X129200500Y-83059309D01*
X129200500Y-83025833D01*
X129220185Y-82958794D01*
X129236819Y-82938152D01*
X129451587Y-82723384D01*
X129740460Y-82434511D01*
X129780021Y-82365989D01*
X129800500Y-82289562D01*
X129800500Y-81788021D01*
X129820185Y-81720982D01*
X129836819Y-81700340D01*
X129860489Y-81676670D01*
X129919799Y-81573943D01*
X129950500Y-81459366D01*
X129950500Y-81340748D01*
X129919799Y-81226171D01*
X129860489Y-81123444D01*
X129776613Y-81039568D01*
X129673886Y-80980258D01*
X129559309Y-80949557D01*
X129440691Y-80949557D01*
X129326114Y-80980258D01*
X129326112Y-80980258D01*
X129326112Y-80980259D01*
X129223387Y-81039568D01*
X129223384Y-81039570D01*
X129139513Y-81123441D01*
X129139511Y-81123444D01*
X129080201Y-81226171D01*
X129049500Y-81340748D01*
X129049500Y-81459366D01*
X129080201Y-81573943D01*
X129139511Y-81676670D01*
X129139513Y-81676672D01*
X129163181Y-81700340D01*
X129196666Y-81761663D01*
X129199500Y-81788021D01*
X129199500Y-82074167D01*
X129179815Y-82141206D01*
X129163181Y-82161848D01*
X128811848Y-82513181D01*
X128750525Y-82546666D01*
X128724167Y-82549500D01*
X128690691Y-82549500D01*
X128576114Y-82580201D01*
X128576112Y-82580201D01*
X128576112Y-82580202D01*
X128473387Y-82639511D01*
X128473384Y-82639513D01*
X128389513Y-82723384D01*
X128389511Y-82723387D01*
X128330201Y-82826114D01*
X128299500Y-82940691D01*
X117000500Y-82940691D01*
X117000500Y-74850691D01*
X139549500Y-74850691D01*
X139549500Y-74969309D01*
X139580201Y-75083886D01*
X139639511Y-75186613D01*
X139639513Y-75186615D01*
X139663181Y-75210283D01*
X139696666Y-75271606D01*
X139699500Y-75297964D01*
X139699500Y-75622036D01*
X139679815Y-75689075D01*
X139663181Y-75709717D01*
X139639513Y-75733384D01*
X139639511Y-75733387D01*
X139580201Y-75836114D01*
X139549500Y-75950691D01*
X139549500Y-76069309D01*
X139580201Y-76183886D01*
X139639511Y-76286613D01*
X139723387Y-76370489D01*
X139826114Y-76429799D01*
X139940691Y-76460500D01*
X139940694Y-76460500D01*
X140059306Y-76460500D01*
X140059309Y-76460500D01*
X140173886Y-76429799D01*
X140276613Y-76370489D01*
X140360489Y-76286613D01*
X140419799Y-76183886D01*
X140450500Y-76069309D01*
X140450500Y-75950691D01*
X140419799Y-75836114D01*
X140360489Y-75733387D01*
X140336819Y-75709717D01*
X140303334Y-75648394D01*
X140300500Y-75622036D01*
X140300500Y-75297964D01*
X140320185Y-75230925D01*
X140336819Y-75210283D01*
X140341426Y-75205676D01*
X140360489Y-75186613D01*
X140419799Y-75083886D01*
X140450500Y-74969309D01*
X140450500Y-74850691D01*
X140419799Y-74736114D01*
X140360489Y-74633387D01*
X140276613Y-74549511D01*
X140173886Y-74490201D01*
X140059309Y-74459500D01*
X139940691Y-74459500D01*
X139826114Y-74490201D01*
X139826112Y-74490201D01*
X139826112Y-74490202D01*
X139723387Y-74549511D01*
X139723384Y-74549513D01*
X139639513Y-74633384D01*
X139639511Y-74633387D01*
X139580201Y-74736114D01*
X139549500Y-74850691D01*
X117000500Y-74850691D01*
X117000500Y-72003246D01*
X117000670Y-71996756D01*
X117007566Y-71865186D01*
X117599500Y-71865186D01*
X117599500Y-72134813D01*
X117629686Y-72402719D01*
X117629687Y-72402728D01*
X117629688Y-72402732D01*
X117634771Y-72425000D01*
X117689684Y-72665594D01*
X117689687Y-72665602D01*
X117778734Y-72920082D01*
X117895714Y-73162994D01*
X117895716Y-73162997D01*
X118039162Y-73391289D01*
X118207266Y-73602085D01*
X118397915Y-73792734D01*
X118608711Y-73960838D01*
X118837003Y-74104284D01*
X119079921Y-74221267D01*
X119271049Y-74288145D01*
X119334397Y-74310312D01*
X119334405Y-74310315D01*
X119334408Y-74310315D01*
X119334409Y-74310316D01*
X119597268Y-74370312D01*
X119865187Y-74400499D01*
X119865188Y-74400500D01*
X119865191Y-74400500D01*
X120134812Y-74400500D01*
X120134812Y-74400499D01*
X120402732Y-74370312D01*
X120665591Y-74310316D01*
X120920079Y-74221267D01*
X121162997Y-74104284D01*
X121391289Y-73960838D01*
X121602085Y-73792734D01*
X121792734Y-73602085D01*
X121960838Y-73391289D01*
X122104284Y-73162997D01*
X122221267Y-72920079D01*
X122310316Y-72665591D01*
X122324089Y-72605247D01*
X128149500Y-72605247D01*
X128149500Y-74344752D01*
X128161131Y-74403229D01*
X128161132Y-74403230D01*
X128205447Y-74469552D01*
X128271769Y-74513867D01*
X128271770Y-74513868D01*
X128330247Y-74525499D01*
X128330250Y-74525500D01*
X128330252Y-74525500D01*
X130069750Y-74525500D01*
X130069751Y-74525499D01*
X130084568Y-74522552D01*
X130128229Y-74513868D01*
X130128229Y-74513867D01*
X130128231Y-74513867D01*
X130194552Y-74469552D01*
X130238867Y-74403231D01*
X130238867Y-74403229D01*
X130238868Y-74403229D01*
X130250499Y-74344752D01*
X130250500Y-74344750D01*
X130250500Y-73371530D01*
X130689500Y-73371530D01*
X130689500Y-73578469D01*
X130729868Y-73781412D01*
X130729870Y-73781420D01*
X130795939Y-73940925D01*
X130809059Y-73972598D01*
X130840776Y-74020066D01*
X130924024Y-74144657D01*
X131070342Y-74290975D01*
X131070345Y-74290977D01*
X131242402Y-74405941D01*
X131433580Y-74485130D01*
X131578052Y-74513867D01*
X131636530Y-74525499D01*
X131636534Y-74525500D01*
X131636535Y-74525500D01*
X131843466Y-74525500D01*
X131843467Y-74525499D01*
X132046420Y-74485130D01*
X132237598Y-74405941D01*
X132409655Y-74290977D01*
X132555977Y-74144655D01*
X132670941Y-73972598D01*
X132750130Y-73781420D01*
X132790500Y-73578465D01*
X132790500Y-73371535D01*
X132790499Y-73371530D01*
X133229500Y-73371530D01*
X133229500Y-73578469D01*
X133269868Y-73781412D01*
X133269870Y-73781420D01*
X133335939Y-73940925D01*
X133349059Y-73972598D01*
X133380776Y-74020066D01*
X133464024Y-74144657D01*
X133610342Y-74290975D01*
X133610345Y-74290977D01*
X133782402Y-74405941D01*
X133973580Y-74485130D01*
X134118052Y-74513867D01*
X134176530Y-74525499D01*
X134176534Y-74525500D01*
X134176535Y-74525500D01*
X134383466Y-74525500D01*
X134383467Y-74525499D01*
X134586420Y-74485130D01*
X134777598Y-74405941D01*
X134949655Y-74290977D01*
X134972139Y-74268493D01*
X135000905Y-74239728D01*
X135095974Y-74144658D01*
X135095975Y-74144657D01*
X135095977Y-74144655D01*
X135210941Y-73972598D01*
X135290130Y-73781420D01*
X135330500Y-73578465D01*
X135330500Y-73371579D01*
X135770000Y-73371579D01*
X135770000Y-73578420D01*
X135810348Y-73781266D01*
X135810350Y-73781274D01*
X135889500Y-73972359D01*
X135921377Y-74020067D01*
X135921378Y-74020067D01*
X136337037Y-73604408D01*
X136354075Y-73667993D01*
X136419901Y-73782007D01*
X136512993Y-73875099D01*
X136627007Y-73940925D01*
X136690590Y-73957962D01*
X136274931Y-74373620D01*
X136274932Y-74373621D01*
X136322633Y-74405495D01*
X136322639Y-74405498D01*
X136513725Y-74484649D01*
X136513733Y-74484651D01*
X136716579Y-74524999D01*
X136716583Y-74525000D01*
X136923417Y-74525000D01*
X136923420Y-74524999D01*
X137126266Y-74484651D01*
X137126274Y-74484649D01*
X137317366Y-74405495D01*
X137365066Y-74373621D01*
X137365067Y-74373620D01*
X136949409Y-73957962D01*
X137012993Y-73940925D01*
X137127007Y-73875099D01*
X137220099Y-73782007D01*
X137285925Y-73667993D01*
X137302962Y-73604408D01*
X137718620Y-74020067D01*
X137718621Y-74020066D01*
X137750495Y-73972366D01*
X137829649Y-73781274D01*
X137829651Y-73781266D01*
X137869999Y-73578420D01*
X137870000Y-73578417D01*
X137870000Y-73371583D01*
X137869999Y-73371579D01*
X137829651Y-73168733D01*
X137829649Y-73168725D01*
X137750498Y-72977639D01*
X137750495Y-72977633D01*
X137718621Y-72929932D01*
X137718620Y-72929931D01*
X137302962Y-73345590D01*
X137285925Y-73282007D01*
X137220099Y-73167993D01*
X137127007Y-73074901D01*
X137012993Y-73009075D01*
X136949409Y-72992037D01*
X137365067Y-72576378D01*
X137365067Y-72576377D01*
X137317359Y-72544500D01*
X137126274Y-72465350D01*
X137126266Y-72465348D01*
X136923420Y-72425000D01*
X136716579Y-72425000D01*
X136513733Y-72465348D01*
X136513725Y-72465350D01*
X136322641Y-72544500D01*
X136322631Y-72544505D01*
X136274932Y-72576377D01*
X136274932Y-72576378D01*
X136690591Y-72992037D01*
X136627007Y-73009075D01*
X136512993Y-73074901D01*
X136419901Y-73167993D01*
X136354075Y-73282007D01*
X136337037Y-73345591D01*
X135921378Y-72929932D01*
X135921377Y-72929932D01*
X135889505Y-72977631D01*
X135889500Y-72977641D01*
X135810350Y-73168725D01*
X135810348Y-73168733D01*
X135770000Y-73371579D01*
X135330500Y-73371579D01*
X135330500Y-73371535D01*
X135290130Y-73168580D01*
X135210941Y-72977402D01*
X135095977Y-72805345D01*
X135095975Y-72805342D01*
X134949657Y-72659024D01*
X134863381Y-72601377D01*
X134777598Y-72544059D01*
X134759298Y-72536479D01*
X134586420Y-72464870D01*
X134586412Y-72464868D01*
X134383469Y-72424500D01*
X134383465Y-72424500D01*
X134176535Y-72424500D01*
X134176530Y-72424500D01*
X133973587Y-72464868D01*
X133973579Y-72464870D01*
X133782403Y-72544058D01*
X133610342Y-72659024D01*
X133464024Y-72805342D01*
X133349058Y-72977403D01*
X133269870Y-73168579D01*
X133269868Y-73168587D01*
X133229500Y-73371530D01*
X132790499Y-73371530D01*
X132750130Y-73168580D01*
X132670941Y-72977402D01*
X132555977Y-72805345D01*
X132555975Y-72805342D01*
X132409657Y-72659024D01*
X132323381Y-72601377D01*
X132237598Y-72544059D01*
X132219298Y-72536479D01*
X132046420Y-72464870D01*
X132046412Y-72464868D01*
X131843469Y-72424500D01*
X131843465Y-72424500D01*
X131636535Y-72424500D01*
X131636530Y-72424500D01*
X131433587Y-72464868D01*
X131433579Y-72464870D01*
X131242403Y-72544058D01*
X131070342Y-72659024D01*
X130924024Y-72805342D01*
X130809058Y-72977403D01*
X130729870Y-73168579D01*
X130729868Y-73168587D01*
X130689500Y-73371530D01*
X130250500Y-73371530D01*
X130250500Y-72605249D01*
X130250499Y-72605247D01*
X130238868Y-72546770D01*
X130238867Y-72546769D01*
X130194552Y-72480447D01*
X130128230Y-72436132D01*
X130128229Y-72436131D01*
X130069752Y-72424500D01*
X130069748Y-72424500D01*
X128330252Y-72424500D01*
X128330247Y-72424500D01*
X128271770Y-72436131D01*
X128271769Y-72436132D01*
X128205447Y-72480447D01*
X128161132Y-72546769D01*
X128161131Y-72546770D01*
X128149500Y-72605247D01*
X122324089Y-72605247D01*
X122370312Y-72402732D01*
X122386907Y-72255450D01*
X122394204Y-72190691D01*
X140799500Y-72190691D01*
X140799500Y-72309309D01*
X140830201Y-72423886D01*
X140889511Y-72526613D01*
X140889513Y-72526615D01*
X140913181Y-72550283D01*
X140946666Y-72611606D01*
X140949500Y-72637964D01*
X140949500Y-75622036D01*
X140929815Y-75689075D01*
X140913181Y-75709717D01*
X140889513Y-75733384D01*
X140889511Y-75733387D01*
X140830201Y-75836114D01*
X140799500Y-75950691D01*
X140799500Y-76069309D01*
X140830201Y-76183886D01*
X140889511Y-76286613D01*
X140973387Y-76370489D01*
X141076114Y-76429799D01*
X141190691Y-76460500D01*
X141190694Y-76460500D01*
X141309306Y-76460500D01*
X141309309Y-76460500D01*
X141423886Y-76429799D01*
X141526613Y-76370489D01*
X141610489Y-76286613D01*
X141669799Y-76183886D01*
X141700500Y-76069309D01*
X141700500Y-75950691D01*
X141669799Y-75836114D01*
X141610489Y-75733387D01*
X141586819Y-75709717D01*
X141553334Y-75648394D01*
X141550500Y-75622036D01*
X141550500Y-72825513D01*
X142299500Y-72825513D01*
X142299500Y-73014486D01*
X142329059Y-73201118D01*
X142387454Y-73380836D01*
X142448171Y-73499999D01*
X142473240Y-73549199D01*
X142584310Y-73702073D01*
X142717927Y-73835690D01*
X142870801Y-73946760D01*
X142950347Y-73987290D01*
X143039163Y-74032545D01*
X143039165Y-74032545D01*
X143039168Y-74032547D01*
X143128734Y-74061649D01*
X143160803Y-74072069D01*
X143218478Y-74111507D01*
X143245676Y-74175866D01*
X143233761Y-74244712D01*
X143186516Y-74296188D01*
X143160803Y-74307931D01*
X143039163Y-74347454D01*
X142870800Y-74433240D01*
X142792401Y-74490201D01*
X142717927Y-74544310D01*
X142717925Y-74544312D01*
X142717924Y-74544312D01*
X142584312Y-74677924D01*
X142584312Y-74677925D01*
X142584310Y-74677927D01*
X142536610Y-74743579D01*
X142473240Y-74830800D01*
X142387454Y-74999163D01*
X142329059Y-75178881D01*
X142299500Y-75365513D01*
X142299500Y-75554486D01*
X142329059Y-75741118D01*
X142387454Y-75920836D01*
X142473240Y-76089199D01*
X142584310Y-76242073D01*
X142717927Y-76375690D01*
X142870801Y-76486760D01*
X143039168Y-76572547D01*
X143161612Y-76612331D01*
X143219287Y-76651769D01*
X143246485Y-76716127D01*
X143234570Y-76784974D01*
X143187326Y-76836449D01*
X143161612Y-76848193D01*
X143039361Y-76887915D01*
X142871060Y-76973669D01*
X142845670Y-76992116D01*
X142845669Y-76992116D01*
X143370591Y-77517037D01*
X143307007Y-77534075D01*
X143192993Y-77599901D01*
X143099901Y-77692993D01*
X143034075Y-77807007D01*
X143017037Y-77870590D01*
X142492116Y-77345669D01*
X142492116Y-77345670D01*
X142473669Y-77371060D01*
X142387914Y-77539362D01*
X142329548Y-77718997D01*
X142300000Y-77905552D01*
X142300000Y-78094447D01*
X142329548Y-78281002D01*
X142387914Y-78460637D01*
X142473666Y-78628933D01*
X142492116Y-78654328D01*
X143017037Y-78129408D01*
X143034075Y-78192993D01*
X143099901Y-78307007D01*
X143192993Y-78400099D01*
X143307007Y-78465925D01*
X143370590Y-78482962D01*
X142845669Y-79007882D01*
X142845670Y-79007883D01*
X142871059Y-79026329D01*
X143039362Y-79112085D01*
X143218997Y-79170451D01*
X143405553Y-79200000D01*
X143594447Y-79200000D01*
X143781002Y-79170451D01*
X143960637Y-79112085D01*
X144128937Y-79026331D01*
X144154328Y-79007883D01*
X144154328Y-79007882D01*
X143629409Y-78482962D01*
X143692993Y-78465925D01*
X143807007Y-78400099D01*
X143900099Y-78307007D01*
X143965925Y-78192993D01*
X143982962Y-78129408D01*
X144507882Y-78654328D01*
X144507883Y-78654328D01*
X144526331Y-78628937D01*
X144612085Y-78460637D01*
X144652069Y-78337579D01*
X144691506Y-78279904D01*
X144755865Y-78252705D01*
X144824711Y-78264619D01*
X144876187Y-78311863D01*
X144887931Y-78337579D01*
X144927914Y-78460637D01*
X145013666Y-78628933D01*
X145032116Y-78654328D01*
X145557037Y-78129408D01*
X145574075Y-78192993D01*
X145639901Y-78307007D01*
X145732993Y-78400099D01*
X145847007Y-78465925D01*
X145910590Y-78482962D01*
X145385669Y-79007882D01*
X145385670Y-79007883D01*
X145411059Y-79026329D01*
X145579362Y-79112085D01*
X145758997Y-79170451D01*
X145945553Y-79200000D01*
X146134447Y-79200000D01*
X146321002Y-79170451D01*
X146500637Y-79112085D01*
X146668937Y-79026331D01*
X146694328Y-79007883D01*
X146694328Y-79007882D01*
X146169409Y-78482962D01*
X146232993Y-78465925D01*
X146347007Y-78400099D01*
X146440099Y-78307007D01*
X146505925Y-78192993D01*
X146522962Y-78129408D01*
X147047882Y-78654328D01*
X147047883Y-78654328D01*
X147066331Y-78628937D01*
X147152085Y-78460637D01*
X147192069Y-78337579D01*
X147231506Y-78279904D01*
X147295865Y-78252705D01*
X147364711Y-78264619D01*
X147416187Y-78311863D01*
X147427931Y-78337579D01*
X147467914Y-78460637D01*
X147553666Y-78628933D01*
X147572116Y-78654328D01*
X148097037Y-78129408D01*
X148114075Y-78192993D01*
X148179901Y-78307007D01*
X148272993Y-78400099D01*
X148387007Y-78465925D01*
X148450590Y-78482962D01*
X147925669Y-79007882D01*
X147925670Y-79007883D01*
X147951059Y-79026329D01*
X148119362Y-79112085D01*
X148298997Y-79170451D01*
X148485553Y-79200000D01*
X148674447Y-79200000D01*
X148861002Y-79170451D01*
X149040637Y-79112085D01*
X149208937Y-79026331D01*
X149234328Y-79007883D01*
X149234328Y-79007882D01*
X148709409Y-78482962D01*
X148772993Y-78465925D01*
X148887007Y-78400099D01*
X148980099Y-78307007D01*
X149045925Y-78192993D01*
X149062962Y-78129408D01*
X149587882Y-78654328D01*
X149587883Y-78654328D01*
X149606331Y-78628937D01*
X149692085Y-78460637D01*
X149732069Y-78337579D01*
X149771506Y-78279904D01*
X149835865Y-78252705D01*
X149904711Y-78264619D01*
X149956187Y-78311863D01*
X149967931Y-78337579D01*
X150007914Y-78460637D01*
X150093666Y-78628933D01*
X150112116Y-78654328D01*
X150637037Y-78129408D01*
X150654075Y-78192993D01*
X150719901Y-78307007D01*
X150812993Y-78400099D01*
X150927007Y-78465925D01*
X150990590Y-78482962D01*
X150465669Y-79007882D01*
X150465670Y-79007883D01*
X150491059Y-79026329D01*
X150659362Y-79112085D01*
X150838997Y-79170451D01*
X151025553Y-79200000D01*
X151214447Y-79200000D01*
X151401002Y-79170451D01*
X151580637Y-79112085D01*
X151748937Y-79026331D01*
X151774328Y-79007883D01*
X151774328Y-79007882D01*
X151249409Y-78482962D01*
X151312993Y-78465925D01*
X151427007Y-78400099D01*
X151520099Y-78307007D01*
X151585925Y-78192993D01*
X151602962Y-78129408D01*
X152127882Y-78654328D01*
X152127883Y-78654328D01*
X152146331Y-78628937D01*
X152232085Y-78460637D01*
X152290451Y-78281002D01*
X152320000Y-78094447D01*
X152320000Y-77905552D01*
X152290451Y-77718997D01*
X152232085Y-77539362D01*
X152191067Y-77458859D01*
X152191066Y-77458857D01*
X152166524Y-77410691D01*
X169799500Y-77410691D01*
X169799500Y-77529309D01*
X169830201Y-77643886D01*
X169889511Y-77746613D01*
X169973387Y-77830489D01*
X170076114Y-77889799D01*
X170190691Y-77920500D01*
X170190694Y-77920500D01*
X170309306Y-77920500D01*
X170309309Y-77920500D01*
X170423886Y-77889799D01*
X170526613Y-77830489D01*
X170550283Y-77806819D01*
X170611606Y-77773334D01*
X170637964Y-77770500D01*
X171362036Y-77770500D01*
X171429075Y-77790185D01*
X171449717Y-77806819D01*
X171473387Y-77830489D01*
X171576114Y-77889799D01*
X171690691Y-77920500D01*
X171690694Y-77920500D01*
X171809306Y-77920500D01*
X171809309Y-77920500D01*
X171923886Y-77889799D01*
X172026613Y-77830489D01*
X172110489Y-77746613D01*
X172169799Y-77643886D01*
X172200500Y-77529309D01*
X172200500Y-77410691D01*
X172169799Y-77296114D01*
X172110489Y-77193387D01*
X172026613Y-77109511D01*
X171923886Y-77050201D01*
X171809309Y-77019500D01*
X171690691Y-77019500D01*
X171576114Y-77050201D01*
X171576112Y-77050201D01*
X171576112Y-77050202D01*
X171473387Y-77109511D01*
X171473384Y-77109513D01*
X171449717Y-77133181D01*
X171388394Y-77166666D01*
X171362036Y-77169500D01*
X170637964Y-77169500D01*
X170570925Y-77149815D01*
X170550283Y-77133181D01*
X170526615Y-77109513D01*
X170526613Y-77109511D01*
X170423886Y-77050201D01*
X170309309Y-77019500D01*
X170190691Y-77019500D01*
X170076114Y-77050201D01*
X170076112Y-77050201D01*
X170076112Y-77050202D01*
X169973387Y-77109511D01*
X169973384Y-77109513D01*
X169889513Y-77193384D01*
X169889511Y-77193387D01*
X169830201Y-77296114D01*
X169799500Y-77410691D01*
X152166524Y-77410691D01*
X152146331Y-77371061D01*
X152127883Y-77345670D01*
X152127882Y-77345669D01*
X151602962Y-77870590D01*
X151585925Y-77807007D01*
X151520099Y-77692993D01*
X151427007Y-77599901D01*
X151312993Y-77534075D01*
X151249409Y-77517037D01*
X151774328Y-76992116D01*
X151748933Y-76973666D01*
X151580637Y-76887914D01*
X151458388Y-76848193D01*
X151400712Y-76808755D01*
X151373514Y-76744397D01*
X151385429Y-76675550D01*
X151432673Y-76624075D01*
X151458382Y-76612333D01*
X151580832Y-76572547D01*
X151749199Y-76486760D01*
X151902073Y-76375690D01*
X152035690Y-76242073D01*
X152146760Y-76089199D01*
X152232547Y-75920832D01*
X152290940Y-75741118D01*
X152305626Y-75648394D01*
X152320500Y-75554486D01*
X152320500Y-75365513D01*
X152290940Y-75178881D01*
X152232545Y-74999163D01*
X152146759Y-74830800D01*
X152035690Y-74677927D01*
X151902073Y-74544310D01*
X151749199Y-74433240D01*
X151695622Y-74405941D01*
X151580836Y-74347454D01*
X151483950Y-74315974D01*
X151459195Y-74307930D01*
X151401521Y-74268493D01*
X151374323Y-74204134D01*
X151386238Y-74135288D01*
X151433482Y-74083812D01*
X151459194Y-74072069D01*
X151580832Y-74032547D01*
X151749199Y-73946760D01*
X151902073Y-73835690D01*
X152035690Y-73702073D01*
X152146760Y-73549199D01*
X152232547Y-73380832D01*
X152290940Y-73201118D01*
X152296069Y-73168733D01*
X152320500Y-73014486D01*
X152320500Y-72825513D01*
X152290940Y-72638881D01*
X152247584Y-72505447D01*
X152232547Y-72459168D01*
X152232545Y-72459165D01*
X152232545Y-72459163D01*
X152201423Y-72398083D01*
X152146760Y-72290801D01*
X152143628Y-72286490D01*
X152121078Y-72255452D01*
X152121076Y-72255450D01*
X152074025Y-72190691D01*
X153299500Y-72190691D01*
X153299500Y-72309309D01*
X153330201Y-72423886D01*
X153389511Y-72526613D01*
X153389513Y-72526615D01*
X153413181Y-72550283D01*
X153446666Y-72611606D01*
X153449500Y-72637964D01*
X153449500Y-73862036D01*
X153429815Y-73929075D01*
X153413181Y-73949717D01*
X153389513Y-73973384D01*
X153389511Y-73973387D01*
X153330201Y-74076114D01*
X153299500Y-74190691D01*
X153299500Y-74309309D01*
X153330201Y-74423886D01*
X153389511Y-74526613D01*
X153473387Y-74610489D01*
X153576114Y-74669799D01*
X153690691Y-74700500D01*
X153690694Y-74700500D01*
X153809306Y-74700500D01*
X153809309Y-74700500D01*
X153923886Y-74669799D01*
X154026613Y-74610489D01*
X154110489Y-74526613D01*
X154169799Y-74423886D01*
X154200500Y-74309309D01*
X154200500Y-74190691D01*
X154169799Y-74076114D01*
X154110489Y-73973387D01*
X154086819Y-73949717D01*
X154053334Y-73888394D01*
X154050500Y-73862036D01*
X154050500Y-72637964D01*
X154052766Y-72630247D01*
X162369500Y-72630247D01*
X162369500Y-74369752D01*
X162381131Y-74428229D01*
X162381132Y-74428230D01*
X162425447Y-74494552D01*
X162491769Y-74538867D01*
X162491770Y-74538868D01*
X162550247Y-74550499D01*
X162550250Y-74550500D01*
X162550252Y-74550500D01*
X164289750Y-74550500D01*
X164289751Y-74550499D01*
X164304568Y-74547552D01*
X164348229Y-74538868D01*
X164348229Y-74538867D01*
X164348231Y-74538867D01*
X164414552Y-74494552D01*
X164458867Y-74428231D01*
X164458867Y-74428229D01*
X164458868Y-74428229D01*
X164467552Y-74384568D01*
X164470500Y-74369748D01*
X164470500Y-73396530D01*
X164909500Y-73396530D01*
X164909500Y-73603469D01*
X164949868Y-73806412D01*
X164949870Y-73806420D01*
X165029058Y-73997596D01*
X165144024Y-74169657D01*
X165290342Y-74315975D01*
X165290345Y-74315977D01*
X165462402Y-74430941D01*
X165653580Y-74510130D01*
X165798052Y-74538867D01*
X165856530Y-74550499D01*
X165856534Y-74550500D01*
X165856535Y-74550500D01*
X166063466Y-74550500D01*
X166063467Y-74550499D01*
X166266420Y-74510130D01*
X166457598Y-74430941D01*
X166629655Y-74315977D01*
X166654658Y-74290974D01*
X166680905Y-74264728D01*
X166775974Y-74169658D01*
X166775975Y-74169657D01*
X166775977Y-74169655D01*
X166890941Y-73997598D01*
X166970130Y-73806420D01*
X167010500Y-73603465D01*
X167010500Y-73396579D01*
X167450000Y-73396579D01*
X167450000Y-73603420D01*
X167490348Y-73806266D01*
X167490350Y-73806274D01*
X167569500Y-73997359D01*
X167601377Y-74045067D01*
X167601378Y-74045067D01*
X168017037Y-73629408D01*
X168034075Y-73692993D01*
X168099901Y-73807007D01*
X168192993Y-73900099D01*
X168307007Y-73965925D01*
X168370590Y-73982962D01*
X167954931Y-74398620D01*
X167954932Y-74398621D01*
X168002633Y-74430495D01*
X168002639Y-74430498D01*
X168193725Y-74509649D01*
X168193733Y-74509651D01*
X168396579Y-74549999D01*
X168396583Y-74550000D01*
X168603417Y-74550000D01*
X168603420Y-74549999D01*
X168806266Y-74509651D01*
X168806274Y-74509649D01*
X168997366Y-74430495D01*
X169045066Y-74398621D01*
X169045067Y-74398620D01*
X168629409Y-73982962D01*
X168692993Y-73965925D01*
X168807007Y-73900099D01*
X168900099Y-73807007D01*
X168965925Y-73692993D01*
X168982962Y-73629408D01*
X169398620Y-74045067D01*
X169398621Y-74045066D01*
X169430495Y-73997366D01*
X169509649Y-73806274D01*
X169509651Y-73806266D01*
X169549999Y-73603420D01*
X169550000Y-73603417D01*
X169550000Y-73396581D01*
X169549999Y-73396580D01*
X169549989Y-73396530D01*
X169989500Y-73396530D01*
X169989500Y-73603469D01*
X170029868Y-73806412D01*
X170029870Y-73806420D01*
X170109058Y-73997596D01*
X170224024Y-74169657D01*
X170370342Y-74315975D01*
X170370345Y-74315977D01*
X170542402Y-74430941D01*
X170733580Y-74510130D01*
X170878052Y-74538867D01*
X170936530Y-74550499D01*
X170936534Y-74550500D01*
X170936535Y-74550500D01*
X171143466Y-74550500D01*
X171143467Y-74550499D01*
X171346420Y-74510130D01*
X171537598Y-74430941D01*
X171709655Y-74315977D01*
X171855977Y-74169655D01*
X171970941Y-73997598D01*
X172050130Y-73806420D01*
X172090500Y-73603465D01*
X172090500Y-73396535D01*
X172090499Y-73396530D01*
X172529500Y-73396530D01*
X172529500Y-73603469D01*
X172569868Y-73806412D01*
X172569870Y-73806420D01*
X172649058Y-73997596D01*
X172764024Y-74169657D01*
X172910342Y-74315975D01*
X172910345Y-74315977D01*
X173082402Y-74430941D01*
X173273580Y-74510130D01*
X173418052Y-74538867D01*
X173476530Y-74550499D01*
X173476534Y-74550500D01*
X173476535Y-74550500D01*
X173683466Y-74550500D01*
X173683467Y-74550499D01*
X173886420Y-74510130D01*
X174077598Y-74430941D01*
X174249655Y-74315977D01*
X174395977Y-74169655D01*
X174510941Y-73997598D01*
X174590130Y-73806420D01*
X174630500Y-73603465D01*
X174630500Y-73396535D01*
X174590130Y-73193580D01*
X174510941Y-73002402D01*
X174395977Y-72830345D01*
X174395975Y-72830342D01*
X174249657Y-72684024D01*
X174163626Y-72626541D01*
X174077598Y-72569059D01*
X173998943Y-72536479D01*
X173886420Y-72489870D01*
X173886412Y-72489868D01*
X173683469Y-72449500D01*
X173683465Y-72449500D01*
X173476535Y-72449500D01*
X173476530Y-72449500D01*
X173273587Y-72489868D01*
X173273579Y-72489870D01*
X173082403Y-72569058D01*
X172910342Y-72684024D01*
X172764024Y-72830342D01*
X172649058Y-73002403D01*
X172569870Y-73193579D01*
X172569868Y-73193587D01*
X172529500Y-73396530D01*
X172090499Y-73396530D01*
X172050130Y-73193580D01*
X171970941Y-73002402D01*
X171855977Y-72830345D01*
X171855975Y-72830342D01*
X171709657Y-72684024D01*
X171623626Y-72626541D01*
X171537598Y-72569059D01*
X171458943Y-72536479D01*
X171346420Y-72489870D01*
X171346412Y-72489868D01*
X171143469Y-72449500D01*
X171143465Y-72449500D01*
X170936535Y-72449500D01*
X170936530Y-72449500D01*
X170733587Y-72489868D01*
X170733579Y-72489870D01*
X170542403Y-72569058D01*
X170370342Y-72684024D01*
X170224024Y-72830342D01*
X170109058Y-73002403D01*
X170029870Y-73193579D01*
X170029868Y-73193587D01*
X169989500Y-73396530D01*
X169549989Y-73396530D01*
X169509651Y-73193733D01*
X169509649Y-73193725D01*
X169430498Y-73002639D01*
X169430495Y-73002633D01*
X169398621Y-72954932D01*
X169398620Y-72954931D01*
X168982962Y-73370590D01*
X168965925Y-73307007D01*
X168900099Y-73192993D01*
X168807007Y-73099901D01*
X168692993Y-73034075D01*
X168629409Y-73017037D01*
X169045067Y-72601378D01*
X169045067Y-72601377D01*
X168997359Y-72569500D01*
X168806274Y-72490350D01*
X168806266Y-72490348D01*
X168603420Y-72450000D01*
X168396579Y-72450000D01*
X168193733Y-72490348D01*
X168193725Y-72490350D01*
X168002641Y-72569500D01*
X168002631Y-72569505D01*
X167954932Y-72601377D01*
X167954932Y-72601378D01*
X168370591Y-73017037D01*
X168307007Y-73034075D01*
X168192993Y-73099901D01*
X168099901Y-73192993D01*
X168034075Y-73307007D01*
X168017037Y-73370591D01*
X167601378Y-72954932D01*
X167601377Y-72954932D01*
X167569505Y-73002631D01*
X167569500Y-73002641D01*
X167490350Y-73193725D01*
X167490348Y-73193733D01*
X167450000Y-73396579D01*
X167010500Y-73396579D01*
X167010500Y-73396535D01*
X166970130Y-73193580D01*
X166890941Y-73002402D01*
X166775977Y-72830345D01*
X166775975Y-72830342D01*
X166629657Y-72684024D01*
X166543626Y-72626541D01*
X166457598Y-72569059D01*
X166378943Y-72536479D01*
X166266420Y-72489870D01*
X166266412Y-72489868D01*
X166063469Y-72449500D01*
X166063465Y-72449500D01*
X165856535Y-72449500D01*
X165856530Y-72449500D01*
X165653587Y-72489868D01*
X165653579Y-72489870D01*
X165462403Y-72569058D01*
X165290342Y-72684024D01*
X165144024Y-72830342D01*
X165029058Y-73002403D01*
X164949870Y-73193579D01*
X164949868Y-73193587D01*
X164909500Y-73396530D01*
X164470500Y-73396530D01*
X164470500Y-72630252D01*
X164470500Y-72630249D01*
X164470499Y-72630247D01*
X164458868Y-72571770D01*
X164458867Y-72571769D01*
X164414552Y-72505447D01*
X164348230Y-72461132D01*
X164348229Y-72461131D01*
X164289752Y-72449500D01*
X164289748Y-72449500D01*
X162550252Y-72449500D01*
X162550247Y-72449500D01*
X162491770Y-72461131D01*
X162491769Y-72461132D01*
X162425447Y-72505447D01*
X162381132Y-72571769D01*
X162381131Y-72571770D01*
X162369500Y-72630247D01*
X154052766Y-72630247D01*
X154059144Y-72608523D01*
X154065668Y-72578537D01*
X154069422Y-72573521D01*
X154070185Y-72570925D01*
X154086819Y-72550283D01*
X154100623Y-72536479D01*
X154110489Y-72526613D01*
X154169799Y-72423886D01*
X154200500Y-72309309D01*
X154200500Y-72190691D01*
X154169799Y-72076114D01*
X154110489Y-71973387D01*
X154026613Y-71889511D01*
X153984481Y-71865186D01*
X176599500Y-71865186D01*
X176599500Y-72134813D01*
X176629686Y-72402719D01*
X176629687Y-72402728D01*
X176629688Y-72402732D01*
X176634771Y-72425000D01*
X176689684Y-72665594D01*
X176689687Y-72665602D01*
X176778734Y-72920082D01*
X176895714Y-73162994D01*
X176895716Y-73162997D01*
X177039162Y-73391289D01*
X177207266Y-73602085D01*
X177397915Y-73792734D01*
X177608711Y-73960838D01*
X177837003Y-74104284D01*
X178079921Y-74221267D01*
X178271049Y-74288145D01*
X178334397Y-74310312D01*
X178334405Y-74310315D01*
X178334408Y-74310315D01*
X178334409Y-74310316D01*
X178597268Y-74370312D01*
X178865187Y-74400499D01*
X178865188Y-74400500D01*
X178865191Y-74400500D01*
X179134812Y-74400500D01*
X179134812Y-74400499D01*
X179402732Y-74370312D01*
X179665591Y-74310316D01*
X179920079Y-74221267D01*
X180162997Y-74104284D01*
X180391289Y-73960838D01*
X180602085Y-73792734D01*
X180792734Y-73602085D01*
X180960838Y-73391289D01*
X181104284Y-73162997D01*
X181221267Y-72920079D01*
X181310316Y-72665591D01*
X181370312Y-72402732D01*
X181400500Y-72134809D01*
X181400500Y-71865191D01*
X181370312Y-71597268D01*
X181310316Y-71334409D01*
X181221267Y-71079921D01*
X181104284Y-70837003D01*
X180960838Y-70608711D01*
X180792734Y-70397915D01*
X180602085Y-70207266D01*
X180391289Y-70039162D01*
X180162997Y-69895716D01*
X180162994Y-69895714D01*
X179920082Y-69778734D01*
X179665602Y-69689687D01*
X179665594Y-69689684D01*
X179468446Y-69644687D01*
X179402732Y-69629688D01*
X179402728Y-69629687D01*
X179402719Y-69629686D01*
X179134813Y-69599500D01*
X179134809Y-69599500D01*
X178865191Y-69599500D01*
X178865186Y-69599500D01*
X178597280Y-69629686D01*
X178597268Y-69629688D01*
X178334405Y-69689684D01*
X178334397Y-69689687D01*
X178079917Y-69778734D01*
X177837005Y-69895714D01*
X177608712Y-70039161D01*
X177397915Y-70207265D01*
X177207265Y-70397915D01*
X177039161Y-70608712D01*
X176895714Y-70837005D01*
X176778734Y-71079917D01*
X176689687Y-71334397D01*
X176689684Y-71334405D01*
X176629688Y-71597268D01*
X176629686Y-71597280D01*
X176599500Y-71865186D01*
X153984481Y-71865186D01*
X153923886Y-71830201D01*
X153809309Y-71799500D01*
X153690691Y-71799500D01*
X153576114Y-71830201D01*
X153576112Y-71830201D01*
X153576112Y-71830202D01*
X153473387Y-71889511D01*
X153473384Y-71889513D01*
X153389513Y-71973384D01*
X153389511Y-71973387D01*
X153330201Y-72076114D01*
X153299500Y-72190691D01*
X152074025Y-72190691D01*
X152058033Y-72168680D01*
X152035690Y-72137927D01*
X151902073Y-72004310D01*
X151749199Y-71893240D01*
X151694140Y-71865186D01*
X151580836Y-71807454D01*
X151401118Y-71749059D01*
X151214486Y-71719500D01*
X151214481Y-71719500D01*
X151025519Y-71719500D01*
X151025514Y-71719500D01*
X150838881Y-71749059D01*
X150659163Y-71807454D01*
X150490800Y-71893240D01*
X150403579Y-71956610D01*
X150337927Y-72004310D01*
X150337925Y-72004312D01*
X150337924Y-72004312D01*
X150204312Y-72137924D01*
X150204312Y-72137925D01*
X150204310Y-72137927D01*
X150181967Y-72168680D01*
X150093240Y-72290800D01*
X150007454Y-72459163D01*
X149967931Y-72580803D01*
X149928493Y-72638478D01*
X149864134Y-72665676D01*
X149795288Y-72653761D01*
X149743812Y-72606516D01*
X149732069Y-72580803D01*
X149707584Y-72505447D01*
X149692547Y-72459168D01*
X149692545Y-72459165D01*
X149692545Y-72459163D01*
X149616190Y-72309309D01*
X149606760Y-72290801D01*
X149495690Y-72137927D01*
X149362073Y-72004310D01*
X149209199Y-71893240D01*
X149154140Y-71865186D01*
X149040836Y-71807454D01*
X148861118Y-71749059D01*
X148674486Y-71719500D01*
X148674481Y-71719500D01*
X148485519Y-71719500D01*
X148485514Y-71719500D01*
X148298881Y-71749059D01*
X148119163Y-71807454D01*
X147950800Y-71893240D01*
X147863579Y-71956610D01*
X147797927Y-72004310D01*
X147797925Y-72004312D01*
X147797924Y-72004312D01*
X147664312Y-72137924D01*
X147664312Y-72137925D01*
X147664310Y-72137927D01*
X147641967Y-72168680D01*
X147553240Y-72290800D01*
X147467454Y-72459163D01*
X147427931Y-72580803D01*
X147388493Y-72638478D01*
X147324134Y-72665676D01*
X147255288Y-72653761D01*
X147203812Y-72606516D01*
X147192069Y-72580803D01*
X147167584Y-72505447D01*
X147152547Y-72459168D01*
X147152545Y-72459165D01*
X147152545Y-72459163D01*
X147076190Y-72309309D01*
X147066760Y-72290801D01*
X146955690Y-72137927D01*
X146822073Y-72004310D01*
X146669199Y-71893240D01*
X146614140Y-71865186D01*
X146500836Y-71807454D01*
X146321118Y-71749059D01*
X146134486Y-71719500D01*
X146134481Y-71719500D01*
X145945519Y-71719500D01*
X145945514Y-71719500D01*
X145758881Y-71749059D01*
X145579163Y-71807454D01*
X145410800Y-71893240D01*
X145323579Y-71956610D01*
X145257927Y-72004310D01*
X145257925Y-72004312D01*
X145257924Y-72004312D01*
X145124312Y-72137924D01*
X145124312Y-72137925D01*
X145124310Y-72137927D01*
X145101967Y-72168680D01*
X145013240Y-72290800D01*
X144927454Y-72459163D01*
X144887931Y-72580803D01*
X144848493Y-72638478D01*
X144784134Y-72665676D01*
X144715288Y-72653761D01*
X144663812Y-72606516D01*
X144652069Y-72580803D01*
X144627584Y-72505447D01*
X144612547Y-72459168D01*
X144612545Y-72459165D01*
X144612545Y-72459163D01*
X144536190Y-72309309D01*
X144526760Y-72290801D01*
X144415690Y-72137927D01*
X144282073Y-72004310D01*
X144129199Y-71893240D01*
X144074140Y-71865186D01*
X143960836Y-71807454D01*
X143781118Y-71749059D01*
X143594486Y-71719500D01*
X143594481Y-71719500D01*
X143405519Y-71719500D01*
X143405514Y-71719500D01*
X143218881Y-71749059D01*
X143039163Y-71807454D01*
X142870800Y-71893240D01*
X142783579Y-71956610D01*
X142717927Y-72004310D01*
X142717925Y-72004312D01*
X142717924Y-72004312D01*
X142584312Y-72137924D01*
X142584312Y-72137925D01*
X142584310Y-72137927D01*
X142561967Y-72168680D01*
X142473240Y-72290800D01*
X142387454Y-72459163D01*
X142329059Y-72638881D01*
X142299500Y-72825513D01*
X141550500Y-72825513D01*
X141550500Y-72637964D01*
X141570185Y-72570925D01*
X141586819Y-72550283D01*
X141593044Y-72544058D01*
X141610489Y-72526613D01*
X141669799Y-72423886D01*
X141700500Y-72309309D01*
X141700500Y-72190691D01*
X141669799Y-72076114D01*
X141610489Y-71973387D01*
X141526613Y-71889511D01*
X141423886Y-71830201D01*
X141309309Y-71799500D01*
X141190691Y-71799500D01*
X141076114Y-71830201D01*
X141076112Y-71830201D01*
X141076112Y-71830202D01*
X140973387Y-71889511D01*
X140973384Y-71889513D01*
X140889513Y-71973384D01*
X140889511Y-71973387D01*
X140830201Y-72076114D01*
X140799500Y-72190691D01*
X122394204Y-72190691D01*
X122396684Y-72168680D01*
X122398259Y-72154690D01*
X122400500Y-72134809D01*
X122400500Y-71865191D01*
X122370312Y-71597268D01*
X122310316Y-71334409D01*
X122221267Y-71079921D01*
X122104284Y-70837003D01*
X121960838Y-70608711D01*
X121792734Y-70397915D01*
X121602085Y-70207266D01*
X121391289Y-70039162D01*
X121162997Y-69895716D01*
X121162994Y-69895714D01*
X120920082Y-69778734D01*
X120665602Y-69689687D01*
X120665594Y-69689684D01*
X120468446Y-69644687D01*
X120402732Y-69629688D01*
X120402728Y-69629687D01*
X120402719Y-69629686D01*
X120134813Y-69599500D01*
X120134809Y-69599500D01*
X119865191Y-69599500D01*
X119865186Y-69599500D01*
X119597280Y-69629686D01*
X119597268Y-69629688D01*
X119334405Y-69689684D01*
X119334397Y-69689687D01*
X119079917Y-69778734D01*
X118837005Y-69895714D01*
X118608712Y-70039161D01*
X118397915Y-70207265D01*
X118207265Y-70397915D01*
X118039161Y-70608712D01*
X117895714Y-70837005D01*
X117778734Y-71079917D01*
X117689687Y-71334397D01*
X117689684Y-71334405D01*
X117629688Y-71597268D01*
X117629686Y-71597280D01*
X117599500Y-71865186D01*
X117007566Y-71865186D01*
X117008088Y-71855222D01*
X117008088Y-71855221D01*
X117015184Y-71719818D01*
X117015794Y-71712424D01*
X117022814Y-71650112D01*
X117023553Y-71644658D01*
X117061850Y-71402860D01*
X117063420Y-71394721D01*
X117076105Y-71339144D01*
X117077172Y-71334844D01*
X117142289Y-71091827D01*
X117145007Y-71083016D01*
X117159943Y-71040331D01*
X117161178Y-71036964D01*
X117255746Y-70790603D01*
X117259762Y-70781305D01*
X117269729Y-70760608D01*
X117270863Y-70758318D01*
X117399415Y-70506023D01*
X117405891Y-70494808D01*
X117569819Y-70242380D01*
X117577434Y-70231899D01*
X117766858Y-69997979D01*
X117775525Y-69988354D01*
X117988354Y-69775525D01*
X117997979Y-69766858D01*
X118231899Y-69577434D01*
X118242380Y-69569819D01*
X118494808Y-69405891D01*
X118506023Y-69399415D01*
X118758318Y-69270863D01*
X118760608Y-69269729D01*
X118781305Y-69259762D01*
X118790603Y-69255746D01*
X119036964Y-69161178D01*
X119040331Y-69159943D01*
X119083016Y-69145007D01*
X119091827Y-69142289D01*
X119334844Y-69077172D01*
X119339144Y-69076105D01*
X119394721Y-69063420D01*
X119402860Y-69061850D01*
X119644658Y-69023553D01*
X119650112Y-69022814D01*
X119712430Y-69015793D01*
X119719811Y-69015184D01*
X119996756Y-69000669D01*
X120003246Y-69000500D01*
X178996754Y-69000500D01*
X179003243Y-69000669D01*
G37*
%TD.AperFunction*%
%TD*%
M02*
