%TF.GenerationSoftware,KiCad,Pcbnew,9.0.2*%
%TF.CreationDate,2025-06-25T14:47:54+02:00*%
%TF.ProjectId,ant control board v2,616e7420-636f-46e7-9472-6f6c20626f61,1.0*%
%TF.SameCoordinates,Original*%
%TF.FileFunction,Legend,Bot*%
%TF.FilePolarity,Positive*%
%FSLAX46Y46*%
G04 Gerber Fmt 4.6, Leading zero omitted, Abs format (unit mm)*
G04 Created by KiCad (PCBNEW 9.0.2) date 2025-06-25 14:47:54*
%MOMM*%
%LPD*%
G01*
G04 APERTURE LIST*
%ADD10C,0.150000*%
G04 APERTURE END LIST*
D10*
X183496466Y-111516666D02*
X182929800Y-111516666D01*
X182929800Y-111516666D02*
X182863133Y-111550000D01*
X182863133Y-111550000D02*
X182829800Y-111583333D01*
X182829800Y-111583333D02*
X182796466Y-111650000D01*
X182796466Y-111650000D02*
X182796466Y-111783333D01*
X182796466Y-111783333D02*
X182829800Y-111850000D01*
X182829800Y-111850000D02*
X182863133Y-111883333D01*
X182863133Y-111883333D02*
X182929800Y-111916666D01*
X182929800Y-111916666D02*
X183496466Y-111916666D01*
X182796466Y-112283333D02*
X182796466Y-112416666D01*
X182796466Y-112416666D02*
X182829800Y-112483333D01*
X182829800Y-112483333D02*
X182863133Y-112516666D01*
X182863133Y-112516666D02*
X182963133Y-112583333D01*
X182963133Y-112583333D02*
X183096466Y-112616666D01*
X183096466Y-112616666D02*
X183363133Y-112616666D01*
X183363133Y-112616666D02*
X183429800Y-112583333D01*
X183429800Y-112583333D02*
X183463133Y-112549999D01*
X183463133Y-112549999D02*
X183496466Y-112483333D01*
X183496466Y-112483333D02*
X183496466Y-112349999D01*
X183496466Y-112349999D02*
X183463133Y-112283333D01*
X183463133Y-112283333D02*
X183429800Y-112249999D01*
X183429800Y-112249999D02*
X183363133Y-112216666D01*
X183363133Y-112216666D02*
X183196466Y-112216666D01*
X183196466Y-112216666D02*
X183129800Y-112249999D01*
X183129800Y-112249999D02*
X183096466Y-112283333D01*
X183096466Y-112283333D02*
X183063133Y-112349999D01*
X183063133Y-112349999D02*
X183063133Y-112483333D01*
X183063133Y-112483333D02*
X183096466Y-112549999D01*
X183096466Y-112549999D02*
X183129800Y-112583333D01*
X183129800Y-112583333D02*
X183196466Y-112616666D01*
M02*
