M48
; DRILL file {KiCad 9.0.2} date 2025-06-25T14:47:56+0200
; FORMAT={-:-/ absolute / inch / decimal}
; #@! TF.CreationDate,2025-06-25T14:47:56+02:00
; #@! TF.GenerationSoftware,Kicad,Pcbnew,9.0.2
; #@! TF.FileFunction,Plated,1,2,PTH
FMAT,2
INCH
; #@! TA.AperFunction,Plated,PTH,ViaDrill
T1C0.0118
; #@! TA.AperFunction,Plated,PTH,ComponentDrill
T2C0.0157
; #@! TA.AperFunction,Plated,PTH,ComponentDrill
T3C0.0236
; #@! TA.AperFunction,Plated,PTH,ComponentDrill
T4C0.0276
; #@! TA.AperFunction,Plated,PTH,ComponentDrill
T5C0.0394
; #@! TA.AperFunction,Plated,PTH,ComponentDrill
T6C0.0866
%
G90
G05
T1
X4.7835Y-3.1988
X4.8425Y-3.3366
X4.8568Y-3.1988
X4.8622Y-4.8031
X4.8819Y-4.1437
X4.8917Y-3.4252
X4.9311Y-3.2185
X4.9902Y-3.1299
X5.0Y-3.8583
X5.0591Y-3.8583
X5.0689Y-3.2677
X5.0787Y-4.1437
X5.0984Y-3.2047
X5.0984Y-4.5079
X5.1181Y-3.8583
X5.128Y-4.5669
X5.128Y-4.6346
X5.1969Y-3.8976
X5.2274Y-4.5098
X5.3346Y-4.6654
X5.3543Y-4.4862
X5.3543Y-4.5295
X5.3839Y-4.4862
X5.3839Y-4.5295
X5.3937Y-3.7402
X5.4429Y-4.0256
X5.4429Y-4.5669
X5.4429Y-4.6358
X5.5118Y-2.9492
X5.5118Y-2.9925
X5.5167Y-4.0994
X5.5315Y-3.8976
X5.5413Y-3.9665
X5.5464Y-4.1001
X5.561Y-2.8445
X5.561Y-2.9925
X5.5709Y-3.5728
X5.6004Y-4.4862
X5.6004Y-4.5295
X5.61Y-3.4843
X5.6299Y-4.4862
X5.6299Y-4.5295
X5.6496Y-3.7205
X5.6496Y-4.6654
X5.6693Y-3.4843
X5.689Y-3.6811
X5.689Y-3.8976
X5.748Y-3.5138
X5.748Y-3.5974
X5.7579Y-4.5669
X5.7579Y-4.6348
X5.7874Y-3.9173
X5.8263Y-3.7003
X5.876Y-3.8287
X5.9646Y-4.6654
X6.0531Y-2.8445
X6.0531Y-2.9232
X6.0531Y-3.7598
X6.0925Y-3.5335
X6.0925Y-3.5925
X6.122Y-4.1831
X6.1417Y-4.1014
X6.1417Y-4.1447
X6.1614Y-3.7205
X6.1713Y-4.0748
X6.1713Y-4.2126
X6.2106Y-3.8297
X6.25Y-4.3406
X6.2565Y-4.1158
X6.2697Y-3.2579
X6.2795Y-4.1043
X6.2795Y-4.3538
X6.3287Y-4.2895
X6.7028Y-3.05
X6.7618Y-3.05
T2
X4.6594Y-2.8346
X4.6594Y-4.9606
X4.6785Y-2.7887
X4.6785Y-2.8806
X4.6785Y-4.9147
X4.6785Y-5.0066
X4.7244Y-2.7697
X4.7244Y-2.8996
X4.7244Y-4.8957
X4.7244Y-5.0256
X4.7703Y-2.7887
X4.7703Y-2.8806
X4.7703Y-4.9147
X4.7703Y-5.0066
X4.7894Y-2.8346
X4.7894Y-4.9606
X6.9823Y-2.8346
X6.9823Y-4.9606
X7.0013Y-2.7887
X7.0013Y-2.8806
X7.0013Y-4.9147
X7.0013Y-5.0066
X7.0472Y-2.7697
X7.0472Y-2.8996
X7.0472Y-4.8957
X7.0472Y-5.0256
X7.0932Y-2.7887
X7.0932Y-2.8806
X7.0932Y-4.9147
X7.0932Y-5.0066
X7.1122Y-2.8346
X7.1122Y-4.9606
T4
X5.1575Y-3.937
X5.2953Y-4.4587
X5.3543Y-3.937
X5.4429Y-4.4587
X5.5413Y-4.4587
X5.689Y-4.4587
X5.8563Y-4.4587
X5.9941Y-4.4587
X6.3091Y-4.7638
X6.6535Y-4.7638
T5
X4.7638Y-3.7189
X4.7638Y-3.8189
X4.7638Y-4.2805
X4.7638Y-4.3805
X4.7638Y-4.5457
X4.7638Y-4.6457
X4.7638Y-4.7457
X5.0866Y-2.8927
X5.186Y-4.9213
X5.1866Y-2.8927
X5.286Y-4.9213
X5.2866Y-2.8927
X5.3866Y-2.8927
X5.501Y-4.9213
X5.601Y-4.9213
X5.6496Y-2.8709
X5.6496Y-2.9709
X5.6496Y-3.0709
X5.7496Y-2.8709
X5.7496Y-2.9709
X5.7496Y-3.0709
X5.8159Y-4.9213
X5.8496Y-2.8709
X5.8496Y-2.9709
X5.8496Y-3.0709
X5.9159Y-4.9213
X5.9496Y-2.8709
X5.9496Y-2.9709
X5.9496Y-3.0709
X6.2386Y-4.9213
X6.3386Y-4.9213
X6.4339Y-2.8937
X6.4386Y-4.9213
X6.5339Y-2.8937
X6.6142Y-4.9213
X6.6339Y-2.8937
X6.7142Y-4.9213
X6.7339Y-2.8937
X6.8142Y-4.9213
X6.8339Y-2.8937
T6
X4.7244Y-2.8346
X4.7244Y-4.9606
X7.0472Y-2.8346
X7.0472Y-4.9606
T3
G00X6.9634Y-3.5307
M15
G01X6.9201Y-3.5307
M16
G05
G00X6.9634Y-3.8709
M15
G01X6.9201Y-3.8709
M16
G05
G00X7.128Y-3.5307
M15
G01X7.0846Y-3.5307
M16
G05
G00X7.128Y-3.8709
M15
G01X7.0846Y-3.8709
M16
G05
M30
