%TF.GenerationSoftware,KiCad,Pcbnew,9.0.3-9.0.3-0~ubuntu24.04.1*%
%TF.CreationDate,2025-12-07T16:55:59+01:00*%
%TF.ProjectId,ant control board v2,616e7420-636f-46e7-9472-6f6c20626f61,2.1*%
%TF.SameCoordinates,Original*%
%TF.FileFunction,Copper,L4,Bot*%
%TF.FilePolarity,Positive*%
%FSLAX46Y46*%
G04 Gerber Fmt 4.6, Leading zero omitted, Abs format (unit mm)*
G04 Created by KiCad (PCBNEW 9.0.3-9.0.3-0~ubuntu24.04.1) date 2025-12-07 16:55:59*
%MOMM*%
%LPD*%
G01*
G04 APERTURE LIST*
G04 Aperture macros list*
%AMRoundRect*
0 Rectangle with rounded corners*
0 $1 Rounding radius*
0 $2 $3 $4 $5 $6 $7 $8 $9 X,Y pos of 4 corners*
0 Add a 4 corners polygon primitive as box body*
4,1,4,$2,$3,$4,$5,$6,$7,$8,$9,$2,$3,0*
0 Add four circle primitives for the rounded corners*
1,1,$1+$1,$2,$3*
1,1,$1+$1,$4,$5*
1,1,$1+$1,$6,$7*
1,1,$1+$1,$8,$9*
0 Add four rect primitives between the rounded corners*
20,1,$1+$1,$2,$3,$4,$5,0*
20,1,$1+$1,$4,$5,$6,$7,0*
20,1,$1+$1,$6,$7,$8,$9,0*
20,1,$1+$1,$8,$9,$2,$3,0*%
%AMFreePoly0*
4,1,9,3.862500,-0.866500,0.737500,-0.866500,0.737500,-0.450000,-0.737500,-0.450000,-0.737500,0.450000,0.737500,0.450000,0.737500,0.866500,3.862500,0.866500,3.862500,-0.866500,3.862500,-0.866500,$1*%
G04 Aperture macros list end*
%TA.AperFunction,ComponentPad*%
%ADD10C,0.500000*%
%TD*%
%TA.AperFunction,ComponentPad*%
%ADD11RoundRect,0.375000X0.375000X-0.625000X0.375000X0.625000X-0.375000X0.625000X-0.375000X-0.625000X0*%
%TD*%
%TA.AperFunction,ComponentPad*%
%ADD12RoundRect,0.300000X0.970000X-0.700000X0.970000X0.700000X-0.970000X0.700000X-0.970000X-0.700000X0*%
%TD*%
%TA.AperFunction,ComponentPad*%
%ADD13O,1.250000X2.500000*%
%TD*%
%TA.AperFunction,ComponentPad*%
%ADD14RoundRect,0.300000X-0.700000X-0.970000X0.700000X-0.970000X0.700000X0.970000X-0.700000X0.970000X0*%
%TD*%
%TA.AperFunction,ComponentPad*%
%ADD15C,2.000000*%
%TD*%
%TA.AperFunction,ComponentPad*%
%ADD16RoundRect,0.375000X0.625000X0.375000X-0.625000X0.375000X-0.625000X-0.375000X0.625000X-0.375000X0*%
%TD*%
%TA.AperFunction,ComponentPad*%
%ADD17RoundRect,0.300000X-0.970000X0.700000X-0.970000X-0.700000X0.970000X-0.700000X0.970000X0.700000X0*%
%TD*%
%TA.AperFunction,SMDPad,CuDef*%
%ADD18RoundRect,0.135000X0.185000X-0.135000X0.185000X0.135000X-0.185000X0.135000X-0.185000X-0.135000X0*%
%TD*%
%TA.AperFunction,SMDPad,CuDef*%
%ADD19RoundRect,0.135000X0.135000X0.185000X-0.135000X0.185000X-0.135000X-0.185000X0.135000X-0.185000X0*%
%TD*%
%TA.AperFunction,SMDPad,CuDef*%
%ADD20RoundRect,0.135000X-0.135000X-0.185000X0.135000X-0.185000X0.135000X0.185000X-0.135000X0.185000X0*%
%TD*%
%TA.AperFunction,SMDPad,CuDef*%
%ADD21RoundRect,0.150000X0.150000X-0.512500X0.150000X0.512500X-0.150000X0.512500X-0.150000X-0.512500X0*%
%TD*%
%TA.AperFunction,SMDPad,CuDef*%
%ADD22RoundRect,0.140000X0.140000X0.170000X-0.140000X0.170000X-0.140000X-0.170000X0.140000X-0.170000X0*%
%TD*%
%TA.AperFunction,SMDPad,CuDef*%
%ADD23RoundRect,0.225000X-0.425000X-0.225000X0.425000X-0.225000X0.425000X0.225000X-0.425000X0.225000X0*%
%TD*%
%TA.AperFunction,SMDPad,CuDef*%
%ADD24FreePoly0,0.000000*%
%TD*%
%TA.AperFunction,SMDPad,CuDef*%
%ADD25RoundRect,0.087500X0.225000X0.087500X-0.225000X0.087500X-0.225000X-0.087500X0.225000X-0.087500X0*%
%TD*%
%TA.AperFunction,SMDPad,CuDef*%
%ADD26RoundRect,0.087500X0.087500X0.225000X-0.087500X0.225000X-0.087500X-0.225000X0.087500X-0.225000X0*%
%TD*%
%TA.AperFunction,SMDPad,CuDef*%
%ADD27RoundRect,0.140000X-0.170000X0.140000X-0.170000X-0.140000X0.170000X-0.140000X0.170000X0.140000X0*%
%TD*%
%TA.AperFunction,SMDPad,CuDef*%
%ADD28RoundRect,0.250000X-0.250000X0.500000X-0.250000X-0.500000X0.250000X-0.500000X0.250000X0.500000X0*%
%TD*%
%TA.AperFunction,SMDPad,CuDef*%
%ADD29RoundRect,0.140000X-0.140000X-0.170000X0.140000X-0.170000X0.140000X0.170000X-0.140000X0.170000X0*%
%TD*%
%TA.AperFunction,SMDPad,CuDef*%
%ADD30RoundRect,0.140000X0.170000X-0.140000X0.170000X0.140000X-0.170000X0.140000X-0.170000X-0.140000X0*%
%TD*%
%TA.AperFunction,ViaPad*%
%ADD31C,0.500000*%
%TD*%
%TA.AperFunction,ViaPad*%
%ADD32C,0.600000*%
%TD*%
%TA.AperFunction,Conductor*%
%ADD33C,0.500000*%
%TD*%
%TA.AperFunction,Conductor*%
%ADD34C,0.200000*%
%TD*%
%TA.AperFunction,Profile*%
%ADD35C,0.050000*%
%TD*%
G04 APERTURE END LIST*
D10*
%TO.P,J10,1,Pin_1*%
%TO.N,/MCU and RX/DIGITAL_AUX1*%
X102647200Y-119711200D03*
X102640000Y-118300000D03*
D11*
X102190000Y-119000000D03*
D10*
X101732800Y-119711200D03*
X101732800Y-118288800D03*
%TO.P,J10,2,Pin_2*%
%TO.N,/MCU and RX/DIGITAL_AUX2*%
X100654400Y-118300000D03*
X100640000Y-119700000D03*
D11*
X100190000Y-119000000D03*
D10*
X99740000Y-119700000D03*
X99740000Y-118300000D03*
%TD*%
%TO.P,J7,1,Pin_1*%
%TO.N,/MCU and RX/SERVO1*%
X99721000Y-135055000D03*
X101499000Y-135055000D03*
D12*
X100610000Y-134420000D03*
D10*
X99721000Y-133785000D03*
X101499000Y-133785000D03*
%TO.P,J7,2,Pin_2*%
%TO.N,+BATT*%
X99721000Y-132515000D03*
X101499000Y-132515000D03*
D12*
X100610000Y-131880000D03*
D10*
X99721000Y-131245000D03*
X101499000Y-131245000D03*
%TO.P,J7,3,Pin_3*%
%TO.N,GND*%
X99721000Y-129975000D03*
X101499000Y-129975000D03*
D12*
X100610000Y-129340000D03*
D10*
X99721000Y-128705000D03*
X101499000Y-128705000D03*
%TD*%
D13*
%TO.P,J3,13,SHIELD*%
%TO.N,GND*%
X119320000Y-116180000D03*
X119320000Y-112000000D03*
X110680000Y-116180000D03*
X110680000Y-112000000D03*
%TD*%
D10*
%TO.P,J5,1,Pin_1*%
%TO.N,/DC Motors/M2+*%
X105055000Y-138611000D03*
X105055000Y-140389000D03*
D14*
X105690000Y-139500000D03*
D10*
X106325000Y-138611000D03*
X106325000Y-140389000D03*
%TO.P,J5,2,Pin_2*%
%TO.N,/DC Motors/M2-*%
X107595000Y-138611000D03*
X107595000Y-140389000D03*
D14*
X108230000Y-139500000D03*
D10*
X108865000Y-138611000D03*
X108865000Y-140389000D03*
%TD*%
%TO.P,J8,1,Pin_1*%
%TO.N,/MCU and RX/SERVO2*%
X117501000Y-140135000D03*
X119279000Y-140135000D03*
D12*
X118390000Y-139500000D03*
D10*
X117501000Y-138865000D03*
X119279000Y-138865000D03*
%TO.P,J8,2,Pin_2*%
%TO.N,+BATT*%
X117501000Y-137595000D03*
X119279000Y-137595000D03*
D12*
X118390000Y-136960000D03*
D10*
X117501000Y-136325000D03*
X119279000Y-136325000D03*
%TO.P,J8,3,Pin_3*%
%TO.N,GND*%
X117501000Y-135055000D03*
X119279000Y-135055000D03*
D12*
X118390000Y-134420000D03*
D10*
X117501000Y-133785000D03*
X119279000Y-133785000D03*
%TD*%
%TO.P,J6,1,Pin_1*%
%TO.N,/DC Motors/M3+*%
X110135000Y-138611000D03*
X110135000Y-140389000D03*
D14*
X110770000Y-139500000D03*
D10*
X111405000Y-138611000D03*
X111405000Y-140389000D03*
%TO.P,J6,2,Pin_2*%
%TO.N,/DC Motors/M3-*%
X112675000Y-138611000D03*
X112675000Y-140389000D03*
D14*
X113310000Y-139500000D03*
D10*
X113945000Y-138611000D03*
X113945000Y-140389000D03*
%TD*%
D15*
%TO.P,U7,1,GND*%
%TO.N,GND*%
X108203000Y-111337000D03*
%TO.P,U7,2,VCC*%
%TO.N,+3V3*%
X108203000Y-113877000D03*
%TO.P,U7,3,CH1_(PPM)*%
%TO.N,/MCU and RX/CH1_PPM*%
X108203000Y-116417000D03*
%TO.P,U7,4*%
%TO.N,GND*%
X105663000Y-111337000D03*
%TO.P,U7,5*%
%TO.N,+3V3*%
X105663000Y-113877000D03*
%TO.P,U7,6,CH2*%
%TO.N,/MCU and RX/CH2*%
X105663000Y-116417000D03*
%TO.P,U7,7*%
%TO.N,GND*%
X103123000Y-111337000D03*
%TO.P,U7,8*%
%TO.N,+3V3*%
X103123000Y-113877000D03*
%TO.P,U7,9,CH3*%
%TO.N,/MCU and RX/CH3*%
X103123000Y-116417000D03*
%TO.P,U7,10*%
%TO.N,GND*%
X100583000Y-111337000D03*
%TO.P,U7,11*%
%TO.N,+3V3*%
X100583000Y-113877000D03*
%TO.P,U7,12,CH4*%
%TO.N,/MCU and RX/CH4*%
X100583000Y-116417000D03*
%TD*%
D10*
%TO.P,J4,1,Pin_1*%
%TO.N,/DC Motors/M1+*%
X99975000Y-138611000D03*
X99975000Y-140389000D03*
D14*
X100610000Y-139500000D03*
D10*
X101245000Y-138611000D03*
X101245000Y-140389000D03*
%TO.P,J4,2,Pin_2*%
%TO.N,/DC Motors/M1-*%
X102515000Y-138611000D03*
X102515000Y-140389000D03*
D14*
X103150000Y-139500000D03*
D10*
X103785000Y-138611000D03*
X103785000Y-140389000D03*
%TD*%
%TO.P,J9,1,Pin_1*%
%TO.N,+3V3*%
X100981200Y-120940896D03*
X99570000Y-120948096D03*
D16*
X100270000Y-121398096D03*
D10*
X100981200Y-121855296D03*
X99558800Y-121855296D03*
%TO.P,J9,2,Pin_2*%
%TO.N,Net-(J9-Pin_2)*%
X99570000Y-122933696D03*
X100970000Y-122948096D03*
D16*
X100270000Y-123398096D03*
D10*
X100970000Y-123848096D03*
X99570000Y-123848096D03*
%TO.P,J9,3,Pin_3*%
%TO.N,GND*%
X99570000Y-124933696D03*
X100970000Y-124948096D03*
D16*
X100270000Y-125398096D03*
D10*
X100970000Y-125848096D03*
X99570000Y-125848096D03*
%TD*%
%TO.P,J1,1,Pin_1*%
%TO.N,/Power/+SW*%
X119279000Y-127705000D03*
X117501000Y-127705000D03*
D17*
X118390000Y-128340000D03*
D10*
X119279000Y-128975000D03*
X117501000Y-128975000D03*
%TO.P,J1,2,Pin_2*%
%TO.N,+BATT*%
X119279000Y-130245000D03*
X117501000Y-130245000D03*
D17*
X118390000Y-130880000D03*
D10*
X119279000Y-131515000D03*
X117501000Y-131515000D03*
%TD*%
%TO.P,J2,1,Pin_1*%
%TO.N,GND*%
X119279000Y-122625000D03*
X117501000Y-122625000D03*
D17*
X118390000Y-123260000D03*
D10*
X119279000Y-123895000D03*
X117501000Y-123895000D03*
%TO.P,J2,2,Pin_2*%
%TO.N,/Power/+SW*%
X119279000Y-125165000D03*
X117501000Y-125165000D03*
D17*
X118390000Y-125800000D03*
D10*
X119279000Y-126435000D03*
X117501000Y-126435000D03*
%TD*%
D18*
%TO.P,R5,1*%
%TO.N,/Sensors/VBAT_DIV*%
X105490000Y-129410000D03*
%TO.P,R5,2*%
%TO.N,/MCU and RX/VBAT*%
X105490000Y-128390000D03*
%TD*%
D19*
%TO.P,R4,1*%
%TO.N,/Sensors/VBAT_DIV*%
X105500000Y-130600000D03*
%TO.P,R4,2*%
%TO.N,GND*%
X104480000Y-130600000D03*
%TD*%
D20*
%TO.P,R3,1*%
%TO.N,+BATT*%
X104480000Y-131700000D03*
%TO.P,R3,2*%
%TO.N,/Sensors/VBAT_DIV*%
X105500000Y-131700000D03*
%TD*%
D21*
%TO.P,U8,1,SCL*%
%TO.N,/MCU and RX/I2C1_SCL*%
X106653000Y-123637500D03*
%TO.P,U8,2,GND*%
%TO.N,GND*%
X105703000Y-123637500D03*
%TO.P,U8,3,SDA*%
%TO.N,/MCU and RX/I2C1_SDA*%
X104753000Y-123637500D03*
%TO.P,U8,4,VCC*%
%TO.N,+3V3*%
X104753000Y-121362500D03*
%TO.P,U8,5,WP*%
%TO.N,GND*%
X106653000Y-121362500D03*
%TD*%
D19*
%TO.P,R1,1*%
%TO.N,Net-(J3-CC2)*%
X113030000Y-116750000D03*
%TO.P,R1,2*%
%TO.N,GND*%
X112010000Y-116750000D03*
%TD*%
D22*
%TO.P,C10,1*%
%TO.N,+3V3*%
X109970000Y-127700000D03*
%TO.P,C10,2*%
%TO.N,GND*%
X109010000Y-127700000D03*
%TD*%
D23*
%TO.P,U1,1,GND*%
%TO.N,GND*%
X111740000Y-131562500D03*
D24*
%TO.P,U1,2,IN*%
%TO.N,+BATT*%
X111827500Y-130062500D03*
D23*
%TO.P,U1,3,OUT*%
%TO.N,+3V3*%
X111740000Y-128562500D03*
%TD*%
D25*
%TO.P,U5,1,SDO/SA0*%
%TO.N,GND*%
X110652500Y-124750000D03*
%TO.P,U5,2,SDX*%
X110652500Y-125250000D03*
%TO.P,U5,3,SCX*%
X110652500Y-125750000D03*
%TO.P,U5,4,INT1*%
%TO.N,unconnected-(U5-INT1-Pad4)*%
X110652500Y-126250000D03*
D26*
%TO.P,U5,5,VDDIO*%
%TO.N,+3V3*%
X109990000Y-126412500D03*
%TO.P,U5,6,GND*%
%TO.N,GND*%
X109490000Y-126412500D03*
%TO.P,U5,7,GND*%
X108990000Y-126412500D03*
D25*
%TO.P,U5,8,VDD*%
%TO.N,+3V3*%
X108327500Y-126250000D03*
%TO.P,U5,9,INT2*%
%TO.N,unconnected-(U5-INT2-Pad9)*%
X108327500Y-125750000D03*
%TO.P,U5,10,NC*%
%TO.N,unconnected-(U5-NC-Pad10)*%
X108327500Y-125250000D03*
%TO.P,U5,11,NC*%
%TO.N,unconnected-(U5-NC-Pad11)*%
X108327500Y-124750000D03*
D26*
%TO.P,U5,12,CS*%
%TO.N,+3V3*%
X108990000Y-124587500D03*
%TO.P,U5,13,SCL*%
%TO.N,/MCU and RX/I2C1_SCL*%
X109490000Y-124587500D03*
%TO.P,U5,14,SDA*%
%TO.N,/MCU and RX/I2C1_SDA*%
X109990000Y-124587500D03*
%TD*%
D27*
%TO.P,C19,1*%
%TO.N,+3V3*%
X107703000Y-119957000D03*
%TO.P,C19,2*%
%TO.N,GND*%
X107703000Y-120917000D03*
%TD*%
%TO.P,C3,1*%
%TO.N,+BATT*%
X112670000Y-133070000D03*
%TO.P,C3,2*%
%TO.N,GND*%
X112670000Y-134030000D03*
%TD*%
D20*
%TO.P,R2,1*%
%TO.N,Net-(J3-CC1)*%
X117010000Y-116750000D03*
%TO.P,R2,2*%
%TO.N,GND*%
X118030000Y-116750000D03*
%TD*%
D27*
%TO.P,C2,1*%
%TO.N,+BATT*%
X113620000Y-133070000D03*
%TO.P,C2,2*%
%TO.N,GND*%
X113620000Y-134030000D03*
%TD*%
D28*
%TO.P,J12,1,Pin_1*%
%TO.N,/MCU and RX/UART2_TX*%
X117029404Y-110926904D03*
%TO.P,J12,2,Pin_2*%
%TO.N,/MCU and RX/UART2_RX*%
X115779404Y-110926904D03*
%TO.P,J12,3,Pin_3*%
%TO.N,+3V3*%
X114529404Y-110926904D03*
%TO.P,J12,4,Pin_4*%
%TO.N,GND*%
X113279404Y-110926904D03*
%TD*%
D29*
%TO.P,C4,1*%
%TO.N,+3V3*%
X111690000Y-126900000D03*
%TO.P,C4,2*%
%TO.N,GND*%
X112650000Y-126900000D03*
%TD*%
D30*
%TO.P,C8,1*%
%TO.N,GND*%
X104490000Y-129380000D03*
%TO.P,C8,2*%
%TO.N,/MCU and RX/VBAT*%
X104490000Y-128420000D03*
%TD*%
D27*
%TO.P,C1,1*%
%TO.N,+BATT*%
X114570000Y-133070000D03*
%TO.P,C1,2*%
%TO.N,GND*%
X114570000Y-134030000D03*
%TD*%
D30*
%TO.P,C9,1*%
%TO.N,+3V3*%
X107090000Y-126380000D03*
%TO.P,C9,2*%
%TO.N,GND*%
X107090000Y-125420000D03*
%TD*%
D31*
%TO.N,GND*%
X103708000Y-120137000D03*
%TO.N,+BATT*%
X107170000Y-135500000D03*
X111770000Y-135500000D03*
X103570000Y-130900000D03*
X103770000Y-135500000D03*
X107770000Y-135500000D03*
X111170000Y-135500000D03*
D32*
X118890000Y-119820000D03*
D31*
%TO.N,GND*%
X108370000Y-127700000D03*
X107270000Y-122500000D03*
X103400000Y-125200000D03*
X112475000Y-126013636D03*
X114770000Y-122450000D03*
X113020000Y-121250000D03*
D32*
X107190000Y-133100000D03*
D31*
X111135000Y-131015000D03*
D32*
X114570000Y-135450000D03*
X110270000Y-134700000D03*
X110970000Y-133100000D03*
D31*
X103770000Y-130130000D03*
%TO.N,+3V3*%
X108440000Y-133100000D03*
X107090000Y-127020000D03*
X116970000Y-120900000D03*
X111690000Y-126220000D03*
X105603000Y-121337000D03*
X113845000Y-112175000D03*
X113814641Y-120919880D03*
X104440000Y-133100000D03*
X110570000Y-127700000D03*
X111720000Y-133100000D03*
%TO.N,/MCU and RX/VBAT*%
X106530000Y-128390000D03*
%TO.N,Net-(J3-CC2)*%
X113270000Y-117600000D03*
%TO.N,Net-(J3-CC1)*%
X116770000Y-118200000D03*
%TO.N,/MCU and RX/SERVO1*%
X108370000Y-128500000D03*
%TO.N,/MCU and RX/SERVO2*%
X110170000Y-130900000D03*
%TO.N,/MCU and RX/UART2_RX*%
X111370000Y-123100000D03*
%TO.N,/MCU and RX/UART2_TX*%
X112170000Y-122500000D03*
%TO.N,/MCU and RX/BOOT0*%
X110570000Y-123700000D03*
X111753527Y-119206305D03*
%TO.N,/MCU and RX/I2C1_SDA*%
X107770000Y-123100000D03*
X107370000Y-124700000D03*
%TO.N,/MCU and RX/I2C1_SCL*%
X108370000Y-123700000D03*
%TO.N,/MCU and RX/CH4*%
X111020000Y-118750000D03*
%TO.N,/MCU and RX/CH2*%
X109520000Y-117750000D03*
%TO.N,/MCU and RX/CH3*%
X110270000Y-118250000D03*
%TD*%
D33*
%TO.N,GND*%
X107703000Y-120917000D02*
X107703000Y-122067000D01*
X107703000Y-122067000D02*
X107270000Y-122500000D01*
X106678500Y-121337000D02*
X106653000Y-121362500D01*
D34*
%TO.N,+3V3*%
X107703000Y-119957000D02*
X106183000Y-119957000D01*
X106183000Y-119957000D02*
X105603000Y-120537000D01*
X105603000Y-120537000D02*
X105603000Y-121337000D01*
X104753000Y-121362500D02*
X105577500Y-121362500D01*
X105577500Y-121362500D02*
X105603000Y-121337000D01*
%TO.N,GND*%
X105770000Y-122750000D02*
X105770000Y-123570500D01*
X106020000Y-122500000D02*
X105770000Y-122750000D01*
%TO.N,/MCU and RX/I2C1_SCL*%
X106720000Y-123637500D02*
X106653000Y-123637500D01*
%TO.N,GND*%
X106470000Y-122500000D02*
X106020000Y-122500000D01*
%TO.N,/MCU and RX/I2C1_SCL*%
X106782500Y-123700000D02*
X106720000Y-123637500D01*
X108370000Y-123700000D02*
X106782500Y-123700000D01*
%TO.N,/MCU and RX/I2C1_SDA*%
X104820000Y-124524999D02*
X104995001Y-124700000D01*
X104995001Y-124700000D02*
X107370000Y-124700000D01*
X104753000Y-123637500D02*
X104820000Y-123704500D01*
%TO.N,GND*%
X106720000Y-121429500D02*
X106720000Y-122300000D01*
X105770000Y-123570500D02*
X105703000Y-123637500D01*
%TO.N,/MCU and RX/I2C1_SDA*%
X104820000Y-123704500D02*
X104820000Y-124524999D01*
%TO.N,GND*%
X106653000Y-121362500D02*
X106720000Y-121429500D01*
D33*
%TO.N,+BATT*%
X103870000Y-131700000D02*
X103570000Y-131400000D01*
X103570000Y-131400000D02*
X103570000Y-130900000D01*
X104480000Y-131700000D02*
X103870000Y-131700000D01*
%TO.N,GND*%
X111250000Y-116750000D02*
X110680000Y-116180000D01*
D34*
X109490000Y-126412500D02*
X108990000Y-126412500D01*
D33*
X113620000Y-134030000D02*
X112670000Y-134030000D01*
D34*
X106720000Y-122300000D02*
X106720000Y-122450000D01*
X110652500Y-125750000D02*
X110652500Y-125250000D01*
X107270000Y-122500000D02*
X106920000Y-122500000D01*
D33*
X112475000Y-126013636D02*
X112650000Y-126188636D01*
X104490000Y-129380000D02*
X104490000Y-129650000D01*
X104490000Y-129650000D02*
X104490000Y-130590000D01*
D34*
X106770000Y-122500000D02*
X106470000Y-122500000D01*
X106520000Y-122500000D02*
X106720000Y-122300000D01*
D33*
X104490000Y-130130000D02*
X104490000Y-129380000D01*
X111753096Y-110926904D02*
X110680000Y-112000000D01*
X103770000Y-130130000D02*
X104490000Y-130130000D01*
D34*
X108990000Y-126412500D02*
X108990000Y-127680000D01*
D33*
X104490000Y-130590000D02*
X104480000Y-130600000D01*
X111135000Y-131015000D02*
X111135000Y-131465000D01*
D34*
X103400000Y-125200000D02*
X103400000Y-125358307D01*
X106720000Y-122300000D02*
X106920000Y-122500000D01*
X106920000Y-122500000D02*
X106770000Y-122500000D01*
D33*
X111232500Y-131562500D02*
X111740000Y-131562500D01*
X113279404Y-110926904D02*
X111753096Y-110926904D01*
X111135000Y-131465000D02*
X111232500Y-131562500D01*
X118000000Y-134030000D02*
X118390000Y-134420000D01*
X114570000Y-134030000D02*
X118000000Y-134030000D01*
D34*
X103461693Y-125420000D02*
X107090000Y-125420000D01*
X110652500Y-124750000D02*
X110652500Y-125250000D01*
X108990000Y-127680000D02*
X109010000Y-127700000D01*
X106720000Y-122450000D02*
X106770000Y-122500000D01*
D33*
X111711364Y-125250000D02*
X110652500Y-125250000D01*
D34*
X109010000Y-127700000D02*
X108370000Y-127700000D01*
D33*
X114570000Y-134030000D02*
X113620000Y-134030000D01*
X103770000Y-130130000D02*
X104010000Y-130130000D01*
X112475000Y-126013636D02*
X111711364Y-125250000D01*
X118030000Y-116750000D02*
X118750000Y-116750000D01*
D34*
X103400000Y-125358307D02*
X103461693Y-125420000D01*
X106470000Y-122500000D02*
X106520000Y-122500000D01*
D33*
X112010000Y-116750000D02*
X111250000Y-116750000D01*
X112650000Y-126188636D02*
X112650000Y-126900000D01*
X118750000Y-116750000D02*
X119320000Y-116180000D01*
X104010000Y-130130000D02*
X104480000Y-130600000D01*
X104010000Y-130130000D02*
X104490000Y-129650000D01*
D34*
%TO.N,+3V3*%
X109990000Y-126412500D02*
X109990000Y-127680000D01*
X107220000Y-126250000D02*
X108327500Y-126250000D01*
X111690000Y-126220000D02*
X111690000Y-126900000D01*
X113834521Y-120900000D02*
X113814641Y-120919880D01*
X113814641Y-120919880D02*
X113814521Y-120920000D01*
X114529404Y-111940596D02*
X114529404Y-110926904D01*
X111740000Y-126950000D02*
X111690000Y-126900000D01*
X114295000Y-112175000D02*
X114529404Y-111940596D01*
X109990000Y-127680000D02*
X109970000Y-127700000D01*
X108990000Y-125020000D02*
X109990000Y-126020000D01*
X107090000Y-127020000D02*
X107090000Y-126380000D01*
X109970000Y-127700000D02*
X110570000Y-127700000D01*
X108990000Y-124587500D02*
X108990000Y-125020000D01*
X109990000Y-126020000D02*
X109990000Y-126412500D01*
X113845000Y-112175000D02*
X114295000Y-112175000D01*
X107090000Y-126380000D02*
X107220000Y-126250000D01*
X111740000Y-128562500D02*
X111740000Y-126950000D01*
%TO.N,/MCU and RX/VBAT*%
X105490000Y-128390000D02*
X104520000Y-128390000D01*
X104520000Y-128390000D02*
X104490000Y-128420000D01*
X106530000Y-128390000D02*
X105490000Y-128390000D01*
%TO.N,Net-(J3-CC2)*%
X113030000Y-116750000D02*
X113030000Y-117360000D01*
X113030000Y-117360000D02*
X113270000Y-117600000D01*
%TO.N,Net-(J3-CC1)*%
X117010000Y-116750000D02*
X117010000Y-117960000D01*
X117010000Y-117960000D02*
X116770000Y-118200000D01*
%TO.N,/MCU and RX/SERVO1*%
X108370000Y-128500000D02*
X108370000Y-130650000D01*
X104600000Y-134420000D02*
X100610000Y-134420000D01*
X108370000Y-130650000D02*
X104600000Y-134420000D01*
%TO.N,/MCU and RX/SERVO2*%
X110170000Y-133450000D02*
X110170000Y-130900000D01*
X115170000Y-138800000D02*
X115170000Y-137250000D01*
X115170000Y-137250000D02*
X112670000Y-134750000D01*
X112670000Y-134750000D02*
X111470000Y-134750000D01*
X115870000Y-139500000D02*
X115170000Y-138800000D01*
X111470000Y-134750000D02*
X110170000Y-133450000D01*
X118390000Y-139500000D02*
X115870000Y-139500000D01*
%TO.N,/MCU and RX/UART2_RX*%
X115779404Y-112640596D02*
X115779404Y-110926904D01*
X111370000Y-120900000D02*
X114770000Y-117500000D01*
X111370000Y-123100000D02*
X111370000Y-120900000D01*
X114770000Y-117500000D02*
X114770000Y-113650000D01*
X114770000Y-113650000D02*
X115779404Y-112640596D01*
%TO.N,/MCU and RX/UART2_TX*%
X115770000Y-117375000D02*
X115770000Y-113800000D01*
X112170000Y-122500000D02*
X112170000Y-120975000D01*
X112170000Y-120975000D02*
X115770000Y-117375000D01*
X115770000Y-113800000D02*
X117029404Y-112540596D01*
X117029404Y-112540596D02*
X117029404Y-110926904D01*
%TO.N,/Sensors/VBAT_DIV*%
X105490000Y-130590000D02*
X105500000Y-130600000D01*
X105500000Y-131700000D02*
X105500000Y-130600000D01*
X105490000Y-129410000D02*
X105490000Y-130590000D01*
%TO.N,/MCU and RX/BOOT0*%
X110570000Y-123700000D02*
X110570000Y-120389832D01*
X110570000Y-120389832D02*
X111753527Y-119206305D01*
%TO.N,/MCU and RX/I2C1_SDA*%
X109990000Y-123570000D02*
X109520000Y-123100000D01*
X109990000Y-124587500D02*
X109990000Y-123570000D01*
X109520000Y-123100000D02*
X107770000Y-123100000D01*
%TO.N,/MCU and RX/I2C1_SCL*%
X109490000Y-124020000D02*
X109490000Y-124587500D01*
X108370000Y-123700000D02*
X109170000Y-123700000D01*
X109170000Y-123700000D02*
X109490000Y-124020000D01*
%TO.N,/MCU and RX/CH4*%
X104525000Y-118755000D02*
X111015000Y-118755000D01*
X103520000Y-117750000D02*
X104525000Y-118755000D01*
X101916000Y-117750000D02*
X103520000Y-117750000D01*
X100583000Y-116417000D02*
X101916000Y-117750000D01*
X111015000Y-118755000D02*
X111020000Y-118750000D01*
%TO.N,/MCU and RX/CH2*%
X109520000Y-117750000D02*
X106996000Y-117750000D01*
X106996000Y-117750000D02*
X105663000Y-116417000D01*
%TO.N,/MCU and RX/CH3*%
X110265000Y-118255000D02*
X104961000Y-118255000D01*
X104961000Y-118255000D02*
X103123000Y-116417000D01*
X110270000Y-118250000D02*
X110265000Y-118255000D01*
%TD*%
%TA.AperFunction,Conductor*%
%TO.N,/Power/+SW*%
G36*
X119296643Y-124819685D02*
G01*
X119316103Y-124835153D01*
X119622506Y-125133492D01*
X119656804Y-125194361D01*
X119660000Y-125222332D01*
X119660000Y-128926664D01*
X119640315Y-128993703D01*
X119621280Y-129016682D01*
X119315870Y-129306018D01*
X119253665Y-129337834D01*
X119230590Y-129340000D01*
X117549410Y-129340000D01*
X117482371Y-129320315D01*
X117464130Y-129306018D01*
X117158720Y-129016682D01*
X117123590Y-128956286D01*
X117120000Y-128926664D01*
X117120000Y-125285206D01*
X117139685Y-125218167D01*
X117149095Y-125205400D01*
X117178864Y-125170000D01*
X117452837Y-124844194D01*
X117511050Y-124805553D01*
X117547742Y-124800000D01*
X119229604Y-124800000D01*
X119296643Y-124819685D01*
G37*
%TD.AperFunction*%
%TD*%
%TA.AperFunction,Conductor*%
%TO.N,+BATT*%
G36*
X119312802Y-118255123D02*
G01*
X119418822Y-118268032D01*
X119450366Y-118276187D01*
X119541697Y-118313169D01*
X119570028Y-118329259D01*
X119625298Y-118371128D01*
X119648569Y-118388757D01*
X119671734Y-118411677D01*
X119732062Y-118489582D01*
X119748456Y-118517747D01*
X119786402Y-118608675D01*
X119794892Y-118640136D01*
X119808925Y-118745997D01*
X119810000Y-118762292D01*
X119810000Y-121191874D01*
X119808939Y-121208060D01*
X119795093Y-121313224D01*
X119786715Y-121344491D01*
X119749259Y-121434918D01*
X119733074Y-121462951D01*
X119673491Y-121540601D01*
X119650601Y-121563491D01*
X119572951Y-121623074D01*
X119544918Y-121639259D01*
X119454491Y-121676715D01*
X119423224Y-121685093D01*
X119329398Y-121697446D01*
X119318058Y-121698939D01*
X119301874Y-121700000D01*
X116370000Y-121700000D01*
X116370000Y-129880000D01*
X119151874Y-129880000D01*
X119168059Y-129881061D01*
X119273223Y-129894906D01*
X119304491Y-129903284D01*
X119394918Y-129940740D01*
X119422952Y-129956925D01*
X119500602Y-130016509D01*
X119523491Y-130039398D01*
X119583074Y-130117048D01*
X119599259Y-130145081D01*
X119636715Y-130235508D01*
X119645093Y-130266775D01*
X119658939Y-130371939D01*
X119660000Y-130388125D01*
X119660000Y-131371874D01*
X119658939Y-131388060D01*
X119645093Y-131493224D01*
X119636715Y-131524491D01*
X119599259Y-131614918D01*
X119583074Y-131642951D01*
X119523491Y-131720601D01*
X119500601Y-131743491D01*
X119422951Y-131803074D01*
X119394918Y-131819259D01*
X119304491Y-131856715D01*
X119273224Y-131865093D01*
X119179398Y-131877446D01*
X119168058Y-131878939D01*
X119151874Y-131880000D01*
X117119999Y-131880000D01*
X116973553Y-132026447D01*
X115602198Y-133397801D01*
X115590003Y-133408496D01*
X115505842Y-133473075D01*
X115477808Y-133489260D01*
X115387383Y-133526715D01*
X115356117Y-133535093D01*
X115262291Y-133547446D01*
X115250951Y-133548939D01*
X115234767Y-133550000D01*
X112728126Y-133550000D01*
X112711941Y-133548939D01*
X112698917Y-133547224D01*
X112606775Y-133535093D01*
X112575508Y-133526715D01*
X112485081Y-133489259D01*
X112457048Y-133473074D01*
X112379398Y-133413491D01*
X112356508Y-133390601D01*
X112296925Y-133312951D01*
X112280740Y-133284918D01*
X112243284Y-133194491D01*
X112234906Y-133163223D01*
X112221061Y-133058059D01*
X112220000Y-133041874D01*
X112220000Y-132391326D01*
X112224225Y-132359234D01*
X112234846Y-132319594D01*
X112266938Y-132264007D01*
X112284007Y-132246938D01*
X112339593Y-132214846D01*
X112355002Y-132210717D01*
X112379234Y-132204225D01*
X112411326Y-132200000D01*
X112570000Y-132200000D01*
X112570000Y-129001364D01*
X112570000Y-129001168D01*
X112570002Y-129000000D01*
X112570028Y-129000000D01*
X112570002Y-128999755D01*
X112570006Y-128998734D01*
X112577676Y-127483869D01*
X112597699Y-127416932D01*
X112650734Y-127371445D01*
X112701672Y-127360499D01*
X112833372Y-127360499D01*
X112857662Y-127357682D01*
X112957016Y-127313813D01*
X113033813Y-127237016D01*
X113077682Y-127137662D01*
X113080500Y-127113373D01*
X113080499Y-126686628D01*
X113077682Y-126662338D01*
X113061065Y-126624703D01*
X113050500Y-126574618D01*
X113050500Y-126248855D01*
X113052808Y-126229685D01*
X113053643Y-126220425D01*
X113053727Y-126219027D01*
X113050500Y-126199807D01*
X113050500Y-126135909D01*
X113023207Y-126034049D01*
X112970480Y-125942723D01*
X112895913Y-125868156D01*
X112806406Y-125778649D01*
X112798680Y-125765267D01*
X112723369Y-125689956D01*
X112709986Y-125682229D01*
X112623997Y-125596240D01*
X112590512Y-125534917D01*
X112587681Y-125507943D01*
X112603435Y-122396747D01*
X114365500Y-122396747D01*
X114365500Y-122503253D01*
X114393066Y-122606131D01*
X114446320Y-122698369D01*
X114521631Y-122773680D01*
X114613869Y-122826934D01*
X114716747Y-122854500D01*
X114716749Y-122854500D01*
X114823251Y-122854500D01*
X114823253Y-122854500D01*
X114926131Y-122826934D01*
X115018369Y-122773680D01*
X115093680Y-122698369D01*
X115146934Y-122606131D01*
X115174500Y-122503253D01*
X115174500Y-122396747D01*
X115146934Y-122293869D01*
X115093680Y-122201631D01*
X115018369Y-122126320D01*
X114926131Y-122073066D01*
X114823253Y-122045500D01*
X114716747Y-122045500D01*
X114613868Y-122073066D01*
X114521631Y-122126320D01*
X114521628Y-122126322D01*
X114446322Y-122201628D01*
X114446320Y-122201631D01*
X114393066Y-122293868D01*
X114378798Y-122347118D01*
X114365500Y-122396747D01*
X112603435Y-122396747D01*
X112606221Y-121846447D01*
X112606998Y-121692771D01*
X112627021Y-121625836D01*
X112680055Y-121580349D01*
X112749263Y-121570755D01*
X112792993Y-121586013D01*
X112863869Y-121626934D01*
X112966747Y-121654500D01*
X112966749Y-121654500D01*
X113073251Y-121654500D01*
X113073253Y-121654500D01*
X113176131Y-121626934D01*
X113268369Y-121573680D01*
X113343680Y-121498369D01*
X113396934Y-121406131D01*
X113415520Y-121336763D01*
X113451885Y-121277104D01*
X113514732Y-121246575D01*
X113584107Y-121254870D01*
X113597296Y-121261472D01*
X113658504Y-121296811D01*
X113658505Y-121296811D01*
X113658510Y-121296814D01*
X113761388Y-121324380D01*
X113761390Y-121324380D01*
X113867892Y-121324380D01*
X113867894Y-121324380D01*
X113970772Y-121296814D01*
X114063010Y-121243560D01*
X114138321Y-121168249D01*
X114191575Y-121076011D01*
X114219141Y-120973133D01*
X114219141Y-120866627D01*
X114213814Y-120846747D01*
X116565500Y-120846747D01*
X116565500Y-120953253D01*
X116593066Y-121056131D01*
X116646320Y-121148369D01*
X116721631Y-121223680D01*
X116813869Y-121276934D01*
X116916747Y-121304500D01*
X116916749Y-121304500D01*
X117023251Y-121304500D01*
X117023253Y-121304500D01*
X117126131Y-121276934D01*
X117218369Y-121223680D01*
X117293680Y-121148369D01*
X117346934Y-121056131D01*
X117374500Y-120953253D01*
X117374500Y-120846747D01*
X117346934Y-120743869D01*
X117293680Y-120651631D01*
X117218369Y-120576320D01*
X117126131Y-120523066D01*
X117023253Y-120495500D01*
X116916747Y-120495500D01*
X116813868Y-120523066D01*
X116721631Y-120576320D01*
X116721628Y-120576322D01*
X116646322Y-120651628D01*
X116646320Y-120651631D01*
X116593066Y-120743868D01*
X116588037Y-120762636D01*
X116565500Y-120846747D01*
X114213814Y-120846747D01*
X114191575Y-120763749D01*
X114190932Y-120762636D01*
X114180097Y-120743868D01*
X114138321Y-120671511D01*
X114063010Y-120596200D01*
X113970772Y-120542946D01*
X113867894Y-120515380D01*
X113761388Y-120515380D01*
X113658509Y-120542946D01*
X113566272Y-120596200D01*
X113566269Y-120596202D01*
X113490963Y-120671508D01*
X113490961Y-120671511D01*
X113437706Y-120763749D01*
X113437706Y-120763750D01*
X113419119Y-120833116D01*
X113410018Y-120848046D01*
X113405588Y-120864962D01*
X113392211Y-120877260D01*
X113382754Y-120892776D01*
X113367025Y-120900415D01*
X113354153Y-120912251D01*
X113336249Y-120915365D01*
X113319906Y-120923304D01*
X113302374Y-120921257D01*
X113285317Y-120924225D01*
X113262038Y-120916549D01*
X113251175Y-120915282D01*
X113244043Y-120912275D01*
X113176131Y-120873066D01*
X113107272Y-120854615D01*
X113099420Y-120851305D01*
X113078688Y-120834382D01*
X113055835Y-120820453D01*
X113052033Y-120812626D01*
X113045292Y-120807124D01*
X113036999Y-120781677D01*
X113025307Y-120757606D01*
X113026340Y-120748966D01*
X113023644Y-120740693D01*
X113030424Y-120714804D01*
X113033602Y-120688231D01*
X113039775Y-120679101D01*
X113041347Y-120673103D01*
X113047916Y-120667062D01*
X113059835Y-120649437D01*
X115260032Y-118445682D01*
X115272038Y-118435117D01*
X115355015Y-118371124D01*
X115382624Y-118355034D01*
X115471731Y-118317528D01*
X115502534Y-118309030D01*
X115606292Y-118294421D01*
X115622239Y-118293218D01*
X116279942Y-118286238D01*
X116347186Y-118305210D01*
X116387036Y-118350226D01*
X116389002Y-118349092D01*
X116393065Y-118356130D01*
X116393066Y-118356131D01*
X116446320Y-118448369D01*
X116521631Y-118523680D01*
X116613869Y-118576934D01*
X116716747Y-118604500D01*
X116716749Y-118604500D01*
X116823251Y-118604500D01*
X116823253Y-118604500D01*
X116926131Y-118576934D01*
X117018369Y-118523680D01*
X117093680Y-118448369D01*
X117146934Y-118356131D01*
X117146936Y-118356121D01*
X117148493Y-118352365D01*
X117150663Y-118349670D01*
X117150998Y-118349092D01*
X117151088Y-118349144D01*
X117192331Y-118297959D01*
X117258624Y-118275890D01*
X117261705Y-118275818D01*
X119296523Y-118254222D01*
X119312802Y-118255123D01*
G37*
%TD.AperFunction*%
%TD*%
%TA.AperFunction,Conductor*%
%TO.N,GND*%
G36*
X107710296Y-120921825D02*
G01*
X107946748Y-121110584D01*
X107967983Y-121127536D01*
X107972311Y-121135376D01*
X107969828Y-121143979D01*
X107965457Y-121147362D01*
X107950735Y-121153940D01*
X107950732Y-121153942D01*
X107929249Y-121180083D01*
X107912133Y-121258960D01*
X107912133Y-121258964D01*
X107918647Y-121358990D01*
X107918650Y-121359016D01*
X107935767Y-121462907D01*
X107935815Y-121463225D01*
X107951185Y-121575716D01*
X107948910Y-121584377D01*
X107941177Y-121588892D01*
X107939593Y-121589000D01*
X107466407Y-121589000D01*
X107458134Y-121585573D01*
X107454707Y-121577300D01*
X107454815Y-121575716D01*
X107454860Y-121575382D01*
X107470206Y-121463069D01*
X107490588Y-121331965D01*
X107490956Y-121226240D01*
X107468880Y-121167739D01*
X107449400Y-121149845D01*
X107441889Y-121146908D01*
X107435433Y-121140704D01*
X107435254Y-121131751D01*
X107438849Y-121126871D01*
X107695702Y-120921825D01*
X107704304Y-120919343D01*
X107710296Y-120921825D01*
G37*
%TD.AperFunction*%
%TD*%
%TA.AperFunction,Conductor*%
%TO.N,+3V3*%
G36*
X107486956Y-119697428D02*
G01*
X107489424Y-119699651D01*
X107697752Y-119949507D01*
X107700418Y-119958056D01*
X107697752Y-119964493D01*
X107491387Y-120211994D01*
X107483457Y-120216153D01*
X107474908Y-120213487D01*
X107472900Y-120211328D01*
X107447797Y-120176369D01*
X107447795Y-120176367D01*
X107408216Y-120145473D01*
X107408215Y-120145472D01*
X107408212Y-120145470D01*
X107328185Y-120108307D01*
X107328182Y-120108306D01*
X107328176Y-120108304D01*
X107234925Y-120082508D01*
X107105920Y-120062688D01*
X107012067Y-120057600D01*
X107003991Y-120053730D01*
X107001000Y-120045917D01*
X107001000Y-119868403D01*
X107004427Y-119860130D01*
X107012399Y-119856707D01*
X107012506Y-119856704D01*
X107044106Y-119855892D01*
X107227169Y-119833124D01*
X107362873Y-119792076D01*
X107442405Y-119742836D01*
X107470724Y-119700624D01*
X107478177Y-119695665D01*
X107486956Y-119697428D01*
G37*
%TD.AperFunction*%
%TD*%
%TA.AperFunction,Conductor*%
%TO.N,+3V3*%
G36*
X105700136Y-120745231D02*
G01*
X105703548Y-120752926D01*
X105708181Y-120846821D01*
X105708181Y-120846825D01*
X105708182Y-120846830D01*
X105722250Y-120925700D01*
X105722250Y-120925701D01*
X105768236Y-121046519D01*
X105797905Y-121114632D01*
X105798417Y-121116052D01*
X105806718Y-121144763D01*
X105844671Y-121276035D01*
X105843676Y-121284935D01*
X105836681Y-121290525D01*
X105835759Y-121290751D01*
X105605328Y-121337527D01*
X105600672Y-121337527D01*
X105370030Y-121290708D01*
X105362604Y-121285704D01*
X105360892Y-121276914D01*
X105361058Y-121276210D01*
X105396461Y-121145490D01*
X105396951Y-121144063D01*
X105437764Y-121046518D01*
X105485517Y-120918595D01*
X105497542Y-120846830D01*
X105498315Y-120842214D01*
X105498315Y-120842212D01*
X105502480Y-120752959D01*
X105506288Y-120744854D01*
X105514167Y-120741804D01*
X105691863Y-120741804D01*
X105700136Y-120745231D01*
G37*
%TD.AperFunction*%
%TD*%
%TA.AperFunction,Conductor*%
%TO.N,+3V3*%
G36*
X105054344Y-121077678D02*
G01*
X105057497Y-121083485D01*
X105062386Y-121106299D01*
X105062388Y-121106304D01*
X105088369Y-121143958D01*
X105088372Y-121143961D01*
X105088373Y-121143963D01*
X105127573Y-121175734D01*
X105205596Y-121213794D01*
X105294548Y-121240065D01*
X105294551Y-121240066D01*
X105393550Y-121257196D01*
X105393560Y-121257196D01*
X105393562Y-121257197D01*
X105405683Y-121258006D01*
X105462081Y-121261771D01*
X105470106Y-121265740D01*
X105473000Y-121273444D01*
X105473000Y-121451605D01*
X105469573Y-121459878D01*
X105462133Y-121463275D01*
X105386317Y-121468688D01*
X105386316Y-121468689D01*
X105386312Y-121468689D01*
X105386309Y-121468690D01*
X105277555Y-121492211D01*
X105231791Y-121502110D01*
X105127393Y-121549383D01*
X105071403Y-121602250D01*
X105058679Y-121643907D01*
X105052984Y-121650818D01*
X105044071Y-121651679D01*
X105039230Y-121648776D01*
X104892075Y-121502110D01*
X104760313Y-121370785D01*
X104756873Y-121362519D01*
X104760285Y-121354241D01*
X105037800Y-121077648D01*
X105046076Y-121074237D01*
X105054344Y-121077678D01*
G37*
%TD.AperFunction*%
%TD*%
%TA.AperFunction,Conductor*%
%TO.N,+3V3*%
G36*
X105550839Y-121096409D02*
G01*
X105556515Y-121103335D01*
X105556782Y-121104395D01*
X105603527Y-121334672D01*
X105603527Y-121339328D01*
X105556653Y-121570241D01*
X105551649Y-121577667D01*
X105542859Y-121579379D01*
X105542383Y-121579272D01*
X105419380Y-121548908D01*
X105418416Y-121548626D01*
X105397932Y-121541659D01*
X105323897Y-121516477D01*
X105311896Y-121512744D01*
X105206675Y-121480020D01*
X105122307Y-121467190D01*
X105122291Y-121467189D01*
X105019025Y-121462959D01*
X105010899Y-121459197D01*
X105007804Y-121451269D01*
X105007804Y-121273517D01*
X105011231Y-121265244D01*
X105018800Y-121261838D01*
X105111259Y-121256277D01*
X105188833Y-121239490D01*
X105305858Y-121185527D01*
X105395318Y-121140061D01*
X105397221Y-121139296D01*
X105541928Y-121095524D01*
X105550839Y-121096409D01*
G37*
%TD.AperFunction*%
%TD*%
%TA.AperFunction,Conductor*%
%TO.N,GND*%
G36*
X105867085Y-122753427D02*
G01*
X105870500Y-122761178D01*
X105873636Y-122831350D01*
X105873637Y-122831363D01*
X105873638Y-122831365D01*
X105877841Y-122852729D01*
X105896612Y-122948135D01*
X105896612Y-122948136D01*
X105936534Y-123025124D01*
X105983923Y-123061688D01*
X105988380Y-123069455D01*
X105987218Y-123076229D01*
X105714564Y-123615622D01*
X105707773Y-123621460D01*
X105698844Y-123620786D01*
X105693293Y-123614774D01*
X105454181Y-123030310D01*
X105454220Y-123021356D01*
X105460580Y-123015051D01*
X105462373Y-123014480D01*
X105495163Y-123006917D01*
X105543623Y-122983964D01*
X105583469Y-122952480D01*
X105621936Y-122904862D01*
X105648556Y-122852725D01*
X105664820Y-122798244D01*
X105668878Y-122760451D01*
X105673168Y-122752591D01*
X105680511Y-122750000D01*
X105858812Y-122750000D01*
X105867085Y-122753427D01*
G37*
%TD.AperFunction*%
%TD*%
%TA.AperFunction,Conductor*%
%TO.N,/MCU and RX/I2C1_SCL*%
G36*
X106953138Y-123378188D02*
G01*
X106956087Y-123384453D01*
X106958344Y-123400523D01*
X106958344Y-123400524D01*
X106973441Y-123434940D01*
X106973446Y-123434949D01*
X107008209Y-123477122D01*
X107008211Y-123477124D01*
X107055446Y-123512635D01*
X107096807Y-123532814D01*
X107135884Y-123551880D01*
X107135886Y-123551880D01*
X107135891Y-123551883D01*
X107222768Y-123579057D01*
X107362915Y-123598594D01*
X107370636Y-123603130D01*
X107373000Y-123610182D01*
X107373000Y-123788779D01*
X107369573Y-123797052D01*
X107361790Y-123800469D01*
X107304642Y-123802863D01*
X107304636Y-123802864D01*
X107225419Y-123814922D01*
X107138482Y-123828155D01*
X107138480Y-123828155D01*
X107138477Y-123828156D01*
X107028314Y-123867533D01*
X106971395Y-123912517D01*
X106959469Y-123946360D01*
X106953487Y-123953024D01*
X106944545Y-123953506D01*
X106939823Y-123950392D01*
X106659947Y-123646139D01*
X106656868Y-123637730D01*
X106660636Y-123629608D01*
X106936610Y-123377442D01*
X106945028Y-123374392D01*
X106953138Y-123378188D01*
G37*
%TD.AperFunction*%
%TD*%
%TA.AperFunction,Conductor*%
%TO.N,/MCU and RX/I2C1_SCL*%
G36*
X108317935Y-123459323D02*
G01*
X108323525Y-123466318D01*
X108323751Y-123467240D01*
X108370527Y-123697672D01*
X108370527Y-123702328D01*
X108323708Y-123932969D01*
X108318704Y-123940395D01*
X108309914Y-123942107D01*
X108309183Y-123941934D01*
X108178505Y-123906542D01*
X108177048Y-123906042D01*
X108079519Y-123865236D01*
X108015557Y-123841359D01*
X107951591Y-123817481D01*
X107875214Y-123804684D01*
X107785959Y-123800520D01*
X107777854Y-123796712D01*
X107774804Y-123788833D01*
X107774804Y-123611137D01*
X107778231Y-123602864D01*
X107785926Y-123599451D01*
X107879821Y-123594819D01*
X107958701Y-123580749D01*
X108079518Y-123534764D01*
X108147635Y-123505093D01*
X108149039Y-123504585D01*
X108309037Y-123458328D01*
X108317935Y-123459323D01*
G37*
%TD.AperFunction*%
%TD*%
%TA.AperFunction,Conductor*%
%TO.N,/MCU and RX/I2C1_SDA*%
G36*
X107317935Y-124459323D02*
G01*
X107323525Y-124466318D01*
X107323751Y-124467240D01*
X107370527Y-124697672D01*
X107370527Y-124702328D01*
X107323708Y-124932969D01*
X107318704Y-124940395D01*
X107309914Y-124942107D01*
X107309183Y-124941934D01*
X107178505Y-124906542D01*
X107177048Y-124906042D01*
X107079519Y-124865236D01*
X107015557Y-124841359D01*
X106951591Y-124817481D01*
X106875214Y-124804684D01*
X106785959Y-124800520D01*
X106777854Y-124796712D01*
X106774804Y-124788833D01*
X106774804Y-124611137D01*
X106778231Y-124602864D01*
X106785926Y-124599451D01*
X106879821Y-124594819D01*
X106958701Y-124580749D01*
X107079518Y-124534764D01*
X107147635Y-124505093D01*
X107149039Y-124504585D01*
X107309037Y-124458328D01*
X107317935Y-124459323D01*
G37*
%TD.AperFunction*%
%TD*%
%TA.AperFunction,Conductor*%
%TO.N,GND*%
G36*
X106664509Y-121384269D02*
G01*
X106936810Y-121922963D01*
X106937484Y-121931892D01*
X106932670Y-121938099D01*
X106909345Y-121953010D01*
X106909344Y-121953010D01*
X106909344Y-121953011D01*
X106883319Y-121983611D01*
X106883318Y-121983612D01*
X106849524Y-122058347D01*
X106830416Y-122145267D01*
X106830415Y-122145270D01*
X106830415Y-122145274D01*
X106820735Y-122289086D01*
X106816760Y-122297110D01*
X106809061Y-122300000D01*
X106631361Y-122300000D01*
X106623088Y-122296573D01*
X106619666Y-122288646D01*
X106619659Y-122288414D01*
X106619565Y-122285216D01*
X106594719Y-122169386D01*
X106543832Y-122072903D01*
X106477517Y-122010327D01*
X106477516Y-122010326D01*
X106477514Y-122010325D01*
X106408422Y-121985237D01*
X106401815Y-121979193D01*
X106401418Y-121970247D01*
X106401602Y-121969771D01*
X106408529Y-121953011D01*
X106643256Y-121385075D01*
X106649581Y-121378741D01*
X106658536Y-121378734D01*
X106664509Y-121384269D01*
G37*
%TD.AperFunction*%
%TD*%
%TA.AperFunction,Conductor*%
%TO.N,/MCU and RX/I2C1_SDA*%
G36*
X104764564Y-123659377D02*
G01*
X105036676Y-124197698D01*
X105037350Y-124206627D01*
X105032261Y-124213004D01*
X105009346Y-124226775D01*
X105009345Y-124226776D01*
X104983320Y-124253992D01*
X104949523Y-124318498D01*
X104930415Y-124392483D01*
X104920848Y-124514216D01*
X104916784Y-124522195D01*
X104909184Y-124524999D01*
X104729737Y-124524999D01*
X104721464Y-124521572D01*
X104718232Y-124515424D01*
X104703450Y-124435385D01*
X104703449Y-124435383D01*
X104703449Y-124435381D01*
X104703447Y-124435377D01*
X104656039Y-124347718D01*
X104656038Y-124347717D01*
X104587478Y-124287317D01*
X104510771Y-124261412D01*
X104504030Y-124255518D01*
X104503430Y-124246583D01*
X104503674Y-124245927D01*
X104743294Y-123660223D01*
X104749598Y-123653865D01*
X104758552Y-123653826D01*
X104764564Y-123659377D01*
G37*
%TD.AperFunction*%
%TD*%
%TA.AperFunction,Conductor*%
%TO.N,GND*%
G36*
X109166932Y-126252078D02*
G01*
X109169987Y-126257497D01*
X109171466Y-126263431D01*
X109171468Y-126263435D01*
X109189166Y-126282713D01*
X109248022Y-126305173D01*
X109248024Y-126305174D01*
X109254546Y-126305527D01*
X109387970Y-126312756D01*
X109398165Y-126312637D01*
X109406476Y-126315967D01*
X109409999Y-126324200D01*
X109410000Y-126324336D01*
X109410000Y-126500663D01*
X109406573Y-126508936D01*
X109398300Y-126512363D01*
X109398164Y-126512362D01*
X109388011Y-126512243D01*
X109388011Y-126512244D01*
X109341484Y-126512023D01*
X109336949Y-126512002D01*
X109336948Y-126512002D01*
X109336945Y-126512002D01*
X109235471Y-126522613D01*
X109182893Y-126547371D01*
X109169736Y-126564971D01*
X109169429Y-126566432D01*
X109164370Y-126573821D01*
X109155568Y-126575469D01*
X109149730Y-126572317D01*
X108997343Y-126420796D01*
X108993894Y-126412533D01*
X108997297Y-126404250D01*
X108997344Y-126404203D01*
X109150386Y-126252030D01*
X109158668Y-126248628D01*
X109166932Y-126252078D01*
G37*
%TD.AperFunction*%
%TD*%
%TA.AperFunction,Conductor*%
%TO.N,GND*%
G36*
X109330268Y-126252681D02*
G01*
X109337658Y-126260029D01*
X109482655Y-126404203D01*
X109486105Y-126412467D01*
X109482702Y-126420750D01*
X109482655Y-126420797D01*
X109329614Y-126572968D01*
X109321331Y-126576371D01*
X109313067Y-126572921D01*
X109310013Y-126567504D01*
X109308532Y-126561566D01*
X109308531Y-126561565D01*
X109308531Y-126561564D01*
X109290833Y-126542286D01*
X109231977Y-126519826D01*
X109231975Y-126519825D01*
X109111593Y-126513303D01*
X109092030Y-126512244D01*
X109092027Y-126512244D01*
X109081835Y-126512362D01*
X109073523Y-126509031D01*
X109070001Y-126500798D01*
X109070000Y-126500663D01*
X109070000Y-126324336D01*
X109073427Y-126316063D01*
X109081700Y-126312636D01*
X109081709Y-126312636D01*
X109087224Y-126312700D01*
X109091988Y-126312756D01*
X109091989Y-126312756D01*
X109100204Y-126312794D01*
X109143051Y-126312998D01*
X109244526Y-126302387D01*
X109297106Y-126277629D01*
X109310263Y-126260029D01*
X109310569Y-126258571D01*
X109315625Y-126251181D01*
X109324426Y-126249529D01*
X109330268Y-126252681D01*
G37*
%TD.AperFunction*%
%TD*%
%TA.AperFunction,Conductor*%
%TO.N,GND*%
G36*
X113456030Y-133760615D02*
G01*
X113457914Y-133762959D01*
X113469233Y-133781492D01*
X113617275Y-134023902D01*
X113618663Y-134032749D01*
X113617275Y-134036098D01*
X113458813Y-134295569D01*
X113451577Y-134300844D01*
X113442730Y-134299456D01*
X113439602Y-134296666D01*
X113424873Y-134277779D01*
X113424873Y-134277778D01*
X113396981Y-134261090D01*
X113388988Y-134256308D01*
X113388985Y-134256307D01*
X113388984Y-134256307D01*
X113293100Y-134239144D01*
X113178659Y-134245574D01*
X113178657Y-134245574D01*
X113178648Y-134245575D01*
X113062146Y-134262641D01*
X113061849Y-134262681D01*
X112931099Y-134278423D01*
X112922475Y-134276010D01*
X112918084Y-134268206D01*
X112918000Y-134266807D01*
X112918000Y-133793192D01*
X112921427Y-133784919D01*
X112929700Y-133781492D01*
X112931083Y-133781575D01*
X113061989Y-133797335D01*
X113206632Y-133817400D01*
X113331478Y-133817960D01*
X113331478Y-133817959D01*
X113331479Y-133817960D01*
X113331479Y-133817959D01*
X113406887Y-133794939D01*
X113439487Y-133760957D01*
X113447687Y-133757361D01*
X113456030Y-133760615D01*
G37*
%TD.AperFunction*%
%TD*%
%TA.AperFunction,Conductor*%
%TO.N,GND*%
G36*
X112847269Y-133760543D02*
G01*
X112850397Y-133763333D01*
X112865126Y-133782220D01*
X112865126Y-133782221D01*
X112881125Y-133791793D01*
X112901012Y-133803692D01*
X112996900Y-133820856D01*
X113111341Y-133814426D01*
X113227865Y-133797356D01*
X113228131Y-133797320D01*
X113358903Y-133781576D01*
X113367525Y-133783989D01*
X113371916Y-133791793D01*
X113372000Y-133793192D01*
X113372000Y-134266807D01*
X113368573Y-134275080D01*
X113360300Y-134278507D01*
X113358902Y-134278423D01*
X113228127Y-134262679D01*
X113227917Y-134262652D01*
X113083372Y-134242600D01*
X112958520Y-134242039D01*
X112958519Y-134242040D01*
X112883112Y-134265061D01*
X112850512Y-134299041D01*
X112842311Y-134302638D01*
X112833969Y-134299384D01*
X112832086Y-134297041D01*
X112672723Y-134036097D01*
X112671336Y-134027251D01*
X112672724Y-134023902D01*
X112831188Y-133764428D01*
X112838422Y-133759155D01*
X112847269Y-133760543D01*
G37*
%TD.AperFunction*%
%TD*%
%TA.AperFunction,Conductor*%
%TO.N,GND*%
G36*
X110660750Y-125257297D02*
G01*
X110660797Y-125257344D01*
X110812968Y-125410385D01*
X110816371Y-125418668D01*
X110812921Y-125426932D01*
X110807502Y-125429987D01*
X110801568Y-125431466D01*
X110801564Y-125431468D01*
X110782286Y-125449166D01*
X110759826Y-125508022D01*
X110759825Y-125508024D01*
X110755008Y-125596945D01*
X110752244Y-125647970D01*
X110752362Y-125658165D01*
X110749033Y-125666476D01*
X110740800Y-125669999D01*
X110740664Y-125670000D01*
X110564337Y-125670000D01*
X110556064Y-125666573D01*
X110552637Y-125658300D01*
X110552638Y-125658164D01*
X110552756Y-125648011D01*
X110552794Y-125639827D01*
X110552998Y-125596949D01*
X110542387Y-125495474D01*
X110517629Y-125442894D01*
X110500364Y-125429987D01*
X110500028Y-125429736D01*
X110498568Y-125429429D01*
X110491179Y-125424371D01*
X110489530Y-125415569D01*
X110492680Y-125409732D01*
X110644203Y-125257343D01*
X110652467Y-125253894D01*
X110660750Y-125257297D01*
G37*
%TD.AperFunction*%
%TD*%
%TA.AperFunction,Conductor*%
%TO.N,GND*%
G36*
X110748936Y-125333427D02*
G01*
X110752363Y-125341700D01*
X110752362Y-125341836D01*
X110752243Y-125351988D01*
X110752244Y-125351989D01*
X110752002Y-125403054D01*
X110762613Y-125504528D01*
X110784417Y-125550833D01*
X110787371Y-125557106D01*
X110804971Y-125570263D01*
X110806428Y-125570569D01*
X110813818Y-125575625D01*
X110815470Y-125584427D01*
X110812317Y-125590269D01*
X110660797Y-125742655D01*
X110652533Y-125746105D01*
X110644250Y-125742702D01*
X110644203Y-125742655D01*
X110492031Y-125589614D01*
X110488628Y-125581331D01*
X110492078Y-125573067D01*
X110497495Y-125570013D01*
X110503434Y-125568532D01*
X110522713Y-125550834D01*
X110545174Y-125491975D01*
X110552756Y-125352030D01*
X110552637Y-125341834D01*
X110555967Y-125333524D01*
X110564200Y-125330001D01*
X110564336Y-125330000D01*
X110740663Y-125330000D01*
X110748936Y-125333427D01*
G37*
%TD.AperFunction*%
%TD*%
%TA.AperFunction,Conductor*%
%TO.N,GND*%
G36*
X107137631Y-122301886D02*
G01*
X107138148Y-122302595D01*
X107266604Y-122493468D01*
X107268380Y-122502244D01*
X107266604Y-122506532D01*
X107138148Y-122697404D01*
X107130685Y-122702355D01*
X107121909Y-122700579D01*
X107121200Y-122700062D01*
X107117826Y-122697404D01*
X107062618Y-122653908D01*
X107016857Y-122618851D01*
X107016855Y-122618850D01*
X106999632Y-122612676D01*
X106977818Y-122604856D01*
X106970150Y-122604212D01*
X106930721Y-122600900D01*
X106922763Y-122596793D01*
X106920000Y-122589241D01*
X106920000Y-122409953D01*
X106923427Y-122401680D01*
X106929823Y-122398404D01*
X107007547Y-122385780D01*
X107062617Y-122346092D01*
X107121202Y-122299936D01*
X107129820Y-122297509D01*
X107137631Y-122301886D01*
G37*
%TD.AperFunction*%
%TD*%
%TA.AperFunction,Conductor*%
%TO.N,GND*%
G36*
X104497296Y-129384825D02*
G01*
X104733748Y-129573584D01*
X104754983Y-129590536D01*
X104759311Y-129598376D01*
X104756828Y-129606979D01*
X104752457Y-129610362D01*
X104737735Y-129616940D01*
X104737732Y-129616942D01*
X104716249Y-129643083D01*
X104699133Y-129721960D01*
X104699133Y-129721964D01*
X104705647Y-129821990D01*
X104705650Y-129822016D01*
X104722767Y-129925907D01*
X104722815Y-129926225D01*
X104738185Y-130038716D01*
X104735910Y-130047377D01*
X104728177Y-130051892D01*
X104726593Y-130052000D01*
X104253407Y-130052000D01*
X104245134Y-130048573D01*
X104241707Y-130040300D01*
X104241815Y-130038716D01*
X104241860Y-130038382D01*
X104257206Y-129926069D01*
X104277588Y-129794965D01*
X104277956Y-129689240D01*
X104255880Y-129630739D01*
X104236400Y-129612845D01*
X104228889Y-129609908D01*
X104222433Y-129603704D01*
X104222254Y-129594751D01*
X104225849Y-129589871D01*
X104482702Y-129384825D01*
X104491304Y-129382343D01*
X104497296Y-129384825D01*
G37*
%TD.AperFunction*%
%TD*%
%TA.AperFunction,Conductor*%
%TO.N,GND*%
G36*
X104497296Y-129384825D02*
G01*
X104733748Y-129573584D01*
X104754983Y-129590536D01*
X104759311Y-129598376D01*
X104756828Y-129606979D01*
X104752457Y-129610362D01*
X104737735Y-129616940D01*
X104737732Y-129616942D01*
X104716249Y-129643083D01*
X104699133Y-129721960D01*
X104699133Y-129721964D01*
X104705647Y-129821990D01*
X104705650Y-129822016D01*
X104722767Y-129925907D01*
X104722815Y-129926225D01*
X104738185Y-130038716D01*
X104735910Y-130047377D01*
X104728177Y-130051892D01*
X104726593Y-130052000D01*
X104253407Y-130052000D01*
X104245134Y-130048573D01*
X104241707Y-130040300D01*
X104241815Y-130038716D01*
X104241860Y-130038382D01*
X104257206Y-129926069D01*
X104277588Y-129794965D01*
X104277956Y-129689240D01*
X104255880Y-129630739D01*
X104236400Y-129612845D01*
X104228889Y-129609908D01*
X104222433Y-129603704D01*
X104222254Y-129594751D01*
X104225849Y-129589871D01*
X104482702Y-129384825D01*
X104491304Y-129382343D01*
X104497296Y-129384825D01*
G37*
%TD.AperFunction*%
%TD*%
%TA.AperFunction,Conductor*%
%TO.N,GND*%
G36*
X111584086Y-110757896D02*
G01*
X111921791Y-111095601D01*
X111925218Y-111103874D01*
X111921984Y-111111950D01*
X111839420Y-111198495D01*
X111839419Y-111198497D01*
X111642853Y-111437319D01*
X111488442Y-111672944D01*
X111383165Y-111889927D01*
X111352377Y-111990942D01*
X111323776Y-112084779D01*
X111315666Y-112159978D01*
X111306672Y-112243371D01*
X111302377Y-112251229D01*
X111293784Y-112253749D01*
X111290576Y-112252931D01*
X110688586Y-112004541D01*
X110682246Y-111998218D01*
X110681685Y-111990942D01*
X110759592Y-111672946D01*
X110960187Y-110854161D01*
X110965484Y-110846942D01*
X110974335Y-110845582D01*
X110980940Y-110849965D01*
X110999845Y-110875393D01*
X110999847Y-110875395D01*
X110999848Y-110875396D01*
X111036864Y-110909541D01*
X111080655Y-110935262D01*
X111126947Y-110949848D01*
X111186488Y-110954404D01*
X111247248Y-110946338D01*
X111331686Y-110918431D01*
X111411742Y-110877182D01*
X111455444Y-110846942D01*
X111506832Y-110811384D01*
X111506834Y-110811381D01*
X111506846Y-110811374D01*
X111568078Y-110757392D01*
X111576548Y-110754492D01*
X111584086Y-110757896D01*
G37*
%TD.AperFunction*%
%TD*%
%TA.AperFunction,Conductor*%
%TO.N,GND*%
G36*
X108996368Y-126423182D02*
G01*
X108999815Y-126426629D01*
X109151753Y-126660833D01*
X109153381Y-126669639D01*
X109148306Y-126677016D01*
X109147973Y-126677224D01*
X109134071Y-126685593D01*
X109134071Y-126685594D01*
X109116122Y-126710101D01*
X109116120Y-126710105D01*
X109095488Y-126779695D01*
X109095488Y-126779696D01*
X109089507Y-126937350D01*
X109089821Y-126958123D01*
X109086519Y-126966447D01*
X109078299Y-126969999D01*
X109078122Y-126970000D01*
X108901878Y-126970000D01*
X108901790Y-126969963D01*
X108901701Y-126969999D01*
X108897655Y-126968250D01*
X108893605Y-126966573D01*
X108893568Y-126966484D01*
X108893481Y-126966447D01*
X108891858Y-126962356D01*
X108890178Y-126958300D01*
X108890179Y-126958123D01*
X108890493Y-126937344D01*
X108890493Y-126937339D01*
X108891159Y-126894542D01*
X108883091Y-126771217D01*
X108859134Y-126701897D01*
X108829708Y-126677623D01*
X108825507Y-126669716D01*
X108827338Y-126662233D01*
X108980185Y-126426628D01*
X108987562Y-126421554D01*
X108996368Y-126423182D01*
G37*
%TD.AperFunction*%
%TD*%
%TA.AperFunction,Conductor*%
%TO.N,GND*%
G36*
X109087023Y-127001427D02*
G01*
X109090441Y-127009241D01*
X109092166Y-127053227D01*
X109092167Y-127053235D01*
X109119628Y-127229399D01*
X109119630Y-127229404D01*
X109165500Y-127360846D01*
X109219403Y-127439319D01*
X109219404Y-127439319D01*
X109219405Y-127439321D01*
X109219407Y-127439322D01*
X109265544Y-127467882D01*
X109270775Y-127475150D01*
X109269334Y-127483988D01*
X109266879Y-127486816D01*
X109017493Y-127694752D01*
X109008944Y-127697418D01*
X109002507Y-127694752D01*
X108753624Y-127487236D01*
X108749465Y-127479306D01*
X108752131Y-127470757D01*
X108755335Y-127468079D01*
X108771813Y-127458711D01*
X108798478Y-127430100D01*
X108834055Y-127362894D01*
X108859418Y-127279666D01*
X108883677Y-127125191D01*
X108889447Y-127009118D01*
X108893281Y-127001026D01*
X108901133Y-126998000D01*
X109078750Y-126998000D01*
X109087023Y-127001427D01*
G37*
%TD.AperFunction*%
%TD*%
%TA.AperFunction,Conductor*%
%TO.N,GND*%
G36*
X111382763Y-131018427D02*
G01*
X111386123Y-131025449D01*
X111388685Y-131049276D01*
X111388685Y-131049278D01*
X111388686Y-131049280D01*
X111400281Y-131077821D01*
X111420340Y-131100493D01*
X111459175Y-131121412D01*
X111513896Y-131133891D01*
X111674821Y-131136136D01*
X111893665Y-131114374D01*
X111902235Y-131116966D01*
X111906464Y-131124859D01*
X111905749Y-131130197D01*
X111742791Y-131556202D01*
X111736634Y-131562705D01*
X111732189Y-131563717D01*
X111101478Y-131581289D01*
X111093112Y-131578094D01*
X111089465Y-131570139D01*
X111086313Y-131502567D01*
X111086312Y-131502558D01*
X111061646Y-131420439D01*
X110979344Y-131254692D01*
X110979325Y-131254654D01*
X110903255Y-131100040D01*
X110902303Y-131097283D01*
X110887967Y-131029108D01*
X110889618Y-131020306D01*
X110897009Y-131015250D01*
X110899417Y-131015000D01*
X111374490Y-131015000D01*
X111382763Y-131018427D01*
G37*
%TD.AperFunction*%
%TD*%
%TA.AperFunction,Conductor*%
%TO.N,GND*%
G36*
X112796417Y-110443883D02*
G01*
X113272106Y-110918623D01*
X113275541Y-110926892D01*
X113272122Y-110935169D01*
X113272106Y-110935185D01*
X112796163Y-111410177D01*
X112787886Y-111413596D01*
X112779617Y-111410161D01*
X112776299Y-111403430D01*
X112773584Y-111382897D01*
X112766397Y-111366261D01*
X112756948Y-111344384D01*
X112756947Y-111344382D01*
X112696162Y-111282373D01*
X112606914Y-111237938D01*
X112553002Y-111223046D01*
X112499088Y-111208154D01*
X112378293Y-111193911D01*
X112267163Y-111180808D01*
X112090861Y-111177142D01*
X112082661Y-111173544D01*
X112079404Y-111165445D01*
X112079404Y-110688414D01*
X112082831Y-110680141D01*
X112090911Y-110676716D01*
X112239238Y-110674305D01*
X112456117Y-110653605D01*
X112609723Y-110614834D01*
X112706579Y-110563902D01*
X112760648Y-110502949D01*
X112774559Y-110467219D01*
X112776536Y-110450767D01*
X112780925Y-110442963D01*
X112789548Y-110440548D01*
X112796417Y-110443883D01*
G37*
%TD.AperFunction*%
%TD*%
%TA.AperFunction,Conductor*%
%TO.N,GND*%
G36*
X117313957Y-133451076D02*
G01*
X117315965Y-133452529D01*
X117900777Y-133978827D01*
X118379578Y-134409721D01*
X118383435Y-134417803D01*
X118380448Y-134426245D01*
X118378053Y-134428276D01*
X117156435Y-135209172D01*
X117147618Y-135210741D01*
X117140275Y-135205616D01*
X117138462Y-135200138D01*
X117133837Y-135134468D01*
X117116928Y-135043535D01*
X117090166Y-134957231D01*
X117050932Y-134868645D01*
X117002350Y-134785772D01*
X116939147Y-134700849D01*
X116939140Y-134700841D01*
X116867634Y-134623238D01*
X116780922Y-134546165D01*
X116688320Y-134478448D01*
X116688314Y-134478444D01*
X116688303Y-134478436D01*
X116585437Y-134416692D01*
X116585429Y-134416688D01*
X116481064Y-134366087D01*
X116280361Y-134299746D01*
X116280350Y-134299743D01*
X116130270Y-134281264D01*
X116122478Y-134276852D01*
X116120000Y-134269652D01*
X116120000Y-133791599D01*
X116123427Y-133783326D01*
X116131597Y-133779899D01*
X116181479Y-133779466D01*
X116524484Y-133759782D01*
X116818203Y-133716571D01*
X117032200Y-133658239D01*
X117174479Y-133591554D01*
X117260924Y-133520087D01*
X117297989Y-133455409D01*
X117305076Y-133449935D01*
X117313957Y-133451076D01*
G37*
%TD.AperFunction*%
%TD*%
%TA.AperFunction,Conductor*%
%TO.N,GND*%
G36*
X114747269Y-133760543D02*
G01*
X114750397Y-133763333D01*
X114765126Y-133782220D01*
X114765126Y-133782221D01*
X114781125Y-133791793D01*
X114801012Y-133803692D01*
X114896900Y-133820856D01*
X115011341Y-133814426D01*
X115127865Y-133797356D01*
X115128131Y-133797320D01*
X115258903Y-133781576D01*
X115267525Y-133783989D01*
X115271916Y-133791793D01*
X115272000Y-133793192D01*
X115272000Y-134266807D01*
X115268573Y-134275080D01*
X115260300Y-134278507D01*
X115258902Y-134278423D01*
X115128127Y-134262679D01*
X115127917Y-134262652D01*
X114983372Y-134242600D01*
X114858520Y-134242039D01*
X114858519Y-134242040D01*
X114783112Y-134265061D01*
X114750512Y-134299041D01*
X114742311Y-134302638D01*
X114733969Y-134299384D01*
X114732086Y-134297041D01*
X114572723Y-134036097D01*
X114571336Y-134027251D01*
X114572724Y-134023902D01*
X114731188Y-133764428D01*
X114738422Y-133759155D01*
X114747269Y-133760543D01*
G37*
%TD.AperFunction*%
%TD*%
%TA.AperFunction,Conductor*%
%TO.N,GND*%
G36*
X106873956Y-125160428D02*
G01*
X106876424Y-125162651D01*
X107084752Y-125412507D01*
X107087418Y-125421056D01*
X107084752Y-125427493D01*
X106878387Y-125674994D01*
X106870457Y-125679153D01*
X106861908Y-125676487D01*
X106859900Y-125674328D01*
X106834797Y-125639369D01*
X106834795Y-125639367D01*
X106795216Y-125608473D01*
X106795215Y-125608472D01*
X106795212Y-125608470D01*
X106715185Y-125571307D01*
X106715182Y-125571306D01*
X106715176Y-125571304D01*
X106621925Y-125545508D01*
X106492920Y-125525688D01*
X106399067Y-125520600D01*
X106390991Y-125516730D01*
X106388000Y-125508917D01*
X106388000Y-125331403D01*
X106391427Y-125323130D01*
X106399399Y-125319707D01*
X106399506Y-125319704D01*
X106431106Y-125318892D01*
X106614169Y-125296124D01*
X106749873Y-125255076D01*
X106829405Y-125205836D01*
X106857724Y-125163624D01*
X106865177Y-125158665D01*
X106873956Y-125160428D01*
G37*
%TD.AperFunction*%
%TD*%
%TA.AperFunction,Conductor*%
%TO.N,GND*%
G36*
X103613307Y-125071540D02*
G01*
X103613911Y-125072557D01*
X103672414Y-125183383D01*
X103672488Y-125183527D01*
X103709389Y-125255840D01*
X103709391Y-125255842D01*
X103758912Y-125301023D01*
X103801547Y-125315128D01*
X103848879Y-125319100D01*
X103856837Y-125323207D01*
X103859601Y-125330759D01*
X103859601Y-125507734D01*
X103856174Y-125516007D01*
X103847901Y-125519434D01*
X103847349Y-125519421D01*
X103660961Y-125510622D01*
X103659216Y-125510407D01*
X103518407Y-125482213D01*
X103518174Y-125482164D01*
X103362362Y-125447661D01*
X103355026Y-125442527D01*
X103353408Y-125434000D01*
X103375620Y-125320000D01*
X103398065Y-125204797D01*
X103403011Y-125197333D01*
X103403030Y-125197320D01*
X103597086Y-125068275D01*
X103605872Y-125066549D01*
X103613307Y-125071540D01*
G37*
%TD.AperFunction*%
%TD*%
%TA.AperFunction,Conductor*%
%TO.N,GND*%
G36*
X110660750Y-124757297D02*
G01*
X110660797Y-124757344D01*
X110812968Y-124910385D01*
X110816371Y-124918668D01*
X110812921Y-124926932D01*
X110807502Y-124929987D01*
X110801568Y-124931466D01*
X110801564Y-124931468D01*
X110782286Y-124949166D01*
X110759826Y-125008022D01*
X110759825Y-125008024D01*
X110755008Y-125096945D01*
X110752244Y-125147970D01*
X110752362Y-125158165D01*
X110749033Y-125166476D01*
X110740800Y-125169999D01*
X110740664Y-125170000D01*
X110564337Y-125170000D01*
X110556064Y-125166573D01*
X110552637Y-125158300D01*
X110552638Y-125158164D01*
X110552756Y-125148011D01*
X110552794Y-125139827D01*
X110552998Y-125096949D01*
X110542387Y-124995474D01*
X110517629Y-124942894D01*
X110500364Y-124929987D01*
X110500028Y-124929736D01*
X110498568Y-124929429D01*
X110491179Y-124924371D01*
X110489530Y-124915569D01*
X110492680Y-124909732D01*
X110644203Y-124757343D01*
X110652467Y-124753894D01*
X110660750Y-124757297D01*
G37*
%TD.AperFunction*%
%TD*%
%TA.AperFunction,Conductor*%
%TO.N,GND*%
G36*
X110748936Y-124833427D02*
G01*
X110752363Y-124841700D01*
X110752362Y-124841836D01*
X110752243Y-124851988D01*
X110752244Y-124851989D01*
X110752002Y-124903054D01*
X110762613Y-125004528D01*
X110784417Y-125050833D01*
X110787371Y-125057106D01*
X110804971Y-125070263D01*
X110806428Y-125070569D01*
X110813818Y-125075625D01*
X110815470Y-125084427D01*
X110812317Y-125090269D01*
X110660797Y-125242655D01*
X110652533Y-125246105D01*
X110644250Y-125242702D01*
X110644203Y-125242655D01*
X110492031Y-125089614D01*
X110488628Y-125081331D01*
X110492078Y-125073067D01*
X110497495Y-125070013D01*
X110503434Y-125068532D01*
X110522713Y-125050834D01*
X110545174Y-124991975D01*
X110552756Y-124852030D01*
X110552637Y-124841834D01*
X110555967Y-124833524D01*
X110564200Y-124830001D01*
X110564336Y-124830000D01*
X110740663Y-124830000D01*
X110748936Y-124833427D01*
G37*
%TD.AperFunction*%
%TD*%
%TA.AperFunction,Conductor*%
%TO.N,GND*%
G36*
X108794955Y-127430988D02*
G01*
X108798711Y-127434075D01*
X109005173Y-127692701D01*
X109007656Y-127701304D01*
X109005173Y-127707299D01*
X108801222Y-127962779D01*
X108793382Y-127967107D01*
X108784779Y-127964624D01*
X108780909Y-127958964D01*
X108780486Y-127957609D01*
X108780484Y-127957606D01*
X108755817Y-127919544D01*
X108755815Y-127919542D01*
X108744103Y-127909432D01*
X108718854Y-127887636D01*
X108718852Y-127887635D01*
X108718851Y-127887634D01*
X108718849Y-127887633D01*
X108646064Y-127850054D01*
X108622747Y-127842836D01*
X108562167Y-127824082D01*
X108555806Y-127822966D01*
X108456309Y-127805509D01*
X108380955Y-127800699D01*
X108372917Y-127796752D01*
X108370000Y-127789023D01*
X108370000Y-127611322D01*
X108373427Y-127603049D01*
X108381314Y-127599628D01*
X108408719Y-127598729D01*
X108568081Y-127574472D01*
X108686831Y-127531491D01*
X108756522Y-127479665D01*
X108779182Y-127435984D01*
X108786033Y-127430221D01*
X108794955Y-127430988D01*
G37*
%TD.AperFunction*%
%TD*%
%TA.AperFunction,Conductor*%
%TO.N,GND*%
G36*
X108430796Y-127458060D02*
G01*
X108561504Y-127493460D01*
X108562941Y-127493953D01*
X108660481Y-127534764D01*
X108788405Y-127582517D01*
X108788408Y-127582518D01*
X108864785Y-127595315D01*
X108872105Y-127595656D01*
X108954042Y-127599479D01*
X108962146Y-127603287D01*
X108965196Y-127611166D01*
X108965196Y-127788862D01*
X108961769Y-127797135D01*
X108954073Y-127800548D01*
X108898133Y-127803308D01*
X108860178Y-127805181D01*
X108860174Y-127805181D01*
X108860168Y-127805182D01*
X108781298Y-127819250D01*
X108781297Y-127819250D01*
X108660479Y-127865236D01*
X108592366Y-127894905D01*
X108590944Y-127895418D01*
X108430964Y-127941671D01*
X108422064Y-127940676D01*
X108416474Y-127933681D01*
X108416248Y-127932759D01*
X108408668Y-127895418D01*
X108369472Y-127702325D01*
X108369472Y-127697674D01*
X108416291Y-127467029D01*
X108421295Y-127459604D01*
X108430085Y-127457892D01*
X108430796Y-127458060D01*
G37*
%TD.AperFunction*%
%TD*%
%TA.AperFunction,Conductor*%
%TO.N,GND*%
G36*
X113797269Y-133760543D02*
G01*
X113800397Y-133763333D01*
X113815126Y-133782220D01*
X113815126Y-133782221D01*
X113831125Y-133791793D01*
X113851012Y-133803692D01*
X113946900Y-133820856D01*
X114061341Y-133814426D01*
X114177865Y-133797356D01*
X114178131Y-133797320D01*
X114308903Y-133781576D01*
X114317525Y-133783989D01*
X114321916Y-133791793D01*
X114322000Y-133793192D01*
X114322000Y-134266807D01*
X114318573Y-134275080D01*
X114310300Y-134278507D01*
X114308902Y-134278423D01*
X114178127Y-134262679D01*
X114177917Y-134262652D01*
X114033372Y-134242600D01*
X113908520Y-134242039D01*
X113908519Y-134242040D01*
X113833112Y-134265061D01*
X113800512Y-134299041D01*
X113792311Y-134302638D01*
X113783969Y-134299384D01*
X113782086Y-134297041D01*
X113622723Y-134036097D01*
X113621336Y-134027251D01*
X113622724Y-134023902D01*
X113781188Y-133764428D01*
X113788422Y-133759155D01*
X113797269Y-133760543D01*
G37*
%TD.AperFunction*%
%TD*%
%TA.AperFunction,Conductor*%
%TO.N,GND*%
G36*
X114406030Y-133760615D02*
G01*
X114407914Y-133762959D01*
X114419233Y-133781492D01*
X114567275Y-134023902D01*
X114568663Y-134032749D01*
X114567275Y-134036098D01*
X114408813Y-134295569D01*
X114401577Y-134300844D01*
X114392730Y-134299456D01*
X114389602Y-134296666D01*
X114374873Y-134277779D01*
X114374873Y-134277778D01*
X114346981Y-134261090D01*
X114338988Y-134256308D01*
X114338985Y-134256307D01*
X114338984Y-134256307D01*
X114243100Y-134239144D01*
X114128659Y-134245574D01*
X114128657Y-134245574D01*
X114128648Y-134245575D01*
X114012146Y-134262641D01*
X114011849Y-134262681D01*
X113881099Y-134278423D01*
X113872475Y-134276010D01*
X113868084Y-134268206D01*
X113868000Y-134266807D01*
X113868000Y-133793192D01*
X113871427Y-133784919D01*
X113879700Y-133781492D01*
X113881083Y-133781575D01*
X114011989Y-133797335D01*
X114156632Y-133817400D01*
X114281478Y-133817960D01*
X114281478Y-133817959D01*
X114281479Y-133817960D01*
X114281479Y-133817959D01*
X114356887Y-133794939D01*
X114389487Y-133760957D01*
X114397687Y-133757361D01*
X114406030Y-133760615D01*
G37*
%TD.AperFunction*%
%TD*%
%TA.AperFunction,Conductor*%
%TO.N,GND*%
G36*
X118710949Y-115783547D02*
G01*
X118724098Y-115792092D01*
X119311625Y-116173907D01*
X119316695Y-116181288D01*
X119315340Y-116189640D01*
X118789825Y-117084852D01*
X118782681Y-117090252D01*
X118773812Y-117089019D01*
X118769590Y-117084756D01*
X118753360Y-117056478D01*
X118703267Y-117023839D01*
X118703264Y-117023838D01*
X118634216Y-117002360D01*
X118634218Y-117002360D01*
X118618234Y-117000000D01*
X118551056Y-116990081D01*
X118551051Y-116990080D01*
X118551046Y-116990080D01*
X118361920Y-116985299D01*
X118361919Y-116985299D01*
X118361918Y-116985299D01*
X118174781Y-116993826D01*
X118174746Y-116993827D01*
X118042198Y-116999479D01*
X118033787Y-116996408D01*
X118030011Y-116988288D01*
X118030000Y-116987790D01*
X118030000Y-116510517D01*
X118033427Y-116502244D01*
X118040456Y-116498883D01*
X118123400Y-116490025D01*
X118275630Y-116438493D01*
X118417881Y-116350608D01*
X118535288Y-116235831D01*
X118622149Y-116100237D01*
X118676188Y-115946148D01*
X118692943Y-115792091D01*
X118697244Y-115784238D01*
X118705839Y-115781726D01*
X118710949Y-115783547D01*
G37*
%TD.AperFunction*%
%TD*%
%TA.AperFunction,Conductor*%
%TO.N,GND*%
G36*
X111304183Y-115782725D02*
G01*
X111306091Y-115788528D01*
X111309466Y-115851461D01*
X111324341Y-115938329D01*
X111324344Y-115938345D01*
X111348616Y-116018891D01*
X111348617Y-116018894D01*
X111348619Y-116018899D01*
X111384306Y-116099103D01*
X111428424Y-116171938D01*
X111485398Y-116243930D01*
X111485402Y-116243934D01*
X111485403Y-116243935D01*
X111549189Y-116306960D01*
X111624963Y-116365917D01*
X111624971Y-116365922D01*
X111675887Y-116396848D01*
X111704310Y-116414113D01*
X111787830Y-116452791D01*
X111869854Y-116479958D01*
X111999957Y-116498563D01*
X112007661Y-116503126D01*
X112010000Y-116510145D01*
X112010000Y-116987765D01*
X112006573Y-116996038D01*
X111998300Y-116999465D01*
X111997778Y-116999453D01*
X111849762Y-116992840D01*
X111849722Y-116992821D01*
X111849683Y-116992837D01*
X111679001Y-116984047D01*
X111678995Y-116984047D01*
X111678994Y-116984047D01*
X111457130Y-116986643D01*
X111457118Y-116986644D01*
X111325108Y-117009582D01*
X111325106Y-117009582D01*
X111254689Y-117045315D01*
X111234263Y-117077340D01*
X111226925Y-117082472D01*
X111218107Y-117080912D01*
X111214352Y-117077044D01*
X110869117Y-116498563D01*
X110684737Y-116189614D01*
X110683441Y-116180756D01*
X110688353Y-116173846D01*
X111287980Y-115779379D01*
X111296773Y-115777696D01*
X111304183Y-115782725D01*
G37*
%TD.AperFunction*%
%TD*%
%TA.AperFunction,Conductor*%
%TO.N,GND*%
G36*
X112895080Y-126201427D02*
G01*
X112898507Y-126209700D01*
X112898423Y-126211098D01*
X112882679Y-126341872D01*
X112882652Y-126342082D01*
X112862600Y-126486627D01*
X112862600Y-126486628D01*
X112862039Y-126611479D01*
X112862040Y-126611480D01*
X112885061Y-126686887D01*
X112919041Y-126719487D01*
X112922638Y-126727688D01*
X112919384Y-126736030D01*
X112917039Y-126737915D01*
X112656098Y-126897275D01*
X112647251Y-126898663D01*
X112643902Y-126897275D01*
X112465515Y-126788332D01*
X112384429Y-126738812D01*
X112379155Y-126731577D01*
X112380543Y-126722730D01*
X112383331Y-126719603D01*
X112402220Y-126704874D01*
X112423692Y-126668988D01*
X112440856Y-126573100D01*
X112434426Y-126458659D01*
X112417349Y-126342082D01*
X112417318Y-126341848D01*
X112401577Y-126211098D01*
X112403990Y-126202475D01*
X112411795Y-126198084D01*
X112413193Y-126198000D01*
X112886807Y-126198000D01*
X112895080Y-126201427D01*
G37*
%TD.AperFunction*%
%TD*%
%TA.AperFunction,Conductor*%
%TO.N,GND*%
G36*
X104484333Y-129379119D02*
G01*
X104492510Y-129382771D01*
X104494015Y-129384742D01*
X104654533Y-129649075D01*
X104655898Y-129657925D01*
X104650605Y-129665149D01*
X104649900Y-129665544D01*
X104621962Y-129679970D01*
X104621958Y-129679973D01*
X104582298Y-129733159D01*
X104582292Y-129733169D01*
X104501774Y-129895026D01*
X104501775Y-129895027D01*
X104433780Y-130035256D01*
X104432879Y-130036800D01*
X104387566Y-130102413D01*
X104380045Y-130107273D01*
X104371290Y-130105391D01*
X104369666Y-130104037D01*
X104034560Y-129768931D01*
X104031133Y-129760658D01*
X104034560Y-129752385D01*
X104034760Y-129752190D01*
X104060365Y-129728064D01*
X104113568Y-129677693D01*
X104191888Y-129584804D01*
X104226325Y-129507452D01*
X104224170Y-129438853D01*
X104208078Y-129404534D01*
X104196559Y-129390700D01*
X104193899Y-129382152D01*
X104198064Y-129374224D01*
X104205869Y-129371519D01*
X104484333Y-129379119D01*
G37*
%TD.AperFunction*%
%TD*%
%TA.AperFunction,Conductor*%
%TO.N,+3V3*%
G36*
X109996368Y-126423182D02*
G01*
X109999815Y-126426629D01*
X110151753Y-126660833D01*
X110153381Y-126669639D01*
X110148306Y-126677016D01*
X110147973Y-126677224D01*
X110134071Y-126685593D01*
X110134071Y-126685594D01*
X110116122Y-126710101D01*
X110116120Y-126710105D01*
X110095488Y-126779695D01*
X110095488Y-126779696D01*
X110089507Y-126937350D01*
X110089821Y-126958123D01*
X110086519Y-126966447D01*
X110078299Y-126969999D01*
X110078122Y-126970000D01*
X109901878Y-126970000D01*
X109901790Y-126969963D01*
X109901701Y-126969999D01*
X109897655Y-126968250D01*
X109893605Y-126966573D01*
X109893568Y-126966484D01*
X109893481Y-126966447D01*
X109891858Y-126962356D01*
X109890178Y-126958300D01*
X109890179Y-126958123D01*
X109890493Y-126937344D01*
X109890493Y-126937339D01*
X109891159Y-126894542D01*
X109883091Y-126771217D01*
X109859134Y-126701897D01*
X109829708Y-126677623D01*
X109825507Y-126669716D01*
X109827338Y-126662233D01*
X109980185Y-126426628D01*
X109987562Y-126421554D01*
X109996368Y-126423182D01*
G37*
%TD.AperFunction*%
%TD*%
%TA.AperFunction,Conductor*%
%TO.N,+3V3*%
G36*
X110086731Y-127001427D02*
G01*
X110090157Y-127009542D01*
X110090394Y-127027107D01*
X110108252Y-127217851D01*
X110108255Y-127217869D01*
X110144286Y-127358616D01*
X110144289Y-127358622D01*
X110188867Y-127439471D01*
X110227265Y-127467582D01*
X110231917Y-127475235D01*
X110229795Y-127483934D01*
X110227847Y-127486009D01*
X109977493Y-127694752D01*
X109968944Y-127697418D01*
X109962507Y-127694752D01*
X109715102Y-127488468D01*
X109710943Y-127480538D01*
X109713609Y-127471989D01*
X109717843Y-127468790D01*
X109729943Y-127463417D01*
X109769278Y-127430180D01*
X109802219Y-127383876D01*
X109840468Y-127297691D01*
X109866810Y-127201305D01*
X109884601Y-127089276D01*
X109889349Y-127009009D01*
X109893259Y-127000953D01*
X109901029Y-126998000D01*
X110078458Y-126998000D01*
X110086731Y-127001427D01*
G37*
%TD.AperFunction*%
%TD*%
%TA.AperFunction,Conductor*%
%TO.N,+3V3*%
G36*
X108077769Y-126087340D02*
G01*
X108313370Y-126240185D01*
X108318445Y-126247562D01*
X108316817Y-126256368D01*
X108313370Y-126259815D01*
X108079166Y-126411753D01*
X108070360Y-126413381D01*
X108062983Y-126408306D01*
X108062787Y-126407994D01*
X108054406Y-126394072D01*
X108054404Y-126394070D01*
X108029898Y-126376122D01*
X108029894Y-126376120D01*
X107960305Y-126355488D01*
X107926521Y-126354206D01*
X107802660Y-126349507D01*
X107802652Y-126349507D01*
X107802649Y-126349507D01*
X107781876Y-126349820D01*
X107773552Y-126346518D01*
X107770001Y-126338297D01*
X107770000Y-126338121D01*
X107770000Y-126161878D01*
X107770036Y-126161790D01*
X107770001Y-126161702D01*
X107771755Y-126157640D01*
X107773427Y-126153605D01*
X107773514Y-126153568D01*
X107773552Y-126153481D01*
X107777665Y-126151849D01*
X107781700Y-126150178D01*
X107781848Y-126150178D01*
X107802657Y-126150492D01*
X107802660Y-126150494D01*
X107802661Y-126150493D01*
X107845459Y-126151159D01*
X107968784Y-126143091D01*
X108038104Y-126119134D01*
X108062375Y-126089709D01*
X108070283Y-126085509D01*
X108077769Y-126087340D01*
G37*
%TD.AperFunction*%
%TD*%
%TA.AperFunction,Conductor*%
%TO.N,+3V3*%
G36*
X107269654Y-126106638D02*
G01*
X107270162Y-126106967D01*
X107289365Y-126120131D01*
X107332211Y-126134716D01*
X107446454Y-126150521D01*
X107705902Y-126151640D01*
X107780077Y-126150227D01*
X107788414Y-126153496D01*
X107791998Y-126161702D01*
X107792000Y-126161925D01*
X107792000Y-126339511D01*
X107788573Y-126347784D01*
X107781574Y-126351141D01*
X107700615Y-126360009D01*
X107700607Y-126360010D01*
X107557807Y-126404190D01*
X107557802Y-126404192D01*
X107452218Y-126466190D01*
X107452215Y-126466192D01*
X107388761Y-126536341D01*
X107367756Y-126597885D01*
X107361840Y-126604608D01*
X107352904Y-126605179D01*
X107349067Y-126602988D01*
X107096559Y-126386481D01*
X107092509Y-126378494D01*
X107094190Y-126371501D01*
X107253573Y-126110523D01*
X107260807Y-126105250D01*
X107269654Y-126106638D01*
G37*
%TD.AperFunction*%
%TD*%
%TA.AperFunction,Conductor*%
%TO.N,+3V3*%
G36*
X111786826Y-126223427D02*
G01*
X111790250Y-126231444D01*
X111790711Y-126252568D01*
X111812213Y-126427601D01*
X111852928Y-126560086D01*
X111902732Y-126638986D01*
X111902733Y-126638988D01*
X111946225Y-126667749D01*
X111951235Y-126675171D01*
X111949530Y-126683962D01*
X111947264Y-126686494D01*
X111697493Y-126894752D01*
X111688944Y-126897418D01*
X111682507Y-126894752D01*
X111434923Y-126688319D01*
X111430764Y-126680389D01*
X111433430Y-126671840D01*
X111435802Y-126669682D01*
X111438623Y-126667749D01*
X111470104Y-126646176D01*
X111501409Y-126607932D01*
X111538650Y-126531593D01*
X111564492Y-126442802D01*
X111584311Y-126320133D01*
X111589373Y-126231036D01*
X111593263Y-126222971D01*
X111601054Y-126220000D01*
X111778553Y-126220000D01*
X111786826Y-126223427D01*
G37*
%TD.AperFunction*%
%TD*%
%TA.AperFunction,Conductor*%
%TO.N,+3V3*%
G36*
X111922757Y-126266248D02*
G01*
X111922969Y-126266291D01*
X111930395Y-126271295D01*
X111932107Y-126280085D01*
X111931934Y-126280816D01*
X111896542Y-126411493D01*
X111896042Y-126412950D01*
X111855238Y-126510475D01*
X111807481Y-126638407D01*
X111794684Y-126714784D01*
X111794684Y-126714786D01*
X111790520Y-126804041D01*
X111786712Y-126812146D01*
X111778833Y-126815196D01*
X111601137Y-126815196D01*
X111592864Y-126811769D01*
X111589451Y-126804073D01*
X111584819Y-126710178D01*
X111570749Y-126631298D01*
X111524764Y-126510481D01*
X111495094Y-126442366D01*
X111494584Y-126440955D01*
X111448328Y-126280962D01*
X111449323Y-126272064D01*
X111456318Y-126266474D01*
X111457226Y-126266251D01*
X111687675Y-126219472D01*
X111692325Y-126219472D01*
X111922757Y-126266248D01*
G37*
%TD.AperFunction*%
%TD*%
%TA.AperFunction,Conductor*%
%TO.N,+3V3*%
G36*
X114535638Y-110937961D02*
G01*
X114539305Y-110941628D01*
X114947114Y-111589281D01*
X114948622Y-111598108D01*
X114943447Y-111605416D01*
X114940525Y-111606737D01*
X114875159Y-111626027D01*
X114875157Y-111626028D01*
X114816594Y-111654384D01*
X114816590Y-111654386D01*
X114760555Y-111694122D01*
X114714243Y-111740138D01*
X114688848Y-111775188D01*
X114676150Y-111792715D01*
X114649213Y-111846687D01*
X114649212Y-111846690D01*
X114649211Y-111846691D01*
X114631363Y-111931311D01*
X114626303Y-111938699D01*
X114619915Y-111940596D01*
X114440315Y-111940596D01*
X114432042Y-111937169D01*
X114428643Y-111929712D01*
X114427478Y-111913043D01*
X114415151Y-111861769D01*
X114391574Y-111808253D01*
X114318630Y-111712565D01*
X114318629Y-111712564D01*
X114318625Y-111712561D01*
X114220312Y-111642402D01*
X114220309Y-111642400D01*
X114220308Y-111642400D01*
X114116847Y-111608359D01*
X114110061Y-111602519D01*
X114109391Y-111593589D01*
X114110604Y-111591012D01*
X114519503Y-110941628D01*
X114526811Y-110936453D01*
X114535638Y-110937961D01*
G37*
%TD.AperFunction*%
%TD*%
%TA.AperFunction,Conductor*%
%TO.N,+3V3*%
G36*
X107097296Y-126384825D02*
G01*
X107352779Y-126588776D01*
X107357107Y-126596616D01*
X107354624Y-126605219D01*
X107348969Y-126609088D01*
X107347608Y-126609513D01*
X107347606Y-126609514D01*
X107309544Y-126634181D01*
X107309542Y-126634183D01*
X107277634Y-126671147D01*
X107277633Y-126671149D01*
X107240054Y-126743934D01*
X107214082Y-126827833D01*
X107214081Y-126827837D01*
X107195509Y-126933690D01*
X107195509Y-126933691D01*
X107190699Y-127009045D01*
X107186752Y-127017083D01*
X107179023Y-127020000D01*
X107001322Y-127020000D01*
X106993049Y-127016573D01*
X106989628Y-127008685D01*
X106988729Y-126981282D01*
X106964472Y-126821920D01*
X106921491Y-126703169D01*
X106869665Y-126633478D01*
X106869664Y-126633477D01*
X106869663Y-126633476D01*
X106825986Y-126610816D01*
X106820220Y-126603965D01*
X106820989Y-126595043D01*
X106824072Y-126591289D01*
X107082702Y-126384825D01*
X107091304Y-126382343D01*
X107097296Y-126384825D01*
G37*
%TD.AperFunction*%
%TD*%
%TA.AperFunction,Conductor*%
%TO.N,+3V3*%
G36*
X107187136Y-126428231D02*
G01*
X107190548Y-126435926D01*
X107195181Y-126529821D01*
X107195181Y-126529825D01*
X107195182Y-126529830D01*
X107209250Y-126608700D01*
X107209250Y-126608701D01*
X107255236Y-126729519D01*
X107284905Y-126797632D01*
X107285417Y-126799052D01*
X107293718Y-126827763D01*
X107331671Y-126959035D01*
X107330676Y-126967935D01*
X107323681Y-126973525D01*
X107322759Y-126973751D01*
X107092328Y-127020527D01*
X107087672Y-127020527D01*
X106857030Y-126973708D01*
X106849604Y-126968704D01*
X106847892Y-126959914D01*
X106848058Y-126959210D01*
X106883461Y-126828490D01*
X106883951Y-126827063D01*
X106924764Y-126729518D01*
X106972517Y-126601595D01*
X106984542Y-126529830D01*
X106985315Y-126525214D01*
X106985315Y-126525212D01*
X106989480Y-126435959D01*
X106993288Y-126427854D01*
X107001167Y-126424804D01*
X107178863Y-126424804D01*
X107187136Y-126428231D01*
G37*
%TD.AperFunction*%
%TD*%
%TA.AperFunction,Conductor*%
%TO.N,+3V3*%
G36*
X110194952Y-127435711D02*
G01*
X110197899Y-127439582D01*
X110198004Y-127439522D01*
X110198362Y-127440139D01*
X110221131Y-127479418D01*
X110255286Y-127512219D01*
X110320862Y-127549895D01*
X110320865Y-127549896D01*
X110320867Y-127549897D01*
X110396293Y-127575917D01*
X110396296Y-127575918D01*
X110491543Y-127594490D01*
X110559122Y-127599236D01*
X110567132Y-127603233D01*
X110570000Y-127610906D01*
X110570000Y-127788550D01*
X110566573Y-127796823D01*
X110558553Y-127800247D01*
X110550148Y-127800428D01*
X110550131Y-127800430D01*
X110405374Y-127821722D01*
X110405373Y-127821722D01*
X110292522Y-127863919D01*
X110292520Y-127863920D01*
X110224068Y-127917031D01*
X110200717Y-127963645D01*
X110193947Y-127969507D01*
X110185016Y-127968866D01*
X110181112Y-127965704D01*
X109974825Y-127707297D01*
X109972343Y-127698696D01*
X109974825Y-127692703D01*
X110178510Y-127437555D01*
X110186349Y-127433228D01*
X110194952Y-127435711D01*
G37*
%TD.AperFunction*%
%TD*%
%TA.AperFunction,Conductor*%
%TO.N,+3V3*%
G36*
X110517935Y-127459323D02*
G01*
X110523525Y-127466318D01*
X110523751Y-127467240D01*
X110570527Y-127697672D01*
X110570527Y-127702328D01*
X110523708Y-127932969D01*
X110518704Y-127940395D01*
X110509914Y-127942107D01*
X110509183Y-127941934D01*
X110378505Y-127906542D01*
X110377048Y-127906042D01*
X110279519Y-127865236D01*
X110215557Y-127841359D01*
X110151591Y-127817481D01*
X110075214Y-127804684D01*
X109985959Y-127800520D01*
X109977854Y-127796712D01*
X109974804Y-127788833D01*
X109974804Y-127611137D01*
X109978231Y-127602864D01*
X109985926Y-127599451D01*
X110079821Y-127594819D01*
X110158701Y-127580749D01*
X110279518Y-127534764D01*
X110347635Y-127505093D01*
X110349039Y-127504585D01*
X110509037Y-127458328D01*
X110517935Y-127459323D01*
G37*
%TD.AperFunction*%
%TD*%
%TA.AperFunction,Conductor*%
%TO.N,+3V3*%
G36*
X108996368Y-124598182D02*
G01*
X108999814Y-124601628D01*
X109151198Y-124834978D01*
X109151929Y-124836104D01*
X109153557Y-124844910D01*
X109148482Y-124852287D01*
X109148418Y-124852328D01*
X109116235Y-124872911D01*
X109116233Y-124872912D01*
X109116233Y-124872913D01*
X109116232Y-124872915D01*
X109095578Y-124912919D01*
X109089487Y-125000277D01*
X109089688Y-125007996D01*
X109086477Y-125016355D01*
X109078296Y-125019996D01*
X109077992Y-125020000D01*
X108902009Y-125020000D01*
X108893736Y-125016573D01*
X108890309Y-125008300D01*
X108890313Y-125007995D01*
X108890355Y-125006367D01*
X108890514Y-125000275D01*
X108888930Y-124934962D01*
X108868804Y-124879307D01*
X108849473Y-124859809D01*
X108849472Y-124859808D01*
X108849471Y-124859807D01*
X108833408Y-124851823D01*
X108827525Y-124845072D01*
X108828139Y-124836138D01*
X108828795Y-124834987D01*
X108980185Y-124601628D01*
X108987562Y-124596554D01*
X108996368Y-124598182D01*
G37*
%TD.AperFunction*%
%TD*%
%TA.AperFunction,Conductor*%
%TO.N,+3V3*%
G36*
X110086173Y-126023427D02*
G01*
X110089600Y-126031700D01*
X110089593Y-126032061D01*
X110089469Y-126035759D01*
X110089417Y-126052877D01*
X110089361Y-126070996D01*
X110099418Y-126100613D01*
X110105782Y-126119356D01*
X110126262Y-126138873D01*
X110146231Y-126148299D01*
X110152249Y-126154929D01*
X110151817Y-126163873D01*
X110151051Y-126165247D01*
X109999815Y-126398370D01*
X109992438Y-126403445D01*
X109983632Y-126401817D01*
X109980185Y-126398370D01*
X109886200Y-126253498D01*
X109828526Y-126164598D01*
X109826899Y-126155793D01*
X109831974Y-126148416D01*
X109832712Y-126147975D01*
X109863674Y-126131056D01*
X109884345Y-126100613D01*
X109890531Y-126035760D01*
X109890530Y-126035751D01*
X109890531Y-126035743D01*
X109890408Y-126032093D01*
X109893554Y-126023710D01*
X109901708Y-126020007D01*
X109902101Y-126020000D01*
X110077900Y-126020000D01*
X110086173Y-126023427D01*
G37*
%TD.AperFunction*%
%TD*%
%TA.AperFunction,Conductor*%
%TO.N,+3V3*%
G36*
X113906201Y-111933784D02*
G01*
X114003358Y-111964903D01*
X114004684Y-111965328D01*
X114007066Y-111966396D01*
X114079523Y-112009187D01*
X114170343Y-112057703D01*
X114224190Y-112070338D01*
X114284069Y-112074280D01*
X114292099Y-112078243D01*
X114295000Y-112085955D01*
X114295000Y-112264104D01*
X114291573Y-112272377D01*
X114284132Y-112275774D01*
X114219503Y-112280379D01*
X114219488Y-112280382D01*
X114163162Y-112294832D01*
X114163157Y-112294834D01*
X114079525Y-112340811D01*
X114015863Y-112379308D01*
X114014358Y-112380076D01*
X113963346Y-112401601D01*
X113961800Y-112402129D01*
X113905772Y-112417009D01*
X113896897Y-112415821D01*
X113891461Y-112408704D01*
X113891303Y-112408029D01*
X113844472Y-112177325D01*
X113844472Y-112172674D01*
X113891175Y-111942600D01*
X113896179Y-111935175D01*
X113904969Y-111933463D01*
X113906201Y-111933784D01*
G37*
%TD.AperFunction*%
%TD*%
%TA.AperFunction,Conductor*%
%TO.N,+3V3*%
G36*
X111837479Y-127485927D02*
G01*
X111840868Y-127493259D01*
X111847248Y-127572296D01*
X111893910Y-127770131D01*
X111893911Y-127770134D01*
X111893912Y-127770137D01*
X111962547Y-127932463D01*
X111962553Y-127932473D01*
X112037191Y-128039299D01*
X112037193Y-128039301D01*
X112112316Y-128097909D01*
X112169898Y-128112409D01*
X112177083Y-128117753D01*
X112178386Y-128126612D01*
X112175276Y-128132065D01*
X111748236Y-128555336D01*
X111739948Y-128558726D01*
X111731764Y-128555336D01*
X111304868Y-128132209D01*
X111301404Y-128123951D01*
X111304794Y-128115663D01*
X111310340Y-128112530D01*
X111364944Y-128099266D01*
X111413217Y-128067534D01*
X111457090Y-128023045D01*
X111508016Y-127949225D01*
X111550957Y-127863389D01*
X111591719Y-127752439D01*
X111620308Y-127642423D01*
X111638735Y-127492769D01*
X111643147Y-127484978D01*
X111650347Y-127482500D01*
X111829206Y-127482500D01*
X111837479Y-127485927D01*
G37*
%TD.AperFunction*%
%TD*%
%TA.AperFunction,Conductor*%
%TO.N,+3V3*%
G36*
X111697693Y-126905414D02*
G01*
X111947077Y-127113349D01*
X111951236Y-127121278D01*
X111948570Y-127129827D01*
X111945893Y-127132187D01*
X111933522Y-127140108D01*
X111911689Y-127166584D01*
X111873057Y-127262702D01*
X111851460Y-127383669D01*
X111840582Y-127590913D01*
X111836726Y-127598995D01*
X111828898Y-127602000D01*
X111651030Y-127602000D01*
X111642757Y-127598573D01*
X111639350Y-127590990D01*
X111638605Y-127578380D01*
X111635913Y-127532795D01*
X111635911Y-127532788D01*
X111635911Y-127532782D01*
X111602697Y-127366456D01*
X111602696Y-127366450D01*
X111551127Y-127242027D01*
X111491640Y-127166756D01*
X111440621Y-127139271D01*
X111434965Y-127132333D01*
X111435871Y-127123424D01*
X111438443Y-127120189D01*
X111682478Y-126905613D01*
X111690951Y-126902725D01*
X111697693Y-126905414D01*
G37*
%TD.AperFunction*%
%TD*%
%TA.AperFunction,Conductor*%
%TO.N,/MCU and RX/VBAT*%
G36*
X105261272Y-128139414D02*
G01*
X105263326Y-128141192D01*
X105483772Y-128382102D01*
X105486829Y-128390518D01*
X105483772Y-128397898D01*
X105264570Y-128637448D01*
X105256456Y-128641239D01*
X105248040Y-128638182D01*
X105245932Y-128635614D01*
X105230145Y-128609562D01*
X105195738Y-128579464D01*
X105194317Y-128578746D01*
X105123495Y-128542969D01*
X105123482Y-128542964D01*
X105037078Y-128517399D01*
X105037059Y-128517395D01*
X104902203Y-128495924D01*
X104902209Y-128495924D01*
X104803072Y-128490595D01*
X104794995Y-128486729D01*
X104792000Y-128478912D01*
X104792000Y-128301491D01*
X104795427Y-128293218D01*
X104803488Y-128289793D01*
X104822836Y-128289446D01*
X104942543Y-128276320D01*
X105003282Y-128269661D01*
X105003288Y-128269660D01*
X105138054Y-128231223D01*
X105138054Y-128231222D01*
X105138061Y-128231221D01*
X105216819Y-128183989D01*
X105245019Y-128142510D01*
X105252504Y-128137597D01*
X105261272Y-128139414D01*
G37*
%TD.AperFunction*%
%TD*%
%TA.AperFunction,Conductor*%
%TO.N,/MCU and RX/VBAT*%
G36*
X104720406Y-128160735D02*
G01*
X104722396Y-128162867D01*
X104745112Y-128194317D01*
X104801518Y-128228844D01*
X104874731Y-128254151D01*
X104874735Y-128254151D01*
X104874740Y-128254153D01*
X105047094Y-128283017D01*
X105047096Y-128283017D01*
X105047107Y-128283019D01*
X105047122Y-128283019D01*
X105047125Y-128283020D01*
X105079532Y-128284581D01*
X105180863Y-128289463D01*
X105188962Y-128293284D01*
X105192000Y-128301149D01*
X105192000Y-128478829D01*
X105188573Y-128487102D01*
X105180841Y-128490516D01*
X105131322Y-128492809D01*
X104958306Y-128522537D01*
X104828755Y-128570758D01*
X104828752Y-128570760D01*
X104750726Y-128627003D01*
X104722032Y-128675151D01*
X104714853Y-128680503D01*
X104705992Y-128679211D01*
X104702996Y-128676654D01*
X104574495Y-128522538D01*
X104495246Y-128427491D01*
X104492581Y-128418944D01*
X104495246Y-128412508D01*
X104703929Y-128162226D01*
X104711857Y-128158069D01*
X104720406Y-128160735D01*
G37*
%TD.AperFunction*%
%TD*%
%TA.AperFunction,Conductor*%
%TO.N,/MCU and RX/VBAT*%
G36*
X105731959Y-128141817D02*
G01*
X105734066Y-128144384D01*
X105749855Y-128170438D01*
X105784262Y-128200536D01*
X105856508Y-128237032D01*
X105856513Y-128237033D01*
X105856517Y-128237035D01*
X105942921Y-128262600D01*
X105942928Y-128262602D01*
X105942938Y-128262603D01*
X105942940Y-128262604D01*
X105956548Y-128264770D01*
X106077791Y-128284075D01*
X106077790Y-128284075D01*
X106084398Y-128284430D01*
X106176929Y-128289404D01*
X106185005Y-128293270D01*
X106188000Y-128301087D01*
X106188000Y-128478508D01*
X106184573Y-128486781D01*
X106176511Y-128490206D01*
X106157162Y-128490554D01*
X105976717Y-128510338D01*
X105976711Y-128510339D01*
X105841945Y-128548776D01*
X105841939Y-128548779D01*
X105763179Y-128596012D01*
X105734980Y-128637487D01*
X105727495Y-128642402D01*
X105718727Y-128640584D01*
X105716673Y-128638807D01*
X105496227Y-128397898D01*
X105493170Y-128389482D01*
X105496227Y-128382102D01*
X105577513Y-128293270D01*
X105715430Y-128142550D01*
X105723543Y-128138760D01*
X105731959Y-128141817D01*
G37*
%TD.AperFunction*%
%TD*%
%TA.AperFunction,Conductor*%
%TO.N,/MCU and RX/VBAT*%
G36*
X106477935Y-128149323D02*
G01*
X106483525Y-128156318D01*
X106483751Y-128157240D01*
X106530527Y-128387672D01*
X106530527Y-128392328D01*
X106483708Y-128622969D01*
X106478704Y-128630395D01*
X106469914Y-128632107D01*
X106469183Y-128631934D01*
X106338505Y-128596542D01*
X106337048Y-128596042D01*
X106239519Y-128555236D01*
X106175557Y-128531359D01*
X106111591Y-128507481D01*
X106035214Y-128494684D01*
X105945959Y-128490520D01*
X105937854Y-128486712D01*
X105934804Y-128478833D01*
X105934804Y-128301137D01*
X105938231Y-128292864D01*
X105945926Y-128289451D01*
X106039821Y-128284819D01*
X106118701Y-128270749D01*
X106239518Y-128224764D01*
X106307635Y-128195093D01*
X106309039Y-128194585D01*
X106469037Y-128148328D01*
X106477935Y-128149323D01*
G37*
%TD.AperFunction*%
%TD*%
%TA.AperFunction,Conductor*%
%TO.N,Net-(J3-CC2)*%
G36*
X113037898Y-116756227D02*
G01*
X113277220Y-116975220D01*
X113281011Y-116983334D01*
X113277954Y-116991750D01*
X113274593Y-116994297D01*
X113251939Y-117005728D01*
X113251937Y-117005730D01*
X113251935Y-117005731D01*
X113251934Y-117005732D01*
X113231106Y-117025092D01*
X113220307Y-117035130D01*
X113183272Y-117093886D01*
X113183272Y-117093887D01*
X113157401Y-117163390D01*
X113157395Y-117163411D01*
X113135924Y-117270692D01*
X113135924Y-117270694D01*
X113130725Y-117349074D01*
X113126758Y-117357103D01*
X113119051Y-117360000D01*
X112940599Y-117360000D01*
X112932326Y-117356573D01*
X112928956Y-117349452D01*
X112928919Y-117349074D01*
X112916229Y-117220823D01*
X112879930Y-117100790D01*
X112875426Y-117093884D01*
X112830563Y-117025092D01*
X112830560Y-117025090D01*
X112830560Y-117025089D01*
X112783139Y-116994861D01*
X112778005Y-116987524D01*
X112779562Y-116978706D01*
X112781526Y-116976367D01*
X113022102Y-116756226D01*
X113030518Y-116753170D01*
X113037898Y-116756227D01*
G37*
%TD.AperFunction*%
%TD*%
%TA.AperFunction,Conductor*%
%TO.N,Net-(J3-CC2)*%
G36*
X113108761Y-117294976D02*
G01*
X113168671Y-117337283D01*
X113168672Y-117337284D01*
X113168674Y-117337285D01*
X113231594Y-117345872D01*
X113306024Y-117353497D01*
X113313904Y-117357749D01*
X113316470Y-117366328D01*
X113316314Y-117367380D01*
X113272217Y-117592978D01*
X113267266Y-117600441D01*
X113262978Y-117602217D01*
X113037380Y-117646314D01*
X113028604Y-117644538D01*
X113023653Y-117637075D01*
X113023499Y-117636038D01*
X113015872Y-117561594D01*
X113010112Y-117507694D01*
X112994055Y-117472280D01*
X112966155Y-117438919D01*
X112963477Y-117430375D01*
X112966857Y-117423142D01*
X113093740Y-117296259D01*
X113102012Y-117292833D01*
X113108761Y-117294976D01*
G37*
%TD.AperFunction*%
%TD*%
%TA.AperFunction,Conductor*%
%TO.N,Net-(J3-CC1)*%
G36*
X117017898Y-116756227D02*
G01*
X117257448Y-116975429D01*
X117261239Y-116983543D01*
X117258182Y-116991959D01*
X117255614Y-116994067D01*
X117229562Y-117009855D01*
X117229560Y-117009856D01*
X117199466Y-117044259D01*
X117199463Y-117044263D01*
X117162969Y-117116504D01*
X117162964Y-117116517D01*
X117137399Y-117202921D01*
X117137395Y-117202940D01*
X117115924Y-117337793D01*
X117110595Y-117436928D01*
X117106729Y-117445005D01*
X117098912Y-117448000D01*
X116921491Y-117448000D01*
X116913218Y-117444573D01*
X116909793Y-117436511D01*
X116909446Y-117417164D01*
X116897936Y-117312197D01*
X116889661Y-117236717D01*
X116889660Y-117236711D01*
X116851223Y-117101945D01*
X116851222Y-117101943D01*
X116851221Y-117101939D01*
X116803989Y-117023181D01*
X116784390Y-117009856D01*
X116762512Y-116994981D01*
X116757597Y-116987495D01*
X116759414Y-116978727D01*
X116761192Y-116976673D01*
X116762552Y-116975429D01*
X117002102Y-116756226D01*
X117010518Y-116753170D01*
X117017898Y-116756227D01*
G37*
%TD.AperFunction*%
%TD*%
%TA.AperFunction,Conductor*%
%TO.N,Net-(J3-CC1)*%
G36*
X116946858Y-117896858D02*
G01*
X117073739Y-118023739D01*
X117077166Y-118032012D01*
X117075023Y-118038761D01*
X117032715Y-118098671D01*
X117032714Y-118098672D01*
X117024125Y-118161611D01*
X117016502Y-118236023D01*
X117012250Y-118243904D01*
X117003671Y-118246470D01*
X117002619Y-118246314D01*
X116777021Y-118202217D01*
X116769558Y-118197266D01*
X116767782Y-118192978D01*
X116736318Y-118032012D01*
X116723685Y-117967379D01*
X116725461Y-117958604D01*
X116732924Y-117953653D01*
X116733959Y-117953499D01*
X116808405Y-117945872D01*
X116862306Y-117940112D01*
X116897719Y-117924054D01*
X116931079Y-117896155D01*
X116939624Y-117893477D01*
X116946858Y-117896858D01*
G37*
%TD.AperFunction*%
%TD*%
%TA.AperFunction,Conductor*%
%TO.N,/MCU and RX/SERVO1*%
G36*
X108602757Y-128546248D02*
G01*
X108602969Y-128546291D01*
X108610395Y-128551295D01*
X108612107Y-128560085D01*
X108611934Y-128560816D01*
X108576542Y-128691493D01*
X108576042Y-128692950D01*
X108535238Y-128790475D01*
X108487481Y-128918407D01*
X108474684Y-128994784D01*
X108474684Y-128994786D01*
X108470520Y-129084041D01*
X108466712Y-129092146D01*
X108458833Y-129095196D01*
X108281137Y-129095196D01*
X108272864Y-129091769D01*
X108269451Y-129084073D01*
X108264819Y-128990178D01*
X108250749Y-128911298D01*
X108204764Y-128790481D01*
X108175094Y-128722366D01*
X108174584Y-128720955D01*
X108128328Y-128560962D01*
X108129323Y-128552064D01*
X108136318Y-128546474D01*
X108137226Y-128546251D01*
X108367675Y-128499472D01*
X108372325Y-128499472D01*
X108602757Y-128546248D01*
G37*
%TD.AperFunction*%
%TD*%
%TA.AperFunction,Conductor*%
%TO.N,/MCU and RX/SERVO1*%
G36*
X101793200Y-133521817D02*
G01*
X101795455Y-133526923D01*
X101805272Y-133582433D01*
X101805272Y-133582436D01*
X101829229Y-133654361D01*
X101829232Y-133654368D01*
X101868269Y-133733117D01*
X101918507Y-133808532D01*
X101988056Y-133890491D01*
X102068187Y-133967019D01*
X102168032Y-134045801D01*
X102275259Y-134116244D01*
X102275269Y-134116250D01*
X102275273Y-134116252D01*
X102371804Y-134169133D01*
X102392152Y-134180280D01*
X102510057Y-134233379D01*
X102722798Y-134300656D01*
X102869729Y-134318736D01*
X102877522Y-134323147D01*
X102880000Y-134330348D01*
X102880000Y-134508860D01*
X102876573Y-134517133D01*
X102868874Y-134520546D01*
X102826670Y-134522620D01*
X102728210Y-134538165D01*
X102620353Y-134566925D01*
X102620346Y-134566927D01*
X102620345Y-134566928D01*
X102562500Y-134590503D01*
X102389854Y-134660866D01*
X102180058Y-134785651D01*
X102013976Y-134923097D01*
X101896456Y-135062245D01*
X101896450Y-135062253D01*
X101824088Y-135198612D01*
X101824087Y-135198614D01*
X101796339Y-135314552D01*
X101791080Y-135321801D01*
X101782237Y-135323208D01*
X101777816Y-135321095D01*
X100921431Y-134660868D01*
X100621017Y-134429264D01*
X100616559Y-134421501D01*
X100618896Y-134412856D01*
X100621014Y-134410737D01*
X101776791Y-133519694D01*
X101785435Y-133517358D01*
X101793200Y-133521817D01*
G37*
%TD.AperFunction*%
%TD*%
%TA.AperFunction,Conductor*%
%TO.N,/MCU and RX/SERVO2*%
G36*
X110402757Y-130946248D02*
G01*
X110402969Y-130946291D01*
X110410395Y-130951295D01*
X110412107Y-130960085D01*
X110411934Y-130960816D01*
X110376542Y-131091493D01*
X110376042Y-131092950D01*
X110335238Y-131190475D01*
X110287481Y-131318407D01*
X110274684Y-131394784D01*
X110274684Y-131394786D01*
X110270520Y-131484041D01*
X110266712Y-131492146D01*
X110258833Y-131495196D01*
X110081137Y-131495196D01*
X110072864Y-131491769D01*
X110069451Y-131484073D01*
X110064819Y-131390178D01*
X110050749Y-131311298D01*
X110004764Y-131190481D01*
X109975094Y-131122366D01*
X109974584Y-131120955D01*
X109928328Y-130960962D01*
X109929323Y-130952064D01*
X109936318Y-130946474D01*
X109937226Y-130946251D01*
X110167675Y-130899472D01*
X110172325Y-130899472D01*
X110402757Y-130946248D01*
G37*
%TD.AperFunction*%
%TD*%
%TA.AperFunction,Conductor*%
%TO.N,/MCU and RX/SERVO2*%
G36*
X117222183Y-138598904D02*
G01*
X118378981Y-139490734D01*
X118383440Y-139498499D01*
X118381103Y-139507144D01*
X118378981Y-139509266D01*
X117223209Y-140400304D01*
X117214564Y-140402641D01*
X117206799Y-140398182D01*
X117204544Y-140393075D01*
X117194728Y-140337568D01*
X117194727Y-140337563D01*
X117170770Y-140265638D01*
X117170766Y-140265628D01*
X117131731Y-140186884D01*
X117131731Y-140186883D01*
X117081493Y-140111468D01*
X117011944Y-140029509D01*
X116931813Y-139952981D01*
X116931811Y-139952979D01*
X116831975Y-139874204D01*
X116831973Y-139874203D01*
X116831968Y-139874199D01*
X116724741Y-139803756D01*
X116724733Y-139803751D01*
X116724726Y-139803747D01*
X116607856Y-139739724D01*
X116607845Y-139739718D01*
X116489944Y-139686621D01*
X116489938Y-139686619D01*
X116277204Y-139619344D01*
X116277199Y-139619343D01*
X116130271Y-139601263D01*
X116122478Y-139596852D01*
X116120000Y-139589651D01*
X116120000Y-139411139D01*
X116123427Y-139402866D01*
X116131125Y-139399453D01*
X116173325Y-139397380D01*
X116271787Y-139381835D01*
X116379655Y-139353072D01*
X116610149Y-139259132D01*
X116819942Y-139134349D01*
X116986020Y-138996906D01*
X117103546Y-138857752D01*
X117175913Y-138721385D01*
X117203661Y-138605445D01*
X117208919Y-138598198D01*
X117217762Y-138596791D01*
X117222183Y-138598904D01*
G37*
%TD.AperFunction*%
%TD*%
%TA.AperFunction,Conductor*%
%TO.N,/MCU and RX/UART2_RX*%
G36*
X115786747Y-110935438D02*
G01*
X115788513Y-110937204D01*
X116250902Y-111510824D01*
X116253426Y-111519416D01*
X116249136Y-111527276D01*
X116246634Y-111528818D01*
X116214840Y-111543269D01*
X116214832Y-111543273D01*
X116171885Y-111574476D01*
X116117835Y-111631388D01*
X116068851Y-111702146D01*
X116068851Y-111702147D01*
X116014162Y-111807073D01*
X116014160Y-111807078D01*
X115968274Y-111922691D01*
X115927597Y-112057403D01*
X115898985Y-112188036D01*
X115898984Y-112188039D01*
X115880492Y-112366411D01*
X115876230Y-112374286D01*
X115868854Y-112376904D01*
X115690307Y-112376904D01*
X115682034Y-112373477D01*
X115678636Y-112366028D01*
X115671437Y-112264077D01*
X115671437Y-112264073D01*
X115621360Y-112020916D01*
X115545722Y-111809460D01*
X115462441Y-111659983D01*
X115421058Y-111614180D01*
X115379676Y-111568378D01*
X115379675Y-111568377D01*
X115310464Y-111529357D01*
X115304940Y-111522309D01*
X115306018Y-111513419D01*
X115307096Y-111511828D01*
X115770295Y-110937203D01*
X115778155Y-110932914D01*
X115786747Y-110935438D01*
G37*
%TD.AperFunction*%
%TD*%
%TA.AperFunction,Conductor*%
%TO.N,/MCU and RX/UART2_RX*%
G36*
X111467136Y-122508231D02*
G01*
X111470548Y-122515926D01*
X111475181Y-122609821D01*
X111475181Y-122609825D01*
X111475182Y-122609830D01*
X111489250Y-122688700D01*
X111489250Y-122688701D01*
X111535236Y-122809519D01*
X111564905Y-122877632D01*
X111565417Y-122879052D01*
X111573718Y-122907763D01*
X111611671Y-123039035D01*
X111610676Y-123047935D01*
X111603681Y-123053525D01*
X111602759Y-123053751D01*
X111372328Y-123100527D01*
X111367672Y-123100527D01*
X111137030Y-123053708D01*
X111129604Y-123048704D01*
X111127892Y-123039914D01*
X111128058Y-123039210D01*
X111163461Y-122908490D01*
X111163951Y-122907063D01*
X111204764Y-122809518D01*
X111252517Y-122681595D01*
X111264542Y-122609830D01*
X111265315Y-122605214D01*
X111265315Y-122605212D01*
X111269480Y-122515959D01*
X111273288Y-122507854D01*
X111281167Y-122504804D01*
X111458863Y-122504804D01*
X111467136Y-122508231D01*
G37*
%TD.AperFunction*%
%TD*%
%TA.AperFunction,Conductor*%
%TO.N,/MCU and RX/UART2_TX*%
G36*
X112267136Y-121908231D02*
G01*
X112270548Y-121915926D01*
X112275181Y-122009821D01*
X112275181Y-122009825D01*
X112275182Y-122009830D01*
X112289250Y-122088700D01*
X112289250Y-122088701D01*
X112335236Y-122209519D01*
X112364905Y-122277632D01*
X112365417Y-122279052D01*
X112373718Y-122307763D01*
X112411671Y-122439035D01*
X112410676Y-122447935D01*
X112403681Y-122453525D01*
X112402759Y-122453751D01*
X112172328Y-122500527D01*
X112167672Y-122500527D01*
X111937030Y-122453708D01*
X111929604Y-122448704D01*
X111927892Y-122439914D01*
X111928058Y-122439210D01*
X111963461Y-122308490D01*
X111963951Y-122307063D01*
X112004764Y-122209518D01*
X112052517Y-122081595D01*
X112064542Y-122009830D01*
X112065315Y-122005214D01*
X112065315Y-122005212D01*
X112069480Y-121915959D01*
X112073288Y-121907854D01*
X112081167Y-121904804D01*
X112258863Y-121904804D01*
X112267136Y-121908231D01*
G37*
%TD.AperFunction*%
%TD*%
%TA.AperFunction,Conductor*%
%TO.N,/MCU and RX/UART2_TX*%
G36*
X117036747Y-110935438D02*
G01*
X117038513Y-110937204D01*
X117500902Y-111510824D01*
X117503426Y-111519416D01*
X117499136Y-111527276D01*
X117496634Y-111528818D01*
X117464840Y-111543269D01*
X117464832Y-111543273D01*
X117421885Y-111574476D01*
X117367835Y-111631388D01*
X117318851Y-111702146D01*
X117318851Y-111702147D01*
X117264162Y-111807073D01*
X117264160Y-111807078D01*
X117218274Y-111922691D01*
X117177597Y-112057403D01*
X117148985Y-112188036D01*
X117148984Y-112188039D01*
X117130492Y-112366411D01*
X117126230Y-112374286D01*
X117118854Y-112376904D01*
X116940307Y-112376904D01*
X116932034Y-112373477D01*
X116928636Y-112366028D01*
X116921437Y-112264077D01*
X116921437Y-112264073D01*
X116871360Y-112020916D01*
X116795722Y-111809460D01*
X116712441Y-111659983D01*
X116671058Y-111614180D01*
X116629676Y-111568378D01*
X116629675Y-111568377D01*
X116560464Y-111529357D01*
X116554940Y-111522309D01*
X116556018Y-111513419D01*
X116557096Y-111511828D01*
X117020295Y-110937203D01*
X117028155Y-110932914D01*
X117036747Y-110935438D01*
G37*
%TD.AperFunction*%
%TD*%
%TA.AperFunction,Conductor*%
%TO.N,/Sensors/VBAT_DIV*%
G36*
X105596782Y-131005427D02*
G01*
X105600206Y-131013488D01*
X105600543Y-131032246D01*
X105600554Y-131032837D01*
X105620338Y-131213282D01*
X105620339Y-131213288D01*
X105658776Y-131348054D01*
X105658778Y-131348058D01*
X105658779Y-131348061D01*
X105693367Y-131405736D01*
X105706011Y-131426819D01*
X105747487Y-131455018D01*
X105752402Y-131462504D01*
X105750585Y-131471272D01*
X105748807Y-131473326D01*
X105507898Y-131693772D01*
X105499482Y-131696829D01*
X105492102Y-131693772D01*
X105252551Y-131474570D01*
X105248760Y-131466456D01*
X105251817Y-131458040D01*
X105254384Y-131455933D01*
X105280438Y-131440145D01*
X105310536Y-131405738D01*
X105347032Y-131333492D01*
X105372602Y-131247072D01*
X105394075Y-131112209D01*
X105398342Y-131032836D01*
X105399405Y-131013072D01*
X105403271Y-131004995D01*
X105411088Y-131002000D01*
X105588509Y-131002000D01*
X105596782Y-131005427D01*
G37*
%TD.AperFunction*%
%TD*%
%TA.AperFunction,Conductor*%
%TO.N,/Sensors/VBAT_DIV*%
G36*
X105507898Y-130606227D02*
G01*
X105747448Y-130825429D01*
X105751239Y-130833543D01*
X105748182Y-130841959D01*
X105745614Y-130844067D01*
X105719562Y-130859855D01*
X105719560Y-130859856D01*
X105689466Y-130894259D01*
X105689463Y-130894263D01*
X105652969Y-130966504D01*
X105652964Y-130966517D01*
X105627399Y-131052921D01*
X105627395Y-131052940D01*
X105605924Y-131187793D01*
X105600595Y-131286928D01*
X105596729Y-131295005D01*
X105588912Y-131298000D01*
X105411491Y-131298000D01*
X105403218Y-131294573D01*
X105399793Y-131286511D01*
X105399446Y-131267164D01*
X105387936Y-131162197D01*
X105379661Y-131086717D01*
X105379660Y-131086711D01*
X105341223Y-130951945D01*
X105341222Y-130951943D01*
X105341221Y-130951939D01*
X105293989Y-130873181D01*
X105274390Y-130859856D01*
X105252512Y-130844981D01*
X105247597Y-130837495D01*
X105249414Y-130828727D01*
X105251192Y-130826673D01*
X105252552Y-130825429D01*
X105492102Y-130606226D01*
X105500518Y-130603170D01*
X105507898Y-130606227D01*
G37*
%TD.AperFunction*%
%TD*%
%TA.AperFunction,Conductor*%
%TO.N,/Sensors/VBAT_DIV*%
G36*
X105497743Y-129415838D02*
G01*
X105728092Y-129619267D01*
X105743494Y-129632870D01*
X105747427Y-129640915D01*
X105744519Y-129649385D01*
X105741249Y-129651966D01*
X105707469Y-129669958D01*
X105707459Y-129669966D01*
X105677513Y-129701439D01*
X105677513Y-129701440D01*
X105640890Y-129769337D01*
X105640889Y-129769338D01*
X105615402Y-129850705D01*
X105595676Y-129965241D01*
X105595673Y-129965261D01*
X105590672Y-130047015D01*
X105586746Y-130055063D01*
X105578994Y-130058000D01*
X105401305Y-130058000D01*
X105393032Y-130054573D01*
X105389612Y-130046701D01*
X105388424Y-130012101D01*
X105388424Y-130012092D01*
X105364667Y-129850997D01*
X105324062Y-129736412D01*
X105275856Y-129672658D01*
X105269874Y-129669958D01*
X105236503Y-129654895D01*
X105230372Y-129648368D01*
X105230652Y-129639418D01*
X105233568Y-129635463D01*
X105482256Y-129415838D01*
X105490725Y-129412931D01*
X105497743Y-129415838D01*
G37*
%TD.AperFunction*%
%TD*%
%TA.AperFunction,Conductor*%
%TO.N,/Sensors/VBAT_DIV*%
G36*
X105586852Y-129905427D02*
G01*
X105590276Y-129913417D01*
X105590900Y-129939219D01*
X105590900Y-129939226D01*
X105590901Y-129939227D01*
X105590901Y-129939235D01*
X105610617Y-130096521D01*
X105613075Y-130116129D01*
X105654001Y-130248594D01*
X105703601Y-130326776D01*
X105703602Y-130326776D01*
X105703603Y-130326778D01*
X105747072Y-130355096D01*
X105752134Y-130362483D01*
X105750489Y-130371285D01*
X105748584Y-130373531D01*
X105507898Y-130593772D01*
X105499482Y-130596829D01*
X105492102Y-130593772D01*
X105252331Y-130374369D01*
X105248540Y-130366255D01*
X105251597Y-130357839D01*
X105254595Y-130355484D01*
X105271679Y-130346114D01*
X105290325Y-130326776D01*
X105298527Y-130318270D01*
X105298528Y-130318267D01*
X105298530Y-130318266D01*
X105334178Y-130253167D01*
X105359567Y-130172633D01*
X105383696Y-130024282D01*
X105388081Y-129939219D01*
X105389428Y-129913098D01*
X105393276Y-129905012D01*
X105401112Y-129902000D01*
X105578579Y-129902000D01*
X105586852Y-129905427D01*
G37*
%TD.AperFunction*%
%TD*%
%TA.AperFunction,Conductor*%
%TO.N,/MCU and RX/BOOT0*%
G36*
X110667136Y-123108231D02*
G01*
X110670548Y-123115926D01*
X110675181Y-123209821D01*
X110675181Y-123209825D01*
X110675182Y-123209830D01*
X110689250Y-123288700D01*
X110689250Y-123288701D01*
X110735236Y-123409519D01*
X110764905Y-123477632D01*
X110765417Y-123479052D01*
X110773718Y-123507763D01*
X110811671Y-123639035D01*
X110810676Y-123647935D01*
X110803681Y-123653525D01*
X110802759Y-123653751D01*
X110572328Y-123700527D01*
X110567672Y-123700527D01*
X110337030Y-123653708D01*
X110329604Y-123648704D01*
X110327892Y-123639914D01*
X110328058Y-123639210D01*
X110363461Y-123508490D01*
X110363951Y-123507063D01*
X110404764Y-123409518D01*
X110452517Y-123281595D01*
X110464542Y-123209830D01*
X110465315Y-123205214D01*
X110465315Y-123205212D01*
X110469480Y-123115959D01*
X110473288Y-123107854D01*
X110481167Y-123104804D01*
X110658863Y-123104804D01*
X110667136Y-123108231D01*
G37*
%TD.AperFunction*%
%TD*%
%TA.AperFunction,Conductor*%
%TO.N,/MCU and RX/BOOT0*%
G36*
X111555426Y-119073929D02*
G01*
X111556238Y-119074420D01*
X111752253Y-119204286D01*
X111755545Y-119207578D01*
X111885529Y-119403771D01*
X111887241Y-119412560D01*
X111882237Y-119419987D01*
X111881598Y-119420381D01*
X111764169Y-119487758D01*
X111762785Y-119488435D01*
X111664964Y-119528545D01*
X111540744Y-119585233D01*
X111540740Y-119585235D01*
X111477692Y-119630189D01*
X111477688Y-119630192D01*
X111411625Y-119690363D01*
X111403201Y-119693400D01*
X111395474Y-119689986D01*
X111269824Y-119564336D01*
X111266397Y-119556063D01*
X111269425Y-119548208D01*
X111332544Y-119478539D01*
X111378371Y-119412814D01*
X111431285Y-119294867D01*
X111458476Y-119225704D01*
X111459110Y-119224357D01*
X111539533Y-119078522D01*
X111546527Y-119072934D01*
X111555426Y-119073929D01*
G37*
%TD.AperFunction*%
%TD*%
%TA.AperFunction,Conductor*%
%TO.N,/MCU and RX/I2C1_SDA*%
G36*
X110086395Y-124033427D02*
G01*
X110089822Y-124041700D01*
X110089821Y-124041877D01*
X110089507Y-124062655D01*
X110089507Y-124062660D01*
X110088841Y-124105461D01*
X110096909Y-124228782D01*
X110118030Y-124289895D01*
X110120867Y-124298104D01*
X110150291Y-124322376D01*
X110154492Y-124330283D01*
X110152660Y-124337768D01*
X109999815Y-124573370D01*
X109992438Y-124578445D01*
X109983632Y-124576817D01*
X109980185Y-124573370D01*
X109828246Y-124339166D01*
X109826618Y-124330360D01*
X109831693Y-124322983D01*
X109831985Y-124322799D01*
X109845928Y-124314407D01*
X109863878Y-124289898D01*
X109884513Y-124220302D01*
X109890493Y-124062661D01*
X109890179Y-124041876D01*
X109893481Y-124033553D01*
X109901701Y-124030001D01*
X109901878Y-124030000D01*
X110078122Y-124030000D01*
X110086395Y-124033427D01*
G37*
%TD.AperFunction*%
%TD*%
%TA.AperFunction,Conductor*%
%TO.N,/MCU and RX/I2C1_SDA*%
G36*
X107830796Y-122858060D02*
G01*
X107961504Y-122893460D01*
X107962941Y-122893953D01*
X108060481Y-122934764D01*
X108188405Y-122982517D01*
X108188408Y-122982518D01*
X108264785Y-122995315D01*
X108272105Y-122995656D01*
X108354042Y-122999479D01*
X108362146Y-123003287D01*
X108365196Y-123011166D01*
X108365196Y-123188862D01*
X108361769Y-123197135D01*
X108354073Y-123200548D01*
X108298133Y-123203308D01*
X108260178Y-123205181D01*
X108260174Y-123205181D01*
X108260168Y-123205182D01*
X108181298Y-123219250D01*
X108181297Y-123219250D01*
X108060479Y-123265236D01*
X107992366Y-123294905D01*
X107990944Y-123295418D01*
X107830964Y-123341671D01*
X107822064Y-123340676D01*
X107816474Y-123333681D01*
X107816248Y-123332759D01*
X107808668Y-123295418D01*
X107769472Y-123102325D01*
X107769472Y-123097674D01*
X107816291Y-122867029D01*
X107821295Y-122859604D01*
X107830085Y-122857892D01*
X107830796Y-122858060D01*
G37*
%TD.AperFunction*%
%TD*%
%TA.AperFunction,Conductor*%
%TO.N,/MCU and RX/I2C1_SCL*%
G36*
X109586395Y-124033427D02*
G01*
X109589822Y-124041700D01*
X109589821Y-124041877D01*
X109589507Y-124062655D01*
X109589507Y-124062660D01*
X109588841Y-124105461D01*
X109596909Y-124228782D01*
X109618030Y-124289895D01*
X109620867Y-124298104D01*
X109650291Y-124322376D01*
X109654492Y-124330283D01*
X109652660Y-124337768D01*
X109499815Y-124573370D01*
X109492438Y-124578445D01*
X109483632Y-124576817D01*
X109480185Y-124573370D01*
X109328246Y-124339166D01*
X109326618Y-124330360D01*
X109331693Y-124322983D01*
X109331985Y-124322799D01*
X109345928Y-124314407D01*
X109363878Y-124289898D01*
X109384513Y-124220302D01*
X109390493Y-124062661D01*
X109390179Y-124041876D01*
X109393481Y-124033553D01*
X109401701Y-124030001D01*
X109401878Y-124030000D01*
X109578122Y-124030000D01*
X109586395Y-124033427D01*
G37*
%TD.AperFunction*%
%TD*%
%TA.AperFunction,Conductor*%
%TO.N,/MCU and RX/I2C1_SCL*%
G36*
X108430796Y-123458060D02*
G01*
X108561504Y-123493460D01*
X108562941Y-123493953D01*
X108660481Y-123534764D01*
X108788405Y-123582517D01*
X108788408Y-123582518D01*
X108864785Y-123595315D01*
X108872105Y-123595656D01*
X108954042Y-123599479D01*
X108962146Y-123603287D01*
X108965196Y-123611166D01*
X108965196Y-123788862D01*
X108961769Y-123797135D01*
X108954073Y-123800548D01*
X108898133Y-123803308D01*
X108860178Y-123805181D01*
X108860174Y-123805181D01*
X108860168Y-123805182D01*
X108781298Y-123819250D01*
X108781297Y-123819250D01*
X108660479Y-123865236D01*
X108592366Y-123894905D01*
X108590944Y-123895418D01*
X108430964Y-123941671D01*
X108422064Y-123940676D01*
X108416474Y-123933681D01*
X108416248Y-123932759D01*
X108408668Y-123895418D01*
X108369472Y-123702325D01*
X108369472Y-123697674D01*
X108416291Y-123467029D01*
X108421295Y-123459604D01*
X108430085Y-123457892D01*
X108430796Y-123458060D01*
G37*
%TD.AperFunction*%
%TD*%
%TA.AperFunction,Conductor*%
%TO.N,/MCU and RX/CH4*%
G36*
X110967915Y-118509341D02*
G01*
X110973523Y-118516322D01*
X110973758Y-118517273D01*
X111020527Y-118747672D01*
X111020527Y-118752328D01*
X110973697Y-118983023D01*
X110968693Y-118990449D01*
X110959903Y-118992161D01*
X110959222Y-118992001D01*
X110829745Y-118957545D01*
X110828383Y-118957092D01*
X110731246Y-118917972D01*
X110605206Y-118872476D01*
X110605196Y-118872473D01*
X110527497Y-118859684D01*
X110435971Y-118855509D01*
X110427862Y-118851709D01*
X110424804Y-118843821D01*
X110424804Y-118666113D01*
X110428231Y-118657840D01*
X110435901Y-118654428D01*
X110529411Y-118649615D01*
X110607981Y-118635014D01*
X110727951Y-118587487D01*
X110800958Y-118554633D01*
X110802450Y-118554082D01*
X110959013Y-118508370D01*
X110967915Y-118509341D01*
G37*
%TD.AperFunction*%
%TD*%
%TA.AperFunction,Conductor*%
%TO.N,/MCU and RX/CH4*%
G36*
X101560735Y-116226006D02*
G01*
X101565704Y-116233456D01*
X101565768Y-116233804D01*
X101593010Y-116397157D01*
X101593105Y-116397858D01*
X101609327Y-116552112D01*
X101609381Y-116552858D01*
X101620037Y-116813578D01*
X101620042Y-116813721D01*
X101623918Y-116949118D01*
X101645115Y-117132494D01*
X101696771Y-117291844D01*
X101740260Y-117375492D01*
X101740269Y-117375508D01*
X101798330Y-117463507D01*
X101798338Y-117463517D01*
X101798340Y-117463520D01*
X101881078Y-117566696D01*
X101881079Y-117566697D01*
X101978956Y-117671024D01*
X101982117Y-117679402D01*
X101978696Y-117687302D01*
X101853265Y-117812733D01*
X101844992Y-117816160D01*
X101837027Y-117813029D01*
X101770192Y-117750895D01*
X101718433Y-117702777D01*
X101718423Y-117702768D01*
X101603293Y-117613763D01*
X101603290Y-117613760D01*
X101496675Y-117549510D01*
X101496672Y-117549508D01*
X101496671Y-117549508D01*
X101395387Y-117505858D01*
X101296239Y-117478649D01*
X101296230Y-117478647D01*
X101196036Y-117463717D01*
X101196027Y-117463716D01*
X100979654Y-117454041D01*
X100979653Y-117454040D01*
X100979653Y-117454041D01*
X100690578Y-117441056D01*
X100689445Y-117440950D01*
X100400126Y-117399533D01*
X100392422Y-117394968D01*
X100390202Y-117386293D01*
X100390302Y-117385706D01*
X100580771Y-116423973D01*
X100585740Y-116416525D01*
X100589972Y-116414772D01*
X101551956Y-116224252D01*
X101560735Y-116226006D01*
G37*
%TD.AperFunction*%
%TD*%
%TA.AperFunction,Conductor*%
%TO.N,/MCU and RX/CH2*%
G36*
X109467935Y-117509323D02*
G01*
X109473525Y-117516318D01*
X109473751Y-117517240D01*
X109520527Y-117747672D01*
X109520527Y-117752328D01*
X109473708Y-117982969D01*
X109468704Y-117990395D01*
X109459914Y-117992107D01*
X109459183Y-117991934D01*
X109328505Y-117956542D01*
X109327048Y-117956042D01*
X109229519Y-117915236D01*
X109165557Y-117891359D01*
X109101591Y-117867481D01*
X109025214Y-117854684D01*
X108935959Y-117850520D01*
X108927854Y-117846712D01*
X108924804Y-117838833D01*
X108924804Y-117661137D01*
X108928231Y-117652864D01*
X108935926Y-117649451D01*
X109029821Y-117644819D01*
X109108701Y-117630749D01*
X109229518Y-117584764D01*
X109297635Y-117555093D01*
X109299039Y-117554585D01*
X109459037Y-117508328D01*
X109467935Y-117509323D01*
G37*
%TD.AperFunction*%
%TD*%
%TA.AperFunction,Conductor*%
%TO.N,/MCU and RX/CH2*%
G36*
X106640735Y-116226006D02*
G01*
X106645704Y-116233456D01*
X106645768Y-116233804D01*
X106673010Y-116397157D01*
X106673105Y-116397858D01*
X106689327Y-116552112D01*
X106689381Y-116552858D01*
X106700037Y-116813578D01*
X106700042Y-116813721D01*
X106703918Y-116949118D01*
X106725115Y-117132494D01*
X106776771Y-117291844D01*
X106820260Y-117375492D01*
X106820269Y-117375508D01*
X106878330Y-117463507D01*
X106878338Y-117463517D01*
X106878340Y-117463520D01*
X106961078Y-117566696D01*
X106961079Y-117566697D01*
X107058956Y-117671024D01*
X107062117Y-117679402D01*
X107058696Y-117687302D01*
X106933265Y-117812733D01*
X106924992Y-117816160D01*
X106917027Y-117813029D01*
X106850192Y-117750895D01*
X106798433Y-117702777D01*
X106798423Y-117702768D01*
X106683293Y-117613763D01*
X106683290Y-117613760D01*
X106576675Y-117549510D01*
X106576672Y-117549508D01*
X106576671Y-117549508D01*
X106475387Y-117505858D01*
X106376239Y-117478649D01*
X106376230Y-117478647D01*
X106276036Y-117463717D01*
X106276027Y-117463716D01*
X106059654Y-117454041D01*
X106059653Y-117454040D01*
X106059653Y-117454041D01*
X105770578Y-117441056D01*
X105769445Y-117440950D01*
X105480126Y-117399533D01*
X105472422Y-117394968D01*
X105470202Y-117386293D01*
X105470302Y-117385706D01*
X105660771Y-116423973D01*
X105665740Y-116416525D01*
X105669972Y-116414772D01*
X106631956Y-116224252D01*
X106640735Y-116226006D01*
G37*
%TD.AperFunction*%
%TD*%
%TA.AperFunction,Conductor*%
%TO.N,/MCU and RX/CH3*%
G36*
X110217915Y-118009341D02*
G01*
X110223523Y-118016322D01*
X110223758Y-118017273D01*
X110270527Y-118247672D01*
X110270527Y-118252328D01*
X110223697Y-118483023D01*
X110218693Y-118490449D01*
X110209903Y-118492161D01*
X110209222Y-118492001D01*
X110079745Y-118457545D01*
X110078383Y-118457092D01*
X109981246Y-118417972D01*
X109855206Y-118372476D01*
X109855196Y-118372473D01*
X109777497Y-118359684D01*
X109685971Y-118355509D01*
X109677862Y-118351709D01*
X109674804Y-118343821D01*
X109674804Y-118166113D01*
X109678231Y-118157840D01*
X109685901Y-118154428D01*
X109779411Y-118149615D01*
X109857981Y-118135014D01*
X109977951Y-118087487D01*
X110050958Y-118054633D01*
X110052450Y-118054082D01*
X110209013Y-118008370D01*
X110217915Y-118009341D01*
G37*
%TD.AperFunction*%
%TD*%
%TA.AperFunction,Conductor*%
%TO.N,/MCU and RX/CH3*%
G36*
X104100550Y-116226043D02*
G01*
X104105519Y-116233493D01*
X104105611Y-116234022D01*
X104153046Y-116548648D01*
X104153144Y-116549514D01*
X104172715Y-116809489D01*
X104172717Y-116809566D01*
X104172721Y-116809566D01*
X104183560Y-116967404D01*
X104213663Y-117160286D01*
X104213664Y-117160290D01*
X104213665Y-117160293D01*
X104266203Y-117306959D01*
X104273931Y-117328533D01*
X104322669Y-117417625D01*
X104322677Y-117417638D01*
X104386663Y-117511600D01*
X104478144Y-117623732D01*
X104586540Y-117738650D01*
X104589724Y-117747019D01*
X104586302Y-117754950D01*
X104460919Y-117880333D01*
X104452646Y-117883760D01*
X104444652Y-117880603D01*
X104387724Y-117827333D01*
X104314963Y-117759247D01*
X104314952Y-117759238D01*
X104314943Y-117759230D01*
X104190616Y-117661024D01*
X104190611Y-117661021D01*
X104076045Y-117589153D01*
X104076035Y-117589148D01*
X104076029Y-117589144D01*
X104076016Y-117589138D01*
X103967390Y-117539091D01*
X103923496Y-117525599D01*
X103860848Y-117506342D01*
X103860841Y-117506340D01*
X103860839Y-117506340D01*
X103752595Y-117486379D01*
X103752578Y-117486377D01*
X103515609Y-117466724D01*
X103261950Y-117447803D01*
X103261086Y-117447706D01*
X102940034Y-117399601D01*
X102932360Y-117394986D01*
X102930197Y-117386296D01*
X102930282Y-117385804D01*
X103120771Y-116423973D01*
X103125740Y-116416525D01*
X103129972Y-116414772D01*
X104091770Y-116224289D01*
X104100550Y-116226043D01*
G37*
%TD.AperFunction*%
%TD*%
D35*
X119000000Y-110000000D02*
X100000000Y-110000000D01*
X99000000Y-111000000D02*
G75*
G02*
X100000000Y-110000000I1000000J0D01*
G01*
X120000000Y-140000000D02*
X120000000Y-111000000D01*
X100000000Y-141000000D02*
X119000000Y-141000000D01*
X99000000Y-111000000D02*
X99000000Y-140000000D01*
X120000000Y-140000000D02*
G75*
G02*
X119000000Y-141000000I-1000000J0D01*
G01*
X100000000Y-141000000D02*
G75*
G02*
X99000000Y-140000000I0J1000000D01*
G01*
X119000000Y-110000000D02*
G75*
G02*
X120000000Y-111000000I0J-1000000D01*
G01*
M02*
