%TF.GenerationSoftware,KiCad,Pcbnew,9.0.3-9.0.3-0~ubuntu24.04.1*%
%TF.CreationDate,2025-12-07T16:55:59+01:00*%
%TF.ProjectId,ant control board v2,616e7420-636f-46e7-9472-6f6c20626f61,2.1*%
%TF.SameCoordinates,Original*%
%TF.FileFunction,Paste,Bot*%
%TF.FilePolarity,Positive*%
%FSLAX46Y46*%
G04 Gerber Fmt 4.6, Leading zero omitted, Abs format (unit mm)*
G04 Created by KiCad (PCBNEW 9.0.3-9.0.3-0~ubuntu24.04.1) date 2025-12-07 16:55:59*
%MOMM*%
%LPD*%
G01*
G04 APERTURE LIST*
G04 Aperture macros list*
%AMRoundRect*
0 Rectangle with rounded corners*
0 $1 Rounding radius*
0 $2 $3 $4 $5 $6 $7 $8 $9 X,Y pos of 4 corners*
0 Add a 4 corners polygon primitive as box body*
4,1,4,$2,$3,$4,$5,$6,$7,$8,$9,$2,$3,0*
0 Add four circle primitives for the rounded corners*
1,1,$1+$1,$2,$3*
1,1,$1+$1,$4,$5*
1,1,$1+$1,$6,$7*
1,1,$1+$1,$8,$9*
0 Add four rect primitives between the rounded corners*
20,1,$1+$1,$2,$3,$4,$5,0*
20,1,$1+$1,$4,$5,$6,$7,0*
20,1,$1+$1,$6,$7,$8,$9,0*
20,1,$1+$1,$8,$9,$2,$3,0*%
%AMFreePoly0*
4,1,9,3.862500,-0.866500,0.737500,-0.866500,0.737500,-0.450000,-0.737500,-0.450000,-0.737500,0.450000,0.737500,0.450000,0.737500,0.866500,3.862500,0.866500,3.862500,-0.866500,3.862500,-0.866500,$1*%
G04 Aperture macros list end*
%ADD10RoundRect,0.135000X0.185000X-0.135000X0.185000X0.135000X-0.185000X0.135000X-0.185000X-0.135000X0*%
%ADD11RoundRect,0.135000X0.135000X0.185000X-0.135000X0.185000X-0.135000X-0.185000X0.135000X-0.185000X0*%
%ADD12RoundRect,0.135000X-0.135000X-0.185000X0.135000X-0.185000X0.135000X0.185000X-0.135000X0.185000X0*%
%ADD13RoundRect,0.150000X0.150000X-0.512500X0.150000X0.512500X-0.150000X0.512500X-0.150000X-0.512500X0*%
%ADD14RoundRect,0.140000X0.140000X0.170000X-0.140000X0.170000X-0.140000X-0.170000X0.140000X-0.170000X0*%
%ADD15RoundRect,0.225000X-0.425000X-0.225000X0.425000X-0.225000X0.425000X0.225000X-0.425000X0.225000X0*%
%ADD16FreePoly0,0.000000*%
%ADD17RoundRect,0.087500X0.225000X0.087500X-0.225000X0.087500X-0.225000X-0.087500X0.225000X-0.087500X0*%
%ADD18RoundRect,0.087500X0.087500X0.225000X-0.087500X0.225000X-0.087500X-0.225000X0.087500X-0.225000X0*%
%ADD19RoundRect,0.140000X-0.170000X0.140000X-0.170000X-0.140000X0.170000X-0.140000X0.170000X0.140000X0*%
%ADD20RoundRect,0.140000X-0.140000X-0.170000X0.140000X-0.170000X0.140000X0.170000X-0.140000X0.170000X0*%
%ADD21RoundRect,0.140000X0.170000X-0.140000X0.170000X0.140000X-0.170000X0.140000X-0.170000X-0.140000X0*%
%TA.AperFunction,Profile*%
%ADD22C,0.050000*%
%TD*%
G04 APERTURE END LIST*
D10*
%TO.C,R5*%
X105490000Y-129410000D03*
X105490000Y-128390000D03*
%TD*%
D11*
%TO.C,R4*%
X105500000Y-130600000D03*
X104480000Y-130600000D03*
%TD*%
D12*
%TO.C,R3*%
X104480000Y-131700000D03*
X105500000Y-131700000D03*
%TD*%
D13*
%TO.C,U8*%
X106653000Y-123637500D03*
X105703000Y-123637500D03*
X104753000Y-123637500D03*
X104753000Y-121362500D03*
X106653000Y-121362500D03*
%TD*%
D11*
%TO.C,R1*%
X113030000Y-116750000D03*
X112010000Y-116750000D03*
%TD*%
D14*
%TO.C,C10*%
X109970000Y-127700000D03*
X109010000Y-127700000D03*
%TD*%
D15*
%TO.C,U1*%
X111740000Y-131562500D03*
D16*
X111827500Y-130062500D03*
D15*
X111740000Y-128562500D03*
%TD*%
D17*
%TO.C,U5*%
X110652500Y-124750000D03*
X110652500Y-125250000D03*
X110652500Y-125750000D03*
X110652500Y-126250000D03*
D18*
X109990000Y-126412500D03*
X109490000Y-126412500D03*
X108990000Y-126412500D03*
D17*
X108327500Y-126250000D03*
X108327500Y-125750000D03*
X108327500Y-125250000D03*
X108327500Y-124750000D03*
D18*
X108990000Y-124587500D03*
X109490000Y-124587500D03*
X109990000Y-124587500D03*
%TD*%
D19*
%TO.C,C19*%
X107703000Y-119957000D03*
X107703000Y-120917000D03*
%TD*%
%TO.C,C3*%
X112670000Y-133070000D03*
X112670000Y-134030000D03*
%TD*%
D12*
%TO.C,R2*%
X117010000Y-116750000D03*
X118030000Y-116750000D03*
%TD*%
D19*
%TO.C,C2*%
X113620000Y-133070000D03*
X113620000Y-134030000D03*
%TD*%
D20*
%TO.C,C4*%
X111690000Y-126900000D03*
X112650000Y-126900000D03*
%TD*%
D21*
%TO.C,C8*%
X104490000Y-129380000D03*
X104490000Y-128420000D03*
%TD*%
D19*
%TO.C,C1*%
X114570000Y-133070000D03*
X114570000Y-134030000D03*
%TD*%
D21*
%TO.C,C9*%
X107090000Y-126380000D03*
X107090000Y-125420000D03*
%TD*%
D22*
X119000000Y-110000000D02*
X100000000Y-110000000D01*
X99000000Y-111000000D02*
G75*
G02*
X100000000Y-110000000I1000000J0D01*
G01*
X120000000Y-140000000D02*
X120000000Y-111000000D01*
X100000000Y-141000000D02*
X119000000Y-141000000D01*
X99000000Y-111000000D02*
X99000000Y-140000000D01*
X120000000Y-140000000D02*
G75*
G02*
X119000000Y-141000000I-1000000J0D01*
G01*
X100000000Y-141000000D02*
G75*
G02*
X99000000Y-140000000I0J1000000D01*
G01*
X119000000Y-110000000D02*
G75*
G02*
X120000000Y-111000000I0J-1000000D01*
G01*
M02*
