%TF.GenerationSoftware,KiCad,Pcbnew,9.0.3-9.0.3-0~ubuntu24.04.1*%
%TF.CreationDate,2025-12-07T16:55:59+01:00*%
%TF.ProjectId,ant control board v2,616e7420-636f-46e7-9472-6f6c20626f61,2.1*%
%TF.SameCoordinates,Original*%
%TF.FileFunction,Soldermask,Top*%
%TF.FilePolarity,Negative*%
%FSLAX46Y46*%
G04 Gerber Fmt 4.6, Leading zero omitted, Abs format (unit mm)*
G04 Created by KiCad (PCBNEW 9.0.3-9.0.3-0~ubuntu24.04.1) date 2025-12-07 16:55:59*
%MOMM*%
%LPD*%
G01*
G04 APERTURE LIST*
G04 Aperture macros list*
%AMRoundRect*
0 Rectangle with rounded corners*
0 $1 Rounding radius*
0 $2 $3 $4 $5 $6 $7 $8 $9 X,Y pos of 4 corners*
0 Add a 4 corners polygon primitive as box body*
4,1,4,$2,$3,$4,$5,$6,$7,$8,$9,$2,$3,0*
0 Add four circle primitives for the rounded corners*
1,1,$1+$1,$2,$3*
1,1,$1+$1,$4,$5*
1,1,$1+$1,$6,$7*
1,1,$1+$1,$8,$9*
0 Add four rect primitives between the rounded corners*
20,1,$1+$1,$2,$3,$4,$5,0*
20,1,$1+$1,$4,$5,$6,$7,0*
20,1,$1+$1,$6,$7,$8,$9,0*
20,1,$1+$1,$8,$9,$2,$3,0*%
G04 Aperture macros list end*
%ADD10RoundRect,0.140000X0.170000X-0.140000X0.170000X0.140000X-0.170000X0.140000X-0.170000X-0.140000X0*%
%ADD11C,0.500000*%
%ADD12RoundRect,0.375000X0.375000X-0.625000X0.375000X0.625000X-0.375000X0.625000X-0.375000X-0.625000X0*%
%ADD13RoundRect,0.300000X0.970000X-0.700000X0.970000X0.700000X-0.970000X0.700000X-0.970000X-0.700000X0*%
%ADD14RoundRect,0.135000X0.135000X0.185000X-0.135000X0.185000X-0.135000X-0.185000X0.135000X-0.185000X0*%
%ADD15R,0.400000X0.250000*%
%ADD16R,0.400000X0.700000*%
%ADD17RoundRect,0.135000X0.185000X-0.135000X0.185000X0.135000X-0.185000X0.135000X-0.185000X-0.135000X0*%
%ADD18RoundRect,0.140000X-0.140000X-0.170000X0.140000X-0.170000X0.140000X0.170000X-0.140000X0.170000X0*%
%ADD19RoundRect,0.135000X-0.185000X0.135000X-0.185000X-0.135000X0.185000X-0.135000X0.185000X0.135000X0*%
%ADD20C,0.650000*%
%ADD21R,0.600000X1.150000*%
%ADD22R,0.300000X1.150000*%
%ADD23O,1.250000X2.500000*%
%ADD24RoundRect,0.300000X-0.700000X-0.970000X0.700000X-0.970000X0.700000X0.970000X-0.700000X0.970000X0*%
%ADD25RoundRect,0.112500X0.112500X-0.187500X0.112500X0.187500X-0.112500X0.187500X-0.112500X-0.187500X0*%
%ADD26C,2.000000*%
%ADD27R,0.900000X1.700000*%
%ADD28RoundRect,0.075000X-0.662500X-0.075000X0.662500X-0.075000X0.662500X0.075000X-0.662500X0.075000X0*%
%ADD29RoundRect,0.075000X-0.075000X-0.662500X0.075000X-0.662500X0.075000X0.662500X-0.075000X0.662500X0*%
%ADD30RoundRect,0.135000X-0.135000X-0.185000X0.135000X-0.185000X0.135000X0.185000X-0.135000X0.185000X0*%
%ADD31RoundRect,0.062500X0.062500X-0.187500X0.062500X0.187500X-0.062500X0.187500X-0.062500X-0.187500X0*%
%ADD32R,1.600000X0.900000*%
%ADD33RoundRect,0.375000X0.625000X0.375000X-0.625000X0.375000X-0.625000X-0.375000X0.625000X-0.375000X0*%
%ADD34RoundRect,0.140000X-0.170000X0.140000X-0.170000X-0.140000X0.170000X-0.140000X0.170000X0.140000X0*%
%ADD35RoundRect,0.140000X0.140000X0.170000X-0.140000X0.170000X-0.140000X-0.170000X0.140000X-0.170000X0*%
%ADD36RoundRect,0.300000X-0.970000X0.700000X-0.970000X-0.700000X0.970000X-0.700000X0.970000X0.700000X0*%
%ADD37RoundRect,0.250000X-0.625000X0.375000X-0.625000X-0.375000X0.625000X-0.375000X0.625000X0.375000X0*%
%TA.AperFunction,Profile*%
%ADD38C,0.050000*%
%TD*%
G04 APERTURE END LIST*
D10*
%TO.C,C15*%
X105690000Y-120730000D03*
X105690000Y-119770000D03*
%TD*%
D11*
%TO.C,J10*%
X102647200Y-119711200D03*
X102640000Y-118300000D03*
D12*
X102190000Y-119000000D03*
D11*
X101732800Y-119711200D03*
X101732800Y-118288800D03*
X100654400Y-118300000D03*
X100640000Y-119700000D03*
D12*
X100190000Y-119000000D03*
D11*
X99740000Y-119700000D03*
X99740000Y-118300000D03*
%TD*%
%TO.C,J7*%
X99721000Y-135055000D03*
X101499000Y-135055000D03*
D13*
X100610000Y-134420000D03*
D11*
X99721000Y-133785000D03*
X101499000Y-133785000D03*
X99721000Y-132515000D03*
X101499000Y-132515000D03*
D13*
X100610000Y-131880000D03*
D11*
X99721000Y-131245000D03*
X101499000Y-131245000D03*
X99721000Y-129975000D03*
X101499000Y-129975000D03*
D13*
X100610000Y-129340000D03*
D11*
X99721000Y-128705000D03*
X101499000Y-128705000D03*
%TD*%
D10*
%TO.C,C13*%
X104690000Y-120730000D03*
X104690000Y-119770000D03*
%TD*%
D14*
%TO.C,R9*%
X107680000Y-118700000D03*
X106660000Y-118700000D03*
%TD*%
D10*
%TO.C,C6*%
X107190000Y-134680000D03*
X107190000Y-133720000D03*
%TD*%
D15*
%TO.C,Q1*%
X115340000Y-135075000D03*
X115340000Y-135525000D03*
D16*
X116040000Y-135300000D03*
%TD*%
D10*
%TO.C,C18*%
X103690000Y-126730000D03*
X103690000Y-125770000D03*
%TD*%
D17*
%TO.C,R11*%
X116153000Y-133146000D03*
X116153000Y-132126000D03*
%TD*%
D18*
%TO.C,C5*%
X103890000Y-132300000D03*
X104850000Y-132300000D03*
%TD*%
D19*
%TO.C,R6*%
X103703000Y-127577000D03*
X103703000Y-128597000D03*
%TD*%
D20*
%TO.C,J3*%
X117890000Y-115680000D03*
X112110000Y-115680000D03*
D21*
X118200000Y-116755000D03*
X117400000Y-116755000D03*
D22*
X116750000Y-116755000D03*
X116250000Y-116755000D03*
X115750000Y-116755000D03*
X115250000Y-116755000D03*
X114750000Y-116755000D03*
X114250000Y-116755000D03*
X113750000Y-116755000D03*
X113250000Y-116755000D03*
D21*
X112600000Y-116755000D03*
X111800000Y-116755000D03*
D23*
X119320000Y-116180000D03*
X119320000Y-112000000D03*
X110680000Y-116180000D03*
X110680000Y-112000000D03*
%TD*%
D14*
%TO.C,R8*%
X107680000Y-119700000D03*
X106660000Y-119700000D03*
%TD*%
D11*
%TO.C,J5*%
X105055000Y-138611000D03*
X105055000Y-140389000D03*
D24*
X105690000Y-139500000D03*
D11*
X106325000Y-138611000D03*
X106325000Y-140389000D03*
X107595000Y-138611000D03*
X107595000Y-140389000D03*
D24*
X108230000Y-139500000D03*
D11*
X108865000Y-138611000D03*
X108865000Y-140389000D03*
%TD*%
%TO.C,J8*%
X117501000Y-140135000D03*
X119279000Y-140135000D03*
D13*
X118390000Y-139500000D03*
D11*
X117501000Y-138865000D03*
X119279000Y-138865000D03*
X117501000Y-137595000D03*
X119279000Y-137595000D03*
D13*
X118390000Y-136960000D03*
D11*
X117501000Y-136325000D03*
X119279000Y-136325000D03*
X117501000Y-135055000D03*
X119279000Y-135055000D03*
D13*
X118390000Y-134420000D03*
D11*
X117501000Y-133785000D03*
X119279000Y-133785000D03*
%TD*%
D18*
%TO.C,C16*%
X113810000Y-121850000D03*
X114770000Y-121850000D03*
%TD*%
D25*
%TO.C,D1*%
X118890000Y-120550000D03*
X118890000Y-118450000D03*
%TD*%
D11*
%TO.C,J6*%
X110135000Y-138611000D03*
X110135000Y-140389000D03*
D24*
X110770000Y-139500000D03*
D11*
X111405000Y-138611000D03*
X111405000Y-140389000D03*
X112675000Y-138611000D03*
X112675000Y-140389000D03*
D24*
X113310000Y-139500000D03*
D11*
X113945000Y-138611000D03*
X113945000Y-140389000D03*
%TD*%
D26*
%TO.C,U7*%
X108203000Y-111337000D03*
X108203000Y-113877000D03*
X108203000Y-116417000D03*
X105663000Y-111337000D03*
X105663000Y-113877000D03*
X105663000Y-116417000D03*
X103123000Y-111337000D03*
X103123000Y-113877000D03*
X103123000Y-116417000D03*
X100583000Y-111337000D03*
X100583000Y-113877000D03*
X100583000Y-116417000D03*
%TD*%
D27*
%TO.C,SW1*%
X116990000Y-119650000D03*
X113590000Y-119650000D03*
%TD*%
D10*
%TO.C,C7*%
X111190000Y-134680000D03*
X111190000Y-133720000D03*
%TD*%
D11*
%TO.C,J4*%
X99975000Y-138611000D03*
X99975000Y-140389000D03*
D24*
X100610000Y-139500000D03*
D11*
X101245000Y-138611000D03*
X101245000Y-140389000D03*
X102515000Y-138611000D03*
X102515000Y-140389000D03*
D24*
X103150000Y-139500000D03*
D11*
X103785000Y-138611000D03*
X103785000Y-140389000D03*
%TD*%
D28*
%TO.C,U6*%
X105337500Y-122750000D03*
X105337500Y-123250000D03*
X105337500Y-123750000D03*
X105337500Y-124250000D03*
X105337500Y-124750000D03*
X105337500Y-125250000D03*
X105337500Y-125750000D03*
X105337500Y-126250000D03*
X105337500Y-126750000D03*
X105337500Y-127250000D03*
X105337500Y-127750000D03*
X105337500Y-128250000D03*
D29*
X106750000Y-129662500D03*
X107250000Y-129662500D03*
X107750000Y-129662500D03*
X108250000Y-129662500D03*
X108750000Y-129662500D03*
X109250000Y-129662500D03*
X109750000Y-129662500D03*
X110250000Y-129662500D03*
X110750000Y-129662500D03*
X111250000Y-129662500D03*
X111750000Y-129662500D03*
X112250000Y-129662500D03*
D28*
X113662500Y-128250000D03*
X113662500Y-127750000D03*
X113662500Y-127250000D03*
X113662500Y-126750000D03*
X113662500Y-126250000D03*
X113662500Y-125750000D03*
X113662500Y-125250000D03*
X113662500Y-124750000D03*
X113662500Y-124250000D03*
X113662500Y-123750000D03*
X113662500Y-123250000D03*
X113662500Y-122750000D03*
D29*
X112250000Y-121337500D03*
X111750000Y-121337500D03*
X111250000Y-121337500D03*
X110750000Y-121337500D03*
X110250000Y-121337500D03*
X109750000Y-121337500D03*
X109250000Y-121337500D03*
X108750000Y-121337500D03*
X108250000Y-121337500D03*
X107750000Y-121337500D03*
X107250000Y-121337500D03*
X106750000Y-121337500D03*
%TD*%
D30*
%TO.C,R10*%
X115180000Y-134100000D03*
X116200000Y-134100000D03*
%TD*%
D31*
%TO.C,U2*%
X104440000Y-135650000D03*
X104940000Y-135650000D03*
X105440000Y-135650000D03*
X105940000Y-135650000D03*
X105940000Y-133750000D03*
X105440000Y-133750000D03*
X104940000Y-133750000D03*
X104440000Y-133750000D03*
D32*
X105190000Y-134700000D03*
%TD*%
D11*
%TO.C,J9*%
X100981200Y-120940896D03*
X99570000Y-120948096D03*
D33*
X100270000Y-121398096D03*
D11*
X100981200Y-121855296D03*
X99558800Y-121855296D03*
X99570000Y-122933696D03*
X100970000Y-122948096D03*
D33*
X100270000Y-123398096D03*
D11*
X100970000Y-123848096D03*
X99570000Y-123848096D03*
X99570000Y-124933696D03*
X100970000Y-124948096D03*
D33*
X100270000Y-125398096D03*
D11*
X100970000Y-125848096D03*
X99570000Y-125848096D03*
%TD*%
D34*
%TO.C,C17*%
X113220000Y-129770000D03*
X113220000Y-130730000D03*
%TD*%
D18*
%TO.C,C11*%
X103723000Y-129587000D03*
X104683000Y-129587000D03*
%TD*%
D19*
%TO.C,R7*%
X112290000Y-118790000D03*
X112290000Y-119810000D03*
%TD*%
D35*
%TO.C,C14*%
X104920000Y-121750000D03*
X103960000Y-121750000D03*
%TD*%
D11*
%TO.C,J1*%
X119279000Y-127705000D03*
X117501000Y-127705000D03*
D36*
X118390000Y-128340000D03*
D11*
X119279000Y-128975000D03*
X117501000Y-128975000D03*
X119279000Y-130245000D03*
X117501000Y-130245000D03*
D36*
X118390000Y-130880000D03*
D11*
X119279000Y-131515000D03*
X117501000Y-131515000D03*
%TD*%
D31*
%TO.C,U3*%
X108440000Y-135650000D03*
X108940000Y-135650000D03*
X109440000Y-135650000D03*
X109940000Y-135650000D03*
X109940000Y-133750000D03*
X109440000Y-133750000D03*
X108940000Y-133750000D03*
X108440000Y-133750000D03*
D32*
X109190000Y-134700000D03*
%TD*%
D31*
%TO.C,U4*%
X112440000Y-135650000D03*
X112940000Y-135650000D03*
X113440000Y-135650000D03*
X113940000Y-135650000D03*
X113940000Y-133750000D03*
X113440000Y-133750000D03*
X112940000Y-133750000D03*
X112440000Y-133750000D03*
D32*
X113190000Y-134700000D03*
%TD*%
D37*
%TO.C,D2*%
X115690000Y-137100000D03*
X115690000Y-139900000D03*
%TD*%
D11*
%TO.C,J2*%
X119279000Y-122625000D03*
X117501000Y-122625000D03*
D36*
X118390000Y-123260000D03*
D11*
X119279000Y-123895000D03*
X117501000Y-123895000D03*
X119279000Y-125165000D03*
X117501000Y-125165000D03*
D36*
X118390000Y-125800000D03*
D11*
X119279000Y-126435000D03*
X117501000Y-126435000D03*
%TD*%
D38*
X119000000Y-110000000D02*
X100000000Y-110000000D01*
X99000000Y-111000000D02*
G75*
G02*
X100000000Y-110000000I1000000J0D01*
G01*
X120000000Y-140000000D02*
X120000000Y-111000000D01*
X100000000Y-141000000D02*
X119000000Y-141000000D01*
X99000000Y-111000000D02*
X99000000Y-140000000D01*
X120000000Y-140000000D02*
G75*
G02*
X119000000Y-141000000I-1000000J0D01*
G01*
X100000000Y-141000000D02*
G75*
G02*
X99000000Y-140000000I0J1000000D01*
G01*
X119000000Y-110000000D02*
G75*
G02*
X120000000Y-111000000I0J-1000000D01*
G01*
M02*
