<?xml version="1.0" encoding="UTF-8" standalone="no"?>
<!-- Created with Inkscape (http://www.inkscape.org/) -->

<svg
   width="512"
   height="512"
   viewBox="0 0 512.00002 512.00002"
   version="1.1"
   id="svg1"
   xml:space="preserve"
   inkscape:version="1.4.2 (2aeb623e1d, 2025-05-12)"
   sodipodi:docname="icon.svg"
   xmlns:inkscape="http://www.inkscape.org/namespaces/inkscape"
   xmlns:sodipodi="http://sodipodi.sourceforge.net/DTD/sodipodi-0.dtd"
   xmlns:xlink="http://www.w3.org/1999/xlink"
   xmlns="http://www.w3.org/2000/svg"
   xmlns:svg="http://www.w3.org/2000/svg"><sodipodi:namedview
     id="namedview1"
     pagecolor="#ffffff"
     bordercolor="#000000"
     borderopacity="0.25"
     inkscape:showpageshadow="2"
     inkscape:pageopacity="0.0"
     inkscape:pagecheckerboard="0"
     inkscape:deskcolor="#d1d1d1"
     inkscape:document-units="mm"
     inkscape:zoom="0.59178763"
     inkscape:cx="372.59988"
     inkscape:cy="2983.3337"
     inkscape:window-width="1920"
     inkscape:window-height="1043"
     inkscape:window-x="0"
     inkscape:window-y="0"
     inkscape:window-maximized="1"
     inkscape:current-layer="layer10"
     showgrid="true"><inkscape:page
       x="0"
       y="0"
       width="512"
       height="512"
       id="page169"
       margin="0"
       bleed="0" /><inkscape:page
       x="522"
       y="0"
       width="512"
       height="512"
       id="page170"
       margin="0"
       bleed="0" /><inkscape:page
       x="1044"
       y="0"
       width="512"
       height="512"
       id="page171"
       margin="0"
       bleed="0" /><inkscape:page
       x="1.1368684e-13"
       y="887.32391"
       width="512"
       height="512"
       id="page172"
       margin="0"
       bleed="0" /><inkscape:page
       x="522"
       y="894.11566"
       width="512"
       height="512"
       id="page174"
       margin="0"
       bleed="0" /><inkscape:page
       x="1064.8291"
       y="894.11566"
       width="512"
       height="512"
       id="page175"
       margin="0"
       bleed="0" /><inkscape:page
       x="1600.1844"
       y="894.11566"
       width="512"
       height="512"
       id="page176"
       margin="0"
       bleed="0"
       inkscape:export-filename="../82d31fda/FAC tool icona bianca.png"
       inkscape:export-xdpi="96"
       inkscape:export-ydpi="96" /><inkscape:page
       x="2338.9224"
       y="0"
       width="512"
       height="512"
       id="page177"
       margin="0"
       bleed="0"
       inkscape:export-filename="FAC tool icon 512.png"
       inkscape:export-xdpi="96"
       inkscape:export-ydpi="96" /><inkscape:page
       x="0"
       y="1795.4316"
       width="512"
       height="512"
       id="page1"
       margin="0"
       bleed="0" /><inkscape:page
       x="567.48962"
       y="1795.4316"
       width="512"
       height="512"
       id="page2"
       margin="0"
       bleed="0"
       inkscape:export-filename="../41ba0e05/FAC tool icona solo scritta ant.png"
       inkscape:export-xdpi="96"
       inkscape:export-ydpi="96" /><inkscape:page
       x="1157.9637"
       y="1795.4316"
       width="512"
       height="512"
       id="page3"
       margin="0"
       bleed="0"
       inkscape:export-filename="../7ea89a87/ant.png"
       inkscape:export-xdpi="96"
       inkscape:export-ydpi="96" /><inkscape:grid
       type="axonomgrid"
       id="grid3"
       units="mm"
       originx="0"
       originy="0"
       spacingx="3.7795277"
       spacingy="3.7795277"
       empcolor="#0099e5"
       empopacity="0.30196078"
       color="#0099e5"
       opacity="0.14902"
       empspacing="5"
       dotted="false"
       gridanglex="30"
       gridanglez="30"
       enabled="false"
       visible="true" /><inkscape:grid
       type="modular"
       id="grid4"
       units="mm"
       originx="0"
       originy="0"
       spacingx="151.18111"
       spacingy="151.18111"
       empcolor="#0047cb"
       empopacity="0.30196078"
       color="#0099e5"
       opacity="0.14902"
       empspacing="0"
       marginx="0"
       marginy="0"
       gapx="37.795277"
       gapy="37.795277"
       enabled="false"
       visible="true" /><inkscape:grid
       type="axonomgrid"
       id="grid5"
       units="mm"
       originx="0"
       originy="0"
       spacingx="3.7795277"
       spacingy="3.7795277"
       empcolor="#0099e5"
       empopacity="0.30196078"
       color="#0099e5"
       opacity="0.14902"
       empspacing="5"
       dotted="false"
       gridanglex="30"
       gridanglez="30"
       enabled="false"
       visible="true" /><inkscape:grid
       id="grid6"
       units="mm"
       originx="0"
       originy="0"
       spacingx="3.7795277"
       spacingy="3.7795277"
       empcolor="#0099e5"
       empopacity="0.30196078"
       color="#0099e5"
       opacity="0.14902"
       empspacing="5"
       enabled="false"
       visible="true" /><inkscape:grid
       id="grid7"
       units="mm"
       originx="0"
       originy="0"
       spacingx="3.7795277"
       spacingy="3.7795277"
       empcolor="#0099e5"
       empopacity="0.30196078"
       color="#0099e5"
       opacity="0.14902"
       empspacing="5"
       enabled="false"
       visible="true" /><inkscape:page
       x="0"
       y="2788.3416"
       width="512"
       height="512"
       id="page7"
       margin="0"
       bleed="0"
       inkscape:export-filename="../cece4bf2/icona verde scuro.png"
       inkscape:export-xdpi="96"
       inkscape:export-ydpi="96" /><inkscape:page
       x="574.45184"
       y="2789.7151"
       width="512"
       height="512"
       id="page9"
       margin="0"
       bleed="0" /></sodipodi:namedview><defs
     id="defs1"><linearGradient
       id="linearGradient11"
       inkscape:collect="always"><stop
         style="stop-color:#1b6f1b;stop-opacity:1;"
         offset="0.57333332"
         id="stop10" /><stop
         style="stop-color:#1b6f1b;stop-opacity:0;"
         offset="1"
         id="stop11" /></linearGradient><linearGradient
       id="linearGradient8"
       inkscape:collect="always"><stop
         style="stop-color:#00a8ff;stop-opacity:1;"
         offset="0.57333332"
         id="stop8" /><stop
         style="stop-color:#00a8ff;stop-opacity:0;"
         offset="1"
         id="stop9" /></linearGradient><radialGradient
       inkscape:collect="always"
       xlink:href="#linearGradient11"
       id="radialGradient9"
       cx="255.64855"
       cy="3046.004"
       fx="255.64855"
       fy="3046.004"
       r="234.50965"
       gradientTransform="matrix(1,0,0,0.60945867,0,1194.9137)"
       gradientUnits="userSpaceOnUse" /><radialGradient
       inkscape:collect="always"
       xlink:href="#linearGradient8"
       id="radialGradient9-4"
       cx="255.64854"
       cy="3046.0039"
       fx="255.64854"
       fy="3046.0039"
       r="234.50964"
       gradientTransform="matrix(1.2541328,0,0,0.60945867,505.43403,1194.5974)"
       gradientUnits="userSpaceOnUse" /></defs><circle
     style="display:none;fill:none;fill-opacity:1;stroke:#000000;stroke-width:3.881;stroke-linecap:round;stroke-linejoin:round;stroke-miterlimit:10;stroke-dasharray:none;stroke-opacity:1;paint-order:fill markers stroke"
     id="path177-4"
     cx="1413.9637"
     cy="2051.4316"
     r="254.05946" /><circle
     style="display:none;fill:none;fill-opacity:1;stroke:#000000;stroke-width:3.881;stroke-linecap:round;stroke-linejoin:round;stroke-miterlimit:10;stroke-dasharray:none;stroke-opacity:1;paint-order:fill markers stroke"
     id="path177-4-3"
     cx="823.48962"
     cy="2051.4316"
     r="254.05946" /><circle
     style="display:none;fill:none;fill-opacity:1;stroke:#000000;stroke-width:3.77953;stroke-linecap:round;stroke-linejoin:round;stroke-miterlimit:10;stroke-dasharray:none;stroke-opacity:1;paint-order:fill markers stroke"
     id="path177"
     cx="2594.9224"
     cy="256"
     r="247.41679"
     sodipodi:insensitive="true" /><g
     inkscape:label="Layer 1"
     inkscape:groupmode="layer"
     id="layer1-7-5"
     transform="translate(341.03696,-73.779503)"
     style="display:inline"><path
       style="fill:#ed6f63;fill-opacity:1;stroke:#2d2926;stroke-width:9.59142;stroke-linecap:round;stroke-linejoin:round;stroke-dasharray:none;stroke-opacity:1;paint-order:fill markers stroke"
       d="m -153.7745,579.73419 -9.99818,-79.98551 q -8.12352,-3.12442 -15.30972,-7.49863 -7.1862,-4.3742 -14.05994,-9.37331 l -74.36153,31.24434 -68.73753,-118.72846 64.36333,-48.74115 q -0.62489,-4.37422 -0.62489,-8.43597 v -16.87195 q 0,-4.06177 0.62489,-8.43597 l -64.36333,-48.74115 68.73753,-118.72848 74.36153,31.24434 q 6.87374,-4.99909 14.37237,-9.3733 7.49866,-4.3742 14.99729,-7.49864 l 9.99818,-79.985484 h 137.475069 l 9.998186,79.985484 q 8.1235261,3.12444 15.3097227,7.49864 7.1861963,4.37421 14.0599493,9.3733 l 74.361511,-31.24434 68.737542,118.72848 -64.36334,48.74115 q 0.62489,4.3742 0.62489,8.43597 v 16.87195 q 0,4.06175 -1.24977,8.43597 l 64.36332,48.74115 -68.737529,118.72846 -73.736624,-31.24434 q -6.873753,4.99911 -14.3723932,9.37331 -7.4986394,4.37421 -14.9972788,7.49863 l -9.998186,79.98551 z"
       id="path1-6-6"
       inkscape:label="gear" /><text
       xml:space="preserve"
       style="font-style:normal;font-variant:normal;font-weight:normal;font-stretch:normal;font-size:114.377px;line-height:1;font-family:'Good Timing';-inkscape-font-specification:'Good Timing';text-align:center;letter-spacing:0px;writing-mode:lr-tb;direction:ltr;text-anchor:middle;fill:#2d2926;fill-opacity:1;stroke:none;stroke-width:15.7268;stroke-linecap:round;stroke-linejoin:round;stroke-miterlimit:10"
       x="-85.037064"
       y="309.76352"
       id="text3-7-1"><tspan
         sodipodi:role="line"
         id="tspan3-3-1"
         x="-85.037064"
         y="309.76352"
         style="line-height:1;letter-spacing:0px;fill:#2d2926;fill-opacity:1;stroke-width:15.7268"
         dy="0">F.   .C.</tspan><tspan
         sodipodi:role="line"
         x="-85.037071"
         y="424.1405"
         id="tspan4-6-5"
         style="line-height:1;letter-spacing:0px;fill:#2d2926;fill-opacity:1;stroke-width:15.7268">TOOL</tspan></text><path
       d="m -124.15933,320.82857 c 11.46686,8.34692 30.441282,3.31419 40.086033,-9.93559 1.504205,-2.06645 2.407845,-4.07415 2.710751,-6.02323 0.939118,1.1795 1.907683,2.31856 2.806473,3.46844 2.235281,2.80485 2.289741,4.51843 0.114905,6.65451 l -17.085746,17.25562 c -2.045741,2.04413 -1.630442,4.45412 0.273842,5.84027 1.985546,1.44531 3.761717,0.87864 5.560625,-0.91141 l 18.630183,-18.61068 c 4.220712,-4.18038 4.163448,-8.18933 -0.138061,-13.18033 l -15.17719,-17.55645 0.254344,-0.43479 c 2.361878,0.41744 4.746006,-0.38854 6.600044,-1.82847 l 13.737018,7.27204 c 5.56656,2.99802 9.900037,1.8133 13.527846,-3.17052 l 10.205131,-14.01962 c 1.445308,-1.98556 1.136645,-3.94578 -0.808268,-5.36152 -1.944914,-1.41572 -3.934717,-1.06645 -5.350452,0.87847 l -9.290756,12.76348 c -2.094156,2.87692 -4.312305,2.68786 -7.211507,1.13554 l -10.193259,-5.49811 c 0.468691,-1.58057 0.484131,-3.30514 -0.07905,-4.83069 l 0.294977,-0.40523 c 7.813538,3.82801 14.730466,2.41588 19.213505,-3.74284 3.775297,-5.18643 5.281255,-11.34293 4.775351,-17.29022 l 0.571116,-0.0184 c 5.994865,0.0246 9.762107,-3.61778 10.483279,-9.97367 l 0.470445,-5.67062 c 0.232879,-1.93789 -0.701913,-2.5271 -1.957895,-3.44135 -1.661389,-1.20935 -3.316467,-1.57568 -4.466801,0.005 -0.530931,0.72937 -0.704372,1.22308 -0.848339,2.35793 l -0.223209,4.7347 c -0.237043,3.05074 -1.564312,4.87412 -4.287266,5.12349 -0.350106,0.0551 -0.711217,0.0404 -1.072203,0.0254 -1.711539,-4.71721 -4.790085,-9.00368 -9.1256,-12.15957 -4.254608,-3.097 -9.239243,-4.67987 -14.183918,-4.86971 -0.114325,-0.26916 -0.25036,-0.67816 -0.305488,-1.02826 -0.58847,-2.59793 0.698345,-4.45076 3.56906,-5.5844 l 4.437017,-1.66741 c 1.035686,-0.48574 1.452199,-0.80252 1.983132,-1.53188 1.150332,-1.58031 0.293099,-3.04273 -1.368116,-4.25196 -1.256154,-0.91437 -2.104114,-1.62286 -3.876673,-0.80572 l -5.251648,2.19029 c -5.826701,2.63948 -8.135171,7.34376 -6.269473,13.04097 l 0.13621,0.40913 c -5.855611,1.31664 -11.361922,4.62309 -15.1668,9.85015 -4.483039,6.15872 -3.660759,13.20435 2.38317,19.46343 L -95.367565,259.9 c -1.624804,-0.0671 -3.261002,0.47767 -4.621078,1.4094 l -8.364497,-8.01041 c -2.40877,-2.31145 -3.22969,-4.33458 -1.13554,-7.21151 l 9.29075,-12.76346 c 1.415741,-1.94493 1.136643,-3.94579 -0.80827,-5.36152 -1.94492,-1.41573 -3.90532,-1.1072 -5.35064,0.87834 l -10.20511,14.01963 c -3.6278,4.98383 -3.42332,9.47181 1.14008,13.84757 l 11.14163,10.83754 c -0.8005,2.20682 -0.83466,4.7234 0.28824,6.84257 l -0.29497,0.40524 -21.4114,-9.07703 c -6.11199,-2.58916 -9.90393,-1.38211 -12.58496,3.91901 l -11.98497,23.44786 c -1.19122,2.23238 -1.14402,4.12633 0.84134,5.57151 1.90445,1.3863 4.32544,1.0409 5.64199,-1.53403 l 11.16991,-21.56187 c 1.36437,-2.72603 3.01176,-3.20079 6.36797,-1.9355 1.37028,0.50181 2.75203,1.07359 4.16289,1.60467 -1.76151,0.88733 -3.39453,2.36411 -4.89874,4.43055 -9.64475,13.2498 -8.60281,32.85278 2.82361,41.17027 z"
       id="path1-4"
       style="display:inline;fill:#2d2926;fill-opacity:1;stroke-width:2.13832" /></g><g
     inkscape:groupmode="layer"
     id="layer1"
     inkscape:label="Layer 2"
     transform="matrix(1.1298892,0,0,1.1298892,-101.05385,-33.251649)"><path
       style="display:inline;fill:#da5a2a;fill-opacity:1;stroke:#3b1877;stroke-width:8.48882;stroke-linecap:round;stroke-linejoin:round;stroke-dasharray:none;stroke-opacity:1;paint-order:fill markers stroke"
       d="m 717.16437,34.77952 -8.84882,70.79056 q -7.18966,2.76525 -13.54975,6.63661 -6.36009,3.87136 -12.44365,8.29577 l -65.8131,-27.65256 -60.83563,105.07973 56.96427,43.13799 q -0.55305,3.87136 -0.55305,7.46619 v 14.93239 q 0,3.59483 0.55305,7.46619 l -56.96427,43.13799 60.83563,105.07973 65.8131,-27.65256 q 6.08356,4.42441 12.72017,8.29577 6.63662,3.87135 13.27323,6.63661 l 8.84882,70.79055 h 121.67127 l 8.84882,-70.79055 q 7.18966,-2.76526 13.54975,-6.63661 6.36009,-3.87136 12.44365,-8.29577 l 65.81309,27.65256 60.83565,-105.07973 -56.96429,-43.13799 q 0.55305,-3.87136 0.55305,-7.46619 v -14.93239 q 0,-3.59483 -1.1061,-7.46619 L 999.77353,197.92963 938.9379,92.8499 873.67786,120.50246 q -6.08356,-4.42441 -12.72018,-8.29577 -6.63661,-3.87136 -13.27322,-6.63661 l -8.84882,-70.79056 z"
       id="path1-6-6-3"
       inkscape:label="gear" /><text
       xml:space="preserve"
       style="font-style:normal;font-variant:normal;font-weight:normal;font-stretch:normal;font-size:101.229px;line-height:1;font-family:'Good Timing';-inkscape-font-specification:'Good Timing';text-align:center;letter-spacing:0px;writing-mode:lr-tb;direction:ltr;text-anchor:middle;display:inline;fill:#3b1877;fill-opacity:1;stroke:none;stroke-width:13.919;stroke-linecap:round;stroke-linejoin:round;stroke-miterlimit:10"
       x="786.90802"
       y="230.20575"
       id="text3-7-1-8"><tspan
         sodipodi:role="line"
         id="tspan3-3-1-8"
         x="786.90802"
         y="230.20575"
         style="line-height:1;letter-spacing:0px;fill:#3b1877;fill-opacity:1;stroke-width:13.919"
         dy="0">F.   .C.</tspan><tspan
         sodipodi:role="line"
         x="786.90802"
         y="331.43475"
         id="tspan4-6-5-3"
         style="line-height:1;letter-spacing:0px;fill:#3b1877;fill-opacity:1;stroke-width:13.919">TOOL</tspan></text><path
       d="m 752.28337,239.99872 c 10.14862,7.38736 26.94173,2.9332 35.47771,-8.79338 1.33127,-1.82889 2.13103,-3.60579 2.39911,-5.33079 0.83116,1.04391 1.68839,2.05202 2.48384,3.06972 1.97832,2.48239 2.02652,3.99897 0.10174,5.88948 l -15.12156,15.2719 c -1.81057,1.80914 -1.443,3.94205 0.24236,5.16887 1.75729,1.27915 3.32927,0.77763 4.92139,-0.80664 l 16.48843,-16.47118 c 3.73549,-3.69979 3.6848,-7.24786 -0.1222,-11.6651 l -13.43241,-15.53813 0.22512,-0.38483 c 2.09034,0.36946 4.20039,-0.34386 5.84129,-1.61827 l 12.15779,6.43606 c 4.92663,2.65337 8.76193,1.60483 11.97268,-2.80604 l 9.03194,-12.40792 c 1.27915,-1.75728 1.00598,-3.49216 -0.71535,-4.74514 -1.72133,-1.25299 -3.48238,-0.94385 -4.73536,0.77748 l -8.22268,11.29616 c -1.85341,2.54619 -3.81656,2.37887 -6.38246,1.00502 l -9.02145,-4.86605 c 0.41481,-1.39886 0.42848,-2.92518 -0.07,-4.27536 l 0.26107,-0.35863 c 6.91528,3.38793 13.03703,2.13815 17.0047,-3.31255 3.34128,-4.5902 4.67411,-10.03893 4.22636,-15.30253 l 0.50546,-0.0162 c 5.3057,0.0218 8.63986,-3.20188 9.27811,-8.82709 l 0.41637,-5.01871 c 0.2061,-1.71512 -0.62121,-2.23659 -1.7328,-3.04573 -1.47042,-1.07033 -2.93521,-1.39456 -3.95331,0.004 -0.4699,0.64553 -0.62339,1.08247 -0.75081,2.08686 l -0.19755,4.1904 c -0.20979,2.70003 -1.38448,4.31378 -3.7944,4.53448 -0.30985,0.0488 -0.62946,0.0357 -0.94894,0.0225 -1.51477,-4.17492 -4.23941,-7.96861 -8.0765,-10.7617 -3.76551,-2.74096 -8.1771,-4.14186 -12.55334,-4.3099 -0.10116,-0.23819 -0.22157,-0.60018 -0.27036,-0.91004 -0.52082,-2.29927 0.61807,-3.93909 3.15876,-4.94238 l 3.92693,-1.47573 c 0.91663,-0.42991 1.28525,-0.71026 1.75516,-1.35579 1.01808,-1.39864 0.25939,-2.69293 -1.21085,-3.76314 -1.11175,-0.80926 -1.86222,-1.4363 -3.43099,-0.7131 l -4.64792,1.93849 c -5.15687,2.33603 -7.19995,6.49952 -5.54873,11.54176 l 0.12055,0.3621 c -5.18244,1.16528 -10.05575,4.09161 -13.42321,8.71777 -3.96766,5.45071 -3.23991,11.68635 2.1092,17.22588 l -0.26107,0.35865 c -1.43801,-0.0593 -2.88611,0.42277 -4.08982,1.24737 l -7.40292,-7.08951 c -2.13186,-2.04573 -2.8584,-3.8363 -1.005,-6.38248 l 8.22268,-11.29617 c 1.25298,-1.72132 1.00598,-3.49216 -0.71535,-4.74514 -1.72132,-1.25297 -3.45636,-0.97991 -4.7355,0.77736 l -9.03194,12.40792 c -3.21076,4.41087 -3.0298,8.38292 1.00901,12.25564 l 9.86078,9.59165 c -0.70848,1.95312 -0.73869,4.18039 0.25511,6.05594 l -0.26106,0.35864 -18.94992,-8.03351 c -5.40936,-2.29151 -8.76537,-1.22323 -11.13819,3.46849 l -10.60715,20.75226 c -1.05429,1.97573 -1.01253,3.65196 0.74461,4.931 1.68551,1.22692 3.82817,0.92123 4.99337,-1.35768 l 9.88582,-19.0831 c 1.20752,-2.41263 2.66552,-2.83281 5.63589,-1.71298 1.21275,0.4441 2.43567,0.95017 3.68432,1.42019 -1.559,0.78533 -3.00429,2.09233 -4.33556,3.92122 -8.53599,11.72657 -7.61384,29.07599 2.49899,36.43727 z"
       id="path1-4-1"
       style="display:inline;fill:#3b1877;fill-opacity:1;stroke-width:1.8925" /></g><g
     inkscape:groupmode="layer"
     id="layer1-4"
     inkscape:label="Layer 3"
     transform="matrix(1.1298892,0,0,1.1298892,419.94619,-34.501291)"><path
       style="display:inline;fill:#d6ed17;fill-opacity:1;stroke:#606060;stroke-width:8.48882;stroke-linecap:round;stroke-linejoin:round;stroke-dasharray:none;stroke-opacity:1;paint-order:fill markers stroke"
       d="m 717.16437,477.22048 -8.84882,-70.79056 q -7.18966,-2.76525 -13.54975,-6.63661 -6.36009,-3.87136 -12.44365,-8.29577 l -65.8131,27.65256 -60.83563,-105.07973 56.96427,-43.13799 q -0.55305,-3.87136 -0.55305,-7.46619 V 248.5338 q 0,-3.59483 0.55305,-7.46619 l -56.96427,-43.13799 60.83563,-105.07973 65.8131,27.65256 q 6.08356,-4.42441 12.72017,-8.29577 6.63662,-3.87135 13.27323,-6.63661 l 8.84882,-70.79055 h 121.67127 l 8.84882,70.79055 q 7.18966,2.76526 13.54975,6.63661 6.36009,3.87136 12.44365,8.29577 l 65.81309,-27.65256 60.83565,105.07973 -56.96429,43.13799 q 0.55305,3.87136 0.55305,7.46619 v 14.93239 q 0,3.59483 -1.1061,7.46619 l 56.96427,43.13799 -60.83563,105.07973 -65.26004,-27.65256 q -6.08356,4.42441 -12.72018,8.29577 -6.63661,3.87136 -13.27322,6.63661 l -8.84882,70.79056 z"
       id="path1-6-6-3-3"
       inkscape:label="gear" /><text
       xml:space="preserve"
       style="font-style:normal;font-variant:normal;font-weight:normal;font-stretch:normal;font-size:101.229px;line-height:1;font-family:'Good Timing';-inkscape-font-specification:'Good Timing';text-align:center;letter-spacing:0px;writing-mode:lr-tb;direction:ltr;text-anchor:middle;display:inline;fill:#606060;fill-opacity:1;stroke:none;stroke-width:13.919;stroke-linecap:round;stroke-linejoin:round;stroke-miterlimit:10"
       x="778.88495"
       y="239.3909"
       id="text3-7-1-8-3"><tspan
         sodipodi:role="line"
         id="tspan3-3-1-8-3"
         x="778.88495"
         y="239.3909"
         style="line-height:1;letter-spacing:0px;fill:#606060;fill-opacity:1;stroke-width:13.919"
         dy="0">F.   .C.</tspan><tspan
         sodipodi:role="line"
         x="778.88495"
         y="340.6199"
         id="tspan4-6-5-3-8"
         style="line-height:1;letter-spacing:0px;fill:#606060;fill-opacity:1;stroke-width:13.919">TOOL</tspan></text><path
       d="m 744.2601,249.18394 c 10.14868,7.38741 26.94188,2.93321 35.47792,-8.79343 1.33127,-1.82891 2.13104,-3.6058 2.39913,-5.33082 0.83115,1.04392 1.68839,2.05204 2.48385,3.06972 1.97831,2.48243 2.02653,3.99902 0.10171,5.88954 l -15.12163,15.27198 c -1.81055,1.80914 -1.44301,3.94208 0.24236,5.16889 1.7573,1.27917 3.3293,0.77762 4.92142,-0.80664 l 16.48853,-16.47128 c 3.73551,-3.6998 3.68482,-7.2479 -0.1222,-11.66517 l -13.43248,-15.53821 0.22511,-0.38482 c 2.09037,0.36947 4.20042,-0.34388 5.84132,-1.61828 l 12.15788,6.43609 c 4.92663,2.65338 8.76196,1.60483 11.97272,-2.80605 l 9.03199,-12.40799 c 1.27917,-1.75729 1.00599,-3.49218 -0.71535,-4.74517 -1.72133,-1.25299 -3.4824,-0.94385 -4.73538,0.77749 l -8.22273,11.29621 c -1.85342,2.54621 -3.81658,2.37888 -6.3825,1.00503 l -9.02149,-4.86606 c 0.41481,-1.39888 0.42848,-2.92521 -0.07,-4.27538 l 0.26106,-0.35866 c 6.91532,3.38796 13.0371,2.13817 17.00479,-3.31256 3.34131,-4.59023 4.67414,-10.039 4.22639,-15.30262 l 0.50546,-0.0162 c 5.30573,0.0218 8.63991,-3.2019 9.27818,-8.82713 l 0.41636,-5.01876 c 0.20611,-1.71512 -0.62123,-2.23659 -1.73282,-3.04574 -1.47042,-1.07033 -2.93522,-1.39456 -3.95332,0.004 -0.46991,0.64555 -0.62339,1.0825 -0.75081,2.08688 l -0.19756,4.19044 c -0.2098,2.70004 -1.38449,4.31379 -3.79442,4.5345 -0.30986,0.0488 -0.62944,0.0355 -0.94893,0.0225 -1.51479,-4.17495 -4.23945,-7.96865 -8.07657,-10.76174 -3.76551,-2.74099 -8.17714,-4.14191 -12.5534,-4.30994 -0.10117,-0.2382 -0.22158,-0.60019 -0.27037,-0.91005 -0.52083,-2.29926 0.61808,-3.93909 3.15878,-4.94242 l 3.92697,-1.47573 c 0.91661,-0.4299 1.28525,-0.71025 1.75515,-1.35581 1.0181,-1.39863 0.25941,-2.69293 -1.21085,-3.76314 -1.11174,-0.80926 -1.86224,-1.43631 -3.43102,-0.71311 l -4.64794,1.93851 c -5.15688,2.33605 -7.19999,6.49955 -5.54875,11.54182 l 0.12054,0.36211 c -5.18246,1.16528 -10.0558,4.09163 -13.42327,8.71782 -3.9677,5.45073 -3.23995,11.68641 2.1092,17.22596 l -0.26106,0.35866 c -1.43803,-0.0594 -2.88614,0.42276 -4.08986,1.24738 l -7.40295,-7.08955 c -2.13188,-2.04575 -2.85842,-3.83633 -1.005,-6.38252 l 8.22272,-11.29623 c 1.25299,-1.72134 1.00598,-3.49217 -0.71536,-4.74516 -1.72133,-1.253 -3.45637,-0.97993 -4.73552,0.77737 l -9.03201,12.40798 c -3.21076,4.4109 -3.02979,8.38296 1.00903,12.2557 l 9.86082,9.59172 c -0.70845,1.95312 -0.73867,4.1804 0.25513,6.05596 l -0.26108,0.35866 -18.95001,-8.03357 c -5.40939,-2.29154 -8.76542,-1.22323 -11.13824,3.4685 l -10.60725,20.75279 c -1.05429,1.97576 -1.01251,3.65198 0.74463,4.93103 1.68551,1.22694 3.82819,0.92124 4.9934,-1.35767 l 9.88586,-19.08321 c 1.20754,-2.41265 2.66554,-2.83284 5.63594,-1.71301 1.21274,0.44412 2.43567,0.95018 3.68433,1.42021 -1.55901,0.78534 -3.00431,2.09233 -4.33559,3.92123 -8.53603,11.72664 -7.61388,29.07616 2.49901,36.43748 z"
       id="path1-4-1-6"
       style="display:inline;fill:#606060;fill-opacity:1;stroke-width:1.89251" /></g><g
     inkscape:groupmode="layer"
     id="layer3"
     inkscape:label="Layer 4"><path
       d="m 242.08493,896.44558 c -13.3589,0 -20.0399,-0.002 -25.452,2.46094 -4.5729,2.08037 -8.4844,5.37618 -11.3126,9.5284 -3.3465,4.91564 -4.4853,11.49895 -6.7566,24.66472 l -4.2798,24.80745 c -1.527,8.8517 -2.2888,13.27674 -3.9064,16.67872 -1.5884,3.34055 -2.8882,5.1669 -5.5229,7.76269 -2.6834,2.6438 -7.649,5.38795 -17.5787,10.87743 -0.7325,0.40488 -1.4615,0.81484 -2.1871,1.22932 -9.4983,5.42474 -14.2474,8.13805 -17.7745,9.05645 -3.4638,0.9018 -5.6207,1.0867 -9.1878,0.7896 -3.6318,-0.3023 -7.7009,-1.7743 -15.8385,-4.71927 L 94.485731,989.51955 c -12.3229,-4.45973 -18.4852,-6.68926 -24.3264,-6.25941 -4.935,0.3629 -9.6799,2.05378 -13.732,4.89427 -4.7957,3.36193 -8.1576,8.98631 -14.8806,20.23549 l -12.5996,21.0849 c -7.0978,11.8763 -10.6482,17.8141 -11.2595,23.8958 -0.5162,5.1346 0.4278,10.3105 2.7212,14.9338 2.7158,5.4755 8.129,9.7801 18.9576,18.3915 l 19.8856,15.8154 c 6.9078,5.4917 10.3607,8.2403 12.5258,11.1836 2.3405,3.1848 3.3395,5.2528 4.3739,9.0657 0.9573,3.5276 0.9555,9.2059 0.9555,20.5624 0,11.3564 0,17.0343 -0.9555,20.5646 -1.0346,3.813 -2.0338,5.8814 -4.3739,9.0634 -2.1658,2.9461 -5.6199,5.6915 -12.5281,11.1859 l -19.8809,15.8109 c -10.8287,8.6133 -16.244,12.9181 -18.96,18.3961 -2.2935,4.6221 -3.2353,9.7986 -2.7189,14.9337 0.6116,6.0814 4.1594,12.0159 11.2572,23.8935 l 12.6017,21.085 c 6.7233,11.2494 10.085,16.8751 14.8807,20.2354 4.0525,2.842 8.7968,4.5318 13.7321,4.8966 5.841,0.4279 12.0032,-1.8019 24.3264,-6.2594 l 27.802499,-10.0625 c 8.1368,-2.946 12.2042,-4.4199 15.836,-4.7216 3.5671,-0.2963 5.7265,-0.1106 9.1902,0.7919 3.527,0.919 8.2738,3.6311 17.7721,9.0542 0.7257,0.4142 1.4548,0.8261 2.1871,1.2293 9.9297,5.4889 14.8955,8.2354 17.5787,10.8797 2.635,2.595 3.9345,4.4216 5.5229,7.7627 1.6176,3.4015 2.3794,7.8245 3.9064,16.6764 l 4.2798,24.8075 c 2.2713,13.1669 3.4101,19.7491 6.7566,24.6646 2.8282,4.1503 6.7397,7.4469 11.3126,9.5261 5.4121,2.4633 12.0931,2.4656 25.452,2.4656 h 27.8323 c 13.35895,0 20.03725,0 25.45205,-2.4656 4.5728,-2.0792 8.4844,-5.3758 11.3126,-9.5261 3.3466,-4.9155 4.483,-11.4977 6.7543,-24.6646 l 4.282,-24.8075 c 1.525,-8.8519 2.291,-13.2749 3.9067,-16.6764 1.5882,-3.3411 2.887,-5.1677 5.5203,-7.7627 2.6854,-2.6443 7.6516,-5.3908 17.5789,-10.8797 0.7324,-0.4032 1.4628,-0.8151 2.187,-1.2293 9.4993,-5.4231 14.2469,-8.1352 17.7747,-9.0542 3.4643,-0.9016 5.6212,-1.0882 9.1898,-0.7919 3.6318,0.3017 7.6978,1.7755 15.8339,4.7216 l 27.8047,10.0625 c 12.3221,4.4602 18.4863,6.6901 24.3263,6.2594 4.9349,-0.3648 9.6806,-2.0547 13.7321,-4.8966 4.795,-3.3603 8.1576,-8.986 14.8808,-20.2354 l 12.6017,-21.085 c 7.0964,-11.8749 10.6455,-17.8121 11.2573,-23.8935 0.5157,-5.1351 -0.428,-10.3116 -2.7212,-14.9337 -2.7157,-5.4753 -8.1306,-9.7828 -18.9577,-18.3961 l -19.8809,-15.8109 c -6.9099,-5.4944 -10.3638,-8.2398 -12.528,-11.1859 -2.3401,-3.182 -3.3371,-5.2504 -4.3742,-9.0634 -0.9571,-3.5276 -0.9576,-9.2082 -0.9576,-20.5646 0,-11.3565 4e-4,-17.0348 0.9576,-20.5624 1.0371,-3.8129 2.0342,-5.8809 4.3742,-9.0657 2.1642,-2.9433 5.6184,-5.6919 12.5256,-11.1836 l 19.8833,-15.8154 c 10.8297,-8.6117 16.2445,-12.9158 18.9602,-18.3915 2.293,-4.623 3.2345,-9.7989 2.7187,-14.9338 -0.6118,-6.0814 -4.1581,-12.0195 -11.2573,-23.8958 l -12.6017,-21.0849 c -6.7232,-11.24918 -10.0835,-16.87356 -14.8785,-20.23549 -4.0543,-2.84049 -8.7968,-4.53108 -13.7344,-4.89427 -5.84,-0.42985 -12.0014,1.7994 -24.3263,6.25941 l -27.8002,10.06248 c -8.1387,2.94497 -12.2066,4.41697 -15.8384,4.71927 -3.5686,0.2971 -5.7255,0.11 -9.1898,-0.7919 -3.5278,-0.9184 -8.2759,-3.62967 -17.7725,-9.05415 -0.7268,-0.41448 -1.4573,-0.82444 -2.1868,-1.22932 -9.9301,-5.48948 -14.8959,-8.23363 -17.5813,-10.87743 -2.6333,-2.59579 -3.9321,-4.42214 -5.5203,-7.76269 -1.6157,-3.40198 -2.3815,-7.82728 -3.9067,-16.67872 l -4.282,-24.80745 c -2.2713,-13.16577 -3.4077,-19.74908 -6.7543,-24.66472 -2.8282,-4.15222 -6.7398,-7.44803 -11.3126,-9.5284 -5.4148,-2.46275 -12.0931,-2.46094 -25.45205,-2.46094 z"
       style="fill:#ed6f63;fill-opacity:1;stroke:#2d2926;stroke-width:15.1181;stroke-linejoin:round;stroke-dasharray:none;stroke-opacity:1;paint-order:fill markers stroke"
       id="path174" /><text
       xml:space="preserve"
       style="font-style:normal;font-variant:normal;font-weight:normal;font-stretch:normal;font-size:108.023px;line-height:1;font-family:'Good Timing';-inkscape-font-specification:'Good Timing';text-align:center;letter-spacing:0px;writing-mode:lr-tb;direction:ltr;text-anchor:middle;display:inline;fill:#2d2926;fill-opacity:1;stroke:none;stroke-width:14.853;stroke-linecap:round;stroke-linejoin:round;stroke-miterlimit:10"
       x="255.99988"
       y="1124.4198"
       id="text3-7-1-8-3-8"><tspan
         sodipodi:role="line"
         id="tspan3-3-1-8-3-9"
         x="255.99988"
         y="1124.4198"
         style="line-height:1;letter-spacing:0px;fill:#2d2926;fill-opacity:1;stroke-width:14.853"
         dy="0">F.   .C.</tspan><tspan
         sodipodi:role="line"
         x="255.99989"
         y="1232.4427"
         id="tspan4-6-5-3-8-7"
         style="line-height:1;letter-spacing:0px;fill:#2d2926;fill-opacity:1;stroke-width:14.853">TOOL</tspan></text><path
       d="m 219.05153,1134.8701 c 10.8298,7.8831 28.7499,3.13 37.8587,-9.3835 1.4206,-1.9517 2.2741,-3.8478 2.5601,-5.6886 0.887,1.114 1.8016,2.1898 2.6506,3.2757 2.1111,2.6491 2.1625,4.2674 0.1086,6.2848 l -16.1364,16.2968 c -1.9321,1.9306 -1.5398,4.2066 0.2585,5.5158 1.8753,1.365 3.5527,0.8298 5.2518,-0.8608 l 17.5949,-17.5766 c 3.9861,-3.9481 3.9321,-7.7343 -0.1303,-12.448 l -14.334,-16.5809 0.2403,-0.4106 c 2.2306,0.3942 4.4823,-0.367 6.2333,-1.7269 l 12.9737,6.868 c 5.25715,2.8314 9.34995,1.7125 12.77605,-2.9944 l 9.6382,-13.2406 c 1.365,-1.8752 1.0735,-3.7265 -0.7634,-5.0636 -1.8368,-1.3371 -3.7161,-1.0072 -5.0531,0.8297 l -8.7745,12.0542 c -1.9779,2.7171 -4.0727,2.5385 -6.81075,1.0725 l -9.6269,-5.1926 c 0.4426,-1.4928 0.4573,-3.1215 -0.075,-4.5623 l 0.2785,-0.3827 c 7.3794,3.6153 13.91205,2.2816 18.14605,-3.5349 3.5655,-4.8982 4.9878,-10.7127 4.5099,-16.3295 l 0.5394,-0.017 c 5.6617,0.023 9.2197,-3.4168 9.9008,-9.4195 l 0.4444,-5.3555 c 0.2198,-1.8302 -0.663,-2.3867 -1.8492,-3.2501 -1.5691,-1.1422 -3.1321,-1.4882 -4.2186,0 -0.5014,0.6888 -0.6652,1.1551 -0.8011,2.2269 l -0.2109,4.4716 c -0.2239,2.8813 -1.4774,4.6033 -4.049,4.8388 -0.3308,0.052 -0.6718,0.038 -1.0127,0.024 -1.6164,-4.4551 -4.5239,-8.5034 -8.6185,-11.4839 -4.01805,-2.9249 -8.72595,-4.4198 -13.39575,-4.5992 -0.108,-0.2541 -0.2365,-0.6404 -0.2885,-0.9711 -0.5558,-2.4535 0.6596,-4.2034 3.3708,-5.2741 l 4.1905,-1.5747 c 0.978,-0.4588 1.3713,-0.7579 1.8728,-1.4468 1.0865,-1.4925 0.2768,-2.8737 -1.292,-4.0157 -1.1864,-0.8635 -1.9873,-1.5327 -3.6614,-0.7609 l -4.9598,2.0686 c -5.5029,2.4928 -7.6831,6.9357 -5.921,12.3163 l 0.1285,0.3864 c -5.5302,1.2435 -10.7305,4.3662 -14.324,9.3028 -4.234,5.8165 -3.4573,12.4707 2.2508,18.382 l -0.2786,0.3827 c -1.5346,-0.063 -3.0798,0.4511 -4.3644,1.3311 l -7.8995,-7.5653 c -2.275,-2.1831 -3.0504,-4.0938 -1.0726,-6.8108 l 8.7746,-12.0543 c 1.337,-1.8369 1.0734,-3.7265 -0.7635,-5.0636 -1.8367,-1.3371 -3.6883,-1.0457 -5.0533,0.8295 l -9.638,13.2407 c -3.4263,4.7069 -3.2331,8.9455 1.0766,13.0781 l 10.5226,10.2354 c -0.756,2.0842 -0.7882,4.4609 0.2723,6.4623 l -0.2786,0.3827 -20.2217,-8.5726 c -5.7724,-2.4454 -9.3535,-1.3053 -11.8857,3.7012 l -11.319,22.1454 c -1.1251,2.1084 -1.0805,3.8971 0.7946,5.262 1.7985,1.3093 4.085,0.9831 5.3285,-1.4488 l 10.5492,-20.3638 c 1.2885,-2.5745 2.8444,-3.0229 6.0142,-1.828 1.294,0.474 2.5991,1.014 3.9315,1.5156 -1.6636,0.838 -3.206,2.2327 -4.6266,4.1843 -9.1088,12.5136 -8.1247,31.0274 2.6668,38.8827 z"
       id="path1-4-1-6-7"
       style="display:inline;fill:#2d2926;fill-opacity:1;stroke-width:2.01951" /></g><g
     inkscape:groupmode="layer"
     id="layer4"
     inkscape:label="Layer 5"><path
       d="m 764.08493,903.23739 c -13.3589,0 -20.0399,-0.002 -25.452,2.46094 -4.5729,2.08037 -8.4844,5.37618 -11.3126,9.5284 -3.3465,4.91564 -4.4853,11.49895 -6.7566,24.66475 l -4.2798,24.8074 c -1.527,8.8517 -2.2888,13.2768 -3.9064,16.6787 -1.5884,3.3406 -2.8882,5.1669 -5.5229,7.7627 -2.6834,2.6438 -7.649,5.388 -17.5787,10.87752 -0.7325,0.4048 -1.4615,0.8148 -2.1871,1.2293 -9.4983,5.4247 -14.2474,8.138 -17.7745,9.0564 -3.4638,0.9018 -5.6207,1.0867 -9.1878,0.7896 -3.6318,-0.3023 -7.7009,-1.7743 -15.8385,-4.7192 l -27.8023,-10.06252 c -12.3229,-4.4598 -18.4852,-6.6893 -24.3264,-6.2594 -4.935,0.3629 -9.6799,2.0537 -13.732,4.8942 -4.7957,3.362 -8.1576,8.98632 -14.8806,20.23552 l -12.5996,21.0849 c -7.0978,11.8763 -10.6482,17.8141 -11.2595,23.8958 -0.5162,5.1346 0.4278,10.3105 2.7212,14.9338 2.7158,5.4755 8.129,9.7801 18.9576,18.3915 l 19.8856,15.8154 c 6.9078,5.4917 10.3607,8.2403 12.5258,11.1836 2.3405,3.1848 3.3395,5.2528 4.3739,9.0657 0.9573,3.5276 0.9555,9.2059 0.9555,20.5624 0,11.3564 0,17.0343 -0.9555,20.5646 -1.0346,3.813 -2.0338,5.8814 -4.3739,9.0634 -2.1658,2.9461 -5.6199,5.6915 -12.5281,11.1859 l -19.8809,15.8109 c -10.8287,8.6133 -16.244,12.9181 -18.96,18.3961 -2.2935,4.6221 -3.2353,9.7986 -2.7189,14.9337 0.6116,6.0814 4.1594,12.0159 11.2572,23.8935 l 12.6017,21.085 c 6.7233,11.2494 10.085,16.8751 14.8807,20.2354 4.0525,2.842 8.7968,4.5318 13.7321,4.8966 5.841,0.4279 12.0032,-1.8019 24.3264,-6.2594 l 27.8025,-10.0625 c 8.1368,-2.946 12.2042,-4.4199 15.836,-4.7216 3.5671,-0.2963 5.7265,-0.1106 9.1902,0.7919 3.527,0.919 8.2738,3.6311 17.7721,9.0542 0.7257,0.4142 1.4548,0.8261 2.1871,1.2293 9.9297,5.4889 14.8955,8.2354 17.5787,10.8797 2.635,2.595 3.9345,4.4216 5.5229,7.7627 1.6176,3.4015 2.3794,7.8245 3.9064,16.6764 l 4.2798,24.8075 c 2.2713,13.1669 3.4101,19.7491 6.7566,24.6646 2.8282,4.1503 6.7397,7.4469 11.3126,9.5261 5.4121,2.4633 12.0931,2.4656 25.452,2.4656 h 27.8323 c 13.35895,0 20.03725,0 25.45205,-2.4656 4.5728,-2.0792 8.4844,-5.3758 11.3126,-9.5261 3.34663,-4.9155 4.48303,-11.4977 6.75433,-24.6646 l 4.282,-24.8075 c 1.525,-8.8519 2.291,-13.2749 3.9067,-16.6764 1.5882,-3.3411 2.887,-5.1677 5.5203,-7.7627 2.6854,-2.6443 7.6516,-5.3908 17.5789,-10.8797 0.7324,-0.4032 1.4628,-0.8151 2.187,-1.2293 9.4993,-5.4231 14.2469,-8.1352 17.7747,-9.0542 3.4643,-0.9016 5.6212,-1.0882 9.1898,-0.7919 3.6318,0.3017 7.6978,1.7755 15.8339,4.7216 l 27.8047,10.0625 c 12.3221,4.4602 18.4863,6.6901 24.3263,6.2594 4.9349,-0.3648 9.6806,-2.0547 13.7321,-4.8966 4.795,-3.3603 8.1576,-8.986 14.88082,-20.2354 l 12.60167,-21.085 c 7.0964,-11.8749 10.6455,-17.8121 11.2573,-23.8935 0.5157,-5.1351 -0.428,-10.3116 -2.7212,-14.9337 -2.7157,-5.4753 -8.1306,-9.7828 -18.95767,-18.3961 l -19.88092,-15.8109 c -6.9099,-5.4944 -10.3638,-8.2398 -12.528,-11.1859 -2.3401,-3.182 -3.3371,-5.2504 -4.3742,-9.0634 -0.9571,-3.5276 -0.9576,-9.2082 -0.9576,-20.5646 0,-11.3565 4e-4,-17.0348 0.9576,-20.5624 1.0371,-3.8129 2.0342,-5.8809 4.3742,-9.0657 2.1642,-2.9433 5.6184,-5.6919 12.5256,-11.1836 l 19.88332,-15.8154 c 10.82967,-8.6117 16.24447,-12.9158 18.96017,-18.3915 2.293,-4.623 3.2345,-9.7989 2.7187,-14.9338 -0.6118,-6.0814 -4.1581,-12.0195 -11.2573,-23.8958 l -12.60167,-21.0849 c -6.72322,-11.2492 -10.08352,-16.87352 -14.87852,-20.23552 -4.0543,-2.8405 -8.7968,-4.531 -13.7344,-4.8942 -5.84,-0.4299 -12.0014,1.7994 -24.3263,6.2594 l -27.8002,10.06252 c -8.1387,2.9449 -12.2066,4.4169 -15.8384,4.7192 -3.5686,0.2971 -5.7255,0.11 -9.1898,-0.7919 -3.5278,-0.9184 -8.2759,-3.6296 -17.7725,-9.0541 -0.7268,-0.4145 -1.4573,-0.8245 -2.1868,-1.2293 -9.9301,-5.48952 -14.8959,-8.23372 -17.5813,-10.87752 -2.6333,-2.5958 -3.9321,-4.4221 -5.5203,-7.7627 -1.6157,-3.4019 -2.3815,-7.8272 -3.9067,-16.6787 l -4.282,-24.8074 c -2.2713,-13.1658 -3.4077,-19.74911 -6.75433,-24.66475 -2.8282,-4.15222 -6.7398,-7.44803 -11.3126,-9.5284 -5.4148,-2.46275 -12.0931,-2.46094 -25.45205,-2.46094 z"
       style="fill:#ce4a7e;fill-opacity:1;stroke:#1c1c1b;stroke-width:15.1181;stroke-linejoin:round;stroke-dasharray:none;stroke-opacity:1;paint-order:fill markers stroke"
       id="path174-3" /><text
       xml:space="preserve"
       style="font-style:normal;font-variant:normal;font-weight:normal;font-stretch:normal;font-size:108.023px;line-height:1;font-family:'Good Timing';-inkscape-font-specification:'Good Timing';text-align:center;letter-spacing:0px;writing-mode:lr-tb;direction:ltr;text-anchor:middle;display:inline;fill:#1c1c1b;fill-opacity:1;stroke:none;stroke-width:14.853;stroke-linecap:round;stroke-linejoin:round;stroke-miterlimit:10"
       x="777.99988"
       y="1131.2117"
       id="text3-7-1-8-3-8-0"><tspan
         sodipodi:role="line"
         id="tspan3-3-1-8-3-9-9"
         x="777.99988"
         y="1131.2117"
         style="line-height:1;letter-spacing:0px;fill:#1c1c1b;fill-opacity:1;stroke-width:14.853"
         dy="0">F.   .C.</tspan><tspan
         sodipodi:role="line"
         x="777.99988"
         y="1239.2346"
         id="tspan4-6-5-3-8-7-2"
         style="line-height:1;letter-spacing:0px;fill:#1c1c1b;fill-opacity:1;stroke-width:14.853">TOOL</tspan></text><path
       d="m 741.05153,1141.6619 c 10.8298,7.8831 28.7499,3.13 37.8587,-9.3835 1.4206,-1.9517 2.2741,-3.8478 2.5601,-5.6886 0.887,1.114 1.8016,2.1898 2.6506,3.2757 2.1111,2.6491 2.1625,4.2674 0.1086,6.2848 l -16.1364,16.2968 c -1.9321,1.9306 -1.5398,4.2066 0.2585,5.5158 1.8753,1.365 3.5527,0.8298 5.2518,-0.8608 l 17.5949,-17.5766 c 3.9861,-3.9481 3.9321,-7.7343 -0.1303,-12.448 l -14.334,-16.5809 0.2403,-0.4106 c 2.2306,0.3942 4.4823,-0.367 6.2333,-1.7269 l 12.9737,6.868 c 5.25715,2.8314 9.34995,1.7125 12.77605,-2.9944 l 9.6382,-13.2406 c 1.365,-1.8752 1.0735,-3.7265 -0.7634,-5.0636 -1.8368,-1.3371 -3.7161,-1.0072 -5.0531,0.8297 l -8.7745,12.0542 c -1.9779,2.7171 -4.0727,2.5385 -6.81075,1.0725 l -9.6269,-5.1926 c 0.4426,-1.4928 0.4573,-3.1215 -0.075,-4.5623 l 0.2785,-0.3827 c 7.3794,3.6153 13.91205,2.2816 18.14605,-3.5349 3.5655,-4.8982 4.9878,-10.7127 4.5099,-16.3295 l 0.5394,-0.017 c 5.6617,0.023 9.2197,-3.4168 9.9008,-9.4195 l 0.4444,-5.3555 c 0.2198,-1.8302 -0.663,-2.3867 -1.8492,-3.2501 -1.5691,-1.1422 -3.1321,-1.4882 -4.2186,0 -0.5014,0.6888 -0.6652,1.1551 -0.8011,2.2269 l -0.2109,4.4716 c -0.2239,2.8813 -1.4774,4.6033 -4.049,4.8388 -0.3308,0.052 -0.6718,0.038 -1.0127,0.024 -1.6164,-4.4551 -4.5239,-8.5034 -8.6185,-11.4839 -4.01805,-2.9249 -8.72595,-4.4198 -13.39575,-4.5992 -0.108,-0.2541 -0.2365,-0.6404 -0.2885,-0.9711 -0.5558,-2.4535 0.6596,-4.2034 3.3708,-5.2741 l 4.1905,-1.5747 c 0.978,-0.4588 1.3713,-0.7579 1.8728,-1.4468 1.0865,-1.4925 0.2768,-2.8737 -1.292,-4.0157 -1.1864,-0.8635 -1.9873,-1.5327 -3.6614,-0.7609 l -4.9598,2.0686 c -5.5029,2.4928 -7.6831,6.9357 -5.921,12.3163 l 0.1285,0.3864 c -5.5302,1.2435 -10.7305,4.3662 -14.324,9.3028 -4.234,5.8165 -3.4573,12.4707 2.2508,18.382 l -0.2786,0.3827 c -1.5346,-0.063 -3.0798,0.4511 -4.3644,1.3311 l -7.8995,-7.5653 c -2.275,-2.1831 -3.0504,-4.0938 -1.0726,-6.8108 l 8.7746,-12.0543 c 1.337,-1.8369 1.0734,-3.7265 -0.7635,-5.0636 -1.8367,-1.3371 -3.6883,-1.0457 -5.0533,0.8295 l -9.638,13.2407 c -3.4263,4.7069 -3.2331,8.9455 1.0766,13.0781 l 10.5226,10.2354 c -0.756,2.0842 -0.7882,4.4609 0.2723,6.4623 l -0.2786,0.3827 -20.2217,-8.5726 c -5.7724,-2.4454 -9.3535,-1.3053 -11.8857,3.7012 l -11.319,22.1454 c -1.1251,2.1084 -1.0805,3.8971 0.7946,5.262 1.7985,1.3093 4.085,0.9831 5.3285,-1.4488 l 10.5492,-20.3638 c 1.2885,-2.5745 2.8444,-3.0229 6.0142,-1.828 1.294,0.474 2.5991,1.014 3.9315,1.5156 -1.6636,0.838 -3.206,2.2327 -4.6266,4.1843 -9.1088,12.5136 -8.1247,31.0274 2.6668,38.8827 z"
       id="path1-4-1-6-7-5"
       style="display:inline;fill:#1c1c1b;fill-opacity:1;stroke-width:2.01951" /></g><g
     inkscape:groupmode="layer"
     id="layer5"
     inkscape:label="Layer 6"
     transform="translate(63.820189,228.67186)"><path
       d="m 1243.0938,674.5654 c -13.3589,0 -20.0399,-0.002 -25.452,2.46094 -4.5729,2.08037 -8.4844,5.37618 -11.3126,9.5284 -3.3465,4.91564 -4.4853,11.49895 -6.7566,24.66475 l -4.2798,24.8074 c -1.527,8.8517 -2.2888,13.2768 -3.9064,16.6787 -1.5884,3.3406 -2.8882,5.1669 -5.5229,7.7627 -2.6834,2.6438 -7.649,5.388 -17.5787,10.87752 -0.7325,0.4048 -1.4615,0.8148 -2.1871,1.2293 -9.4983,5.4247 -14.2474,8.138 -17.7745,9.0564 -3.4638,0.9018 -5.6207,1.0867 -9.1878,0.7896 -3.6318,-0.3023 -7.7009,-1.7743 -15.8385,-4.7192 l -27.8023,-10.06252 c -12.3229,-4.4598 -18.4852,-6.6893 -24.3264,-6.2594 -4.935,0.3629 -9.6799,2.0537 -13.732,4.8942 -4.7957,3.362 -8.1576,8.98632 -14.8806,20.23552 l -12.5996,21.0849 c -7.0978,11.8763 -10.6482,17.8141 -11.2595,23.8958 -0.5162,5.1346 0.4278,10.3105 2.7212,14.9338 2.7158,5.4755 8.129,9.7801 18.9576,18.3915 l 19.8856,15.8154 c 6.9078,5.4917 10.3607,8.2403 12.5258,11.1836 2.3405,3.1848 3.3395,5.2528 4.3739,9.0657 0.9573,3.5276 0.9555,9.2059 0.9555,20.5624 0,11.3564 0,17.0343 -0.9555,20.5646 -1.0346,3.813 -2.0338,5.8814 -4.3739,9.0634 -2.1658,2.9461 -5.6199,5.6915 -12.5281,11.1859 l -19.8809,15.8109 c -10.8287,8.6133 -16.244,12.9181 -18.96,18.3961 -2.2935,4.62209 -3.2353,9.79859 -2.7189,14.93369 0.6116,6.0814 4.1594,12.0159 11.2572,23.8935 l 12.6017,21.085 c 6.7233,11.2494 10.085,16.8751 14.8807,20.2354 4.0525,2.842 8.7968,4.5318 13.7321,4.8966 5.841,0.4279 12.0032,-1.8019 24.3264,-6.2594 l 27.8025,-10.0625 c 8.1368,-2.946 12.2042,-4.4199 15.836,-4.7216 3.5671,-0.2963 5.7265,-0.1106 9.1902,0.7919 3.527,0.919 8.2738,3.6311 17.7721,9.0542 0.7257,0.4142 1.4548,0.8261 2.1871,1.2293 9.9297,5.4889 14.8955,8.2354 17.5787,10.8797 2.635,2.595 3.9345,4.4216 5.5229,7.7627 1.6176,3.4015 2.3794,7.8245 3.9064,16.6764 l 4.2798,24.8075 c 2.2713,13.1669 3.4101,19.7491 6.7566,24.6646 2.8282,4.1503 6.7397,7.4469 11.3126,9.5261 5.4121,2.4633 12.0931,2.4656 25.452,2.4656 h 27.8323 c 13.359,0 20.0373,0 25.4521,-2.4656 4.5728,-2.0792 8.4844,-5.3758 11.3126,-9.5261 3.3466,-4.9155 4.483,-11.4977 6.7543,-24.6646 l 4.282,-24.8075 c 1.525,-8.8519 2.291,-13.2749 3.9067,-16.6764 1.5882,-3.3411 2.887,-5.1677 5.5203,-7.7627 2.6854,-2.6443 7.6516,-5.3908 17.5789,-10.8797 0.7324,-0.4032 1.4628,-0.8151 2.187,-1.2293 9.4993,-5.4231 14.2469,-8.1352 17.7747,-9.0542 3.4643,-0.9016 5.6212,-1.0882 9.1898,-0.7919 3.6318,0.3017 7.6978,1.7755 15.8339,4.7216 l 27.8047,10.0625 c 12.3221,4.4602 18.4863,6.6901 24.3263,6.2594 4.9349,-0.3648 9.6806,-2.0547 13.7321,-4.8966 4.795,-3.3603 8.1576,-8.986 14.8808,-20.2354 l 12.6017,-21.085 c 7.0964,-11.8749 10.6455,-17.8121 11.2573,-23.8935 0.5157,-5.1351 -0.428,-10.3116 -2.7212,-14.93369 -2.7157,-5.4753 -8.1306,-9.7828 -18.9577,-18.3961 l -19.8809,-15.8109 c -6.9099,-5.4944 -10.3638,-8.2398 -12.528,-11.1859 -2.3401,-3.182 -3.3371,-5.2504 -4.3742,-9.0634 -0.9571,-3.5276 -0.9576,-9.2082 -0.9576,-20.5646 0,-11.3565 4e-4,-17.0348 0.9576,-20.5624 1.0371,-3.8129 2.0342,-5.8809 4.3742,-9.0657 2.1642,-2.9433 5.6184,-5.6919 12.5256,-11.1836 l 19.8833,-15.8154 c 10.8297,-8.6117 16.2445,-12.9158 18.9602,-18.3915 2.293,-4.623 3.2345,-9.7989 2.7187,-14.9338 -0.6118,-6.0814 -4.1581,-12.0195 -11.2573,-23.8958 l -12.6017,-21.0849 c -6.7232,-11.2492 -10.0835,-16.87352 -14.8785,-20.23552 -4.0543,-2.8405 -8.7968,-4.531 -13.7344,-4.8942 -5.84,-0.4299 -12.0014,1.7994 -24.3263,6.2594 l -27.8002,10.06252 c -8.1387,2.9449 -12.2066,4.4169 -15.8384,4.7192 -3.5686,0.2971 -5.7255,0.11 -9.1898,-0.7919 -3.5278,-0.9184 -8.2759,-3.6296 -17.7725,-9.0541 -0.7268,-0.4145 -1.4573,-0.8245 -2.1868,-1.2293 -9.9301,-5.48952 -14.8959,-8.23372 -17.5813,-10.87752 -2.6333,-2.5958 -3.9321,-4.4221 -5.5203,-7.7627 -1.6157,-3.4019 -2.3815,-7.8272 -3.9067,-16.6787 l -4.282,-24.8074 c -2.2713,-13.1658 -3.4077,-19.74911 -6.7543,-24.66475 -2.8282,-4.15222 -6.7398,-7.44803 -11.3126,-9.5284 -5.4148,-2.46275 -12.0931,-2.46094 -25.4521,-2.46094 z"
       style="fill:#dc0011;fill-opacity:1;stroke:#1c1c1b;stroke-width:15.1181;stroke-linejoin:round;stroke-dasharray:none;stroke-opacity:1;paint-order:fill markers stroke"
       id="path174-3-4" /><text
       xml:space="preserve"
       style="font-style:normal;font-variant:normal;font-weight:normal;font-stretch:normal;font-size:108.023px;line-height:1;font-family:'Good Timing';-inkscape-font-specification:'Good Timing';text-align:center;letter-spacing:0px;writing-mode:lr-tb;direction:ltr;text-anchor:middle;display:inline;fill:#1c1c1b;fill-opacity:1;stroke:none;stroke-width:14.853;stroke-linecap:round;stroke-linejoin:round;stroke-miterlimit:10"
       x="1257.0088"
       y="902.53967"
       id="text3-7-1-8-3-8-0-8"><tspan
         sodipodi:role="line"
         id="tspan3-3-1-8-3-9-9-1"
         x="1257.0088"
         y="902.53967"
         style="line-height:1;letter-spacing:0px;fill:#1c1c1b;fill-opacity:1;stroke-width:14.853"
         dy="0">F.   .C.</tspan><tspan
         sodipodi:role="line"
         x="1257.0088"
         y="1010.5627"
         id="tspan4-6-5-3-8-7-2-2"
         style="line-height:1;letter-spacing:0px;fill:#1c1c1b;fill-opacity:1;stroke-width:14.853">TOOL</tspan></text><path
       d="m 1220.0604,912.98991 c 10.8298,7.8831 28.7499,3.13 37.8587,-9.3835 1.4206,-1.9517 2.2741,-3.8478 2.5601,-5.6886 0.887,1.114 1.8016,2.1898 2.6506,3.2757 2.1111,2.6491 2.1625,4.2674 0.1086,6.2848 l -16.1364,16.2968 c -1.9321,1.9306 -1.5398,4.2066 0.2585,5.5158 1.8753,1.365 3.5527,0.8298 5.2518,-0.8608 l 17.5949,-17.5766 c 3.9861,-3.9481 3.9321,-7.7343 -0.1303,-12.448 l -14.334,-16.5809 0.2403,-0.4106 c 2.2306,0.3942 4.4823,-0.367 6.2333,-1.7269 l 12.9737,6.868 c 5.2572,2.8314 9.35,1.7125 12.7761,-2.9944 l 9.6382,-13.2406 c 1.365,-1.8752 1.0735,-3.7265 -0.7634,-5.0636 -1.8368,-1.3371 -3.7161,-1.0072 -5.0531,0.8297 l -8.7745,12.0542 c -1.9779,2.7171 -4.0727,2.5385 -6.8108,1.0725 l -9.6269,-5.1926 c 0.4426,-1.4928 0.4573,-3.1215 -0.075,-4.5623 l 0.2785,-0.3827 c 7.3794,3.6153 13.9121,2.2816 18.1461,-3.5349 3.5655,-4.8982 4.9878,-10.7127 4.5099,-16.3295 l 0.5394,-0.017 c 5.6617,0.023 9.2197,-3.4168 9.9008,-9.4195 l 0.4444,-5.3555 c 0.2198,-1.8302 -0.663,-2.3867 -1.8492,-3.2501 -1.5691,-1.1422 -3.1321,-1.4882 -4.2186,0 -0.5014,0.6888 -0.6652,1.1551 -0.8011,2.2269 l -0.2109,4.4716 c -0.2239,2.8813 -1.4774,4.6033 -4.049,4.8388 -0.3308,0.052 -0.6718,0.038 -1.0127,0.024 -1.6164,-4.4551 -4.5239,-8.5034 -8.6185,-11.4839 -4.0181,-2.9249 -8.726,-4.4198 -13.3958,-4.5992 -0.108,-0.2541 -0.2365,-0.6404 -0.2885,-0.9711 -0.5558,-2.4535 0.6596,-4.2034 3.3708,-5.2741 l 4.1905,-1.5747 c 0.978,-0.4588 1.3713,-0.7579 1.8728,-1.4468 1.0865,-1.4925 0.2768,-2.8737 -1.292,-4.0157 -1.1864,-0.8635 -1.9873,-1.5327 -3.6614,-0.7609 l -4.9598,2.0686 c -5.5029,2.4928 -7.6831,6.9357 -5.921,12.3163 l 0.1285,0.3864 c -5.5302,1.2435 -10.7305,4.3662 -14.324,9.3028 -4.234,5.8165 -3.4573,12.4707 2.2508,18.382 l -0.2786,0.3827 c -1.5346,-0.063 -3.0798,0.4511 -4.3644,1.3311 l -7.8995,-7.5653 c -2.275,-2.1831 -3.0504,-4.0938 -1.0726,-6.8108 l 8.7746,-12.0543 c 1.337,-1.8369 1.0734,-3.7265 -0.7635,-5.0636 -1.8367,-1.3371 -3.6883,-1.0457 -5.0533,0.8295 l -9.638,13.2407 c -3.4263,4.7069 -3.2331,8.9455 1.0766,13.0781 l 10.5226,10.2354 c -0.756,2.0842 -0.7882,4.4609 0.2723,6.4623 l -0.2786,0.3827 -20.2217,-8.5726 c -5.7724,-2.4454 -9.3535,-1.3053 -11.8857,3.7012 l -11.319,22.1454 c -1.1251,2.1084 -1.0805,3.8971 0.7946,5.262 1.7985,1.3093 4.085,0.9831 5.3285,-1.4488 l 10.5492,-20.3638 c 1.2885,-2.5745 2.8444,-3.0229 6.0142,-1.828 1.294,0.474 2.5991,1.014 3.9315,1.5156 -1.6636,0.838 -3.206,2.2327 -4.6266,4.1843 -9.1088,12.5136 -8.1247,31.0274 2.6668,38.8827 z"
       id="path1-4-1-6-7-5-8"
       style="display:inline;fill:#1c1c1b;fill-opacity:1;stroke-width:2.01951" /></g><g
     inkscape:groupmode="layer"
     id="layer6"
     inkscape:label="Layer 7"
     transform="translate(80.175436,453.67187)"><path
       d="m 1762.0939,449.56539 c -13.3589,0 -20.0399,-0.002 -25.452,2.46094 -4.5729,2.08037 -8.4844,5.37618 -11.3126,9.5284 -3.3465,4.91564 -4.4853,11.49895 -6.7566,24.66475 l -4.2798,24.8074 c -1.527,8.8517 -2.2888,13.2768 -3.9064,16.6787 -1.5884,3.3406 -2.8882,5.1669 -5.5229,7.7627 -2.6834,2.6438 -7.649,5.388 -17.5787,10.87752 -0.7325,0.4048 -1.4615,0.8148 -2.1871,1.2293 -9.4983,5.4247 -14.2474,8.138 -17.7745,9.0564 -3.4638,0.9018 -5.6207,1.0867 -9.1878,0.7896 -3.6318,-0.3023 -7.7009,-1.7743 -15.8385,-4.7192 l -27.8023,-10.06252 c -12.3229,-4.4598 -18.4852,-6.6893 -24.3264,-6.2594 -4.935,0.3629 -9.6799,2.0537 -13.732,4.8942 -4.7957,3.362 -8.1576,8.98632 -14.8806,20.23552 l -12.5996,21.0849 c -7.0978,11.8763 -10.6482,17.8141 -11.2595,23.8958 -0.5162,5.1346 0.4278,10.3105 2.7212,14.9338 2.7158,5.4755 8.129,9.7801 18.9576,18.3915 l 19.8856,15.8154 c 6.9078,5.4917 10.3607,8.2403 12.5258,11.1836 2.3405,3.1848 3.3395,5.2528 4.3739,9.0657 0.9573,3.5276 0.9555,9.2059 0.9555,20.5624 0,11.3564 0,17.0343 -0.9555,20.5646 -1.0346,3.813 -2.0338,5.8814 -4.3739,9.0634 -2.1658,2.9461 -5.6199,5.6915 -12.5281,11.1859 l -19.8809,15.8109 c -10.8287,8.6133 -16.244,12.9181 -18.96,18.3961 -2.2935,4.62209 -3.2353,9.79859 -2.7189,14.93369 0.6116,6.0814 4.1594,12.0159 11.2572,23.8935 l 12.6017,21.085 c 6.7233,11.2494 10.085,16.8751 14.8807,20.2354 4.0525,2.842 8.7968,4.5318 13.7321,4.8966 5.841,0.4279 12.0032,-1.8019 24.3264,-6.2594 l 27.8025,-10.0625 c 8.1368,-2.946 12.2042,-4.4199 15.836,-4.7216 3.5671,-0.2963 5.7265,-0.1106 9.1902,0.7919 3.527,0.919 8.2738,3.6311 17.7721,9.0542 0.7257,0.4142 1.4548,0.8261 2.1871,1.2293 9.9297,5.4889 14.8955,8.2354 17.5787,10.8797 2.635,2.595 3.9345,4.4216 5.5229,7.7627 1.6176,3.4015 2.3794,7.8245 3.9064,16.6764 l 4.2798,24.8075 c 2.2713,13.1669 3.4101,19.7491 6.7566,24.6646 2.8282,4.1503 6.7397,7.4469 11.3126,9.5261 5.4121,2.4633 12.0931,2.4656 25.452,2.4656 h 27.8323 c 13.359,0 20.0373,0 25.4521,-2.4656 4.5728,-2.0792 8.4844,-5.3758 11.3126,-9.5261 3.3466,-4.9155 4.483,-11.4977 6.7543,-24.6646 l 4.282,-24.8075 c 1.525,-8.8519 2.291,-13.2749 3.9067,-16.6764 1.5882,-3.3411 2.887,-5.1677 5.5203,-7.7627 2.6854,-2.6443 7.6516,-5.3908 17.5789,-10.8797 0.7324,-0.4032 1.4628,-0.8151 2.187,-1.2293 9.4993,-5.4231 14.2469,-8.1352 17.7747,-9.0542 3.4643,-0.9016 5.6212,-1.0882 9.1898,-0.7919 3.6318,0.3017 7.6978,1.7755 15.8339,4.7216 l 27.8047,10.0625 c 12.3221,4.4602 18.4863,6.6901 24.3263,6.2594 4.9349,-0.3648 9.6806,-2.0547 13.7321,-4.8966 4.795,-3.3603 8.1576,-8.986 14.8808,-20.2354 l 12.6017,-21.085 c 7.0964,-11.8749 10.6455,-17.8121 11.2573,-23.8935 0.5157,-5.1351 -0.428,-10.3116 -2.7212,-14.93369 -2.7157,-5.4753 -8.1306,-9.7828 -18.9577,-18.3961 l -19.8809,-15.8109 c -6.9099,-5.4944 -10.3638,-8.2398 -12.528,-11.1859 -2.3401,-3.182 -3.3371,-5.2504 -4.3742,-9.0634 -0.9571,-3.5276 -0.9576,-9.2082 -0.9576,-20.5646 0,-11.3565 4e-4,-17.0348 0.9576,-20.5624 1.0371,-3.8129 2.0342,-5.8809 4.3742,-9.0657 2.1642,-2.9433 5.6184,-5.6919 12.5256,-11.1836 l 19.8833,-15.8154 c 10.8297,-8.6117 16.2445,-12.9158 18.9602,-18.3915 2.293,-4.623 3.2345,-9.7989 2.7187,-14.9338 -0.6118,-6.0814 -4.1581,-12.0195 -11.2573,-23.8958 l -12.6017,-21.0849 c -6.7232,-11.2492 -10.0835,-16.87352 -14.8785,-20.23552 -4.0543,-2.8405 -8.7968,-4.531 -13.7344,-4.8942 -5.84,-0.4299 -12.0014,1.7994 -24.3263,6.2594 l -27.8002,10.06252 c -8.1387,2.9449 -12.2066,4.4169 -15.8384,4.7192 -3.5686,0.2971 -5.7255,0.11 -9.1898,-0.7919 -3.5278,-0.9184 -8.2759,-3.6296 -17.7725,-9.0541 -0.7268,-0.4145 -1.4573,-0.8245 -2.1868,-1.2293 -9.9301,-5.48952 -14.8959,-8.23372 -17.5813,-10.87752 -2.6333,-2.5958 -3.9321,-4.4221 -5.5203,-7.7627 -1.6157,-3.4019 -2.3815,-7.8272 -3.9067,-16.6787 l -4.282,-24.8074 c -2.2713,-13.1658 -3.4077,-19.74911 -6.7543,-24.66475 -2.8282,-4.15222 -6.7398,-7.44803 -11.3126,-9.5284 -5.4148,-2.46275 -12.0931,-2.46094 -25.4521,-2.46094 z"
       style="fill:#ffffff;fill-opacity:1;stroke:#262626;stroke-width:15.1181;stroke-linejoin:round;stroke-dasharray:none;stroke-opacity:1;paint-order:fill markers stroke"
       id="path174-3-4-0" /><text
       xml:space="preserve"
       style="font-style:normal;font-variant:normal;font-weight:normal;font-stretch:normal;font-size:108.023px;line-height:1;font-family:'Good Timing';-inkscape-font-specification:'Good Timing';text-align:center;letter-spacing:0px;writing-mode:lr-tb;direction:ltr;text-anchor:middle;display:inline;fill:#262626;fill-opacity:1;stroke:none;stroke-width:14.853;stroke-linecap:round;stroke-linejoin:round;stroke-miterlimit:10"
       x="1776.0088"
       y="677.53967"
       id="text3-7-1-8-3-8-0-8-2"><tspan
         sodipodi:role="line"
         id="tspan3-3-1-8-3-9-9-1-1"
         x="1776.0088"
         y="677.53967"
         style="line-height:1;letter-spacing:0px;fill:#262626;fill-opacity:1;stroke-width:14.853"
         dy="0">F.   .C.</tspan><tspan
         sodipodi:role="line"
         x="1776.0088"
         y="785.56268"
         id="tspan4-6-5-3-8-7-2-2-0"
         style="line-height:1;letter-spacing:0px;fill:#262626;fill-opacity:1;stroke-width:14.853">TOOL</tspan></text><path
       d="m 1739.0605,687.9899 c 10.8298,7.8831 28.7499,3.13 37.8587,-9.3835 1.4206,-1.9517 2.2741,-3.8478 2.5601,-5.6886 0.887,1.114 1.8016,2.1898 2.6506,3.2757 2.1111,2.6491 2.1625,4.2674 0.1086,6.2848 l -16.1364,16.2968 c -1.9321,1.9306 -1.5398,4.2066 0.2585,5.5158 1.8753,1.365 3.5527,0.8298 5.2518,-0.8608 l 17.5949,-17.5766 c 3.9861,-3.9481 3.9321,-7.7343 -0.1303,-12.448 l -14.334,-16.5809 0.2403,-0.4106 c 2.2306,0.3942 4.4823,-0.367 6.2333,-1.7269 l 12.9737,6.868 c 5.2572,2.8314 9.35,1.7125 12.7761,-2.9944 l 9.6382,-13.2406 c 1.365,-1.8752 1.0735,-3.7265 -0.7634,-5.0636 -1.8368,-1.3371 -3.7161,-1.0072 -5.0531,0.8297 l -8.7745,12.0542 c -1.9779,2.7171 -4.0727,2.5385 -6.8108,1.0725 l -9.6269,-5.1926 c 0.4426,-1.4928 0.4573,-3.1215 -0.075,-4.5623 l 0.2785,-0.3827 c 7.3794,3.6153 13.9121,2.2816 18.1461,-3.5349 3.5655,-4.8982 4.9878,-10.7127 4.5099,-16.3295 l 0.5394,-0.017 c 5.6617,0.023 9.2197,-3.4168 9.9008,-9.4195 l 0.4444,-5.3555 c 0.2198,-1.8302 -0.663,-2.3867 -1.8492,-3.2501 -1.5691,-1.1422 -3.1321,-1.4882 -4.2186,0 -0.5014,0.6888 -0.6652,1.1551 -0.8011,2.2269 l -0.2109,4.4716 c -0.2239,2.8813 -1.4774,4.6033 -4.049,4.8388 -0.3308,0.052 -0.6718,0.038 -1.0127,0.024 -1.6164,-4.4551 -4.5239,-8.5034 -8.6185,-11.4839 -4.0181,-2.9249 -8.726,-4.4198 -13.3958,-4.5992 -0.108,-0.2541 -0.2365,-0.6404 -0.2885,-0.9711 -0.5558,-2.4535 0.6596,-4.2034 3.3708,-5.2741 l 4.1905,-1.5747 c 0.978,-0.4588 1.3713,-0.7579 1.8728,-1.4468 1.0865,-1.4925 0.2768,-2.8737 -1.292,-4.0157 -1.1864,-0.8635 -1.9873,-1.5327 -3.6614,-0.7609 l -4.9598,2.0686 c -5.5029,2.4928 -7.6831,6.9357 -5.921,12.3163 l 0.1285,0.3864 c -5.5302,1.2435 -10.7305,4.3662 -14.324,9.3028 -4.234,5.8165 -3.4573,12.4707 2.2508,18.382 l -0.2786,0.3827 c -1.5346,-0.063 -3.0798,0.4511 -4.3644,1.3311 l -7.8995,-7.5653 c -2.275,-2.1831 -3.0504,-4.0938 -1.0726,-6.8108 l 8.7746,-12.0543 c 1.337,-1.8369 1.0734,-3.7265 -0.7635,-5.0636 -1.8367,-1.3371 -3.6883,-1.0457 -5.0533,0.8295 l -9.638,13.2407 c -3.4263,4.7069 -3.2331,8.9455 1.0766,13.0781 l 10.5226,10.2354 c -0.756,2.0842 -0.7882,4.4609 0.2723,6.4623 l -0.2786,0.3827 -20.2217,-8.5726 c -5.7724,-2.4454 -9.3535,-1.3053 -11.8857,3.7012 l -11.319,22.1454 c -1.1251,2.1084 -1.0805,3.8971 0.7946,5.262 1.7985,1.3093 4.085,0.9831 5.3285,-1.4488 l 10.5492,-20.3638 c 1.2885,-2.5745 2.8444,-3.0229 6.0142,-1.828 1.294,0.474 2.5991,1.014 3.9315,1.5156 -1.6636,0.838 -3.206,2.2327 -4.6266,4.1843 -9.1088,12.5136 -8.1247,31.0274 2.6668,38.8827 z"
       id="path1-4-1-6-7-5-8-5"
       style="display:inline;fill:#262626;fill-opacity:1;stroke-width:2.01951" /></g><g
     inkscape:groupmode="layer"
     id="layer7"
     inkscape:label="Layer 8"
     transform="matrix(0.95999988,0,0,0.95999988,103.79697,10.239954)"><path
       d="m 2581.561,18.944688 c -12.8273,0 -19.2425,-0.0019 -24.4393,2.363021 -4.3909,1.997594 -8.1468,5.162268 -10.8624,9.149275 -3.2134,4.720052 -4.3069,11.04142 -6.4878,23.683367 l -4.1095,23.82034 c -1.4663,8.499501 -2.1977,12.748531 -3.751,16.015073 -1.5252,3.207681 -2.7733,4.961315 -5.3031,7.453836 -2.5767,2.5386 -7.3447,5.17361 -16.8793,10.44471 -0.7033,0.3887 -1.4033,0.78238 -2.1001,1.18039 -9.1203,5.20886 -13.6805,7.8142 -17.0672,8.69606 -3.326,0.86592 -5.3971,1.04346 -8.8223,0.75818 -3.4873,-0.29027 -7.3945,-1.7037 -15.2083,-4.53143 l -26.696,-9.66215 c -11.8326,-4.28234 -17.7497,-6.42314 -23.3585,-6.01034 -4.7387,0.34846 -9.2948,1.97199 -13.1856,4.69946 -4.6049,3.22824 -7.8331,8.62877 -14.2886,19.43038 l -12.0982,20.24595 c -6.8154,11.40376 -10.2246,17.1053 -10.8115,22.94502 -0.4957,4.9303 0.4107,9.90025 2.6129,14.3396 2.6077,5.25763 7.8055,9.39096 18.2033,17.65972 l 19.0944,15.18612 c 6.6329,5.27319 9.9484,7.91243 12.0274,10.73862 2.2473,3.05808 3.2066,5.04379 4.1998,8.70498 0.9193,3.38724 0.9175,8.83961 0.9175,19.74424 0,10.90454 0,16.35652 -0.9175,19.74636 -0.9934,3.66128 -1.9528,5.64738 -4.1998,8.70277 -2.0797,2.82888 -5.3963,5.46504 -12.0296,10.74083 l -19.0899,15.1818 c -10.3978,8.27059 -15.5977,12.4041 -18.2056,17.66414 -2.2023,4.43819 -3.1066,9.40872 -2.6107,14.3395 0.5872,5.83943 3.9939,11.5378 10.8093,22.94281 l 12.1003,20.24605 c 6.4557,10.8018 9.6837,16.20366 14.2886,19.43025 3.8912,2.72892 8.4468,4.35149 13.1857,4.70177 5.6086,0.41088 11.5256,-1.7302 23.3585,-6.01034 l 26.6962,-9.66213 c 7.8131,-2.82878 11.7186,-4.24403 15.2059,-4.53373 3.4252,-0.28451 5.4987,-0.1062 8.8246,0.76039 3.3866,0.88244 7.9446,3.48662 17.0649,8.69394 0.6969,0.39772 1.3969,0.79323 2.1001,1.18039 9.5346,5.2705 14.3028,7.90772 16.8793,10.44681 2.5301,2.49175 3.7779,4.24567 5.3031,7.45383 1.5533,3.26616 2.2847,7.51317 3.751,16.01287 l 4.1095,23.82043 c 2.1809,12.64301 3.2744,18.96331 6.4878,23.68322 2.7156,3.98517 6.4715,7.1506 10.8624,9.14707 5.1968,2.36529 11.612,2.3675 24.4393,2.3675 h 26.7249 c 12.8275,0 19.2401,0 24.4394,-2.3675 4.3909,-1.99647 8.1468,-5.1619 10.8625,-9.14707 3.2134,-4.71991 4.3046,-11.04021 6.4856,-23.68322 l 4.1116,-23.82043 c 1.4643,-8.4997 2.1998,-12.74671 3.7512,-16.01287 1.525,-3.20816 2.7722,-4.96208 5.3007,-7.45383 2.5785,-2.53909 7.3471,-5.17631 16.8794,-10.44681 0.7033,-0.38716 1.4046,-0.78267 2.1,-1.18039 9.1214,-5.20732 13.6801,-7.8115 17.0675,-8.69394 3.3264,-0.86573 5.3975,-1.0449 8.8241,-0.76039 3.4873,0.2897 7.3915,1.70485 15.2039,4.53373 l 26.6984,9.66213 c 11.8318,4.28273 17.7508,6.42391 23.3584,6.01034 4.7385,-0.35028 9.2954,-1.97294 13.1857,-4.70177 4.6042,-3.22659 7.833,-8.62845 14.2887,-19.43025 l 12.1003,-20.24605 c 6.814,-11.40241 10.2219,-17.10338 10.8094,-22.94281 0.4952,-4.93078 -0.411,-9.90131 -2.6129,-14.3395 -2.6077,-5.25745 -7.8071,-9.39355 -18.2034,-17.66414 l -19.0899,-15.1818 c -6.635,-5.27579 -9.9514,-7.91195 -12.0295,-10.74083 -2.247,-3.05539 -3.2043,-5.04149 -4.2002,-8.70277 -0.919,-3.38725 -0.9195,-8.84182 -0.9195,-19.74636 0,-10.90463 4e-4,-16.357 0.9195,-19.74424 0.9959,-3.66119 1.9533,-5.6469 4.2002,-8.70498 2.0781,-2.82619 5.3948,-5.46543 12.0272,-10.73862 l 19.0922,-15.18612 c 10.3988,-8.26905 15.5981,-12.4019 18.2058,-17.65972 2.2017,-4.43906 3.1058,-9.40902 2.6105,-14.3396 -0.5875,-5.83943 -3.9927,-11.54126 -10.8094,-22.94502 l -12.1003,-20.24595 c -6.4557,-10.80161 -9.6823,-16.20214 -14.2865,-19.43038 -3.893,-2.72747 -8.4468,-4.35071 -13.1879,-4.69946 -5.6076,-0.4128 -11.5239,1.7278 -23.3584,6.01034 l -26.6941,9.66215 c -7.8148,2.82773 -11.7209,4.24116 -15.2082,4.53143 -3.4266,0.28528 -5.4977,0.10562 -8.8241,-0.76039 -3.3874,-0.88186 -7.9466,-3.48518 -17.0654,-8.69385 -0.6978,-0.39801 -1.3993,-0.79169 -2.0998,-1.18039 -9.5349,-5.2711 -14.3032,-7.90611 -16.8817,-10.44471 -2.5285,-2.492521 -3.7757,-4.246155 -5.3007,-7.453836 -1.5514,-3.266542 -2.2867,-7.515764 -3.7512,-16.015073 l -4.1116,-23.82034 c -2.181,-12.641947 -3.2722,-18.963315 -6.4856,-23.683367 -2.7157,-3.987007 -6.4716,-7.151681 -10.8625,-9.149275 -5.1993,-2.364759 -11.6119,-2.363021 -24.4394,-2.363021 z"
       style="fill:#dc0011;fill-opacity:1;stroke:#1c1c1b;stroke-width:14.5166;stroke-linejoin:round;stroke-dasharray:none;stroke-opacity:1;paint-order:fill markers stroke"
       id="path174-3-4-5" /><text
       xml:space="preserve"
       style="font-style:normal;font-variant:normal;font-weight:normal;font-stretch:normal;font-size:103.725px;line-height:1;font-family:'Good Timing';-inkscape-font-specification:'Good Timing';text-align:center;letter-spacing:0px;writing-mode:lr-tb;direction:ltr;text-anchor:middle;display:inline;fill:#1c1c1b;fill-opacity:1;stroke:none;stroke-width:14.262;stroke-linecap:round;stroke-linejoin:round;stroke-miterlimit:10"
       x="2594.9224"
       y="237.8481"
       id="text3-7-1-8-3-8-0-8-0"><tspan
         sodipodi:role="line"
         id="tspan3-3-1-8-3-9-9-1-6"
         x="2594.9224"
         y="237.8481"
         style="line-height:1;letter-spacing:0px;fill:#1c1c1b;fill-opacity:1;stroke-width:14.262"
         dy="0">F.   .C.</tspan><tspan
         sodipodi:role="line"
         x="2594.9224"
         y="341.57309"
         id="tspan4-6-5-3-8-7-2-2-4"
         style="line-height:1;letter-spacing:0px;fill:#1c1c1b;fill-opacity:1;stroke-width:14.262">TOOL</tspan></text><path
       d="m 2559.4441,247.88255 c 10.3989,7.56943 27.606,3.00546 36.3524,-9.01014 1.364,-1.87405 2.1836,-3.6947 2.4582,-5.46226 0.8517,1.06968 1.7299,2.10267 2.5451,3.14537 2.0271,2.54369 2.0765,4.0976 0.1043,6.03473 l -15.4943,15.64836 c -1.8553,1.85378 -1.4786,4.03922 0.2482,5.29633 1.8007,1.31069 3.4113,0.79678 5.0428,-0.82655 l 16.8948,-16.87724 c 3.8275,-3.791 3.7757,-7.42656 -0.1251,-11.9527 l -13.7637,-15.92117 0.2308,-0.39426 c 2.1418,0.37852 4.3039,-0.3524 5.9853,-1.65819 l 12.4575,6.59473 c 5.048,2.71874 8.9779,1.64436 12.2677,-2.87525 l 9.2547,-12.71378 c 1.3107,-1.80058 1.0308,-3.57822 -0.733,-4.86212 -1.7637,-1.2839 -3.5682,-0.96713 -4.852,0.79669 l -8.4254,11.57457 c -1.8992,2.60899 -3.9107,2.4375 -6.5398,1.02983 l -9.2439,-4.98599 c 0.425,-1.43341 0.4391,-2.9973 -0.072,-4.38077 l 0.2674,-0.36748 c 7.0858,3.47145 13.3586,2.19082 17.4241,-3.39425 3.4236,-4.7033 4.7893,-10.28645 4.3305,-15.67976 l 0.5179,-0.0163 c 5.4364,0.0221 8.8529,-3.28085 9.5069,-9.04471 l 0.4267,-5.14241 c 0.211,-1.75737 -0.6366,-2.29173 -1.7756,-3.12078 -1.5067,-1.09675 -3.0075,-1.42898 -4.0508,0 -0.4814,0.6614 -0.6387,1.10914 -0.7692,2.1383 l -0.2025,4.29368 c -0.215,2.76665 -1.4186,4.42014 -3.8879,4.64627 -0.3177,0.0499 -0.6451,0.0365 -0.9724,0.023 -1.5521,-4.27784 -4.3439,-8.16506 -8.2756,-11.02697 -3.8582,-2.80852 -8.3788,-4.24394 -12.8628,-4.4162 -0.1037,-0.24399 -0.2271,-0.61492 -0.277,-0.93246 -0.5337,-2.35588 0.6333,-4.03615 3.2367,-5.06425 l 4.0237,-1.51205 c 0.9391,-0.44054 1.3168,-0.72774 1.7983,-1.38923 1.0433,-1.43311 0.2658,-2.75936 -1.2406,-3.85592 -1.1392,-0.82914 -1.9082,-1.47171 -3.5157,-0.73062 l -4.7625,1.98629 c -5.2839,2.39361 -7.3774,6.65974 -5.6854,11.82625 l 0.1234,0.37102 c -5.3101,1.19403 -10.3035,4.19248 -13.754,8.93265 -4.0656,5.58507 -3.3198,11.97451 2.1612,17.65061 l -0.2675,0.36747 c -1.4736,-0.0605 -2.9573,0.43315 -4.1908,1.27813 l -7.5852,-7.26428 c -2.1844,-2.09624 -2.929,-3.93091 -1.0299,-6.53981 l 8.4255,-11.57467 c 1.2838,-1.76381 1.0307,-3.57822 -0.7331,-4.86212 -1.7636,-1.2839 -3.5416,-1.0041 -4.8523,0.79649 l -9.2545,12.71387 c -3.2899,4.51962 -3.1044,8.58957 1.0338,12.55774 l 10.1039,9.82814 c -0.7259,2.00127 -0.7568,4.28341 0.2615,6.20517 l -0.2675,0.36747 -19.4171,-8.2315 c -5.5428,-2.3481 -8.9814,-1.25336 -11.4128,3.55393 l -10.8687,21.26426 c -1.0803,2.02451 -1.0375,3.74204 0.763,5.05263 1.727,1.25721 3.9225,0.94399 5.1165,-1.39115 l 10.1295,-19.55355 c 1.2372,-2.47206 2.7312,-2.90262 5.7749,-1.75526 1.2425,0.45514 2.4957,0.97365 3.775,1.45529 -1.5974,0.80466 -3.0784,2.14387 -4.4425,4.01781 -8.7463,12.0157 -7.8014,29.79286 2.5607,37.3356 z"
       id="path1-4-1-6-7-5-8-6"
       style="display:inline;fill:#1c1c1b;fill-opacity:1;stroke-width:1.93916" /></g><g
     inkscape:groupmode="layer"
     id="layer2"
     inkscape:label="Layer 9"><text
       xml:space="preserve"
       style="font-style:normal;font-variant:normal;font-weight:normal;font-stretch:normal;font-size:99.576px;line-height:1;font-family:'Good Timing';-inkscape-font-specification:'Good Timing';text-align:center;letter-spacing:0px;writing-mode:lr-tb;direction:ltr;text-anchor:middle;display:inline;fill:#1c1c1b;fill-opacity:1;stroke:none;stroke-width:13.6915;stroke-linecap:round;stroke-linejoin:round;stroke-miterlimit:10"
       x="255.99991"
       y="2034.0059"
       id="text3-7-1-8-3-8-0-8-0-2"><tspan
         sodipodi:role="line"
         id="tspan3-3-1-8-3-9-9-1-6-7"
         x="255.99991"
         y="2034.0059"
         style="line-height:1;letter-spacing:0px;fill:#1c1c1b;fill-opacity:1;stroke-width:13.6915"
         dy="0">F.   .C.</tspan><tspan
         sodipodi:role="line"
         x="255.99991"
         y="2133.5818"
         id="tspan4-6-5-3-8-7-2-2-4-0"
         style="line-height:1;letter-spacing:0px;fill:#1c1c1b;fill-opacity:1;stroke-width:13.6915">TOOL</tspan></text><path
       d="m 221.94076,2043.6389 c 9.98294,7.2667 26.50176,2.8853 34.8983,-8.6497 1.30944,-1.7991 2.09626,-3.5469 2.35987,-5.2438 0.81764,1.0269 1.66071,2.0186 2.4433,3.0196 1.94602,2.4419 1.99344,3.9337 0.10013,5.7933 l -14.87453,15.0224 c -1.78109,1.7797 -1.41945,3.8777 0.23827,5.0845 1.72868,1.2583 3.27485,0.7649 4.84109,-0.7935 l 16.21901,-16.2021 c 3.6744,-3.6394 3.62467,-7.1295 -0.1201,-11.4746 l -13.21315,-15.2843 0.22157,-0.3785 c 2.05613,0.3634 4.13174,-0.3383 5.74589,-1.5919 l 11.9592,6.331 c 4.84607,2.6099 8.61878,1.5785 11.77699,-2.7603 l 8.88451,-12.2052 c 1.25827,-1.7286 0.98957,-3.4351 -0.70368,-4.6676 -1.69315,-1.2326 -3.42547,-0.9285 -4.65792,0.7648 l -8.08839,11.1116 c -1.82323,2.5046 -3.75427,2.34 -6.2782,0.9886 l -8.87415,-4.7865 c 0.408,-1.3761 0.42154,-2.8775 -0.0691,-4.2056 l 0.25671,-0.3528 c 6.80237,3.3326 12.82425,2.1032 16.72713,-3.2584 3.28666,-4.5152 4.59773,-9.875 4.15728,-15.0526 l 0.49719,-0.016 c 5.21894,0.021 8.49878,-3.1496 9.12662,-8.6829 l 0.40963,-4.9367 c 0.20256,-1.6871 -0.61113,-2.2001 -1.70457,-2.9959 -1.44644,-1.0529 -2.8872,-1.3719 -3.88877,0 -0.46215,0.6349 -0.61315,1.0647 -0.73843,2.0527 l -0.1944,4.122 c -0.2064,2.6559 -1.36186,4.2433 -3.73239,4.4604 -0.30499,0.048 -0.61929,0.035 -0.9335,0.022 -1.49002,-4.1068 -4.17015,-7.8385 -7.94458,-10.5859 -3.70387,-2.6962 -8.04364,-4.0742 -12.34828,-4.2396 -0.0996,-0.2342 -0.21802,-0.5903 -0.26592,-0.8951 -0.51236,-2.2617 0.60796,-3.8748 3.10723,-4.8617 l 3.86275,-1.4516 c 0.90154,-0.4229 1.26413,-0.6986 1.72637,-1.3337 1.00156,-1.3757 0.25516,-2.6489 -1.19098,-3.7016 -1.09363,-0.796 -1.83187,-1.4129 -3.37507,-0.7014 l -4.572,1.9068 c -5.07254,2.2979 -7.0823,6.3934 -5.45798,11.3532 l 0.11846,0.3562 c -5.0977,1.1462 -9.89136,4.0248 -13.20384,8.5753 -3.90297,5.3617 -3.18701,11.4956 2.07475,16.9446 l -0.2568,0.3528 c -1.41465,-0.058 -2.839,0.4158 -4.02316,1.227 l -7.2818,-6.9737 c -2.09702,-2.0124 -2.81184,-3.7737 -0.9887,-6.2782 l 8.08848,-11.1117 c 1.23245,-1.6933 0.98947,-3.4351 -0.70378,-4.6677 -1.69305,-1.2325 -3.39993,-0.9639 -4.6582,0.7647 l -8.88432,12.2053 c -3.15831,4.3388 -2.98023,8.246 0.99244,12.0554 l 9.69975,9.435 c -0.69687,1.9212 -0.72653,4.1121 0.25104,5.957 l -0.2568,0.3528 -18.64042,-7.9023 c -5.32108,-2.2542 -8.62214,-1.2032 -10.95628,3.4118 l -10.43395,20.4137 c -1.03709,1.9435 -0.996,3.5923 0.73248,4.8505 1.65791,1.2069 3.76559,0.9062 4.91183,-1.3355 l 9.72432,-18.7714 c 1.18772,-2.3732 2.62196,-2.7865 5.54391,-1.6851 1.1928,0.437 2.39587,0.9348 3.624,1.3971 -1.53351,0.7725 -2.95527,2.0581 -4.2648,3.8571 -8.39645,11.5351 -7.48935,28.6012 2.45827,35.8422 z"
       id="path1-4-1-6-7-5-8-6-9"
       style="display:inline;fill:#1c1c1b;fill-opacity:1;stroke-width:1.86159" /></g><g
     inkscape:groupmode="layer"
     id="layer8"
     inkscape:label="Layer 10"><path
       d="m 694.33887,2224.8379 c 43.86391,31.9292 116.44637,12.6778 153.33975,-38.0059 5.75339,-7.9051 9.21098,-15.5848 10.36924,-23.0408 3.59245,4.5121 7.29696,8.8696 10.7356,13.2679 8.55052,10.7294 8.7588,17.2842 0.43979,25.4551 l -65.35709,66.007 c -7.82598,7.8199 -6.23714,17.0382 1.04663,22.3408 7.59574,5.5289 14.3896,3.361 21.27129,-3.4865 l 71.26478,-71.1905 c 16.1449,-15.9912 15.92662,-31.3264 -0.52769,-50.4183 l -58.05717,-67.1577 0.97372,-1.6631 c 9.03436,1.5967 18.15432,-1.4865 25.24654,-6.9947 l 52.54758,27.8178 c 21.29323,11.4677 37.87012,6.9358 51.7469,-12.1285 l 39.03756,-53.6285 c 5.5289,-7.5953 4.3483,-15.0935 -3.0915,-20.5089 -7.4397,-5.416 -15.0513,-4.0797 -20.4668,3.3604 l -35.53911,48.8233 c -8.01138,11.005 -16.49607,10.2818 -27.58576,4.3438 l -38.99245,-21.0314 c 1.79269,-6.0464 1.85205,-12.6435 -0.30316,-18.479 l 1.12796,-1.5502 c 29.88905,14.6431 56.34873,9.2413 73.49725,-14.3171 14.44151,-19.8393 20.20221,-43.3898 18.26681,-66.1397 l 2.1846,-0.071 c 22.93166,0.093 37.34286,-13.839 40.10136,-38.1518 l 1.8001,-21.6914 c 0.8898,-7.4129 -2.6856,-9.667 -7.4898,-13.1637 -6.3553,-4.6263 -12.6861,-6.028 -17.087,0 -2.0304,2.7897 -2.6939,4.6782 -3.2445,9.0193 l -0.8542,18.1118 c -0.9068,11.6697 -5.984,18.6446 -16.39976,19.5985 -1.3401,0.2109 -2.7211,0.1538 -4.1017,0.097 -6.54681,-18.0449 -18.32299,-34.4416 -34.90779,-46.5135 -16.27405,-11.8468 -35.34272,-17.9015 -54.25716,-18.6283 -0.43948,-1.0291 -0.95789,-2.5938 -1.16836,-3.933 -2.25101,-9.9377 2.67143,-17.0256 13.65312,-21.3619 l 16.97242,-6.3781 c 3.96101,-1.8582 5.55426,-3.0696 7.58554,-5.8602 4.40059,-6.0447 1.12097,-11.639 -5.2331,-16.2645 -4.80518,-3.4975 -8.04918,-6.2081 -14.82981,-3.0819 l -20.08895,8.3783 c -22.28809,10.0968 -31.11895,28.092 -23.98195,49.8849 l 0.52071,1.5651 c -22.3988,5.0363 -43.4619,17.6847 -58.01627,37.679 -17.14941,23.5589 -14.00337,50.5106 9.11603,74.453 l -1.12835,1.5501 c -6.21562,-0.2548 -12.4743,1.8271 -17.67712,5.3914 l -31.99553,-30.6418 c -9.21446,-8.8423 -12.35522,-16.5812 -4.34425,-27.5858 l 35.53965,-48.8237 c 5.41548,-7.4402 4.34777,-15.0935 -3.09199,-20.5095 -7.43932,-5.4154 -14.93928,-4.2352 -20.46769,3.36 l -39.0372,53.629 c -13.87727,19.0643 -13.09471,36.2321 4.36095,52.9703 l 42.61955,41.4564 c -3.06167,8.4416 -3.19216,18.0682 1.10332,26.1746 l -1.12836,1.5501 L 688.45148,2014 c -23.37997,-9.9048 -37.88468,-5.2868 -48.1405,14.9911 l -45.84599,89.6958 c -4.55692,8.5396 -4.37633,15.7843 3.21853,21.3127 7.28465,5.303 16.54569,3.9817 21.58198,-5.8681 l 42.72764,-82.4798 c 5.21908,-10.4275 11.52082,-12.2436 24.35981,-7.4041 5.24105,1.9201 10.52692,4.1074 15.9235,6.1387 -6.73848,3.3943 -12.9853,9.0431 -18.73911,16.9477 -36.89343,50.6842 -32.90771,125.671 10.80108,157.4873 z"
       id="path1-4-1-6-7-5-8-6-9-8"
       style="display:inline;fill:#d7d7d7;fill-opacity:1;stroke-width:8.17965" /><text
       xml:space="preserve"
       style="font-style:normal;font-variant:normal;font-weight:normal;font-stretch:normal;font-size:99.576px;line-height:1;font-family:'Good Timing';-inkscape-font-specification:'Good Timing';text-align:center;letter-spacing:0px;writing-mode:lr-tb;direction:ltr;text-anchor:middle;display:inline;fill:#1c1c1b;fill-opacity:1;stroke:none;stroke-width:13.6915;stroke-linecap:round;stroke-linejoin:round;stroke-miterlimit:10"
       x="832.25226"
       y="2026.0586"
       id="text3-7-1-8-3-8-0-8-0-2-2"><tspan
         sodipodi:role="line"
         id="tspan3-3-1-8-3-9-9-1-6-7-6"
         x="832.25226"
         y="2026.0586"
         style="line-height:1;letter-spacing:0px;fill:#1c1c1b;fill-opacity:1;stroke-width:13.6915"
         dy="0">F.A.C.</tspan><tspan
         sodipodi:role="line"
         x="832.25226"
         y="2125.6345"
         id="tspan4-6-5-3-8-7-2-2-4-0-1"
         style="line-height:1;letter-spacing:0px;fill:#1c1c1b;fill-opacity:1;stroke-width:13.6915">TOOL</tspan></text></g><style
     type="text/css"
     id="style1">
	.st0{fill:#000000;}
</style><g
     inkscape:groupmode="layer"
     id="layer9"
     inkscape:label="Layer 11"><path
       d="m 1290.813,2228.2717 c 43.8639,31.9292 116.4464,12.6778 153.3398,-38.0059 5.7534,-7.9051 9.211,-15.5848 10.3692,-23.0408 3.5925,4.5121 7.297,8.8696 10.7356,13.2679 8.5505,10.7294 8.7588,17.2842 0.4398,25.4551 l -65.3571,66.007 c -7.826,7.8199 -6.2371,17.0382 1.0467,22.3408 7.5957,5.5289 14.3896,3.361 21.2712,-3.4865 l 71.2648,-71.1905 c 16.1449,-15.9912 15.9266,-31.3264 -0.5277,-50.4183 l -58.0571,-67.1577 0.9737,-1.6631 c 9.0343,1.5967 18.1543,-1.4865 25.2465,-6.9947 l 52.5476,27.8178 c 21.2932,11.4677 37.8701,6.9358 51.7469,-12.1285 l 39.0376,-53.6285 c 5.5289,-7.5953 4.3483,-15.0935 -3.0915,-20.5089 -7.4397,-5.416 -15.0513,-4.0797 -20.4668,3.3604 l -35.5391,48.8233 c -8.0114,11.005 -16.4961,10.2818 -27.5858,4.3438 l -38.9925,-21.0314 c 1.7927,-6.0464 1.8521,-12.6435 -0.3031,-18.479 l 1.1279,-1.5502 c 29.8891,14.6431 56.3488,9.2413 73.4973,-14.3171 14.4415,-19.8393 20.2022,-43.3898 18.2668,-66.1397 l 2.1846,-0.071 c 22.9317,0.093 37.3429,-13.839 40.1014,-38.1518 l 1.8001,-21.6914 c 0.8898,-7.4129 -2.6856,-9.667 -7.4898,-13.1637 -6.3553,-4.6263 -12.6861,-6.028 -17.087,0 -2.0304,2.7897 -2.6939,4.6782 -3.2445,9.0193 l -0.8542,18.1118 c -0.9068,11.6697 -5.984,18.6446 -16.3998,19.5985 -1.3401,0.2109 -2.7211,0.1538 -4.1017,0.097 -6.5468,-18.0449 -18.323,-34.4416 -34.9078,-46.5135 -16.274,-11.8468 -35.3427,-17.9015 -54.2571,-18.6283 -0.4395,-1.0291 -0.9579,-2.5938 -1.1684,-3.933 -2.251,-9.9377 2.6714,-17.0256 13.6531,-21.3619 l 16.9724,-6.3781 c 3.961,-1.8582 5.5543,-3.0696 7.5856,-5.8602 4.4006,-6.0447 1.1209,-11.639 -5.2331,-16.2645 -4.8052,-3.4975 -8.0492,-6.2081 -14.8298,-3.0819 l -20.089,8.3783 c -22.2881,10.0968 -31.1189,28.092 -23.9819,49.8849 l 0.5207,1.5651 c -22.3988,5.0363 -43.4619,17.6847 -58.0163,37.679 -17.1494,23.5589 -14.0034,50.5106 9.116,74.453 l -1.1283,1.5501 c -6.2156,-0.2548 -12.4743,1.8271 -17.6771,5.3914 l -31.9956,-30.6418 c -9.2144,-8.8423 -12.3552,-16.5812 -4.3442,-27.5858 l 35.5396,-48.8237 c 5.4155,-7.4402 4.3478,-15.0935 -3.092,-20.5095 -7.4393,-5.4154 -14.9392,-4.2352 -20.4676,3.36 l -39.0372,53.629 c -13.8773,19.0643 -13.0948,36.2321 4.3609,52.9703 l 42.6196,41.4564 c -3.0617,8.4416 -3.1922,18.0682 1.1033,26.1746 l -1.1284,1.5501 -81.9046,-34.7219 c -23.3799,-9.9048 -37.8846,-5.2868 -48.1405,14.9911 l -45.8459,89.6958 c -4.557,8.5396 -4.3764,15.7843 3.2185,21.3127 7.2846,5.303 16.5457,3.9817 21.582,-5.8681 l 42.7276,-82.4798 c 5.2191,-10.4275 11.5208,-12.2436 24.3598,-7.4041 5.2411,1.9201 10.5269,4.1074 15.9235,6.1387 -6.7385,3.3943 -12.9853,9.0431 -18.7391,16.9477 -36.8934,50.6842 -32.9077,125.671 10.8011,157.4873 z"
       id="path1-4-1-6-7-5-8-6-9-8-5"
       style="display:inline;fill:#fafafa;fill-opacity:1;stroke-width:7.55905542;stroke:#b1b1b1;stroke-opacity:1;stroke-dasharray:none" /><text
       xml:space="preserve"
       style="font-style:normal;font-variant:normal;font-weight:normal;font-stretch:normal;font-size:99.576px;line-height:1;font-family:'Good Timing';-inkscape-font-specification:'Good Timing';text-align:center;letter-spacing:0px;writing-mode:lr-tb;direction:ltr;text-anchor:middle;display:inline;fill:#656560;fill-opacity:1;stroke:#000000;stroke-width:3.77952771;stroke-linecap:round;stroke-linejoin:round;stroke-miterlimit:10;stroke-dasharray:none;stroke-opacity:1"
       x="1413.9636"
       y="2034.0059"
       id="text3-7-1-8-3-8-0-8-0-2-2-5"><tspan
         sodipodi:role="line"
         id="tspan3-3-1-8-3-9-9-1-6-7-6-4"
         x="1413.9636"
         y="2034.0059"
         style="line-height:1;letter-spacing:0px;fill:#656560;fill-opacity:1;stroke-width:3.77952771;stroke-dasharray:none;stroke:#000000;stroke-opacity:1"
         dy="0">F.A.C.</tspan><tspan
         sodipodi:role="line"
         x="1413.9636"
         y="2133.5818"
         id="tspan4-6-5-3-8-7-2-2-4-0-1-7"
         style="line-height:1;letter-spacing:0px;fill:#656560;fill-opacity:1;stroke-width:3.77952771;stroke-dasharray:none;stroke:#000000;stroke-opacity:1">TOOL</tspan></text></g><g
     inkscape:groupmode="layer"
     id="layer10"
     inkscape:label="Layer 12"><ellipse
       style="fill:#1b6f1b;fill-opacity:1;stroke:none;stroke-width:14.3287;stroke-linecap:round;stroke-linejoin:round;stroke-miterlimit:10;stroke-dasharray:none;stroke-opacity:1;paint-order:fill markers stroke"
       id="path7"
       cx="256"
       cy="3044.3416"
       rx="256"
       ry="255.99994" /><path
       id="path3"
       d="m -13.197082,5.1281089 c -1.03101,1.0187031 -2.073865,0.807535 -2.854915,0.026535 -0.78105,-0.781 -0.998365,-1.830035 0.0265,-2.854935 l 8.3725754,-8.37258 c -0.13355,-0.616975 -0.24545,-1.208225 -0.24545,-1.825605 0,-2.7614199 2.3077608,-5.0691609 5.0691608,-5.0691609 0.6174,0 1.2086,0.1119 1.7603,0.31078 l -2.9846608,2.9846209 c -0.3208,0.32083 0.2737,0.99272 1.0547,1.77376 0.7811,0.78105 1.4529,1.37549 1.7738,1.05466 l 3.0184082,-2.9244967 c 0.3018081,0.5426234 0.3082918,1.2524667 0.3082918,1.8698367 0,2.76142 -2.23859998,5.00002 -5,5.00002 -0.6174,0 -1.2086,-0.1119 -1.8759,-0.2957 z"
       style="fill:#ffffff;fill-opacity:1;stroke:none;stroke-opacity:1"
       sodipodi:nodetypes="ssccsscccccsscs"
       transform="matrix(14.459052,-14.459052,14.459052,14.459052,412.11216,2974.6126)" /><rect
       style="fill:url(#radialGradient9);stroke:none;stroke-width:4.92345;stroke-linecap:round;stroke-linejoin:round;stroke-miterlimit:10;stroke-dasharray:none;stroke-opacity:1;paint-order:fill markers stroke"
       id="rect8"
       width="469.01932"
       height="285.84787"
       x="21.138897"
       y="2908.4031"
       ry="5.758656" /><path
       d="m 208.75189,3110.591 c 17.15377,12.4864 45.53847,4.9578 59.9663,-14.863 2.24997,-3.0914 3.60212,-6.0946 4.05506,-9.0104 1.40491,1.7645 2.85362,3.4686 4.19835,5.1886 3.34382,4.1959 3.42529,6.7593 0.17199,9.9547 l -25.55907,25.8132 c -3.0605,3.0581 -2.43913,6.6631 0.40933,8.7367 2.97043,2.1623 5.62731,1.3145 8.31848,-1.3634 l 27.86939,-27.8403 c 6.31376,-6.2537 6.22839,-12.2507 -0.20637,-19.717 l -22.70427,-26.2632 0.38078,-0.6504 c 3.53303,0.6244 7.09957,-0.5814 9.8731,-2.7354 l 20.54969,10.8786 c 8.32709,4.4847 14.80978,2.7124 20.23656,-4.743 l 15.26636,-20.9725 c 2.16217,-2.9702 1.70047,-5.9025 -1.20899,-8.0203 -2.90943,-2.118 -5.88609,-1.5955 -8.00391,1.3142 l -13.89821,19.0932 c -3.133,4.3037 -6.4511,4.0209 -10.78792,1.6987 l -15.24872,-8.2247 c 0.70106,-2.3646 0.72429,-4.9445 -0.11854,-7.2265 l 0.44109,-0.6063 c 11.68867,5.7264 22.03621,3.614 28.74244,-5.5989 5.64761,-7.7586 7.90044,-16.9684 7.14356,-25.8652 l 0.85433,-0.028 c 8.96785,0.036 14.60362,-5.412 15.68238,-14.92 l 0.70396,-8.4827 c 0.34797,-2.899 -1.05025,-3.7805 -2.92902,-5.1479 -2.48536,-1.8093 -4.96113,-2.3574 -6.68218,0 -0.79403,1.0909 -1.0535,1.8295 -1.26883,3.5271 l -0.33404,7.083 c -0.35462,4.5636 -2.34016,7.2912 -6.41344,7.6643 -0.52407,0.082 -1.06413,0.06 -1.60405,0.038 -2.56024,-7.0567 -7.16553,-13.469 -13.65132,-18.1899 -6.36424,-4.6329 -13.8214,-7.0007 -21.21822,-7.2849 -0.17187,-0.4024 -0.3746,-1.0143 -0.45692,-1.5381 -0.88029,-3.8863 1.0447,-6.6581 5.33929,-8.3539 l 6.63736,-2.4943 c 1.54902,-0.7267 2.17211,-1.2004 2.96649,-2.2917 1.72093,-2.3639 0.43835,-4.5517 -2.0465,-6.3606 -1.87916,-1.3677 -3.14779,-2.4278 -5.79946,-1.2052 l -7.85617,3.2765 c -8.71616,3.9485 -12.1696,10.9859 -9.37855,19.5084 l 0.20363,0.612 c -8.75946,1.9696 -16.99656,6.9159 -22.68832,14.7351 -6.70659,9.2131 -5.47628,19.753 3.56497,29.1162 l -0.44124,0.6061 c -2.43072,-0.1 -4.8783,0.7146 -6.91295,2.1085 l -12.51245,-11.9831 c -3.60346,-3.4579 -4.83173,-6.4843 -1.69888,-10.7879 l 13.8984,-19.0933 c 2.11783,-2.9097 1.70028,-5.9026 -1.20919,-8.0207 -2.90926,-2.1177 -5.84224,-1.6562 -8.00422,1.314 l -15.2662,20.9727 c -5.42696,7.4554 -5.12096,14.1692 1.70541,20.715 l 16.66716,16.2123 c -1.19733,3.3012 -1.24837,7.0659 0.43147,10.2361 l -0.44128,0.6061 -32.03027,-13.5786 c -9.14313,-3.8735 -14.81546,-2.0675 -18.82621,5.8626 l -17.92887,35.0771 c -1.78209,3.3395 -1.71146,6.1727 1.25866,8.3347 2.84877,2.0738 6.47049,1.5571 8.44003,-2.2948 l 16.70939,-32.2552 c 2.04103,-4.0779 4.50542,-4.7881 9.52634,-2.8956 2.04963,0.751 4.11674,1.6063 6.22717,2.4007 -2.63521,1.3274 -5.07814,3.5365 -7.32826,6.6277 -14.42783,19.821 -12.86915,49.1459 4.22396,61.5883 z"
       id="path1-4-1-6-7-5-8-6-9-8-5-3"
       style="display:inline;fill:#ffffff;fill-opacity:1;stroke:none;stroke-width:2.9561;stroke-dasharray:none;stroke-opacity:1" /><text
       xml:space="preserve"
       style="font-style:normal;font-variant:normal;font-weight:normal;font-stretch:normal;font-size:196.532px;line-height:1;font-family:'Good Timing';-inkscape-font-specification:'Good Timing';text-align:center;letter-spacing:0px;writing-mode:lr-tb;direction:ltr;text-anchor:middle;display:inline;fill:#ffffff;fill-opacity:1;stroke:none;stroke-width:27.0228;stroke-linecap:round;stroke-linejoin:round;stroke-miterlimit:10"
       x="254.82051"
       y="3108.2144"
       id="text3-7-1-8-3-8-0-8-0-2-0"><tspan
         sodipodi:role="line"
         x="254.82051"
         y="3108.2144"
         id="tspan4-6-5-3-8-7-2-2-4-0-9"
         style="line-height:1;letter-spacing:0px;fill:#ffffff;fill-opacity:1;stroke-width:27.0228"><tspan
           dy="0"
           id="tspan8"
           style="line-height:1;letter-spacing:0px;fill:#ffffff;fill-opacity:1;stroke-width:27.0228">F   C</tspan></tspan></text></g><g
     inkscape:groupmode="layer"
     id="layer11"
     inkscape:label="Layer 13"><ellipse
       style="fill:#00a8ff;fill-opacity:1;stroke:none;stroke-width:14.3287;stroke-linecap:round;stroke-linejoin:round;stroke-miterlimit:10;stroke-dasharray:none;stroke-opacity:1;paint-order:fill markers stroke"
       id="path7-8"
       cx="830.45184"
       cy="3045.7151"
       rx="256"
       ry="255.99994" /><g
       id="g4"
       transform="matrix(0.83271173,0,0,0.83271173,596.16203,2822.496)"
       style="fill:#ffffff;fill-opacity:1">
	<path
   class="st0"
   d="m 360.102,240.012 10.156,-10.266 c 0,0 15.609,-13.406 33.406,-7.328 30.984,10.578 66.781,-0.875 91.609,-25.734 7.063,-7.063 15.641,-21.234 15.641,-21.234 0.984,-1.344 1.328,-3.047 0.922,-4.672 l -1.922,-7.906 c -0.359,-1.484 -1.313,-2.75 -2.625,-3.531 -1.313,-0.766 -2.891,-0.969 -4.344,-0.547 l -60.984,16.969 c -2.266,0.625 -4.688,-0.219 -6.063,-2.109 L 407.883,135.06 c -0.859,-1.172 -1.219,-2.641 -1.016,-4.063 l 5.641,-41 c 0.297,-2.234 1.891,-4.047 4.063,-4.656 l 64.406,-17.922 c 2.906,-0.813 4.672,-3.813 3.953,-6.766 l -2.547,-10.359 c -0.344,-1.469 -1.281,-2.719 -2.563,-3.5 0,0 -5.047,-3.344 -8.719,-5.234 -36.578,-18.891 -82.64,-13.031 -113.312,17.656 -22.656,22.656 -31.531,53.688 -27.375,83.156 3.203,22.656 1.703,34.703 -8.078,45.047 -0.891,0.922 -3.703,3.734 -8.047,8 z"
   id="path1"
   style="fill:#ffffff;fill-opacity:1" />
	<path
   class="st0"
   d="M 211.383,295.418 C 143.024,361.652 68.461,433.715 68.461,433.715 c -2.547,2.438 -4,5.797 -4.047,9.313 -0.047,3.5 1.344,6.891 3.813,9.375 l 31.938,31.938 c 2.5,2.484 5.875,3.859 9.391,3.813 3.516,-0.031 6.859,-1.5 9.281,-4.031 L 258.165,343.17 Z"
   id="path2"
   style="fill:#ffffff;fill-opacity:1" />
	<path
   class="st0"
   d="m 501.43,451.371 c 2.484,-2.484 3.859,-5.859 3.813,-9.375 -0.031,-3.516 -1.5,-6.859 -4.031,-9.297 L 227.415,166.246 183.462,210.215 450.805,483.09 c 2.438,2.547 5.781,4 9.297,4.047 3.516,0.047 6.891,-1.344 9.391,-3.828 z"
   id="path3-0"
   style="fill:#ffffff;fill-opacity:1" />
	<path
   class="st0"
   d="M 254.196,32.621 C 221.227,19.762 167.915,17.902 137.04,48.762 c -24.313,24.313 -59.875,59.891 -59.875,59.891 -12.672,12.656 -0.906,25.219 -10.266,34.563 -9.359,9.359 -24.313,0 -32.734,8.422 L 3.29,182.527 c -4.391,4.375 -4.391,11.5 0,15.891 l 43.016,43.016 c 4.391,4.391 11.516,4.391 15.906,0 l 30.875,-30.875 c 8.438,-8.422 -0.938,-23.375 8.438,-32.719 12.609,-12.625 26.375,-10.484 34.328,-2.547 l 15.891,15.891 17.219,4.531 43.953,-43.953 -5.063,-16.688 c -14.016,-14.031 -16.016,-30.266 -7.234,-39.047 13.594,-13.594 36.047,-33.234 57.078,-41.656 13.405,-5.359 9.358,-18.703 -3.501,-21.75 z m -59.625,70.859 c -0.063,0.047 5.859,-7.281 5.969,-7.375 z"
   id="path4"
   style="fill:#ffffff;fill-opacity:1" />
</g><rect
       style="fill:url(#radialGradient9-4);stroke:none;stroke-width:5.51368;stroke-linecap:round;stroke-linejoin:round;stroke-miterlimit:10;stroke-dasharray:none;stroke-opacity:1;paint-order:fill markers stroke"
       id="rect8-1"
       width="588.21259"
       height="285.84787"
       x="531.94501"
       y="2908.0869"
       ry="5.758656" /><path
       d="m 783.20376,3111.9645 c 17.15378,12.4864 45.53848,4.9578 59.96628,-14.863 2.25,-3.0914 3.6021,-6.0946 4.0551,-9.0104 1.4049,1.7645 2.8536,3.4686 4.1983,5.1886 3.3439,4.1959 3.4253,6.7593 0.172,9.9547 l -25.559,25.8132 c -3.0605,3.0581 -2.4392,6.6631 0.4093,8.7367 2.9704,2.1623 5.6273,1.3145 8.3185,-1.3634 l 27.8694,-27.8403 c 6.3137,-6.2537 6.2283,-12.2507 -0.2064,-19.717 l -22.7043,-26.2632 0.3808,-0.6504 c 3.533,0.6244 7.0996,-0.5814 9.8731,-2.7354 l 20.5497,10.8786 c 8.3271,4.4847 14.8098,2.7124 20.2365,-4.743 l 15.2664,-20.9725 c 2.1622,-2.9702 1.7005,-5.9025 -1.209,-8.0203 -2.9094,-2.118 -5.8861,-1.5955 -8.0039,1.3142 l -13.8982,19.0932 c -3.133,4.3037 -6.4511,4.0209 -10.7879,1.6987 l -15.2487,-8.2247 c 0.701,-2.3646 0.7242,-4.9445 -0.1186,-7.2265 l 0.4411,-0.6063 c 11.6887,5.7264 22.0362,3.614 28.7424,-5.5989 5.6477,-7.7586 7.9005,-16.9684 7.1436,-25.8652 l 0.8543,-0.028 c 8.9679,0.036 14.6037,-5.412 15.6824,-14.92 l 0.704,-8.4827 c 0.3479,-2.899 -1.0503,-3.7805 -2.929,-5.1479 -2.4854,-1.8093 -4.9612,-2.3574 -6.6822,0 -0.7941,1.0909 -1.0535,1.8295 -1.2689,3.5271 l -0.334,7.083 c -0.3546,4.5636 -2.3402,7.2912 -6.4134,7.6643 -0.5241,0.082 -1.0642,0.06 -1.6041,0.038 -2.5602,-7.0567 -7.1655,-13.469 -13.6513,-18.1899 -6.3642,-4.6329 -13.8214,-7.0007 -21.2182,-7.2849 -0.1719,-0.4024 -0.3746,-1.0143 -0.4569,-1.5381 -0.8803,-3.8863 1.0447,-6.6581 5.3392,-8.3539 l 6.6374,-2.4943 c 1.549,-0.7267 2.1721,-1.2004 2.9665,-2.2917 1.7209,-2.3639 0.4383,-4.5517 -2.0465,-6.3606 -1.8792,-1.3677 -3.1478,-2.4278 -5.7995,-1.2052 l -7.8561,3.2765 c -8.7162,3.9485 -12.1696,10.9859 -9.3786,19.5084 l 0.2036,0.612 c -8.7594,1.9696 -16.9965,6.9159 -22.6883,14.7351 -6.7066,9.2131 -5.4763,19.753 3.565,29.1162 l -0.4412,0.6061 c -2.4308,-0.1 -4.8783,0.7146 -6.913,2.1085 l -12.5124,-11.9831 c -3.6035,-3.4579 -4.8318,-6.4843 -1.6989,-10.7879 l 13.8984,-19.0933 c 2.1178,-2.9097 1.7003,-5.9026 -1.2092,-8.0207 -2.9093,-2.1177 -5.8423,-1.6562 -8.0042,1.314 l -15.26624,20.9727 c -5.42696,7.4554 -5.12096,14.1692 1.70544,20.715 l 16.6671,16.2123 c -1.1973,3.3012 -1.2483,7.0659 0.4315,10.2361 l -0.4413,0.6061 -32.03025,-13.5786 c -9.14313,-3.8735 -14.81546,-2.0675 -18.82621,5.8626 l -17.92887,35.0771 c -1.78209,3.3395 -1.71146,6.1727 1.25866,8.3347 2.84877,2.0738 6.47049,1.5571 8.44003,-2.2948 l 16.70939,-32.2552 c 2.04103,-4.0779 4.50542,-4.7881 9.52634,-2.8956 2.04963,0.751 4.11674,1.6063 6.22717,2.4007 -2.63521,1.3274 -5.07814,3.5365 -7.32826,6.6277 -14.42783,19.821 -12.86915,49.1459 4.22396,61.5883 z"
       id="path1-4-1-6-7-5-8-6-9-8-5-3-7"
       style="display:inline;fill:#ffffff;fill-opacity:1;stroke:none;stroke-width:2.9561;stroke-dasharray:none;stroke-opacity:1" /><text
       xml:space="preserve"
       style="font-style:normal;font-variant:normal;font-weight:normal;font-stretch:normal;font-size:196.532px;line-height:1;font-family:'Good Timing';-inkscape-font-specification:'Good Timing';text-align:center;letter-spacing:0px;writing-mode:lr-tb;direction:ltr;text-anchor:middle;display:inline;fill:#ffffff;fill-opacity:1;stroke:none;stroke-width:27.0228;stroke-linecap:round;stroke-linejoin:round;stroke-miterlimit:10"
       x="829.2724"
       y="3109.5879"
       id="text3-7-1-8-3-8-0-8-0-2-0-2"><tspan
         sodipodi:role="line"
         x="829.2724"
         y="3109.5879"
         id="tspan4-6-5-3-8-7-2-2-4-0-9-7"
         style="line-height:1;letter-spacing:0px;fill:#ffffff;fill-opacity:1;stroke-width:27.0228"><tspan
           dy="0"
           id="tspan8-2"
           style="line-height:1;letter-spacing:0px;fill:#ffffff;fill-opacity:1;stroke-width:27.0228">F   C</tspan></tspan></text></g><style
     type="text/css"
     id="style1-1">
<![CDATA[
	.st0{fill:#000000;}
]]>
</style></svg>
