%TF.GenerationSoftware,KiCad,Pcbnew,8.0.2*%
%TF.CreationDate,2024-07-01T07:37:42+02:00*%
%TF.ProjectId,ant control board v1.2,616e7420-636f-46e7-9472-6f6c20626f61,1.1*%
%TF.SameCoordinates,Original*%
%TF.FileFunction,Legend,Bot*%
%TF.FilePolarity,Positive*%
%FSLAX46Y46*%
G04 Gerber Fmt 4.6, Leading zero omitted, Abs format (unit mm)*
G04 Created by KiCad (PCBNEW 8.0.2) date 2024-07-01 07:37:42*
%MOMM*%
%LPD*%
G01*
G04 APERTURE LIST*
%ADD10C,0.150000*%
%ADD11C,0.125000*%
%ADD12C,0.120000*%
%ADD13C,0.000000*%
%ADD14C,0.171191*%
G04 APERTURE END LIST*
D10*
X159479185Y-90551000D02*
X159893000Y-90551000D01*
X159893000Y-90551000D02*
X159893000Y-90932000D01*
X146558000Y-76708000D02*
X147574000Y-76708000D01*
X143510000Y-101346000D02*
X137668000Y-101346000D01*
X150114000Y-100711000D02*
X149860000Y-100457000D01*
X144145000Y-93980000D02*
X143891000Y-93345000D01*
X141732000Y-79502000D02*
X141732000Y-78994000D01*
X141478000Y-79248000D02*
X141986000Y-79248000D01*
X159893000Y-97282000D02*
X159893000Y-101092000D01*
X143002000Y-76708000D02*
X146558000Y-76708000D01*
X147574000Y-76708000D02*
X147574000Y-76861595D01*
X149733000Y-101346000D02*
X143891000Y-101346000D01*
X150876000Y-100457000D02*
X149860000Y-100457000D01*
X137414000Y-92583000D02*
X137414000Y-98425000D01*
X159469573Y-96901000D02*
X159893000Y-96901000D01*
X159893000Y-90932000D02*
X159893000Y-94869000D01*
X149860000Y-100457000D02*
X150114000Y-100203000D01*
X138938000Y-76708000D02*
X137922000Y-76708000D01*
X139446000Y-79248000D02*
X139954000Y-79248000D01*
X148146164Y-94869000D02*
X147407960Y-95344031D01*
X150114000Y-100203000D02*
X150114000Y-100711000D01*
X137414000Y-86360000D02*
X137414000Y-92202000D01*
X159893000Y-84201000D02*
X159480316Y-84201000D01*
X138938000Y-76708000D02*
X142494000Y-76708000D01*
X159893000Y-84582000D02*
X159893000Y-84201000D01*
X159893000Y-96901000D02*
X159893000Y-97282000D01*
X159893000Y-84582000D02*
X159893000Y-88646000D01*
X137922000Y-76708000D02*
X137922000Y-76872904D01*
G36*
X149455746Y-98872613D02*
G01*
X149458148Y-98833025D01*
X149461244Y-98788365D01*
X149464573Y-98746810D01*
X149468752Y-98702254D01*
X149473250Y-98661924D01*
X149473918Y-98656507D01*
X149435781Y-98673131D01*
X149397794Y-98687541D01*
X149358304Y-98699192D01*
X149355314Y-98699885D01*
X149316049Y-98707231D01*
X149276763Y-98710589D01*
X149272271Y-98710631D01*
X149231189Y-98707407D01*
X149200171Y-98697735D01*
X149174818Y-98667854D01*
X149174183Y-98660611D01*
X149176723Y-98644784D01*
X149186298Y-98627393D01*
X149207205Y-98605119D01*
X149310373Y-98515433D01*
X149341245Y-98488957D01*
X149361175Y-98470883D01*
X149389037Y-98441828D01*
X149407484Y-98417931D01*
X149426165Y-98383348D01*
X149431908Y-98367324D01*
X149438926Y-98328633D01*
X149439529Y-98312613D01*
X149435258Y-98272164D01*
X149427414Y-98245202D01*
X149409732Y-98209413D01*
X149390680Y-98183458D01*
X149360373Y-98155048D01*
X149326395Y-98133828D01*
X149290374Y-98118114D01*
X149252408Y-98107562D01*
X149241203Y-98105495D01*
X149201052Y-98100286D01*
X149159929Y-98097994D01*
X149148000Y-98097875D01*
X149106177Y-98098501D01*
X149062259Y-98100381D01*
X149022948Y-98102989D01*
X148982098Y-98106517D01*
X148939710Y-98110966D01*
X148937976Y-98150296D01*
X148935802Y-98188538D01*
X148932442Y-98228705D01*
X148928438Y-98271410D01*
X148924274Y-98313981D01*
X148963075Y-98298906D01*
X149000454Y-98286990D01*
X149025097Y-98281155D01*
X149065496Y-98274751D01*
X149095830Y-98272948D01*
X149135236Y-98277250D01*
X149163046Y-98288189D01*
X149188627Y-98319006D01*
X149189033Y-98324142D01*
X149185125Y-98343095D01*
X149169494Y-98365956D01*
X149140814Y-98393788D01*
X149138426Y-98395851D01*
X149107164Y-98421128D01*
X149076486Y-98445091D01*
X149037016Y-98476354D01*
X149007564Y-98502576D01*
X148998719Y-98511329D01*
X148971873Y-98540620D01*
X148962962Y-98551971D01*
X148941115Y-98585688D01*
X148939515Y-98588901D01*
X148927205Y-98623290D01*
X148923102Y-98660611D01*
X148927132Y-98701081D01*
X148939225Y-98739940D01*
X148947526Y-98757331D01*
X148970692Y-98791930D01*
X149000501Y-98821112D01*
X149016500Y-98832753D01*
X149050975Y-98852381D01*
X149087868Y-98867008D01*
X149113806Y-98873981D01*
X149154171Y-98881125D01*
X149196128Y-98884972D01*
X149224986Y-98885705D01*
X149266549Y-98885078D01*
X149306148Y-98883544D01*
X149349416Y-98881089D01*
X149396352Y-98877714D01*
X149438267Y-98874199D01*
X149455746Y-98872613D01*
G37*
G36*
X142750146Y-98923413D02*
G01*
X142752548Y-98883825D01*
X142755644Y-98839165D01*
X142758973Y-98797610D01*
X142763152Y-98753054D01*
X142767650Y-98712724D01*
X142768318Y-98707307D01*
X142730181Y-98723931D01*
X142692194Y-98738341D01*
X142652704Y-98749992D01*
X142649714Y-98750685D01*
X142610449Y-98758031D01*
X142571163Y-98761389D01*
X142566671Y-98761431D01*
X142525589Y-98758207D01*
X142494571Y-98748535D01*
X142469218Y-98718654D01*
X142468583Y-98711411D01*
X142471123Y-98695584D01*
X142480698Y-98678193D01*
X142501605Y-98655919D01*
X142604773Y-98566233D01*
X142635645Y-98539757D01*
X142655575Y-98521683D01*
X142683437Y-98492628D01*
X142701884Y-98468731D01*
X142720565Y-98434148D01*
X142726308Y-98418124D01*
X142733326Y-98379433D01*
X142733929Y-98363413D01*
X142729658Y-98322964D01*
X142721814Y-98296002D01*
X142704132Y-98260213D01*
X142685080Y-98234258D01*
X142654773Y-98205848D01*
X142620795Y-98184628D01*
X142584774Y-98168914D01*
X142546808Y-98158362D01*
X142535603Y-98156295D01*
X142495452Y-98151086D01*
X142454329Y-98148794D01*
X142442400Y-98148675D01*
X142400577Y-98149301D01*
X142356659Y-98151181D01*
X142317348Y-98153789D01*
X142276498Y-98157317D01*
X142234110Y-98161766D01*
X142232376Y-98201096D01*
X142230202Y-98239338D01*
X142226842Y-98279505D01*
X142222838Y-98322210D01*
X142218674Y-98364781D01*
X142257475Y-98349706D01*
X142294854Y-98337790D01*
X142319497Y-98331955D01*
X142359896Y-98325551D01*
X142390230Y-98323748D01*
X142429636Y-98328050D01*
X142457446Y-98338989D01*
X142483027Y-98369806D01*
X142483433Y-98374942D01*
X142479525Y-98393895D01*
X142463894Y-98416756D01*
X142435214Y-98444588D01*
X142432826Y-98446651D01*
X142401564Y-98471928D01*
X142370886Y-98495891D01*
X142331416Y-98527154D01*
X142301964Y-98553376D01*
X142293119Y-98562129D01*
X142266273Y-98591420D01*
X142257362Y-98602771D01*
X142235515Y-98636488D01*
X142233915Y-98639701D01*
X142221605Y-98674090D01*
X142217502Y-98711411D01*
X142221532Y-98751881D01*
X142233625Y-98790740D01*
X142241926Y-98808131D01*
X142265092Y-98842730D01*
X142294901Y-98871912D01*
X142310900Y-98883553D01*
X142345375Y-98903181D01*
X142382268Y-98917808D01*
X142408206Y-98924781D01*
X142448571Y-98931925D01*
X142490528Y-98935772D01*
X142519386Y-98936505D01*
X142560949Y-98935878D01*
X142600548Y-98934344D01*
X142643816Y-98931889D01*
X142690752Y-98928514D01*
X142732667Y-98924999D01*
X142750146Y-98923413D01*
G37*
X139256966Y-82666667D02*
X139256966Y-83000000D01*
X139256966Y-83000000D02*
X139956966Y-83000000D01*
X139256966Y-82066666D02*
X139256966Y-82466666D01*
X139256966Y-82266666D02*
X139956966Y-82266666D01*
X139956966Y-82266666D02*
X139856966Y-82333333D01*
X139856966Y-82333333D02*
X139790300Y-82400000D01*
X139790300Y-82400000D02*
X139756966Y-82466666D01*
D11*
X142942428Y-82600190D02*
X142966237Y-82624000D01*
X142966237Y-82624000D02*
X143037666Y-82647809D01*
X143037666Y-82647809D02*
X143085285Y-82647809D01*
X143085285Y-82647809D02*
X143156713Y-82624000D01*
X143156713Y-82624000D02*
X143204332Y-82576380D01*
X143204332Y-82576380D02*
X143228142Y-82528761D01*
X143228142Y-82528761D02*
X143251951Y-82433523D01*
X143251951Y-82433523D02*
X143251951Y-82362095D01*
X143251951Y-82362095D02*
X143228142Y-82266857D01*
X143228142Y-82266857D02*
X143204332Y-82219238D01*
X143204332Y-82219238D02*
X143156713Y-82171619D01*
X143156713Y-82171619D02*
X143085285Y-82147809D01*
X143085285Y-82147809D02*
X143037666Y-82147809D01*
X143037666Y-82147809D02*
X142966237Y-82171619D01*
X142966237Y-82171619D02*
X142942428Y-82195428D01*
X142466237Y-82647809D02*
X142751951Y-82647809D01*
X142609094Y-82647809D02*
X142609094Y-82147809D01*
X142609094Y-82147809D02*
X142656713Y-82219238D01*
X142656713Y-82219238D02*
X142704332Y-82266857D01*
X142704332Y-82266857D02*
X142751951Y-82290666D01*
X142180523Y-82362095D02*
X142228142Y-82338285D01*
X142228142Y-82338285D02*
X142251952Y-82314476D01*
X142251952Y-82314476D02*
X142275761Y-82266857D01*
X142275761Y-82266857D02*
X142275761Y-82243047D01*
X142275761Y-82243047D02*
X142251952Y-82195428D01*
X142251952Y-82195428D02*
X142228142Y-82171619D01*
X142228142Y-82171619D02*
X142180523Y-82147809D01*
X142180523Y-82147809D02*
X142085285Y-82147809D01*
X142085285Y-82147809D02*
X142037666Y-82171619D01*
X142037666Y-82171619D02*
X142013857Y-82195428D01*
X142013857Y-82195428D02*
X141990047Y-82243047D01*
X141990047Y-82243047D02*
X141990047Y-82266857D01*
X141990047Y-82266857D02*
X142013857Y-82314476D01*
X142013857Y-82314476D02*
X142037666Y-82338285D01*
X142037666Y-82338285D02*
X142085285Y-82362095D01*
X142085285Y-82362095D02*
X142180523Y-82362095D01*
X142180523Y-82362095D02*
X142228142Y-82385904D01*
X142228142Y-82385904D02*
X142251952Y-82409714D01*
X142251952Y-82409714D02*
X142275761Y-82457333D01*
X142275761Y-82457333D02*
X142275761Y-82552571D01*
X142275761Y-82552571D02*
X142251952Y-82600190D01*
X142251952Y-82600190D02*
X142228142Y-82624000D01*
X142228142Y-82624000D02*
X142180523Y-82647809D01*
X142180523Y-82647809D02*
X142085285Y-82647809D01*
X142085285Y-82647809D02*
X142037666Y-82624000D01*
X142037666Y-82624000D02*
X142013857Y-82600190D01*
X142013857Y-82600190D02*
X141990047Y-82552571D01*
X141990047Y-82552571D02*
X141990047Y-82457333D01*
X141990047Y-82457333D02*
X142013857Y-82409714D01*
X142013857Y-82409714D02*
X142037666Y-82385904D01*
X142037666Y-82385904D02*
X142085285Y-82362095D01*
D10*
X151326000Y-93086366D02*
X151359333Y-93119700D01*
X151359333Y-93119700D02*
X151459333Y-93153033D01*
X151459333Y-93153033D02*
X151526000Y-93153033D01*
X151526000Y-93153033D02*
X151626000Y-93119700D01*
X151626000Y-93119700D02*
X151692667Y-93053033D01*
X151692667Y-93053033D02*
X151726000Y-92986366D01*
X151726000Y-92986366D02*
X151759333Y-92853033D01*
X151759333Y-92853033D02*
X151759333Y-92753033D01*
X151759333Y-92753033D02*
X151726000Y-92619700D01*
X151726000Y-92619700D02*
X151692667Y-92553033D01*
X151692667Y-92553033D02*
X151626000Y-92486366D01*
X151626000Y-92486366D02*
X151526000Y-92453033D01*
X151526000Y-92453033D02*
X151459333Y-92453033D01*
X151459333Y-92453033D02*
X151359333Y-92486366D01*
X151359333Y-92486366D02*
X151326000Y-92519700D01*
X151059333Y-92519700D02*
X151026000Y-92486366D01*
X151026000Y-92486366D02*
X150959333Y-92453033D01*
X150959333Y-92453033D02*
X150792667Y-92453033D01*
X150792667Y-92453033D02*
X150726000Y-92486366D01*
X150726000Y-92486366D02*
X150692667Y-92519700D01*
X150692667Y-92519700D02*
X150659333Y-92586366D01*
X150659333Y-92586366D02*
X150659333Y-92653033D01*
X150659333Y-92653033D02*
X150692667Y-92753033D01*
X150692667Y-92753033D02*
X151092667Y-93153033D01*
X151092667Y-93153033D02*
X150659333Y-93153033D01*
X149992666Y-93153033D02*
X150392666Y-93153033D01*
X150192666Y-93153033D02*
X150192666Y-92453033D01*
X150192666Y-92453033D02*
X150259333Y-92553033D01*
X150259333Y-92553033D02*
X150326000Y-92619700D01*
X150326000Y-92619700D02*
X150392666Y-92653033D01*
X144849000Y-94864366D02*
X144882333Y-94897700D01*
X144882333Y-94897700D02*
X144982333Y-94931033D01*
X144982333Y-94931033D02*
X145049000Y-94931033D01*
X145049000Y-94931033D02*
X145149000Y-94897700D01*
X145149000Y-94897700D02*
X145215667Y-94831033D01*
X145215667Y-94831033D02*
X145249000Y-94764366D01*
X145249000Y-94764366D02*
X145282333Y-94631033D01*
X145282333Y-94631033D02*
X145282333Y-94531033D01*
X145282333Y-94531033D02*
X145249000Y-94397700D01*
X145249000Y-94397700D02*
X145215667Y-94331033D01*
X145215667Y-94331033D02*
X145149000Y-94264366D01*
X145149000Y-94264366D02*
X145049000Y-94231033D01*
X145049000Y-94231033D02*
X144982333Y-94231033D01*
X144982333Y-94231033D02*
X144882333Y-94264366D01*
X144882333Y-94264366D02*
X144849000Y-94297700D01*
X144582333Y-94297700D02*
X144549000Y-94264366D01*
X144549000Y-94264366D02*
X144482333Y-94231033D01*
X144482333Y-94231033D02*
X144315667Y-94231033D01*
X144315667Y-94231033D02*
X144249000Y-94264366D01*
X144249000Y-94264366D02*
X144215667Y-94297700D01*
X144215667Y-94297700D02*
X144182333Y-94364366D01*
X144182333Y-94364366D02*
X144182333Y-94431033D01*
X144182333Y-94431033D02*
X144215667Y-94531033D01*
X144215667Y-94531033D02*
X144615667Y-94931033D01*
X144615667Y-94931033D02*
X144182333Y-94931033D01*
X143915666Y-94297700D02*
X143882333Y-94264366D01*
X143882333Y-94264366D02*
X143815666Y-94231033D01*
X143815666Y-94231033D02*
X143649000Y-94231033D01*
X143649000Y-94231033D02*
X143582333Y-94264366D01*
X143582333Y-94264366D02*
X143549000Y-94297700D01*
X143549000Y-94297700D02*
X143515666Y-94364366D01*
X143515666Y-94364366D02*
X143515666Y-94431033D01*
X143515666Y-94431033D02*
X143549000Y-94531033D01*
X143549000Y-94531033D02*
X143949000Y-94931033D01*
X143949000Y-94931033D02*
X143515666Y-94931033D01*
X155691666Y-73722033D02*
X155924999Y-73388700D01*
X156091666Y-73722033D02*
X156091666Y-73022033D01*
X156091666Y-73022033D02*
X155824999Y-73022033D01*
X155824999Y-73022033D02*
X155758333Y-73055366D01*
X155758333Y-73055366D02*
X155724999Y-73088700D01*
X155724999Y-73088700D02*
X155691666Y-73155366D01*
X155691666Y-73155366D02*
X155691666Y-73255366D01*
X155691666Y-73255366D02*
X155724999Y-73322033D01*
X155724999Y-73322033D02*
X155758333Y-73355366D01*
X155758333Y-73355366D02*
X155824999Y-73388700D01*
X155824999Y-73388700D02*
X156091666Y-73388700D01*
X155291666Y-73322033D02*
X155358333Y-73288700D01*
X155358333Y-73288700D02*
X155391666Y-73255366D01*
X155391666Y-73255366D02*
X155424999Y-73188700D01*
X155424999Y-73188700D02*
X155424999Y-73155366D01*
X155424999Y-73155366D02*
X155391666Y-73088700D01*
X155391666Y-73088700D02*
X155358333Y-73055366D01*
X155358333Y-73055366D02*
X155291666Y-73022033D01*
X155291666Y-73022033D02*
X155158333Y-73022033D01*
X155158333Y-73022033D02*
X155091666Y-73055366D01*
X155091666Y-73055366D02*
X155058333Y-73088700D01*
X155058333Y-73088700D02*
X155024999Y-73155366D01*
X155024999Y-73155366D02*
X155024999Y-73188700D01*
X155024999Y-73188700D02*
X155058333Y-73255366D01*
X155058333Y-73255366D02*
X155091666Y-73288700D01*
X155091666Y-73288700D02*
X155158333Y-73322033D01*
X155158333Y-73322033D02*
X155291666Y-73322033D01*
X155291666Y-73322033D02*
X155358333Y-73355366D01*
X155358333Y-73355366D02*
X155391666Y-73388700D01*
X155391666Y-73388700D02*
X155424999Y-73455366D01*
X155424999Y-73455366D02*
X155424999Y-73588700D01*
X155424999Y-73588700D02*
X155391666Y-73655366D01*
X155391666Y-73655366D02*
X155358333Y-73688700D01*
X155358333Y-73688700D02*
X155291666Y-73722033D01*
X155291666Y-73722033D02*
X155158333Y-73722033D01*
X155158333Y-73722033D02*
X155091666Y-73688700D01*
X155091666Y-73688700D02*
X155058333Y-73655366D01*
X155058333Y-73655366D02*
X155024999Y-73588700D01*
X155024999Y-73588700D02*
X155024999Y-73455366D01*
X155024999Y-73455366D02*
X155058333Y-73388700D01*
X155058333Y-73388700D02*
X155091666Y-73355366D01*
X155091666Y-73355366D02*
X155158333Y-73322033D01*
X147218333Y-93723033D02*
X147218333Y-94289700D01*
X147218333Y-94289700D02*
X147185000Y-94356366D01*
X147185000Y-94356366D02*
X147151666Y-94389700D01*
X147151666Y-94389700D02*
X147085000Y-94423033D01*
X147085000Y-94423033D02*
X146951666Y-94423033D01*
X146951666Y-94423033D02*
X146885000Y-94389700D01*
X146885000Y-94389700D02*
X146851666Y-94356366D01*
X146851666Y-94356366D02*
X146818333Y-94289700D01*
X146818333Y-94289700D02*
X146818333Y-93723033D01*
X146551667Y-93723033D02*
X146118333Y-93723033D01*
X146118333Y-93723033D02*
X146351667Y-93989700D01*
X146351667Y-93989700D02*
X146251667Y-93989700D01*
X146251667Y-93989700D02*
X146185000Y-94023033D01*
X146185000Y-94023033D02*
X146151667Y-94056366D01*
X146151667Y-94056366D02*
X146118333Y-94123033D01*
X146118333Y-94123033D02*
X146118333Y-94289700D01*
X146118333Y-94289700D02*
X146151667Y-94356366D01*
X146151667Y-94356366D02*
X146185000Y-94389700D01*
X146185000Y-94389700D02*
X146251667Y-94423033D01*
X146251667Y-94423033D02*
X146451667Y-94423033D01*
X146451667Y-94423033D02*
X146518333Y-94389700D01*
X146518333Y-94389700D02*
X146551667Y-94356366D01*
X150691000Y-77846366D02*
X150724333Y-77879700D01*
X150724333Y-77879700D02*
X150824333Y-77913033D01*
X150824333Y-77913033D02*
X150891000Y-77913033D01*
X150891000Y-77913033D02*
X150991000Y-77879700D01*
X150991000Y-77879700D02*
X151057667Y-77813033D01*
X151057667Y-77813033D02*
X151091000Y-77746366D01*
X151091000Y-77746366D02*
X151124333Y-77613033D01*
X151124333Y-77613033D02*
X151124333Y-77513033D01*
X151124333Y-77513033D02*
X151091000Y-77379700D01*
X151091000Y-77379700D02*
X151057667Y-77313033D01*
X151057667Y-77313033D02*
X150991000Y-77246366D01*
X150991000Y-77246366D02*
X150891000Y-77213033D01*
X150891000Y-77213033D02*
X150824333Y-77213033D01*
X150824333Y-77213033D02*
X150724333Y-77246366D01*
X150724333Y-77246366D02*
X150691000Y-77279700D01*
X150424333Y-77279700D02*
X150391000Y-77246366D01*
X150391000Y-77246366D02*
X150324333Y-77213033D01*
X150324333Y-77213033D02*
X150157667Y-77213033D01*
X150157667Y-77213033D02*
X150091000Y-77246366D01*
X150091000Y-77246366D02*
X150057667Y-77279700D01*
X150057667Y-77279700D02*
X150024333Y-77346366D01*
X150024333Y-77346366D02*
X150024333Y-77413033D01*
X150024333Y-77413033D02*
X150057667Y-77513033D01*
X150057667Y-77513033D02*
X150457667Y-77913033D01*
X150457667Y-77913033D02*
X150024333Y-77913033D01*
X149591000Y-77213033D02*
X149524333Y-77213033D01*
X149524333Y-77213033D02*
X149457666Y-77246366D01*
X149457666Y-77246366D02*
X149424333Y-77279700D01*
X149424333Y-77279700D02*
X149391000Y-77346366D01*
X149391000Y-77346366D02*
X149357666Y-77479700D01*
X149357666Y-77479700D02*
X149357666Y-77646366D01*
X149357666Y-77646366D02*
X149391000Y-77779700D01*
X149391000Y-77779700D02*
X149424333Y-77846366D01*
X149424333Y-77846366D02*
X149457666Y-77879700D01*
X149457666Y-77879700D02*
X149524333Y-77913033D01*
X149524333Y-77913033D02*
X149591000Y-77913033D01*
X149591000Y-77913033D02*
X149657666Y-77879700D01*
X149657666Y-77879700D02*
X149691000Y-77846366D01*
X149691000Y-77846366D02*
X149724333Y-77779700D01*
X149724333Y-77779700D02*
X149757666Y-77646366D01*
X149757666Y-77646366D02*
X149757666Y-77479700D01*
X149757666Y-77479700D02*
X149724333Y-77346366D01*
X149724333Y-77346366D02*
X149691000Y-77279700D01*
X149691000Y-77279700D02*
X149657666Y-77246366D01*
X149657666Y-77246366D02*
X149591000Y-77213033D01*
X153441333Y-87881033D02*
X153441333Y-88447700D01*
X153441333Y-88447700D02*
X153408000Y-88514366D01*
X153408000Y-88514366D02*
X153374666Y-88547700D01*
X153374666Y-88547700D02*
X153308000Y-88581033D01*
X153308000Y-88581033D02*
X153174666Y-88581033D01*
X153174666Y-88581033D02*
X153108000Y-88547700D01*
X153108000Y-88547700D02*
X153074666Y-88514366D01*
X153074666Y-88514366D02*
X153041333Y-88447700D01*
X153041333Y-88447700D02*
X153041333Y-87881033D01*
X152774667Y-87881033D02*
X152308000Y-87881033D01*
X152308000Y-87881033D02*
X152608000Y-88581033D01*
X150230666Y-82164366D02*
X150263999Y-82197700D01*
X150263999Y-82197700D02*
X150363999Y-82231033D01*
X150363999Y-82231033D02*
X150430666Y-82231033D01*
X150430666Y-82231033D02*
X150530666Y-82197700D01*
X150530666Y-82197700D02*
X150597333Y-82131033D01*
X150597333Y-82131033D02*
X150630666Y-82064366D01*
X150630666Y-82064366D02*
X150663999Y-81931033D01*
X150663999Y-81931033D02*
X150663999Y-81831033D01*
X150663999Y-81831033D02*
X150630666Y-81697700D01*
X150630666Y-81697700D02*
X150597333Y-81631033D01*
X150597333Y-81631033D02*
X150530666Y-81564366D01*
X150530666Y-81564366D02*
X150430666Y-81531033D01*
X150430666Y-81531033D02*
X150363999Y-81531033D01*
X150363999Y-81531033D02*
X150263999Y-81564366D01*
X150263999Y-81564366D02*
X150230666Y-81597700D01*
X149997333Y-81531033D02*
X149530666Y-81531033D01*
X149530666Y-81531033D02*
X149830666Y-82231033D01*
X149214666Y-88200033D02*
X149447999Y-87866700D01*
X149614666Y-88200033D02*
X149614666Y-87500033D01*
X149614666Y-87500033D02*
X149347999Y-87500033D01*
X149347999Y-87500033D02*
X149281333Y-87533366D01*
X149281333Y-87533366D02*
X149247999Y-87566700D01*
X149247999Y-87566700D02*
X149214666Y-87633366D01*
X149214666Y-87633366D02*
X149214666Y-87733366D01*
X149214666Y-87733366D02*
X149247999Y-87800033D01*
X149247999Y-87800033D02*
X149281333Y-87833366D01*
X149281333Y-87833366D02*
X149347999Y-87866700D01*
X149347999Y-87866700D02*
X149614666Y-87866700D01*
X148981333Y-87500033D02*
X148514666Y-87500033D01*
X148514666Y-87500033D02*
X148814666Y-88200033D01*
X142683033Y-95942999D02*
X142349700Y-95709666D01*
X142683033Y-95542999D02*
X141983033Y-95542999D01*
X141983033Y-95542999D02*
X141983033Y-95809666D01*
X141983033Y-95809666D02*
X142016366Y-95876333D01*
X142016366Y-95876333D02*
X142049700Y-95909666D01*
X142049700Y-95909666D02*
X142116366Y-95942999D01*
X142116366Y-95942999D02*
X142216366Y-95942999D01*
X142216366Y-95942999D02*
X142283033Y-95909666D01*
X142283033Y-95909666D02*
X142316366Y-95876333D01*
X142316366Y-95876333D02*
X142349700Y-95809666D01*
X142349700Y-95809666D02*
X142349700Y-95542999D01*
X142683033Y-96609666D02*
X142683033Y-96209666D01*
X142683033Y-96409666D02*
X141983033Y-96409666D01*
X141983033Y-96409666D02*
X142083033Y-96342999D01*
X142083033Y-96342999D02*
X142149700Y-96276333D01*
X142149700Y-96276333D02*
X142183033Y-96209666D01*
X142683033Y-97276333D02*
X142683033Y-96876333D01*
X142683033Y-97076333D02*
X141983033Y-97076333D01*
X141983033Y-97076333D02*
X142083033Y-97009666D01*
X142083033Y-97009666D02*
X142149700Y-96943000D01*
X142149700Y-96943000D02*
X142183033Y-96876333D01*
X152469000Y-81402366D02*
X152502333Y-81435700D01*
X152502333Y-81435700D02*
X152602333Y-81469033D01*
X152602333Y-81469033D02*
X152669000Y-81469033D01*
X152669000Y-81469033D02*
X152769000Y-81435700D01*
X152769000Y-81435700D02*
X152835667Y-81369033D01*
X152835667Y-81369033D02*
X152869000Y-81302366D01*
X152869000Y-81302366D02*
X152902333Y-81169033D01*
X152902333Y-81169033D02*
X152902333Y-81069033D01*
X152902333Y-81069033D02*
X152869000Y-80935700D01*
X152869000Y-80935700D02*
X152835667Y-80869033D01*
X152835667Y-80869033D02*
X152769000Y-80802366D01*
X152769000Y-80802366D02*
X152669000Y-80769033D01*
X152669000Y-80769033D02*
X152602333Y-80769033D01*
X152602333Y-80769033D02*
X152502333Y-80802366D01*
X152502333Y-80802366D02*
X152469000Y-80835700D01*
X151802333Y-81469033D02*
X152202333Y-81469033D01*
X152002333Y-81469033D02*
X152002333Y-80769033D01*
X152002333Y-80769033D02*
X152069000Y-80869033D01*
X152069000Y-80869033D02*
X152135667Y-80935700D01*
X152135667Y-80935700D02*
X152202333Y-80969033D01*
X151469000Y-81469033D02*
X151335666Y-81469033D01*
X151335666Y-81469033D02*
X151269000Y-81435700D01*
X151269000Y-81435700D02*
X151235666Y-81402366D01*
X151235666Y-81402366D02*
X151169000Y-81302366D01*
X151169000Y-81302366D02*
X151135666Y-81169033D01*
X151135666Y-81169033D02*
X151135666Y-80902366D01*
X151135666Y-80902366D02*
X151169000Y-80835700D01*
X151169000Y-80835700D02*
X151202333Y-80802366D01*
X151202333Y-80802366D02*
X151269000Y-80769033D01*
X151269000Y-80769033D02*
X151402333Y-80769033D01*
X151402333Y-80769033D02*
X151469000Y-80802366D01*
X151469000Y-80802366D02*
X151502333Y-80835700D01*
X151502333Y-80835700D02*
X151535666Y-80902366D01*
X151535666Y-80902366D02*
X151535666Y-81069033D01*
X151535666Y-81069033D02*
X151502333Y-81135700D01*
X151502333Y-81135700D02*
X151469000Y-81169033D01*
X151469000Y-81169033D02*
X151402333Y-81202366D01*
X151402333Y-81202366D02*
X151269000Y-81202366D01*
X151269000Y-81202366D02*
X151202333Y-81169033D01*
X151202333Y-81169033D02*
X151169000Y-81135700D01*
X151169000Y-81135700D02*
X151135666Y-81069033D01*
X142616366Y-87179999D02*
X142649700Y-87146666D01*
X142649700Y-87146666D02*
X142683033Y-87046666D01*
X142683033Y-87046666D02*
X142683033Y-86979999D01*
X142683033Y-86979999D02*
X142649700Y-86879999D01*
X142649700Y-86879999D02*
X142583033Y-86813333D01*
X142583033Y-86813333D02*
X142516366Y-86779999D01*
X142516366Y-86779999D02*
X142383033Y-86746666D01*
X142383033Y-86746666D02*
X142283033Y-86746666D01*
X142283033Y-86746666D02*
X142149700Y-86779999D01*
X142149700Y-86779999D02*
X142083033Y-86813333D01*
X142083033Y-86813333D02*
X142016366Y-86879999D01*
X142016366Y-86879999D02*
X141983033Y-86979999D01*
X141983033Y-86979999D02*
X141983033Y-87046666D01*
X141983033Y-87046666D02*
X142016366Y-87146666D01*
X142016366Y-87146666D02*
X142049700Y-87179999D01*
X142049700Y-87446666D02*
X142016366Y-87479999D01*
X142016366Y-87479999D02*
X141983033Y-87546666D01*
X141983033Y-87546666D02*
X141983033Y-87713333D01*
X141983033Y-87713333D02*
X142016366Y-87779999D01*
X142016366Y-87779999D02*
X142049700Y-87813333D01*
X142049700Y-87813333D02*
X142116366Y-87846666D01*
X142116366Y-87846666D02*
X142183033Y-87846666D01*
X142183033Y-87846666D02*
X142283033Y-87813333D01*
X142283033Y-87813333D02*
X142683033Y-87413333D01*
X142683033Y-87413333D02*
X142683033Y-87846666D01*
X141983033Y-88080000D02*
X141983033Y-88513333D01*
X141983033Y-88513333D02*
X142249700Y-88280000D01*
X142249700Y-88280000D02*
X142249700Y-88380000D01*
X142249700Y-88380000D02*
X142283033Y-88446666D01*
X142283033Y-88446666D02*
X142316366Y-88480000D01*
X142316366Y-88480000D02*
X142383033Y-88513333D01*
X142383033Y-88513333D02*
X142549700Y-88513333D01*
X142549700Y-88513333D02*
X142616366Y-88480000D01*
X142616366Y-88480000D02*
X142649700Y-88446666D01*
X142649700Y-88446666D02*
X142683033Y-88380000D01*
X142683033Y-88380000D02*
X142683033Y-88180000D01*
X142683033Y-88180000D02*
X142649700Y-88113333D01*
X142649700Y-88113333D02*
X142616366Y-88080000D01*
X143071000Y-86101366D02*
X143104333Y-86134700D01*
X143104333Y-86134700D02*
X143204333Y-86168033D01*
X143204333Y-86168033D02*
X143271000Y-86168033D01*
X143271000Y-86168033D02*
X143371000Y-86134700D01*
X143371000Y-86134700D02*
X143437667Y-86068033D01*
X143437667Y-86068033D02*
X143471000Y-86001366D01*
X143471000Y-86001366D02*
X143504333Y-85868033D01*
X143504333Y-85868033D02*
X143504333Y-85768033D01*
X143504333Y-85768033D02*
X143471000Y-85634700D01*
X143471000Y-85634700D02*
X143437667Y-85568033D01*
X143437667Y-85568033D02*
X143371000Y-85501366D01*
X143371000Y-85501366D02*
X143271000Y-85468033D01*
X143271000Y-85468033D02*
X143204333Y-85468033D01*
X143204333Y-85468033D02*
X143104333Y-85501366D01*
X143104333Y-85501366D02*
X143071000Y-85534700D01*
X142404333Y-86168033D02*
X142804333Y-86168033D01*
X142604333Y-86168033D02*
X142604333Y-85468033D01*
X142604333Y-85468033D02*
X142671000Y-85568033D01*
X142671000Y-85568033D02*
X142737667Y-85634700D01*
X142737667Y-85634700D02*
X142804333Y-85668033D01*
X142171000Y-85468033D02*
X141704333Y-85468033D01*
X141704333Y-85468033D02*
X142004333Y-86168033D01*
X153358000Y-98293366D02*
X153391333Y-98326700D01*
X153391333Y-98326700D02*
X153491333Y-98360033D01*
X153491333Y-98360033D02*
X153558000Y-98360033D01*
X153558000Y-98360033D02*
X153658000Y-98326700D01*
X153658000Y-98326700D02*
X153724667Y-98260033D01*
X153724667Y-98260033D02*
X153758000Y-98193366D01*
X153758000Y-98193366D02*
X153791333Y-98060033D01*
X153791333Y-98060033D02*
X153791333Y-97960033D01*
X153791333Y-97960033D02*
X153758000Y-97826700D01*
X153758000Y-97826700D02*
X153724667Y-97760033D01*
X153724667Y-97760033D02*
X153658000Y-97693366D01*
X153658000Y-97693366D02*
X153558000Y-97660033D01*
X153558000Y-97660033D02*
X153491333Y-97660033D01*
X153491333Y-97660033D02*
X153391333Y-97693366D01*
X153391333Y-97693366D02*
X153358000Y-97726700D01*
X153091333Y-97726700D02*
X153058000Y-97693366D01*
X153058000Y-97693366D02*
X152991333Y-97660033D01*
X152991333Y-97660033D02*
X152824667Y-97660033D01*
X152824667Y-97660033D02*
X152758000Y-97693366D01*
X152758000Y-97693366D02*
X152724667Y-97726700D01*
X152724667Y-97726700D02*
X152691333Y-97793366D01*
X152691333Y-97793366D02*
X152691333Y-97860033D01*
X152691333Y-97860033D02*
X152724667Y-97960033D01*
X152724667Y-97960033D02*
X153124667Y-98360033D01*
X153124667Y-98360033D02*
X152691333Y-98360033D01*
X152291333Y-97960033D02*
X152358000Y-97926700D01*
X152358000Y-97926700D02*
X152391333Y-97893366D01*
X152391333Y-97893366D02*
X152424666Y-97826700D01*
X152424666Y-97826700D02*
X152424666Y-97793366D01*
X152424666Y-97793366D02*
X152391333Y-97726700D01*
X152391333Y-97726700D02*
X152358000Y-97693366D01*
X152358000Y-97693366D02*
X152291333Y-97660033D01*
X152291333Y-97660033D02*
X152158000Y-97660033D01*
X152158000Y-97660033D02*
X152091333Y-97693366D01*
X152091333Y-97693366D02*
X152058000Y-97726700D01*
X152058000Y-97726700D02*
X152024666Y-97793366D01*
X152024666Y-97793366D02*
X152024666Y-97826700D01*
X152024666Y-97826700D02*
X152058000Y-97893366D01*
X152058000Y-97893366D02*
X152091333Y-97926700D01*
X152091333Y-97926700D02*
X152158000Y-97960033D01*
X152158000Y-97960033D02*
X152291333Y-97960033D01*
X152291333Y-97960033D02*
X152358000Y-97993366D01*
X152358000Y-97993366D02*
X152391333Y-98026700D01*
X152391333Y-98026700D02*
X152424666Y-98093366D01*
X152424666Y-98093366D02*
X152424666Y-98226700D01*
X152424666Y-98226700D02*
X152391333Y-98293366D01*
X152391333Y-98293366D02*
X152358000Y-98326700D01*
X152358000Y-98326700D02*
X152291333Y-98360033D01*
X152291333Y-98360033D02*
X152158000Y-98360033D01*
X152158000Y-98360033D02*
X152091333Y-98326700D01*
X152091333Y-98326700D02*
X152058000Y-98293366D01*
X152058000Y-98293366D02*
X152024666Y-98226700D01*
X152024666Y-98226700D02*
X152024666Y-98093366D01*
X152024666Y-98093366D02*
X152058000Y-98026700D01*
X152058000Y-98026700D02*
X152091333Y-97993366D01*
X152091333Y-97993366D02*
X152158000Y-97960033D01*
X153358000Y-90419366D02*
X153391333Y-90452700D01*
X153391333Y-90452700D02*
X153491333Y-90486033D01*
X153491333Y-90486033D02*
X153558000Y-90486033D01*
X153558000Y-90486033D02*
X153658000Y-90452700D01*
X153658000Y-90452700D02*
X153724667Y-90386033D01*
X153724667Y-90386033D02*
X153758000Y-90319366D01*
X153758000Y-90319366D02*
X153791333Y-90186033D01*
X153791333Y-90186033D02*
X153791333Y-90086033D01*
X153791333Y-90086033D02*
X153758000Y-89952700D01*
X153758000Y-89952700D02*
X153724667Y-89886033D01*
X153724667Y-89886033D02*
X153658000Y-89819366D01*
X153658000Y-89819366D02*
X153558000Y-89786033D01*
X153558000Y-89786033D02*
X153491333Y-89786033D01*
X153491333Y-89786033D02*
X153391333Y-89819366D01*
X153391333Y-89819366D02*
X153358000Y-89852700D01*
X153091333Y-89852700D02*
X153058000Y-89819366D01*
X153058000Y-89819366D02*
X152991333Y-89786033D01*
X152991333Y-89786033D02*
X152824667Y-89786033D01*
X152824667Y-89786033D02*
X152758000Y-89819366D01*
X152758000Y-89819366D02*
X152724667Y-89852700D01*
X152724667Y-89852700D02*
X152691333Y-89919366D01*
X152691333Y-89919366D02*
X152691333Y-89986033D01*
X152691333Y-89986033D02*
X152724667Y-90086033D01*
X152724667Y-90086033D02*
X153124667Y-90486033D01*
X153124667Y-90486033D02*
X152691333Y-90486033D01*
X152091333Y-89786033D02*
X152224666Y-89786033D01*
X152224666Y-89786033D02*
X152291333Y-89819366D01*
X152291333Y-89819366D02*
X152324666Y-89852700D01*
X152324666Y-89852700D02*
X152391333Y-89952700D01*
X152391333Y-89952700D02*
X152424666Y-90086033D01*
X152424666Y-90086033D02*
X152424666Y-90352700D01*
X152424666Y-90352700D02*
X152391333Y-90419366D01*
X152391333Y-90419366D02*
X152358000Y-90452700D01*
X152358000Y-90452700D02*
X152291333Y-90486033D01*
X152291333Y-90486033D02*
X152158000Y-90486033D01*
X152158000Y-90486033D02*
X152091333Y-90452700D01*
X152091333Y-90452700D02*
X152058000Y-90419366D01*
X152058000Y-90419366D02*
X152024666Y-90352700D01*
X152024666Y-90352700D02*
X152024666Y-90186033D01*
X152024666Y-90186033D02*
X152058000Y-90119366D01*
X152058000Y-90119366D02*
X152091333Y-90086033D01*
X152091333Y-90086033D02*
X152158000Y-90052700D01*
X152158000Y-90052700D02*
X152291333Y-90052700D01*
X152291333Y-90052700D02*
X152358000Y-90086033D01*
X152358000Y-90086033D02*
X152391333Y-90119366D01*
X152391333Y-90119366D02*
X152424666Y-90186033D01*
X142616366Y-93021999D02*
X142649700Y-92988666D01*
X142649700Y-92988666D02*
X142683033Y-92888666D01*
X142683033Y-92888666D02*
X142683033Y-92821999D01*
X142683033Y-92821999D02*
X142649700Y-92721999D01*
X142649700Y-92721999D02*
X142583033Y-92655333D01*
X142583033Y-92655333D02*
X142516366Y-92621999D01*
X142516366Y-92621999D02*
X142383033Y-92588666D01*
X142383033Y-92588666D02*
X142283033Y-92588666D01*
X142283033Y-92588666D02*
X142149700Y-92621999D01*
X142149700Y-92621999D02*
X142083033Y-92655333D01*
X142083033Y-92655333D02*
X142016366Y-92721999D01*
X142016366Y-92721999D02*
X141983033Y-92821999D01*
X141983033Y-92821999D02*
X141983033Y-92888666D01*
X141983033Y-92888666D02*
X142016366Y-92988666D01*
X142016366Y-92988666D02*
X142049700Y-93021999D01*
X142049700Y-93288666D02*
X142016366Y-93321999D01*
X142016366Y-93321999D02*
X141983033Y-93388666D01*
X141983033Y-93388666D02*
X141983033Y-93555333D01*
X141983033Y-93555333D02*
X142016366Y-93621999D01*
X142016366Y-93621999D02*
X142049700Y-93655333D01*
X142049700Y-93655333D02*
X142116366Y-93688666D01*
X142116366Y-93688666D02*
X142183033Y-93688666D01*
X142183033Y-93688666D02*
X142283033Y-93655333D01*
X142283033Y-93655333D02*
X142683033Y-93255333D01*
X142683033Y-93255333D02*
X142683033Y-93688666D01*
X142216366Y-94288666D02*
X142683033Y-94288666D01*
X141949700Y-94122000D02*
X142449700Y-93955333D01*
X142449700Y-93955333D02*
X142449700Y-94388666D01*
X153358000Y-84069366D02*
X153391333Y-84102700D01*
X153391333Y-84102700D02*
X153491333Y-84136033D01*
X153491333Y-84136033D02*
X153558000Y-84136033D01*
X153558000Y-84136033D02*
X153658000Y-84102700D01*
X153658000Y-84102700D02*
X153724667Y-84036033D01*
X153724667Y-84036033D02*
X153758000Y-83969366D01*
X153758000Y-83969366D02*
X153791333Y-83836033D01*
X153791333Y-83836033D02*
X153791333Y-83736033D01*
X153791333Y-83736033D02*
X153758000Y-83602700D01*
X153758000Y-83602700D02*
X153724667Y-83536033D01*
X153724667Y-83536033D02*
X153658000Y-83469366D01*
X153658000Y-83469366D02*
X153558000Y-83436033D01*
X153558000Y-83436033D02*
X153491333Y-83436033D01*
X153491333Y-83436033D02*
X153391333Y-83469366D01*
X153391333Y-83469366D02*
X153358000Y-83502700D01*
X153091333Y-83502700D02*
X153058000Y-83469366D01*
X153058000Y-83469366D02*
X152991333Y-83436033D01*
X152991333Y-83436033D02*
X152824667Y-83436033D01*
X152824667Y-83436033D02*
X152758000Y-83469366D01*
X152758000Y-83469366D02*
X152724667Y-83502700D01*
X152724667Y-83502700D02*
X152691333Y-83569366D01*
X152691333Y-83569366D02*
X152691333Y-83636033D01*
X152691333Y-83636033D02*
X152724667Y-83736033D01*
X152724667Y-83736033D02*
X153124667Y-84136033D01*
X153124667Y-84136033D02*
X152691333Y-84136033D01*
X152458000Y-83436033D02*
X151991333Y-83436033D01*
X151991333Y-83436033D02*
X152291333Y-84136033D01*
X149758333Y-84198033D02*
X149758333Y-84764700D01*
X149758333Y-84764700D02*
X149725000Y-84831366D01*
X149725000Y-84831366D02*
X149691666Y-84864700D01*
X149691666Y-84864700D02*
X149625000Y-84898033D01*
X149625000Y-84898033D02*
X149491666Y-84898033D01*
X149491666Y-84898033D02*
X149425000Y-84864700D01*
X149425000Y-84864700D02*
X149391666Y-84831366D01*
X149391666Y-84831366D02*
X149358333Y-84764700D01*
X149358333Y-84764700D02*
X149358333Y-84198033D01*
X148658333Y-84898033D02*
X149058333Y-84898033D01*
X148858333Y-84898033D02*
X148858333Y-84198033D01*
X148858333Y-84198033D02*
X148925000Y-84298033D01*
X148925000Y-84298033D02*
X148991667Y-84364700D01*
X148991667Y-84364700D02*
X149058333Y-84398033D01*
X144595000Y-89276366D02*
X144628333Y-89309700D01*
X144628333Y-89309700D02*
X144728333Y-89343033D01*
X144728333Y-89343033D02*
X144795000Y-89343033D01*
X144795000Y-89343033D02*
X144895000Y-89309700D01*
X144895000Y-89309700D02*
X144961667Y-89243033D01*
X144961667Y-89243033D02*
X144995000Y-89176366D01*
X144995000Y-89176366D02*
X145028333Y-89043033D01*
X145028333Y-89043033D02*
X145028333Y-88943033D01*
X145028333Y-88943033D02*
X144995000Y-88809700D01*
X144995000Y-88809700D02*
X144961667Y-88743033D01*
X144961667Y-88743033D02*
X144895000Y-88676366D01*
X144895000Y-88676366D02*
X144795000Y-88643033D01*
X144795000Y-88643033D02*
X144728333Y-88643033D01*
X144728333Y-88643033D02*
X144628333Y-88676366D01*
X144628333Y-88676366D02*
X144595000Y-88709700D01*
X143928333Y-89343033D02*
X144328333Y-89343033D01*
X144128333Y-89343033D02*
X144128333Y-88643033D01*
X144128333Y-88643033D02*
X144195000Y-88743033D01*
X144195000Y-88743033D02*
X144261667Y-88809700D01*
X144261667Y-88809700D02*
X144328333Y-88843033D01*
X143328333Y-88876366D02*
X143328333Y-89343033D01*
X143495000Y-88609700D02*
X143661666Y-89109700D01*
X143661666Y-89109700D02*
X143228333Y-89109700D01*
X149214666Y-89724033D02*
X149447999Y-89390700D01*
X149614666Y-89724033D02*
X149614666Y-89024033D01*
X149614666Y-89024033D02*
X149347999Y-89024033D01*
X149347999Y-89024033D02*
X149281333Y-89057366D01*
X149281333Y-89057366D02*
X149247999Y-89090700D01*
X149247999Y-89090700D02*
X149214666Y-89157366D01*
X149214666Y-89157366D02*
X149214666Y-89257366D01*
X149214666Y-89257366D02*
X149247999Y-89324033D01*
X149247999Y-89324033D02*
X149281333Y-89357366D01*
X149281333Y-89357366D02*
X149347999Y-89390700D01*
X149347999Y-89390700D02*
X149614666Y-89390700D01*
X148614666Y-89024033D02*
X148747999Y-89024033D01*
X148747999Y-89024033D02*
X148814666Y-89057366D01*
X148814666Y-89057366D02*
X148847999Y-89090700D01*
X148847999Y-89090700D02*
X148914666Y-89190700D01*
X148914666Y-89190700D02*
X148947999Y-89324033D01*
X148947999Y-89324033D02*
X148947999Y-89590700D01*
X148947999Y-89590700D02*
X148914666Y-89657366D01*
X148914666Y-89657366D02*
X148881333Y-89690700D01*
X148881333Y-89690700D02*
X148814666Y-89724033D01*
X148814666Y-89724033D02*
X148681333Y-89724033D01*
X148681333Y-89724033D02*
X148614666Y-89690700D01*
X148614666Y-89690700D02*
X148581333Y-89657366D01*
X148581333Y-89657366D02*
X148547999Y-89590700D01*
X148547999Y-89590700D02*
X148547999Y-89424033D01*
X148547999Y-89424033D02*
X148581333Y-89357366D01*
X148581333Y-89357366D02*
X148614666Y-89324033D01*
X148614666Y-89324033D02*
X148681333Y-89290700D01*
X148681333Y-89290700D02*
X148814666Y-89290700D01*
X148814666Y-89290700D02*
X148881333Y-89324033D01*
X148881333Y-89324033D02*
X148914666Y-89357366D01*
X148914666Y-89357366D02*
X148947999Y-89424033D01*
X153358000Y-96769366D02*
X153391333Y-96802700D01*
X153391333Y-96802700D02*
X153491333Y-96836033D01*
X153491333Y-96836033D02*
X153558000Y-96836033D01*
X153558000Y-96836033D02*
X153658000Y-96802700D01*
X153658000Y-96802700D02*
X153724667Y-96736033D01*
X153724667Y-96736033D02*
X153758000Y-96669366D01*
X153758000Y-96669366D02*
X153791333Y-96536033D01*
X153791333Y-96536033D02*
X153791333Y-96436033D01*
X153791333Y-96436033D02*
X153758000Y-96302700D01*
X153758000Y-96302700D02*
X153724667Y-96236033D01*
X153724667Y-96236033D02*
X153658000Y-96169366D01*
X153658000Y-96169366D02*
X153558000Y-96136033D01*
X153558000Y-96136033D02*
X153491333Y-96136033D01*
X153491333Y-96136033D02*
X153391333Y-96169366D01*
X153391333Y-96169366D02*
X153358000Y-96202700D01*
X153091333Y-96202700D02*
X153058000Y-96169366D01*
X153058000Y-96169366D02*
X152991333Y-96136033D01*
X152991333Y-96136033D02*
X152824667Y-96136033D01*
X152824667Y-96136033D02*
X152758000Y-96169366D01*
X152758000Y-96169366D02*
X152724667Y-96202700D01*
X152724667Y-96202700D02*
X152691333Y-96269366D01*
X152691333Y-96269366D02*
X152691333Y-96336033D01*
X152691333Y-96336033D02*
X152724667Y-96436033D01*
X152724667Y-96436033D02*
X153124667Y-96836033D01*
X153124667Y-96836033D02*
X152691333Y-96836033D01*
X152058000Y-96136033D02*
X152391333Y-96136033D01*
X152391333Y-96136033D02*
X152424666Y-96469366D01*
X152424666Y-96469366D02*
X152391333Y-96436033D01*
X152391333Y-96436033D02*
X152324666Y-96402700D01*
X152324666Y-96402700D02*
X152158000Y-96402700D01*
X152158000Y-96402700D02*
X152091333Y-96436033D01*
X152091333Y-96436033D02*
X152058000Y-96469366D01*
X152058000Y-96469366D02*
X152024666Y-96536033D01*
X152024666Y-96536033D02*
X152024666Y-96702700D01*
X152024666Y-96702700D02*
X152058000Y-96769366D01*
X152058000Y-96769366D02*
X152091333Y-96802700D01*
X152091333Y-96802700D02*
X152158000Y-96836033D01*
X152158000Y-96836033D02*
X152324666Y-96836033D01*
X152324666Y-96836033D02*
X152391333Y-96802700D01*
X152391333Y-96802700D02*
X152424666Y-96769366D01*
X153441333Y-100581033D02*
X153441333Y-101147700D01*
X153441333Y-101147700D02*
X153408000Y-101214366D01*
X153408000Y-101214366D02*
X153374666Y-101247700D01*
X153374666Y-101247700D02*
X153308000Y-101281033D01*
X153308000Y-101281033D02*
X153174666Y-101281033D01*
X153174666Y-101281033D02*
X153108000Y-101247700D01*
X153108000Y-101247700D02*
X153074666Y-101214366D01*
X153074666Y-101214366D02*
X153041333Y-101147700D01*
X153041333Y-101147700D02*
X153041333Y-100581033D01*
X152374667Y-100581033D02*
X152708000Y-100581033D01*
X152708000Y-100581033D02*
X152741333Y-100914366D01*
X152741333Y-100914366D02*
X152708000Y-100881033D01*
X152708000Y-100881033D02*
X152641333Y-100847700D01*
X152641333Y-100847700D02*
X152474667Y-100847700D01*
X152474667Y-100847700D02*
X152408000Y-100881033D01*
X152408000Y-100881033D02*
X152374667Y-100914366D01*
X152374667Y-100914366D02*
X152341333Y-100981033D01*
X152341333Y-100981033D02*
X152341333Y-101147700D01*
X152341333Y-101147700D02*
X152374667Y-101214366D01*
X152374667Y-101214366D02*
X152408000Y-101247700D01*
X152408000Y-101247700D02*
X152474667Y-101281033D01*
X152474667Y-101281033D02*
X152641333Y-101281033D01*
X152641333Y-101281033D02*
X152708000Y-101247700D01*
X152708000Y-101247700D02*
X152741333Y-101214366D01*
X142556033Y-89719999D02*
X142222700Y-89486666D01*
X142556033Y-89319999D02*
X141856033Y-89319999D01*
X141856033Y-89319999D02*
X141856033Y-89586666D01*
X141856033Y-89586666D02*
X141889366Y-89653333D01*
X141889366Y-89653333D02*
X141922700Y-89686666D01*
X141922700Y-89686666D02*
X141989366Y-89719999D01*
X141989366Y-89719999D02*
X142089366Y-89719999D01*
X142089366Y-89719999D02*
X142156033Y-89686666D01*
X142156033Y-89686666D02*
X142189366Y-89653333D01*
X142189366Y-89653333D02*
X142222700Y-89586666D01*
X142222700Y-89586666D02*
X142222700Y-89319999D01*
X142556033Y-90386666D02*
X142556033Y-89986666D01*
X142556033Y-90186666D02*
X141856033Y-90186666D01*
X141856033Y-90186666D02*
X141956033Y-90119999D01*
X141956033Y-90119999D02*
X142022700Y-90053333D01*
X142022700Y-90053333D02*
X142056033Y-89986666D01*
X141856033Y-90820000D02*
X141856033Y-90886666D01*
X141856033Y-90886666D02*
X141889366Y-90953333D01*
X141889366Y-90953333D02*
X141922700Y-90986666D01*
X141922700Y-90986666D02*
X141989366Y-91020000D01*
X141989366Y-91020000D02*
X142122700Y-91053333D01*
X142122700Y-91053333D02*
X142289366Y-91053333D01*
X142289366Y-91053333D02*
X142422700Y-91020000D01*
X142422700Y-91020000D02*
X142489366Y-90986666D01*
X142489366Y-90986666D02*
X142522700Y-90953333D01*
X142522700Y-90953333D02*
X142556033Y-90886666D01*
X142556033Y-90886666D02*
X142556033Y-90820000D01*
X142556033Y-90820000D02*
X142522700Y-90753333D01*
X142522700Y-90753333D02*
X142489366Y-90720000D01*
X142489366Y-90720000D02*
X142422700Y-90686666D01*
X142422700Y-90686666D02*
X142289366Y-90653333D01*
X142289366Y-90653333D02*
X142122700Y-90653333D01*
X142122700Y-90653333D02*
X141989366Y-90686666D01*
X141989366Y-90686666D02*
X141922700Y-90720000D01*
X141922700Y-90720000D02*
X141889366Y-90753333D01*
X141889366Y-90753333D02*
X141856033Y-90820000D01*
X153358000Y-85593366D02*
X153391333Y-85626700D01*
X153391333Y-85626700D02*
X153491333Y-85660033D01*
X153491333Y-85660033D02*
X153558000Y-85660033D01*
X153558000Y-85660033D02*
X153658000Y-85626700D01*
X153658000Y-85626700D02*
X153724667Y-85560033D01*
X153724667Y-85560033D02*
X153758000Y-85493366D01*
X153758000Y-85493366D02*
X153791333Y-85360033D01*
X153791333Y-85360033D02*
X153791333Y-85260033D01*
X153791333Y-85260033D02*
X153758000Y-85126700D01*
X153758000Y-85126700D02*
X153724667Y-85060033D01*
X153724667Y-85060033D02*
X153658000Y-84993366D01*
X153658000Y-84993366D02*
X153558000Y-84960033D01*
X153558000Y-84960033D02*
X153491333Y-84960033D01*
X153491333Y-84960033D02*
X153391333Y-84993366D01*
X153391333Y-84993366D02*
X153358000Y-85026700D01*
X153124667Y-84960033D02*
X152691333Y-84960033D01*
X152691333Y-84960033D02*
X152924667Y-85226700D01*
X152924667Y-85226700D02*
X152824667Y-85226700D01*
X152824667Y-85226700D02*
X152758000Y-85260033D01*
X152758000Y-85260033D02*
X152724667Y-85293366D01*
X152724667Y-85293366D02*
X152691333Y-85360033D01*
X152691333Y-85360033D02*
X152691333Y-85526700D01*
X152691333Y-85526700D02*
X152724667Y-85593366D01*
X152724667Y-85593366D02*
X152758000Y-85626700D01*
X152758000Y-85626700D02*
X152824667Y-85660033D01*
X152824667Y-85660033D02*
X153024667Y-85660033D01*
X153024667Y-85660033D02*
X153091333Y-85626700D01*
X153091333Y-85626700D02*
X153124667Y-85593366D01*
X152258000Y-84960033D02*
X152191333Y-84960033D01*
X152191333Y-84960033D02*
X152124666Y-84993366D01*
X152124666Y-84993366D02*
X152091333Y-85026700D01*
X152091333Y-85026700D02*
X152058000Y-85093366D01*
X152058000Y-85093366D02*
X152024666Y-85226700D01*
X152024666Y-85226700D02*
X152024666Y-85393366D01*
X152024666Y-85393366D02*
X152058000Y-85526700D01*
X152058000Y-85526700D02*
X152091333Y-85593366D01*
X152091333Y-85593366D02*
X152124666Y-85626700D01*
X152124666Y-85626700D02*
X152191333Y-85660033D01*
X152191333Y-85660033D02*
X152258000Y-85660033D01*
X152258000Y-85660033D02*
X152324666Y-85626700D01*
X152324666Y-85626700D02*
X152358000Y-85593366D01*
X152358000Y-85593366D02*
X152391333Y-85526700D01*
X152391333Y-85526700D02*
X152424666Y-85393366D01*
X152424666Y-85393366D02*
X152424666Y-85226700D01*
X152424666Y-85226700D02*
X152391333Y-85093366D01*
X152391333Y-85093366D02*
X152358000Y-85026700D01*
X152358000Y-85026700D02*
X152324666Y-84993366D01*
X152324666Y-84993366D02*
X152258000Y-84960033D01*
X147436666Y-82164366D02*
X147469999Y-82197700D01*
X147469999Y-82197700D02*
X147569999Y-82231033D01*
X147569999Y-82231033D02*
X147636666Y-82231033D01*
X147636666Y-82231033D02*
X147736666Y-82197700D01*
X147736666Y-82197700D02*
X147803333Y-82131033D01*
X147803333Y-82131033D02*
X147836666Y-82064366D01*
X147836666Y-82064366D02*
X147869999Y-81931033D01*
X147869999Y-81931033D02*
X147869999Y-81831033D01*
X147869999Y-81831033D02*
X147836666Y-81697700D01*
X147836666Y-81697700D02*
X147803333Y-81631033D01*
X147803333Y-81631033D02*
X147736666Y-81564366D01*
X147736666Y-81564366D02*
X147636666Y-81531033D01*
X147636666Y-81531033D02*
X147569999Y-81531033D01*
X147569999Y-81531033D02*
X147469999Y-81564366D01*
X147469999Y-81564366D02*
X147436666Y-81597700D01*
X146803333Y-81531033D02*
X147136666Y-81531033D01*
X147136666Y-81531033D02*
X147169999Y-81864366D01*
X147169999Y-81864366D02*
X147136666Y-81831033D01*
X147136666Y-81831033D02*
X147069999Y-81797700D01*
X147069999Y-81797700D02*
X146903333Y-81797700D01*
X146903333Y-81797700D02*
X146836666Y-81831033D01*
X146836666Y-81831033D02*
X146803333Y-81864366D01*
X146803333Y-81864366D02*
X146769999Y-81931033D01*
X146769999Y-81931033D02*
X146769999Y-82097700D01*
X146769999Y-82097700D02*
X146803333Y-82164366D01*
X146803333Y-82164366D02*
X146836666Y-82197700D01*
X146836666Y-82197700D02*
X146903333Y-82231033D01*
X146903333Y-82231033D02*
X147069999Y-82231033D01*
X147069999Y-82231033D02*
X147136666Y-82197700D01*
X147136666Y-82197700D02*
X147169999Y-82164366D01*
X148833666Y-82164366D02*
X148866999Y-82197700D01*
X148866999Y-82197700D02*
X148966999Y-82231033D01*
X148966999Y-82231033D02*
X149033666Y-82231033D01*
X149033666Y-82231033D02*
X149133666Y-82197700D01*
X149133666Y-82197700D02*
X149200333Y-82131033D01*
X149200333Y-82131033D02*
X149233666Y-82064366D01*
X149233666Y-82064366D02*
X149266999Y-81931033D01*
X149266999Y-81931033D02*
X149266999Y-81831033D01*
X149266999Y-81831033D02*
X149233666Y-81697700D01*
X149233666Y-81697700D02*
X149200333Y-81631033D01*
X149200333Y-81631033D02*
X149133666Y-81564366D01*
X149133666Y-81564366D02*
X149033666Y-81531033D01*
X149033666Y-81531033D02*
X148966999Y-81531033D01*
X148966999Y-81531033D02*
X148866999Y-81564366D01*
X148866999Y-81564366D02*
X148833666Y-81597700D01*
X148233666Y-81531033D02*
X148366999Y-81531033D01*
X148366999Y-81531033D02*
X148433666Y-81564366D01*
X148433666Y-81564366D02*
X148466999Y-81597700D01*
X148466999Y-81597700D02*
X148533666Y-81697700D01*
X148533666Y-81697700D02*
X148566999Y-81831033D01*
X148566999Y-81831033D02*
X148566999Y-82097700D01*
X148566999Y-82097700D02*
X148533666Y-82164366D01*
X148533666Y-82164366D02*
X148500333Y-82197700D01*
X148500333Y-82197700D02*
X148433666Y-82231033D01*
X148433666Y-82231033D02*
X148300333Y-82231033D01*
X148300333Y-82231033D02*
X148233666Y-82197700D01*
X148233666Y-82197700D02*
X148200333Y-82164366D01*
X148200333Y-82164366D02*
X148166999Y-82097700D01*
X148166999Y-82097700D02*
X148166999Y-81931033D01*
X148166999Y-81931033D02*
X148200333Y-81864366D01*
X148200333Y-81864366D02*
X148233666Y-81831033D01*
X148233666Y-81831033D02*
X148300333Y-81797700D01*
X148300333Y-81797700D02*
X148433666Y-81797700D01*
X148433666Y-81797700D02*
X148500333Y-81831033D01*
X148500333Y-81831033D02*
X148533666Y-81864366D01*
X148533666Y-81864366D02*
X148566999Y-81931033D01*
X152643666Y-73722033D02*
X152876999Y-73388700D01*
X153043666Y-73722033D02*
X153043666Y-73022033D01*
X153043666Y-73022033D02*
X152776999Y-73022033D01*
X152776999Y-73022033D02*
X152710333Y-73055366D01*
X152710333Y-73055366D02*
X152676999Y-73088700D01*
X152676999Y-73088700D02*
X152643666Y-73155366D01*
X152643666Y-73155366D02*
X152643666Y-73255366D01*
X152643666Y-73255366D02*
X152676999Y-73322033D01*
X152676999Y-73322033D02*
X152710333Y-73355366D01*
X152710333Y-73355366D02*
X152776999Y-73388700D01*
X152776999Y-73388700D02*
X153043666Y-73388700D01*
X152310333Y-73722033D02*
X152176999Y-73722033D01*
X152176999Y-73722033D02*
X152110333Y-73688700D01*
X152110333Y-73688700D02*
X152076999Y-73655366D01*
X152076999Y-73655366D02*
X152010333Y-73555366D01*
X152010333Y-73555366D02*
X151976999Y-73422033D01*
X151976999Y-73422033D02*
X151976999Y-73155366D01*
X151976999Y-73155366D02*
X152010333Y-73088700D01*
X152010333Y-73088700D02*
X152043666Y-73055366D01*
X152043666Y-73055366D02*
X152110333Y-73022033D01*
X152110333Y-73022033D02*
X152243666Y-73022033D01*
X152243666Y-73022033D02*
X152310333Y-73055366D01*
X152310333Y-73055366D02*
X152343666Y-73088700D01*
X152343666Y-73088700D02*
X152376999Y-73155366D01*
X152376999Y-73155366D02*
X152376999Y-73322033D01*
X152376999Y-73322033D02*
X152343666Y-73388700D01*
X152343666Y-73388700D02*
X152310333Y-73422033D01*
X152310333Y-73422033D02*
X152243666Y-73455366D01*
X152243666Y-73455366D02*
X152110333Y-73455366D01*
X152110333Y-73455366D02*
X152043666Y-73422033D01*
X152043666Y-73422033D02*
X152010333Y-73388700D01*
X152010333Y-73388700D02*
X151976999Y-73322033D01*
X153358000Y-91943366D02*
X153391333Y-91976700D01*
X153391333Y-91976700D02*
X153491333Y-92010033D01*
X153491333Y-92010033D02*
X153558000Y-92010033D01*
X153558000Y-92010033D02*
X153658000Y-91976700D01*
X153658000Y-91976700D02*
X153724667Y-91910033D01*
X153724667Y-91910033D02*
X153758000Y-91843366D01*
X153758000Y-91843366D02*
X153791333Y-91710033D01*
X153791333Y-91710033D02*
X153791333Y-91610033D01*
X153791333Y-91610033D02*
X153758000Y-91476700D01*
X153758000Y-91476700D02*
X153724667Y-91410033D01*
X153724667Y-91410033D02*
X153658000Y-91343366D01*
X153658000Y-91343366D02*
X153558000Y-91310033D01*
X153558000Y-91310033D02*
X153491333Y-91310033D01*
X153491333Y-91310033D02*
X153391333Y-91343366D01*
X153391333Y-91343366D02*
X153358000Y-91376700D01*
X153091333Y-91376700D02*
X153058000Y-91343366D01*
X153058000Y-91343366D02*
X152991333Y-91310033D01*
X152991333Y-91310033D02*
X152824667Y-91310033D01*
X152824667Y-91310033D02*
X152758000Y-91343366D01*
X152758000Y-91343366D02*
X152724667Y-91376700D01*
X152724667Y-91376700D02*
X152691333Y-91443366D01*
X152691333Y-91443366D02*
X152691333Y-91510033D01*
X152691333Y-91510033D02*
X152724667Y-91610033D01*
X152724667Y-91610033D02*
X153124667Y-92010033D01*
X153124667Y-92010033D02*
X152691333Y-92010033D01*
X152358000Y-92010033D02*
X152224666Y-92010033D01*
X152224666Y-92010033D02*
X152158000Y-91976700D01*
X152158000Y-91976700D02*
X152124666Y-91943366D01*
X152124666Y-91943366D02*
X152058000Y-91843366D01*
X152058000Y-91843366D02*
X152024666Y-91710033D01*
X152024666Y-91710033D02*
X152024666Y-91443366D01*
X152024666Y-91443366D02*
X152058000Y-91376700D01*
X152058000Y-91376700D02*
X152091333Y-91343366D01*
X152091333Y-91343366D02*
X152158000Y-91310033D01*
X152158000Y-91310033D02*
X152291333Y-91310033D01*
X152291333Y-91310033D02*
X152358000Y-91343366D01*
X152358000Y-91343366D02*
X152391333Y-91376700D01*
X152391333Y-91376700D02*
X152424666Y-91443366D01*
X152424666Y-91443366D02*
X152424666Y-91610033D01*
X152424666Y-91610033D02*
X152391333Y-91676700D01*
X152391333Y-91676700D02*
X152358000Y-91710033D01*
X152358000Y-91710033D02*
X152291333Y-91743366D01*
X152291333Y-91743366D02*
X152158000Y-91743366D01*
X152158000Y-91743366D02*
X152091333Y-91710033D01*
X152091333Y-91710033D02*
X152058000Y-91676700D01*
X152058000Y-91676700D02*
X152024666Y-91610033D01*
X153314333Y-92834033D02*
X153314333Y-93400700D01*
X153314333Y-93400700D02*
X153281000Y-93467366D01*
X153281000Y-93467366D02*
X153247666Y-93500700D01*
X153247666Y-93500700D02*
X153181000Y-93534033D01*
X153181000Y-93534033D02*
X153047666Y-93534033D01*
X153047666Y-93534033D02*
X152981000Y-93500700D01*
X152981000Y-93500700D02*
X152947666Y-93467366D01*
X152947666Y-93467366D02*
X152914333Y-93400700D01*
X152914333Y-93400700D02*
X152914333Y-92834033D01*
X152281000Y-92834033D02*
X152414333Y-92834033D01*
X152414333Y-92834033D02*
X152481000Y-92867366D01*
X152481000Y-92867366D02*
X152514333Y-92900700D01*
X152514333Y-92900700D02*
X152581000Y-93000700D01*
X152581000Y-93000700D02*
X152614333Y-93134033D01*
X152614333Y-93134033D02*
X152614333Y-93400700D01*
X152614333Y-93400700D02*
X152581000Y-93467366D01*
X152581000Y-93467366D02*
X152547667Y-93500700D01*
X152547667Y-93500700D02*
X152481000Y-93534033D01*
X152481000Y-93534033D02*
X152347667Y-93534033D01*
X152347667Y-93534033D02*
X152281000Y-93500700D01*
X152281000Y-93500700D02*
X152247667Y-93467366D01*
X152247667Y-93467366D02*
X152214333Y-93400700D01*
X152214333Y-93400700D02*
X152214333Y-93234033D01*
X152214333Y-93234033D02*
X152247667Y-93167366D01*
X152247667Y-93167366D02*
X152281000Y-93134033D01*
X152281000Y-93134033D02*
X152347667Y-93100700D01*
X152347667Y-93100700D02*
X152481000Y-93100700D01*
X152481000Y-93100700D02*
X152547667Y-93134033D01*
X152547667Y-93134033D02*
X152581000Y-93167366D01*
X152581000Y-93167366D02*
X152614333Y-93234033D01*
X153678666Y-77405033D02*
X153678666Y-76705033D01*
X153678666Y-76705033D02*
X153511999Y-76705033D01*
X153511999Y-76705033D02*
X153411999Y-76738366D01*
X153411999Y-76738366D02*
X153345333Y-76805033D01*
X153345333Y-76805033D02*
X153311999Y-76871700D01*
X153311999Y-76871700D02*
X153278666Y-77005033D01*
X153278666Y-77005033D02*
X153278666Y-77105033D01*
X153278666Y-77105033D02*
X153311999Y-77238366D01*
X153311999Y-77238366D02*
X153345333Y-77305033D01*
X153345333Y-77305033D02*
X153411999Y-77371700D01*
X153411999Y-77371700D02*
X153511999Y-77405033D01*
X153511999Y-77405033D02*
X153678666Y-77405033D01*
X153011999Y-76771700D02*
X152978666Y-76738366D01*
X152978666Y-76738366D02*
X152911999Y-76705033D01*
X152911999Y-76705033D02*
X152745333Y-76705033D01*
X152745333Y-76705033D02*
X152678666Y-76738366D01*
X152678666Y-76738366D02*
X152645333Y-76771700D01*
X152645333Y-76771700D02*
X152611999Y-76838366D01*
X152611999Y-76838366D02*
X152611999Y-76905033D01*
X152611999Y-76905033D02*
X152645333Y-77005033D01*
X152645333Y-77005033D02*
X153045333Y-77405033D01*
X153045333Y-77405033D02*
X152611999Y-77405033D01*
D12*
%TO.C,L1*%
X141573000Y-83566000D02*
X141573000Y-81534000D01*
X137573000Y-83566000D02*
X137573000Y-81534000D01*
%TO.C,J11*%
X157496000Y-84604500D02*
G75*
G02*
X157096000Y-84604500I-200000J0D01*
G01*
X157096000Y-84604500D02*
G75*
G02*
X157496000Y-84604500I200000J0D01*
G01*
X159496000Y-88404500D02*
X159496000Y-88204500D01*
X159496000Y-86804500D02*
X159496000Y-86404500D01*
X159496000Y-84804500D02*
X159496000Y-85004500D01*
X159496000Y-84804500D02*
X159296000Y-84804500D01*
X159296000Y-88404500D02*
X159496000Y-88404500D01*
X157496000Y-88404500D02*
X157696000Y-88404500D01*
X157496000Y-88404500D02*
X157496000Y-88204500D01*
X157496000Y-86804500D02*
X157496000Y-86404500D01*
X157496000Y-86604500D02*
X159496000Y-86604500D01*
%TO.C,C18*%
X143523580Y-83822000D02*
X143242420Y-83822000D01*
X143523580Y-82802000D02*
X143242420Y-82802000D01*
%TO.C,C21*%
X149989000Y-91758380D02*
X149989000Y-91477220D01*
X148969000Y-91758380D02*
X148969000Y-91477220D01*
D13*
%TO.C,kibuzzard-667D9FAD*%
G36*
X159361462Y-90115347D02*
G01*
X159444789Y-90140624D01*
X159521583Y-90181671D01*
X159588894Y-90236912D01*
X159644134Y-90304222D01*
X159685182Y-90381017D01*
X159710458Y-90464343D01*
X159718993Y-90551000D01*
X159710458Y-90637657D01*
X159685182Y-90720983D01*
X159644134Y-90797778D01*
X159588894Y-90865088D01*
X159521583Y-90920329D01*
X159444789Y-90961376D01*
X159361462Y-90986653D01*
X159274805Y-90995188D01*
X159274718Y-90995188D01*
X158307538Y-90995188D01*
X157717282Y-90995188D01*
X157717194Y-90995188D01*
X157630538Y-90986653D01*
X157547211Y-90961376D01*
X157470417Y-90920329D01*
X157403106Y-90865088D01*
X157347866Y-90797778D01*
X157306818Y-90720983D01*
X157281542Y-90637657D01*
X157273007Y-90551000D01*
X157281542Y-90464343D01*
X157306818Y-90381017D01*
X157318888Y-90358436D01*
X157717282Y-90358436D01*
X157722923Y-90405103D01*
X157743949Y-90456897D01*
X157765744Y-90493564D01*
X157792154Y-90529718D01*
X157838051Y-90584462D01*
X157890615Y-90641000D01*
X157928564Y-90678721D01*
X157971299Y-90719405D01*
X158018820Y-90763051D01*
X157962410Y-90763564D01*
X157883179Y-90762538D01*
X157800872Y-90760487D01*
X157743949Y-90755872D01*
X157748820Y-90817410D01*
X157752218Y-90858436D01*
X157755744Y-90907667D01*
X157820327Y-90907218D01*
X157886385Y-90906897D01*
X157953917Y-90906705D01*
X158022923Y-90906641D01*
X158103788Y-90906705D01*
X158178179Y-90906897D01*
X158246096Y-90907218D01*
X158307538Y-90907667D01*
X158304205Y-90843821D01*
X158300872Y-90762538D01*
X158249718Y-90719590D01*
X158202923Y-90677923D01*
X158156541Y-90634390D01*
X158113806Y-90592681D01*
X158074718Y-90552795D01*
X158033692Y-90508051D01*
X157999846Y-90467154D01*
X157976769Y-90428692D01*
X157972667Y-90406641D01*
X157979333Y-90380744D01*
X158000359Y-90362026D01*
X158035231Y-90349718D01*
X158081897Y-90345103D01*
X158157538Y-90351256D01*
X158204526Y-90360231D01*
X158266000Y-90374846D01*
X158252667Y-90301513D01*
X158239333Y-90216897D01*
X158174510Y-90207667D01*
X158400359Y-90207667D01*
X158404814Y-90291032D01*
X158408436Y-90368308D01*
X158411224Y-90439494D01*
X158413179Y-90504590D01*
X158416096Y-90616641D01*
X158418179Y-90709718D01*
X158419429Y-90783821D01*
X158419846Y-90838949D01*
X158418820Y-90907667D01*
X158476385Y-90906897D01*
X158513692Y-90906641D01*
X158557667Y-90906897D01*
X158610615Y-90907667D01*
X158607652Y-90862738D01*
X158604234Y-90789490D01*
X158600359Y-90687923D01*
X158596940Y-90586128D01*
X158594889Y-90512197D01*
X158594205Y-90466128D01*
X158595231Y-90407667D01*
X158662410Y-90616385D01*
X158758820Y-90907667D01*
X158815103Y-90906897D01*
X158850615Y-90906641D01*
X158890872Y-90906897D01*
X158948051Y-90907667D01*
X159011128Y-90625615D01*
X159048051Y-90475359D01*
X159052667Y-90453821D01*
X159060872Y-90408692D01*
X159073692Y-90550744D01*
X159090615Y-90842026D01*
X159092154Y-90907667D01*
X159150103Y-90906897D01*
X159182410Y-90906641D01*
X159218820Y-90906897D01*
X159274718Y-90907667D01*
X159261897Y-90804077D01*
X159230103Y-90444590D01*
X159214205Y-90207667D01*
X159129974Y-90208436D01*
X159066000Y-90208692D01*
X159009590Y-90208436D01*
X158929590Y-90207667D01*
X158918308Y-90274590D01*
X158910295Y-90308308D01*
X158895487Y-90363821D01*
X158879077Y-90425744D01*
X158866256Y-90478692D01*
X158852474Y-90544397D01*
X158833179Y-90644590D01*
X158811641Y-90569718D01*
X158792154Y-90506128D01*
X158771385Y-90444205D01*
X158746000Y-90374333D01*
X158723372Y-90313244D01*
X158710872Y-90277667D01*
X158690615Y-90207667D01*
X158614461Y-90208436D01*
X158539846Y-90208692D01*
X158479846Y-90208436D01*
X158400359Y-90207667D01*
X158174510Y-90207667D01*
X158151299Y-90204362D01*
X158067026Y-90196840D01*
X157986513Y-90194333D01*
X157933820Y-90196769D01*
X157883436Y-90204077D01*
X157836769Y-90217218D01*
X157795231Y-90237154D01*
X157736769Y-90291513D01*
X157717282Y-90358436D01*
X157318888Y-90358436D01*
X157347866Y-90304222D01*
X157403106Y-90236912D01*
X157470417Y-90181671D01*
X157547211Y-90140624D01*
X157630538Y-90115347D01*
X157717194Y-90106812D01*
X157717282Y-90106812D01*
X159274718Y-90106812D01*
X159274805Y-90106812D01*
X159361462Y-90115347D01*
G37*
D12*
%TO.C,JP1*%
X148912800Y-97785200D02*
G75*
G02*
X148212800Y-98485200I-699999J-1D01*
G01*
X148212800Y-96485200D02*
G75*
G02*
X148912800Y-97185200I1J-699999D01*
G01*
X145512800Y-98485200D02*
G75*
G02*
X144812800Y-97785200I0J700000D01*
G01*
X144812800Y-97185200D02*
G75*
G02*
X145512800Y-96485200I700000J0D01*
G01*
X148912800Y-97185200D02*
X148912800Y-97785200D01*
X148262800Y-98485200D02*
X145462800Y-98485200D01*
X145462800Y-96485200D02*
X148262800Y-96485200D01*
X144812800Y-97785200D02*
X144812800Y-97185200D01*
%TO.C,C22*%
X144353000Y-92022580D02*
X144353000Y-91741420D01*
X143333000Y-92022580D02*
X143333000Y-91741420D01*
%TO.C,R8*%
X156072100Y-71416142D02*
X156072100Y-71890658D01*
X155027100Y-71416142D02*
X155027100Y-71890658D01*
D13*
%TO.C,G\u002A\u002A\u002A*%
G36*
X157897055Y-79328555D02*
G01*
X157930731Y-79331348D01*
X157956821Y-79336250D01*
X157980875Y-79344455D01*
X158008441Y-79357155D01*
X158054405Y-79383241D01*
X158117448Y-79433869D01*
X158168369Y-79495775D01*
X158187230Y-79526135D01*
X158209318Y-79572230D01*
X158223112Y-79620703D01*
X158230981Y-79678465D01*
X158236334Y-79757889D01*
X158237896Y-79891101D01*
X158230087Y-80027845D01*
X158212663Y-80170477D01*
X158185381Y-80321356D01*
X158147998Y-80482840D01*
X158145523Y-80492483D01*
X158127163Y-80559405D01*
X158104451Y-80636189D01*
X158078790Y-80718511D01*
X158051584Y-80802048D01*
X158024236Y-80882476D01*
X157998148Y-80955472D01*
X157974725Y-81016713D01*
X157967183Y-81036350D01*
X157960752Y-81055404D01*
X157959212Y-81063704D01*
X157964518Y-81066586D01*
X157982236Y-81075252D01*
X158009277Y-81088104D01*
X158042441Y-81103608D01*
X158069021Y-81116400D01*
X158097098Y-81131137D01*
X158116225Y-81142688D01*
X158123292Y-81149296D01*
X158123287Y-81149359D01*
X158117131Y-81157064D01*
X158100279Y-81174783D01*
X158074067Y-81201200D01*
X158039831Y-81234993D01*
X157998905Y-81274846D01*
X157952626Y-81319440D01*
X157902330Y-81367455D01*
X157899666Y-81369986D01*
X157833184Y-81432668D01*
X157777320Y-81484336D01*
X157732268Y-81524819D01*
X157698222Y-81553946D01*
X157675374Y-81571548D01*
X157663920Y-81577453D01*
X157662851Y-81577448D01*
X157658428Y-81576911D01*
X157654866Y-81574330D01*
X157652056Y-81568091D01*
X157649889Y-81556576D01*
X157648256Y-81538172D01*
X157647049Y-81511261D01*
X157646158Y-81474229D01*
X157645474Y-81425459D01*
X157644889Y-81363336D01*
X157644294Y-81286244D01*
X157643875Y-81224246D01*
X157643602Y-81157589D01*
X157643684Y-81104649D01*
X157644176Y-81063809D01*
X157645135Y-81033453D01*
X157646618Y-81011964D01*
X157648680Y-80997726D01*
X157651376Y-80989122D01*
X157654765Y-80984538D01*
X157656849Y-80983015D01*
X157666786Y-80979857D01*
X157682837Y-80980753D01*
X157708202Y-80986117D01*
X157746083Y-80996366D01*
X157767763Y-81002269D01*
X157798729Y-81009728D01*
X157821435Y-81013957D01*
X157832074Y-81014167D01*
X157832256Y-81014044D01*
X157838552Y-81002795D01*
X157847594Y-80977382D01*
X157858887Y-80939824D01*
X157871940Y-80892140D01*
X157886259Y-80836350D01*
X157901351Y-80774473D01*
X157916724Y-80708528D01*
X157931884Y-80640535D01*
X157946338Y-80572512D01*
X157959594Y-80506479D01*
X157971158Y-80444456D01*
X157972773Y-80435349D01*
X157978756Y-80400469D01*
X157983492Y-80369517D01*
X157987131Y-80339931D01*
X157989823Y-80309146D01*
X157991716Y-80274598D01*
X157992960Y-80233721D01*
X157993704Y-80183953D01*
X157994099Y-80122728D01*
X157994293Y-80047482D01*
X157994300Y-80043106D01*
X157994352Y-79965844D01*
X157994064Y-79903132D01*
X157993204Y-79853036D01*
X157991538Y-79813617D01*
X157988832Y-79782942D01*
X157984854Y-79759075D01*
X157979369Y-79740080D01*
X157972144Y-79724020D01*
X157962946Y-79708962D01*
X157951542Y-79692968D01*
X157923424Y-79664449D01*
X157881799Y-79641901D01*
X157833023Y-79630802D01*
X157779441Y-79630880D01*
X157723402Y-79641866D01*
X157667251Y-79663490D01*
X157613335Y-79695481D01*
X157564000Y-79737569D01*
X157546276Y-79753961D01*
X157505597Y-79784606D01*
X157462385Y-79810075D01*
X157459379Y-79811587D01*
X157421054Y-79831640D01*
X157378145Y-79855163D01*
X157339385Y-79877378D01*
X157331383Y-79882076D01*
X157293399Y-79902835D01*
X157267543Y-79913048D01*
X157252827Y-79912187D01*
X157248263Y-79899721D01*
X157252863Y-79875122D01*
X157265641Y-79837861D01*
X157308352Y-79736180D01*
X157359236Y-79640339D01*
X157415847Y-79558267D01*
X157479170Y-79488732D01*
X157550188Y-79430502D01*
X157629887Y-79382347D01*
X157652693Y-79370928D01*
X157706661Y-79347882D01*
X157756729Y-79333881D01*
X157809069Y-79327510D01*
X157869852Y-79327356D01*
X157897055Y-79328555D01*
G37*
G36*
X157936858Y-80388081D02*
G01*
X157939394Y-80401579D01*
X157936869Y-80426961D01*
X157932333Y-80454853D01*
X157925887Y-80490946D01*
X157918279Y-80531365D01*
X157910196Y-80572667D01*
X157902325Y-80611414D01*
X157895350Y-80644163D01*
X157889959Y-80667474D01*
X157886837Y-80677906D01*
X157885552Y-80679320D01*
X157872506Y-80686730D01*
X157851597Y-80694741D01*
X157809202Y-80710270D01*
X157770090Y-80728959D01*
X157741611Y-80747781D01*
X157726598Y-80765141D01*
X157723951Y-80774206D01*
X157720332Y-80799543D01*
X157717869Y-80834184D01*
X157716959Y-80873638D01*
X157716959Y-80960978D01*
X157691744Y-80955440D01*
X157674280Y-80953837D01*
X157646135Y-80963264D01*
X157642192Y-80965914D01*
X157635351Y-80971893D01*
X157630731Y-80980353D01*
X157627895Y-80994116D01*
X157626408Y-81016003D01*
X157625835Y-81048832D01*
X157625741Y-81095427D01*
X157625734Y-81101839D01*
X157625245Y-81151532D01*
X157624103Y-81200776D01*
X157622464Y-81244194D01*
X157620485Y-81276406D01*
X157618593Y-81297702D01*
X157615434Y-81321290D01*
X157610604Y-81334867D01*
X157602321Y-81342472D01*
X157588799Y-81348144D01*
X157572908Y-81353474D01*
X157550369Y-81358165D01*
X157533686Y-81355709D01*
X157522151Y-81344545D01*
X157515059Y-81323115D01*
X157511702Y-81289858D01*
X157511375Y-81243214D01*
X157513370Y-81181624D01*
X157515287Y-81118496D01*
X157515690Y-81053099D01*
X157514445Y-80993433D01*
X157511674Y-80941663D01*
X157507494Y-80899953D01*
X157502025Y-80870467D01*
X157495387Y-80855368D01*
X157491396Y-80851930D01*
X157482026Y-80848035D01*
X157468219Y-80848250D01*
X157447241Y-80853096D01*
X157416353Y-80863097D01*
X157372819Y-80878775D01*
X157371168Y-80879382D01*
X157330111Y-80894442D01*
X157286116Y-80910501D01*
X157248431Y-80924184D01*
X157233903Y-80929281D01*
X157213387Y-80936404D01*
X157196875Y-80943346D01*
X157183909Y-80951781D01*
X157174033Y-80963386D01*
X157166791Y-80979837D01*
X157161725Y-81002809D01*
X157158380Y-81033977D01*
X157156298Y-81075018D01*
X157155023Y-81127608D01*
X157154098Y-81193421D01*
X157153067Y-81274134D01*
X157152434Y-81318617D01*
X157151329Y-81388848D01*
X157150219Y-81445092D01*
X157148998Y-81489034D01*
X157147561Y-81522357D01*
X157145804Y-81546745D01*
X157143621Y-81563885D01*
X157140908Y-81575460D01*
X157137559Y-81583154D01*
X157133470Y-81588652D01*
X157118645Y-81599761D01*
X157092689Y-81614113D01*
X157060910Y-81629178D01*
X157028361Y-81642714D01*
X157000093Y-81652479D01*
X156981159Y-81656232D01*
X156975144Y-81656128D01*
X156968399Y-81655004D01*
X156962774Y-81651566D01*
X156958168Y-81644516D01*
X156954478Y-81632557D01*
X156951603Y-81614392D01*
X156949441Y-81588722D01*
X156947891Y-81554252D01*
X156946851Y-81509683D01*
X156946218Y-81453718D01*
X156945893Y-81385060D01*
X156945772Y-81302412D01*
X156945754Y-81204476D01*
X156945745Y-81151158D01*
X156945734Y-81060863D01*
X156945868Y-80985083D01*
X156946305Y-80922455D01*
X156947203Y-80871620D01*
X156948722Y-80831216D01*
X156951021Y-80799882D01*
X156954258Y-80776258D01*
X156958592Y-80758982D01*
X156964181Y-80746694D01*
X156971186Y-80738033D01*
X156979764Y-80731638D01*
X156990075Y-80726148D01*
X157002277Y-80720203D01*
X157015629Y-80714011D01*
X157046481Y-80701520D01*
X157078434Y-80690266D01*
X157096198Y-80684275D01*
X157130064Y-80672324D01*
X157175889Y-80655824D01*
X157231741Y-80635489D01*
X157295684Y-80612031D01*
X157365785Y-80586165D01*
X157440110Y-80558605D01*
X157516726Y-80530065D01*
X157593697Y-80501258D01*
X157669091Y-80472898D01*
X157740974Y-80445700D01*
X157768491Y-80435364D01*
X157817643Y-80417479D01*
X157860784Y-80402521D01*
X157895555Y-80391269D01*
X157919598Y-80384503D01*
X157930556Y-80383002D01*
X157936858Y-80388081D01*
G37*
G36*
X157899417Y-79738819D02*
G01*
X157910086Y-79752849D01*
X157915534Y-79776630D01*
X157918267Y-79811491D01*
X157920426Y-79860250D01*
X157920753Y-79898853D01*
X157918847Y-79925004D01*
X157914545Y-79940790D01*
X157907687Y-79948296D01*
X157907517Y-79948378D01*
X157894538Y-79952895D01*
X157869190Y-79960450D01*
X157835061Y-79970008D01*
X157795738Y-79980537D01*
X157735567Y-79998879D01*
X157651647Y-80031248D01*
X157566102Y-80070913D01*
X157484498Y-80115242D01*
X157412405Y-80161605D01*
X157351506Y-80206999D01*
X157227868Y-80313630D01*
X157114693Y-80431631D01*
X157012962Y-80559569D01*
X156923657Y-80696016D01*
X156847758Y-80839540D01*
X156786247Y-80988710D01*
X156740104Y-81142095D01*
X156722883Y-81218099D01*
X156706060Y-81312170D01*
X156696055Y-81397703D01*
X156692984Y-81473107D01*
X156696960Y-81536789D01*
X156708099Y-81587160D01*
X156727524Y-81628542D01*
X156765947Y-81676495D01*
X156818980Y-81718225D01*
X156886025Y-81753282D01*
X156966485Y-81781219D01*
X156993171Y-81787963D01*
X157025481Y-81793932D01*
X157062093Y-81798032D01*
X157107099Y-81800701D01*
X157164590Y-81802374D01*
X157192864Y-81803042D01*
X157234491Y-81804405D01*
X157268244Y-81805984D01*
X157291220Y-81807634D01*
X157300515Y-81809208D01*
X157301251Y-81811770D01*
X157300774Y-81827272D01*
X157297883Y-81852592D01*
X157293278Y-81883279D01*
X157287665Y-81914882D01*
X157281745Y-81942950D01*
X157276221Y-81963030D01*
X157274535Y-81967409D01*
X157267646Y-81978322D01*
X157256200Y-81986116D01*
X157237795Y-81991289D01*
X157210026Y-81994340D01*
X157170492Y-81995765D01*
X157116787Y-81996064D01*
X157017957Y-81993112D01*
X156907576Y-81981619D01*
X156810806Y-81961367D01*
X156727330Y-81932267D01*
X156656830Y-81894226D01*
X156598987Y-81847152D01*
X156551870Y-81790174D01*
X156512139Y-81717805D01*
X156484511Y-81635346D01*
X156469193Y-81543661D01*
X156466394Y-81443613D01*
X156476320Y-81336068D01*
X156489704Y-81256478D01*
X156525450Y-81099506D01*
X156572846Y-80943608D01*
X156630815Y-80791232D01*
X156698284Y-80644823D01*
X156774176Y-80506826D01*
X156857416Y-80379687D01*
X156946928Y-80265852D01*
X156984897Y-80224147D01*
X157069656Y-80142308D01*
X157164303Y-80063548D01*
X157266228Y-79989472D01*
X157372820Y-79921684D01*
X157481469Y-79861788D01*
X157589564Y-79811390D01*
X157694496Y-79772092D01*
X157793653Y-79745499D01*
X157811018Y-79741963D01*
X157852390Y-79734703D01*
X157881021Y-79733212D01*
X157899417Y-79738819D01*
G37*
G36*
X157408111Y-81724620D02*
G01*
X157440950Y-81741222D01*
X157459162Y-81752630D01*
X157489489Y-81771382D01*
X157528033Y-81795063D01*
X157571714Y-81821781D01*
X157617448Y-81849643D01*
X157620594Y-81851557D01*
X157663189Y-81877745D01*
X157700765Y-81901338D01*
X157731021Y-81920854D01*
X157751656Y-81934809D01*
X157760368Y-81941720D01*
X157762445Y-81945105D01*
X157765563Y-81956223D01*
X157763083Y-81970594D01*
X157753945Y-81990743D01*
X157737091Y-82019198D01*
X157711464Y-82058483D01*
X157696099Y-82081216D01*
X157622572Y-82182022D01*
X157546728Y-82273600D01*
X157469924Y-82354602D01*
X157393514Y-82423679D01*
X157318854Y-82479481D01*
X157247299Y-82520658D01*
X157242275Y-82523069D01*
X157208712Y-82538631D01*
X157183191Y-82548308D01*
X157159682Y-82553494D01*
X157132157Y-82555584D01*
X157094589Y-82555971D01*
X157058891Y-82555621D01*
X157030561Y-82553645D01*
X157007371Y-82548739D01*
X156983360Y-82539601D01*
X156952569Y-82524927D01*
X156914612Y-82503961D01*
X156879178Y-82476322D01*
X156851590Y-82442022D01*
X156827111Y-82396201D01*
X156821634Y-82383483D01*
X156816724Y-82368433D01*
X156813273Y-82350739D01*
X156811029Y-82327613D01*
X156809735Y-82296267D01*
X156809137Y-82253913D01*
X156808980Y-82197763D01*
X156809117Y-82162412D01*
X156810054Y-82109118D01*
X156811821Y-82068376D01*
X156814348Y-82041525D01*
X156817568Y-82029907D01*
X156822992Y-82027904D01*
X156842765Y-82026254D01*
X156872869Y-82026305D01*
X156909530Y-82027788D01*
X156948978Y-82030433D01*
X156987440Y-82033968D01*
X157021145Y-82038125D01*
X157046321Y-82042632D01*
X157059195Y-82047219D01*
X157063733Y-82054450D01*
X157068544Y-82079114D01*
X157070142Y-82119872D01*
X157070170Y-82126639D01*
X157072097Y-82164762D01*
X157077909Y-82193881D01*
X157088800Y-82220440D01*
X157098558Y-82238897D01*
X157109227Y-82251774D01*
X157123921Y-82256667D01*
X157148921Y-82257440D01*
X157171983Y-82256906D01*
X157187021Y-82252778D01*
X157197396Y-82241254D01*
X157208977Y-82218532D01*
X157216061Y-82202683D01*
X157231605Y-82163537D01*
X157249636Y-82113994D01*
X157268959Y-82057667D01*
X157288378Y-81998170D01*
X157306698Y-81939117D01*
X157322723Y-81884119D01*
X157335259Y-81836792D01*
X157344903Y-81798449D01*
X157353496Y-81765919D01*
X157360103Y-81742645D01*
X157363786Y-81732063D01*
X157365483Y-81729639D01*
X157382486Y-81720703D01*
X157408111Y-81724620D01*
G37*
G36*
X159507536Y-82075320D02*
G01*
X159530998Y-82084711D01*
X159548390Y-82094870D01*
X159562576Y-82111166D01*
X159572043Y-82137198D01*
X159574293Y-82146664D01*
X159578431Y-82175390D01*
X159578263Y-82198356D01*
X159575767Y-82217692D01*
X159574484Y-82236506D01*
X159571175Y-82244390D01*
X159556230Y-82259839D01*
X159532470Y-82276932D01*
X159513431Y-82288652D01*
X159496079Y-82299046D01*
X159488716Y-82303049D01*
X159488404Y-82302195D01*
X159488541Y-82290659D01*
X159490131Y-82269950D01*
X159488951Y-82244197D01*
X159479903Y-82230443D01*
X159464729Y-82231201D01*
X159445329Y-82247424D01*
X159437320Y-82259716D01*
X159426401Y-82282274D01*
X159415670Y-82308892D01*
X159406871Y-82334816D01*
X159401746Y-82355289D01*
X159402038Y-82365558D01*
X159406413Y-82364862D01*
X159423347Y-82359147D01*
X159449842Y-82348993D01*
X159482562Y-82335642D01*
X159505808Y-82325964D01*
X159534643Y-82314139D01*
X159554928Y-82306048D01*
X159563299Y-82303049D01*
X159563999Y-82305334D01*
X159565125Y-82320399D01*
X159565902Y-82346447D01*
X159566192Y-82379829D01*
X159566192Y-82456609D01*
X159510217Y-82476277D01*
X159483410Y-82486084D01*
X159443903Y-82501184D01*
X159399494Y-82518640D01*
X159355659Y-82536324D01*
X159314818Y-82552772D01*
X159279880Y-82565747D01*
X159254659Y-82573115D01*
X159236262Y-82575492D01*
X159221795Y-82573495D01*
X159208366Y-82567742D01*
X159196957Y-82558498D01*
X159181731Y-82531189D01*
X159171981Y-82490733D01*
X159167903Y-82438776D01*
X159169691Y-82376965D01*
X159177539Y-82306945D01*
X159186927Y-82243823D01*
X159233513Y-82222026D01*
X159255446Y-82211732D01*
X159275940Y-82202037D01*
X159286178Y-82197094D01*
X159287354Y-82197342D01*
X159286648Y-82206863D01*
X159281057Y-82225701D01*
X159278567Y-82233050D01*
X159268368Y-82270179D01*
X159260737Y-82309260D01*
X159256257Y-82345844D01*
X159255509Y-82375481D01*
X159259077Y-82393722D01*
X159260073Y-82395534D01*
X159270145Y-82406044D01*
X159283930Y-82402728D01*
X159293130Y-82395386D01*
X159301780Y-82381644D01*
X159310263Y-82359238D01*
X159319542Y-82325602D01*
X159330575Y-82278171D01*
X159334464Y-82261753D01*
X159357164Y-82194171D01*
X159387391Y-82141183D01*
X159425081Y-82102885D01*
X159470166Y-82079369D01*
X159488128Y-82074605D01*
X159507536Y-82075320D01*
G37*
G36*
X158319986Y-79795901D02*
G01*
X158343315Y-79804191D01*
X158373954Y-79818233D01*
X158408899Y-79836472D01*
X158445147Y-79857356D01*
X158479695Y-79879334D01*
X158509539Y-79900852D01*
X158585406Y-79970679D01*
X158650365Y-80052179D01*
X158703316Y-80143633D01*
X158743354Y-80243481D01*
X158769576Y-80350159D01*
X158773478Y-80372600D01*
X158778469Y-80401161D01*
X158781903Y-80420646D01*
X158782374Y-80423543D01*
X158784662Y-80454142D01*
X158784763Y-80496480D01*
X158782939Y-80546432D01*
X158779451Y-80599875D01*
X158774562Y-80652685D01*
X158768533Y-80700737D01*
X158761627Y-80739908D01*
X158757173Y-80759586D01*
X158716896Y-80895676D01*
X158661021Y-81029317D01*
X158590374Y-81159381D01*
X158505783Y-81284742D01*
X158408074Y-81404275D01*
X158298075Y-81516852D01*
X158176612Y-81621346D01*
X158044513Y-81716633D01*
X158034203Y-81723324D01*
X157995938Y-81746875D01*
X157954134Y-81771032D01*
X157911742Y-81794255D01*
X157871710Y-81815001D01*
X157836986Y-81831728D01*
X157810519Y-81842895D01*
X157795259Y-81846960D01*
X157782246Y-81842289D01*
X157760571Y-81829033D01*
X157734734Y-81810266D01*
X157708740Y-81789086D01*
X157686590Y-81768586D01*
X157672288Y-81751864D01*
X157668078Y-81745098D01*
X157662828Y-81731214D01*
X157666986Y-81719759D01*
X157682503Y-81707754D01*
X157711326Y-81692222D01*
X157807817Y-81636510D01*
X157908127Y-81564621D01*
X158005914Y-81480665D01*
X158098618Y-81386846D01*
X158183678Y-81285371D01*
X158217929Y-81238388D01*
X158262611Y-81171155D01*
X158307955Y-81097265D01*
X158351744Y-81020628D01*
X158391756Y-80945155D01*
X158425775Y-80874755D01*
X158451580Y-80813337D01*
X158462443Y-80782993D01*
X158489931Y-80686960D01*
X158507795Y-80590571D01*
X158515411Y-80497933D01*
X158512160Y-80413150D01*
X158498056Y-80332042D01*
X158469541Y-80246275D01*
X158427730Y-80170038D01*
X158372224Y-80102626D01*
X158302623Y-80043336D01*
X158279664Y-80026751D01*
X158289430Y-79914802D01*
X158290376Y-79904260D01*
X158294541Y-79863749D01*
X158298831Y-79829955D01*
X158302792Y-79806152D01*
X158305969Y-79795614D01*
X158306969Y-79794913D01*
X158319986Y-79795901D01*
G37*
G36*
X159744052Y-80367354D02*
G01*
X159746689Y-80379306D01*
X159747544Y-80403193D01*
X159746866Y-80441314D01*
X159744481Y-80522044D01*
X159698872Y-80538406D01*
X159665525Y-80550471D01*
X159628833Y-80563927D01*
X159593918Y-80576887D01*
X159564232Y-80588060D01*
X159543230Y-80596156D01*
X159534364Y-80599883D01*
X159534155Y-80600579D01*
X159538702Y-80610082D01*
X159549843Y-80626506D01*
X159558652Y-80640413D01*
X159573522Y-80682878D01*
X159576805Y-80730764D01*
X159568527Y-80779440D01*
X159548713Y-80824278D01*
X159540304Y-80836920D01*
X159505256Y-80877014D01*
X159462355Y-80911912D01*
X159414603Y-80940293D01*
X159364998Y-80960838D01*
X159316543Y-80972226D01*
X159272237Y-80973137D01*
X159235080Y-80962252D01*
X159221279Y-80954564D01*
X159202329Y-80941044D01*
X159188968Y-80924935D01*
X159180240Y-80903442D01*
X159175190Y-80873768D01*
X159172861Y-80833119D01*
X159172297Y-80778701D01*
X159172337Y-80764949D01*
X159172374Y-80762523D01*
X159276866Y-80762523D01*
X159285728Y-80791740D01*
X159303298Y-80811454D01*
X159328226Y-80818687D01*
X159343137Y-80816564D01*
X159373049Y-80805678D01*
X159404969Y-80788546D01*
X159432911Y-80768562D01*
X159450887Y-80749122D01*
X159454321Y-80743189D01*
X159465781Y-80711039D01*
X159462731Y-80684142D01*
X159445276Y-80664071D01*
X159438726Y-80660028D01*
X159424645Y-80654679D01*
X159407528Y-80655090D01*
X159381009Y-80660950D01*
X159368648Y-80664226D01*
X159323091Y-80679656D01*
X159293883Y-80696279D01*
X159280859Y-80714185D01*
X159278061Y-80726780D01*
X159276866Y-80762523D01*
X159172374Y-80762523D01*
X159173039Y-80718361D01*
X159174479Y-80675606D01*
X159176482Y-80640935D01*
X159178874Y-80618598D01*
X159185450Y-80580213D01*
X159272304Y-80549585D01*
X159283776Y-80545443D01*
X159316417Y-80533208D01*
X159359628Y-80516641D01*
X159410517Y-80496883D01*
X159424645Y-80491350D01*
X159466188Y-80475080D01*
X159523748Y-80452374D01*
X159580302Y-80429910D01*
X159632956Y-80408830D01*
X159678815Y-80390280D01*
X159714986Y-80375402D01*
X159738574Y-80365339D01*
X159739382Y-80365036D01*
X159744052Y-80367354D01*
G37*
G36*
X159746878Y-79931254D02*
G01*
X159744481Y-80007715D01*
X159661556Y-80039144D01*
X159636307Y-80048728D01*
X159601313Y-80062060D01*
X159572892Y-80072944D01*
X159555514Y-80079672D01*
X159532397Y-80088772D01*
X159550261Y-80112934D01*
X159559344Y-80127445D01*
X159573683Y-80169550D01*
X159576760Y-80217078D01*
X159568599Y-80265257D01*
X159549226Y-80309313D01*
X159545588Y-80314900D01*
X159518188Y-80347990D01*
X159482054Y-80381986D01*
X159442685Y-80412126D01*
X159405583Y-80433650D01*
X159359159Y-80450248D01*
X159311829Y-80458656D01*
X159268980Y-80458071D01*
X159235080Y-80448115D01*
X159221300Y-80440439D01*
X159202344Y-80426917D01*
X159188978Y-80410805D01*
X159180246Y-80389307D01*
X159175192Y-80359630D01*
X159172861Y-80318976D01*
X159172297Y-80264553D01*
X159172337Y-80250753D01*
X159172376Y-80248176D01*
X159277519Y-80248176D01*
X159285210Y-80278859D01*
X159303555Y-80297969D01*
X159332056Y-80304551D01*
X159332665Y-80304547D01*
X159361749Y-80298375D01*
X159394802Y-80282862D01*
X159425627Y-80261565D01*
X159448023Y-80238037D01*
X159450533Y-80234243D01*
X159464123Y-80202910D01*
X159464497Y-80174520D01*
X159451516Y-80152424D01*
X159437275Y-80143340D01*
X159413695Y-80139593D01*
X159381877Y-80145067D01*
X159339169Y-80159939D01*
X159314759Y-80170266D01*
X159295813Y-80180906D01*
X159285833Y-80192000D01*
X159281035Y-80206584D01*
X159280977Y-80206871D01*
X159277519Y-80248176D01*
X159172376Y-80248176D01*
X159173034Y-80204218D01*
X159174463Y-80161554D01*
X159176451Y-80126998D01*
X159178825Y-80104788D01*
X159185353Y-80066729D01*
X159307359Y-80022933D01*
X159327074Y-80015775D01*
X159383718Y-79994607D01*
X159413695Y-79983088D01*
X159446691Y-79970408D01*
X159509634Y-79945637D01*
X159566192Y-79922755D01*
X159604065Y-79907289D01*
X159647041Y-79890090D01*
X159683712Y-79875795D01*
X159711080Y-79865571D01*
X159726147Y-79860583D01*
X159749275Y-79854794D01*
X159746878Y-79931254D01*
G37*
G36*
X159566192Y-82611184D02*
G01*
X159566192Y-82612230D01*
X159565953Y-82647079D01*
X159564615Y-82669014D01*
X159561229Y-82681617D01*
X159554850Y-82688468D01*
X159544530Y-82693151D01*
X159522869Y-82701386D01*
X159544428Y-82718345D01*
X159561336Y-82737217D01*
X159573726Y-82761732D01*
X159577710Y-82779826D01*
X159577569Y-82828901D01*
X159563565Y-82880115D01*
X159536753Y-82930465D01*
X159498185Y-82976950D01*
X159475247Y-82997835D01*
X159426492Y-83032912D01*
X159375380Y-83059166D01*
X159324957Y-83075462D01*
X159278269Y-83080667D01*
X159238364Y-83073646D01*
X159232918Y-83071499D01*
X159207440Y-83058015D01*
X159190009Y-83040083D01*
X159179255Y-83014721D01*
X159173808Y-82978942D01*
X159172297Y-82929763D01*
X159172297Y-82856575D01*
X159276066Y-82856575D01*
X159276425Y-82863442D01*
X159285524Y-82890048D01*
X159303955Y-82909260D01*
X159327781Y-82916513D01*
X159345464Y-82913962D01*
X159378054Y-82901629D01*
X159410412Y-82882205D01*
X159435927Y-82859192D01*
X159441181Y-82852754D01*
X159453475Y-82835702D01*
X159458389Y-82825520D01*
X159458617Y-82822392D01*
X159462016Y-82807498D01*
X159461771Y-82788455D01*
X159451399Y-82767936D01*
X159434763Y-82755389D01*
X159431866Y-82754875D01*
X159413102Y-82756398D01*
X159384901Y-82762460D01*
X159352045Y-82772097D01*
X159318138Y-82784086D01*
X159295351Y-82795607D01*
X159282737Y-82809312D01*
X159277306Y-82828525D01*
X159276066Y-82856575D01*
X159172297Y-82856575D01*
X159172297Y-82844497D01*
X159108030Y-82871989D01*
X159043763Y-82899481D01*
X159043803Y-82818944D01*
X159043844Y-82738406D01*
X159120509Y-82711617D01*
X159131709Y-82707629D01*
X159167619Y-82694357D01*
X159214010Y-82676749D01*
X159267444Y-82656128D01*
X159324481Y-82633818D01*
X159381683Y-82611140D01*
X159431866Y-82591099D01*
X159566192Y-82537453D01*
X159566192Y-82611184D01*
G37*
G36*
X159740734Y-80865748D02*
G01*
X159746446Y-80877497D01*
X159751332Y-80897466D01*
X159752730Y-80909142D01*
X159752716Y-80952868D01*
X159746668Y-81000889D01*
X159735455Y-81045117D01*
X159728408Y-81061757D01*
X159707780Y-81093594D01*
X159675930Y-81128848D01*
X159631632Y-81168805D01*
X159573657Y-81214753D01*
X159554066Y-81229653D01*
X159518906Y-81256566D01*
X159477030Y-81288755D01*
X159432099Y-81323405D01*
X159387771Y-81357701D01*
X159352041Y-81385396D01*
X159311041Y-81417172D01*
X159274124Y-81445779D01*
X159244298Y-81468886D01*
X159224573Y-81484162D01*
X159205720Y-81498411D01*
X159188558Y-81510580D01*
X159180421Y-81515259D01*
X159179589Y-81513639D01*
X159177977Y-81499731D01*
X159176860Y-81474660D01*
X159176443Y-81442164D01*
X159176443Y-81369070D01*
X159224125Y-81335137D01*
X159239514Y-81324279D01*
X159272890Y-81301049D01*
X159311075Y-81274751D01*
X159348473Y-81249252D01*
X159375638Y-81230569D01*
X159400691Y-81212707D01*
X159417248Y-81200139D01*
X159422653Y-81194813D01*
X159420321Y-81194453D01*
X159405085Y-81194909D01*
X159379025Y-81196807D01*
X159345987Y-81199894D01*
X159337197Y-81200780D01*
X159295713Y-81204737D01*
X159255483Y-81208270D01*
X159224125Y-81210703D01*
X159176443Y-81213946D01*
X159176443Y-81136970D01*
X159176443Y-81059994D01*
X159379081Y-81057509D01*
X159581719Y-81055024D01*
X159607258Y-81030541D01*
X159632193Y-80997073D01*
X159644011Y-80957903D01*
X159640709Y-80917795D01*
X159639746Y-80914403D01*
X159634621Y-80894832D01*
X159632532Y-80884088D01*
X159632559Y-80883842D01*
X159640732Y-80878983D01*
X159659866Y-80873672D01*
X159684697Y-80868801D01*
X159709961Y-80865261D01*
X159730394Y-80863946D01*
X159740734Y-80865748D01*
G37*
G36*
X159486897Y-79464171D02*
G01*
X159522068Y-79482001D01*
X159549497Y-79512437D01*
X159553619Y-79519803D01*
X159565999Y-79549790D01*
X159574199Y-79581051D01*
X159576397Y-79594037D01*
X159579939Y-79614621D01*
X159581739Y-79624564D01*
X159581116Y-79633100D01*
X159578368Y-79653702D01*
X159574091Y-79681466D01*
X159570731Y-79698978D01*
X159549622Y-79762289D01*
X159516777Y-79819555D01*
X159474290Y-79868676D01*
X159424255Y-79907556D01*
X159368766Y-79934095D01*
X159309916Y-79946196D01*
X159285871Y-79946283D01*
X159245606Y-79936375D01*
X159212925Y-79912350D01*
X159186242Y-79873272D01*
X159174268Y-79838463D01*
X159168398Y-79790790D01*
X159170010Y-79738293D01*
X159171266Y-79730930D01*
X159284373Y-79730930D01*
X159284422Y-79733989D01*
X159286957Y-79757356D01*
X159292107Y-79773415D01*
X159301236Y-79781090D01*
X159323248Y-79784749D01*
X159352025Y-79780321D01*
X159383715Y-79768939D01*
X159414461Y-79751735D01*
X159440410Y-79729842D01*
X159455729Y-79706083D01*
X159464053Y-79677342D01*
X159463933Y-79650103D01*
X159454543Y-79630195D01*
X159450364Y-79626523D01*
X159425970Y-79616965D01*
X159396317Y-79618813D01*
X159364696Y-79630117D01*
X159334399Y-79648930D01*
X159308718Y-79673302D01*
X159290946Y-79701285D01*
X159284373Y-79730930D01*
X159171266Y-79730930D01*
X159178912Y-79686100D01*
X159194915Y-79639340D01*
X159199720Y-79629368D01*
X159230485Y-79579939D01*
X159268158Y-79537871D01*
X159310647Y-79503914D01*
X159355858Y-79478817D01*
X159401699Y-79463327D01*
X159425970Y-79460521D01*
X159446076Y-79458196D01*
X159486897Y-79464171D01*
G37*
G36*
X159563167Y-78708176D02*
G01*
X159564719Y-78725684D01*
X159565770Y-78753812D01*
X159566147Y-78789092D01*
X159566102Y-78874090D01*
X159477002Y-78905329D01*
X159445302Y-78916661D01*
X159412537Y-78928884D01*
X159388015Y-78938613D01*
X159375463Y-78944414D01*
X159372609Y-78946919D01*
X159367895Y-78957031D01*
X159364832Y-78975780D01*
X159363090Y-79005811D01*
X159362340Y-79049770D01*
X159361656Y-79147278D01*
X159312886Y-79166169D01*
X159289392Y-79174976D01*
X159268222Y-79182262D01*
X159257596Y-79185060D01*
X159255150Y-79178015D01*
X159253034Y-79157514D01*
X159251602Y-79126800D01*
X159251076Y-79089137D01*
X159251117Y-79069796D01*
X159250967Y-79033557D01*
X159249003Y-79010964D01*
X159243417Y-78999946D01*
X159232396Y-78998432D01*
X159214130Y-79004352D01*
X159186809Y-79015633D01*
X159159858Y-79026656D01*
X159159858Y-79146353D01*
X159159737Y-79186275D01*
X159159100Y-79221780D01*
X159157642Y-79245363D01*
X159155064Y-79259579D01*
X159151065Y-79266987D01*
X159145346Y-79270145D01*
X159136315Y-79273100D01*
X159114111Y-79281252D01*
X159087298Y-79291722D01*
X159043763Y-79309206D01*
X159043803Y-79104087D01*
X159043844Y-78898968D01*
X159124655Y-78871172D01*
X159131914Y-78868644D01*
X159167784Y-78855672D01*
X159214369Y-78838293D01*
X159267975Y-78817910D01*
X159324909Y-78795923D01*
X159381477Y-78773735D01*
X159409187Y-78762792D01*
X159457158Y-78743957D01*
X159498638Y-78727808D01*
X159531399Y-78715207D01*
X159553209Y-78707015D01*
X159561839Y-78704093D01*
X159563167Y-78708176D01*
G37*
G36*
X159566192Y-81812783D02*
G01*
X159566192Y-82018881D01*
X159514363Y-82038567D01*
X159488024Y-82048635D01*
X159466756Y-82056888D01*
X159456316Y-82061101D01*
X159455457Y-82060376D01*
X159453346Y-82048193D01*
X159451645Y-82023354D01*
X159450509Y-81988723D01*
X159450096Y-81947161D01*
X159450054Y-81931496D01*
X159449531Y-81891693D01*
X159448506Y-81859599D01*
X159447095Y-81838174D01*
X159445419Y-81830375D01*
X159437551Y-81832982D01*
X159416681Y-81840730D01*
X159385455Y-81852613D01*
X159346471Y-81867620D01*
X159302327Y-81884736D01*
X159255621Y-81902948D01*
X159208950Y-81921244D01*
X159164912Y-81938610D01*
X159126106Y-81954033D01*
X159095128Y-81966501D01*
X159074577Y-81975000D01*
X159043197Y-81988392D01*
X159045553Y-81900237D01*
X159047909Y-81812083D01*
X159085225Y-81799681D01*
X159090924Y-81797723D01*
X159117099Y-81788131D01*
X159154737Y-81773820D01*
X159200922Y-81755946D01*
X159252738Y-81735664D01*
X159307266Y-81714130D01*
X159361590Y-81692497D01*
X159412793Y-81671922D01*
X159457959Y-81653559D01*
X159494170Y-81638564D01*
X159518510Y-81628092D01*
X159566192Y-81606686D01*
X159566192Y-81812783D01*
G37*
G36*
X159560127Y-79178770D02*
G01*
X159563265Y-79193510D01*
X159565402Y-79219736D01*
X159566192Y-79254053D01*
X159566192Y-79331338D01*
X159448023Y-79375599D01*
X159432483Y-79381449D01*
X159377227Y-79402562D01*
X159315257Y-79426609D01*
X159253073Y-79451056D01*
X159197174Y-79473370D01*
X159162245Y-79487455D01*
X159121697Y-79503798D01*
X159088276Y-79517263D01*
X159064731Y-79526739D01*
X159053816Y-79531120D01*
X159053115Y-79531355D01*
X159048399Y-79528884D01*
X159045728Y-79516786D01*
X159044852Y-79492758D01*
X159045523Y-79454500D01*
X159047909Y-79373639D01*
X159205467Y-79313727D01*
X159254235Y-79295062D01*
X159312217Y-79272612D01*
X159368323Y-79250645D01*
X159418004Y-79230944D01*
X159456708Y-79215291D01*
X159457790Y-79214846D01*
X159494437Y-79200043D01*
X159525578Y-79187937D01*
X159547951Y-79179766D01*
X159558291Y-79176767D01*
X159560127Y-79178770D01*
G37*
G36*
X158289149Y-80231333D02*
G01*
X158292569Y-80238927D01*
X158294944Y-80254921D01*
X158296437Y-80281360D01*
X158297213Y-80320288D01*
X158297435Y-80373752D01*
X158297398Y-80416508D01*
X158296752Y-80461094D01*
X158294566Y-80493437D01*
X158289901Y-80516023D01*
X158281818Y-80531337D01*
X158269380Y-80541865D01*
X158251646Y-80550093D01*
X158227679Y-80558507D01*
X158225067Y-80559389D01*
X158199208Y-80566401D01*
X158183722Y-80565205D01*
X158177498Y-80553980D01*
X158179423Y-80530906D01*
X158188385Y-80494162D01*
X158192583Y-80478244D01*
X158202603Y-80437122D01*
X158213141Y-80390603D01*
X158222509Y-80346013D01*
X158228992Y-80316018D01*
X158240544Y-80275655D01*
X158253228Y-80249048D01*
X158268025Y-80234401D01*
X158285915Y-80229918D01*
X158289149Y-80231333D01*
G37*
%TO.C,J8*%
D14*
X150183595Y-98822096D02*
G75*
G02*
X150012405Y-98822096I-85595J0D01*
G01*
X150012405Y-98822096D02*
G75*
G02*
X150183595Y-98822096I85595J0D01*
G01*
D12*
X149898000Y-101022096D02*
X149898000Y-100822096D01*
X149898000Y-101022096D02*
X149698000Y-101022096D01*
X148098000Y-99022096D02*
X148098000Y-101022096D01*
X147898000Y-101022096D02*
X148298000Y-101022096D01*
X147898000Y-99022096D02*
X148298000Y-99022096D01*
X146098000Y-99022096D02*
X146098000Y-101022096D01*
X145898000Y-101022096D02*
X146298000Y-101022096D01*
X145898000Y-99022096D02*
X146298000Y-99022096D01*
X144298000Y-101022096D02*
X144498000Y-101022096D01*
X144298000Y-100822096D02*
X144298000Y-101022096D01*
X144298000Y-99022096D02*
X144498000Y-99022096D01*
X144298000Y-99022096D02*
X144298000Y-99222096D01*
%TO.C,U3*%
X145577000Y-93722000D02*
X145097000Y-93722000D01*
X145337000Y-93392000D01*
X145577000Y-93722000D01*
G36*
X145577000Y-93722000D02*
G01*
X145097000Y-93722000D01*
X145337000Y-93392000D01*
X145577000Y-93722000D01*
G37*
X147437000Y-93442000D02*
X146637000Y-93442000D01*
X147437000Y-90322000D02*
X146637000Y-90322000D01*
X145837000Y-93442000D02*
X146637000Y-93442000D01*
X145837000Y-90322000D02*
X146637000Y-90322000D01*
%TO.C,J10*%
X157496000Y-90948000D02*
G75*
G02*
X157096000Y-90948000I-200000J0D01*
G01*
X157096000Y-90948000D02*
G75*
G02*
X157496000Y-90948000I200000J0D01*
G01*
X159496000Y-94748000D02*
X159496000Y-94548000D01*
X159496000Y-93148000D02*
X159496000Y-92748000D01*
X159496000Y-91148000D02*
X159496000Y-91348000D01*
X159496000Y-91148000D02*
X159296000Y-91148000D01*
X159296000Y-94748000D02*
X159496000Y-94748000D01*
X157496000Y-94748000D02*
X157696000Y-94748000D01*
X157496000Y-94748000D02*
X157496000Y-94548000D01*
X157496000Y-93148000D02*
X157496000Y-92748000D01*
X157496000Y-92948000D02*
X159496000Y-92948000D01*
%TO.C,C20*%
X150751000Y-79515580D02*
X150751000Y-79234420D01*
X149731000Y-79515580D02*
X149731000Y-79234420D01*
D13*
%TO.C,kibuzzard-667D9F97*%
G36*
X153166722Y-95466029D02*
G01*
X153091703Y-95466029D01*
X153071484Y-95466029D01*
X152573901Y-95466029D01*
X152178736Y-95466029D01*
X151741813Y-95466029D01*
X151060055Y-95466029D01*
X150708846Y-95466029D01*
X150124231Y-95466029D01*
X149710604Y-95466029D01*
X148903571Y-95466029D01*
X148376099Y-95466029D01*
X147898297Y-95466029D01*
X147823278Y-95466029D01*
X147823278Y-95215187D01*
X149887747Y-95215187D01*
X149892473Y-95253813D01*
X149906648Y-95290571D01*
X149929505Y-95323209D01*
X149960275Y-95349473D01*
X149996703Y-95369088D01*
X150036538Y-95381780D01*
X150079231Y-95388703D01*
X150124231Y-95391011D01*
X150175855Y-95388716D01*
X150235781Y-95381829D01*
X150304011Y-95370352D01*
X150308016Y-95312085D01*
X150312411Y-95262122D01*
X150317198Y-95220462D01*
X150294780Y-95229434D01*
X150270659Y-95239088D01*
X150229505Y-95251011D01*
X150162033Y-95259582D01*
X150101154Y-95248374D01*
X150078516Y-95215187D01*
X150080714Y-95200901D01*
X150089066Y-95185516D01*
X150106648Y-95166835D01*
X150189286Y-95094747D01*
X150229725Y-95059143D01*
X150265989Y-95017385D01*
X150284890Y-94978044D01*
X150290824Y-94935626D01*
X150281374Y-94883099D01*
X150253022Y-94834967D01*
X150202912Y-94796286D01*
X150152635Y-94779582D01*
X150482033Y-94779582D01*
X150490824Y-94877604D01*
X150509725Y-95202879D01*
X150514121Y-95322440D01*
X150514121Y-95379582D01*
X150555549Y-95378923D01*
X150605110Y-95378703D01*
X150662253Y-95378923D01*
X150708846Y-95379582D01*
X150704695Y-95324833D01*
X150699860Y-95251426D01*
X150694341Y-95159363D01*
X150689310Y-95067592D01*
X150685940Y-94995065D01*
X150684231Y-94941780D01*
X150715879Y-94961780D01*
X150740275Y-94978429D01*
X150782692Y-95008593D01*
X150780165Y-94967989D01*
X150778708Y-94938264D01*
X151177857Y-94938264D01*
X151185330Y-94993429D01*
X151208846Y-95041780D01*
X151249286Y-95080901D01*
X151278571Y-95097549D01*
X151317637Y-95114527D01*
X151294780Y-95170352D01*
X151274121Y-95217824D01*
X151215220Y-95346615D01*
X151201154Y-95379582D01*
X151261813Y-95378923D01*
X151298736Y-95378703D01*
X151340495Y-95378923D01*
X151402473Y-95379582D01*
X151412363Y-95346945D01*
X151427967Y-95294747D01*
X151440714Y-95254747D01*
X151453791Y-95217275D01*
X151471923Y-95167275D01*
X151517198Y-95042879D01*
X151470604Y-95047275D01*
X151412363Y-95037604D01*
X151372802Y-95007714D01*
X151359396Y-94965077D01*
X151369505Y-94931890D01*
X151401374Y-94910571D01*
X151468407Y-94903538D01*
X151500275Y-94904198D01*
X151538736Y-94905297D01*
X151542399Y-94969766D01*
X151545769Y-95043026D01*
X151548846Y-95125077D01*
X151550852Y-95189610D01*
X151552473Y-95253538D01*
X151553709Y-95316863D01*
X151554560Y-95379582D01*
X151615110Y-95378923D01*
X151649945Y-95378703D01*
X151685659Y-95378923D01*
X151741813Y-95379582D01*
X151734341Y-95306066D01*
X151728626Y-95240242D01*
X151724121Y-95173319D01*
X151720275Y-95096505D01*
X151719152Y-95067495D01*
X151811264Y-95067495D01*
X151817912Y-95138319D01*
X151837857Y-95203099D01*
X151870330Y-95260187D01*
X151914560Y-95307934D01*
X151969505Y-95345242D01*
X152034121Y-95371011D01*
X152105000Y-95386011D01*
X152178736Y-95391011D01*
X152251484Y-95386121D01*
X152321154Y-95371451D01*
X152384835Y-95345846D01*
X152439615Y-95308154D01*
X152482637Y-95261945D01*
X152511044Y-95210791D01*
X152526868Y-95154198D01*
X152532143Y-95091670D01*
X152527186Y-95030107D01*
X152512314Y-94973770D01*
X152487527Y-94922659D01*
X152452998Y-94877702D01*
X152408895Y-94839827D01*
X152355220Y-94809033D01*
X152294292Y-94786322D01*
X152261714Y-94779582D01*
X152576978Y-94779582D01*
X152582253Y-94863209D01*
X152584011Y-94911890D01*
X152622253Y-94910571D01*
X152653022Y-94910132D01*
X152683791Y-94909692D01*
X152770385Y-94909692D01*
X152799725Y-94909912D01*
X152857857Y-94910571D01*
X152861813Y-95012989D01*
X152798077Y-95014308D01*
X152726868Y-95014308D01*
X152687967Y-95013978D01*
X152632802Y-95012989D01*
X152636429Y-95087055D01*
X152637637Y-95143099D01*
X152699286Y-95141451D01*
X152742692Y-95140901D01*
X152803352Y-95141451D01*
X152869286Y-95143099D01*
X152873681Y-95301341D01*
X152874121Y-95360242D01*
X152874121Y-95379582D01*
X152968626Y-95378703D01*
X152999835Y-95378923D01*
X153071484Y-95379582D01*
X153063681Y-95299143D01*
X153058736Y-95236286D01*
X153055269Y-95176286D01*
X153051899Y-95102952D01*
X153048626Y-95016286D01*
X153045940Y-94933136D01*
X153044328Y-94870352D01*
X153043791Y-94827934D01*
X153043791Y-94779582D01*
X152978791Y-94779967D01*
X152916099Y-94780242D01*
X152898736Y-94780289D01*
X152855714Y-94780407D01*
X152797637Y-94780462D01*
X152722131Y-94780364D01*
X152648578Y-94780071D01*
X152576978Y-94779582D01*
X152261714Y-94779582D01*
X152228431Y-94772696D01*
X152157637Y-94768154D01*
X152088626Y-94772879D01*
X152022253Y-94787055D01*
X151961264Y-94811615D01*
X151908407Y-94847495D01*
X151865769Y-94892165D01*
X151835440Y-94943099D01*
X151817308Y-95001231D01*
X151811264Y-95067495D01*
X151719152Y-95067495D01*
X151718126Y-95040999D01*
X151716368Y-94983490D01*
X151715000Y-94923978D01*
X151713681Y-94842495D01*
X151713242Y-94779582D01*
X151663571Y-94780571D01*
X151624451Y-94780901D01*
X151585440Y-94780407D01*
X151538736Y-94778923D01*
X151496978Y-94777681D01*
X151488846Y-94777440D01*
X151440275Y-94776945D01*
X151387088Y-94778044D01*
X151340055Y-94781341D01*
X151280055Y-94794088D01*
X151234560Y-94817604D01*
X151203791Y-94848593D01*
X151184670Y-94888813D01*
X151177857Y-94938264D01*
X150778708Y-94938264D01*
X150777857Y-94920901D01*
X150775659Y-94846835D01*
X150724890Y-94816505D01*
X150690165Y-94794308D01*
X150671044Y-94779582D01*
X150628956Y-94780242D01*
X150580934Y-94780462D01*
X150532033Y-94780242D01*
X150482033Y-94779582D01*
X150152635Y-94779582D01*
X150136099Y-94774088D01*
X150062692Y-94768154D01*
X150011703Y-94770059D01*
X149957784Y-94775773D01*
X149900934Y-94785297D01*
X149897857Y-94840901D01*
X149894890Y-94875681D01*
X149889505Y-94929473D01*
X149928187Y-94915681D01*
X149963352Y-94906835D01*
X150020934Y-94900462D01*
X150077857Y-94913209D01*
X150100495Y-94944857D01*
X150096978Y-94962000D01*
X150083791Y-94981560D01*
X150058297Y-95006176D01*
X150008626Y-95045956D01*
X149976978Y-95071011D01*
X149946648Y-95098703D01*
X149918516Y-95130791D01*
X149900275Y-95159802D01*
X149890824Y-95186396D01*
X149887747Y-95215187D01*
X147823278Y-95215187D01*
X147823278Y-94571670D01*
X147898297Y-94571670D01*
X147907967Y-94704418D01*
X147983816Y-94703929D01*
X148057222Y-94703636D01*
X148128187Y-94703538D01*
X148196758Y-94703593D01*
X148260934Y-94703758D01*
X148320714Y-94704033D01*
X148376099Y-94704418D01*
X148369457Y-94639509D01*
X148364182Y-94583099D01*
X148363250Y-94571670D01*
X148425769Y-94571670D01*
X148435440Y-94704418D01*
X148511288Y-94703929D01*
X148584695Y-94703636D01*
X148655659Y-94703538D01*
X148724231Y-94703593D01*
X148788407Y-94703758D01*
X148848187Y-94704033D01*
X148903571Y-94704418D01*
X148945330Y-94704418D01*
X149006429Y-94703758D01*
X149037637Y-94703538D01*
X149083242Y-94703758D01*
X149146209Y-94704418D01*
X149161007Y-94653233D01*
X149179615Y-94596383D01*
X149202033Y-94533868D01*
X149423571Y-94533868D01*
X149449359Y-94587201D01*
X149475733Y-94644051D01*
X149502692Y-94704418D01*
X149568626Y-94703758D01*
X149602912Y-94703538D01*
X149646538Y-94703758D01*
X149710604Y-94704418D01*
X149674121Y-94641121D01*
X149446868Y-94212989D01*
X149422692Y-94165077D01*
X149393242Y-94104418D01*
X149888626Y-94104418D01*
X149891264Y-94147055D01*
X149893681Y-94203758D01*
X149894341Y-94237604D01*
X149953388Y-94235162D01*
X150005110Y-94233697D01*
X150049505Y-94233209D01*
X150080275Y-94233209D01*
X150086099Y-94308044D01*
X150090385Y-94376945D01*
X150093364Y-94439338D01*
X150095855Y-94500510D01*
X150097857Y-94560462D01*
X150099835Y-94640956D01*
X150100495Y-94704418D01*
X150159835Y-94703758D01*
X150193681Y-94703538D01*
X150228407Y-94703758D01*
X150294780Y-94704418D01*
X150288860Y-94642502D01*
X150283657Y-94578829D01*
X150279171Y-94513397D01*
X150275404Y-94446207D01*
X150272354Y-94377259D01*
X150270021Y-94306553D01*
X150269053Y-94263099D01*
X150496099Y-94263099D01*
X150503571Y-94318264D01*
X150527088Y-94366615D01*
X150567527Y-94405736D01*
X150596813Y-94422385D01*
X150635879Y-94439363D01*
X150613022Y-94495187D01*
X150592363Y-94542659D01*
X150533462Y-94671451D01*
X150519396Y-94704418D01*
X150580055Y-94703758D01*
X150616978Y-94703538D01*
X150658736Y-94703758D01*
X150720714Y-94704418D01*
X150730604Y-94671780D01*
X150746209Y-94619582D01*
X150758956Y-94579582D01*
X150772033Y-94542110D01*
X150790165Y-94492110D01*
X150835440Y-94367714D01*
X150788846Y-94372110D01*
X150730604Y-94362440D01*
X150691044Y-94332549D01*
X150677637Y-94289912D01*
X150687747Y-94256725D01*
X150719615Y-94235407D01*
X150786648Y-94228374D01*
X150818516Y-94229033D01*
X150856978Y-94230132D01*
X150860641Y-94294601D01*
X150864011Y-94367861D01*
X150867088Y-94449912D01*
X150869093Y-94514445D01*
X150870714Y-94578374D01*
X150871951Y-94641698D01*
X150872802Y-94704418D01*
X150933352Y-94703758D01*
X150968187Y-94703538D01*
X151003901Y-94703758D01*
X151060055Y-94704418D01*
X151052582Y-94630901D01*
X151046868Y-94565077D01*
X151042363Y-94498154D01*
X151038516Y-94421341D01*
X151037393Y-94392330D01*
X151129505Y-94392330D01*
X151136154Y-94463154D01*
X151156099Y-94527934D01*
X151188571Y-94585022D01*
X151232802Y-94632769D01*
X151287747Y-94670077D01*
X151352363Y-94695846D01*
X151423242Y-94710846D01*
X151496978Y-94715846D01*
X151569725Y-94710956D01*
X151639396Y-94696286D01*
X151703077Y-94670681D01*
X151757857Y-94632989D01*
X151800879Y-94586780D01*
X151829286Y-94535626D01*
X151845110Y-94479033D01*
X151850385Y-94416505D01*
X151845427Y-94354943D01*
X151830556Y-94298606D01*
X151805769Y-94247495D01*
X151771239Y-94202537D01*
X151727137Y-94164662D01*
X151673462Y-94133868D01*
X151612534Y-94111158D01*
X151579959Y-94104418D01*
X151922473Y-94104418D01*
X151928345Y-94190158D01*
X151933303Y-94266633D01*
X151937347Y-94333842D01*
X151940477Y-94391785D01*
X151942692Y-94440462D01*
X151944615Y-94498250D01*
X151945989Y-94561505D01*
X151946813Y-94630228D01*
X151947088Y-94704418D01*
X152042912Y-94703538D01*
X152079396Y-94703758D01*
X152145769Y-94704418D01*
X152140714Y-94649967D01*
X152136538Y-94591231D01*
X152133242Y-94528209D01*
X152130824Y-94460901D01*
X152370385Y-94460901D01*
X152377857Y-94704418D01*
X152479835Y-94703538D01*
X152513022Y-94703758D01*
X152573901Y-94704418D01*
X152562158Y-94540022D01*
X152662253Y-94540022D01*
X152666978Y-94578648D01*
X152681154Y-94615407D01*
X152704011Y-94648044D01*
X152734780Y-94674308D01*
X152771209Y-94693923D01*
X152811044Y-94706615D01*
X152853736Y-94713538D01*
X152898736Y-94715846D01*
X152950360Y-94713551D01*
X153010287Y-94706664D01*
X153078516Y-94695187D01*
X153082521Y-94636921D01*
X153086917Y-94586957D01*
X153091703Y-94545297D01*
X153045165Y-94563923D01*
X153004011Y-94575846D01*
X152936538Y-94584418D01*
X152875659Y-94573209D01*
X152853022Y-94540022D01*
X152855220Y-94525736D01*
X152863571Y-94510352D01*
X152881154Y-94491670D01*
X152963791Y-94419582D01*
X153004231Y-94383978D01*
X153040495Y-94342220D01*
X153059396Y-94302879D01*
X153065330Y-94260462D01*
X153055879Y-94207934D01*
X153027527Y-94159802D01*
X152977418Y-94121121D01*
X152910604Y-94098923D01*
X152837198Y-94092989D01*
X152786209Y-94094894D01*
X152732289Y-94100608D01*
X152675440Y-94110132D01*
X152672363Y-94165736D01*
X152669396Y-94200516D01*
X152664011Y-94254308D01*
X152702692Y-94240516D01*
X152737857Y-94231670D01*
X152795440Y-94225297D01*
X152852363Y-94238044D01*
X152875000Y-94269692D01*
X152871484Y-94286835D01*
X152858297Y-94306396D01*
X152832802Y-94331011D01*
X152783132Y-94370791D01*
X152751484Y-94395846D01*
X152721154Y-94423538D01*
X152693022Y-94455626D01*
X152674780Y-94484637D01*
X152665330Y-94511231D01*
X152662253Y-94540022D01*
X152562158Y-94540022D01*
X152556758Y-94464418D01*
X152548846Y-94289473D01*
X152546648Y-94211670D01*
X152545769Y-94146615D01*
X152546209Y-94104418D01*
X152485879Y-94105077D01*
X152442912Y-94105297D01*
X152406209Y-94105077D01*
X152349725Y-94104418D01*
X152355928Y-94185248D01*
X152360470Y-94259534D01*
X152363352Y-94327275D01*
X152124231Y-94326835D01*
X152122088Y-94284473D01*
X152120055Y-94229473D01*
X152118571Y-94177879D01*
X152118077Y-94145736D01*
X152118956Y-94104418D01*
X152014780Y-94105297D01*
X151983571Y-94105077D01*
X151922473Y-94104418D01*
X151579959Y-94104418D01*
X151546673Y-94097531D01*
X151475879Y-94092989D01*
X151406868Y-94097714D01*
X151340495Y-94111890D01*
X151279505Y-94136451D01*
X151226648Y-94172330D01*
X151184011Y-94217000D01*
X151153681Y-94267934D01*
X151135549Y-94326066D01*
X151129505Y-94392330D01*
X151037393Y-94392330D01*
X151036368Y-94365834D01*
X151034609Y-94308325D01*
X151033242Y-94248813D01*
X151031923Y-94167330D01*
X151031484Y-94104418D01*
X150981813Y-94105407D01*
X150942692Y-94105736D01*
X150903681Y-94105242D01*
X150856978Y-94103758D01*
X150807088Y-94102275D01*
X150758516Y-94101780D01*
X150705330Y-94102879D01*
X150658297Y-94106176D01*
X150598297Y-94118923D01*
X150552802Y-94142440D01*
X150522033Y-94173429D01*
X150502912Y-94213648D01*
X150496099Y-94263099D01*
X150269053Y-94263099D01*
X150268407Y-94234088D01*
X150455659Y-94238923D01*
X150453462Y-94190132D01*
X150451923Y-94149143D01*
X150450824Y-94104418D01*
X150385824Y-94104802D01*
X150315659Y-94105077D01*
X150240330Y-94105242D01*
X150159835Y-94105297D01*
X150051264Y-94104857D01*
X149945769Y-94104857D01*
X149888626Y-94104418D01*
X149393242Y-94104418D01*
X149326319Y-94105077D01*
X149280275Y-94105297D01*
X149220604Y-94105077D01*
X149165549Y-94104418D01*
X149101374Y-94287714D01*
X148970824Y-94640242D01*
X148945330Y-94704418D01*
X148903571Y-94704418D01*
X148896929Y-94639509D01*
X148891654Y-94583099D01*
X148887747Y-94535187D01*
X148883420Y-94475503D01*
X148879670Y-94416011D01*
X148876497Y-94356712D01*
X148873901Y-94297604D01*
X148871337Y-94223685D01*
X148869799Y-94159289D01*
X148869286Y-94104418D01*
X148812912Y-94105077D01*
X148763352Y-94105297D01*
X148725330Y-94105077D01*
X148673681Y-94104418D01*
X148684231Y-94263538D01*
X148697418Y-94512330D01*
X148699176Y-94573429D01*
X148636758Y-94574418D01*
X148600714Y-94574747D01*
X148529896Y-94574405D01*
X148471581Y-94573380D01*
X148425769Y-94571670D01*
X148363250Y-94571670D01*
X148360275Y-94535187D01*
X148355948Y-94475503D01*
X148352198Y-94416011D01*
X148349025Y-94356712D01*
X148346429Y-94297604D01*
X148343864Y-94223685D01*
X148342326Y-94159289D01*
X148341813Y-94104418D01*
X148285440Y-94105077D01*
X148235879Y-94105297D01*
X148197857Y-94105077D01*
X148146209Y-94104418D01*
X148156758Y-94263538D01*
X148169945Y-94512330D01*
X148171703Y-94573429D01*
X148109286Y-94574418D01*
X148073242Y-94574747D01*
X148002424Y-94574405D01*
X147944109Y-94573380D01*
X147898297Y-94571670D01*
X147823278Y-94571670D01*
X147823278Y-94017971D01*
X147898297Y-94017971D01*
X153091703Y-94017971D01*
X153166722Y-94017971D01*
X153166722Y-95466029D01*
G37*
G36*
X152213681Y-94906670D02*
G01*
X152256978Y-94925297D01*
X152293132Y-94954967D01*
X152319835Y-94994308D01*
X152336319Y-95040077D01*
X152341813Y-95089033D01*
X152336813Y-95133648D01*
X152321813Y-95174308D01*
X152296593Y-95208758D01*
X152260934Y-95234747D01*
X152218846Y-95251066D01*
X152174341Y-95256505D01*
X152127582Y-95250407D01*
X152084890Y-95232110D01*
X152049066Y-95202769D01*
X152022912Y-95163538D01*
X152006923Y-95118319D01*
X152001593Y-95071011D01*
X152006538Y-95025791D01*
X152021374Y-94984198D01*
X152045769Y-94948868D01*
X152079396Y-94922440D01*
X152120055Y-94905956D01*
X152165549Y-94900462D01*
X152213681Y-94906670D01*
G37*
G36*
X151531923Y-94231505D02*
G01*
X151575220Y-94250132D01*
X151611374Y-94279802D01*
X151638077Y-94319143D01*
X151654560Y-94364912D01*
X151660055Y-94413868D01*
X151655055Y-94458484D01*
X151640055Y-94499143D01*
X151614835Y-94533593D01*
X151579176Y-94559582D01*
X151537088Y-94575901D01*
X151492582Y-94581341D01*
X151445824Y-94575242D01*
X151403132Y-94556945D01*
X151367308Y-94527604D01*
X151341154Y-94488374D01*
X151325165Y-94443154D01*
X151319835Y-94395846D01*
X151324780Y-94350626D01*
X151339615Y-94309033D01*
X151364011Y-94273703D01*
X151397637Y-94247275D01*
X151438297Y-94230791D01*
X151483791Y-94225297D01*
X151531923Y-94231505D01*
G37*
G36*
X149316319Y-94293758D02*
G01*
X149338736Y-94340901D01*
X149370385Y-94405956D01*
X149233681Y-94405956D01*
X149262546Y-94317995D01*
X149281154Y-94260999D01*
X149289505Y-94234967D01*
X149316319Y-94293758D01*
G37*
D12*
%TO.C,U7*%
X156580500Y-86317500D02*
X156300500Y-86317500D01*
X156300500Y-86037500D01*
X156580500Y-86317500D01*
G36*
X156580500Y-86317500D02*
G01*
X156300500Y-86317500D01*
X156300500Y-86037500D01*
X156580500Y-86317500D01*
G37*
X153940500Y-86247500D02*
X155940500Y-86247500D01*
X153930500Y-88527500D02*
X155930500Y-88527500D01*
%TO.C,C7*%
X146687000Y-80912580D02*
X146687000Y-80631420D01*
X145667000Y-80912580D02*
X145667000Y-80631420D01*
%TO.C,R7*%
X146892742Y-88406500D02*
X147367258Y-88406500D01*
X146892742Y-87361500D02*
X147367258Y-87361500D01*
%TO.C,R11*%
X141746500Y-96181142D02*
X141746500Y-96655658D01*
X140701500Y-96181142D02*
X140701500Y-96655658D01*
%TO.C,J6*%
D14*
X139896500Y-98536000D02*
G75*
G02*
X139725310Y-98536000I-85595J0D01*
G01*
X139725310Y-98536000D02*
G75*
G02*
X139896500Y-98536000I85595J0D01*
G01*
D12*
X139610905Y-96536000D02*
X137610905Y-96536000D01*
X139610905Y-96336000D02*
X139610905Y-96736000D01*
X139610905Y-94536000D02*
X137610905Y-94536000D01*
X139610905Y-94336000D02*
X139610905Y-94736000D01*
X139610905Y-92736000D02*
X139610905Y-92936000D01*
X139610905Y-92736000D02*
X139410905Y-92736000D01*
X137810905Y-92736000D02*
X137610905Y-92736000D01*
X137610905Y-98336000D02*
X137810905Y-98336000D01*
X137610905Y-98336000D02*
X137610905Y-98136000D01*
X137610905Y-96336000D02*
X137610905Y-96736000D01*
X137610905Y-94336000D02*
X137610905Y-94736000D01*
X137610905Y-92736000D02*
X137610905Y-92936000D01*
%TO.C,C19*%
X152275000Y-79515580D02*
X152275000Y-79234420D01*
X151255000Y-79515580D02*
X151255000Y-79234420D01*
%TO.C,J7*%
D14*
X143601500Y-98822096D02*
G75*
G02*
X143430310Y-98822096I-85595J0D01*
G01*
X143430310Y-98822096D02*
G75*
G02*
X143601500Y-98822096I85595J0D01*
G01*
D12*
X143315905Y-101022096D02*
X143315905Y-100822096D01*
X143315905Y-101022096D02*
X143115905Y-101022096D01*
X141515905Y-99022096D02*
X141515905Y-101022096D01*
X141315905Y-101022096D02*
X141715905Y-101022096D01*
X141315905Y-99022096D02*
X141715905Y-99022096D01*
X139515905Y-99022096D02*
X139515905Y-101022096D01*
X139315905Y-101022096D02*
X139715905Y-101022096D01*
X139315905Y-99022096D02*
X139715905Y-99022096D01*
X137715905Y-101022096D02*
X137915905Y-101022096D01*
X137715905Y-100822096D02*
X137715905Y-101022096D01*
X137715905Y-99022096D02*
X137915905Y-99022096D01*
X137715905Y-99022096D02*
X137715905Y-99222096D01*
D13*
%TO.C,kibuzzard-667D9FB5*%
G36*
X159317202Y-83752316D02*
G01*
X159360968Y-83758808D01*
X159403887Y-83769559D01*
X159445545Y-83784465D01*
X159485542Y-83803382D01*
X159523492Y-83826128D01*
X159559030Y-83852485D01*
X159591813Y-83882198D01*
X159621526Y-83914981D01*
X159647883Y-83950519D01*
X159670629Y-83988469D01*
X159689546Y-84028465D01*
X159704452Y-84070124D01*
X159715202Y-84113043D01*
X159721694Y-84156809D01*
X159723865Y-84201000D01*
X159721694Y-84245191D01*
X159715202Y-84288957D01*
X159704452Y-84331876D01*
X159689546Y-84373535D01*
X159670629Y-84413531D01*
X159647883Y-84451481D01*
X159621526Y-84487019D01*
X159591813Y-84519802D01*
X159559030Y-84549515D01*
X159523492Y-84575872D01*
X159485542Y-84598618D01*
X159445545Y-84617535D01*
X159403887Y-84632441D01*
X159360968Y-84643192D01*
X159317202Y-84649684D01*
X159273011Y-84651855D01*
X159272923Y-84651855D01*
X158039077Y-84651855D01*
X157719077Y-84651855D01*
X157718989Y-84651855D01*
X157674798Y-84649684D01*
X157631032Y-84643192D01*
X157588113Y-84632441D01*
X157546455Y-84617535D01*
X157506458Y-84598618D01*
X157468508Y-84575872D01*
X157432970Y-84549515D01*
X157400187Y-84519802D01*
X157370474Y-84487019D01*
X157344117Y-84451481D01*
X157321371Y-84413531D01*
X157302454Y-84373535D01*
X157287548Y-84331876D01*
X157276798Y-84288957D01*
X157270306Y-84245191D01*
X157268135Y-84201000D01*
X157270306Y-84156809D01*
X157276798Y-84113043D01*
X157287548Y-84070124D01*
X157302454Y-84028465D01*
X157310714Y-84011000D01*
X157719077Y-84011000D01*
X157726000Y-84061256D01*
X157747282Y-84106128D01*
X157781128Y-84142795D01*
X157819077Y-84168436D01*
X157868308Y-84190487D01*
X157817795Y-84204333D01*
X157781128Y-84225103D01*
X157749846Y-84256897D01*
X157730872Y-84297667D01*
X157724718Y-84345872D01*
X157730551Y-84394718D01*
X157748051Y-84439718D01*
X157776897Y-84479141D01*
X157816769Y-84511256D01*
X157865487Y-84535679D01*
X157920872Y-84552026D01*
X157979782Y-84561256D01*
X158039077Y-84564333D01*
X158095680Y-84562859D01*
X158149590Y-84558436D01*
X158207603Y-84550167D01*
X158276513Y-84537154D01*
X158283180Y-84443692D01*
X158289846Y-84371513D01*
X158216057Y-84392880D01*
X158147168Y-84405701D01*
X158083180Y-84409974D01*
X158031705Y-84404269D01*
X157991128Y-84387154D01*
X157956000Y-84325872D01*
X157991641Y-84271000D01*
X158037218Y-84257923D01*
X158102667Y-84253564D01*
X158149333Y-84254974D01*
X158191897Y-84259205D01*
X158185359Y-84179846D01*
X158180103Y-84101769D01*
X158102667Y-84108436D01*
X158026000Y-84102538D01*
X157979590Y-84079462D01*
X157963692Y-84042282D01*
X157976256Y-84009974D01*
X158013949Y-83989718D01*
X158076513Y-83983821D01*
X158145231Y-83987410D01*
X158188180Y-83993308D01*
X158244205Y-84003821D01*
X158218564Y-83884846D01*
X158212410Y-83851000D01*
X158398564Y-83851000D01*
X158403019Y-83934365D01*
X158406641Y-84011641D01*
X158409430Y-84082827D01*
X158411385Y-84147923D01*
X158414301Y-84259974D01*
X158416385Y-84353051D01*
X158417635Y-84427154D01*
X158418051Y-84482282D01*
X158417026Y-84551000D01*
X158474590Y-84550231D01*
X158511897Y-84549974D01*
X158555872Y-84550231D01*
X158608821Y-84551000D01*
X158605858Y-84506071D01*
X158602439Y-84432823D01*
X158598564Y-84331256D01*
X158595145Y-84229462D01*
X158593094Y-84155530D01*
X158592410Y-84109462D01*
X158593436Y-84051000D01*
X158660615Y-84259718D01*
X158757026Y-84551000D01*
X158813308Y-84550231D01*
X158848821Y-84549974D01*
X158889077Y-84550231D01*
X158946256Y-84551000D01*
X159009333Y-84268949D01*
X159046256Y-84118692D01*
X159050872Y-84097154D01*
X159059077Y-84052026D01*
X159071897Y-84194077D01*
X159088821Y-84485359D01*
X159090359Y-84551000D01*
X159148308Y-84550231D01*
X159180615Y-84549974D01*
X159217026Y-84550231D01*
X159272923Y-84551000D01*
X159260103Y-84447410D01*
X159228308Y-84087923D01*
X159212410Y-83851000D01*
X159128180Y-83851769D01*
X159064205Y-83852026D01*
X159007795Y-83851769D01*
X158927795Y-83851000D01*
X158916513Y-83917923D01*
X158908500Y-83951641D01*
X158893692Y-84007154D01*
X158877282Y-84069077D01*
X158864462Y-84122026D01*
X158850680Y-84187731D01*
X158831385Y-84287923D01*
X158809846Y-84213051D01*
X158790359Y-84149462D01*
X158769590Y-84087538D01*
X158744205Y-84017667D01*
X158721577Y-83956577D01*
X158709077Y-83921000D01*
X158688821Y-83851000D01*
X158612667Y-83851769D01*
X158538051Y-83852026D01*
X158478051Y-83851769D01*
X158398564Y-83851000D01*
X158212410Y-83851000D01*
X158140274Y-83843593D01*
X158072239Y-83839148D01*
X158008308Y-83837667D01*
X157948949Y-83839718D01*
X157891897Y-83845872D01*
X157840038Y-83857474D01*
X157796256Y-83875872D01*
X157737795Y-83932538D01*
X157719077Y-84011000D01*
X157310714Y-84011000D01*
X157321371Y-83988469D01*
X157344117Y-83950519D01*
X157370474Y-83914981D01*
X157400187Y-83882198D01*
X157432970Y-83852485D01*
X157468508Y-83826128D01*
X157506458Y-83803382D01*
X157546455Y-83784465D01*
X157588113Y-83769559D01*
X157631032Y-83758808D01*
X157674798Y-83752316D01*
X157718989Y-83750145D01*
X157719077Y-83750145D01*
X159272923Y-83750145D01*
X159273011Y-83750145D01*
X159317202Y-83752316D01*
G37*
D12*
%TO.C,J2*%
X138906500Y-79060500D02*
G75*
G02*
X138506500Y-79060500I-200000J0D01*
G01*
X138506500Y-79060500D02*
G75*
G02*
X138906500Y-79060500I200000J0D01*
G01*
X142506500Y-78860500D02*
X142506500Y-78660500D01*
X142506500Y-78860500D02*
X142306500Y-78860500D01*
X142506500Y-77060500D02*
X142506500Y-76860500D01*
X142506500Y-76860500D02*
X142306500Y-76860500D01*
X140906500Y-78860500D02*
X140506500Y-78860500D01*
X140906500Y-76860500D02*
X140506500Y-76860500D01*
X140706500Y-78860500D02*
X140706500Y-76860500D01*
X138906500Y-76860500D02*
X139106500Y-76860500D01*
X138906500Y-76860500D02*
X138906500Y-77060500D01*
%TO.C,C23*%
X141734000Y-87287980D02*
X141734000Y-87006820D01*
X140714000Y-87287980D02*
X140714000Y-87006820D01*
%TO.C,C17*%
X143523580Y-85346000D02*
X143242420Y-85346000D01*
X143523580Y-84326000D02*
X143242420Y-84326000D01*
D13*
%TO.C,kibuzzard-667D9F91*%
G36*
X148408855Y-96456188D02*
G01*
X148142342Y-96456188D01*
X148054821Y-96456188D01*
X147011231Y-96456188D01*
X145927641Y-96456188D01*
X145569179Y-96456188D01*
X145481658Y-96456188D01*
X145215145Y-96456188D01*
X145315555Y-96121487D01*
X145569179Y-96121487D01*
X145576359Y-96176295D01*
X145597897Y-96228923D01*
X145631936Y-96275205D01*
X145676615Y-96310974D01*
X145730590Y-96337256D01*
X145792513Y-96355077D01*
X145859244Y-96365269D01*
X145927641Y-96368667D01*
X145989692Y-96365333D01*
X146050205Y-96357897D01*
X146113282Y-96345077D01*
X146116872Y-96293282D01*
X146120205Y-96247641D01*
X146127128Y-96180974D01*
X146060405Y-96197783D01*
X146001772Y-96207869D01*
X145951231Y-96211231D01*
X145882256Y-96199436D01*
X145833795Y-96166103D01*
X145816872Y-96118923D01*
X145851487Y-96062256D01*
X145895910Y-96047833D01*
X145959949Y-96043026D01*
X146024308Y-96045333D01*
X146109692Y-96054821D01*
X146083538Y-95723538D01*
X146080462Y-95655333D01*
X146405590Y-95655333D01*
X146442000Y-95723937D01*
X146481487Y-95799835D01*
X146524051Y-95883026D01*
X146700974Y-96233795D01*
X146728154Y-96289821D01*
X146758410Y-96355333D01*
X146832256Y-96354564D01*
X146881487Y-96354308D01*
X146931103Y-96354564D01*
X147011231Y-96355333D01*
X147030205Y-96292769D01*
X147155333Y-95932256D01*
X147253795Y-95655333D01*
X147294821Y-95655333D01*
X147301672Y-95755364D01*
X147307456Y-95844585D01*
X147312174Y-95922995D01*
X147315826Y-95990595D01*
X147318410Y-96047385D01*
X147320654Y-96114804D01*
X147322256Y-96188603D01*
X147323218Y-96268779D01*
X147323538Y-96355333D01*
X147435333Y-96354308D01*
X147477897Y-96354564D01*
X147555333Y-96355333D01*
X147549436Y-96291808D01*
X147544564Y-96223282D01*
X147540718Y-96149756D01*
X147537897Y-96071231D01*
X147817385Y-96071231D01*
X147826103Y-96355333D01*
X147945077Y-96354308D01*
X147983795Y-96354564D01*
X148054821Y-96355333D01*
X148034821Y-96075333D01*
X148025590Y-95871231D01*
X148023026Y-95780462D01*
X148022000Y-95704564D01*
X148022513Y-95655333D01*
X147952128Y-95656103D01*
X147902000Y-95656359D01*
X147859179Y-95656103D01*
X147793282Y-95655333D01*
X147800519Y-95749635D01*
X147805818Y-95836302D01*
X147809179Y-95915333D01*
X147530205Y-95914821D01*
X147527705Y-95865397D01*
X147525333Y-95801231D01*
X147523603Y-95741038D01*
X147523026Y-95703538D01*
X147524051Y-95655333D01*
X147402513Y-95656359D01*
X147366103Y-95656103D01*
X147294821Y-95655333D01*
X147253795Y-95655333D01*
X147187897Y-95656103D01*
X147129692Y-95656359D01*
X147086872Y-95656103D01*
X147025077Y-95655333D01*
X147006615Y-95724564D01*
X146993282Y-95767769D01*
X146971744Y-95835846D01*
X146896359Y-96078410D01*
X146883795Y-96122128D01*
X146868667Y-96177385D01*
X146845077Y-96118410D01*
X146666103Y-95726615D01*
X146655590Y-95702000D01*
X146636872Y-95655333D01*
X146569821Y-95656103D01*
X146517385Y-95656359D01*
X146475333Y-95656103D01*
X146405590Y-95655333D01*
X146080462Y-95655333D01*
X145995732Y-95655903D01*
X145913168Y-95656245D01*
X145832769Y-95656359D01*
X145737840Y-95656245D01*
X145654080Y-95655903D01*
X145581487Y-95655333D01*
X145587128Y-95739949D01*
X145589692Y-95809692D01*
X145657897Y-95807128D01*
X145689692Y-95806615D01*
X145739436Y-95806615D01*
X145818410Y-95806103D01*
X145870718Y-95807128D01*
X145880974Y-95924564D01*
X145827641Y-95922000D01*
X145752385Y-95928346D01*
X145686615Y-95947385D01*
X145633795Y-95977833D01*
X145597385Y-96018410D01*
X145576231Y-96067000D01*
X145569179Y-96121487D01*
X145315555Y-96121487D01*
X145481658Y-95567812D01*
X145569179Y-95567812D01*
X148054821Y-95567812D01*
X148142342Y-95567812D01*
X148408855Y-96456188D01*
G37*
D12*
%TO.C,C28*%
X155043920Y-98565500D02*
X155325080Y-98565500D01*
X155043920Y-97545500D02*
X155325080Y-97545500D01*
%TO.C,C26*%
X155325080Y-90691500D02*
X155043920Y-90691500D01*
X155325080Y-89671500D02*
X155043920Y-89671500D01*
%TO.C,C24*%
X141734000Y-93510980D02*
X141734000Y-93229820D01*
X140714000Y-93510980D02*
X140714000Y-93229820D01*
D13*
%TO.C,kibuzzard-667D9F8D*%
G36*
X140204201Y-92855757D02*
G01*
X140247967Y-92862249D01*
X140290886Y-92873000D01*
X140332545Y-92887905D01*
X140372541Y-92906823D01*
X140410491Y-92929569D01*
X140446029Y-92955925D01*
X140478812Y-92985638D01*
X140508525Y-93018422D01*
X140534882Y-93053959D01*
X140557628Y-93091909D01*
X140576545Y-93131906D01*
X140591451Y-93173565D01*
X140602202Y-93216483D01*
X140608694Y-93260249D01*
X140610865Y-93304441D01*
X140610865Y-93304528D01*
X140610865Y-97677862D01*
X140610865Y-97677949D01*
X140608694Y-97722141D01*
X140602202Y-97765907D01*
X140591451Y-97808825D01*
X140576545Y-97850484D01*
X140557628Y-97890481D01*
X140534882Y-97928431D01*
X140508525Y-97963968D01*
X140478812Y-97996752D01*
X140446029Y-98026465D01*
X140410491Y-98052821D01*
X140372541Y-98075568D01*
X140332545Y-98094485D01*
X140290886Y-98109390D01*
X140247967Y-98120141D01*
X140204201Y-98126633D01*
X140160010Y-98128804D01*
X140115819Y-98126633D01*
X140072053Y-98120141D01*
X140029134Y-98109390D01*
X139987475Y-98094485D01*
X139947479Y-98075568D01*
X139909529Y-98052821D01*
X139873991Y-98026465D01*
X139841208Y-97996752D01*
X139811495Y-97963968D01*
X139785138Y-97928431D01*
X139762392Y-97890481D01*
X139743475Y-97850484D01*
X139728569Y-97808825D01*
X139717818Y-97765907D01*
X139711326Y-97722141D01*
X139709155Y-97677949D01*
X139709155Y-97677862D01*
X139709155Y-97460939D01*
X139874625Y-97460939D01*
X140108472Y-97448118D01*
X140107959Y-97570682D01*
X140106933Y-97677862D01*
X140166036Y-97673631D01*
X140234625Y-97671195D01*
X140233600Y-97551708D01*
X140233087Y-97441451D01*
X140466420Y-97431708D01*
X140465395Y-97365041D01*
X140466420Y-97298375D01*
X140233087Y-97311708D01*
X140233600Y-97172733D01*
X140234625Y-97080939D01*
X140175523Y-97084913D01*
X140106933Y-97087605D01*
X140107446Y-97178887D01*
X140108472Y-97317862D01*
X140069269Y-97319628D01*
X139991321Y-97322876D01*
X139874625Y-97327605D01*
X139876164Y-97394272D01*
X139874625Y-97460939D01*
X139709155Y-97460939D01*
X139709155Y-97327605D01*
X139709155Y-96726067D01*
X139709155Y-96517349D01*
X139810010Y-96517349D01*
X139811036Y-96619400D01*
X139810779Y-96656836D01*
X139810010Y-96726067D01*
X139941292Y-96715810D01*
X140197702Y-96702477D01*
X140379241Y-96696836D01*
X140437702Y-96696323D01*
X140510010Y-96696836D01*
X140508856Y-96635810D01*
X140508472Y-96588118D01*
X140509048Y-96541323D01*
X140510779Y-96479913D01*
X140512510Y-96416451D01*
X140513087Y-96363503D01*
X140510907Y-96303695D01*
X140504369Y-96261708D01*
X140476933Y-96201964D01*
X140433087Y-96157862D01*
X140375907Y-96131708D01*
X140310523Y-96122990D01*
X140244754Y-96131323D01*
X140184882Y-96156323D01*
X140135138Y-96196451D01*
X140099754Y-96250169D01*
X140078600Y-96314400D01*
X140071548Y-96386067D01*
X140077702Y-96450169D01*
X140147959Y-96465554D01*
X140217189Y-96484016D01*
X140212574Y-96436836D01*
X140237446Y-96359657D01*
X140298215Y-96334272D01*
X140329241Y-96339913D01*
X140351548Y-96357862D01*
X140362831Y-96385041D01*
X140365395Y-96418887D01*
X140364369Y-96457349D01*
X140361292Y-96500426D01*
X140292859Y-96504528D01*
X140219526Y-96507947D01*
X140141292Y-96510682D01*
X140042061Y-96513599D01*
X139964882Y-96515682D01*
X139909754Y-96516932D01*
X139876677Y-96517349D01*
X139810010Y-96517349D01*
X139709155Y-96517349D01*
X139709155Y-95658887D01*
X139796677Y-95658887D01*
X139802382Y-95743759D01*
X139819497Y-95825041D01*
X139849369Y-95899336D01*
X139893343Y-95963246D01*
X139947254Y-96013439D01*
X140006933Y-96046580D01*
X140072959Y-96065041D01*
X140145907Y-96071195D01*
X140217731Y-96065412D01*
X140283457Y-96048061D01*
X140343087Y-96019144D01*
X140395537Y-95978859D01*
X140439725Y-95927406D01*
X140475651Y-95864785D01*
X140502147Y-95793702D01*
X140518044Y-95716865D01*
X140523343Y-95634272D01*
X140517831Y-95553759D01*
X140501292Y-95476323D01*
X140472638Y-95405169D01*
X140430779Y-95343503D01*
X140378664Y-95293759D01*
X140319241Y-95258375D01*
X140251420Y-95237221D01*
X140174113Y-95230169D01*
X140091484Y-95237926D01*
X140015907Y-95261195D01*
X139949305Y-95299080D01*
X139893600Y-95350682D01*
X139850074Y-95414785D01*
X139820010Y-95490169D01*
X139802510Y-95572862D01*
X139796677Y-95658887D01*
X139709155Y-95658887D01*
X139709155Y-94992221D01*
X139709155Y-94765554D01*
X139810010Y-94765554D01*
X139810779Y-94834785D01*
X139811036Y-94874272D01*
X139810779Y-94914785D01*
X139810010Y-94992221D01*
X139882244Y-94985313D01*
X139956530Y-94979243D01*
X140032867Y-94974010D01*
X140111255Y-94969615D01*
X140191695Y-94966056D01*
X140274186Y-94963335D01*
X140358728Y-94961451D01*
X140353087Y-95179913D01*
X140410010Y-95177349D01*
X140457831Y-95175554D01*
X140510010Y-95174272D01*
X140509561Y-95098439D01*
X140509241Y-95016580D01*
X140509048Y-94928695D01*
X140508984Y-94834785D01*
X140509497Y-94708118D01*
X140509497Y-94585041D01*
X140510010Y-94518375D01*
X140460266Y-94521451D01*
X140394113Y-94524272D01*
X140354625Y-94525041D01*
X140357474Y-94593930D01*
X140359184Y-94654272D01*
X140359754Y-94706067D01*
X140359754Y-94741964D01*
X140272446Y-94748759D01*
X140192061Y-94753759D01*
X140119269Y-94757235D01*
X140047902Y-94760141D01*
X139977959Y-94762477D01*
X139884048Y-94764785D01*
X139810010Y-94765554D01*
X139709155Y-94765554D01*
X139709155Y-94275810D01*
X139709155Y-94048631D01*
X139810010Y-94048631D01*
X139810779Y-94096964D01*
X139811036Y-94154785D01*
X139810779Y-94221451D01*
X139810010Y-94275810D01*
X139873885Y-94270967D01*
X139959526Y-94265326D01*
X140066933Y-94258887D01*
X140173999Y-94253018D01*
X140258614Y-94249087D01*
X140320779Y-94247092D01*
X140297446Y-94284016D01*
X140278023Y-94312477D01*
X140242831Y-94361964D01*
X140290202Y-94359016D01*
X140345138Y-94356323D01*
X140431548Y-94353759D01*
X140466933Y-94294528D01*
X140492831Y-94254016D01*
X140510010Y-94231708D01*
X140509241Y-94182605D01*
X140508984Y-94126580D01*
X140509241Y-94069528D01*
X140510010Y-94011195D01*
X140395651Y-94021451D01*
X140016164Y-94043503D01*
X139876677Y-94048631D01*
X139810010Y-94048631D01*
X139709155Y-94048631D01*
X139709155Y-93587605D01*
X139709155Y-93312221D01*
X140011548Y-93312221D01*
X140012702Y-93383118D01*
X140013087Y-93450169D01*
X140012702Y-93517092D01*
X140011548Y-93587605D01*
X140084241Y-93582605D01*
X140153600Y-93579913D01*
X140152061Y-93509144D01*
X140151548Y-93442477D01*
X140152061Y-93375169D01*
X140153600Y-93304528D01*
X140085010Y-93309528D01*
X140011548Y-93312221D01*
X139709155Y-93312221D01*
X139709155Y-93304528D01*
X139709155Y-93304441D01*
X139711326Y-93260249D01*
X139717818Y-93216483D01*
X139728569Y-93173565D01*
X139743475Y-93131906D01*
X139762392Y-93091909D01*
X139785138Y-93053959D01*
X139811495Y-93018422D01*
X139841208Y-92985638D01*
X139873991Y-92955925D01*
X139909529Y-92929569D01*
X139947479Y-92906823D01*
X139987475Y-92887905D01*
X140029134Y-92873000D01*
X140072053Y-92862249D01*
X140115819Y-92855757D01*
X140160010Y-92853586D01*
X140204201Y-92855757D01*
G37*
G36*
X140222766Y-95457990D02*
G01*
X140271292Y-95475298D01*
X140312510Y-95503759D01*
X140343343Y-95542990D01*
X140362574Y-95590426D01*
X140368984Y-95643503D01*
X140361741Y-95699657D01*
X140340010Y-95750169D01*
X140305395Y-95792349D01*
X140259497Y-95823503D01*
X140206100Y-95842733D01*
X140148984Y-95849144D01*
X140096933Y-95843310D01*
X140049497Y-95825810D01*
X140009305Y-95796387D01*
X139978984Y-95754785D01*
X139959946Y-95705682D01*
X139953600Y-95653759D01*
X139960715Y-95599208D01*
X139982061Y-95549400D01*
X140016292Y-95507605D01*
X140062061Y-95477092D01*
X140114818Y-95458439D01*
X140170010Y-95452221D01*
X140222766Y-95457990D01*
G37*
%TO.C,kibuzzard-667D9F7E*%
G36*
X147618191Y-76815203D02*
G01*
X147661957Y-76821695D01*
X147704876Y-76832446D01*
X147746535Y-76847351D01*
X147786531Y-76866269D01*
X147824481Y-76889015D01*
X147860019Y-76915371D01*
X147892802Y-76945084D01*
X147922515Y-76977868D01*
X147948872Y-77013405D01*
X147971618Y-77051355D01*
X147990535Y-77091352D01*
X148005441Y-77133011D01*
X148016192Y-77175929D01*
X148022684Y-77219695D01*
X148024855Y-77263887D01*
X148024855Y-77263974D01*
X148024855Y-78946026D01*
X148024855Y-78946113D01*
X148022684Y-78990305D01*
X148016192Y-79034071D01*
X148005441Y-79076989D01*
X147990535Y-79118648D01*
X147971618Y-79158645D01*
X147948872Y-79196595D01*
X147922515Y-79232132D01*
X147892802Y-79264916D01*
X147860019Y-79294629D01*
X147824481Y-79320985D01*
X147786531Y-79343731D01*
X147746535Y-79362649D01*
X147704876Y-79377554D01*
X147661957Y-79388305D01*
X147618191Y-79394797D01*
X147574000Y-79396968D01*
X147529809Y-79394797D01*
X147486043Y-79388305D01*
X147443124Y-79377554D01*
X147401465Y-79362649D01*
X147361469Y-79343731D01*
X147323519Y-79320985D01*
X147287981Y-79294629D01*
X147255198Y-79264916D01*
X147225485Y-79232132D01*
X147199128Y-79196595D01*
X147176382Y-79158645D01*
X147157465Y-79118648D01*
X147142559Y-79076989D01*
X147131808Y-79034071D01*
X147125316Y-78990305D01*
X147123145Y-78946113D01*
X147123145Y-78946026D01*
X147123145Y-78720897D01*
X147210667Y-78720897D01*
X147213345Y-78781125D01*
X147221379Y-78851040D01*
X147234769Y-78930641D01*
X147302746Y-78935313D01*
X147361037Y-78940442D01*
X147409641Y-78946026D01*
X147387910Y-78891731D01*
X147374000Y-78843718D01*
X147364000Y-78765000D01*
X147377077Y-78693974D01*
X147415795Y-78667564D01*
X147432462Y-78670128D01*
X147450410Y-78679872D01*
X147472205Y-78700385D01*
X147556308Y-78796795D01*
X147597846Y-78843974D01*
X147646564Y-78886282D01*
X147692462Y-78908333D01*
X147741949Y-78915256D01*
X147803231Y-78904231D01*
X147859385Y-78871154D01*
X147904513Y-78812692D01*
X147930410Y-78734744D01*
X147937333Y-78649103D01*
X147935111Y-78589615D01*
X147928444Y-78526709D01*
X147917333Y-78460385D01*
X147852462Y-78456795D01*
X147811885Y-78453333D01*
X147749128Y-78447051D01*
X147765218Y-78492180D01*
X147775538Y-78533205D01*
X147782974Y-78600385D01*
X147768103Y-78666795D01*
X147731179Y-78693205D01*
X147711179Y-78689103D01*
X147688359Y-78673718D01*
X147659641Y-78643974D01*
X147613231Y-78586026D01*
X147584000Y-78549103D01*
X147551692Y-78513718D01*
X147514256Y-78480897D01*
X147480410Y-78459615D01*
X147449385Y-78448590D01*
X147415795Y-78445000D01*
X147370731Y-78450513D01*
X147327846Y-78467051D01*
X147289769Y-78493718D01*
X147259128Y-78529615D01*
X147236244Y-78572115D01*
X147221436Y-78618590D01*
X147213359Y-78668397D01*
X147210667Y-78720897D01*
X147123145Y-78720897D01*
X147123145Y-78206026D01*
X147123145Y-77494744D01*
X147224000Y-77494744D01*
X147224769Y-77566795D01*
X147225026Y-77629103D01*
X147224769Y-77692821D01*
X147224000Y-77762949D01*
X147294256Y-77774744D01*
X147538872Y-77819872D01*
X147584256Y-77826282D01*
X147656821Y-77834231D01*
X147577333Y-77852180D01*
X147523487Y-77866026D01*
X147224000Y-77948590D01*
X147224769Y-78019487D01*
X147225026Y-78077308D01*
X147224769Y-78136667D01*
X147224000Y-78206026D01*
X147318359Y-78223462D01*
X147358359Y-78231282D01*
X147411692Y-78242436D01*
X147794769Y-78326026D01*
X147924000Y-78356282D01*
X147923231Y-78297821D01*
X147922974Y-78251667D01*
X147923231Y-78202949D01*
X147924000Y-78147051D01*
X147851564Y-78134615D01*
X147801436Y-78125000D01*
X147594769Y-78081923D01*
X147520795Y-78067821D01*
X147432205Y-78052180D01*
X147504000Y-78035256D01*
X147740923Y-77974231D01*
X147924000Y-77932180D01*
X147923231Y-77867308D01*
X147922974Y-77813205D01*
X147923231Y-77757180D01*
X147924000Y-77694744D01*
X147708103Y-77662436D01*
X147433231Y-77617821D01*
X147508615Y-77597821D01*
X147548103Y-77586026D01*
X147627590Y-77560385D01*
X147824513Y-77497821D01*
X147924000Y-77468590D01*
X147923615Y-77411923D01*
X147923487Y-77366026D01*
X147923615Y-77317692D01*
X147924000Y-77263974D01*
X147328103Y-77462949D01*
X147224000Y-77494744D01*
X147123145Y-77494744D01*
X147123145Y-77263974D01*
X147123145Y-77263887D01*
X147125316Y-77219695D01*
X147131808Y-77175929D01*
X147142559Y-77133011D01*
X147157465Y-77091352D01*
X147176382Y-77051355D01*
X147199128Y-77013405D01*
X147225485Y-76977868D01*
X147255198Y-76945084D01*
X147287981Y-76915371D01*
X147323519Y-76889015D01*
X147361469Y-76866269D01*
X147401465Y-76847351D01*
X147443124Y-76832446D01*
X147486043Y-76821695D01*
X147529809Y-76815203D01*
X147574000Y-76813032D01*
X147618191Y-76815203D01*
G37*
D12*
%TO.C,C27*%
X155325080Y-84341500D02*
X155043920Y-84341500D01*
X155325080Y-83321500D02*
X155043920Y-83321500D01*
D13*
%TO.C,kibuzzard-667D9FA0*%
G36*
X151301191Y-96411408D02*
G01*
X151344957Y-96417900D01*
X151387876Y-96428651D01*
X151429535Y-96443557D01*
X151469531Y-96462474D01*
X151507481Y-96485220D01*
X151543019Y-96511577D01*
X151575802Y-96541290D01*
X151605515Y-96574073D01*
X151631872Y-96609611D01*
X151654618Y-96647561D01*
X151673535Y-96687557D01*
X151688441Y-96729216D01*
X151699192Y-96772135D01*
X151705684Y-96815901D01*
X151707855Y-96860092D01*
X151707855Y-96860180D01*
X151707855Y-101005821D01*
X151707855Y-101005908D01*
X151705684Y-101050100D01*
X151699192Y-101093865D01*
X151688441Y-101136784D01*
X151673535Y-101178443D01*
X151654618Y-101218439D01*
X151631872Y-101256389D01*
X151605515Y-101291927D01*
X151575802Y-101324710D01*
X151543019Y-101354423D01*
X151507481Y-101380780D01*
X151469531Y-101403526D01*
X151429535Y-101422443D01*
X151387876Y-101437349D01*
X151344957Y-101448100D01*
X151301191Y-101454592D01*
X151257000Y-101456763D01*
X151212809Y-101454592D01*
X151169043Y-101448100D01*
X151126124Y-101437349D01*
X151084465Y-101422443D01*
X151044469Y-101403526D01*
X151006519Y-101380780D01*
X150970981Y-101354423D01*
X150938198Y-101324710D01*
X150908485Y-101291927D01*
X150882128Y-101256389D01*
X150859382Y-101218439D01*
X150840465Y-101178443D01*
X150825559Y-101136784D01*
X150814808Y-101093865D01*
X150808316Y-101050100D01*
X150806145Y-101005908D01*
X150806145Y-101005821D01*
X150806145Y-100780692D01*
X150893667Y-100780692D01*
X150896345Y-100840920D01*
X150904379Y-100910835D01*
X150917769Y-100990436D01*
X150985746Y-100995108D01*
X151044037Y-101000237D01*
X151092641Y-101005821D01*
X151070910Y-100951526D01*
X151057000Y-100903513D01*
X151047000Y-100824795D01*
X151060077Y-100753769D01*
X151098795Y-100727359D01*
X151115462Y-100729923D01*
X151133410Y-100739667D01*
X151155205Y-100760180D01*
X151239308Y-100856590D01*
X151280846Y-100903769D01*
X151329564Y-100946077D01*
X151375462Y-100968128D01*
X151424949Y-100975051D01*
X151486231Y-100964026D01*
X151542385Y-100930949D01*
X151587513Y-100872487D01*
X151613410Y-100794538D01*
X151620333Y-100708897D01*
X151618111Y-100649410D01*
X151611444Y-100586504D01*
X151600333Y-100520180D01*
X151535462Y-100516590D01*
X151494885Y-100513128D01*
X151432128Y-100506846D01*
X151448218Y-100551974D01*
X151458538Y-100593000D01*
X151465974Y-100660180D01*
X151451103Y-100726590D01*
X151414179Y-100753000D01*
X151394179Y-100748897D01*
X151371359Y-100733513D01*
X151342641Y-100703769D01*
X151296231Y-100645821D01*
X151267000Y-100608897D01*
X151234692Y-100573513D01*
X151197256Y-100540692D01*
X151163410Y-100519410D01*
X151132385Y-100508385D01*
X151098795Y-100504795D01*
X151053731Y-100510308D01*
X151010846Y-100526846D01*
X150972769Y-100553513D01*
X150942128Y-100589410D01*
X150919244Y-100631910D01*
X150904436Y-100678385D01*
X150896359Y-100728192D01*
X150893667Y-100780692D01*
X150806145Y-100780692D01*
X150806145Y-100404282D01*
X150806145Y-99831462D01*
X150907000Y-99831462D01*
X150907449Y-99895532D01*
X150907769Y-99962615D01*
X150907962Y-100032712D01*
X150908026Y-100105821D01*
X150907513Y-100331462D01*
X150907000Y-100404282D01*
X150990419Y-100396504D01*
X151064265Y-100390265D01*
X151128538Y-100385564D01*
X151194550Y-100381633D01*
X151273610Y-100377701D01*
X151365718Y-100373769D01*
X151453268Y-100370493D01*
X151518652Y-100368527D01*
X151561872Y-100367872D01*
X151607000Y-100368385D01*
X151606551Y-100304699D01*
X151606231Y-100234667D01*
X151606038Y-100158288D01*
X151605974Y-100075564D01*
X151606038Y-99998673D01*
X151606231Y-99926462D01*
X151606551Y-99858930D01*
X151607000Y-99796077D01*
X151590077Y-99797103D01*
X151545462Y-99799667D01*
X151489564Y-99802744D01*
X151453154Y-99803769D01*
X151456231Y-99894795D01*
X151457256Y-99969923D01*
X151457192Y-100031782D01*
X151457000Y-100069667D01*
X151454692Y-100150436D01*
X151337256Y-100156590D01*
X151336103Y-100091077D01*
X151335718Y-100015564D01*
X151336615Y-99963000D01*
X151339308Y-99862744D01*
X151267385Y-99867744D01*
X151182897Y-99872487D01*
X151183667Y-99950949D01*
X151183923Y-100008897D01*
X151183026Y-100083897D01*
X151180333Y-100167359D01*
X151055718Y-100173513D01*
X151055718Y-100114538D01*
X151056103Y-100074410D01*
X151057256Y-100006333D01*
X151059821Y-99900180D01*
X151063923Y-99821205D01*
X150986744Y-99826846D01*
X150907000Y-99831462D01*
X150806145Y-99831462D01*
X150806145Y-99712487D01*
X150806145Y-99081718D01*
X150907000Y-99081718D01*
X150907769Y-99152487D01*
X150908026Y-99195564D01*
X150907769Y-99244282D01*
X150907000Y-99316590D01*
X150945077Y-99328128D01*
X151005974Y-99346333D01*
X151052641Y-99361205D01*
X151096359Y-99376462D01*
X151154692Y-99397615D01*
X151299821Y-99450436D01*
X151294692Y-99396077D01*
X151305974Y-99328128D01*
X151340846Y-99281974D01*
X151390590Y-99266333D01*
X151429308Y-99278128D01*
X151454179Y-99315308D01*
X151462385Y-99393513D01*
X151461615Y-99430692D01*
X151460333Y-99475564D01*
X151385120Y-99479838D01*
X151299650Y-99483769D01*
X151203923Y-99487359D01*
X151128635Y-99489699D01*
X151054051Y-99491590D01*
X150980173Y-99493032D01*
X150907000Y-99494026D01*
X150907769Y-99564667D01*
X150908026Y-99605308D01*
X150907769Y-99646974D01*
X150907000Y-99712487D01*
X150992769Y-99703769D01*
X151069564Y-99697103D01*
X151147641Y-99691846D01*
X151237256Y-99687359D01*
X151302014Y-99684852D01*
X151369108Y-99682801D01*
X151438538Y-99681205D01*
X151533603Y-99679667D01*
X151607000Y-99679154D01*
X151605846Y-99621205D01*
X151605462Y-99575564D01*
X151606038Y-99530051D01*
X151607769Y-99475564D01*
X151609500Y-99417359D01*
X151610077Y-99360692D01*
X151608795Y-99298641D01*
X151604949Y-99243769D01*
X151590077Y-99173769D01*
X151562641Y-99120692D01*
X151526487Y-99084795D01*
X151479564Y-99062487D01*
X151421872Y-99054538D01*
X151357513Y-99063256D01*
X151301103Y-99090692D01*
X151255462Y-99137872D01*
X151236038Y-99172038D01*
X151216231Y-99217615D01*
X151151103Y-99190949D01*
X151095718Y-99166846D01*
X150945462Y-99098128D01*
X150907000Y-99081718D01*
X150806145Y-99081718D01*
X150806145Y-98789410D01*
X150806145Y-98536590D01*
X150907000Y-98536590D01*
X150907769Y-98610436D01*
X150908026Y-98659667D01*
X150907769Y-98709282D01*
X150907000Y-98789410D01*
X150969564Y-98808385D01*
X151330077Y-98933513D01*
X151607000Y-99031974D01*
X151606231Y-98966077D01*
X151605974Y-98907872D01*
X151606231Y-98865051D01*
X151607000Y-98803256D01*
X151537769Y-98784795D01*
X151494564Y-98771462D01*
X151426487Y-98749923D01*
X151183923Y-98674538D01*
X151140205Y-98661974D01*
X151084949Y-98646846D01*
X151143923Y-98623256D01*
X151535718Y-98444282D01*
X151560333Y-98433769D01*
X151607000Y-98415051D01*
X151606231Y-98348000D01*
X151605974Y-98295564D01*
X151606231Y-98253513D01*
X151607000Y-98183769D01*
X151538396Y-98220180D01*
X151462499Y-98259667D01*
X151379308Y-98302231D01*
X151028538Y-98479154D01*
X150972513Y-98506333D01*
X150907000Y-98536590D01*
X150806145Y-98536590D01*
X150806145Y-97785308D01*
X150893667Y-97785308D01*
X150899372Y-97870180D01*
X150916487Y-97951462D01*
X150946359Y-98025756D01*
X150990333Y-98089667D01*
X151044244Y-98139859D01*
X151103923Y-98173000D01*
X151169949Y-98191462D01*
X151242897Y-98197615D01*
X151314721Y-98191832D01*
X151380447Y-98174482D01*
X151440077Y-98145564D01*
X151492527Y-98105279D01*
X151536715Y-98053826D01*
X151572641Y-97991205D01*
X151599137Y-97920123D01*
X151615034Y-97843285D01*
X151620333Y-97760692D01*
X151614821Y-97680180D01*
X151598282Y-97602744D01*
X151569628Y-97531590D01*
X151527769Y-97469923D01*
X151475654Y-97420180D01*
X151416231Y-97384795D01*
X151348410Y-97363641D01*
X151271103Y-97356590D01*
X151188474Y-97364346D01*
X151112897Y-97387615D01*
X151046295Y-97425500D01*
X150990590Y-97477103D01*
X150947064Y-97541205D01*
X150917000Y-97616590D01*
X150899500Y-97699282D01*
X150893667Y-97785308D01*
X150806145Y-97785308D01*
X150806145Y-97105821D01*
X150893667Y-97105821D01*
X150898795Y-97180436D01*
X150905846Y-97228962D01*
X150916744Y-97284795D01*
X150964179Y-97288897D01*
X151032641Y-97295564D01*
X151069564Y-97299667D01*
X151052577Y-97253385D01*
X151040590Y-97214026D01*
X151031103Y-97147872D01*
X151035718Y-97107103D01*
X151049051Y-97084282D01*
X151067000Y-97077103D01*
X151083154Y-97082487D01*
X151104949Y-97106846D01*
X151134308Y-97146397D01*
X151160846Y-97180949D01*
X151205462Y-97229154D01*
X151247513Y-97253769D01*
X151294179Y-97262231D01*
X151373667Y-97237872D01*
X151405526Y-97207744D01*
X151427256Y-97166077D01*
X151439756Y-97113449D01*
X151443923Y-97050436D01*
X151441872Y-96998527D01*
X151435718Y-96937843D01*
X151425462Y-96868385D01*
X151281359Y-96860180D01*
X151299821Y-96921077D01*
X151305974Y-96979667D01*
X151297769Y-97038385D01*
X151272641Y-97056590D01*
X151261872Y-97054538D01*
X151251103Y-97047103D01*
X151239564Y-97033769D01*
X151212128Y-96995051D01*
X151176744Y-96946846D01*
X151134949Y-96903000D01*
X151093923Y-96879923D01*
X151048026Y-96871974D01*
X150981103Y-96889667D01*
X150930077Y-96943000D01*
X150901615Y-97020180D01*
X150893667Y-97105821D01*
X150806145Y-97105821D01*
X150806145Y-96860180D01*
X150806145Y-96860092D01*
X150808316Y-96815901D01*
X150814808Y-96772135D01*
X150825559Y-96729216D01*
X150840465Y-96687557D01*
X150859382Y-96647561D01*
X150882128Y-96609611D01*
X150908485Y-96574073D01*
X150938198Y-96541290D01*
X150970981Y-96511577D01*
X151006519Y-96485220D01*
X151044469Y-96462474D01*
X151084465Y-96443557D01*
X151126124Y-96428651D01*
X151169043Y-96417900D01*
X151212809Y-96411408D01*
X151257000Y-96409237D01*
X151301191Y-96411408D01*
G37*
G36*
X151319756Y-97584410D02*
G01*
X151368282Y-97601718D01*
X151409500Y-97630180D01*
X151440333Y-97669410D01*
X151459564Y-97716846D01*
X151465974Y-97769923D01*
X151458731Y-97826077D01*
X151437000Y-97876590D01*
X151402385Y-97918769D01*
X151356487Y-97949923D01*
X151303090Y-97969154D01*
X151245974Y-97975564D01*
X151193923Y-97969731D01*
X151146487Y-97952231D01*
X151106295Y-97922808D01*
X151075974Y-97881205D01*
X151056936Y-97832103D01*
X151050590Y-97780180D01*
X151057705Y-97725628D01*
X151079051Y-97675821D01*
X151113282Y-97634026D01*
X151159051Y-97603513D01*
X151211808Y-97584859D01*
X151267000Y-97578641D01*
X151319756Y-97584410D01*
G37*
D12*
%TO.C,U1*%
X145429000Y-83282000D02*
X145099000Y-83522000D01*
X145099000Y-83042000D01*
X145429000Y-83282000D01*
G36*
X145429000Y-83282000D02*
G01*
X145099000Y-83522000D01*
X145099000Y-83042000D01*
X145429000Y-83282000D01*
G37*
X148499000Y-85382000D02*
X148499000Y-84582000D01*
X148499000Y-83782000D02*
X148499000Y-84582000D01*
X145379000Y-85382000D02*
X145379000Y-84582000D01*
X145379000Y-83782000D02*
X145379000Y-84582000D01*
%TO.C,J1*%
X142970500Y-79060500D02*
G75*
G02*
X142570500Y-79060500I-200000J0D01*
G01*
X142570500Y-79060500D02*
G75*
G02*
X142970500Y-79060500I200000J0D01*
G01*
X146570500Y-78860500D02*
X146570500Y-78660500D01*
X146570500Y-78860500D02*
X146370500Y-78860500D01*
X146570500Y-77060500D02*
X146570500Y-76860500D01*
X146570500Y-76860500D02*
X146370500Y-76860500D01*
X144970500Y-78860500D02*
X144570500Y-78860500D01*
X144970500Y-76860500D02*
X144570500Y-76860500D01*
X144770500Y-78860500D02*
X144770500Y-76860500D01*
X142970500Y-76860500D02*
X143170500Y-76860500D01*
X142970500Y-76860500D02*
X142970500Y-77060500D01*
%TO.C,C14*%
X144655000Y-86981420D02*
X144655000Y-87262580D01*
X143635000Y-86981420D02*
X143635000Y-87262580D01*
%TO.C,R6*%
X147367258Y-89930500D02*
X146892742Y-89930500D01*
X147367258Y-88885500D02*
X146892742Y-88885500D01*
%TO.C,J5*%
D14*
X139856500Y-92313000D02*
G75*
G02*
X139685310Y-92313000I-85595J0D01*
G01*
X139685310Y-92313000D02*
G75*
G02*
X139856500Y-92313000I85595J0D01*
G01*
D12*
X139570905Y-90313000D02*
X137570905Y-90313000D01*
X139570905Y-90113000D02*
X139570905Y-90513000D01*
X139570905Y-88313000D02*
X137570905Y-88313000D01*
X139570905Y-88113000D02*
X139570905Y-88513000D01*
X139570905Y-86513000D02*
X139570905Y-86713000D01*
X139570905Y-86513000D02*
X139370905Y-86513000D01*
X137770905Y-86513000D02*
X137570905Y-86513000D01*
X137570905Y-92113000D02*
X137770905Y-92113000D01*
X137570905Y-92113000D02*
X137570905Y-91913000D01*
X137570905Y-90113000D02*
X137570905Y-90513000D01*
X137570905Y-88113000D02*
X137570905Y-88513000D01*
X137570905Y-86513000D02*
X137570905Y-86713000D01*
%TO.C,C25*%
X155325080Y-97041500D02*
X155043920Y-97041500D01*
X155325080Y-96021500D02*
X155043920Y-96021500D01*
%TO.C,U5*%
X156580500Y-99017500D02*
X156300500Y-99017500D01*
X156300500Y-98737500D01*
X156580500Y-99017500D01*
G36*
X156580500Y-99017500D02*
G01*
X156300500Y-99017500D01*
X156300500Y-98737500D01*
X156580500Y-99017500D01*
G37*
X153940500Y-98947500D02*
X155940500Y-98947500D01*
X153930500Y-101227500D02*
X155930500Y-101227500D01*
%TO.C,R10*%
X141746500Y-89958142D02*
X141746500Y-90432658D01*
X140701500Y-89958142D02*
X140701500Y-90432658D01*
%TO.C,C30*%
X155043920Y-85865500D02*
X155325080Y-85865500D01*
X155043920Y-84845500D02*
X155325080Y-84845500D01*
%TO.C,J9*%
X157496000Y-97298000D02*
G75*
G02*
X157096000Y-97298000I-200000J0D01*
G01*
X157096000Y-97298000D02*
G75*
G02*
X157496000Y-97298000I200000J0D01*
G01*
X159496000Y-101098000D02*
X159496000Y-100898000D01*
X159496000Y-99498000D02*
X159496000Y-99098000D01*
X159496000Y-97498000D02*
X159496000Y-97698000D01*
X159496000Y-97498000D02*
X159296000Y-97498000D01*
X159296000Y-101098000D02*
X159496000Y-101098000D01*
X157496000Y-101098000D02*
X157696000Y-101098000D01*
X157496000Y-101098000D02*
X157496000Y-100898000D01*
X157496000Y-99498000D02*
X157496000Y-99098000D01*
X157496000Y-99298000D02*
X159496000Y-99298000D01*
%TO.C,C5*%
X143639000Y-80912580D02*
X143639000Y-80631420D01*
X142619000Y-80912580D02*
X142619000Y-80631420D01*
D13*
%TO.C,kibuzzard-667D9F87*%
G36*
X140164488Y-86680304D02*
G01*
X140208254Y-86686796D01*
X140251173Y-86697547D01*
X140292832Y-86712452D01*
X140332828Y-86731370D01*
X140370778Y-86754116D01*
X140406316Y-86780472D01*
X140439099Y-86810185D01*
X140468812Y-86842969D01*
X140495169Y-86878506D01*
X140517915Y-86916456D01*
X140536832Y-86956453D01*
X140551738Y-86998112D01*
X140562489Y-87041030D01*
X140568981Y-87084796D01*
X140571152Y-87128988D01*
X140571152Y-87129075D01*
X140571152Y-91502409D01*
X140571152Y-91502496D01*
X140568981Y-91546688D01*
X140562489Y-91590454D01*
X140551738Y-91633372D01*
X140536832Y-91675031D01*
X140517915Y-91715028D01*
X140495169Y-91752978D01*
X140468812Y-91788515D01*
X140439099Y-91821299D01*
X140406316Y-91851012D01*
X140370778Y-91877368D01*
X140332828Y-91900115D01*
X140292832Y-91919032D01*
X140251173Y-91933937D01*
X140208254Y-91944688D01*
X140164488Y-91951180D01*
X140120297Y-91953351D01*
X140076106Y-91951180D01*
X140032340Y-91944688D01*
X139989421Y-91933937D01*
X139947762Y-91919032D01*
X139907766Y-91900115D01*
X139869816Y-91877368D01*
X139834278Y-91851012D01*
X139801495Y-91821299D01*
X139771782Y-91788515D01*
X139745425Y-91752978D01*
X139722679Y-91715028D01*
X139703762Y-91675031D01*
X139688856Y-91633372D01*
X139678105Y-91590454D01*
X139671613Y-91546688D01*
X139669442Y-91502496D01*
X139669442Y-91502409D01*
X139669442Y-91285486D01*
X139834912Y-91285486D01*
X140068759Y-91272665D01*
X140068246Y-91395229D01*
X140067220Y-91502409D01*
X140126323Y-91498178D01*
X140194912Y-91495742D01*
X140193887Y-91376255D01*
X140193374Y-91265998D01*
X140426707Y-91256255D01*
X140425682Y-91189588D01*
X140426707Y-91122922D01*
X140193374Y-91136255D01*
X140193887Y-90997280D01*
X140194912Y-90905486D01*
X140135810Y-90909460D01*
X140067220Y-90912152D01*
X140067733Y-91003434D01*
X140068759Y-91142409D01*
X140029556Y-91144175D01*
X139951608Y-91147423D01*
X139834912Y-91152152D01*
X139836451Y-91218819D01*
X139834912Y-91285486D01*
X139669442Y-91285486D01*
X139669442Y-91152152D01*
X139669442Y-90550614D01*
X139669442Y-90341896D01*
X139770297Y-90341896D01*
X139771323Y-90443947D01*
X139771066Y-90481383D01*
X139770297Y-90550614D01*
X139901579Y-90540357D01*
X140157989Y-90527024D01*
X140339528Y-90521383D01*
X140397989Y-90520870D01*
X140470297Y-90521383D01*
X140469143Y-90460357D01*
X140468759Y-90412665D01*
X140469335Y-90365870D01*
X140471066Y-90304460D01*
X140472797Y-90240998D01*
X140473374Y-90188050D01*
X140471194Y-90128242D01*
X140464656Y-90086255D01*
X140437220Y-90026511D01*
X140393374Y-89982409D01*
X140336194Y-89956255D01*
X140270810Y-89947537D01*
X140205041Y-89955870D01*
X140145169Y-89980870D01*
X140095425Y-90020998D01*
X140060041Y-90074716D01*
X140038887Y-90138947D01*
X140031835Y-90210614D01*
X140037989Y-90274716D01*
X140108246Y-90290101D01*
X140177476Y-90308563D01*
X140172861Y-90261383D01*
X140197733Y-90184204D01*
X140258502Y-90158819D01*
X140289528Y-90164460D01*
X140311835Y-90182409D01*
X140323118Y-90209588D01*
X140325682Y-90243434D01*
X140324656Y-90281896D01*
X140321579Y-90324973D01*
X140253146Y-90329075D01*
X140179813Y-90332494D01*
X140101579Y-90335229D01*
X140002348Y-90338146D01*
X139925169Y-90340229D01*
X139870041Y-90341479D01*
X139836964Y-90341896D01*
X139770297Y-90341896D01*
X139669442Y-90341896D01*
X139669442Y-89483434D01*
X139756964Y-89483434D01*
X139762669Y-89568306D01*
X139779784Y-89649588D01*
X139809656Y-89723883D01*
X139853630Y-89787793D01*
X139907541Y-89837986D01*
X139967220Y-89871127D01*
X140033246Y-89889588D01*
X140106194Y-89895742D01*
X140178018Y-89889959D01*
X140243744Y-89872608D01*
X140303374Y-89843691D01*
X140355824Y-89803406D01*
X140400012Y-89751953D01*
X140435938Y-89689332D01*
X140462434Y-89618249D01*
X140478331Y-89541412D01*
X140483630Y-89458819D01*
X140478118Y-89378306D01*
X140461579Y-89300870D01*
X140432925Y-89229716D01*
X140391066Y-89168050D01*
X140338951Y-89118306D01*
X140279528Y-89082922D01*
X140211707Y-89061768D01*
X140134400Y-89054716D01*
X140051771Y-89062473D01*
X139976194Y-89085742D01*
X139909592Y-89123627D01*
X139853887Y-89175229D01*
X139810361Y-89239332D01*
X139780297Y-89314716D01*
X139762797Y-89397409D01*
X139756964Y-89483434D01*
X139669442Y-89483434D01*
X139669442Y-88816768D01*
X139669442Y-88590101D01*
X139770297Y-88590101D01*
X139771066Y-88659332D01*
X139771323Y-88698819D01*
X139771066Y-88739332D01*
X139770297Y-88816768D01*
X139842531Y-88809860D01*
X139916817Y-88803790D01*
X139993154Y-88798557D01*
X140071542Y-88794162D01*
X140151982Y-88790603D01*
X140234473Y-88787882D01*
X140319015Y-88785998D01*
X140313374Y-89004460D01*
X140370297Y-89001896D01*
X140418118Y-89000101D01*
X140470297Y-88998819D01*
X140469848Y-88922986D01*
X140469528Y-88841127D01*
X140469335Y-88753242D01*
X140469271Y-88659332D01*
X140469784Y-88532665D01*
X140469784Y-88409588D01*
X140470297Y-88342922D01*
X140420553Y-88345998D01*
X140354400Y-88348819D01*
X140314912Y-88349588D01*
X140317761Y-88418477D01*
X140319471Y-88478819D01*
X140320041Y-88530614D01*
X140320041Y-88566511D01*
X140232733Y-88573306D01*
X140152348Y-88578306D01*
X140079556Y-88581782D01*
X140008189Y-88584688D01*
X139938246Y-88587024D01*
X139844335Y-88589332D01*
X139770297Y-88590101D01*
X139669442Y-88590101D01*
X139669442Y-88317793D01*
X139669442Y-87765998D01*
X139770297Y-87765998D01*
X139770746Y-87830582D01*
X139771066Y-87896639D01*
X139771259Y-87964172D01*
X139771323Y-88033178D01*
X139771259Y-88114043D01*
X139771066Y-88188434D01*
X139770746Y-88256351D01*
X139770297Y-88317793D01*
X139834143Y-88314460D01*
X139915425Y-88311127D01*
X139958374Y-88259973D01*
X140000041Y-88213178D01*
X140043573Y-88166796D01*
X140085283Y-88124061D01*
X140125169Y-88084973D01*
X140169912Y-88043947D01*
X140210810Y-88010101D01*
X140249271Y-87987024D01*
X140271323Y-87982922D01*
X140297220Y-87989588D01*
X140315938Y-88010614D01*
X140328246Y-88045486D01*
X140332861Y-88092152D01*
X140326707Y-88167793D01*
X140317733Y-88214780D01*
X140303118Y-88276255D01*
X140376451Y-88262922D01*
X140461066Y-88249588D01*
X140473602Y-88161554D01*
X140481123Y-88077280D01*
X140483630Y-87996768D01*
X140481194Y-87944075D01*
X140473887Y-87893691D01*
X140460746Y-87847024D01*
X140440810Y-87805486D01*
X140386451Y-87747024D01*
X140319528Y-87727537D01*
X140272861Y-87733178D01*
X140221066Y-87754204D01*
X140184400Y-87775998D01*
X140148246Y-87802409D01*
X140093502Y-87848306D01*
X140036964Y-87900870D01*
X139999243Y-87938819D01*
X139958559Y-87981554D01*
X139914912Y-88029075D01*
X139914400Y-87972665D01*
X139915425Y-87893434D01*
X139917476Y-87811127D01*
X139922092Y-87754204D01*
X139860553Y-87759075D01*
X139819528Y-87762473D01*
X139770297Y-87765998D01*
X139669442Y-87765998D01*
X139669442Y-87412152D01*
X139669442Y-87136768D01*
X139971835Y-87136768D01*
X139972989Y-87207665D01*
X139973374Y-87274716D01*
X139972989Y-87341639D01*
X139971835Y-87412152D01*
X140044528Y-87407152D01*
X140113887Y-87404460D01*
X140112348Y-87333691D01*
X140111835Y-87267024D01*
X140112348Y-87199716D01*
X140113887Y-87129075D01*
X140045297Y-87134075D01*
X139971835Y-87136768D01*
X139669442Y-87136768D01*
X139669442Y-87129075D01*
X139669442Y-87128988D01*
X139671613Y-87084796D01*
X139678105Y-87041030D01*
X139688856Y-86998112D01*
X139703762Y-86956453D01*
X139722679Y-86916456D01*
X139745425Y-86878506D01*
X139771782Y-86842969D01*
X139801495Y-86810185D01*
X139834278Y-86780472D01*
X139869816Y-86754116D01*
X139907766Y-86731370D01*
X139947762Y-86712452D01*
X139989421Y-86697547D01*
X140032340Y-86686796D01*
X140076106Y-86680304D01*
X140120297Y-86678133D01*
X140164488Y-86680304D01*
G37*
G36*
X140183053Y-89282537D02*
G01*
X140231579Y-89299845D01*
X140272797Y-89328306D01*
X140303630Y-89367537D01*
X140322861Y-89414973D01*
X140329271Y-89468050D01*
X140322028Y-89524204D01*
X140300297Y-89574716D01*
X140265682Y-89616896D01*
X140219784Y-89648050D01*
X140166387Y-89667280D01*
X140109271Y-89673691D01*
X140057220Y-89667857D01*
X140009784Y-89650357D01*
X139969592Y-89620934D01*
X139939271Y-89579332D01*
X139920233Y-89530229D01*
X139913887Y-89478306D01*
X139921002Y-89423755D01*
X139942348Y-89373947D01*
X139976579Y-89332152D01*
X140022348Y-89301639D01*
X140075105Y-89282986D01*
X140130297Y-89276768D01*
X140183053Y-89282537D01*
G37*
D12*
%TO.C,C6*%
X145163000Y-80912580D02*
X145163000Y-80631420D01*
X144143000Y-80912580D02*
X144143000Y-80631420D01*
D13*
%TO.C,kibuzzard-667D9FA9*%
G36*
X159306059Y-96471886D02*
G01*
X159388135Y-96496783D01*
X159463777Y-96537214D01*
X159530077Y-96591626D01*
X159584489Y-96657926D01*
X159624920Y-96733568D01*
X159649817Y-96815644D01*
X159658224Y-96901000D01*
X159649817Y-96986356D01*
X159624920Y-97068432D01*
X159584489Y-97144074D01*
X159530077Y-97210374D01*
X159463777Y-97264786D01*
X159388135Y-97305217D01*
X159306059Y-97330114D01*
X159220703Y-97338521D01*
X159220615Y-97338521D01*
X158036000Y-97338521D01*
X157771385Y-97338521D01*
X157771297Y-97338521D01*
X157685941Y-97330115D01*
X157603865Y-97305217D01*
X157528223Y-97264786D01*
X157461923Y-97210374D01*
X157407511Y-97144074D01*
X157367080Y-97068432D01*
X157342183Y-96986356D01*
X157333776Y-96901000D01*
X157342183Y-96815644D01*
X157367080Y-96733568D01*
X157407511Y-96657926D01*
X157461923Y-96591626D01*
X157511425Y-96551000D01*
X157771385Y-96551000D01*
X157781641Y-96665359D01*
X157803692Y-97044846D01*
X157808821Y-97184333D01*
X157808821Y-97251000D01*
X157857154Y-97250231D01*
X157914974Y-97249974D01*
X157981641Y-97250231D01*
X158036000Y-97251000D01*
X158031157Y-97187125D01*
X158025516Y-97101484D01*
X158019077Y-96994077D01*
X158013208Y-96887011D01*
X158009276Y-96802396D01*
X158007282Y-96740231D01*
X158044205Y-96763564D01*
X158072667Y-96782987D01*
X158122154Y-96818179D01*
X158119205Y-96770808D01*
X158116513Y-96715872D01*
X158113949Y-96629462D01*
X158054718Y-96594077D01*
X158014205Y-96568179D01*
X157991898Y-96551000D01*
X158346256Y-96551000D01*
X158350712Y-96634365D01*
X158354333Y-96711641D01*
X158357122Y-96782827D01*
X158359077Y-96847923D01*
X158361994Y-96959974D01*
X158364077Y-97053051D01*
X158365327Y-97127154D01*
X158365744Y-97182282D01*
X158364718Y-97251000D01*
X158422282Y-97250231D01*
X158459590Y-97249974D01*
X158503564Y-97250231D01*
X158556513Y-97251000D01*
X158553550Y-97206071D01*
X158550131Y-97132823D01*
X158546256Y-97031256D01*
X158542838Y-96929462D01*
X158540786Y-96855530D01*
X158540103Y-96809462D01*
X158541128Y-96751000D01*
X158608308Y-96959718D01*
X158704718Y-97251000D01*
X158761000Y-97250231D01*
X158796513Y-97249974D01*
X158836769Y-97250231D01*
X158893949Y-97251000D01*
X158957026Y-96968949D01*
X158993949Y-96818692D01*
X158998564Y-96797154D01*
X159006769Y-96752026D01*
X159019590Y-96894077D01*
X159036513Y-97185359D01*
X159038051Y-97251000D01*
X159096000Y-97250231D01*
X159128308Y-97249974D01*
X159164718Y-97250231D01*
X159220615Y-97251000D01*
X159207795Y-97147410D01*
X159176000Y-96787923D01*
X159160103Y-96551000D01*
X159075872Y-96551769D01*
X159011898Y-96552026D01*
X158955487Y-96551769D01*
X158875487Y-96551000D01*
X158864205Y-96617923D01*
X158856192Y-96651641D01*
X158841385Y-96707154D01*
X158824974Y-96769077D01*
X158812154Y-96822026D01*
X158798372Y-96887731D01*
X158779077Y-96987923D01*
X158757539Y-96913051D01*
X158738051Y-96849462D01*
X158717282Y-96787538D01*
X158691898Y-96717667D01*
X158669269Y-96656577D01*
X158656769Y-96621000D01*
X158636513Y-96551000D01*
X158560359Y-96551769D01*
X158485744Y-96552026D01*
X158425744Y-96551769D01*
X158346256Y-96551000D01*
X157991898Y-96551000D01*
X157942795Y-96551769D01*
X157886769Y-96552026D01*
X157829718Y-96551769D01*
X157771385Y-96551000D01*
X157511425Y-96551000D01*
X157528223Y-96537214D01*
X157603865Y-96496783D01*
X157685941Y-96471885D01*
X157771297Y-96463479D01*
X157771385Y-96463479D01*
X159220615Y-96463479D01*
X159220703Y-96463479D01*
X159306059Y-96471886D01*
G37*
D12*
%TO.C,R9*%
X153074900Y-71416142D02*
X153074900Y-71890658D01*
X152029900Y-71416142D02*
X152029900Y-71890658D01*
%TO.C,C29*%
X155043920Y-92215500D02*
X155325080Y-92215500D01*
X155043920Y-91195500D02*
X155325080Y-91195500D01*
%TO.C,U6*%
X156580500Y-92667500D02*
X156300500Y-92667500D01*
X156300500Y-92387500D01*
X156580500Y-92667500D01*
G36*
X156580500Y-92667500D02*
G01*
X156300500Y-92667500D01*
X156300500Y-92387500D01*
X156580500Y-92667500D01*
G37*
X153940500Y-92597500D02*
X155940500Y-92597500D01*
X153930500Y-94877500D02*
X155930500Y-94877500D01*
%TO.C,D2*%
X156666200Y-79613000D02*
X152656200Y-79613000D01*
X156666200Y-77613000D02*
X152656200Y-77613000D01*
X152656200Y-77613000D02*
X152656200Y-79613000D01*
D13*
%TO.C,kibuzzard-667D9F7A*%
G36*
X137966191Y-76814536D02*
G01*
X138009957Y-76821029D01*
X138052876Y-76831779D01*
X138094535Y-76846685D01*
X138134531Y-76865602D01*
X138172481Y-76888348D01*
X138208019Y-76914705D01*
X138240802Y-76944418D01*
X138270515Y-76977201D01*
X138296872Y-77012739D01*
X138319618Y-77050689D01*
X138338535Y-77090686D01*
X138353441Y-77132344D01*
X138364192Y-77175263D01*
X138370684Y-77219029D01*
X138372855Y-77263220D01*
X138372855Y-77263308D01*
X138372855Y-78438692D01*
X138372855Y-78438780D01*
X138370684Y-78482971D01*
X138364192Y-78526737D01*
X138353441Y-78569656D01*
X138338535Y-78611314D01*
X138319618Y-78651311D01*
X138296872Y-78689261D01*
X138270515Y-78724799D01*
X138240802Y-78757582D01*
X138208019Y-78787295D01*
X138172481Y-78813652D01*
X138134531Y-78836398D01*
X138094535Y-78855315D01*
X138052876Y-78870221D01*
X138009957Y-78880971D01*
X137966191Y-78887464D01*
X137922000Y-78889634D01*
X137877809Y-78887464D01*
X137834043Y-78880971D01*
X137791124Y-78870221D01*
X137749465Y-78855315D01*
X137709469Y-78836398D01*
X137671519Y-78813652D01*
X137635981Y-78787295D01*
X137603198Y-78757582D01*
X137573485Y-78724799D01*
X137547128Y-78689261D01*
X137524382Y-78651311D01*
X137505465Y-78611314D01*
X137490559Y-78569656D01*
X137479808Y-78526737D01*
X137473316Y-78482971D01*
X137471145Y-78438780D01*
X137471145Y-78438692D01*
X137471145Y-77886897D01*
X137572000Y-77886897D01*
X137572449Y-77951481D01*
X137572769Y-78017538D01*
X137572962Y-78085071D01*
X137573026Y-78154077D01*
X137572962Y-78234942D01*
X137572769Y-78309333D01*
X137572449Y-78377250D01*
X137572000Y-78438692D01*
X137635846Y-78435359D01*
X137717128Y-78432026D01*
X137760077Y-78380872D01*
X137801744Y-78334077D01*
X137845276Y-78287695D01*
X137886986Y-78244960D01*
X137926872Y-78205872D01*
X137971615Y-78164846D01*
X138012513Y-78131000D01*
X138050974Y-78107923D01*
X138073026Y-78103821D01*
X138098923Y-78110487D01*
X138117641Y-78131513D01*
X138129949Y-78166385D01*
X138134564Y-78213051D01*
X138128410Y-78288692D01*
X138119436Y-78335680D01*
X138104821Y-78397154D01*
X138178154Y-78383821D01*
X138262769Y-78370487D01*
X138275305Y-78282453D01*
X138282826Y-78198180D01*
X138285333Y-78117667D01*
X138282897Y-78064974D01*
X138275590Y-78014590D01*
X138262449Y-77967923D01*
X138242513Y-77926385D01*
X138188154Y-77867923D01*
X138121231Y-77848436D01*
X138074564Y-77854077D01*
X138022769Y-77875103D01*
X137986103Y-77896897D01*
X137949949Y-77923308D01*
X137895205Y-77969205D01*
X137838667Y-78021769D01*
X137800946Y-78059718D01*
X137760262Y-78102453D01*
X137716615Y-78149974D01*
X137716103Y-78093564D01*
X137717128Y-78014333D01*
X137719179Y-77932026D01*
X137723795Y-77875103D01*
X137662256Y-77879974D01*
X137621231Y-77883372D01*
X137572000Y-77886897D01*
X137471145Y-77886897D01*
X137471145Y-77539205D01*
X137558667Y-77539205D01*
X137561345Y-77599433D01*
X137569379Y-77669348D01*
X137582769Y-77748949D01*
X137650746Y-77753621D01*
X137709037Y-77758749D01*
X137757641Y-77764333D01*
X137735910Y-77710038D01*
X137722000Y-77662026D01*
X137712000Y-77583308D01*
X137725077Y-77512282D01*
X137763795Y-77485872D01*
X137780462Y-77488436D01*
X137798410Y-77498180D01*
X137820205Y-77518692D01*
X137904308Y-77615103D01*
X137945846Y-77662282D01*
X137994564Y-77704590D01*
X138040462Y-77726641D01*
X138089949Y-77733564D01*
X138151231Y-77722538D01*
X138207385Y-77689462D01*
X138252513Y-77631000D01*
X138278410Y-77553051D01*
X138285333Y-77467410D01*
X138283111Y-77407923D01*
X138276444Y-77345017D01*
X138265333Y-77278692D01*
X138200462Y-77275103D01*
X138159885Y-77271641D01*
X138097128Y-77265359D01*
X138113218Y-77310487D01*
X138123538Y-77351513D01*
X138130974Y-77418692D01*
X138116103Y-77485103D01*
X138079179Y-77511513D01*
X138059179Y-77507410D01*
X138036359Y-77492026D01*
X138007641Y-77462282D01*
X137961231Y-77404333D01*
X137932000Y-77367410D01*
X137899692Y-77332026D01*
X137862256Y-77299205D01*
X137828410Y-77277923D01*
X137797385Y-77266897D01*
X137763795Y-77263308D01*
X137718731Y-77268821D01*
X137675846Y-77285359D01*
X137637769Y-77312026D01*
X137607128Y-77347923D01*
X137584244Y-77390423D01*
X137569436Y-77436897D01*
X137561359Y-77486705D01*
X137558667Y-77539205D01*
X137471145Y-77539205D01*
X137471145Y-77263308D01*
X137471145Y-77263220D01*
X137473316Y-77219029D01*
X137479808Y-77175263D01*
X137490559Y-77132344D01*
X137505465Y-77090686D01*
X137524382Y-77050689D01*
X137547128Y-77012739D01*
X137573485Y-76977201D01*
X137603198Y-76944418D01*
X137635981Y-76914705D01*
X137671519Y-76888348D01*
X137709469Y-76865602D01*
X137749465Y-76846685D01*
X137791124Y-76831779D01*
X137834043Y-76821029D01*
X137877809Y-76814536D01*
X137922000Y-76812366D01*
X137966191Y-76814536D01*
G37*
%TD*%
M02*
