%TF.GenerationSoftware,KiCad,Pcbnew,9.0.3-9.0.3-0~ubuntu24.04.1*%
%TF.CreationDate,2025-10-28T20:09:38+01:00*%
%TF.ProjectId,ant control board v2,616e7420-636f-46e7-9472-6f6c20626f61,2.0*%
%TF.SameCoordinates,Original*%
%TF.FileFunction,Soldermask,Bot*%
%TF.FilePolarity,Negative*%
%FSLAX46Y46*%
G04 Gerber Fmt 4.6, Leading zero omitted, Abs format (unit mm)*
G04 Created by KiCad (PCBNEW 9.0.3-9.0.3-0~ubuntu24.04.1) date 2025-10-28 20:09:38*
%MOMM*%
%LPD*%
G01*
G04 APERTURE LIST*
G04 Aperture macros list*
%AMRoundRect*
0 Rectangle with rounded corners*
0 $1 Rounding radius*
0 $2 $3 $4 $5 $6 $7 $8 $9 X,Y pos of 4 corners*
0 Add a 4 corners polygon primitive as box body*
4,1,4,$2,$3,$4,$5,$6,$7,$8,$9,$2,$3,0*
0 Add four circle primitives for the rounded corners*
1,1,$1+$1,$2,$3*
1,1,$1+$1,$4,$5*
1,1,$1+$1,$6,$7*
1,1,$1+$1,$8,$9*
0 Add four rect primitives between the rounded corners*
20,1,$1+$1,$2,$3,$4,$5,0*
20,1,$1+$1,$4,$5,$6,$7,0*
20,1,$1+$1,$6,$7,$8,$9,0*
20,1,$1+$1,$8,$9,$2,$3,0*%
%AMFreePoly0*
4,1,9,3.862500,-0.866500,0.737500,-0.866500,0.737500,-0.450000,-0.737500,-0.450000,-0.737500,0.450000,0.737500,0.450000,0.737500,0.866500,3.862500,0.866500,3.862500,-0.866500,3.862500,-0.866500,$1*%
G04 Aperture macros list end*
%ADD10C,0.500000*%
%ADD11RoundRect,0.375000X0.375000X-0.625000X0.375000X0.625000X-0.375000X0.625000X-0.375000X-0.625000X0*%
%ADD12RoundRect,0.300000X0.970000X-0.700000X0.970000X0.700000X-0.970000X0.700000X-0.970000X-0.700000X0*%
%ADD13C,0.650000*%
%ADD14O,1.250000X2.500000*%
%ADD15RoundRect,0.300000X-0.700000X-0.970000X0.700000X-0.970000X0.700000X0.970000X-0.700000X0.970000X0*%
%ADD16C,2.000000*%
%ADD17RoundRect,0.375000X0.625000X0.375000X-0.625000X0.375000X-0.625000X-0.375000X0.625000X-0.375000X0*%
%ADD18RoundRect,0.300000X-0.970000X0.700000X-0.970000X-0.700000X0.970000X-0.700000X0.970000X0.700000X0*%
%ADD19RoundRect,0.135000X0.185000X-0.135000X0.185000X0.135000X-0.185000X0.135000X-0.185000X-0.135000X0*%
%ADD20RoundRect,0.135000X0.135000X0.185000X-0.135000X0.185000X-0.135000X-0.185000X0.135000X-0.185000X0*%
%ADD21RoundRect,0.135000X-0.135000X-0.185000X0.135000X-0.185000X0.135000X0.185000X-0.135000X0.185000X0*%
%ADD22RoundRect,0.150000X0.150000X-0.512500X0.150000X0.512500X-0.150000X0.512500X-0.150000X-0.512500X0*%
%ADD23RoundRect,0.140000X0.140000X0.170000X-0.140000X0.170000X-0.140000X-0.170000X0.140000X-0.170000X0*%
%ADD24RoundRect,0.225000X-0.425000X-0.225000X0.425000X-0.225000X0.425000X0.225000X-0.425000X0.225000X0*%
%ADD25FreePoly0,0.000000*%
%ADD26RoundRect,0.087500X0.225000X0.087500X-0.225000X0.087500X-0.225000X-0.087500X0.225000X-0.087500X0*%
%ADD27RoundRect,0.087500X0.087500X0.225000X-0.087500X0.225000X-0.087500X-0.225000X0.087500X-0.225000X0*%
%ADD28RoundRect,0.140000X-0.170000X0.140000X-0.170000X-0.140000X0.170000X-0.140000X0.170000X0.140000X0*%
%ADD29RoundRect,0.250000X-0.250000X0.500000X-0.250000X-0.500000X0.250000X-0.500000X0.250000X0.500000X0*%
%ADD30RoundRect,0.140000X-0.140000X-0.170000X0.140000X-0.170000X0.140000X0.170000X-0.140000X0.170000X0*%
%ADD31RoundRect,0.140000X0.170000X-0.140000X0.170000X0.140000X-0.170000X0.140000X-0.170000X-0.140000X0*%
%TA.AperFunction,Profile*%
%ADD32C,0.050000*%
%TD*%
G04 APERTURE END LIST*
D10*
%TO.C,J10*%
X102647200Y-119711200D03*
X102640000Y-118300000D03*
D11*
X102190000Y-119000000D03*
D10*
X101732800Y-119711200D03*
X101732800Y-118288800D03*
X100654400Y-118300000D03*
X100640000Y-119700000D03*
D11*
X100190000Y-119000000D03*
D10*
X99740000Y-119700000D03*
X99740000Y-118300000D03*
%TD*%
%TO.C,J7*%
X99721000Y-135055000D03*
X101499000Y-135055000D03*
D12*
X100610000Y-134420000D03*
D10*
X99721000Y-133785000D03*
X101499000Y-133785000D03*
X99721000Y-132515000D03*
X101499000Y-132515000D03*
D12*
X100610000Y-131880000D03*
D10*
X99721000Y-131245000D03*
X101499000Y-131245000D03*
X99721000Y-129975000D03*
X101499000Y-129975000D03*
D12*
X100610000Y-129340000D03*
D10*
X99721000Y-128705000D03*
X101499000Y-128705000D03*
%TD*%
D13*
%TO.C,J3*%
X117890000Y-115680000D03*
X112110000Y-115680000D03*
D14*
X119320000Y-116180000D03*
X119320000Y-112000000D03*
X110680000Y-116180000D03*
X110680000Y-112000000D03*
%TD*%
D10*
%TO.C,J5*%
X105055000Y-138611000D03*
X105055000Y-140389000D03*
D15*
X105690000Y-139500000D03*
D10*
X106325000Y-138611000D03*
X106325000Y-140389000D03*
X107595000Y-138611000D03*
X107595000Y-140389000D03*
D15*
X108230000Y-139500000D03*
D10*
X108865000Y-138611000D03*
X108865000Y-140389000D03*
%TD*%
%TO.C,J8*%
X117501000Y-140135000D03*
X119279000Y-140135000D03*
D12*
X118390000Y-139500000D03*
D10*
X117501000Y-138865000D03*
X119279000Y-138865000D03*
X117501000Y-137595000D03*
X119279000Y-137595000D03*
D12*
X118390000Y-136960000D03*
D10*
X117501000Y-136325000D03*
X119279000Y-136325000D03*
X117501000Y-135055000D03*
X119279000Y-135055000D03*
D12*
X118390000Y-134420000D03*
D10*
X117501000Y-133785000D03*
X119279000Y-133785000D03*
%TD*%
%TO.C,J6*%
X110135000Y-138611000D03*
X110135000Y-140389000D03*
D15*
X110770000Y-139500000D03*
D10*
X111405000Y-138611000D03*
X111405000Y-140389000D03*
X112675000Y-138611000D03*
X112675000Y-140389000D03*
D15*
X113310000Y-139500000D03*
D10*
X113945000Y-138611000D03*
X113945000Y-140389000D03*
%TD*%
D16*
%TO.C,U7*%
X108203000Y-111337000D03*
X108203000Y-113877000D03*
X108203000Y-116417000D03*
X105663000Y-111337000D03*
X105663000Y-113877000D03*
X105663000Y-116417000D03*
X103123000Y-111337000D03*
X103123000Y-113877000D03*
X103123000Y-116417000D03*
X100583000Y-111337000D03*
X100583000Y-113877000D03*
X100583000Y-116417000D03*
%TD*%
D10*
%TO.C,J4*%
X99975000Y-138611000D03*
X99975000Y-140389000D03*
D15*
X100610000Y-139500000D03*
D10*
X101245000Y-138611000D03*
X101245000Y-140389000D03*
X102515000Y-138611000D03*
X102515000Y-140389000D03*
D15*
X103150000Y-139500000D03*
D10*
X103785000Y-138611000D03*
X103785000Y-140389000D03*
%TD*%
%TO.C,J9*%
X100981200Y-120940896D03*
X99570000Y-120948096D03*
D17*
X100270000Y-121398096D03*
D10*
X100981200Y-121855296D03*
X99558800Y-121855296D03*
X99570000Y-122933696D03*
X100970000Y-122948096D03*
D17*
X100270000Y-123398096D03*
D10*
X100970000Y-123848096D03*
X99570000Y-123848096D03*
X99570000Y-124933696D03*
X100970000Y-124948096D03*
D17*
X100270000Y-125398096D03*
D10*
X100970000Y-125848096D03*
X99570000Y-125848096D03*
%TD*%
%TO.C,J1*%
X119279000Y-127705000D03*
X117501000Y-127705000D03*
D18*
X118390000Y-128340000D03*
D10*
X119279000Y-128975000D03*
X117501000Y-128975000D03*
X119279000Y-130245000D03*
X117501000Y-130245000D03*
D18*
X118390000Y-130880000D03*
D10*
X119279000Y-131515000D03*
X117501000Y-131515000D03*
%TD*%
%TO.C,J2*%
X119279000Y-122625000D03*
X117501000Y-122625000D03*
D18*
X118390000Y-123260000D03*
D10*
X119279000Y-123895000D03*
X117501000Y-123895000D03*
X119279000Y-125165000D03*
X117501000Y-125165000D03*
D18*
X118390000Y-125800000D03*
D10*
X119279000Y-126435000D03*
X117501000Y-126435000D03*
%TD*%
D19*
%TO.C,R5*%
X105490000Y-129410000D03*
X105490000Y-128390000D03*
%TD*%
D20*
%TO.C,R4*%
X105500000Y-130600000D03*
X104480000Y-130600000D03*
%TD*%
D21*
%TO.C,R3*%
X104480000Y-131700000D03*
X105500000Y-131700000D03*
%TD*%
D22*
%TO.C,U8*%
X106720000Y-123637500D03*
X105770000Y-123637500D03*
X104820000Y-123637500D03*
X104820000Y-121362500D03*
X106720000Y-121362500D03*
%TD*%
D20*
%TO.C,R1*%
X113030000Y-116750000D03*
X112010000Y-116750000D03*
%TD*%
D23*
%TO.C,C10*%
X109970000Y-127700000D03*
X109010000Y-127700000D03*
%TD*%
D24*
%TO.C,U1*%
X111740000Y-131562500D03*
D25*
X111827500Y-130062500D03*
D24*
X111740000Y-128562500D03*
%TD*%
D26*
%TO.C,U5*%
X110652500Y-124750000D03*
X110652500Y-125250000D03*
X110652500Y-125750000D03*
X110652500Y-126250000D03*
D27*
X109990000Y-126412500D03*
X109490000Y-126412500D03*
X108990000Y-126412500D03*
D26*
X108327500Y-126250000D03*
X108327500Y-125750000D03*
X108327500Y-125250000D03*
X108327500Y-124750000D03*
D27*
X108990000Y-124587500D03*
X109490000Y-124587500D03*
X109990000Y-124587500D03*
%TD*%
D28*
%TO.C,C19*%
X103570000Y-121420000D03*
X103570000Y-122380000D03*
%TD*%
%TO.C,C3*%
X112670000Y-133070000D03*
X112670000Y-134030000D03*
%TD*%
D21*
%TO.C,R2*%
X117010000Y-116750000D03*
X118030000Y-116750000D03*
%TD*%
D28*
%TO.C,C2*%
X113620000Y-133070000D03*
X113620000Y-134030000D03*
%TD*%
D29*
%TO.C,J12*%
X117029404Y-110926904D03*
X115779404Y-110926904D03*
X114529404Y-110926904D03*
X113279404Y-110926904D03*
%TD*%
D30*
%TO.C,C4*%
X111690000Y-126900000D03*
X112650000Y-126900000D03*
%TD*%
D31*
%TO.C,C8*%
X104490000Y-129380000D03*
X104490000Y-128420000D03*
%TD*%
D28*
%TO.C,C1*%
X114570000Y-133070000D03*
X114570000Y-134030000D03*
%TD*%
D31*
%TO.C,C9*%
X107090000Y-126380000D03*
X107090000Y-125420000D03*
%TD*%
D32*
X119000000Y-110000000D02*
X100000000Y-110000000D01*
X99000000Y-111000000D02*
G75*
G02*
X100000000Y-110000000I1000000J0D01*
G01*
X120000000Y-140000000D02*
X120000000Y-111000000D01*
X100000000Y-141000000D02*
X119000000Y-141000000D01*
X99000000Y-111000000D02*
X99000000Y-140000000D01*
X120000000Y-140000000D02*
G75*
G02*
X119000000Y-141000000I-1000000J0D01*
G01*
X100000000Y-141000000D02*
G75*
G02*
X99000000Y-140000000I0J1000000D01*
G01*
X119000000Y-110000000D02*
G75*
G02*
X120000000Y-111000000I0J-1000000D01*
G01*
M02*
